<svg width="588" height="374" viewBox="0 0 588 374" fill="none" xmlns="http://www.w3.org/2000/svg">
<path fill-rule="evenodd" clip-rule="evenodd" d="M426.08 126.393C437.708 126.393 453.607 134.539 459.599 137.606C473.843 144.904 506.52 165.365 502.219 197.649C497.895 213.434 486.774 216.761 478.207 216.761C470.027 216.767 460.324 213.647 451.579 208.205C440.284 201.178 430.588 190.927 423.538 178.555C419.905 172.179 408.456 150.151 413.569 134.326C415.27 129.063 419.478 126.393 426.08 126.393ZM478.206 217.959C487.189 217.959 498.84 214.478 503.377 197.886C507.799 164.765 474.609 143.954 460.133 136.54C454.08 133.439 437.995 125.2 426.079 125.2C418.901 125.2 414.312 128.145 412.433 133.957C407.169 150.249 418.815 172.669 422.505 179.149C429.653 191.694 439.488 202.094 450.955 209.226C459.88 214.777 469.813 217.959 478.206 217.959Z" fill="#FFC700"/>
<path fill-rule="evenodd" clip-rule="evenodd" d="M161.327 247.937C149.733 247.937 133.881 239.815 127.907 236.757C113.705 229.481 81.1244 209.08 85.4132 176.891C89.7241 161.153 100.812 157.836 109.354 157.836C117.509 157.83 127.184 160.94 135.903 166.366C147.165 173.372 156.833 183.593 163.862 195.929C167.484 202.286 178.9 224.249 173.801 240.027C172.105 245.275 167.909 247.937 161.327 247.937ZM109.355 156.641C100.399 156.641 88.7822 160.112 84.2584 176.655C79.8495 209.678 112.942 230.428 127.375 237.82C133.41 240.912 149.447 249.127 161.328 249.127C168.485 249.127 173.06 246.19 174.935 240.395C180.183 224.151 168.571 201.798 164.892 195.337C157.765 182.829 147.959 172.459 136.526 165.348C127.628 159.814 117.724 156.641 109.355 156.641Z" fill="#FFC700"/>
<path opacity="0.7" fill-rule="evenodd" clip-rule="evenodd" d="M535.053 202.856C532.77 216.928 526.118 241.563 507.15 249.738C501.921 251.992 496.301 253.133 490.438 253.133C474.549 253.133 456.435 244.923 436.597 228.724C404.468 202.498 379.517 157.265 373.021 113.486C370.985 99.7769 370.899 82.0605 382.043 75.4651C385.514 73.4131 389.52 72.3694 393.959 72.3694C409.121 72.3694 427.08 84.3604 438.961 92.2932C440.299 93.1872 441.573 94.035 442.772 94.8251C449.656 99.3448 456.769 103.731 463.652 107.968C477.593 116.553 492 125.43 504.988 135.779C514.311 143.205 522.059 152.088 529.38 163.722C535.942 174.158 535.538 187.215 535.145 199.841C535.117 200.849 535.082 201.859 535.053 202.856ZM490.437 257.924H490.443C496.945 257.918 503.2 256.65 509.023 254.136C530.147 245.033 537.359 218.479 539.775 203.461L539.803 203.144C539.832 202.101 539.861 201.051 539.895 199.991C540.293 187.262 540.737 172.837 533.398 161.163C525.782 149.056 517.694 139.797 507.94 132.026C494.727 121.499 480.192 112.546 466.138 103.887C459.283 99.6606 452.191 95.2973 445.372 90.8173C444.178 90.0338 442.916 89.1917 441.59 88.3039C429.229 80.0542 410.557 67.5842 393.958 67.5842C388.661 67.5842 383.841 68.8471 379.632 71.3374C368.851 77.7192 365.047 92.1373 368.315 114.189C374.98 159.087 400.606 205.508 433.605 232.442C454.307 249.351 473.43 257.924 490.437 257.924Z" fill="#FFC700"/>
<path opacity="0.7" fill-rule="evenodd" clip-rule="evenodd" d="M52.6758 171.7C54.9525 157.67 61.5849 133.108 80.4964 124.957C85.7105 122.709 91.314 121.571 97.16 121.571C113.001 121.571 131.062 129.757 150.841 145.908C182.875 172.057 207.753 217.156 214.23 260.807C216.26 274.475 216.346 292.139 205.235 298.715C201.774 300.761 197.78 301.802 193.354 301.802C178.236 301.802 160.331 289.846 148.485 281.937C147.151 281.045 145.881 280.2 144.685 279.412C137.821 274.906 130.729 270.533 123.866 266.308C109.967 257.748 95.6023 248.897 82.6521 238.579C73.3569 231.175 65.6316 222.318 58.332 210.718C51.7901 200.314 52.1927 187.295 52.584 174.706C52.6122 173.701 52.6476 172.695 52.6758 171.7ZM97.1621 116.795L97.156 116.795C90.6734 116.801 84.4365 118.065 78.6306 120.571C57.569 129.648 50.3786 156.123 47.9701 171.097L47.9418 171.412C47.9126 172.453 47.8844 173.499 47.85 174.557C47.4535 187.248 47.0109 201.63 54.3284 213.27C61.9213 225.342 69.9852 234.573 79.7112 242.321C92.8851 252.817 107.376 261.744 121.39 270.378C128.225 274.591 135.295 278.941 142.095 283.408C143.285 284.189 144.543 285.029 145.865 285.914C158.189 294.14 176.807 306.573 193.356 306.573C198.638 306.573 203.443 305.314 207.64 302.831C218.389 296.468 222.182 282.092 218.923 260.105C212.278 215.34 186.728 169.056 153.827 142.201C133.185 125.342 114.119 116.795 97.1621 116.795Z" fill="#FFC700"/>
<path fill-rule="evenodd" clip-rule="evenodd" d="M381.113 32.1047C394.782 32.1047 411.034 39.4377 429.418 53.8969C456.808 75.4406 485.968 94.1087 513.399 111.075C515.048 112.095 516.72 113.116 518.396 114.136C529.212 120.714 540.39 127.523 548.773 137.018C560.533 150.347 563.468 167.631 563.854 179.784C563.957 183.144 563.929 186.817 563.756 191.013C558.832 222.266 551.159 254.147 528.601 275.143C520.489 282.684 510.971 286.512 500.311 286.512H500.306C480.664 286.512 460.487 273.783 447.013 264.206C401.855 232.119 367.316 180.302 349.762 118.316C343.605 96.5702 337.345 65.3576 353.994 45.4285C361.385 36.5899 370.506 32.1047 381.113 32.1047ZM500.304 287.705H500.31C511.281 287.705 521.07 283.774 529.401 276.019C552.23 254.775 559.972 222.664 564.936 191.129C565.115 186.834 565.143 183.133 565.039 179.743C564.642 167.394 561.656 149.817 549.659 136.223C541.161 126.595 529.897 119.74 519.006 113.11C517.334 112.09 515.668 111.075 514.019 110.055C486.617 93.1053 457.492 74.4608 430.143 52.9525C411.55 38.3257 395.051 30.9062 381.111 30.9062C370.14 30.9062 360.709 35.536 353.082 44.6556C336.069 65.0238 342.387 96.6341 348.619 118.644C366.243 180.89 400.943 232.937 446.325 265.186C459.925 274.855 480.328 287.705 500.304 287.705Z" fill="#FFC700"/>
<path fill-rule="evenodd" clip-rule="evenodd" d="M206.168 341.947C192.539 341.947 176.335 334.636 158.005 320.219C130.696 298.739 101.622 280.126 74.2723 263.21C72.628 262.193 70.9611 261.175 69.2894 260.157C58.5053 253.599 47.3605 246.81 39.0024 237.343C27.2765 224.054 24.3509 206.821 23.9657 194.704C23.8626 191.354 23.8908 187.691 24.0637 183.507C28.9726 152.347 36.6235 120.56 59.1151 99.626C67.2025 92.107 76.6931 88.2905 87.3209 88.2905L87.3266 88.2905C106.911 88.2905 127.028 100.982 140.462 110.53C185.486 142.523 219.923 194.187 237.426 255.99C243.565 277.672 249.806 308.792 233.207 328.663C225.837 337.475 216.744 341.947 206.168 341.947ZM87.3268 87.1007L87.3211 87.1007C76.3821 87.1007 66.6221 91.0203 58.3158 98.7526C35.5534 119.934 27.8347 151.95 22.8857 183.392C22.7068 187.675 22.6785 191.365 22.7821 194.745C23.1786 207.058 26.156 224.582 38.1173 238.137C46.5899 247.736 57.8213 254.571 68.6799 261.181C70.3468 262.198 72.0081 263.21 73.6524 264.227C100.973 281.127 130.012 299.716 157.281 321.161C175.819 335.745 192.269 343.142 206.168 343.142C217.106 343.142 226.51 338.526 234.115 329.434C251.077 309.125 244.778 277.608 238.564 255.663C220.993 193.601 186.395 141.707 141.146 109.553C127.586 99.9133 107.244 87.1007 87.3268 87.1007Z" fill="#FFC700"/>
<path fill-rule="evenodd" clip-rule="evenodd" d="M326.314 34.6248C330.69 21.6018 339.159 8.51511 350.7 0H352.764C340.732 8.30731 331.917 21.6878 327.438 35.005C319.431 58.81 320.589 86.5103 330.972 119.694C340.64 150.571 355.831 183.329 374.913 214.42C391.718 241.804 413.014 263.1 439.817 286.651C441.01 287.7 442.243 288.796 443.523 289.926C460.617 305.077 484.029 325.83 506.841 325.83H506.847C510.456 325.83 513.972 325.288 517.294 324.227C540.008 316.952 553.094 294.013 563.858 270.302C574.102 247.73 581.314 223.846 587.633 200.059V204.648C581.574 227.062 574.604 249.5 564.935 270.802C554.063 294.756 540.81 317.949 517.651 325.369C514.214 326.464 510.583 327.024 506.847 327.024C506.841 327.024 506.841 327.024 506.841 327.024C483.579 327.024 459.971 306.102 442.739 290.824C441.459 289.694 440.226 288.6 439.039 287.556C412.15 263.931 390.784 242.559 373.904 215.049C354.77 183.876 339.533 151.028 329.842 120.052C319.373 86.6198 318.22 58.6707 326.314 34.6248Z" fill="#FFC700"/>
<path fill-rule="evenodd" clip-rule="evenodd" d="M260.804 339.435C256.441 352.419 247.997 365.468 236.49 373.958L234.432 373.958C246.428 365.675 255.217 352.334 259.683 339.056C267.667 315.321 266.512 287.702 256.16 254.616C246.52 223.83 231.374 191.169 212.348 160.17C195.592 132.866 174.359 111.633 147.636 88.1524C146.447 87.1061 145.217 86.0137 143.941 84.8869C126.897 69.781 103.554 49.0886 80.8095 49.0886L80.8034 49.0886C77.2049 49.0886 73.6992 49.6287 70.3875 50.6872C47.7405 57.9407 34.6924 80.8118 23.961 104.453C13.7466 126.958 6.55627 150.772 0.255877 174.489L0.255877 169.913C6.29681 147.565 13.2461 125.193 22.8864 103.954C33.7271 80.0711 46.9409 56.9462 70.0311 49.5486C73.4577 48.4562 77.0787 47.8982 80.8034 47.8982C80.8095 47.8982 80.8095 47.8982 80.8095 47.8982C104.003 47.8982 127.541 68.7582 144.722 83.9912C145.998 85.1181 147.228 86.2091 148.412 87.2497C175.221 110.806 196.524 132.114 213.354 159.543C232.432 190.624 247.624 223.375 257.286 254.26C267.724 287.593 268.874 315.46 260.804 339.435Z" fill="#FFC700"/>
<path fill-rule="evenodd" clip-rule="evenodd" d="M587.633 126.837C586.826 125.846 585.961 124.872 585.015 123.926C573.751 112.684 559.055 105.876 544.845 99.2924C542.879 98.3748 540.907 97.4647 538.953 96.5423C514.364 84.9537 482.495 68.3797 454.056 42.8976C449.162 38.5102 444.359 33.6104 439.281 28.4215C428.967 17.9001 418.428 7.14929 406.437 0H408.726C420.141 7.1951 430.235 17.4907 440.122 27.5855C445.189 32.757 449.98 37.6403 454.846 42.0041C483.175 67.3879 514.946 83.9043 539.46 95.4585C541.409 96.3808 543.375 97.2909 545.347 98.2024C559.65 104.832 574.437 111.687 585.851 123.078C586.48 123.702 587.067 124.342 587.633 124.992V126.837Z" fill="#FFC700"/>
<path fill-rule="evenodd" clip-rule="evenodd" d="M0.25587 247.494C1.06061 248.483 1.92232 249.454 2.86549 250.397C14.097 261.606 28.7489 268.394 42.9177 274.958C44.8775 275.873 46.8434 276.78 48.792 277.7C73.3084 289.254 105.083 305.78 133.439 331.186C138.318 335.561 143.107 340.446 148.17 345.62C158.454 356.11 168.962 366.829 180.917 373.958L178.635 373.958C167.254 366.784 157.19 356.518 147.332 346.453C142.279 341.297 137.502 336.428 132.651 332.077C104.405 306.768 72.7278 290.301 48.2867 278.781C46.3434 277.861 44.3831 276.954 42.4172 276.045C28.1565 269.435 13.4132 262.6 2.03203 251.243C1.40576 250.621 0.819515 249.982 0.25587 249.334L0.25587 247.494Z" fill="#FFC700"/>
<path fill-rule="evenodd" clip-rule="evenodd" d="M308.047 28.5448C310.383 18.767 314.086 9.13368 318.861 0H320.193C315.331 9.20808 311.566 18.9403 309.201 28.8259C302.135 58.354 305.666 89.8479 320.642 130.94C333.925 167.372 349.047 199.74 365.593 227.146C379.187 249.661 395.981 267.888 413.762 287.185C418.359 292.18 423.116 297.342 427.771 302.544C432.603 307.935 437.414 313.505 442.068 318.892C448.579 326.432 455.316 334.221 462.19 341.654C463.522 343.084 464.878 344.591 466.267 346.131C475.051 355.857 485.006 366.875 496.806 371.048C500.035 372.187 503.334 372.773 506.621 372.773H506.627C530.089 372.761 549.283 343.458 556.445 330.859C569.358 308.142 578.886 283.437 587.744 259.094V262.56C579.18 285.954 569.895 309.602 557.478 331.451C548.451 347.327 529.841 373.957 506.627 373.957H506.621C503.202 373.957 499.764 373.359 496.413 372.175C484.325 367.9 474.267 356.76 465.391 346.93C464 345.395 462.646 343.895 461.319 342.464C454.427 335.02 447.691 327.22 441.168 319.679C436.52 314.292 431.71 308.729 426.888 303.337C422.24 298.147 417.482 292.985 412.886 287.996C395.064 268.653 378.229 250.385 364.579 227.767C347.992 200.292 332.836 167.855 319.524 131.349C304.466 90.0268 300.924 58.3201 308.047 28.5448Z" fill="#FFC700"/>
<path fill-rule="evenodd" clip-rule="evenodd" d="M279.466 345.681C277.132 355.381 273.432 364.939 268.661 374L267.33 374C272.188 364.865 275.95 355.21 278.313 345.402C285.373 316.108 281.845 284.863 266.881 244.095C253.61 207.951 238.5 175.84 221.967 148.65C208.385 126.313 191.605 108.23 173.839 89.0863C169.246 84.1312 164.492 79.0097 159.841 73.849C155.013 68.5001 150.206 62.9746 145.556 57.6303C139.05 50.1492 132.319 42.4224 125.451 35.0479C124.119 33.6291 122.764 32.1342 121.377 30.6066C112.6 20.9575 102.653 10.026 90.8631 5.88606C87.637 4.75648 84.3406 4.17484 81.0564 4.17484L81.0502 4.17484C57.6074 4.18653 38.4296 33.2577 31.2731 45.7575C18.3705 68.2945 8.85129 92.8049 2.24716e-05 116.955L2.27722e-05 113.517C8.55719 90.307 17.8347 66.8463 30.2416 45.1702C39.2605 29.42 57.8552 2.99997 81.0502 2.99998L81.0564 2.99998C84.4727 2.99998 87.907 3.59324 91.2554 4.76814C103.334 9.00993 113.384 20.0615 122.252 29.8134C123.642 31.3368 124.995 32.8247 126.321 34.2444C133.207 41.6292 139.937 49.3677 146.455 56.8492C151.099 62.1935 155.905 67.7129 160.723 73.0619C165.368 78.2114 170.121 83.3324 174.714 88.2819C192.521 107.471 209.342 125.595 222.981 148.035C239.554 175.292 254.698 207.472 267.998 243.69C283.044 284.685 286.583 316.141 279.466 345.681Z" fill="#FFC700"/>
<path fill-rule="evenodd" clip-rule="evenodd" d="M587 88C584.449 87.3039 581.904 86.6175 579.393 85.9438C552.622 78.7289 524.941 71.2692 500.853 56.8458C478.062 43.1919 460.729 24.5095 444 3H445.492C461.978 24.119 479.092 42.4507 501.475 55.8592C525.419 70.1991 553.02 77.636 579.71 84.8285C582.11 85.4748 584.553 86.1334 587 86.797V88Z" fill="#FFC700"/>
<path fill-rule="evenodd" clip-rule="evenodd" d="M0.255867 286.323C2.80192 287.041 5.34233 287.749 7.84883 288.443C34.5713 295.882 62.2026 303.573 86.2468 318.443C108.997 332.52 126.299 351.781 142.997 373.958L141.508 373.958C125.052 352.184 107.969 333.284 85.6266 319.46C61.7256 304.676 34.1744 297.008 7.53287 289.593C5.13655 288.927 2.69833 288.248 0.255867 287.564L0.255867 286.323Z" fill="#FFC700"/>
<path fill-rule="evenodd" clip-rule="evenodd" d="M473.44 5C473.782 5.47672 474.107 5.95389 474.456 6.43061C493.144 31.9862 520.684 49.7809 554.087 57.8906C564.982 60.5326 576.162 62.3852 587 63.8273V65C576.077 63.5574 564.8 61.6887 553.808 59.0238C520.124 50.8475 492.356 32.895 473.502 7.11005C472.988 6.409 472.497 5.70703 472 5H473.44Z" fill="#FFC700"/>
<path fill-rule="evenodd" clip-rule="evenodd" d="M114.573 373.958C114.228 373.469 113.901 372.98 113.55 372.492C94.7368 346.315 67.0136 328.088 33.388 319.781C22.4202 317.075 11.1657 315.177 0.255865 313.7L0.255865 312.499C11.2519 313.977 22.6034 315.891 33.6691 318.621C67.5778 326.996 95.5302 345.384 114.51 371.796C115.027 372.514 115.521 373.233 116.022 373.958L114.573 373.958Z" fill="#FFC700"/>
<path fill-rule="evenodd" clip-rule="evenodd" d="M500.576 5C512.85 18.7117 529.317 29.3104 548.138 35.115C560.784 39.0156 573.843 40.9146 587 41.8307V43C573.74 42.0839 560.562 40.1679 547.788 36.2282C528.407 30.2482 511.487 19.2457 499 5H500.576Z" fill="#FFC700"/>
<path fill-rule="evenodd" clip-rule="evenodd" d="M86.9884 373.958C74.6702 359.932 58.1446 349.091 39.2566 343.154C26.5649 339.164 13.4594 337.222 0.255863 336.285L0.255863 335.089C13.563 336.026 26.7886 337.985 39.6074 342.015C59.0581 348.132 76.0381 359.386 88.5696 373.958L86.9884 373.958Z" fill="#FFC700"/>
</svg>
