<svg width="28" height="30" viewBox="0 0 28 30" fill="none" xmlns="http://www.w3.org/2000/svg">
<path d="M25.2018 3.90131H24.8459C25.5244 2.79667 25.2738 1.31363 24.1849 0.505695C23.0116 -0.364757 21.3442 -0.0845673 20.5254 1.13908L18.677 3.90137H2.79861C1.49346 3.90137 0.431641 4.96319 0.431641 6.26834V21.4013C0.431641 22.7064 1.49346 23.7682 2.79861 23.7682H11.9926L11.2979 26.686H9.79861C8.82146 26.686 8.02647 27.4809 8.02647 28.4581V28.8281H6.17817C5.85456 28.8281 5.59224 29.0904 5.59224 29.414C5.59224 29.7375 5.85456 29.9999 6.17817 29.9999H21.8223C22.1459 29.9999 22.4083 29.7375 22.4083 29.414C22.4083 29.0904 22.1459 28.8281 21.8223 28.8281H19.974V28.4581C19.974 27.4809 19.179 26.686 18.2019 26.686H16.7026L16.0079 23.7682H25.2019C26.507 23.7682 27.5689 22.7064 27.5689 21.4013V18.0715V6.26828C27.5689 4.96313 26.507 3.90131 25.2018 3.90131ZM16.8066 14.2018C15.8905 14.8431 14.1742 13.9714 12.5353 14.846C12.1354 12.7686 12.3875 10.8148 14.469 10.3836C14.738 10.3275 15.0276 10.3021 15.2742 10.3071C15.9787 10.8298 16.6913 11.3585 17.3938 11.8797C17.7014 12.7743 17.586 13.6563 16.8066 14.2018ZM17.3971 7.92141L19.0557 9.15197L17.7801 10.7071C17.255 10.3175 16.8036 9.98258 16.2785 9.59294C16.3876 9.42999 17.2974 8.07029 17.3971 7.92141ZM21.4994 1.79081C21.9432 1.12748 22.8482 0.973146 23.4867 1.44687C24.1253 1.92065 24.2397 2.83153 23.7336 3.44857C22.8357 4.54325 20.7009 7.14599 19.7996 8.2449L18.0494 6.94637L21.4994 1.79081ZM18.8021 28.4581V28.8281H9.19832V28.4581C9.19832 28.1271 9.46762 27.8578 9.79861 27.8578H18.2018C18.5328 27.8578 18.8021 28.1271 18.8021 28.4581ZM15.4979 26.686H12.5025L13.1972 23.7682H14.8032L15.4979 26.686ZM26.397 21.4013C26.397 22.0603 25.8609 22.5964 25.2019 22.5964C24.2718 22.5964 3.84443 22.5964 2.79866 22.5964C2.13967 22.5964 1.60355 22.0603 1.60355 21.4013V18.6574H3.27789C3.6015 18.6574 3.86382 18.395 3.86382 18.0715C3.86382 17.7479 3.6015 17.4855 3.27789 17.4855H1.60343V6.26828C1.60343 5.60929 2.13956 5.07316 2.79855 5.07316H17.8929C17.3316 5.91203 15.694 8.35933 15.1752 9.13445C14.027 9.14482 12.8806 9.54483 12.1302 10.4209C11.109 11.613 10.9296 13.4861 11.5969 15.9881C11.711 16.4159 12.2448 16.5692 12.5679 16.2607C14.0829 14.813 15.9698 16.3921 17.6596 15.0244C18.691 14.1895 18.9351 12.8621 18.5462 11.6209C19.0719 10.9799 23.3897 5.71569 23.9167 5.07316H25.2018C25.8608 5.07316 26.3969 5.60929 26.3969 6.26828V17.4855H7.96519C7.64158 17.4855 7.37926 17.7479 7.37926 18.0714C7.37926 18.395 7.64158 18.6573 7.96519 18.6573H26.397V21.4013Z" fill="white"/>
<path d="M5.5082 17.4968C5.22613 17.5545 5.03711 17.7983 5.03711 18.0717C5.03711 18.4382 5.37221 18.7189 5.7373 18.6459C6.06174 18.58 6.25937 18.2674 6.19727 17.9568C6.13205 17.6363 5.82115 17.4338 5.5082 17.4968Z" fill="white"/>
</svg>
