<svg width="40" height="40" viewBox="0 0 40 40" fill="none" xmlns="http://www.w3.org/2000/svg">
<path d="M15.6902 30.574C15.3935 30.574 15.0804 30.574 14.7508 30.574C10.8777 30.574 7.00456 30.574 3.13145 30.574C1.00536 30.574 0 29.5851 0 27.4591C0 20.2897 0 13.1203 0 5.96743C0 3.8743 0.972397 2.9019 3.08201 2.9019C13.3499 2.9019 23.6177 2.88542 33.8856 2.91838C34.7591 2.91838 35.5007 2.86894 36.2589 2.32506C37.083 1.73173 38.2202 1.99543 38.8629 2.75357C39.5222 3.52819 39.5222 4.6654 38.8629 5.47299C38.7805 5.57188 38.6981 5.70373 38.5828 5.76965C37.1159 6.77501 36.8522 8.17592 36.8852 9.88998C36.9841 15.576 36.9181 21.2621 36.9181 26.9481C36.9181 29.7664 36.1106 30.5905 33.3087 30.5905C29.5675 30.5905 25.8427 30.5905 22.1014 30.5905C21.8048 30.5905 21.5081 30.5905 21.2115 30.5905C20.9313 31.2168 21.1455 31.4475 21.7224 31.6288C22.5464 31.8925 23.4035 32.1892 24.1122 32.6672C25.3812 33.5242 25.3647 34.9416 24.0792 35.7821C23.387 36.2436 22.5629 36.5732 21.7553 36.771C19.2831 37.3973 16.7945 37.3478 14.3717 36.5567C13.7289 36.3425 13.1026 36.0129 12.5752 35.6008C11.6028 34.8427 11.5699 33.5736 12.5588 32.8484C13.3169 32.3046 14.2399 31.942 15.1298 31.6288C15.6902 31.4311 15.9704 31.2498 15.6902 30.574ZM35.5502 8.83518C35.2535 9.09888 35.0558 9.28017 34.8745 9.46147C33.2758 11.0437 31.6771 12.6424 30.0949 14.241C29.5345 14.8014 28.8917 15.0651 28.0842 14.9003C27.3425 14.752 26.6997 15.3618 26.7492 16.1199C26.8975 18.213 25.6284 20.0095 23.5848 20.3886C22.3816 20.6028 21.129 20.6193 19.9094 20.6358C19.3985 20.6358 19.0689 20.7017 18.7393 21.1467C16.1022 24.6737 11.504 25.6296 7.63085 23.4871C3.93903 21.4269 2.34035 16.9769 3.88959 12.972C5.40587 8.99999 9.64157 6.77501 13.8443 7.73093C15.41 8.09352 16.7615 8.85166 17.8987 9.97239C18.2283 10.302 18.6404 10.6646 18.1954 11.159C17.7504 11.637 17.3548 11.3239 17.0087 10.9613C16.9263 10.8789 16.8604 10.8129 16.778 10.7305C14.8497 9.03295 12.6082 8.47259 10.103 9.06591C7.054 9.79109 4.86199 12.4775 4.66421 15.642C4.46644 18.8558 6.2629 21.6412 9.27898 22.8113C12.2456 23.965 15.5584 23.108 17.4537 20.6852C17.6844 20.3886 17.7998 19.9601 17.8822 19.581C18.1789 18.1142 18.3272 16.5979 18.7557 15.164C19.4644 12.8566 21.3598 11.8842 23.7331 12.4446C24.3264 12.5764 25.1175 12.0161 25.0681 11.4392C25.0022 10.4668 25.4471 9.84054 26.2218 9.32962C28.3973 7.82982 30.5399 6.31354 32.6989 4.79725C32.8802 4.6654 33.0615 4.51707 33.3747 4.25337C32.9297 4.25337 32.6989 4.25337 32.4517 4.25337C22.6948 4.25337 12.9543 4.25337 3.19737 4.25337C1.71406 4.25337 1.33499 4.61596 1.33499 6.09928C1.33499 12.494 1.33499 18.9053 1.33499 25.3C1.33499 25.5967 1.36795 25.8769 1.38443 26.1735C12.8225 26.1735 24.1781 26.1735 35.5667 26.1735C35.5502 20.3556 35.5502 14.6696 35.5502 8.83518ZM1.38443 27.5085C1.33499 28.8105 1.77998 29.239 3.13145 29.239C13.3499 29.239 23.5518 29.239 33.7702 29.239C33.9021 29.239 34.0504 29.239 34.1822 29.239C35.2041 29.1731 35.6491 28.5963 35.5007 27.5085C24.1451 27.5085 12.7895 27.5085 1.38443 27.5085ZM38.1378 4.07208C37.9565 3.82486 37.8246 3.51171 37.6268 3.44579C37.3467 3.37986 36.9511 3.39634 36.7204 3.56116C33.4076 5.85206 30.1114 8.17592 26.7986 10.4833C26.2712 10.8459 26.2547 11.2579 26.6503 11.7359C27.0788 12.2468 27.5073 12.7412 27.9193 13.2522C28.3149 13.7466 28.7269 13.7466 29.1719 13.3016C32.0067 10.4668 34.8415 7.63204 37.6763 4.79725C37.8576 4.59948 37.9565 4.35226 38.1378 4.07208ZM19.0359 19.0866C19.1183 19.2019 19.2172 19.3173 19.2996 19.4327C20.7335 19.3008 22.1838 19.2678 23.6012 19.0206C24.7879 18.8064 25.6284 17.3395 25.3977 16.1529C25.3483 15.9386 25.1175 15.7408 24.9527 15.5431C24.6231 15.1805 24.1122 14.9003 23.9968 14.4883C23.7825 13.7631 23.3211 13.6477 22.7277 13.5818C21.5411 13.4499 20.6181 13.9444 20.2061 14.9992C19.7117 16.3342 19.415 17.7351 19.0359 19.0866ZM15.888 32.766C15.443 32.8979 14.9321 32.9803 14.5036 33.211C14.0421 33.4583 13.6465 33.8373 13.2345 34.1505C13.663 34.4966 14.0256 35.0075 14.5036 35.1723C17.1241 36.0953 19.7776 36.0623 22.4146 35.1888C22.6948 35.0899 22.9749 34.9416 23.2222 34.7768C23.8485 34.3482 23.8814 33.9527 23.2387 33.6066C22.53 33.2275 21.7553 32.9968 21.0302 32.7001C19.5468 35.0734 17.5196 35.0569 15.888 32.766ZM17.157 30.607C17.1735 31.5299 16.8769 32.4859 17.8328 32.9638C18.1954 33.1451 18.8381 33.0957 19.1842 32.8814C20.0248 32.354 19.7281 31.4475 19.6952 30.607C18.8711 30.607 18.0635 30.607 17.157 30.607ZM25.7438 12.6918C25.4966 13.1698 25.2659 13.4994 25.167 13.8455C25.134 13.9609 25.4636 14.3399 25.612 14.3235C25.9745 14.274 26.3207 14.0927 26.7657 13.9114C26.4031 13.4829 26.1558 13.2027 25.7438 12.6918Z" fill="white"/>
<path d="M25.7431 12.6914C26.1551 13.1858 26.4024 13.4825 26.7649 13.911C26.3199 14.0758 25.9738 14.2736 25.6113 14.3231C25.4794 14.3395 25.1333 13.977 25.1663 13.8451C25.2652 13.499 25.4794 13.1858 25.7431 12.6914Z" fill="white"/>
<path d="M8.07771 18.7731C8.34142 17.9655 7.94586 17.2239 7.31957 16.5481C7.05587 16.2679 6.82513 15.9548 6.62736 15.6252C6.19884 14.9165 6.44606 14.1254 7.2042 13.7793C7.33606 13.7298 7.45143 13.6639 7.59976 13.6474C9.06659 13.4496 10.039 12.6585 10.7806 11.373C11.4399 10.2358 12.4288 10.2687 13.1869 11.34C13.2528 11.4224 13.3188 11.5213 13.3682 11.6037C13.8956 12.7245 14.8021 13.2683 16.0052 13.5485C17.7193 13.9606 18.0159 14.8505 16.8787 16.1855C16.0711 17.125 15.7745 18.0974 15.8734 19.3335C16.0052 21.097 15.2636 21.6079 13.6154 20.9816C12.6266 20.6025 11.7366 20.3883 10.6488 20.8497C8.55567 21.7068 7.96235 21.1959 8.07771 18.7731ZM7.51735 14.8835C9.26437 16.3174 9.77529 17.9161 9.37974 19.9433C11.1597 18.8061 12.8408 18.9874 14.7362 20.0586C14.1428 17.9161 14.7197 16.3339 16.2195 14.9989C15.1976 14.6528 14.2417 14.5539 13.5825 14.0594C12.9232 13.565 12.5277 12.708 11.9014 11.8509C11.1268 13.7463 9.77529 14.7517 7.51735 14.8835Z" fill="white"/>
</svg>
