<svg width="40" height="40" viewBox="0 0 40 40" fill="none" xmlns="http://www.w3.org/2000/svg">
<g clip-path="url(#clip0_112_1422)">
<path d="M40 16.7742H38.5503L36.3896 17.9111C36.1464 17.7769 35.8934 17.6632 35.6206 17.5948L32.9026 16.9147V16.6057C34.105 15.7664 34.8387 14.38 34.8387 12.9032V11.7755C34.8387 9.26915 32.8749 7.17175 30.4612 7.09866C30.3386 7.09551 30.218 7.09992 30.0967 7.10591L30.8014 5.45615L27.385 2.0407L25.3711 3.3515C24.6059 2.92055 23.7966 2.58506 22.9561 2.34974L22.4587 0H17.5419L17.0445 2.35037C16.204 2.58569 15.3941 2.92118 14.6295 3.35213L12.6156 2.04133L9.20205 5.45489L9.89478 7.10591C9.86832 7.10465 9.84312 7.09992 9.81666 7.09929C8.58115 7.06338 7.41746 7.51418 6.53352 8.37229C5.64831 9.22978 5.16129 10.3805 5.16129 11.6129V12.9032C5.16129 14.38 5.89434 15.7658 7.09677 16.605V16.9147L5.32384 17.3579L2.11032 15.4839H0V28.8524L6.34703 30.9677H7.58317L7.73752 30.4272L9.68309 31.5949C9.71491 32.6528 10.5633 33.504 11.6201 33.5411C11.6573 34.5936 12.5031 35.4395 13.5556 35.4766C13.5928 36.5291 14.4386 37.3749 15.4911 37.4121C15.5295 38.4892 16.4116 39.3548 17.4975 39.3548C17.9007 39.3548 18.2961 39.2291 18.6284 39.0052L19.1998 39.5098C19.558 39.8252 20.0192 40 20.498 40H20.6174C21.691 40 22.5646 39.1321 22.5781 38.062C23.6401 38.0484 24.5001 37.1884 24.5136 36.1265C25.5762 36.113 26.4368 35.2517 26.4491 34.1891C27.5214 34.1639 28.3871 33.2879 28.3871 32.2096C28.3871 32.1447 28.3839 32.0807 28.3773 32.0161L40 26.2053V16.7742ZM33.5484 11.7755V12.9032C33.5484 14.0483 32.9297 15.1181 31.9336 15.6949L31.611 15.8814L31.6135 17.9231L34.8368 18.7283L27.7419 22.4625V20.7245C27.7419 19.8573 27.3916 19.0631 26.818 18.4762L29.0323 17.9231V15.8799L28.7103 15.6937C27.7148 15.1181 27.0968 14.0483 27.0968 12.9032V11.6129C27.0968 10.7331 27.4446 9.91022 28.0768 9.2975C28.7084 8.68511 29.5464 8.35496 30.4224 8.38899C32.1459 8.44065 33.5484 9.95999 33.5484 11.7755ZM20.9728 21.9553L18.0522 21.0219C16.7213 20.5954 15.2807 20.5318 13.9182 20.8335L13.5484 20.9154V20.7245C13.5484 19.8349 14.1517 19.0625 15.0142 18.8464L18.7097 17.9231V15.8799L18.3877 15.6937C17.3923 15.1181 16.7742 14.0483 16.7742 12.9032V11.6129C16.7742 10.7331 17.122 9.91022 17.7542 9.2975C18.3858 8.68511 19.2291 8.35496 20.0999 8.38899C21.8233 8.44065 23.2258 9.95999 23.2258 11.7755V12.9032C23.2258 14.0483 22.6071 15.1181 21.611 15.6949L21.2884 15.8814L21.291 17.9231L24.9858 18.8464C25.8483 19.0625 26.4516 19.8349 26.4516 20.7245V23.142L26.2922 23.2258H25.8969L21.9304 22.0924C21.6179 22.0038 21.296 21.9676 20.9728 21.9553V21.9553ZM13.693 9.656C14.9045 7.30847 17.3431 5.80645 20 5.80645C22.6317 5.80645 25.0599 7.28831 26.2806 9.60402C25.9734 10.2199 25.8065 10.9019 25.8065 11.6129V12.9032C25.8065 14.38 26.5395 15.7658 27.7419 16.605V16.9147L25.1613 17.5608L22.58 16.9147V16.6057C23.7824 15.7664 24.5161 14.38 24.5161 12.9032V11.7755C24.5161 9.26915 22.5523 7.17175 20.1386 7.09866C18.9037 7.06244 17.7394 7.51355 16.8555 8.37166C15.9709 9.22978 15.4839 10.3805 15.4839 11.6129V12.9032C15.4839 14.38 16.2169 15.7658 17.4194 16.605V16.9147L14.8387 17.5608L12.2574 16.9147V16.6057C13.4599 15.7664 14.1935 14.38 14.1935 12.9032V11.7755C14.1935 11.0163 14.0108 10.2955 13.693 9.656V9.656ZM10.7258 5.75416L12.787 3.69298L14.6012 4.87368L14.9483 4.66072C15.8181 4.12771 16.7581 3.7374 17.7419 3.50208L18.1389 3.40694L18.5878 1.29032H21.4129L21.8605 3.40631L22.2574 3.50113C23.2412 3.73677 24.1813 4.12708 25.051 4.66009L25.3982 4.87305L27.2124 3.69235L29.271 5.75164L28.5393 7.46503C28.0412 7.67925 27.5794 7.98072 27.1774 8.3704C27.151 8.39623 27.1283 8.42395 27.1024 8.45042C25.5825 6.03421 22.8953 4.51613 20 4.51613C17.0839 4.51613 14.3892 6.04839 12.873 8.48916C12.4672 8.06452 11.9846 7.72051 11.4497 7.48015L10.7258 5.75416ZM8.3871 17.9231V15.8799L8.06515 15.6937C7.06968 15.1181 6.45161 14.0483 6.45161 12.9032V11.6129C6.45161 10.7331 6.79939 9.91022 7.43164 9.2975C8.06326 8.68511 8.9031 8.35496 9.77728 8.38899C11.5008 8.44065 12.9032 9.95999 12.9032 11.7755V12.9032C12.9032 14.0483 12.2845 15.1181 11.2884 15.6949L10.9659 15.8814L10.9684 17.9231L13.182 18.4762C12.6084 19.0631 12.2581 19.8573 12.2581 20.7245V21.2024L10.2457 21.6498L10.298 21.467L10.3226 20.2747L6.92005 18.2898L8.3871 17.9231ZM1.29032 16.7742H1.76065L6.40058 19.4805L4.05935 28.8451L1.29032 27.9218V16.7742ZM6.5562 29.6774L5.28635 29.2543L7.5608 20.1575L9.03226 21.0156V21.1999L6.61038 29.6774H6.5562ZM10.9677 31.5348C10.9677 31.3445 11.0446 31.158 11.1794 31.0232L12.3135 29.8891C12.4483 29.7543 12.6348 29.6774 12.8251 29.6774C13.2239 29.6774 13.5484 30.0019 13.5484 30.4007C13.5484 30.591 13.4715 30.7775 13.3367 30.9123L12.2026 32.0464C12.0678 32.1812 11.8813 32.2581 11.691 32.2581C11.2922 32.2581 10.9677 31.9336 10.9677 31.5348ZM12.9032 33.4703C12.9032 33.28 12.9801 33.0935 13.1149 32.9587L14.249 31.8246C14.3838 31.6898 14.5703 31.6129 14.7606 31.6129C15.1594 31.6129 15.4839 31.9374 15.4839 32.3362C15.4839 32.5265 15.407 32.713 15.2722 32.8478L14.1381 33.9819C14.0033 34.1167 13.8168 34.1935 13.6265 34.1935C13.2277 34.1935 12.9032 33.8691 12.9032 33.4703ZM14.8387 35.4057C14.8387 35.2155 14.9156 35.029 15.0504 34.8942L16.1845 33.7601C16.3193 33.6253 16.5058 33.5484 16.6961 33.5484C17.0949 33.5484 17.4194 33.8729 17.4194 34.2717C17.4194 34.4619 17.3425 34.6484 17.2077 34.7833L16.0736 35.9173C15.9388 36.0522 15.7523 36.129 15.562 36.129C15.1632 36.129 14.8387 35.8046 14.8387 35.4057ZM17.4975 38.0645C17.0987 38.0645 16.7742 37.74 16.7742 37.3412C16.7742 37.151 16.8511 36.9645 16.9859 36.8296L18.12 35.6956C18.2548 35.5607 18.4413 35.4839 18.6316 35.4839C19.0304 35.4839 19.3548 35.8083 19.3548 36.2072C19.3548 36.3974 19.278 36.5839 19.1431 36.7187L18.0091 37.8528C17.8742 37.9877 17.6878 38.0645 17.4975 38.0645ZM20.6174 38.7097H20.498C20.3336 38.7097 20.1761 38.6498 20.0536 38.5411L19.5709 38.1155L20.0554 37.631C20.2284 37.4581 20.3626 37.2524 20.4618 37.0316L21.0484 37.5198C21.2018 37.6477 21.2903 37.8361 21.2903 38.0368C21.2903 38.4079 20.9885 38.7097 20.6174 38.7097V38.7097ZM26.4031 32.9032H26.2916C26.1297 32.9032 25.9715 32.8459 25.8477 32.7419L22.3491 29.8264L21.5225 30.8181L24.92 33.6489C25.0728 33.7768 25.1613 33.9652 25.1613 34.1658C25.1613 34.5369 24.8595 34.8387 24.4884 34.8387H24.3476C24.191 34.8387 24.0379 34.7833 23.9173 34.6825L20.413 31.7625L19.5864 32.7542L22.9839 35.5853C23.1373 35.7123 23.2258 35.9006 23.2258 36.1013C23.2258 36.4724 22.924 36.7742 22.5529 36.7742C22.3053 36.7742 22.064 36.6863 21.8741 36.5285L20.4341 35.3282C20.1169 34.6799 19.4651 34.2279 18.7018 34.2008C18.6646 33.1483 17.8188 32.3025 16.7663 32.2653C16.7291 31.2128 15.8833 30.367 14.8308 30.3298C14.793 29.2528 13.911 28.3871 12.8251 28.3871C12.2949 28.3871 11.7761 28.6019 11.4012 28.9768L10.2671 30.1109C10.1994 30.1786 10.1433 30.2555 10.0863 30.3317L8.10452 29.1425L9.84186 23.062L14.1973 22.0936C15.3399 21.8381 16.5445 21.8936 17.6588 22.2502L18.6092 22.5542L15.3872 24.1652C14.651 24.5341 14.1935 25.2747 14.1935 26.0982V26.2257C14.1935 27.4175 15.1632 28.3871 16.3549 28.3871C16.7465 28.3871 17.1317 28.2806 17.4666 28.0787L19.869 26.6381C20.3516 26.3489 20.9992 26.4122 21.416 26.7871L26.8671 31.6929C27.013 31.8252 27.0968 32.013 27.0968 32.2096C27.0968 32.5923 26.7858 32.9032 26.4031 32.9032V32.9032ZM38.7097 25.4076L27.8405 30.8427C27.8053 30.8052 27.7684 30.7696 27.7296 30.7349L22.2795 25.8291C21.8019 25.3982 21.1845 25.1613 20.5412 25.1613C20.0709 25.1613 19.6091 25.2892 19.2046 25.5318L16.8013 26.973C16.6665 27.0542 16.5124 27.0968 16.3549 27.0968C15.8742 27.0968 15.4839 26.7065 15.4839 26.2257V26.0982C15.4839 25.7658 15.6685 25.4678 15.9652 25.3194L19.564 23.52C20.1799 23.2116 20.911 23.1426 21.5748 23.3335L25.6291 24.4916L26.611 24.5161L38.7097 18.1483V25.4076Z" fill="#030403"/>
</g>
<defs>
<clipPath id="clip0_112_1422">
<rect width="40" height="40" fill="white"/>
</clipPath>
</defs>
</svg>
