<svg width="40" height="40" viewBox="0 0 40 40" fill="none" xmlns="http://www.w3.org/2000/svg">
<path d="M21.9141 28.3581H7.44123C7.20567 28.3581 7.01367 28.1661 7.01367 27.9306V24.6035C7.01367 24.3679 7.20567 24.1759 7.44123 24.1759H21.9141C22.1497 24.1759 22.3417 24.3679 22.3417 24.6035V27.9306C22.3417 28.1652 22.1488 28.3581 21.9141 28.3581ZM7.86878 27.503H21.4866V25.031H7.86878V27.503Z" fill="white"/>
<path d="M19.9163 31.5191H9.43537C9.19981 31.5191 9.00781 31.3271 9.00781 31.0915C9.00781 30.8559 9.19981 30.6639 9.43537 30.6639H19.9163C20.1518 30.6639 20.3438 30.8559 20.3438 31.0915C20.3438 31.3262 20.1536 31.5191 19.9163 31.5191Z" fill="white"/>
<path d="M19.9163 33.6257H9.43537C9.19981 33.6257 9.00781 33.4337 9.00781 33.1981C9.00781 32.9626 9.19981 32.7706 9.43537 32.7706H19.9163C20.1518 32.7706 20.3438 32.9626 20.3438 33.1981C20.3438 33.4337 20.1536 33.6257 19.9163 33.6257Z" fill="white"/>
<path d="M14.6772 21.8693C12.6088 21.8693 10.6612 21.0639 9.19813 19.6008C7.73502 18.1377 6.92969 16.1901 6.92969 14.1217C6.92969 12.0533 7.73502 10.1057 9.19813 8.64259C10.6612 7.17948 12.6061 6.37415 14.6772 6.37415C16.7484 6.37415 18.6932 7.17948 20.1564 8.64259C21.6195 10.1057 22.4248 12.0506 22.4248 14.1217C22.4248 16.1928 21.6195 18.1377 20.1564 19.6008C18.6932 21.0639 16.7457 21.8693 14.6772 21.8693ZM14.6772 7.23015C10.8772 7.23015 7.7848 10.3226 7.7848 14.1226C7.7848 17.9226 10.8772 21.015 14.6772 21.015C18.4772 21.015 21.5697 17.9226 21.5697 14.1226C21.5697 10.3226 18.4772 7.23015 14.6772 7.23015Z" fill="white"/>
<path d="M14.6428 21.8693C14.3077 21.8693 13.8019 21.7431 13.2891 21.1448C12.9424 20.7359 12.634 20.1644 12.3744 19.4417C11.8588 18.0142 11.5762 16.1235 11.5762 14.1217C11.5762 12.1199 11.8588 10.2293 12.3744 8.80172C12.6331 8.08172 12.9424 7.51016 13.2908 7.10128C13.8011 6.50305 14.3095 6.37683 14.6446 6.37683C14.9797 6.37683 15.4855 6.50305 15.9984 7.10128C16.3477 7.51016 16.6535 8.08172 16.9148 8.80172C17.4304 10.2293 17.7131 12.1199 17.7131 14.1217C17.7131 16.1235 17.4304 18.0142 16.9148 19.4417C16.6562 20.1617 16.3468 20.7333 15.9984 21.1422C15.4864 21.7439 14.9779 21.8693 14.6428 21.8693ZM14.6428 7.23016C14.1468 7.23016 13.5975 7.92616 13.1771 9.09239C12.6953 10.4275 12.4286 12.2151 12.4286 14.1226C12.4286 16.0302 12.6944 17.8159 13.1771 19.1528C13.5975 20.3191 14.1459 21.0151 14.6428 21.0151C15.1397 21.0151 15.6882 20.3191 16.1086 19.1528C16.5904 17.8159 16.8571 16.0302 16.8571 14.1226C16.8571 12.2151 16.5913 10.4293 16.1086 9.09239C15.6882 7.92616 15.1397 7.23016 14.6428 7.23016Z" fill="white"/>
<path d="M21.9964 14.5501H7.35724C7.12169 14.5501 6.92969 14.3581 6.92969 14.1226C6.92969 13.887 7.12169 13.695 7.35724 13.695H21.9964C22.2319 13.695 22.4239 13.887 22.4239 14.1226C22.4239 14.3581 22.2319 14.5501 21.9964 14.5501Z" fill="white"/>
<path d="M14.557 11.6097C13.7214 11.6097 12.909 11.4693 12.1463 11.1937C10.9587 10.7662 9.94007 10.0133 9.27252 9.07551C9.13474 8.88351 9.18185 8.61685 9.37474 8.47907C9.56763 8.34129 9.8334 8.3884 9.97118 8.58129C10.5392 9.37951 11.4147 10.0231 12.4387 10.3911C13.1081 10.6337 13.821 10.7546 14.5596 10.7546H14.6432C15.4103 10.7448 16.1463 10.6026 16.8352 10.3342C17.8467 9.93774 18.6992 9.27018 19.2343 8.45774C19.365 8.2604 19.629 8.20618 19.8254 8.33685C20.0227 8.46751 20.077 8.73151 19.9463 8.92796C19.3143 9.88707 18.3196 10.6711 17.1463 11.1315C16.3623 11.4382 15.5241 11.5991 14.6547 11.6115C14.6183 11.6097 14.5872 11.6097 14.557 11.6097Z" fill="white"/>
<path d="M19.5865 19.9786C19.446 19.9786 19.3109 19.9101 19.2283 19.7866C18.694 18.9723 17.8416 18.3066 16.8292 17.9101C16.1403 17.639 15.4043 17.4995 14.6398 17.4897C14.6114 17.4897 14.5856 17.4897 14.5563 17.4897C13.8203 17.4897 13.1056 17.6132 12.4354 17.8532C11.4114 18.2212 10.5358 18.8648 9.96782 19.663C9.83004 19.855 9.56427 19.9003 9.37138 19.7652C9.17938 19.6301 9.13404 19.3617 9.26915 19.1688C9.93671 18.231 10.958 17.4781 12.1429 17.0479C12.9056 16.7723 13.7172 16.6319 14.5536 16.6319H14.646C15.5154 16.6435 16.3536 16.8052 17.1376 17.1119C18.3136 17.5723 19.3083 18.3537 19.9403 19.3155C20.0709 19.5128 20.0158 19.7786 19.8194 19.9066C19.7474 19.9555 19.6665 19.9786 19.5865 19.9786Z" fill="white"/>
<path d="M26.0699 36.2044C25.7401 36.2044 25.4077 36.1306 25.0912 35.9769L23.5881 35.2382C23.3766 35.1333 23.2886 34.8773 23.3935 34.6658C23.4984 34.4542 23.7544 34.3662 23.9659 34.4711L25.469 35.2098C26.1481 35.5422 26.9704 35.2622 27.3046 34.5849L37.6717 13.512C37.8335 13.184 37.8566 12.8115 37.7384 12.4649C37.6192 12.1182 37.3748 11.8382 37.045 11.6764L23.0415 4.78842C22.8086 4.67465 22.5499 4.62665 22.2912 4.65509C22.277 4.65776 22.2601 4.65776 22.2459 4.65776C22.0104 4.65776 21.8184 4.46576 21.8184 4.2302C21.8184 4.00709 21.989 3.82131 22.2104 3.80531C22.6264 3.76265 23.0441 3.8382 23.4192 4.02131L37.4219 10.9084C37.9561 11.1698 38.3552 11.6258 38.5455 12.1884C38.7375 12.7511 38.6975 13.3546 38.4361 13.8889L28.0717 34.9626C27.6841 35.7484 26.8939 36.2044 26.0699 36.2044Z" fill="white"/>
<path d="M24.134 24.4631C24.0558 24.4631 23.9749 24.4417 23.9038 24.3946C23.7047 24.2666 23.6469 24.0026 23.7758 23.8035C24.4833 22.6995 25.2078 21.4071 25.8655 20.0702C26.894 17.9804 27.6993 15.9208 28.134 14.2755C28.6967 12.1431 28.3838 11.6986 28.3544 11.6657C28.3189 11.6631 27.9295 11.6755 26.9891 12.744C26.2318 13.6035 25.3713 14.8506 24.5047 16.3493C24.3855 16.5537 24.1251 16.6222 23.9207 16.5057C23.7162 16.3866 23.6478 16.1262 23.7642 15.9217C24.6904 14.3208 25.6095 12.9955 26.4238 12.0933C27.4024 11.0053 28.1571 10.616 28.7322 10.8986C29.4184 11.2355 29.5038 12.3715 28.9935 14.3662C28.5518 16.0906 27.7135 18.2488 26.6327 20.4488C25.9607 21.8168 25.222 23.1351 24.4949 24.2675C24.414 24.3937 24.2762 24.4631 24.134 24.4631Z" fill="white"/>
<path d="M30.5104 26.3626C30.4082 26.3626 30.3113 26.3271 30.2322 26.2604L25.2518 21.9831C25.074 21.8284 25.0527 21.56 25.2064 21.3795C25.3611 21.2017 25.6295 21.1804 25.81 21.3342L30.3727 25.2533L30.6482 24.6906L26.8171 18.4631C26.6935 18.2613 26.7558 17.9973 26.9575 17.8737C27.1593 17.7502 27.4233 17.8124 27.5469 18.0142L31.5015 24.4435C31.5771 24.5697 31.5869 24.7235 31.5202 24.8569L30.8953 26.1253C30.8358 26.2444 30.7264 26.3297 30.5984 26.3555C30.5673 26.3609 30.5389 26.3626 30.5104 26.3626Z" fill="white"/>
<path d="M30.0241 23.287C29.9601 23.287 29.8961 23.2728 29.8366 23.2417C29.625 23.1368 29.537 22.8808 29.6419 22.6692L30.5654 20.791L29.9717 20.4986L29.3823 21.4488C29.2588 21.6506 28.9948 21.7128 28.793 21.5866C28.5912 21.463 28.529 21.199 28.6552 20.9972L29.4481 19.7172C29.5646 19.5297 29.8019 19.4604 30.0019 19.5581L31.3272 20.2088C31.4294 20.2586 31.5077 20.3466 31.5432 20.4532C31.5788 20.5599 31.5717 20.679 31.5219 20.7786L30.4108 23.0399C30.3334 23.199 30.1814 23.287 30.0241 23.287Z" fill="white"/>
<path d="M28.5455 14.8159C28.4246 14.8159 28.3028 14.7635 28.2202 14.6666C27.6806 14.0328 26.8948 13.6453 26.061 13.6053C25.8255 13.5937 25.6433 13.3937 25.6548 13.1564C25.6664 12.919 25.8664 12.7386 26.1037 12.7502C27.1704 12.8026 28.1793 13.2986 28.8708 14.111C29.0228 14.2915 29.0015 14.5599 28.8237 14.7146C28.7402 14.7822 28.6433 14.8159 28.5455 14.8159Z" fill="white"/>
<path d="M22.0396 36.2071H3.85381C2.46181 36.2071 1.33203 35.0747 1.33203 33.6853V6.31823C1.33203 4.92623 2.46448 3.79645 3.85381 3.79645H22.0387C22.1196 3.79645 22.2005 3.80089 22.2814 3.808H22.2885C22.908 3.86934 23.4831 4.15734 23.9036 4.62045C24.3285 5.08623 24.5614 5.68889 24.5614 6.31823V33.6827C24.5614 34.1884 24.412 34.6756 24.1311 35.0933C23.6609 35.7911 22.8796 36.2071 22.0396 36.2071ZM3.85381 4.64889C2.9347 4.64889 2.18625 5.39734 2.18625 6.31645V33.6827C2.18625 34.6018 2.9347 35.3502 3.85381 35.3502H22.0387C22.5943 35.3502 23.1125 35.0747 23.4209 34.6142C23.6058 34.3387 23.7063 34.016 23.7063 33.6836V6.31823C23.7063 5.45867 23.0627 4.74578 22.2103 4.65778C22.2076 4.65778 22.2058 4.65778 22.2031 4.65778C22.1489 4.65334 22.0938 4.65067 22.0369 4.65067H3.85381V4.64889Z" fill="white"/>
<path d="M4.78906 4.22137H5.64417V35.7778H4.78906V4.22137Z" fill="white"/>
</svg>
