<svg width="60" height="60" viewBox="0 0 60 60" fill="none" xmlns="http://www.w3.org/2000/svg">
<g clip-path="url(#clip0_44_3870)">
<path d="M18.75 42.5C18.06 42.5 17.5 41.94 17.5 41.25V12.5C17.5 9.7425 19.7425 7.5 22.5 7.5C25.2575 7.5 27.5 9.7425 27.5 12.5V38.75C27.5 39.44 26.94 40 26.25 40C25.56 40 25 39.44 25 38.75V12.5C25 11.12 23.88 10 22.5 10C21.12 10 20 11.12 20 12.5V41.25C20 41.94 19.44 42.5 18.75 42.5Z" fill="#14BA85"/>
<path d="M33.75 40C33.06 40 32.5 39.44 32.5 38.75V27.5C32.5 26.12 31.38 25 30 25C28.62 25 27.5 26.12 27.5 27.5C27.5 28.19 26.94 28.75 26.25 28.75C25.56 28.75 25 28.19 25 27.5C25 24.7425 27.2425 22.5 30 22.5C32.7575 22.5 35 24.7425 35 27.5V38.75C35 39.44 34.44 40 33.75 40Z" fill="#14BA85"/>
<path d="M41.25 40C40.56 40 40 39.44 40 38.75V30C40 28.62 38.88 27.5 37.5 27.5C36.12 27.5 35 28.62 35 30C35 30.69 34.44 31.25 33.75 31.25C33.06 31.25 32.5 30.69 32.5 30C32.5 27.2425 34.7425 25 37.5 25C40.2575 25 42.5 27.2425 42.5 30V38.75C42.5 39.44 41.94 40 41.25 40Z" fill="#14BA85"/>
<path d="M38.75 60H24.2825C20.075 60 15.735 58.1675 12.6675 55.0975C9.28246 51.71 7.49496 46.8775 7.50246 41.1275C7.50496 36.3725 11.4825 32.5 16.365 32.5H18.75C19.44 32.5 20 33.06 20 33.75C20 34.44 19.44 35 18.75 35H16.365C12.86 35 10.005 37.7525 10.0025 41.13C9.99747 46.275 11.49 50.3775 14.435 53.33C17.5075 56.405 21.535 57.5 24.2825 57.5H38.75C43.575 57.5 47.5 53.575 47.5 48.75V32.5C47.5 31.12 46.38 30 45 30C43.62 30 42.5 31.12 42.5 32.5C42.5 33.19 41.94 33.75 41.25 33.75C40.56 33.75 40 33.19 40 32.5C40 29.7425 42.2425 27.5 45 27.5C47.7575 27.5 50 29.7425 50 32.5V48.75C50 54.9525 44.9525 60 38.75 60Z" fill="#14BA85"/>
<path d="M31.25 20.8C30.9725 20.8 30.69 20.7075 30.46 20.5175C29.925 20.08 29.8475 19.295 30.285 18.76C31.7325 16.985 32.5 14.82 32.5 12.5C32.5 6.985 28.015 2.5 22.5 2.5C16.985 2.5 12.5 6.985 12.5 12.5C12.5 14.82 13.2675 16.985 14.7175 18.76C15.155 19.295 15.0775 20.08 14.5425 20.5175C14.01 20.9575 13.2225 20.8775 12.785 20.3425C10.9625 18.115 10 15.4025 10 12.5C10 5.6075 15.6075 0 22.5 0C29.3925 0 35 5.6075 35 12.5C35 15.4025 34.0375 18.115 32.2175 20.3425C31.97 20.645 31.6125 20.8 31.25 20.8Z" fill="#14BA85"/>
</g>
<defs>
<clipPath id="clip0_44_3870">
<rect width="60" height="60" fill="white"/>
</clipPath>
</defs>
</svg>
