<svg width="71" height="18" viewBox="0 0 71 18" fill="none" xmlns="http://www.w3.org/2000/svg">
<path d="M25.629 8.271C25.629 3.717 19.887 0 12.815 0C5.743 0 0 3.717 0 8.271C0 8.381 0 8.709 0 8.763C0 13.591 5.022 17.508 12.815 17.508C20.662 17.508 25.629 13.591 25.629 8.763C25.629 8.581 25.629 8.49 25.629 8.271Z" fill="#253E8A"/>
<path d="M25.1481 8.27118C25.1481 12.5712 19.627 16.0512 12.832 16.0512C6.01905 16.0512 0.498047 12.5712 0.498047 8.27118C0.498047 3.97218 6.01906 0.492188 12.8141 0.492188C19.6271 0.492188 25.1481 3.97218 25.1481 8.27118Z" fill="#00AEEF"/>
<path d="M8.73415 5.81201C8.73415 5.83001 8.60515 5.95701 8.67915 6.04901C8.88215 6.28501 9.47315 6.43101 10.0822 6.30401C10.4512 6.23101 10.9132 5.86601 11.3562 5.50201C11.8362 5.11901 12.3352 4.73702 12.8152 4.59102C13.3322 4.42702 13.6642 4.50001 13.8672 4.57301C14.1072 4.64601 14.3841 4.79101 14.8271 5.13801C15.6771 5.75701 19.0562 8.69002 19.6472 9.18202C20.1272 8.96402 22.2132 8.08902 25.0572 7.47002C24.8172 5.97602 23.8942 4.59101 22.4902 3.48001C20.5332 4.28101 18.1512 4.71902 15.8062 3.58902C15.7882 3.58902 14.5322 2.98802 13.2762 3.02402C11.4302 3.06102 10.6172 3.86201 9.76816 4.70001L8.73415 5.81201Z" fill="white"/>
<path d="M19.5178 9.49161C19.4808 9.45461 15.5298 6.04861 14.6438 5.39261C14.1268 5.00961 13.8308 4.9186 13.5358 4.8826C13.3688 4.8636 13.1658 4.8826 12.9998 4.9366C12.5748 5.0466 12.0398 5.41061 11.5598 5.79361C11.0608 6.19361 10.5808 6.5586 10.1568 6.6496C9.6028 6.7766 8.91879 6.6316 8.60579 6.4126C8.47579 6.3216 8.38379 6.2306 8.34679 6.1396C8.23579 5.8846 8.4388 5.66561 8.4758 5.62961L9.5658 4.46361C9.6948 4.33561 9.82379 4.2086 9.95279 4.0986C9.60279 4.1356 9.2698 4.2266 8.9558 4.3176C8.5688 4.4266 8.1808 4.5356 7.7928 4.5356C7.6268 4.5356 6.77779 4.39061 6.61079 4.35361C5.63279 4.08061 4.76479 3.82561 3.47179 3.22461C1.92079 4.35361 0.886797 5.7746 0.591797 7.3416C0.812797 7.3966 1.16379 7.5056 1.32979 7.5426C4.83879 8.3076 5.9278 9.1086 6.1308 9.2726C6.3528 9.0356 6.64779 8.89061 6.99879 8.89061C7.38679 8.89061 7.7378 9.0906 7.9408 9.3826C8.1438 9.2186 8.42079 9.09061 8.77179 9.09061C8.93779 9.09061 9.10379 9.12761 9.26979 9.18161C9.65779 9.30961 9.86079 9.58261 9.97179 9.81961C10.1008 9.76461 10.2668 9.7106 10.4518 9.7106C10.6368 9.7106 10.8398 9.7466 11.0428 9.8376C11.6888 10.1106 11.7808 10.7306 11.7258 11.2036C11.7628 11.2036 11.8178 11.2036 11.8738 11.2036C12.6308 11.2036 13.2588 11.8236 13.2588 12.5706C13.2588 12.8076 13.2028 13.0256 13.0918 13.2266C13.2958 13.3356 13.8308 13.6086 14.2928 13.5546C14.6618 13.4996 14.8098 13.3906 14.8648 13.3176C14.9018 13.2626 14.9388 13.2086 14.9018 13.1716L13.9048 12.0966C13.9048 12.0966 13.7388 11.9506 13.7938 11.8786C13.8498 11.8236 13.9418 11.8966 14.0158 11.9696C14.5138 12.3886 15.1418 13.0076 15.1418 13.0076C15.1608 13.0076 15.1968 13.0986 15.4188 13.1356C15.6218 13.1716 15.9548 13.1536 16.1948 12.9526C16.2498 12.8986 16.3238 12.8436 16.3608 12.7706C16.3608 12.7706 16.3608 12.7706 16.3418 12.7706C16.6008 12.4426 16.3048 12.1336 16.3048 12.1336L15.1418 10.8576C15.1418 10.8576 14.9758 10.7126 15.0308 10.6396C15.0868 10.5846 15.1788 10.6576 15.2528 10.7306C15.6218 11.0396 16.1388 11.5506 16.6378 12.0236C16.7298 12.0966 17.1728 12.3516 17.7458 11.9876C18.0958 11.7686 18.1698 11.4776 18.1518 11.2766C18.1328 11.0036 17.9118 10.8036 17.9118 10.8036L16.3418 9.2366C16.3418 9.2366 16.1758 9.09061 16.2308 9.01761C16.2868 8.96361 16.3788 9.0356 16.4528 9.1086C16.9518 9.5276 18.3178 10.7486 18.3178 10.7486C18.3358 10.7666 18.7978 11.0946 19.3888 10.7306C19.5918 10.6026 19.7208 10.4026 19.7398 10.1656C19.8138 9.7286 19.5178 9.49161 19.5178 9.49161Z" fill="white"/>
<path d="M11.8743 11.4781C11.6343 11.4781 11.3573 11.6231 11.3203 11.6051C11.3013 11.5871 11.3383 11.4961 11.3573 11.4411C11.3753 11.3871 11.7083 10.4211 10.9143 10.0931C10.3043 9.83806 9.95328 10.1301 9.82428 10.2571C9.78728 10.2941 9.76929 10.2941 9.76929 10.2391C9.75029 10.0751 9.67728 9.60106 9.16028 9.43706C8.42128 9.21906 7.94128 9.72906 7.83028 9.91106C7.77528 9.49206 7.42428 9.16406 6.98128 9.16406C6.50128 9.16406 6.11328 9.54707 6.11328 10.0201C6.11328 10.4941 6.50128 10.8771 6.98128 10.8771C7.22128 10.8771 7.42428 10.7851 7.57228 10.6401C7.57228 10.6401 7.57228 10.6581 7.57228 10.6761C7.53528 10.8951 7.46128 11.6421 8.27328 11.9511C8.60628 12.0791 8.88328 11.9881 9.10428 11.8241C9.17828 11.7691 9.17828 11.7871 9.17828 11.8601C9.14128 12.0611 9.17828 12.4801 9.78728 12.7171C10.2493 12.8991 10.5073 12.7171 10.6923 12.5531C10.7663 12.4801 10.7843 12.4981 10.7843 12.6071C10.8033 13.1721 11.2833 13.6281 11.8553 13.6281C12.4463 13.6281 12.9453 13.1541 12.9453 12.5531C12.9633 11.9511 12.4653 11.4781 11.8743 11.4781Z" fill="white"/>
<path d="M19.6834 9.09116C18.4654 8.05316 15.6584 5.63016 14.9014 5.06516C14.4584 4.73716 14.1634 4.57315 13.9044 4.50015C13.7934 4.46415 13.6274 4.42715 13.4244 4.42715C13.2394 4.42715 13.0184 4.46415 12.8154 4.53615C12.3164 4.68215 11.8364 5.08316 11.3564 5.44716L11.3374 5.46616C10.8944 5.81216 10.4334 6.17615 10.1004 6.24915C9.95339 6.28515 9.78639 6.30415 9.63939 6.30415C9.25139 6.30415 8.90038 6.19415 8.77138 6.03015C8.75238 6.01215 8.77138 5.95715 8.80838 5.90315L9.87938 4.77315C10.7104 3.95315 11.5044 3.17016 13.3324 3.13416C13.3694 3.13416 13.3874 3.13416 13.4244 3.13416C14.5504 3.13416 15.6954 3.64415 15.8244 3.69815C16.8954 4.20915 17.9854 4.46416 19.0934 4.46416C20.2374 4.46416 21.4384 4.19016 22.6754 3.62616C22.5274 3.51616 22.3984 3.38916 22.2504 3.27916C21.1614 3.75316 20.1084 3.99016 19.1114 3.99016C18.0774 3.99016 17.0614 3.75315 16.0644 3.26115C16.0094 3.24315 14.7534 2.66016 13.4614 2.66016C13.4244 2.66016 13.3874 2.66016 13.3504 2.66016C11.8174 2.69616 10.9504 3.22515 10.3774 3.69815C9.80538 3.71715 9.32538 3.84415 8.90038 3.97215C8.51238 4.08115 8.18039 4.17215 7.84839 4.17215C7.71839 4.17215 7.47839 4.15416 7.46039 4.15416C7.09139 4.13616 5.20738 3.68016 3.71138 3.13416C3.56438 3.24316 3.41639 3.35216 3.26839 3.46216C4.83839 4.09916 6.74038 4.59116 7.34938 4.62816C7.51538 4.64616 7.70038 4.66415 7.86638 4.66415C8.27238 4.66415 8.66039 4.55516 9.04839 4.44516C9.26939 4.39116 9.52838 4.31815 9.78638 4.26315C9.71338 4.33615 9.63937 4.40916 9.58337 4.46416L8.49438 5.63016C8.40238 5.72116 8.21737 5.93916 8.34637 6.23116C8.40237 6.34016 8.49438 6.44915 8.62338 6.54015C8.88238 6.70415 9.34339 6.83215 9.76839 6.83215C9.93439 6.83215 10.0824 6.81415 10.2304 6.77715C10.6914 6.66815 11.1714 6.30415 11.6704 5.90315C12.0764 5.59315 12.6484 5.19216 13.0924 5.06516C13.2214 5.02816 13.3694 5.01015 13.4794 5.01015C13.5164 5.01015 13.5534 5.01015 13.5904 5.01015C13.8864 5.04715 14.1634 5.13816 14.6614 5.52016C15.5474 6.17616 19.4994 9.58316 19.5364 9.61916C19.5364 9.61916 19.7944 9.83816 19.7764 10.1842C19.7574 10.3852 19.6474 10.5671 19.4624 10.6761C19.2964 10.7851 19.1114 10.8401 18.9454 10.8401C18.6864 10.8401 18.5024 10.7132 18.4834 10.7132C18.4654 10.6942 17.1174 9.47415 16.6184 9.07315C16.5444 9.00015 16.4714 8.94516 16.3784 8.94516C16.3414 8.94516 16.3044 8.96415 16.2684 9.00015C16.1944 9.09115 16.2864 9.21915 16.3784 9.31015L17.9664 10.8772C17.9664 10.8772 18.1694 11.0592 18.1884 11.2962C18.2064 11.5512 18.0774 11.7692 17.8194 11.9332C17.6344 12.0612 17.4494 12.1152 17.2654 12.1152C17.0254 12.1152 16.8584 12.0062 16.8214 11.9882L16.6004 11.7691C16.1944 11.3681 15.7504 10.9492 15.4374 10.6942C15.3634 10.6402 15.2704 10.5672 15.1974 10.5672C15.1604 10.5672 15.1234 10.5851 15.1044 10.6031C15.0674 10.6401 15.0494 10.7132 15.1414 10.8222C15.1784 10.8772 15.2154 10.9131 15.2154 10.9131L16.3604 12.1882C16.3784 12.2062 16.6004 12.4622 16.3784 12.7352L16.3414 12.7892C16.3044 12.8262 16.2684 12.8622 16.2314 12.8992C16.0274 13.0632 15.7694 13.0811 15.6584 13.0811C15.6034 13.0811 15.5474 13.0812 15.5104 13.0632C15.4004 13.0452 15.3264 13.0082 15.2894 12.9722L15.2704 12.9532C15.2154 12.8812 14.6244 12.2981 14.1444 11.9151C14.0894 11.8601 13.9964 11.7872 13.9224 11.7872C13.8864 11.7872 13.8494 11.8061 13.8124 11.8421C13.7194 11.9511 13.8674 12.0971 13.9224 12.1521L14.9014 13.2272C14.9014 13.2452 14.8834 13.2632 14.8644 13.3002C14.8274 13.3542 14.7164 13.4642 14.3474 13.5182C14.3104 13.5182 14.2554 13.5182 14.2184 13.5182C13.8494 13.5182 13.4614 13.3361 13.2584 13.2451C13.3504 13.0451 13.4054 12.8442 13.4054 12.6262C13.4054 11.8242 12.7414 11.1862 11.9474 11.1682C11.9284 11.1682 11.9104 11.1682 11.8914 11.1682C11.9104 10.8042 11.8734 10.1112 11.1534 9.80215C10.9504 9.71115 10.7474 9.67415 10.5434 9.67415C10.3964 9.67415 10.2304 9.69215 10.1004 9.74715C9.95339 9.45515 9.71339 9.25515 9.38039 9.14615C9.19539 9.09115 9.02938 9.05515 8.84538 9.05515C8.54938 9.05515 8.27238 9.14615 8.03238 9.31015C7.79238 9.01815 7.44139 8.85416 7.07239 8.85416C6.74039 8.85416 6.42638 8.98215 6.20438 9.21915C5.89038 8.98215 4.69038 8.23515 1.44038 7.50615C1.27438 7.47015 0.923377 7.36015 0.702377 7.30615C0.665377 7.48815 0.628375 7.65215 0.609375 7.83415C0.609375 7.83415 1.20038 7.98015 1.33038 7.99815C4.65338 8.72715 5.74338 9.47416 5.92738 9.61916C5.87238 9.76516 5.83539 9.92915 5.83539 10.0932C5.83539 10.7672 6.38939 11.3141 7.07239 11.3141C7.14639 11.3141 7.22039 11.3142 7.29439 11.2962C7.40439 11.7872 7.71838 12.1701 8.23538 12.3701C8.38338 12.4251 8.53138 12.4622 8.67838 12.4622C8.77138 12.4622 8.86338 12.4432 8.95538 12.4252C9.04838 12.6622 9.25138 12.9532 9.73138 13.1362C9.89738 13.2092 10.0634 13.2272 10.2114 13.2272C10.3404 13.2272 10.4704 13.2092 10.5994 13.1542C10.8204 13.7002 11.3564 14.0471 11.9474 14.0471C12.3354 14.0471 12.7224 13.8831 12.9994 13.6091C13.2394 13.7371 13.7384 13.9742 14.2364 13.9742C14.3104 13.9742 14.3664 13.9742 14.4214 13.9552C14.9204 13.9012 15.1604 13.7001 15.2704 13.5551C15.2894 13.5361 15.3074 13.5002 15.3264 13.4642C15.4374 13.5002 15.5664 13.5182 15.7324 13.5182C16.0094 13.5182 16.2684 13.4272 16.5264 13.2272C16.7854 13.0452 16.9694 12.7711 17.0064 12.5531C17.0064 12.5531 17.0064 12.5531 17.0064 12.5341C17.0984 12.5531 17.1914 12.5531 17.2834 12.5531C17.5604 12.5531 17.8374 12.4622 18.1144 12.2982C18.6314 11.9702 18.7234 11.5322 18.7054 11.2592C18.7974 11.2772 18.8904 11.2962 18.9824 11.2962C19.2404 11.2962 19.4994 11.2232 19.7574 11.0592C20.0714 10.8582 20.2744 10.5491 20.2934 10.2021C20.3114 9.96615 20.2564 9.71115 20.1274 9.51015C20.9764 9.14615 22.9334 8.43516 25.2414 7.92516C25.2234 7.74316 25.2044 7.57916 25.1684 7.39716C22.2874 7.96216 20.2014 8.85416 19.6834 9.09116ZM11.8734 13.5361C11.3374 13.5361 10.8944 13.1172 10.8764 12.5892C10.8764 12.5532 10.8764 12.4252 10.7654 12.4252C10.7284 12.4252 10.6914 12.4431 10.6364 12.4801C10.5254 12.5891 10.3594 12.6982 10.1374 12.6982C10.0454 12.6982 9.93437 12.6802 9.80537 12.6262C9.23237 12.3892 9.23239 12.0062 9.25139 11.8602C9.25139 11.8242 9.25138 11.7692 9.23238 11.7332L9.19539 11.6962H9.15938C9.12238 11.6962 9.10338 11.7152 9.06638 11.7332C8.90038 11.8422 8.73438 11.8972 8.58638 11.8972C8.49438 11.8972 8.40239 11.8791 8.30939 11.8421C7.55239 11.5511 7.60838 10.8582 7.64438 10.6402C7.64438 10.6032 7.64438 10.5671 7.60838 10.5491L7.57138 10.5302L7.53438 10.5672C7.38638 10.7132 7.20138 10.7852 6.99838 10.7852C6.57338 10.7852 6.22339 10.4392 6.22339 10.0202C6.22339 9.60116 6.57338 9.25516 6.99838 9.25516C7.38638 9.25516 7.71838 9.54715 7.77438 9.92915L7.79239 10.1302L7.90338 9.94716C7.92138 9.92916 8.23538 9.45515 8.80838 9.45515C8.91938 9.45515 9.02938 9.47415 9.14038 9.51015C9.60238 9.65615 9.67638 10.0572 9.69438 10.2392C9.69438 10.3482 9.76838 10.3482 9.78638 10.3482C9.82338 10.3482 9.86038 10.3302 9.87938 10.2942C9.97138 10.2022 10.1564 10.0572 10.4514 10.0572C10.5804 10.0572 10.7284 10.0931 10.8764 10.1481C11.6144 10.4571 11.2824 11.3871 11.2824 11.3871C11.2274 11.5321 11.2084 11.6052 11.2824 11.6422L11.3194 11.6602H11.3374C11.3744 11.6602 11.4114 11.6422 11.4854 11.6232C11.5774 11.5872 11.7444 11.5322 11.8734 11.5322C12.4274 11.5322 12.8704 11.9882 12.8704 12.5162C12.8704 13.0812 12.4274 13.5361 11.8734 13.5361Z" fill="#253E8A"/>
<path d="M69.3183 3.00639C68.8563 2.44139 68.1553 2.15039 67.2133 2.15039C66.2713 2.15039 65.5702 2.44139 65.1082 3.00639C64.6462 3.57139 64.4062 4.2454 64.4062 5.0284C64.4062 5.8304 64.6462 6.5044 65.1082 7.0694C65.5702 7.6344 66.2713 7.90739 67.2133 7.90739C68.1553 7.90739 68.8563 7.6344 69.3183 7.0694C69.7803 6.5044 70.0202 5.8304 70.0202 5.0284C70.0012 4.2454 69.7803 3.57139 69.3183 3.00639ZM68.1732 6.2854C67.9522 6.5774 67.6193 6.7234 67.2133 6.7234C66.7883 6.7234 66.4743 6.5774 66.2533 6.2854C66.0313 5.9944 65.9203 5.5754 65.9203 5.0284C65.9203 4.4824 66.0313 4.06339 66.2533 3.77139C66.4743 3.48039 66.8073 3.3344 67.2133 3.3344C67.6383 3.3344 67.9522 3.48039 68.1732 3.77139C68.3952 4.06339 68.5052 4.4824 68.5052 5.0284C68.5052 5.5754 68.3952 5.9944 68.1732 6.2854Z" fill="#253E8A"/>
<path d="M57.4812 2.51398C57.0192 2.27698 56.4842 2.16797 55.8742 2.16797C54.9512 2.16797 54.2862 2.40497 53.9172 2.87897C53.6772 3.18797 53.5482 3.57097 53.5112 4.04497H54.8962C54.9332 3.84397 55.0062 3.66196 55.0992 3.55296C55.2472 3.38896 55.4872 3.29797 55.8372 3.29797C56.1512 3.29797 56.3732 3.33397 56.5392 3.42497C56.7052 3.51597 56.7792 3.66197 56.7792 3.88097C56.7792 4.06297 56.6682 4.18998 56.4652 4.28098C56.3542 4.33598 56.1512 4.37197 55.8932 4.40897L55.3942 4.46397C54.8402 4.53597 54.4162 4.64597 54.1202 4.80997C53.6032 5.10097 53.3262 5.59296 53.3262 6.24896C53.3262 6.75896 53.4922 7.15997 53.8252 7.43297C54.1572 7.70597 54.5632 7.83397 55.0622 7.85197C58.2012 7.99797 58.1642 6.21298 58.2012 5.84798V3.86197C58.2012 3.20597 57.9612 2.75098 57.4812 2.51398ZM56.7612 5.61096C56.7422 6.08496 56.6132 6.41297 56.3542 6.59497C56.0962 6.77697 55.8002 6.86797 55.4872 6.86797C55.2832 6.86797 55.1172 6.81396 54.9882 6.70396C54.8592 6.59496 54.7852 6.41296 54.7852 6.17596C54.7852 5.90296 54.8962 5.70197 55.1172 5.57497C55.2472 5.50197 55.4682 5.42896 55.7822 5.37396L56.1142 5.31998C56.2812 5.28298 56.4102 5.26497 56.5022 5.22897C56.5942 5.19197 56.6872 5.15597 56.7792 5.10097V5.61096H56.7612Z" fill="#253E8A"/>
<path d="M50.335 3.38855C50.686 3.38855 50.963 3.49754 51.129 3.71654C51.24 3.88054 51.314 4.06254 51.351 4.26254H52.902C52.81 3.49754 52.551 2.95054 52.089 2.64154C51.628 2.33154 51.037 2.18555 50.317 2.18555C49.467 2.18555 48.803 2.44055 48.304 2.95055C47.824 3.46155 47.584 4.18955 47.584 5.11855C47.584 5.93855 47.806 6.61254 48.249 7.12254C48.692 7.63354 49.375 7.88855 50.298 7.88855C51.222 7.88855 51.923 7.57855 52.403 6.95955C52.699 6.57655 52.865 6.17554 52.902 5.73854H51.332C51.295 6.02954 51.203 6.24854 51.055 6.43054C50.908 6.61254 50.649 6.70354 50.298 6.70354C49.8 6.70354 49.467 6.48554 49.283 6.02954C49.19 5.79354 49.135 5.46553 49.135 5.08253C49.135 4.66353 49.19 4.33554 49.283 4.08054C49.467 3.62554 49.818 3.38855 50.335 3.38855Z" fill="#253E8A"/>
<path d="M47.1424 2.18597C43.9664 2.18597 44.1504 4.95497 44.1504 4.95497V7.77898H45.5914V5.13797C45.5914 4.69997 45.6464 4.39097 45.7574 4.17197C45.9604 3.80797 46.3484 3.60696 46.9204 3.60696C46.9574 3.60696 47.0134 3.60696 47.0864 3.60696C47.1604 3.60696 47.2344 3.62598 47.3264 3.62598V2.16797C47.2714 2.16797 47.2164 2.16797 47.1974 2.16797C47.1974 2.18597 47.1794 2.18597 47.1424 2.18597Z" fill="#253E8A"/>
<path d="M41.841 6.32211C41.786 6.41311 41.712 6.4861 41.638 6.5401C41.435 6.7041 41.158 6.75911 40.826 6.75911C40.512 6.75911 40.272 6.7041 40.05 6.5771C39.681 6.3581 39.496 5.99411 39.459 5.44711H43.448C43.448 4.97411 43.429 4.6281 43.392 4.3721C43.318 3.9531 43.189 3.57111 42.949 3.26111C42.709 2.89711 42.377 2.62311 42.007 2.46011C41.62 2.29611 41.195 2.2041 40.715 2.2041C39.902 2.2041 39.256 2.46011 38.758 2.95111C38.259 3.44311 38 4.1721 38 5.1011C38 6.1031 38.277 6.8321 38.831 7.2691C39.385 7.7061 40.032 7.9431 40.77 7.9431C41.657 7.9431 42.34 7.68811 42.838 7.16011C43.097 6.88711 43.263 6.6131 43.337 6.3401H41.841V6.32211ZM39.902 3.66211C40.105 3.46211 40.382 3.35211 40.752 3.35211C41.084 3.35211 41.38 3.4431 41.601 3.6441C41.823 3.8441 41.952 4.11711 41.989 4.50011H39.515C39.57 4.15411 39.699 3.86211 39.902 3.66211Z" fill="#253E8A"/>
<path d="M37.4637 7.77898H36.1527V4.49997C36.1527 4.20897 36.0607 3.49797 35.1737 3.49797C34.6017 3.49797 34.1767 3.91697 34.1767 4.49997V7.77898H32.8657V4.49997C32.8657 4.20897 32.7737 3.49797 31.9057 3.49797C31.3147 3.49797 30.9087 3.91697 30.9087 4.49997V7.77898H29.5977V4.53596C29.5977 3.18796 30.5027 2.16797 31.9247 2.16797C32.6257 2.16797 33.1987 2.45996 33.5677 2.91496C33.9557 2.45996 34.5277 2.16797 35.2107 2.16797C36.6517 2.16797 37.5007 3.15197 37.5007 4.53596V7.77898H37.4637Z" fill="#253E8A"/>
<path d="M63.9819 0.473777C63.9819 0.473777 62.5229 0.327776 62.5229 1.47578V3.00577C62.3569 2.75077 62.1539 2.55078 61.8949 2.40478C61.6369 2.25878 61.3409 2.18578 61.0089 2.18578C60.2889 2.18578 59.7159 2.45978 59.2729 2.98778C58.8489 3.51578 58.627 4.28078 58.627 5.21078C58.627 6.01178 58.8489 6.66777 59.2919 7.17777C59.7349 7.68777 60.5839 7.90678 61.3409 7.90678C63.9999 7.90678 63.963 5.66578 63.963 5.66578L63.9819 0.473777ZM62.2459 6.28478C62.0429 6.57678 61.729 6.74078 61.323 6.74078C60.917 6.74078 60.621 6.59478 60.418 6.28478C60.215 5.99378 60.1229 5.55677 60.1229 5.04677C60.1229 4.59077 60.215 4.18977 60.418 3.88077C60.621 3.57077 60.9169 3.40678 61.3409 3.40678C61.6179 3.40678 61.8579 3.49778 62.0609 3.66178C62.3939 3.95278 62.5779 4.46378 62.5779 5.11878C62.5599 5.61078 62.4489 5.99378 62.2459 6.28478Z" fill="#253E8A"/>
<path d="M40.1231 16.8162C40.1231 17.0162 40.0491 17.1802 39.9011 17.3082C39.7531 17.4532 39.5871 17.5082 39.3841 17.5082H38.6641V12.5712C38.6641 11.6052 38.9961 11.0042 39.5321 10.6032C39.8831 10.3302 40.4181 10.0752 41.4151 10.0752C42.0801 10.0752 42.8741 10.3302 43.2991 10.8402C43.7791 11.4232 43.9821 12.0612 43.9821 12.8992C43.9821 13.7732 43.7791 14.4662 43.3541 15.0122C42.9291 15.5402 42.3941 15.7962 41.7291 15.7962C41.3781 15.7962 41.0641 15.7412 40.7871 15.6132C40.5111 15.4682 40.2701 15.2672 40.1041 14.9762V16.8162H40.1231ZM42.5421 12.9722C42.5421 12.4432 42.4311 12.0242 42.2281 11.7332C42.0251 11.4412 41.7111 11.2962 41.3231 11.2962C40.9351 11.2962 40.6401 11.4412 40.4371 11.7332C40.2341 11.9882 40.1411 12.4072 40.1411 12.9722C40.1411 13.5002 40.2521 13.8832 40.4551 14.1562C40.6581 14.4472 40.9721 14.5932 41.3601 14.5932C41.7291 14.5932 42.0251 14.4472 42.2281 14.1562C42.4311 13.8642 42.5421 13.4642 42.5421 12.9722Z" fill="#00AEEF"/>
<path d="M53.5662 15.34V14.994C53.3082 15.377 52.9752 15.613 52.5502 15.723C52.1262 15.814 51.7012 15.777 51.2952 15.613C50.8702 15.449 50.5192 15.14 50.2242 14.702C49.9282 14.247 49.7812 13.664 49.7812 12.935C49.7812 12.079 49.9842 11.387 50.3722 10.858C50.7592 10.33 51.4062 10.093 52.2742 10.057C53.1412 10.038 53.6402 10.221 54.1202 10.585C54.6552 10.986 54.9692 11.605 54.9692 12.571V15.486C54.9692 16.415 54.3232 18.128 52.2552 17.982C50.9812 17.891 50.2792 17.381 49.8732 16.215H51.3872C51.4982 16.415 51.6643 16.561 51.9043 16.652C52.1263 16.761 52.3662 16.779 52.5872 16.743C52.8092 16.688 53.0312 16.561 53.2152 16.342C53.4182 16.123 53.5292 15.777 53.5662 15.34ZM51.1842 12.972C51.1842 13.919 51.4612 14.447 52.0152 14.557C52.5692 14.666 52.9752 14.538 53.2522 14.174C53.3812 14.028 53.4743 13.791 53.5293 13.464C53.5853 13.136 53.5852 12.826 53.5482 12.498C53.4922 12.188 53.3813 11.897 53.1973 11.66C53.0123 11.405 52.7542 11.296 52.4032 11.296C51.9232 11.296 51.6092 11.46 51.4432 11.806C51.2582 12.134 51.1842 12.534 51.1842 12.972Z" fill="#00AEEF"/>
<path d="M48.5251 10.4573C48.0641 10.2213 47.5101 10.1113 46.9191 10.1113C45.9961 10.1113 45.3311 10.3483 44.9611 10.8223C44.7211 11.1323 44.5921 11.5143 44.5551 11.9883H45.9401C45.9771 11.7693 46.0511 11.6053 46.1431 11.4963C46.2911 11.3323 46.5311 11.2413 46.8821 11.2413C47.1961 11.2413 47.4171 11.2773 47.5831 11.3683C47.7501 11.4603 47.8241 11.6053 47.8241 11.8243C47.8241 12.0063 47.7131 12.1343 47.5101 12.2253C47.3991 12.2793 47.1961 12.3163 46.9371 12.3523L46.4391 12.4073C45.8851 12.4803 45.4601 12.5893 45.1651 12.7533C44.6481 13.0453 44.3711 13.5363 44.3711 14.1923C44.3711 14.7023 44.5371 15.1033 44.8691 15.3773C45.2021 15.6503 45.6081 15.7773 46.1061 15.7963C49.2451 15.9413 49.2081 14.1563 49.2451 13.7913V11.7873C49.2271 11.1323 49.0051 10.6943 48.5251 10.4573ZM47.8051 13.5553C47.8051 14.0283 47.6571 14.3563 47.3991 14.5383C47.1401 14.7213 46.8451 14.8123 46.5311 14.8123C46.3281 14.8123 46.1621 14.7573 46.0321 14.6483C45.8851 14.5383 45.8291 14.3563 45.8291 14.1193C45.8291 13.8463 45.9401 13.6463 46.1621 13.5183C46.2911 13.4453 46.5131 13.3723 46.8261 13.3183L47.1591 13.2633C47.3251 13.2273 47.4541 13.2093 47.5471 13.1723C47.6391 13.1363 47.7311 13.0993 47.8241 13.0453V13.5553H47.8051Z" fill="#00AEEF"/>
<path d="M60.4354 10.8951C59.9734 10.3301 59.2724 10.0381 58.3304 10.0381C57.3884 10.0381 56.6874 10.3301 56.2254 10.8951C55.7634 11.4601 55.5234 12.1341 55.5234 12.9171C55.5234 13.7191 55.7634 14.3931 56.2254 14.9571C56.6874 15.5221 57.3884 15.7961 58.3304 15.7961C59.2724 15.7961 59.9734 15.5221 60.4354 14.9571C60.8974 14.3931 61.1374 13.7191 61.1374 12.9171C61.1184 12.1521 60.8974 11.4781 60.4354 10.8951ZM59.2904 14.1921C59.0694 14.4841 58.7364 14.6301 58.3304 14.6301C57.9244 14.6301 57.5914 14.4841 57.3704 14.1921C57.1484 13.9011 57.0384 13.4821 57.0384 12.9351C57.0384 12.3891 57.1484 11.9701 57.3704 11.6781C57.5914 11.3871 57.9244 11.2411 58.3304 11.2411C58.7364 11.2411 59.0694 11.3871 59.2904 11.6781C59.5124 11.9701 59.6234 12.3891 59.6234 12.9351C59.6234 13.4641 59.5124 13.8831 59.2904 14.1921Z" fill="#00AEEF"/>
</svg>
