<svg width="60" height="60" viewBox="0 0 60 60" fill="none" xmlns="http://www.w3.org/2000/svg">
<rect opacity="0.05" width="60" height="60" rx="8" fill="url(#paint0_linear_222_4445)"/>
<path d="M40.3125 18.75H36.5625V17.8125C36.5625 17.5639 36.4637 17.3254 36.2879 17.1496C36.1121 16.9738 35.8736 16.875 35.625 16.875C35.3764 16.875 35.1379 16.9738 34.9621 17.1496C34.7863 17.3254 34.6875 17.5639 34.6875 17.8125V18.75H25.3125V17.8125C25.3125 17.5639 25.2137 17.3254 25.0379 17.1496C24.8621 16.9738 24.6236 16.875 24.375 16.875C24.1264 16.875 23.8879 16.9738 23.7121 17.1496C23.5363 17.3254 23.4375 17.5639 23.4375 17.8125V18.75H19.6875C18.9416 18.75 18.2262 19.0463 17.6988 19.5738C17.1713 20.1012 16.875 20.8166 16.875 21.5625V40.3125C16.875 41.0584 17.1713 41.7738 17.6988 42.3012C18.2262 42.8287 18.9416 43.125 19.6875 43.125H40.3125C41.0584 43.125 41.7738 42.8287 42.3012 42.3012C42.8287 41.7738 43.125 41.0584 43.125 40.3125V21.5625C43.125 20.8166 42.8287 20.1012 42.3012 19.5738C41.7738 19.0463 41.0584 18.75 40.3125 18.75ZM19.6875 20.625H40.3125C40.5611 20.625 40.7996 20.7238 40.9754 20.8996C41.1512 21.0754 41.25 21.3139 41.25 21.5625V24.375H18.75V21.5625C18.75 21.3139 18.8488 21.0754 19.0246 20.8996C19.2004 20.7238 19.4389 20.625 19.6875 20.625ZM40.3125 41.25H19.6875C19.4389 41.25 19.2004 41.1512 19.0246 40.9754C18.8488 40.7996 18.75 40.5611 18.75 40.3125V26.25H41.25V40.3125C41.25 40.5611 41.1512 40.7996 40.9754 40.9754C40.7996 41.1512 40.5611 41.25 40.3125 41.25Z" fill="url(#paint1_linear_222_4445)"/>
<path d="M34.0782 29.2881L28.172 34.3506L25.9726 32.1522C25.7958 31.9814 25.559 31.8869 25.3131 31.889C25.0673 31.8912 24.8322 31.9898 24.6584 32.1636C24.4846 32.3374 24.386 32.5725 24.3838 32.8183C24.3817 33.0641 24.4762 33.301 24.647 33.4778L27.4595 36.2903C27.6264 36.457 27.8502 36.5547 28.086 36.5637C28.3218 36.5727 28.5524 36.4925 28.7316 36.339L35.2941 30.714C35.3929 30.6357 35.4749 30.5382 35.5352 30.4274C35.5954 30.3167 35.6327 30.1949 35.6448 30.0694C35.6569 29.9439 35.6435 29.8172 35.6055 29.697C35.5675 29.5768 35.5057 29.4655 35.4237 29.3697C35.3416 29.2739 35.2412 29.1957 35.1282 29.1396C35.0152 29.0836 34.8922 29.0509 34.7663 29.0436C34.6404 29.0362 34.5143 29.0543 34.3956 29.0968C34.2769 29.1393 34.168 29.2053 34.0754 29.2909L34.0782 29.2881Z" fill="url(#paint2_linear_222_4445)"/>
<defs>
<linearGradient id="paint0_linear_222_4445" x1="-72.8873" y1="-117.778" x2="186.59" y2="-69.1639" gradientUnits="userSpaceOnUse">
<stop stop-color="#FF0035"/>
<stop offset="1" stop-color="#FF9120"/>
</linearGradient>
<linearGradient id="paint1_linear_222_4445" x1="-15.0132" y1="-34.6528" x2="98.5083" y2="-13.3842" gradientUnits="userSpaceOnUse">
<stop stop-color="#FF0035"/>
<stop offset="1" stop-color="#FF9120"/>
</linearGradient>
<linearGradient id="paint2_linear_222_4445" x1="10.6988" y1="14.2758" x2="57.447" y2="27.3921" gradientUnits="userSpaceOnUse">
<stop stop-color="#FF0035"/>
<stop offset="1" stop-color="#FF9120"/>
</linearGradient>
</defs>
</svg>
