<svg xmlns="http://www.w3.org/2000/svg" xmlns:xlink="http://www.w3.org/1999/xlink" width="820" zoomAndPan="magnify" viewBox="0 0 615 346.49999" height="462" preserveAspectRatio="xMidYMid meet" version="1.0"><defs><g/></defs><g fill="#ffffff" fill-opacity="1"><g transform="translate(18.209653, 224.494653)"><g><path d="M 14.140625 -106.609375 C 10.992188 -113.929688 7.976562 -119.066406 5.09375 -122.015625 C 2.21875 -124.960938 -1.507812 -126.695312 -6.09375 -127.21875 L -6.09375 -131.140625 L 1.375 -131.546875 C 9.226562 -131.546875 16.328125 -129.875 22.671875 -126.53125 C 29.023438 -123.195312 34.296875 -116.554688 38.484375 -106.609375 L 70.484375 -30.828125 L 112.6875 -129.578125 L 122.3125 -129.578125 L 65.96875 1.96875 L 59.875 1.96875 Z M 14.140625 -106.609375 "/></g></g></g><g fill="#ffffff" fill-opacity="1"><g transform="translate(143.267868, 224.494653)"><g><path d="M 51.4375 1.96875 C 42.40625 1.96875 34.617188 -0.125 28.078125 -4.3125 C 21.535156 -8.507812 16.53125 -14.238281 13.0625 -21.5 C 9.59375 -28.757812 7.859375 -36.972656 7.859375 -46.140625 C 7.859375 -55.828125 9.625 -64.300781 13.15625 -71.5625 C 16.6875 -78.820312 21.59375 -84.414062 27.875 -88.34375 C 34.15625 -92.269531 41.351562 -94.234375 49.46875 -94.234375 C 62.164062 -94.234375 72.273438 -90.566406 79.796875 -83.234375 C 87.328125 -75.910156 91.09375 -65.96875 91.09375 -53.40625 L 90.5 -42.796875 L 31.21875 -42.796875 C 31.21875 -31.015625 33.3125 -22.015625 37.5 -15.796875 C 41.6875 -9.585938 47.445312 -6.484375 54.78125 -6.484375 C 60.925781 -6.484375 66.15625 -7.851562 70.46875 -10.59375 C 74.789062 -13.34375 78.851562 -17.335938 82.65625 -22.578125 L 87.765625 -18.65625 C 83.960938 -12.238281 79.148438 -7.195312 73.328125 -3.53125 C 67.503906 0.132812 60.207031 1.96875 51.4375 1.96875 Z M 67.734375 -51.234375 C 67.734375 -63.273438 66.191406 -72.046875 63.109375 -77.546875 C 60.035156 -83.046875 55.488281 -85.796875 49.46875 -85.796875 C 44.101562 -85.796875 39.71875 -82.882812 36.3125 -77.0625 C 32.914062 -71.238281 31.21875 -62.628906 31.21875 -51.234375 Z M 67.734375 -51.234375 "/></g></g></g><g fill="#ffffff" fill-opacity="1"><g transform="translate(241.429723, 224.494653)"><g><path d="M 44.953125 1.96875 C 29.898438 1.96875 19.5 -0.71875 13.75 -6.09375 C 11.65625 -8.1875 10.34375 -10.832031 9.8125 -14.03125 C 9.289062 -17.238281 9.03125 -21.984375 9.03125 -28.265625 L 14.71875 -28.265625 C 15.894531 -21.597656 18.644531 -16.300781 22.96875 -12.375 C 27.289062 -8.445312 33.3125 -6.484375 41.03125 -6.484375 C 48.101562 -6.484375 53.273438 -7.691406 56.546875 -10.109375 C 59.816406 -12.535156 61.453125 -15.84375 61.453125 -20.03125 C 61.453125 -23.5625 60.007812 -26.566406 57.125 -29.046875 C 54.25 -31.535156 49.800781 -34.023438 43.78125 -36.515625 L 32.984375 -41.234375 C 24.867188 -44.628906 18.75 -48.453125 14.625 -52.703125 C 10.5 -56.960938 8.4375 -62.171875 8.4375 -68.328125 C 8.4375 -76.566406 11.707031 -82.941406 18.25 -87.453125 C 24.800781 -91.972656 33.3125 -94.234375 43.78125 -94.234375 C 58.570312 -94.234375 68.78125 -91.550781 74.40625 -86.1875 C 76.632812 -84.09375 78.007812 -81.441406 78.53125 -78.234375 C 79.050781 -75.023438 79.3125 -70.28125 79.3125 -64 L 73.625 -64 C 72.445312 -70.675781 69.726562 -75.976562 65.46875 -79.90625 C 61.21875 -83.832031 55.296875 -85.796875 47.703125 -85.796875 C 41.816406 -85.796875 37.367188 -84.550781 34.359375 -82.0625 C 31.347656 -79.570312 29.84375 -76.300781 29.84375 -72.25 C 29.84375 -68.976562 31.050781 -66.128906 33.46875 -63.703125 C 35.894531 -61.285156 39.53125 -59.03125 44.375 -56.9375 L 56.15625 -52.03125 C 65.570312 -48.101562 72.375 -44.078125 76.5625 -39.953125 C 80.75 -35.828125 82.84375 -30.492188 82.84375 -23.953125 C 82.84375 -15.703125 79.34375 -9.316406 72.34375 -4.796875 C 65.34375 -0.285156 56.210938 1.96875 44.953125 1.96875 Z M 44.953125 1.96875 "/></g></g></g><g fill="#ffffff" fill-opacity="1"><g transform="translate(331.542297, 224.494653)"><g><path d="M 43.1875 1.96875 C 34.8125 1.96875 28.300781 -0.320312 23.65625 -4.90625 C 19.007812 -9.488281 16.6875 -16.296875 16.6875 -25.328125 L 16.6875 -83.828125 L 4.125 -83.828125 L 4.125 -92.28125 L 16.6875 -92.28125 L 16.6875 -109.9375 L 26.5 -121.71875 L 39.0625 -121.71875 L 39.0625 -92.28125 L 61.453125 -92.28125 L 61.453125 -83.828125 L 39.0625 -83.828125 L 39.0625 -24.734375 C 39.0625 -18.191406 40.007812 -13.515625 41.90625 -10.703125 C 43.8125 -7.890625 46.726562 -6.484375 50.65625 -6.484375 C 56.019531 -6.484375 61.054688 -8.050781 65.765625 -11.1875 L 68.328125 -6.28125 C 61.515625 -0.78125 53.132812 1.96875 43.1875 1.96875 Z M 43.1875 1.96875 "/></g></g></g><g fill="#ffffff" fill-opacity="1"><g transform="translate(399.666624, 224.494653)"><g><path d="M 19.046875 32.78125 C 25.847656 32.78125 31.441406 31.375 35.828125 28.5625 C 40.210938 25.75 43.84375 20.613281 46.71875 13.15625 L 50.65625 2.359375 L 16.890625 -74.609375 C 12.960938 -84.023438 6.414062 -89.257812 -2.75 -90.3125 L -2.75 -94.234375 L 14.328125 -94.234375 C 20.085938 -94.234375 25.09375 -92.859375 29.34375 -90.109375 C 33.601562 -87.359375 36.84375 -83.5 39.0625 -78.53125 L 61.640625 -27.09375 L 85.796875 -92.28125 L 96 -92.28125 L 56.9375 12.765625 C 53.132812 22.972656 48.878906 29.941406 44.171875 33.671875 C 39.460938 37.398438 33.441406 39.265625 26.109375 39.265625 L 19.046875 39.265625 Z M 19.046875 32.78125 "/></g></g></g><g fill="#ffffff" fill-opacity="1"><g transform="translate(499.988074, 224.494653)"><g><path d="M 38.09375 -42.40625 L 20.03125 -72.640625 C 14.53125 -82.066406 8.179688 -87.300781 0.984375 -88.34375 L 0.984375 -92.28125 L 18.84375 -92.28125 C 24.207031 -92.28125 28.785156 -90.9375 32.578125 -88.25 C 36.378906 -85.5625 39.785156 -81.664062 42.796875 -76.5625 L 53.40625 -58.703125 L 78.921875 -92.28125 L 90.703125 -92.28125 L 58.3125 -50.0625 L 76.5625 -19.640625 C 79.3125 -14.921875 82.351562 -11.253906 85.6875 -8.640625 C 89.03125 -6.023438 92.46875 -4.453125 96 -3.921875 L 96 0 L 77.75 0 C 72.382812 0 67.800781 -1.335938 64 -4.015625 C 60.207031 -6.703125 56.804688 -10.597656 53.796875 -15.703125 L 43.1875 -33.578125 L 17.46875 0 L 5.6875 0 Z M 38.09375 -42.40625 "/></g></g></g></svg>