<svg width="40" height="40" viewBox="0 0 40 40" fill="none" xmlns="http://www.w3.org/2000/svg">
<g clip-path="url(#clip0_328_522)">
<g clip-path="url(#clip1_328_522)">
<path d="M39.2187 0H26.8069C26.4909 0 26.2061 0.190391 26.0851 0.482266C25.9643 0.774219 26.0312 1.11023 26.2545 1.33367L29.1779 4.25711L19.3384 14.0966L10.2511 5.0093C9.94592 4.7043 9.45139 4.7043 9.14615 5.0093L0.230762 13.9247C-0.0743164 14.2298 -0.0743164 14.7245 0.230762 15.0296C0.38334 15.1821 0.583262 15.2584 0.783184 15.2584C0.983105 15.2584 1.18303 15.1821 1.33561 15.0296L9.69865 6.66664L20.5822 17.5502C20.7347 17.7027 20.9347 17.779 21.1346 17.779C21.3345 17.779 21.5344 17.7027 21.687 17.5502C21.9921 17.2451 21.9921 16.7504 21.687 16.4452L20.4433 15.2016L30.2828 5.36203L34.6452 9.72445L26.7161 17.6537C26.411 17.9588 26.411 18.4534 26.7161 18.7586C26.8687 18.9111 27.0686 18.9874 27.2685 18.9874C27.4684 18.9874 27.6683 18.9111 27.8209 18.7586L35.7501 10.8294L38.6662 13.7455C38.8156 13.8949 39.0154 13.9743 39.2187 13.9743C39.3194 13.9743 39.4209 13.9548 39.5176 13.9148C39.8094 13.7939 39.9998 13.5091 39.9998 13.193V0.78125C39.9999 0.349844 39.6501 0 39.2187 0ZM38.4374 11.3069L28.693 1.5625H38.4374V11.3069Z" fill="white"/>
<path d="M25.8872 19.5875C25.742 19.4414 25.5404 19.3586 25.335 19.3586C25.1295 19.3586 24.9279 19.4414 24.7826 19.5875C24.6365 19.7328 24.5537 19.9344 24.5537 20.1398C24.5537 20.3453 24.6365 20.5469 24.7826 20.6921C24.9279 20.8374 25.1295 20.9211 25.335 20.9211C25.5404 20.9211 25.742 20.8375 25.8872 20.6921C26.0325 20.5469 26.1162 20.3453 26.1162 20.1398C26.1162 19.9344 26.0326 19.7328 25.8872 19.5875Z" fill="white"/>
<path d="M15.0383 20.7309L10.8037 16.4964L12.0646 15.2355C12.3697 14.9305 12.3697 14.4358 12.0647 14.1307C11.7595 13.8257 11.265 13.8257 10.9597 14.1307L0.230762 24.8597C-0.0743164 25.1648 -0.0743164 25.6595 0.230762 25.9646C0.38334 26.1171 0.583262 26.1934 0.783184 26.1934C0.983106 26.1934 1.18303 26.1171 1.33561 25.9646L9.69889 17.6013L13.9334 21.8358C14.086 21.9883 14.2859 22.0646 14.4858 22.0646C14.6858 22.0646 14.8857 21.9883 15.0383 21.8358C15.3433 21.5307 15.3433 21.036 15.0383 20.7309Z" fill="white"/>
<path d="M20.0365 28.6642L20 28.6641C19.5686 28.6641 19.2188 29.014 19.2188 29.4454C19.2188 29.8768 19.5686 30.2266 20 30.2266L20.0249 30.2267C20.0269 30.2267 20.0289 30.2267 20.0309 30.2267C20.4595 30.2267 20.8088 29.8807 20.812 29.4513C20.8152 29.0198 20.468 28.6674 20.0365 28.6642Z" fill="white"/>
<path d="M39.2188 38.4375H37.8484V34.9365C37.8484 34.5777 37.6041 34.2651 37.256 34.1784L33.6248 33.2737L32.3231 30.1328L34.2508 26.926C34.4356 26.6185 34.3873 26.2247 34.1337 25.971L31.106 22.9434C30.8523 22.6897 30.4584 22.6415 30.151 22.8262L26.9441 24.7539L23.8033 23.4523L22.8986 19.8211C22.812 19.473 22.4993 19.2287 22.1405 19.2287H17.8594C17.5006 19.2287 17.188 19.473 17.1013 19.8211L16.1966 23.4523L13.0558 24.7539L9.84891 22.8262C9.54141 22.6413 9.14766 22.6897 8.89391 22.9434L5.86633 25.9711C5.61266 26.2248 5.56437 26.6186 5.74922 26.9261L7.67688 30.1328L6.37523 33.2737L2.74406 34.1784C2.39594 34.2651 2.15164 34.5777 2.15164 34.9365V38.4375H0.78125C0.349844 38.4375 0 38.7873 0 39.2187C0 39.6501 0.349844 40 0.78125 40H39.2188C39.6502 40 40 39.6501 40 39.2187C40 38.7873 39.6502 38.4375 39.2188 38.4375ZM36.2858 38.4375H28.3014C28.7353 35.7837 27.8776 33.0573 25.9486 31.1282C25.1027 30.2823 24.1112 29.639 23.0017 29.2159C22.5986 29.0622 22.1472 29.2644 21.9934 29.6676C21.8397 30.0707 22.042 30.5221 22.4451 30.6759C23.3475 31.0199 24.1546 31.5438 24.8438 32.233C26.4755 33.8649 27.1659 36.1978 26.7134 38.4374H13.286C12.8335 36.1977 13.5239 33.8648 15.1558 32.233C15.8517 31.5371 16.6675 31.0099 17.5804 30.666C17.9842 30.514 18.1882 30.0633 18.0362 29.6595C17.8841 29.2558 17.4334 29.0519 17.0297 29.2037C15.9073 29.6265 14.9051 30.2739 14.0509 31.1281C12.122 33.0571 11.2641 35.7834 11.698 38.4374H3.71406V35.547L7.135 34.6948C7.37539 34.6348 7.57305 34.4646 7.66789 34.2358L9.27109 30.367C9.36594 30.1381 9.34664 29.8778 9.21891 29.6655L7.40281 26.6443L9.56711 24.48L12.5884 26.2961C12.8007 26.4238 13.0612 26.4432 13.2899 26.3483L17.1586 24.7451C17.3874 24.6502 17.5577 24.4526 17.6176 24.2122L18.4698 20.7912H21.53L22.3823 24.2122C22.4421 24.4526 22.6124 24.6502 22.8413 24.7451L26.7099 26.3483C26.9387 26.4432 27.1992 26.4239 27.4115 26.2961L30.4327 24.48L32.597 26.6443L30.7809 29.6655C30.6532 29.8779 30.6339 30.1382 30.7288 30.367L32.332 34.2358C32.4268 34.4646 32.6245 34.6348 32.8648 34.6948L36.2858 35.547V38.4375Z" fill="white"/>
</g>
</g>
<defs>
<clipPath id="clip0_328_522">
<rect width="40" height="40" fill="white"/>
</clipPath>
<clipPath id="clip1_328_522">
<rect width="40" height="40" fill="white"/>
</clipPath>
</defs>
</svg>
