<svg width="80" height="80" viewBox="0 0 80 80" fill="none" xmlns="http://www.w3.org/2000/svg">
<rect width="80" height="80" rx="8" fill="#FFEBE8"/>
<path d="M64.7266 17.0588H15.2734C12.3693 17.0588 10 19.4256 10 22.3323V57.4885C10 60.3854 12.3588 62.762 15.2734 62.762H64.7266C67.6234 62.762 70 60.4032 70 57.4885V22.3323C70 19.4354 67.6412 17.0588 64.7266 17.0588ZM63.9984 20.5745L40.1118 44.4611L16.0186 20.5745H63.9984ZM13.5156 56.7606V23.0435L30.4468 39.8294L13.5156 56.7606ZM16.0015 59.2463L32.9433 42.3045L38.8797 48.1899C39.5669 48.8713 40.6758 48.869 41.3602 48.1845L47.1484 42.3963L63.9985 59.2463H16.0015ZM66.4844 56.7604L49.6343 39.9104L66.4844 23.0602V56.7604Z" fill="#EA6249"/>
</svg>
