<svg width="64" height="64" viewBox="0 0 64 64" fill="none" xmlns="http://www.w3.org/2000/svg">
<rect y="0.00012207" width="64" height="64" rx="8" fill="#FFEBE8"/>
<g clip-path="url(#clip0_101_174)">
<path d="M50.6683 22.0484C50.2411 22.2551 50.0623 22.769 50.269 23.1962C51.6042 25.9554 52.2812 28.9174 52.2812 32.0001C52.2812 43.1832 43.1831 52.2814 32 52.2814C27.6164 52.2814 23.3256 50.8411 19.8276 48.2114C20.2844 47.2531 20.1172 46.0692 19.3248 45.2769C18.3196 44.2717 16.684 44.2717 15.6787 45.2769C14.6735 46.2821 14.6735 47.9176 15.6787 48.9229C16.4564 49.7006 17.6279 49.8872 18.5966 49.4339C22.4269 52.3822 27.1612 54.0001 32 54.0001C44.1308 54.0001 54 44.131 54 32.0001C54 28.6559 53.2652 25.442 51.8161 22.4476C51.6094 22.0204 51.0956 21.8417 50.6683 22.0484Z" fill="#EA6249"/>
<path d="M13.1152 41.5363C13.547 41.3391 13.7371 40.8293 13.5399 40.3976C12.3314 37.7522 11.7188 34.9268 11.7188 32.0001C11.7188 20.817 20.8169 11.7189 32 11.7189C36.3148 11.7189 40.3973 13.0446 43.8656 15.5614C43.2628 16.5533 43.389 17.867 44.2454 18.7235C45.2507 19.7287 46.8862 19.7287 47.8915 18.7235C48.8967 17.7183 48.8967 16.0827 47.8915 15.0774C47.1802 14.3661 46.1534 14.1589 45.2575 14.4542C41.4414 11.5631 36.8181 10.0001 32 10.0001C19.8691 10.0001 10 19.8693 10 32.0001C10 35.175 10.665 38.2406 11.9765 41.1116C12.1727 41.5412 12.6814 41.7344 13.1152 41.5363Z" fill="#EA6249"/>
<path d="M32 15.672C23.5948 15.672 15.6719 22.3481 15.6719 32.0001C15.6719 40.9403 22.9335 48.3282 32 48.3282C41.0647 48.3282 48.3281 40.9448 48.3281 32.0001C48.3281 23.06 41.0665 15.672 32 15.672ZM27.4003 18.1332C25.6244 20.2443 24.5496 23.2573 23.9935 25.9845H18.6872C20.3603 22.2968 23.5219 19.4231 27.4003 18.1332ZM17.3906 32.0001C17.3906 30.5053 17.6167 29.0623 18.0358 27.7032L23.699 27.7024C23.506 29.0856 23.4062 30.5289 23.4062 32.0001C23.4062 33.4714 23.506 34.9137 23.699 36.297H18.0358C17.6167 34.9379 17.3906 33.4949 17.3906 32.0001ZM18.6873 38.0157H23.9935C24.5496 40.7424 25.6242 43.7557 27.4004 45.867C23.5219 44.5772 20.3603 41.7034 18.6873 38.0157ZM31.1406 46.4901C28.7756 45.8308 26.7429 42.4985 25.7584 38.0157H31.1406V46.4901ZM31.1406 36.297H25.4413C25.2361 34.9322 25.125 33.4879 25.125 32.0001C25.125 30.5124 25.2362 29.068 25.4413 27.7032H31.1406V36.297ZM31.1406 25.9845H25.7584C26.7429 21.5017 28.7756 18.1694 31.1406 17.5101V25.9845ZM32.8594 17.5101C35.2244 18.1694 37.2571 21.5017 38.2416 25.9845H32.8594V17.5101ZM32.8594 27.7032H38.5587C38.7639 29.068 38.875 30.5124 38.875 32.0001C38.875 33.4879 38.7638 34.9322 38.5587 36.297H32.8594V27.7032ZM32.8594 46.4901V38.0149L38.2416 38.0157C37.2571 42.4986 35.2244 45.8308 32.8594 46.4901ZM36.5997 45.867C38.3764 43.7551 39.4508 40.7413 40.0065 38.0149H45.3127C43.6397 41.7034 40.4781 44.5772 36.5997 45.867ZM46.6094 32.0001C46.6094 33.4949 46.3833 34.9379 45.9642 36.297H40.301C40.494 34.9137 40.5938 33.4714 40.5938 32.0001C40.5938 30.5289 40.494 29.0865 40.301 27.7032H45.9642C46.3833 29.0623 46.6094 30.5053 46.6094 32.0001ZM40.0065 25.9845C39.4504 23.2579 38.3758 20.2446 36.5996 18.1332C40.478 19.4231 43.6397 22.2968 45.3126 25.9845H40.0065Z" fill="#EA6249"/>
</g>
<defs>
<clipPath id="clip0_101_174">
<rect width="44" height="44" fill="white" transform="translate(10 10.0001)"/>
</clipPath>
</defs>
</svg>
