<svg width="64" height="64" viewBox="0 0 64 64" fill="none" xmlns="http://www.w3.org/2000/svg">
<rect width="64" height="64" rx="8" fill="#FFEBE8"/>
<g clip-path="url(#clip0_101_162)">
<path d="M31.9998 35.6667C24.925 35.6667 19.1665 29.91 19.1665 22.8333C19.1665 15.7567 24.925 10 31.9998 10C39.0747 10 44.8332 15.7567 44.8332 22.8333C44.8332 29.91 39.0747 35.6667 31.9998 35.6667ZM31.9998 11.8333C25.9333 11.8333 20.9998 16.7687 20.9998 22.8333C20.9998 28.898 25.9333 33.8333 31.9998 33.8333C38.0663 33.8333 42.9998 28.8998 42.9998 22.8333C42.9998 16.7668 38.0663 11.8333 31.9998 11.8333Z" fill="#EA6249"/>
<path d="M35.9655 30.1666C35.8133 30.1666 35.6611 30.1281 35.5218 30.0529L32 28.1059L28.4781 30.0529C28.1701 30.2234 27.7925 30.2014 27.5065 29.9998C27.2205 29.7981 27.0738 29.4498 27.1306 29.1033L27.8126 24.9159L24.9288 21.9588C24.6886 21.7131 24.6061 21.3538 24.7143 21.0274C24.8243 20.7011 25.1066 20.4646 25.4458 20.4133L29.3948 19.8083L31.1713 16.0279C31.472 15.3826 32.528 15.3826 32.8286 16.0279L34.6051 19.8083L38.5541 20.4133C38.8951 20.4646 39.1775 20.7029 39.2856 21.0274C39.3938 21.3538 39.3113 21.7131 39.0711 21.9588L36.1873 24.9159L36.8693 29.1033C36.9261 29.4498 36.7795 29.7981 36.4935 29.9998C36.3358 30.1116 36.1525 30.1666 35.9655 30.1666V30.1666ZM32 26.1424C32.1521 26.1424 32.3061 26.1809 32.4436 26.2561L34.7573 27.5358L34.3045 24.7546C34.2586 24.4668 34.3485 24.1753 34.5538 23.9663L36.5155 21.9551L33.8461 21.5463C33.5436 21.5023 33.2833 21.3079 33.155 21.0311L32 18.5744L30.845 21.0311C30.7166 21.3079 30.4563 21.5023 30.1538 21.5481L27.4845 21.9551L29.4461 23.9663C29.6496 24.1734 29.7413 24.4668 29.6955 24.7546L29.2426 27.5358L31.5563 26.2561C31.6938 26.1809 31.8478 26.1424 32 26.1424V26.1424Z" fill="#EA6249"/>
<path d="M24.0706 54C24.0596 54 24.0505 54 24.0395 54C23.7003 53.989 23.396 53.7928 23.2475 53.4885L20.6038 48.1168L14.6143 48.4982C14.2733 48.5073 13.9561 48.3533 13.7765 48.0673C13.5968 47.7813 13.5931 47.4183 13.7636 47.125L23.0036 31.109C23.2548 30.6708 23.814 30.5205 24.2558 30.7735C24.694 31.0265 24.8443 31.5875 24.5913 32.0257L16.2075 46.5603L21.0988 46.2487C21.4655 46.2303 21.8175 46.4265 21.9788 46.7583L24.1348 51.14L31.1418 39.0217C31.3985 38.5835 31.9595 38.4368 32.394 38.6862C32.8321 38.941 32.9825 39.5002 32.7295 39.9402L24.8645 53.5435C24.7013 53.8258 24.397 54 24.0706 54V54Z" fill="#EA6249"/>
<path d="M39.8009 53.9999C39.4746 53.9999 39.1703 53.8258 39.0071 53.5416L28.2949 34.9094C28.0438 34.4694 28.1996 33.9103 28.6396 33.6591C29.0723 33.4116 29.6388 33.5638 29.8881 34.0038L32.7334 39.0253L39.7386 51.1418L41.9148 46.7509C42.0798 46.4209 42.4373 46.2248 42.7948 46.2431L47.6861 46.5548L39.3279 32.0659C39.0749 31.6278 39.2253 31.0668 39.6653 30.8138C40.1034 30.5589 40.6644 30.7093 40.9193 31.1493L50.1299 47.1213C50.2986 47.4146 50.2931 47.7758 50.1134 48.0636C49.9338 48.3514 49.6166 48.5073 49.2756 48.4944L43.2843 48.1113L40.6223 53.4866C40.4719 53.7891 40.1676 53.9834 39.8284 53.9944C39.8211 53.9999 39.8101 53.9999 39.8009 53.9999V53.9999Z" fill="#EA6249"/>
</g>
<defs>
<clipPath id="clip0_101_162">
<rect width="44" height="44" fill="white" transform="translate(10 10)"/>
</clipPath>
</defs>
</svg>
