<svg width="18" height="18" viewBox="0 0 18 18" fill="none" xmlns="http://www.w3.org/2000/svg">
<g clip-path="url(#clip0_30_1744)">
<path d="M18 2.06255C18 0.924774 17.0752 0 15.9375 0H2.06255C0.924774 0 0 0.924774 0 2.06255V15.9375C0 17.0752 0.924774 18 2.06255 18H15.9375C17.0752 18 18 17.0752 18 15.9375V2.06255Z" fill="#EA6249"/>
<path d="M13.5617 6.03226C13.8549 6.32545 13.8549 6.79938 13.5617 7.09271L8.68666 11.9676C8.54041 12.1139 8.34842 12.1875 8.15643 12.1875C7.96445 12.1875 7.77246 12.1139 7.62621 11.9676L5.18875 9.53017C4.89542 9.23697 4.89542 8.76291 5.18875 8.46971C5.48195 8.17638 5.95587 8.17638 6.24921 8.46971L8.15643 10.3769L12.5013 6.03226C12.7944 5.73892 13.2684 5.73892 13.5617 6.03226Z" fill="#FAFAFA"/>
</g>
<defs>
<clipPath id="clip0_30_1744">
<rect width="18" height="18" fill="white"/>
</clipPath>
</defs>
</svg>
