<svg width="85" height="14" viewBox="0 0 85 14" fill="none" xmlns="http://www.w3.org/2000/svg">
<path d="M0.925995 11.293C0.416995 11.293 0 10.876 0 10.367V3.63303C0 3.12403 0.416995 2.70703 0.925995 2.70703C1.43499 2.70703 1.851 3.12403 1.851 3.63303V10.367C1.851 10.876 1.43499 11.293 0.925995 11.293Z" fill="#8AC8E8"/>
<path d="M12.0334 11.293C11.5244 11.293 11.1074 10.876 11.1074 10.367V3.63303C11.1074 3.12403 11.5244 2.70703 12.0334 2.70703C12.5424 2.70703 12.9594 3.12403 12.9594 3.63303V10.367C12.9594 10.876 12.5424 11.293 12.0334 11.293Z" fill="#0BAEDD"/>
<path d="M6.47969 14.0004C5.97069 14.0004 5.55469 13.5834 5.55469 13.0744V0.949448C5.55469 0.440448 5.97069 0.0234375 6.47969 0.0234375C6.98869 0.0234375 7.40569 0.440448 7.40569 0.949448V13.0744C7.40569 13.5834 6.98869 14.0004 6.47969 14.0004Z" fill="#3080C3"/>
<path d="M35.4062 3.30859C35.4062 2.98459 35.6833 2.68359 36.0073 2.68359C36.3553 2.68359 36.6323 2.96159 36.6323 3.30859V10.5516C36.6323 10.8986 36.3783 11.1766 36.0312 11.1766C35.6833 11.1766 35.4062 10.8986 35.4062 10.5516V3.30859Z" fill="#808285"/>
<path d="M39.9414 6.965V6.98801C39.9414 8.93201 41.2834 10.182 42.8334 10.182C44.3604 10.182 45.8184 8.88601 45.8184 6.98801V6.965C45.8184 5.068 44.3604 3.795 42.8334 3.795C41.2364 3.795 39.9414 4.975 39.9414 6.965ZM46.9984 10.575C46.9984 10.922 46.7214 11.2 46.3974 11.2C46.0504 11.2 45.7724 10.922 45.7724 10.575V9.696C45.1014 10.691 44.1294 11.293 42.6254 11.293C40.6584 11.293 38.6914 9.742 38.6914 7.035V7.01199C38.6914 4.32699 40.6584 2.731 42.6254 2.731C44.1524 2.731 45.1474 3.332 45.7724 4.258V0.625C45.7724 0.278 46.0264 0 46.3744 0C46.7214 0 46.9984 0.278 46.9984 0.625V10.575Z" fill="#808285"/>
<path d="M78.8414 10.2275C78.7254 10.1585 78.6094 9.99646 78.6094 9.78746C78.6094 9.51046 78.8414 9.25546 79.1424 9.25546C79.2574 9.25546 79.3734 9.27846 79.4424 9.34846C80.2764 9.92646 81.1554 10.2275 82.0574 10.2275C83.0524 10.2275 83.7704 9.71847 83.7704 8.93147V8.90846C83.7704 8.07546 82.7984 7.75147 81.7104 7.45047C80.4144 7.08047 78.9804 6.64046 78.9804 5.13646V5.09047C78.9804 3.67847 80.1604 2.73047 81.7804 2.73047C82.6594 2.73047 83.6084 3.00747 84.4184 3.42447C84.5804 3.51647 84.7184 3.70147 84.7184 3.93347C84.7184 4.21147 84.4874 4.46547 84.1864 4.46547C84.0714 4.46547 83.9784 4.44247 83.9094 4.39647C83.2144 4.00247 82.4514 3.74846 81.7564 3.74846C80.7854 3.74846 80.1604 4.25746 80.1604 4.95146V4.97447C80.1604 5.76147 81.1784 6.06246 82.2664 6.38646C83.5384 6.77946 84.9044 7.26546 84.9044 8.74646V8.79247C84.9044 10.3435 83.6084 11.2685 81.9654 11.2685C80.9234 11.2685 79.7434 10.8755 78.8414 10.2275Z" fill="#808285"/>
<path d="M76.8488 6.15459C76.8488 4.30359 75.2288 2.68359 73.2628 2.68359C71.2718 2.68359 69.6758 4.28058 69.6758 6.27058V10.5056C69.6758 10.8756 69.9528 11.1536 70.3238 11.1536C70.6938 11.1536 70.9488 10.8756 70.9488 10.5056V8.60759V6.15459C70.9488 4.88259 71.9898 3.84059 73.2628 3.84059C74.5348 3.84059 75.5768 4.88259 75.5768 6.15459V8.60759V10.5056C75.5768 10.8756 75.8538 11.1536 76.2008 11.1536C76.5718 11.1536 76.8488 10.8756 76.8488 10.5056C76.8488 10.5286 76.8718 6.57159 76.8488 6.15459Z" fill="#808285"/>
<path d="M67.5017 6.08624C67.3857 4.32724 65.8127 2.82324 63.9377 2.82324H63.3827C63.0587 2.82324 62.8037 3.07824 62.8037 3.40224C62.8037 3.72624 63.0587 3.98024 63.3827 3.98024H63.9377C65.2107 3.98024 66.3447 5.02125 66.3447 6.29425V6.38724C65.6037 6.17924 64.8637 6.04024 63.8227 6.04024C61.7397 6.04024 60.3047 6.96525 60.3047 8.70125V8.72424C60.3047 10.4132 61.7857 11.2932 63.3127 11.2932C64.7017 11.2932 65.7887 10.5752 66.3677 9.67325V10.6212C66.3677 10.9452 66.6227 11.2002 66.9467 11.2002C67.2697 11.2002 67.5247 10.9452 67.5247 10.6212L67.5017 6.08624ZM63.4987 10.1823C62.3877 10.1823 61.5087 9.69624 61.5087 8.67824V8.65524C61.5087 7.61324 62.3647 6.94225 63.9147 6.94225C64.9097 6.94225 66.3447 7.26625 66.3447 7.28925C66.3217 8.79325 64.9327 10.1823 63.4987 10.1823Z" fill="#808285"/>
<path d="M60.0268 3.3788C60.0268 3.0548 59.7728 2.7998 59.4488 2.7998H59.0558C57.0648 2.7998 55.4688 4.3968 55.4688 6.3868V10.5288C55.4688 10.8988 55.7458 11.1768 56.1168 11.1768C56.4868 11.1768 56.7418 10.8988 56.7418 10.5288V8.6308V6.2708C56.7418 4.9978 57.7828 3.9568 59.0558 3.9568H59.4488C59.7728 3.9798 60.0268 3.7018 60.0268 3.3788Z" fill="#808285"/>
<path d="M53.4315 3.355C53.4315 3.055 53.2005 2.823 52.8995 2.823H50.7475V0.647995C50.7475 0.300995 50.4695 0 50.1225 0C49.7755 0 49.5215 0.278 49.5215 0.625V8.93201C49.5215 10.598 50.5165 11.246 51.8355 11.246C52.3215 11.246 52.6915 11.177 53.0385 11.015C53.2465 10.945 53.3855 10.76 53.3855 10.529C53.3855 10.251 53.1545 9.99699 52.8535 9.99699C52.7605 9.99699 52.5295 10.112 52.1125 10.112C51.2795 10.112 50.7245 9.74199 50.7245 8.74699V3.888H52.8765C53.2005 3.911 53.4315 3.656 53.4315 3.355Z" fill="#808285"/>
<path d="M29.4347 2.68359C28.2537 2.68359 27.2357 3.26258 26.6117 4.16458C25.9867 3.26258 24.9687 2.68359 23.8117 2.68359C21.9137 2.68359 20.3867 4.21158 20.3867 6.10858V10.5516C20.3867 10.8986 20.6637 11.1766 21.0117 11.1766C21.3587 11.1766 21.6127 10.8986 21.6127 10.5516V5.99258C21.6127 4.76658 22.6077 3.79459 23.8117 3.79459C25.0377 3.79459 26.0097 4.78958 26.0097 5.99258V10.0426C26.0097 10.3896 26.2877 10.6446 26.6117 10.6446C26.9587 10.6446 27.2127 10.3666 27.2127 10.0426V5.99258C27.2127 4.76658 28.2077 3.79459 29.4117 3.79459C30.6377 3.79459 31.6097 4.78958 31.6097 5.99258V10.5516C31.6097 10.8986 31.8877 11.1766 32.2117 11.1766C32.5587 11.1766 32.8357 10.8986 32.8357 10.5516V6.13159C32.8587 4.18759 31.2397 2.68359 29.4347 2.68359Z" fill="#808285"/>
</svg>
