<svg width="52" height="11" viewBox="0 0 52 11" fill="none" xmlns="http://www.w3.org/2000/svg">
<path d="M26.2295 10.3291C28.3281 10.3291 29.8867 9.1602 30.2148 7.3555V7.3418H28.9707L28.957 7.3555C28.6494 8.4903 27.6035 9.1944 26.2295 9.1944C24.3291 9.1944 23.1396 7.6426 23.1396 5.1748V5.1612C23.1396 2.6934 24.3291 1.1348 26.2227 1.1348C27.583 1.1348 28.6357 1.9346 28.9639 3.1992L28.9707 3.2129H30.208L30.2148 3.1992C29.9209 1.3057 28.3008 0 26.2227 0C23.543 0 21.875 1.9824 21.875 5.1612V5.1748C21.875 8.3467 23.5498 10.3291 26.2295 10.3291ZM36.4219 10.3291C39.2383 10.3291 40.9473 8.3125 40.9473 5.168V5.1543C40.9473 1.9961 39.2246 0 36.4219 0C33.6328 0 31.8965 1.9893 31.8965 5.1543V5.168C31.8965 8.3194 33.5918 10.3291 36.4219 10.3291ZM36.4219 9.1944C34.3711 9.1944 33.1543 7.6084 33.1543 5.168V5.1543C33.1543 2.6934 34.4121 1.1348 36.4219 1.1348C38.4385 1.1348 39.6895 2.6934 39.6895 5.1543V5.168C39.6895 7.6084 38.4453 9.1944 36.4219 9.1944ZM43.0801 10.0967H46.4639C49.3965 10.0967 51.1191 8.2715 51.1191 5.168V5.1543C51.1191 2.0576 49.3896 0.232401 46.4639 0.232401H43.0801V10.0967ZM44.3105 8.9893V1.3399H46.3818C48.5693 1.3399 49.8613 2.7617 49.8613 5.168V5.1817C49.8613 7.5811 48.583 8.9893 46.3818 8.9893H44.3105Z" fill="#344054"/>
<path d="M12.4986 2H5.41533C5.19443 2.0002 4.98253 2.0881 4.82633 2.2443C4.67013 2.4006 4.58223 2.6124 4.58203 2.8333V8.6667C4.58203 8.7772 4.62593 8.8832 4.70403 8.9613C4.78213 9.0394 4.88813 9.0833 4.99863 9.0833H12.9153C13.0258 9.0833 13.1318 9.0394 13.2099 8.9613C13.288 8.8831 13.3319 8.7772 13.3319 8.6667V2.8333C13.3317 2.6124 13.2439 2.4006 13.0876 2.2443C12.9314 2.0881 12.7196 2.0002 12.4986 2Z" fill="url(#paint0_linear_302_2179)"/>
<path d="M14.5101 5.30092C14.4171 5.05572 14.2434 4.84952 14.0174 4.71642C13.7915 4.58322 13.527 4.53112 13.2674 4.56852L10.2484 5.01602C10.2458 4.78462 10.1721 4.55962 10.0373 4.37152C9.9025 4.18332 9.7131 4.04122 9.4948 3.96432L6.9004 3.11412C6.4288 2.96062 5.9204 2.96202 5.4496 3.11802L2.7848 4.00732C2.7019 4.03502 2.6298 4.08802 2.5786 4.15892C2.5275 4.22992 2.5 4.31512 2.5 4.40252V7.49162C2.5 7.55212 2.5132 7.61192 2.5387 7.66692C2.5641 7.72182 2.6013 7.77052 2.6475 7.80962C2.6937 7.84872 2.7478 7.87732 2.8062 7.89332C2.8646 7.90942 2.9257 7.91262 2.9854 7.90262L4.942 7.57482C5.0856 7.55082 5.233 7.57302 5.3632 7.63822L6.6418 8.27752C6.9841 8.44982 7.3572 8.55252 7.7395 8.57972C8.1217 8.60692 8.5056 8.55802 8.8688 8.43582L13.7985 6.79252C13.9449 6.74372 14.0799 6.66592 14.1955 6.56382C14.3111 6.46162 14.4049 6.33722 14.4713 6.19802C14.5378 6.05872 14.5754 5.90752 14.5821 5.75342C14.5888 5.59932 14.5643 5.44542 14.5102 5.30092H14.5101Z" fill="url(#paint1_linear_302_2179)"/>
<path d="M2.49863 3H1.66533C1.20503 3 0.832031 3.3731 0.832031 3.8333V7.5833C0.832031 8.0436 1.20503 8.4167 1.66533 8.4167H2.49863C2.95893 8.4167 3.33203 8.0436 3.33203 7.5833V3.8333C3.33203 3.3731 2.95893 3 2.49863 3Z" fill="url(#paint2_linear_302_2179)"/>
<path d="M17.1731 5.2708L11.81 4.0782C11.1501 3.9221 10.4565 4.0012 9.84865 4.302L8.22505 5.0463C7.84465 5.2372 7.51035 5.5086 7.24525 5.8417L6.26605 7.0743C6.21735 7.1356 6.18695 7.2095 6.17835 7.2874C6.16965 7.3652 6.18315 7.444 6.21725 7.5145C6.25125 7.5851 6.30455 7.6446 6.37095 7.6862C6.43725 7.7279 6.51405 7.75 6.59235 7.75H17.0824C17.1929 7.75 17.299 7.7062 17.3771 7.628C17.4553 7.5499 17.4992 7.444 17.4992 7.3335V5.6775C17.4992 5.5827 17.4668 5.4907 17.4075 5.4168C17.3482 5.3429 17.2656 5.2914 17.1731 5.2708Z" fill="url(#paint3_linear_302_2179)"/>
<path d="M14.1653 3H5.41533C4.95503 3 4.58203 3.3731 4.58203 3.8333V7.5834C4.58203 8.0436 4.95503 8.4167 5.41533 8.4167H14.1653C14.6255 8.4167 14.9986 8.0436 14.9986 7.5834V3.8333C14.9986 3.3731 14.6255 3 14.1653 3Z" fill="url(#paint4_linear_302_2179)"/>
<path d="M7.0833 7.33332H6.0417C5.9312 7.33332 5.8252 7.28942 5.747 7.21132C5.6689 7.13312 5.625 7.02712 5.625 6.91662V4.41662C5.625 4.30612 5.6689 4.20012 5.7471 4.12202C5.8252 4.04392 5.9312 4.00002 6.0417 4.00002H7.0833C7.1384 3.99942 7.193 4.00982 7.244 4.03052C7.295 4.05122 7.3414 4.08182 7.3806 4.12062C7.4197 4.15932 7.4507 4.20542 7.4719 4.25622C7.4931 4.30712 7.504 4.36162 7.504 4.41662C7.504 4.47172 7.4931 4.52622 7.4719 4.57702C7.4507 4.62782 7.4197 4.67402 7.3806 4.71272C7.3414 4.75142 7.295 4.78202 7.244 4.80272C7.193 4.82342 7.1384 4.83382 7.0833 4.83332H6.4583V6.50002H7.0833C7.1384 6.49942 7.193 6.50982 7.244 6.53052C7.295 6.55122 7.3414 6.58182 7.3806 6.62062C7.4197 6.65932 7.4507 6.70542 7.4719 6.75632C7.4931 6.80712 7.504 6.86162 7.504 6.91662C7.504 6.97172 7.4931 7.02622 7.4719 7.07702C7.4507 7.12782 7.4197 7.17402 7.3806 7.21272C7.3414 7.25142 7.295 7.28212 7.244 7.30282C7.193 7.32352 7.1384 7.33382 7.0833 7.33332Z" fill="url(#paint5_linear_302_2179)"/>
<path d="M12.4989 7.33332H13.5405C13.651 7.33332 13.757 7.28942 13.8352 7.21122C13.9133 7.13312 13.9572 7.02712 13.9572 6.91662V4.41662C13.9572 4.30612 13.9133 4.20022 13.8351 4.12202C13.757 4.04392 13.651 4.00002 13.5405 4.00002H12.4989C12.4438 3.99942 12.3892 4.00982 12.3382 4.03052C12.2872 4.05122 12.2407 4.08182 12.2016 4.12062C12.1625 4.15932 12.1314 4.20542 12.1103 4.25622C12.0891 4.30712 12.0781 4.36162 12.0781 4.41662C12.0781 4.47172 12.0891 4.52622 12.1103 4.57702C12.1314 4.62782 12.1625 4.67402 12.2016 4.71272C12.2407 4.75142 12.2872 4.78202 12.3382 4.80272C12.3892 4.82342 12.4438 4.83382 12.4989 4.83332H13.1239V6.50002H12.4989C12.4438 6.49942 12.3892 6.50982 12.3382 6.53052C12.2872 6.55122 12.2407 6.58182 12.2016 6.62062C12.1625 6.65932 12.1314 6.70542 12.1103 6.75632C12.0891 6.80712 12.0781 6.86162 12.0781 6.91662C12.0781 6.97172 12.0891 7.02622 12.1103 7.07702C12.1314 7.12782 12.1625 7.17402 12.2016 7.21272C12.2407 7.25142 12.2872 7.28212 12.3382 7.30282C12.3892 7.32352 12.4438 7.33382 12.4989 7.33332Z" fill="url(#paint6_linear_302_2179)"/>
<path d="M9.7917 7.3334C10.7122 7.3334 11.4584 6.5872 11.4584 5.6667C11.4584 4.7462 10.7122 4 9.7917 4C8.8712 4 8.125 4.7462 8.125 5.6667C8.125 6.5872 8.8712 7.3334 9.7917 7.3334Z" fill="url(#paint7_linear_302_2179)"/>
<path d="M17.0842 3H13.9592C13.8737 3 13.7902 3.0264 13.7202 3.0754C13.6501 3.1245 13.5968 3.1939 13.5675 3.2742L13.2675 4.0996C13.1928 4.3035 13.0666 4.4844 12.9011 4.6249C12.7356 4.7653 12.5365 4.8605 12.3232 4.901L9.57706 5.4158C9.36056 5.4561 9.16686 5.5758 9.03406 5.7515C8.90126 5.9272 8.83886 6.1462 8.85926 6.3655C8.87966 6.5849 8.98136 6.7886 9.14426 6.9368C9.30716 7.0851 9.51966 7.167 9.73986 7.1666H14.0505C14.461 7.1672 14.8669 7.0806 15.2413 6.9124L17.2541 6.014C17.3276 5.9812 17.39 5.9278 17.4338 5.8603C17.4776 5.7928 17.5009 5.714 17.5009 5.6335V3.4166C17.5009 3.3061 17.4569 3.2002 17.3788 3.122C17.3007 3.0439 17.1947 3 17.0842 3Z" fill="url(#paint8_linear_302_2179)"/>
<path d="M18.3347 3H17.5014C17.0411 3 16.668 3.3731 16.668 3.8333V7.5834C16.668 8.0436 17.0411 8.4167 17.5014 8.4167H18.3347C18.795 8.4167 19.168 8.0436 19.168 7.5834V3.8333C19.168 3.3731 18.795 3 18.3347 3Z" fill="url(#paint9_linear_302_2179)"/>
<defs>
<linearGradient id="paint0_linear_302_2179" x1="8.95703" y1="1.9777" x2="8.95703" y2="7.7752" gradientUnits="userSpaceOnUse">
<stop stop-color="#FED200"/>
<stop offset="1" stop-color="#F59815"/>
</linearGradient>
<linearGradient id="paint1_linear_302_2179" x1="8.542" y1="3.21342" x2="8.542" y2="8.43692" gradientUnits="userSpaceOnUse">
<stop stop-color="#F1D2BD"/>
<stop offset="1" stop-color="#FEB592"/>
</linearGradient>
<linearGradient id="paint2_linear_302_2179" x1="2.08203" y1="2.9893" x2="2.08203" y2="8.3841" gradientUnits="userSpaceOnUse">
<stop stop-color="#34CA82"/>
<stop offset="1" stop-color="#37A477"/>
</linearGradient>
<linearGradient id="paint3_linear_302_2179" x1="3437.82" y1="74.7147" x2="3437.82" y2="658.437" gradientUnits="userSpaceOnUse">
<stop stop-color="#F1D2BD"/>
<stop offset="1" stop-color="#FEB592"/>
</linearGradient>
<linearGradient id="paint4_linear_302_2179" x1="1205.05" y1="564.423" x2="3133.47" y2="2253.7" gradientUnits="userSpaceOnUse">
<stop stop-color="#34CA82"/>
<stop offset="1" stop-color="#37A477"/>
</linearGradient>
<linearGradient id="paint5_linear_302_2179" x1="4.1395" y1="4.44142" x2="14.1213" y2="9.48883" gradientUnits="userSpaceOnUse">
<stop stop-color="#37AA79"/>
<stop offset="1" stop-color="#398A70"/>
</linearGradient>
<linearGradient id="paint6_linear_302_2179" x1="274.459" y1="228.628" x2="832.087" y2="387.577" gradientUnits="userSpaceOnUse">
<stop stop-color="#37AA79"/>
<stop offset="1" stop-color="#398A70"/>
</linearGradient>
<linearGradient id="paint7_linear_302_2179" x1="422.125" y1="333.916" x2="1267.49" y2="777.493" gradientUnits="userSpaceOnUse">
<stop stop-color="#37AA79"/>
<stop offset="1" stop-color="#398A70"/>
</linearGradient>
<linearGradient id="paint8_linear_302_2179" x1="2925.44" y1="81.5703" x2="2925.44" y2="730.137" gradientUnits="userSpaceOnUse">
<stop stop-color="#F1D2BD"/>
<stop offset="1" stop-color="#FEB592"/>
</linearGradient>
<linearGradient id="paint9_linear_302_2179" x1="1163.33" y1="145.188" x2="1163.33" y2="960.079" gradientUnits="userSpaceOnUse">
<stop stop-color="#34CA82"/>
<stop offset="1" stop-color="#37A477"/>
</linearGradient>
</defs>
</svg>
