<svg width="150" height="145" viewBox="0 0 150 145" fill="none" xmlns="http://www.w3.org/2000/svg">
<path opacity="0.7" fill-rule="evenodd" clip-rule="evenodd" d="M55.0902 123.566C54.4934 116.221 53.1986 108.315 50.0354 101.642C46.2781 93.7168 39.9009 89.2044 32.9183 85.4565C23.9468 80.6425 13.9827 77.0223 5.12571 71.7228C1.83582 69.7576 1.01695 67.4416 0.645812 66.4427C-0.291407 63.9174 -0.115652 61.6641 0.580991 59.685C1.40181 57.3389 3.20181 54.2943 7.82773 53.2074C8.48951 53.0529 9.47922 52.8866 10.7596 52.9381C11.698 52.9772 14.5009 53.5862 15.6987 53.6817C18.6505 53.9086 21.5794 54.2208 24.5166 54.5642C34.2924 55.7058 42.4948 57.0481 52.2984 55.0502C65.6069 52.3404 74.3644 48.4074 79.6835 41.3305C84.8275 34.4876 86.7219 25.1747 87.4706 12.8308C87.4993 11.6449 87.5636 10.481 87.668 9.33989C88.1524 3.93865 92.8974 -0.0861699 98.3512 0.277733C103.801 0.640669 107.96 5.26099 107.716 10.6769C107.665 11.8073 107.607 12.9192 107.531 14.0143C107.207 30.8775 116.343 52.929 125.799 66.8461C128.715 71.1364 138.046 78.7637 143.504 85.464C147.529 90.4083 149.729 95.3462 149.973 99.0662C150.14 101.56 149.5 103.455 148.674 104.941C147.475 107.1 145.695 108.683 143.29 109.621C141.975 110.131 140.302 110.483 138.327 110.338C137.377 110.267 135.073 109.675 134.033 109.394C130.304 109.473 126.596 109.795 122.864 109.757C113.962 109.666 107.564 112.429 99.2626 115.525C91.4934 118.419 86.0548 122.301 80.8178 128.718C80.3285 129.604 76.376 136.751 74.5633 139.164C71.91 142.688 68.7419 143.861 67.1249 144.162C64.3813 144.676 62.2253 144.23 60.5169 143.528C57.996 142.49 56.0736 140.732 54.8258 138.186C54.049 136.609 53.4737 134.407 53.6327 131.707C53.7511 129.62 54.9264 124.311 55.0902 123.566ZM53.6311 75.0839C54.5231 74.9412 55.4248 74.7765 56.3407 74.5904C75.8327 70.6214 88.0058 63.6239 95.7951 53.2557L96.0519 52.9064C99.7643 62.2156 104.359 70.9706 109.133 77.9976C111.098 80.8909 115.632 85.2349 120.237 89.8498C110.044 90.221 102.12 93.1524 92.1946 96.8483C84.6183 99.6746 78.5569 103.134 73.0885 107.912C71.9732 102.78 70.4016 97.7486 68.2219 93.1503C64.5916 85.4945 59.5476 79.73 53.6311 75.0839Z" fill="#FF7C68"/>
</svg>
