<svg width="60" height="60" viewBox="0 0 60 60" fill="none" xmlns="http://www.w3.org/2000/svg">
<g clip-path="url(#clip0_267_428)">
<path d="M33.5697 8.41139C26.2243 6.44335 18.645 10.8183 16.6764 18.1648C15.7228 21.7235 16.2123 25.4407 18.0545 28.6314C19.8966 31.8221 22.8711 34.1045 26.4298 35.0581C27.6182 35.3765 28.8242 35.5341 30.0223 35.5341C32.4124 35.5341 34.7711 34.9071 36.8964 33.6802C40.0872 31.838 42.3696 28.8635 43.3231 25.3048C45.2915 17.9584 40.9162 10.38 33.5697 8.41139ZM41.5119 24.8196C40.688 27.8946 38.7159 30.4648 35.9588 32.0564C33.2018 33.6483 29.9898 34.071 26.9149 33.2471C23.8399 32.4232 21.2697 30.4511 19.6781 27.694C18.0863 24.9371 17.6635 21.7251 18.4875 18.6501C19.9126 13.3313 24.7404 9.81506 30.0025 9.81506C31.0207 9.81506 32.0554 9.94678 33.0845 10.2225C39.4323 11.9235 43.2128 18.4717 41.5119 24.8196ZM49.3473 17.0911C49.1368 16.7739 49.0534 16.4629 49.077 16.0828L49.2787 12.848C49.3681 11.4123 48.6235 10.1226 47.3355 9.48225L44.4334 8.03956C44.0923 7.86999 43.8645 7.64217 43.695 7.30116L42.2524 4.39924C41.6121 3.11124 40.3244 2.36604 38.8865 2.45592L35.6519 2.6576C35.2718 2.68174 34.9609 2.59795 34.6434 2.38725L31.9429 0.595337C30.7442 -0.200015 29.255 -0.200132 28.0566 0.595337L25.3561 2.38737C25.0388 2.59795 24.7286 2.68174 24.3475 2.6576L21.1129 2.45604C19.6787 2.36686 18.3874 3.11112 17.7471 4.39913L16.3044 7.30127C16.1348 7.64229 15.907 7.8701 15.566 8.03967L12.6638 9.48237C11.3758 10.1227 10.6312 11.4124 10.7206 12.8482L10.9223 16.0828C10.946 16.463 10.8627 16.774 10.6521 17.0914L8.86027 19.7916C8.0648 20.9903 8.0648 22.4796 8.86027 23.6781L10.6522 26.3786C10.8628 26.6959 10.9461 27.0069 10.9224 27.3871L10.7209 30.6217C10.6312 32.0575 11.3759 33.3471 12.6639 33.9876L15.5661 35.4303C15.9071 35.5998 16.1349 35.8276 16.3045 36.1687L17.7472 39.0708C17.9461 39.4706 18.2075 39.818 18.5162 40.1045L12.278 53.4823C12.108 53.8469 12.1896 54.2794 12.4807 54.557C12.772 54.8348 13.2078 54.8953 13.5639 54.7083L21.4393 50.5669L23.3289 59.2617C23.4144 59.6548 23.7412 59.9496 24.1411 59.9943C24.1761 59.9981 24.2109 60.0001 24.2455 60.0001C24.6064 60.0001 24.9397 59.7917 25.0947 59.4589L29.9997 48.9398L34.9047 59.4587C35.0599 59.7915 35.393 60 35.754 60C35.7886 60 35.8234 59.9981 35.8584 59.9942C36.2582 59.9495 36.585 59.6548 36.6705 59.2616L38.5603 50.5668L46.4355 54.7082C46.7918 54.8957 47.2276 54.8346 47.5188 54.5569C47.8099 54.2793 47.8916 53.8467 47.7214 53.4822L41.4829 40.1036C41.7918 39.8174 42.0535 39.4704 42.2523 39.0706L43.695 36.1684C43.8645 35.8274 44.0923 35.5996 44.4334 35.43L47.3355 33.9873C48.6235 33.347 49.3681 32.0573 49.2787 30.6215L49.077 27.3869C49.0534 27.0067 49.1368 26.6957 49.3474 26.3783L51.1392 23.678C51.9347 22.4793 51.9347 20.9899 51.1392 19.7915L49.3473 17.0911ZM24.5707 56.1461L23.0098 48.9642C22.9477 48.6782 22.7553 48.4375 22.4899 48.3137C22.2245 48.1899 21.9166 48.1974 21.6574 48.3335L15.1524 51.7542L20.1894 40.9523C20.4867 41.0105 20.7957 41.0336 21.1129 41.0137L24.3475 40.812C24.7285 40.7885 25.0387 40.8717 25.3561 41.0823L28.0565 42.8742C28.6559 43.272 29.3278 43.4708 29.9997 43.4707C30.1663 43.4707 30.3329 43.4583 30.4984 43.4339L24.5707 56.1461ZM44.847 51.7544L38.3422 48.3337C38.0828 48.1975 37.775 48.19 37.5097 48.3139C37.2443 48.4376 37.052 48.6782 36.9897 48.9644L35.4289 56.1462L31.0341 46.7216L33.2247 42.0239L34.6435 41.0824C34.9607 40.872 35.2709 40.7876 35.6518 40.8122L38.8866 41.0139C39.2034 41.0332 39.5123 41.0098 39.8095 40.9512L44.847 51.7544ZM49.5768 22.6415L47.7852 25.3418C47.3458 26.0036 47.1563 26.7108 47.2058 27.5037L47.4075 30.7383C47.4498 31.4183 47.111 32.0053 46.5009 32.3085L43.5988 33.7513C42.8875 34.105 42.3699 34.6226 42.0161 35.3338L40.5733 38.236C40.2702 38.8459 39.6835 39.1858 39.0034 39.1425L35.7685 38.9408C34.9752 38.8907 34.2684 39.0809 33.6069 39.5201L30.9064 41.312C30.3386 41.6885 29.6611 41.6888 29.0933 41.312L26.3928 39.5202C25.7993 39.1262 25.1693 38.9331 24.4735 38.9331C24.3935 38.9331 24.3127 38.9356 24.2309 38.9407L20.9963 39.1424C20.3163 39.1855 19.7293 38.8459 19.4261 38.2358L17.9833 35.3337C17.6296 34.6225 17.112 34.1049 16.4008 33.7511L13.4987 32.3083C12.8886 32.0051 12.5497 31.4181 12.5922 30.7382L12.7938 27.5035C12.8431 26.7107 12.6537 26.0036 12.2146 25.3418L10.4227 22.6412C10.046 22.0736 10.046 21.3959 10.4227 20.8281L12.2146 18.1276C12.6537 17.4659 12.8431 16.7587 12.7938 15.9659L12.5921 12.7313C12.5498 12.0512 12.8886 11.4642 13.4987 11.1611L16.4008 9.71827C17.112 9.3646 17.6296 8.84698 17.9834 8.13577L19.4262 5.2335C19.7295 4.62366 20.3159 4.28569 20.9963 4.32717L24.2311 4.52874C25.0238 4.57819 25.7308 4.3887 26.3927 3.94959L29.0934 2.15756C29.6609 1.78081 30.3389 1.78081 30.9064 2.15756L33.6069 3.94948C34.2688 4.38858 34.9754 4.57901 35.7686 4.52874L39.0032 4.32706C39.6841 4.28405 40.2702 4.62366 40.5734 5.23362L42.0162 8.13577C42.3699 8.84698 42.8875 9.3646 43.5988 9.71838L46.5009 11.1612C47.111 11.4644 47.4499 12.0514 47.4075 12.7312L47.2058 15.966C47.1563 16.7589 47.3458 17.466 47.785 18.1276L49.5768 20.8282C49.9535 21.396 49.9535 22.0737 49.5768 22.6415ZM30.8482 12.5169C30.6937 12.188 30.363 11.978 29.9997 11.978C29.6364 11.978 29.3057 12.188 29.1513 12.5169L26.6599 17.8197L20.8469 18.5503C20.4864 18.5957 20.1846 18.8453 20.0723 19.1909C19.96 19.5364 20.0575 19.9158 20.3226 20.1644L24.5959 24.1724L23.4945 29.9268C23.4262 30.2837 23.5702 30.6478 23.8643 30.8615C24.158 31.075 24.549 31.0996 24.8675 30.9243L29.9997 28.0984L35.1322 30.924C35.2735 31.0019 35.4291 31.0403 35.5842 31.0403C35.7785 31.0403 35.972 30.9799 36.1353 30.8612C36.4293 30.6477 36.5734 30.2835 36.505 29.9265L35.4037 24.1722L39.677 20.1641C39.942 19.9156 40.0395 19.5362 39.9273 19.1906C39.815 18.8451 39.5131 18.5955 39.1527 18.5501L33.3397 17.8194L30.8482 12.5169ZM33.7446 23.1578C33.5102 23.3776 33.4047 23.7022 33.4651 24.0178L34.2883 28.3192L30.4518 26.2071C30.3111 26.1297 30.1554 26.0909 29.9997 26.0909C29.8441 26.0909 29.6884 26.1297 29.5476 26.2071L25.7111 28.3192L26.5344 24.0178C26.5948 23.7022 26.4893 23.3776 26.2549 23.1578L23.0606 20.1618L27.4059 19.6156C27.7248 19.5755 28.0007 19.3749 28.1374 19.084L29.9997 15.1201L31.8621 19.0839C31.9987 19.3748 32.2747 19.5754 32.5936 19.6155L36.9389 20.1617L33.7446 23.1578Z" fill="#FE762A"/>
</g>
<defs>
<clipPath id="clip0_267_428">
<rect width="60" height="60" fill="white"/>
</clipPath>
</defs>
</svg>
