<svg xmlns="http://www.w3.org/2000/svg" viewBox="0 0 318 400" width="318" height="400"><path fill="#FFF" d="M0 0h318v400H0z"/><g transform="translate(0.0 41.0) rotate(0.0 159.0 159.0) scale(0.5608109538018751 0.5608109538018751)"><svg width="567.036" height="567.036" viewBox="0 0 567.036 567.036"><clipPath id="a"><path d="M283.518 3C128.592 3 3 128.592 3 283.518 3 390.03 62.362 482.676 149.807 530.179c0 0 79.077 27.105 106.343 32.539 8.872 1.768 18.135 1.318 27.369 1.318 154.926 0 280.518-125.592 280.518-280.518S438.444 3 283.518 3z"/></clipPath><circle cx="283.518" cy="283.518" fill="#177267" r="280.518"/><path d="M283.518 567.036c-75.73 0-146.928-29.491-200.477-83.041C29.491 430.446 0 359.248 0 283.518S29.491 136.59 83.041 83.04C136.59 29.491 207.787 0 283.518 0s146.928 29.491 200.478 83.041 83.041 124.747 83.041 200.478-29.491 146.928-83.041 200.478-124.747 83.041-200.478 83.041zm0-561.036C130.494 6 6 130.494 6 283.518s124.494 277.518 277.518 277.518 277.518-124.494 277.518-277.518S436.542 6 283.518 6z" fill="#0b122d"/><g clip-path="url(#a)"><path d="M269.699 563.701s81.993 23.275 165.716-27.206c64.832-39.09 89.415-84.456 78.298-88.96-49.486-20.053-101.057-15.553-127.803-14.863 0 0-136.28 6.817-158.691 11.464-18.082 3.749-43.686 9.428-64.798 18.078-5.055 2.071-41.719 14.055-61.204 35.198 0 0 46.354 37.981 96.73 53.329 17.437 5.313 71.752 12.96 71.752 12.96z" fill="#ee83f9"/><path d="M101.216 500.413a3 3 0 0 1-2.205-5.033c17.918-19.442 49.418-31.146 59.77-34.992 1.136-.422 1.989-.738 2.503-.948 20.443-8.376 44.495-13.92 65.327-18.24 22.381-4.641 153.576-11.244 159.15-11.522 2.884-.075 5.972-.19 9.303-.314 28.021-1.043 74.917-2.786 119.777 15.393a3 3 0 0 1 1.653 3.907 2.998 2.998 0 0 1-3.907 1.654c-43.669-17.695-89.763-15.982-117.301-14.958-3.356.125-6.466.24-9.299.313-1.288.065-136.229 6.855-158.159 11.402-20.563 4.264-44.28 9.727-64.27 17.917-.552.226-1.468.567-2.688 1.021-10.018 3.722-40.504 15.049-57.448 33.434a2.99 2.99 0 0 1-2.207.967z" fill="#0b122d"/><path d="M249.22 527.376c-40.619-18.587-94.237-76.265-24.415-123.972 70.449-48.136 255.453-33.722 225.642 29.198-26.92 56.817-121.796 92.177-172.156 93.604" fill="#ee83f9"/><path d="M249.218 530.377c-.417 0-.842-.087-1.247-.272-26.942-12.329-57.142-39.683-59.781-70.609-1.857-21.761 9.892-41.467 34.921-58.569 25.841-17.657 69.644-28.549 117.173-29.138 46.09-.578 86.083 8.804 104.418 24.466 12.241 10.456 15.164 23.469 8.454 37.632-12.276 25.909-40.223 50.41-78.694 68.989-32.028 15.468-68.846 25.556-96.087 26.329-1.639.032-3.037-1.257-3.084-2.914a3 3 0 0 1 2.914-3.084c52.07-1.476 144-38.005 169.53-91.889 5.501-11.612 3.17-21.874-6.929-30.5-35.473-30.301-158.761-32.892-214.31 5.064-23.111 15.791-33.988 33.658-32.328 53.105 2.327 27.259 30.083 53.667 56.299 65.663a3 3 0 0 1-1.25 5.729z" fill="#0b122d"/><path d="M250.772 453.135c-7.831 14.78 2.528 55.123 22.788 54.151 28.257-1.356 86.761-22.795 102.427-64.625l-7.959-95.153-125.215 10.474z" fill="#ffcebd"/><path d="M272.821 510.304c-7.207 0-13.724-4.278-18.896-12.424-8.568-13.493-11.359-34.336-6.212-45.33l-7.89-94.318a3 3 0 0 1 2.74-3.24l125.215-10.474a3.005 3.005 0 0 1 3.24 2.74l7.959 95.153c.037.442-.025.887-.18 1.302-9.086 24.261-31.056 40.083-47.887 49.083-18.395 9.837-40.85 16.701-57.206 17.486-.295.014-.59.021-.882.021zm-26.769-149.583 7.709 92.164a3 3 0 0 1-.339 1.655c-4.656 8.786-1.95 28.286 5.567 40.124 2.901 4.568 7.741 9.945 14.426 9.626 26.108-1.253 83.762-21.326 99.524-62.058l-7.652-91.484-119.236 9.974z" fill="#0b122d"/><path d="M315.773 93.247c-39.827-24.454-125.769-25.929-171.733 34.371-46.76 61.344-18.113 105.312-43.938 131.503-20.731 21.025-72.257 84.805-14.332 119.383-6.596-23.063 1.27-46.243 14.245-58.141 0 0 1.69 60.988 44.645 58.094 108.155-7.289 131.729-164.96 109.993-255.215l61.12-29.994z" fill="#fdf151"/><path d="M141.735 381.557c-9.697 0-18.089-3.167-24.984-9.436-13.629-12.393-17.863-33.682-19.166-44.683-8.839 11.346-14.676 30.157-8.932 50.242a3.001 3.001 0 0 1-4.422 3.401c-16.376-9.776-25.694-22.666-27.694-38.31-4.593-35.928 30.548-74.722 41.428-85.756 10.308-10.454 11.302-24.21 12.561-41.626 1.735-23.997 3.895-53.863 31.127-89.589 21.026-27.584 53.051-45.386 90.174-50.125 31.179-3.981 63.947 1.774 85.515 15.017a2.999 2.999 0 0 1-.248 5.25l-58.975 28.941c7.284 31.764 8.856 70.466 4.295 106.643-3.706 29.4-13.184 71.334-37.289 104.147-20.704 28.183-47.708 43.585-80.264 45.779a46.62 46.62 0 0 1-3.126.107zm-41.72-64.194a3 3 0 0 1 2.999 2.915c.009.321 1.115 32.271 17.787 47.415 6.369 5.785 14.329 8.401 23.657 7.771 30.71-2.07 56.224-16.653 75.832-43.345 39.906-54.322 45.986-147.801 31.445-208.175a3 3 0 0 1 1.595-3.396l56.023-27.492c-41.934-21.933-120.658-19.073-162.928 36.381-26.149 34.304-28.237 63.181-29.914 86.384-1.295 17.91-2.413 33.377-14.273 45.406-7.402 7.507-44.107 46.685-39.749 80.783 1.496 11.7 7.785 21.72 18.726 29.863-3.725-22.856 5.543-43.424 16.772-53.721a2.998 2.998 0 0 1 2.027-.789z" fill="#0b122d"/><path d="M369.829 363.261c21.783-26.317 36.648-59.282 42.457-97.886 14.94-99.28-107.059-207.19-203.656-141.583-70.745 48.049-98.236 172.572-77.178 235.999 19.637 59.145 87.825 83.472 149.001 63.328a210.976 210.976 0 0 0 24.411-9.742" fill="#ffcebd"/><path d="M237.309 433.132c-16.622 0-32.94-3.06-48.057-9.161-29.527-11.917-51.066-34.374-60.648-63.234-10.636-32.035-9.054-80.142 4.129-125.548 14.803-50.986 41.158-91.429 74.21-113.878 21.386-14.524 44.777-21.426 69.517-20.505 22.208.824 44.923 8.17 65.692 21.242 50.953 32.071 81.013 91.193 73.1 143.774-5.769 38.333-20.274 71.76-43.113 99.353a3 3 0 1 1-4.622-3.826c22.133-26.74 36.197-59.18 41.801-96.419 7.569-50.297-21.365-106.964-70.363-137.804-42.844-26.968-89.732-27.278-128.641-.851-31.899 21.666-57.406 60.94-71.82 110.587-12.862 44.301-14.469 91.043-4.196 121.985 18.333 55.219 82.121 82.199 145.216 61.424a208.705 208.705 0 0 0 24.064-9.603 3 3 0 1 1 2.571 5.421 214.79 214.79 0 0 1-24.758 9.881c-14.514 4.779-29.417 7.162-44.083 7.162z" fill="#0b122d"/><path d="m254.652 123.241 61.12-29.994c-39.827-24.454-122.603-25.695-168.331 30.124" fill="#fdf151"/><path d="M147.44 126.372a3 3 0 0 1-2.319-4.901c21.044-25.688 52.423-42.111 88.356-46.244 30.945-3.558 62.297 2.222 83.865 15.464a2.999 2.999 0 0 1-.248 5.25l-61.121 29.994a3.001 3.001 0 0 1-2.643-5.387l56.019-27.49c-20.033-10.442-48.231-14.974-75.186-11.871-34.376 3.954-64.35 19.611-84.4 44.086a2.994 2.994 0 0 1-2.323 1.099z" fill="#0b122d"/><path d="M375.25 303.427c-15.217.693-8.375-27.423-24.361-56.521s-48.954-107.195-96.237-123.665c0 0 27.011-21.623 61.12-29.994 17.555-4.309 89.557-10.934 119.927 45.827 39.279 73.411 12.139 100.182 44.245 145.819 47.223 67.126 4.875 145.556-60.622 129.166 0 0-58.638 28.758-86.878-2.302 32.572-11.884 36.551-35.275 37.99-55.424 2.47-34.586 4.816-52.906 4.816-52.906z" fill="#fdf151"/><path d="M369.579 429.271c-14.241 0-28.704-3.781-39.355-15.496a3 3 0 0 1 1.192-4.837c30.56-11.15 34.554-32.207 36.026-52.82 1.874-26.249 3.699-43.313 4.46-49.948-7.971-1.688-9.857-11.089-12.173-22.634-2.015-10.043-4.523-22.543-11.47-35.187-2.393-4.355-5.115-9.704-8.266-15.897-17.651-34.689-47.195-92.748-86.328-106.379a3 3 0 0 1-.888-5.175c1.124-.9 27.923-22.133 62.281-30.566 9.538-2.341 32.167-4.978 56.473-.013 30.47 6.223 53.574 22.592 66.814 47.338 20.654 38.602 23.169 64.233 25.389 86.847 1.966 20.037 3.665 37.34 18.664 58.662 12.735 18.102 19.856 38.203 20.595 58.13.678 18.289-4.169 35.966-13.647 49.777-15.792 23.009-41.785 32.737-69.698 26.151-5.067 2.358-27.28 12.044-50.069 12.045zm-31.736-16.422c27.471 23.864 79.614-1.217 80.159-1.483a2.99 2.99 0 0 1 2.048-.216c25.78 6.452 49.835-2.323 64.349-23.47 19.255-28.056 16.543-67.725-6.908-101.06-15.909-22.614-17.679-40.647-19.728-61.528-2.165-22.056-4.618-47.055-24.708-84.602-28.158-52.627-95.275-49.554-116.567-44.329-25.319 6.214-46.896 20.063-55.712 26.288 38.783 17.311 67.259 73.273 84.565 107.283 3.128 6.147 5.83 11.457 8.177 15.729 7.39 13.45 9.998 26.45 12.094 36.896 2.726 13.585 4.161 18.33 9.501 18.073a3.034 3.034 0 0 1 2.343.964 3 3 0 0 1 .77 2.414c-.023.183-2.366 18.656-4.8 52.739-1.473 20.621-5.635 43.506-35.583 56.302z" fill="#0b122d"/><path d="M363.008 311.146c8.286-15.338 26.485-23.236 43.8-17.948 19.747 6.031 30.867 26.928 24.836 46.675s-26.928 30.867-46.675 24.836a37.209 37.209 0 0 1-17.31-11.237" fill="#ffcebd"/><path d="M395.939 369.359c-3.964 0-7.948-.59-11.847-1.78a40.277 40.277 0 0 1-18.7-12.141 3 3 0 0 1 4.533-3.931 34.301 34.301 0 0 0 15.919 10.333c8.784 2.683 18.087 1.784 26.196-2.531 8.108-4.314 14.051-11.528 16.734-20.313 5.538-18.133-4.71-37.392-22.844-42.93-15.6-4.764-32.543 2.177-40.284 16.504a3 3 0 0 1-5.279-2.851c9.093-16.833 28.992-24.987 47.315-19.391 21.298 6.504 33.333 29.123 26.83 50.42-3.151 10.317-10.131 18.79-19.654 23.857-5.925 3.153-12.394 4.752-18.92 4.752z" fill="#0b122d"/><path d="M275.585 275.406c-10.097-6.083-20.767-9.157-33.805-12.275-8.36-1.999-7.65-11.585 4.707-15.457 11.614-3.639 33.018 3.573 38.993 14.593 6.233 11.496-1.654 18.103-9.895 13.139z" fill="#fdf151"/><path d="M281.065 280.073c-2.273 0-4.702-.696-7.028-2.098-9.315-5.611-19.137-8.623-32.955-11.927-4.699-1.124-7.706-4.355-7.846-8.433-.147-4.273 3.021-9.88 12.354-12.805 12.365-3.872 35.65 3.342 42.527 16.026 4.288 7.909 2.604 13.795-.4 16.666-1.788 1.709-4.124 2.57-6.651 2.57zm-3.932-7.237c2.527 1.522 5.055 1.651 6.439.33 1.338-1.279 1.95-4.526-.729-9.469-5.431-10.017-25.457-16.295-35.459-13.16-5.702 1.787-8.223 4.815-8.151 6.873.063 1.845 2.291 2.576 3.245 2.804 14.391 3.441 24.675 6.61 34.655 12.623z" fill="#0b122d"/><path d="M187.601 252.404c-11.635-1.891-22.683-.777-35.946 1.178-8.504 1.253-11.41-7.908-1.379-16.099 9.428-7.698 31.979-8.963 41.623-.955 10.061 8.354 5.198 17.419-4.299 15.876z" fill="#fdf151"/><g fill="#0b122d"><path d="M150.15 256.696c-3.902 0-7.059-1.841-8.477-5.056-1.726-3.912-.87-10.295 6.706-16.481 10.035-8.193 34.335-10.157 45.437-.939 6.921 5.747 7.548 11.836 5.827 15.619-1.946 4.277-6.86 6.447-12.523 5.526-10.733-1.745-20.97-.887-35.027 1.185-.664.098-1.313.146-1.943.146zm22.711-22.635c-8.005 0-16.255 2.126-20.687 5.745-4.628 3.779-5.842 7.528-5.011 9.412.746 1.689 3.085 1.538 4.055 1.396 14.638-2.158 25.364-3.042 36.864-1.171 2.911.471 5.306-.347 6.1-2.089.767-1.685.127-4.927-4.199-8.518-3.98-3.304-10.466-4.774-17.122-4.774z"/><ellipse cx="249.065" cy="288.967" rx="9.133" ry="7.671" transform="matrix(.15998456 -.98711952 .98711952 .15998456 -76.026 488.593)"/><ellipse cx="169.306" cy="277.774" rx="9.133" ry="7.671" transform="matrix(.15998456 -.98711952 .98711952 .15998456 -131.977 400.46)"/><path d="M243.774 359.806c-3.999 0-8.214-.609-12.582-1.949a3.002 3.002 0 0 1-1.988-3.749 3.004 3.004 0 0 1 3.749-1.988c17.982 5.521 32.834-3.437 38.209-15.135a3 3 0 1 1 5.453 2.505c-5.138 11.182-17.358 20.315-32.84 20.315zm142.719-17.266a3 3 0 0 1-1.687-5.483l20.501-13.912a3 3 0 1 1 3.369 4.965l-20.501 13.912a2.987 2.987 0 0 1-1.682.518z"/><path d="M403.548 347.748a3 3 0 0 1-2.631-1.554l-13.339-24.247a3 3 0 1 1 5.257-2.893l13.339 24.247a3 3 0 0 1-2.625 4.447z"/></g><path d="M296.691 139.834c32.121-.98 58.077 32.322 58.279 77.505.149 33.327-51.35 29.841-56.673-4.189-3.276-20.948-15.784-50.237-15.784-50.237s-6.848 33.741-14.252 42.615c-13.131 15.74-70.383.641-74.809-15.747-2.934-10.865 9.257-39.364 9.257-39.364s-28.95 38.437-39.322 43.63c-10.897 5.456-27.1-3.753-21.284-24.769 9.16-33.098 51.984-72.176 76.169-46.613 32.351-13.96 59.891-12.676 78.418 17.169z" fill="#fdf151"/><path d="M331.016 243.583c-15.673 0-32.672-10.716-35.684-29.971-2.088-13.352-8.094-30.387-12.009-40.599-2.65 10.977-7.423 28.04-12.758 34.436-9.654 11.573-34.765 7.133-42.233 5.496-16.788-3.679-34.979-12.027-37.776-22.382-1.536-5.688.413-15.08 2.938-23.503-9.456 11.682-22.159 26.362-28.763 29.669-6.325 3.167-14.017 2.252-19.593-2.335-6.781-5.576-8.94-15.022-5.925-25.917 6.931-25.044 30.8-50.684 52.123-55.989 10.633-2.643 20.137-.353 27.621 6.628 35.947-14.942 61.943-9.147 79.37 17.696 12.867.063 24.975 5.238 35.12 15.034 15.466 14.934 24.404 38.8 24.523 65.478.065 14.702-9.461 24.967-24.27 26.152-.888.071-1.784.106-2.683.106zm-48.501-83.671c1.191 0 2.282.709 2.757 1.822.517 1.21 12.692 29.875 15.989 50.952 2.646 16.919 18.332 25.907 31.96 24.811 9.104-.728 18.81-6.402 18.749-20.145-.112-25.069-8.382-47.372-22.69-61.188-9.407-9.083-20.649-13.686-32.497-13.331a3.033 3.033 0 0 1-2.64-1.416c-16.109-25.949-39.839-31.032-74.681-15.997a2.997 2.997 0 0 1-3.368-.693c-6.208-6.561-14.049-8.719-23.31-6.415-19.144 4.763-41.475 28.953-47.788 51.767-2.354 8.505-.913 15.68 3.954 19.682 3.747 3.081 8.887 3.711 13.095 1.604 7.99-4 30.334-32.218 38.269-42.752a3 3 0 0 1 5.154 2.984c-3.276 7.663-11.301 29.321-9.119 37.402 1.767 6.541 16.069 14.316 33.268 18.086 17.173 3.765 31.438 2.399 36.341-3.479 5.675-6.803 11.752-32.112 13.615-41.29a3 3 0 0 1 2.941-2.404zM419.323 417.06a3.001 3.001 0 0 1-1.134-5.779c23.008-9.384 28.292-36.227 28.342-36.497a3.004 3.004 0 0 1 3.498-2.398 2.999 2.999 0 0 1 2.401 3.493c-.228 1.233-5.884 30.316-31.976 40.958a2.995 2.995 0 0 1-1.132.223zm-165.212 77.996a3.001 3.001 0 0 1-2.726-1.743c-17.592-38.098-14.945-51.818-14.823-52.384a2.996 2.996 0 0 1 3.563-2.304 3 3 0 0 1 2.304 3.563c-.013.077-2.069 12.934 14.404 48.609a3 3 0 0 1-2.722 4.258zm41.512-77.572c-11.875 5.825-37.846 11.646-46.82 12.11l1.499 17.916c20.907-4.196 33.015-14.051 45.321-30.026z" fill="#0b122d"/><path d="M250.301 450.51a3 3 0 0 1-2.99-2.75l-1.499-17.916a3.001 3.001 0 0 1 2.835-3.246c8.151-.421 33.87-6.027 45.654-11.807a3 3 0 0 1 3.698 4.524c-11.86 15.395-24.41 26.581-47.108 31.136a3.027 3.027 0 0 1-.59.059zm1.739-18.197.964 11.528c14.564-3.523 24.229-10.102 32.824-19.34-11.365 3.702-25.603 6.841-33.789 7.812z" fill="#0b122d"/></g><path d="M283.518 567.036c-75.73 0-146.928-29.491-200.477-83.041C29.491 430.446 0 359.248 0 283.518S29.491 136.59 83.041 83.04C136.59 29.491 207.787 0 283.518 0s146.928 29.491 200.478 83.041 83.041 124.747 83.041 200.478-29.491 146.928-83.041 200.478-124.747 83.041-200.478 83.041zm0-561.036C130.494 6 6 130.494 6 283.518s124.494 277.518 277.518 277.518 277.518-124.494 277.518-277.518S436.542 6 283.518 6z" fill="#0b122d"/></svg></g></svg>