<svg xmlns="http://www.w3.org/2000/svg" viewBox="0 0 636 566" width="636" height="566"><path fill="#FFF" d="M0 0h636v566H0z"/><g transform="translate(609.0 80.0) rotate(0.0 -108.0 103.0) scale(-0.5556870452884941 0.5577697872893472)"><svg width="388.708" height="369.328" viewBox="0 0 388.708 369.328"><path d="M219.442 200.817 93.455 237.354c-38.418 11.141-78.5-11.416-88.913-50.038l-1.31-4.858c-10.416-38.636 12.916-78.295 51.747-87.959L182.276 62.82c37.778-9.401 76.132 13.162 86.266 50.751 10.137 37.603-11.696 76.399-49.1 87.246z" fill="#fff"/><path d="M73.427 240.971c-12.234 0-24.323-3.144-35.298-9.321-17.037-9.588-29.222-25.263-34.311-44.139l-1.31-4.858c-5.09-18.882-2.433-38.563 7.483-55.419 9.917-16.856 25.829-28.74 44.807-33.463l127.296-31.679c18.463-4.594 37.662-1.812 54.061 7.836 16.398 9.647 28.157 25.078 33.11 43.448 4.954 18.377 2.542 37.633-6.792 54.219-9.334 16.587-24.542 28.641-42.822 33.942L93.664 238.074a72.569 72.569 0 0 1-20.237 2.897zM199.64 61.431c-5.728 0-11.49.7-17.183 2.117L55.161 95.227c-18.583 4.625-34.166 16.262-43.876 32.767-9.71 16.506-12.313 35.778-7.328 54.268l1.31 4.858c4.983 18.483 16.915 33.833 33.598 43.222 16.682 9.389 35.996 11.622 54.381 6.291l125.987-36.537.209.72-.209-.72c17.9-5.191 32.792-16.995 41.933-33.237s11.503-35.098 6.651-53.093c-4.85-17.989-16.364-33.099-32.422-42.546-11.001-6.472-23.292-9.789-35.755-9.789z" fill="#177267"/><path d="M122.192 261.966c10.667-21.874 94.859-43.577 113.056-16.051s14.946 64.289-6.247 96.191c-23.021 34.654-45.53 35.17-80.317 2.217-24.221-22.943-35.583-63.715-26.492-82.357z" fill="#fff"/><path d="M192.482 369.328c-12.594 0-26.79-7.86-44.313-24.46-23.211-21.987-36.412-63.213-26.651-83.23 6.463-13.254 40.382-27.155 71.163-29.165 21.374-1.398 36.716 3.231 43.193 13.029 17.907 27.087 15.513 64.263-6.248 97.02-11.167 16.81-21.908 25.268-33.803 26.618-1.1.125-2.215.188-3.341.188zm-70.29-107.362.674.329c-8.542 17.517 1.299 57.77 26.333 81.484 18.745 17.756 33.509 25.348 46.454 23.87 11.422-1.297 21.82-9.545 32.723-25.958 21.421-32.246 23.814-68.787 6.246-95.362-6.168-9.329-21.025-13.715-41.844-12.359-30.326 1.98-63.648 15.48-69.912 28.325z" fill="#177267"/><path d="M291.135 157.409c-4.404 20.519-22.771 52.873-37.69 63.965-10.389 7.724 1.47 14.736 24.278 7.663 33.855-10.499 55.702-38.473 56.476-58.324.918-23.517-39.009-32.2-43.064-13.304z" fill="#fff"/><path d="M260.87 232.724c-6.242 0-10.28-1.643-11.541-4.127-.702-1.382-1.159-4.236 3.669-7.826 14.274-10.612 32.802-42.076 37.404-63.52 1.673-7.794 9.544-11.977 20.061-10.653 12.267 1.544 25.018 10.53 24.487 24.143-.785 20.122-22.802 48.405-57.003 59.011-6.729 2.087-12.497 2.972-17.077 2.972zm46.046-84.849c-6.566 0-13.498 2.468-15.048 9.691-4.662 21.723-23.473 53.626-37.976 64.409-2.881 2.142-4.057 4.308-3.227 5.942 1.589 3.129 10.966 5.323 26.835.402 33.576-10.412 55.184-38.025 55.949-57.637.496-12.72-11.57-21.136-23.175-22.596a27.148 27.148 0 0 0-3.358-.211zm-15.781 9.534h.01z" fill="#177267"/><path d="m328.534 124.788-1.953-1.409c-9.444-6.814-11.577-19.995-4.762-29.439l1.409-1.953c6.814-9.444 19.995-11.577 29.439-4.762l1.953 1.409c9.444 6.814 11.577 19.995 4.762 29.439l-1.409 1.953c-6.814 9.444-19.994 11.577-29.439 4.762z" fill="#fff"/><path d="M340.826 129.53c-4.548 0-8.97-1.419-12.731-4.133l-1.953-1.409c-9.765-7.045-11.977-20.721-4.932-30.486l1.409-1.953a21.698 21.698 0 0 1 14.222-8.78 21.688 21.688 0 0 1 16.265 3.848l1.953 1.409a21.696 21.696 0 0 1 8.78 14.222 21.703 21.703 0 0 1-3.848 16.265l-1.409 1.953a21.696 21.696 0 0 1-14.222 8.78c-1.18.189-2.362.284-3.534.284zm-11.853-5.35a20.192 20.192 0 0 0 15.147 3.583 20.2 20.2 0 0 0 13.245-8.177l1.409-1.953c3.179-4.405 4.452-9.785 3.584-15.147s-3.771-10.066-8.177-13.244l-1.953-1.409a20.206 20.206 0 0 0-15.147-3.584 20.207 20.207 0 0 0-13.245 8.177l-1.409 1.953c-6.562 9.094-4.501 21.831 4.593 28.392z" fill="#177267"/><path d="M320.324 87.536c.827-3.997 12.34-30.947 5.16-78.695-1.923-12.789 10.969-8.688 12.864.379 3.048 14.585 5.614 62.882-3.48 76.903-9.095 14.021-16.554 11.128-14.544 1.413z" fill="#fff"/><path d="M323.733 96.502a4.26 4.26 0 0 1-1.628-.314c-2.466-1.013-3.43-4.386-2.516-8.804.108-.523.361-1.329.743-2.549 2.644-8.438 10.69-34.119 4.41-75.882C323.661 1.766 327.08.355 328.6.082c3.831-.688 9.249 3.086 10.482 8.985 3.279 15.692 5.409 63.598-3.585 77.465-4.154 6.403-8.413 9.97-11.764 9.97zm5.831-95.005c-.24 0-.473.02-.699.061-2.301.413-3.263 3.027-2.64 7.171 6.331 42.105-1.792 68.033-4.462 76.554-.355 1.135-.612 1.955-.706 2.404-.747 3.611-.112 6.403 1.617 7.113 2.068.847 6.333-1.023 11.563-9.086 3.846-5.929 6.038-19.367 6.173-37.837.116-15.934-1.319-31.431-2.798-38.504-.97-4.647-4.992-7.876-8.048-7.876zm-9.24 86.039h.01z" fill="#177267"/><path d="M353.039 45.725c-6.821 9.474-14.761 28.65-16.042 37.642s4.514 13.939 14.021-1.137c8.842-14.021 12.108-22.439 14.905-30.063 3.469-9.454-8.114-13.066-12.884-6.442z" fill="#fff"/><path d="M340.548 92.626c-.51 0-.942-.094-1.296-.224-2.482-.912-3.659-4.5-2.998-9.142 1.364-9.576 9.528-28.741 16.176-37.975 2.923-4.059 7.912-4.442 11.125-2.735 2.709 1.438 4.939 4.787 3.073 9.875-2.986 8.139-6.378 16.573-14.975 30.205-5.189 8.229-8.887 9.996-11.105 9.996zm13.1-46.462c-6.989 9.706-14.717 28.948-15.908 37.31-.549 3.852.267 6.875 2.029 7.522.922.338 4.408.676 10.615-9.165 8.518-13.508 11.878-21.861 14.835-29.921 1.303-3.552.418-6.555-2.368-8.033-2.649-1.407-6.776-1.085-9.203 2.287z" fill="#177267"/><path d="M372.102 58.469c-9.251 7.12-20.983 21.411-24.788 29.657-3.806 8.247.327 14.648 13.758 2.932 12.492-10.897 16.659-16.221 21.526-22.723 6.034-8.062-4.028-14.844-10.496-9.866z" fill="#fff"/><path d="M349.472 98.209c-1.211 0-2.041-.369-2.589-.78-2.116-1.585-2.214-5.36-.25-9.617 4.003-8.674 15.924-22.943 25.012-29.938 3.965-3.052 8.854-1.984 11.442.569 2.184 2.154 3.359 6.002.112 10.34-5.167 6.904-9.464 12.224-21.633 22.839-5.953 5.193-9.742 6.587-12.094 6.587zm23.087-39.146c-8.935 6.876-20.643 20.879-24.564 29.378-1.63 3.532-1.716 6.662-.213 7.788.785.588 4.028 1.914 12.797-5.736 12.057-10.518 16.309-15.78 21.418-22.607 2.267-3.029 2.281-6.159.036-8.374-2.136-2.107-6.183-2.981-9.474-.449z" fill="#177267"/><path d="M376.636 78.348c-9.207 6.265-14.915 10.932-21.373 18.449-5.918 6.89.154 12.866 8.315 8.172 7.846-4.513 15.749-9.523 21.674-15.077 7.347-6.887-1.867-16.136-8.616-11.544z" fill="#fff"/><path d="M358.062 107.393c-2.13 0-3.799-.809-4.786-2-1.515-1.83-1.938-5.178 1.418-9.085 6.841-7.964 12.841-12.674 21.52-18.581 3.914-2.663 8.468-1.051 10.766 1.818 2.058 2.57 2.975 6.965-1.216 10.894-6.446 6.043-15.043 11.287-21.812 15.18-2.183 1.256-4.184 1.774-5.89 1.774zm18.996-28.425c-8.572 5.833-14.494 10.48-21.226 18.318-2.299 2.677-2.836 5.417-1.4 7.151 1.376 1.662 4.623 2.27 8.772-.117 6.699-3.853 15.201-9.037 21.535-14.975 3.44-3.224 2.809-6.692 1.071-8.861-1.878-2.344-5.583-3.674-8.752-1.516zm-130.423-.552c-17.023-14.888-40.802-21.458-64.359-15.596L54.98 94.499a71.647 71.647 0 0 0-15.392 5.786c-14.962 12.707-22.62 35.681-10.76 60.604 13.691 28.769 36.005 31.108 70.295 18.134 32.617-12.341 103.351-30.533 132.009-35.723 25.32-4.587 33.508-44.887 15.503-64.884z" fill="#177267"/><path d="M65.596 187.329c-3.384 0-6.539-.331-9.507-.987-12.016-2.656-21.155-10.876-27.938-25.131-13.057-27.437-2.261-50.276 10.952-61.498a.813.813 0 0 1 .143-.096 72.613 72.613 0 0 1 15.553-5.846l127.296-31.679c22.92-5.703 47.231.188 65.034 15.759.022.02.044.041.063.062 9.647 10.715 12.578 28.305 7.292 43.772-4.201 12.292-12.664 20.439-23.219 22.351-28.453 5.154-98.854 23.192-131.877 35.688-13.506 5.11-24.505 7.605-33.792 7.605zm-25.589-86.416c-16.811 14.329-20.934 37.733-10.502 59.653 12.602 26.481 32.696 31.626 69.352 17.755 33.095-12.522 103.635-30.597 132.141-35.76 10.004-1.812 18.047-9.598 22.067-21.36 5.11-14.953 2.313-31.924-6.958-42.25-17.431-15.225-41.222-20.982-63.65-15.402L55.161 95.227a71.04 71.04 0 0 0-15.154 5.686z" fill="#177267"/><ellipse cx="114.453" cy="124.986" fill="#52fffe" rx="13.263" ry="22.358" transform="matrix(.9996 -.0297 .0297 .9996 -3.6562 3.4492)"/><ellipse cx="171.912" cy="109.149" fill="#52fffe" rx="13.263" ry="22.358" transform="matrix(.8819 -.4713 .4713 .8819 -31.1523 93.9155)"/><path d="M231.816 248.699c-1.149-4.049-3.331-7.722-6.179-10.877-20.779-10.245-61.445-2.847-85.48 9.352 11.166 2.287 19.269 7.799 25.893 12.776 22.708 17.062 37.758 31.408 48.907 29.059 11.149-2.348 21.454-24.121 16.859-40.31z" fill="#177267"/><path d="M212.479 290.011c-8.899 0-19.905-8.572-34.62-20.032-3.885-3.025-7.901-6.154-12.261-9.429-6.549-4.921-14.467-10.362-25.592-12.641a.752.752 0 0 1-.189-1.404c25.016-12.697 65.603-19.486 86.15-9.355.085.042.162.1.225.17 3.07 3.401 5.205 7.161 6.344 11.174 2.617 9.219.643 21.245-5.03 30.637-3.57 5.911-7.972 9.68-12.396 10.611-.855.182-1.733.269-2.631.269zm-70.099-43.102c9.859 2.444 17.412 7.402 24.12 12.442 4.369 3.283 8.391 6.416 12.281 9.445 15.881 12.369 27.36 21.31 36.021 19.48 3.955-.833 8.118-4.448 11.422-9.919 5.467-9.053 7.379-20.614 4.87-29.453-1.063-3.749-3.055-7.271-5.918-10.472-16-7.783-52.633-6.145-82.796 8.477z" fill="#177267"/><path d="M353.039 45.725c-6.821 9.474-14.761 28.65-16.042 37.642s4.514 13.939 14.021-1.137c8.842-14.021 12.108-22.439 14.905-30.063 3.469-9.454-8.114-13.066-12.884-6.442z" fill="#fff"/><path d="M340.548 92.626c-.51 0-.942-.094-1.296-.224-2.482-.912-3.659-4.5-2.998-9.142 1.364-9.576 9.528-28.741 16.176-37.975 2.923-4.059 7.912-4.442 11.125-2.735 2.709 1.438 4.939 4.787 3.073 9.875-2.986 8.139-6.378 16.573-14.975 30.205-5.189 8.229-8.887 9.996-11.105 9.996zm13.1-46.462c-6.989 9.706-14.717 28.948-15.908 37.31-.549 3.852.267 6.875 2.029 7.522.922.338 4.408.676 10.615-9.165 8.518-13.508 11.878-21.861 14.835-29.921 1.303-3.552.418-6.555-2.368-8.033-2.649-1.407-6.776-1.085-9.203 2.287z" fill="#177267"/><path d="M372.102 58.469c-9.251 7.12-20.983 21.411-24.788 29.657-3.806 8.247.327 14.648 13.758 2.932 12.492-10.897 16.659-16.221 21.526-22.723 6.034-8.062-4.028-14.844-10.496-9.866z" fill="#fff"/><path d="M349.472 98.209c-1.211 0-2.041-.369-2.589-.78-2.116-1.585-2.214-5.36-.25-9.617 4.003-8.674 15.924-22.943 25.012-29.938 3.965-3.052 8.854-1.984 11.442.569 2.184 2.154 3.359 6.002.112 10.34-5.167 6.904-9.464 12.224-21.633 22.839-5.953 5.193-9.742 6.587-12.094 6.587zm23.087-39.146c-8.935 6.876-20.643 20.879-24.564 29.378-1.63 3.532-1.716 6.662-.213 7.788.785.588 4.028 1.914 12.797-5.736 12.057-10.518 16.309-15.78 21.418-22.607 2.267-3.029 2.281-6.159.036-8.374-2.136-2.107-6.183-2.981-9.474-.449z" fill="#177267"/><path d="M358.062 107.393c-2.13 0-3.799-.809-4.786-2-1.515-1.83-1.938-5.178 1.418-9.085 6.841-7.964 12.841-12.674 21.52-18.581 3.914-2.663 8.468-1.051 10.766 1.818 2.058 2.57 2.975 6.965-1.216 10.894-6.446 6.043-15.043 11.287-21.812 15.18-2.183 1.256-4.184 1.774-5.89 1.774zm18.996-28.425c-8.572 5.833-14.494 10.48-21.226 18.318-2.299 2.677-2.836 5.417-1.4 7.151 1.376 1.662 4.623 2.27 8.772-.117 6.699-3.853 15.201-9.037 21.535-14.975 3.44-3.224 2.809-6.692 1.071-8.861-1.878-2.344-5.583-3.674-8.752-1.516z" fill="#177267"/><path d="M319.994 122.778c-5.24-3.924-15.586-16.136-15.586-22.985 0-7.913 20.862-20.468 29.811-23.752 6.217-2.282 7.878 6.747 3.756 12.866-2.332 3.462-10.871 9.16-16.126 10.886 4.538 3.028 12.511 9.233 11.864 16.669-.505 5.81-8.997 9.853-13.719 6.316z" fill="#fff"/><g fill="#177267"><path d="M324.244 124.845c-1.757 0-3.401-.493-4.701-1.467-5.455-4.085-15.886-16.449-15.886-23.585 0-8.297 21.046-21.059 30.302-24.456 2.284-.839 4.263-.379 5.573 1.292 2.259 2.881 1.839 8.577-.937 12.697-2.182 3.239-9.665 8.446-15.129 10.667 7.67 5.41 11.464 11.107 10.993 16.533-.264 3.033-2.515 5.851-5.876 7.354-1.439.645-2.926.965-4.339.965zm-3.801-2.667c1.908 1.429 4.793 1.557 7.528.334 2.864-1.281 4.778-3.625 4.995-6.115.562-6.473-5.961-12.263-11.534-15.98a.75.75 0 0 1 .182-1.337c5.162-1.695 13.545-7.338 15.738-10.592 2.646-3.928 2.653-8.825 1-10.934-.901-1.149-2.203-1.421-3.876-.809-4.011 1.472-11.38 5.244-18.083 10.046-7.246 5.191-11.236 9.809-11.236 13.002.001 6.427 9.917 18.364 15.286 22.385zm20.606-83.855c-.357-12.179-1.49-23.306-2.701-29.103-1.895-9.067-14.787-13.168-12.864-.379 1.729 11.494 2.366 21.771 2.338 30.824 4.04-3.602 9.409-4.441 13.227-1.342z"/><path d="M327.822 40.415a.751.751 0 0 1-.75-.753c.031-9.891-.753-20.224-2.33-30.711C323.661 1.764 327.08.353 328.6.08c3.837-.688 9.249 3.086 10.482 8.985 1.313 6.286 2.38 17.761 2.716 29.234a.749.749 0 0 1-1.222.604c-3.373-2.738-8.297-2.208-12.255 1.32a.74.74 0 0 1-.499.192zm1.742-38.918c-.24 0-.473.02-.699.06-2.301.413-3.263 3.027-2.64 7.172 1.505 10.01 2.293 19.883 2.345 29.373 3.809-2.752 8.216-3.212 11.682-1.232-.378-10.89-1.397-21.558-2.639-27.497-.971-4.647-4.993-7.876-8.049-7.876zm20.867 64.87a10.295 10.295 0 0 0-8.014-.383c-2.74 6.668-4.818 13.153-5.42 17.383-1.281 8.992 4.514 13.939 14.021-1.137a196.813 196.813 0 0 0 5.077-8.496c-.598-3.103-2.596-5.895-5.664-7.367z"/><path d="M340.548 92.626c-.51 0-.942-.094-1.296-.224-2.482-.912-3.659-4.5-2.998-9.142.59-4.139 2.583-10.54 5.469-17.562a.749.749 0 0 1 .437-.419 10.999 10.999 0 0 1 8.595.411c3.188 1.53 5.404 4.41 6.077 7.902a.75.75 0 0 1-.083.51 196.36 196.36 0 0 1-5.097 8.528c-5.188 8.229-8.886 9.996-11.104 9.996zm2.435-26.045c-2.772 6.789-4.679 12.931-5.243 16.892-.549 3.852.267 6.875 2.029 7.522.922.338 4.408.676 10.615-9.165 1.79-2.838 3.401-5.53 4.92-8.22-.641-2.901-2.523-5.285-5.198-6.568a9.49 9.49 0 0 0-7.123-.461z"/><path d="M356.406 74.424c-4.01 4.989-7.368 9.966-9.093 13.702-3.806 8.247.327 14.648 13.758 2.932a242.141 242.141 0 0 0 6.538-5.898c.634-3.01-.256-6.267-2.656-8.534-2.366-2.236-5.61-2.952-8.547-2.202z"/><path d="M349.472 98.209c-1.211 0-2.041-.37-2.589-.78-2.116-1.585-2.214-5.36-.25-9.617 1.696-3.675 4.959-8.596 9.189-13.857a.755.755 0 0 1 .399-.257 9.849 9.849 0 0 1 9.248 2.383c2.517 2.377 3.591 5.829 2.875 9.234a.753.753 0 0 1-.221.392 240.165 240.165 0 0 1-6.558 5.916c-5.953 5.193-9.742 6.586-12.093 6.586zm7.359-23.116c-4.078 5.093-7.212 9.827-8.836 13.348-1.63 3.532-1.716 6.662-.213 7.788.785.587 4.028 1.913 12.797-5.736a243.044 243.044 0 0 0 6.342-5.715 8.329 8.329 0 0 0-2.482-7.607 8.352 8.352 0 0 0-7.608-2.078z"/><path d="M371.266 92.213c-1.726-2.682-4.678-4.088-7.649-3.975-2.876 2.558-5.544 5.288-8.353 8.559-5.918 6.89.154 12.866 8.315 8.172a206.249 206.249 0 0 0 8.574-5.183 8.67 8.67 0 0 0-.887-7.573z"/><path d="M358.062 107.393c-2.13 0-3.799-.808-4.786-2-1.515-1.83-1.938-5.177 1.418-9.084 2.828-3.292 5.504-6.034 8.424-8.63a.755.755 0 0 1 .47-.189c3.322-.127 6.513 1.527 8.309 4.318a9.387 9.387 0 0 1 .964 8.227.752.752 0 0 1-.303.384c-2.548 1.635-5.364 3.336-8.606 5.201-2.183 1.254-4.184 1.773-5.89 1.773zm5.848-18.411c-2.789 2.497-5.361 5.142-8.078 8.304-2.299 2.677-2.836 5.417-1.4 7.15 1.376 1.662 4.623 2.27 8.772-.117a208.328 208.328 0 0 0 8.321-5.021 7.89 7.89 0 0 0-.89-6.68 7.98 7.98 0 0 0-6.688-3.637l-.037.001zm8.243 10.805h.01zm-37.935-23.746c-4.856 1.782-13.217 6.296-19.852 11.315-.281 4.679 1.283 9.828 7.482 12.437 5.255-1.726 13.794-7.424 16.126-10.886 4.123-6.119 2.461-15.148-3.756-12.866z"/><path d="M321.849 100.543a.753.753 0 0 1-.291-.059c-5.492-2.312-8.311-6.991-7.939-13.174a.748.748 0 0 1 .296-.553c6.85-5.182 15.269-9.667 20.046-11.42l.258.704-.258-.704c2.282-.838 4.262-.379 5.573 1.292 2.259 2.881 1.839 8.578-.937 12.698-2.373 3.523-11.016 9.374-16.514 11.179a.748.748 0 0 1-.234.037zm-6.751-12.799c-.15 3.792.961 8.669 6.783 11.247 5.179-1.796 13.316-7.303 15.471-10.502 2.646-3.928 2.653-8.825 1-10.934-.901-1.15-2.206-1.422-3.875-.809-4.608 1.69-12.698 5.994-19.379 10.998z"/></g></svg></g><g transform="translate(204.0 156.0) rotate(0.0 93.5 65.0) scale(0.555492843945128 0.560707353892603)"><svg width="336.638" height="231.85" viewBox="0 0 336.638 231.85"><path d="m306.582 95.335-33.858 56.343 56.352-17.661 6.812-40.953zM106.038 231.1l-29.497-35.613 19.801-26.765 91.216-13.109 85.166-3.935-58.463 39.711-51.283 1.317z" fill="#22DA49"/><path d="M76.541 195.487.75 159.159l96.957-42.367-1.365 51.93z" fill="#52fffe"/><path d="m69.03 14.406 7.101 36.052-61.725 36.598zm28.677 102.386L14.406 87.056.75 159.159zm-1.365 51.93 91.222-13.109-89.857-38.821zm176.382-17.044-85.16 3.935 68.051-34.514 3.506-76.104 47.461 50.34z" fill="#fff"/><path d="M197.664 99.553 149.19 57.149l47.877-25.81V.75l94.282 26.766-32.228 17.479z" fill="#fff"/><path d="m69.03 14.406 7.101 36.052-61.725 36.598 83.301 29.736 89.857 38.821 68.051-34.514 3.506-76.104-61.457 54.558-48.474-42.404 47.877-25.81V.75zm266.858 78.658-29.306 2.271-47.461-50.34 32.228-17.479z" fill="#52fffe"/><g fill="#177267"><path d="M106.038 231.85a.75.75 0 0 1-.578-.271l-29.392-35.486L.426 159.836a.75.75 0 0 1-.413-.816l13.656-72.104a.745.745 0 0 1 .137-.311l54.624-72.65a.75.75 0 0 1 .52-.295L196.988.004a.736.736 0 0 1 .284.024l94.282 26.766a.75.75 0 0 1 .416.3l44.539 65.548a.753.753 0 0 1 .12.544l-6.813 40.953a.748.748 0 0 1-.515.592l-56.125 17.674-58.495 39.604a.752.752 0 0 1-.402.129l-51.059 1.229-56.763 38.354a.75.75 0 0 1-.419.128zM1.594 158.732l75.271 36.079a.74.74 0 0 1 .253.198l29.063 35.089 56.382-38.096a.748.748 0 0 1 .402-.128l51.058-1.229 58.403-39.542a.747.747 0 0 1 .195-.094l55.79-17.568 6.688-40.203-44.217-65.075-93.88-26.652L69.433 15.117l-54.322 72.25z"/><path d="M.75 159.909a.751.751 0 0 1-.301-1.438l96.801-42.299 51.372-59.514a.76.76 0 0 1 .212-.17l47.483-25.598V.75a.75.75 0 0 1 1.5 0v30.589a.749.749 0 0 1-.394.66l-47.755 25.745-51.393 59.539a.747.747 0 0 1-.268.197L1.05 159.847a.762.762 0 0 1-.3.063z"/><path d="M255.615 121.849a.761.761 0 0 1-.263-.047l-57.783-21.597a.767.767 0 0 1-.23-.137L148.88 57.875l-72.818-6.669a.75.75 0 0 1-.667-.602l-7.101-36.052a.75.75 0 0 1 1.472-.29l6.993 35.501 72.5 6.64a.751.751 0 0 1 .424.182l48.54 42.263 57.655 21.549a.75.75 0 0 1-.263 1.452z"/><path d="M187.564 156.364a.739.739 0 0 1-.297-.062l-89.856-38.821-83.257-29.718a.75.75 0 0 1-.131-1.351l61.725-36.598a.75.75 0 0 1 .764 1.29L16.161 86.888l81.797 29.199 89.743 38.771 84.707-3.863 33.237-55.641-46.913-49.674-61.828-13.606c-.405-.089-.66-.489-.571-.894s.487-.664.894-.571l62.054 13.656a.748.748 0 0 1 .384.217l47.461 50.254c.23.244.271.612.099.9l-33.735 56.475a.748.748 0 0 1-.61.364l-85.283 3.89h-.034z"/><path d="M96.342 169.472a.752.752 0 0 1-.75-.77l1.366-51.93c.01-.415.388-.773.769-.73a.75.75 0 0 1 .73.769l-1.342 51.042 90.22-12.965 118.908-60.309a.74.74 0 0 1 .284-.079l29.306-2.185c.407-.028.773.279.804.692s-.279.773-.692.804l-29.156 2.174-118.884 60.296a.736.736 0 0 1-.233.073L96.45 169.463a.756.756 0 0 1-.106.008z"/><path d="M76.54 196.237a.75.75 0 0 1-.603-1.196l19.801-26.765a.751.751 0 0 1 .856-.26l66.088 23.703 24.171-36.392 10.241-55.96a.749.749 0 0 1 .239-.425l61.289-54.506a.776.776 0 0 1 .141-.099l32.228-17.479a.75.75 0 0 1 .715 1.319l-32.152 17.438-61.031 54.277-10.222 55.858a.769.769 0 0 1-.113.28l-24.581 37.01a.748.748 0 0 1-.878.291l-66.116-23.713-19.47 26.317a.749.749 0 0 1-.604.304z"/><path d="M255.616 121.849h-.035a.75.75 0 0 1-.714-.784l3.506-76.104a.75.75 0 1 1 1.498.07l-3.506 76.104a.75.75 0 0 1-.749.715z"/><circle cx="97.669" cy="116.792" r="5.053"/><circle cx="96.342" cy="168.722" r="5.053"/><circle cx="162.978" cy="192.706" r="5.053"/><circle cx="187.558" cy="155.613" r="5.053"/><circle cx="197.664" cy="99.553" r="5.053"/><circle cx="255.615" cy="121.099" r="5.053"/><circle cx="306.582" cy="95.335" r="5.053"/><circle cx="272.724" cy="151.678" r="5.053"/><circle cx="259.121" cy="44.995" r="5.053"/><circle cx="197.067" cy="31.339" r="5.053"/><circle cx="149.288" cy="57.185" r="5.053"/><circle cx="75.946" cy="50.592" r="5.053"/></g></svg></g><g transform="translate(250.0 12.0) rotate(-25.64040071904871 37.0 39.5) scale(0.5627034096784986 0.5624697405519323)"><svg width="131.508" height="140.452" viewBox="0 0 131.508 140.452"><path d="M27.473 70.039.75 63.871v-28.6l26.723 6.15z" fill="#fff"/><path d="M27.473 70.789a.749.749 0 0 1-.169-.019L.581 64.602A.75.75 0 0 1 0 63.871v-28.6a.749.749 0 0 1 .918-.731l26.723 6.15a.75.75 0 0 1 .582.731v28.618a.749.749 0 0 1-.75.75zM1.5 63.275l25.223 5.822V42.019L1.5 36.213z" fill="#177267"/><path d="m54.229 76.214-26.756-6.175V41.421l26.756 6.158z" fill="#fff"/><path d="M54.229 76.964a.749.749 0 0 1-.169-.019L27.304 70.77a.75.75 0 0 1-.581-.731V41.421a.749.749 0 0 1 .918-.731l26.756 6.158a.75.75 0 0 1 .582.731v28.635a.749.749 0 0 1-.75.75zm-26.006-7.522 25.256 5.829V48.176l-25.256-5.813z" fill="#177267"/><path d="m81.018 82.397-26.789-6.183V47.579l26.789 6.166z" fill="#22DA49"/><g fill="#177267"><path d="M81.018 83.147a.749.749 0 0 1-.169-.019l-26.788-6.183a.75.75 0 0 1-.581-.731V47.579a.749.749 0 0 1 .918-.731l26.788 6.165a.75.75 0 0 1 .582.731v28.652a.749.749 0 0 1-.75.75zM54.98 75.618l25.288 5.837V54.342l-25.288-5.82zM27.473 98.657.75 92.472V63.871l26.723 6.168z"/><path d="M27.473 99.407a.749.749 0 0 1-.169-.019L.581 93.203A.75.75 0 0 1 0 92.472V63.871a.749.749 0 0 1 .919-.731l26.724 6.168a.75.75 0 0 1 .581.731v28.618a.749.749 0 0 1-.75.75zM1.5 91.876l25.223 5.838V70.636L1.5 64.814v27.061z"/></g><path d="m54.229 104.849-26.756-6.192V70.039l26.756 6.175z" fill="#22DA49"/><path d="M54.229 105.599a.749.749 0 0 1-.169-.019l-26.756-6.193a.75.75 0 0 1-.581-.731V70.038a.749.749 0 0 1 .919-.731l26.756 6.175a.75.75 0 0 1 .581.731v28.635a.749.749 0 0 1-.75.75zM28.223 98.06l25.256 5.845V76.81l-25.256-5.829z" fill="#177267"/><path d="m81.018 111.049-26.789-6.2V76.214l26.789 6.183z" fill="#52FFFE"/><path d="M81.018 111.8a.749.749 0 0 1-.169-.019l-26.788-6.2a.75.75 0 0 1-.581-.731V76.215a.749.749 0 0 1 .919-.731l26.788 6.183a.75.75 0 0 1 .581.731v28.652a.749.749 0 0 1-.75.75zm-26.038-7.546 25.288 5.853V82.995L54.98 77.158z" fill="#177267"/><path d="M27.473 127.275.75 121.072v-28.6l26.723 6.185z" fill="#52FFFE"/><path d="M27.473 128.025a.757.757 0 0 1-.17-.019L.58 121.803a.751.751 0 0 1-.58-.731v-28.6a.749.749 0 0 1 .919-.731l26.723 6.185a.75.75 0 0 1 .581.731v28.618a.749.749 0 0 1-.75.75zM1.5 120.477l25.223 5.854V99.253L1.5 93.415v27.061z" fill="#177267"/><path d="m54.229 133.485-26.756-6.21V98.657l26.756 6.192z" fill="#52FFFE"/><path d="M54.229 134.235a.757.757 0 0 1-.17-.019l-26.756-6.21a.75.75 0 0 1-.58-.731V98.657a.749.749 0 0 1 .919-.731l26.756 6.192a.75.75 0 0 1 .581.731v28.635a.749.749 0 0 1-.75.75zm-26.006-7.556 25.256 5.862v-27.095l-25.256-5.845z" fill="#177267"/><path d="m81.018 139.702-26.789-6.217v-28.636l26.789 6.2z" fill="#fff"/><path d="M81.018 140.452a.757.757 0 0 1-.17-.019l-26.788-6.217a.75.75 0 0 1-.58-.731V104.85a.749.749 0 0 1 .919-.731l26.788 6.2a.75.75 0 0 1 .581.731v28.652a.749.749 0 0 1-.75.75zm-26.038-7.563 25.288 5.869v-27.112l-25.288-5.853zM60.628 18.45l-26.795-6.18L50.403.75l26.804 6.188z" fill="#177267"/><path d="M60.629 19.2a.749.749 0 0 1-.169-.019l-26.795-6.18a.751.751 0 0 1-.26-1.347L49.975.134a.749.749 0 0 1 .597-.115l26.804 6.188a.751.751 0 0 1 .259 1.347L61.056 19.066a.75.75 0 0 1-.428.134zm-24.978-7.28 24.823 5.725L75.389 7.288l-24.83-5.732z" fill="#177267"/><path d="M87.402 24.625 60.628 18.45 77.207 6.938l26.782 6.183z" fill="#fff"/><path d="M87.402 25.375a.749.749 0 0 1-.169-.019L60.46 19.181a.751.751 0 0 1-.259-1.347L76.78 6.322a.75.75 0 0 1 .596-.115l26.782 6.183a.751.751 0 0 1 .259 1.347L87.829 25.24a.75.75 0 0 1-.427.134zM62.448 18.1l24.799 5.719 14.922-10.349-24.807-5.727-14.915 10.356z" fill="#177267"/><path d="m114.152 30.794-26.75-6.169 16.587-11.504 26.759 6.178z" fill="#52FFFE"/><path d="M114.152 31.544a.749.749 0 0 1-.169-.019l-26.751-6.169a.751.751 0 0 1-.259-1.347l16.588-11.504a.75.75 0 0 1 .596-.114l26.759 6.178a.751.751 0 0 1 .258 1.348l-16.596 11.495a.746.746 0 0 1-.427.133zm-24.93-7.269 24.776 5.714 14.929-10.341-24.783-5.722-14.922 10.348z" fill="#177267"/><path d="m44.069 29.949-26.787-6.172L33.833 12.27l26.795 6.18z" fill="#fff"/><path d="M44.069 30.699a.734.734 0 0 1-.168-.019l-26.787-6.171a.75.75 0 0 1-.26-1.347l16.551-11.507a.753.753 0 0 1 .597-.115l26.795 6.18a.751.751 0 0 1 .259 1.347l-16.56 11.499a.75.75 0 0 1-.428.134zM19.1 23.427l24.813 5.717 14.896-10.343-24.821-5.724L19.1 23.428z" fill="#177267"/><path d="m70.833 36.115-26.764-6.166L60.628 18.45l26.774 6.175z" fill="#22DA49"/><path d="M70.833 36.865a.734.734 0 0 1-.168-.019L43.901 30.68a.751.751 0 0 1-.259-1.347l16.56-11.499a.75.75 0 0 1 .596-.115l26.773 6.175a.751.751 0 0 1 .259 1.347l-16.568 11.49a.75.75 0 0 1-.427.134zm-24.945-7.267 24.79 5.711 14.903-10.335-24.797-5.719-14.895 10.343z" fill="#177267"/><path d="m97.575 42.276-26.742-6.161 16.569-11.49 26.75 6.169z" fill="#177267"/><path d="M97.575 43.026a.734.734 0 0 1-.168-.019l-26.742-6.161a.751.751 0 0 1-.259-1.347l16.568-11.49a.754.754 0 0 1 .596-.115l26.751 6.169a.751.751 0 0 1 .258 1.348L98.002 42.893a.746.746 0 0 1-.427.133zm-24.921-7.261 24.767 5.706 14.91-10.327-24.774-5.714-14.902 10.335z" fill="#177267"/><path d="M27.528 41.434.75 35.271l16.532-11.494 26.787 6.172z" fill="#22DA49"/><path d="M27.528 42.184a.734.734 0 0 1-.168-.019L.582 36.002a.75.75 0 0 1-.26-1.347l16.532-11.494a.746.746 0 0 1 .596-.115l26.787 6.171a.751.751 0 0 1 .259 1.347L27.955 42.049a.75.75 0 0 1-.428.134zM2.569 34.92l24.804 5.709 14.876-10.33-24.812-5.716L2.568 34.92z" fill="#177267"/><path d="m54.284 47.592-26.756-6.158 16.541-11.485 26.764 6.166z" fill="#52FFFE"/><path d="M54.284 48.342a.734.734 0 0 1-.168-.019L27.36 42.165a.75.75 0 0 1-.259-1.347l16.541-11.485a.75.75 0 0 1 .596-.115l26.764 6.166a.751.751 0 0 1 .259 1.347L54.712 48.208a.75.75 0 0 1-.427.134zm-24.936-7.259 24.781 5.703 14.883-10.322-24.788-5.711-14.876 10.329z" fill="#177267"/><path d="m81.018 53.745-26.734-6.153 16.549-11.477 26.742 6.161z" fill="#fff"/><path d="M81.018 54.495a.734.734 0 0 1-.168-.019l-26.734-6.153a.751.751 0 0 1-.259-1.347l16.549-11.477a.753.753 0 0 1 .596-.115l26.742 6.161a.751.751 0 0 1 .258 1.347L81.444 54.361a.746.746 0 0 1-.427.133zm-24.912-7.253 24.757 5.698 14.89-10.314-24.765-5.706-14.883 10.321z" fill="#177267"/><path d="M97.545 70.996 81.018 82.394V53.741l16.527-11.444z" fill="#177267"/><path d="M81.017 83.144a.747.747 0 0 1-.75-.75V53.74c0-.246.121-.477.323-.617l16.527-11.444a.75.75 0 0 1 1.177.616v28.7a.749.749 0 0 1-.324.617L81.443 83.01a.75.75 0 0 1-.426.133zm.75-29.011v26.833l15.027-10.364V43.728zm15.777 16.863h.01z" fill="#177267"/><path d="m114.125 59.562-16.58 11.434V42.297l16.58-11.481z" fill="#52FFFE"/><path d="M97.545 71.746a.747.747 0 0 1-.75-.75v-28.7c0-.246.121-.477.323-.617l16.58-11.48a.75.75 0 0 1 1.177.616v28.746a.749.749 0 0 1-.324.617l-16.58 11.435a.75.75 0 0 1-.426.133zm.75-29.057v26.878l15.08-10.4v-26.92zm15.83 16.872h.01z" fill="#177267"/><path d="m130.758 48.091-16.633 11.471V30.816l16.633-11.517z" fill="#22DA49"/><path d="M114.125 60.312a.747.747 0 0 1-.75-.75V30.816c0-.246.121-.477.323-.617l16.633-11.517a.75.75 0 0 1 1.177.616V48.09a.749.749 0 0 1-.324.617l-16.633 11.471a.75.75 0 0 1-.426.133zm.75-29.103v26.924l15.133-10.437V20.73zm15.883 16.881h.01z" fill="#177267"/><path d="m97.545 99.696-16.527 11.352V82.394l16.527-11.398z" fill="#fff"/><path d="M81.018 111.798a.751.751 0 0 1-.75-.75V82.394c0-.247.121-.477.324-.617l16.527-11.398a.751.751 0 0 1 1.175.617v28.7a.751.751 0 0 1-.325.618l-16.527 11.352a.753.753 0 0 1-.425.132zm.75-29.01v26.835l15.027-10.322V72.424zm15.777 16.908h.01z" fill="#177267"/><path d="m114.125 88.307-16.58 11.389v-28.7l16.58-11.434z" fill="#22DA49"/><path d="M97.545 100.446a.751.751 0 0 1-.75-.75v-28.7c0-.247.121-.477.324-.617l16.58-11.435a.751.751 0 0 1 1.175.617v28.745a.751.751 0 0 1-.325.618l-16.58 11.389a.753.753 0 0 1-.425.132zm.75-29.056v26.881l15.08-10.358V60.991l-15.08 10.4zm15.83 16.917h.01z" fill="#177267"/><path d="m130.758 76.882-16.633 11.425V59.562l16.633-11.471z" fill="#52FFFE"/><path d="M114.125 89.057a.751.751 0 0 1-.75-.75V59.562c0-.247.121-.477.324-.617l16.633-11.471a.751.751 0 0 1 1.175.617v28.792a.751.751 0 0 1-.325.618l-16.633 11.425a.753.753 0 0 1-.425.132zm.75-29.102v26.927l15.133-10.395V49.518zm15.883 16.927h.01z" fill="#177267"/><path d="m97.545 128.395-16.527 11.307v-28.654l16.527-11.352z" fill="#22DA49"/><path d="M81.017 140.452a.75.75 0 0 1-.75-.75v-28.654c0-.247.122-.478.325-.618l16.527-11.352a.749.749 0 0 1 1.175.619v28.7a.748.748 0 0 1-.327.619L81.44 140.322a.75.75 0 0 1-.424.131zm.75-29.009v26.837L96.794 128v-26.879zm15.777 16.953h.01z" fill="#177267"/><path d="m114.125 117.053-16.58 11.342V99.696l16.58-11.389z" fill="#177267"/><path d="M97.545 129.145a.75.75 0 0 1-.75-.75v-28.7c0-.247.122-.478.325-.618l16.58-11.389a.749.749 0 0 1 1.175.619v28.745a.748.748 0 0 1-.327.619l-16.58 11.343a.748.748 0 0 1-.423.131zm.75-29.055v26.883l15.08-10.316V89.732zm15.83 16.962h.01z" fill="#177267"/><path d="m130.758 105.674-16.633 11.379V88.307l16.633-11.425z" fill="#22DA49"/><path d="M114.125 117.803a.75.75 0 0 1-.75-.75V88.308c0-.247.122-.478.325-.618l16.633-11.425a.749.749 0 0 1 1.175.619v28.792a.748.748 0 0 1-.327.619l-16.633 11.379a.748.748 0 0 1-.423.131zm.75-29.101v26.929l15.133-10.353V78.307zm15.883 16.972h.01z" fill="#177267"/></svg></g><g transform="translate(199.0 59.0) rotate(27.9698396100472 -68.0 53.5) scale(-0.5601041134705039 0.5608466163127742)"><svg width="242.812" height="190.783" viewBox="0 0 242.812 190.783"><path d="M45.252 16.46c10.34 4.32 10.522 27.446.408 51.653-8.065 19.303-22.29 42.169-22.29 42.169l-14.744-6.16c-10.34-4.32-10.522-27.446-.408-51.653S34.912 12.141 45.252 16.46z" fill="#22DA49"/><path d="M23.37 111.033a.753.753 0 0 1-.289-.058l-14.744-6.16C-2.368 100.341-2.732 76.73 7.525 52.18s27.311-40.876 38.016-36.412c10.705 4.474 11.069 28.085.812 52.635-7.996 19.137-22.203 42.047-22.345 42.276a.751.751 0 0 1-.638.354zm18.214-94.538c-9.942 0-23.796 15.013-32.675 36.263-9.938 23.787-9.936 46.519.005 50.672l14.153 5.913c2.195-3.58 14.635-24.131 21.9-41.519 9.938-23.787 9.936-46.519-.005-50.672a8.68 8.68 0 0 0-3.378-.657zm20.436 5.616C76.018 11.189 104.338-.9 150.385 4.619c44.918 5.384 91.062 41.367 88.231 75.332-3.23 38.765-50.456 56.917-80.442 55.651l.293 2.486c31.112 1.314 80.113-17.521 83.465-57.743 2.937-35.242-44.941-72.577-91.547-78.164C102.608-3.544 73.224 9 58.699 20.332z" fill="#177267"/><path d="M161.594 138.905c-1.064 0-2.116-.022-3.157-.066a.75.75 0 0 1-.713-.661l-.293-2.486a.75.75 0 0 1 .777-.837c30.576 1.259 76.543-17.54 79.663-54.965 2.666-31.994-40.711-68.908-87.573-74.524-17.094-2.05-59.872-4.461-87.815 17.338a.747.747 0 0 1-.815.069l-3.321-1.778a.749.749 0 0 1-.107-1.252c6.127-4.785 16.94-11.374 33.648-15.61 17.27-4.379 36.981-5.283 58.587-2.695 22.875 2.742 46.472 12.994 64.741 28.128 18.845 15.612 28.856 34.143 27.464 50.843-1.933 23.195-18.302 37.293-31.694 45.034-14.569 8.423-33.198 13.461-49.392 13.462zm-2.456-1.541c31.733 1.062 78.832-18.488 82.048-57.08 2.767-33.21-42.252-71.526-90.889-77.355C132.742.823 89.088-1.65 60.078 20.22l1.867 1C67.918 16.637 78.239 10.468 94 6.473c16.648-4.221 35.648-5.095 56.475-2.599 22.052 2.644 44.799 12.526 62.411 27.115 18.17 15.052 27.821 32.921 26.479 49.024-1.864 22.367-17.647 35.96-30.56 43.424-14.699 8.499-33.685 13.399-49.782 12.946z" fill="#177267"/><path d="M242.042 78.179a37.374 37.374 0 0 1-.109 2.167c-3.352 40.222-52.353 59.056-83.465 57.743l-.293 23.287c29.985 1.265 83.758-23.196 83.758-62.073 0-6.593.129-12.209.129-20.504 0-.214-.01-.417-.02-.62z" fill="#22DA49"/><path d="M160.34 162.17c-.75 0-1.481-.016-2.197-.046a.75.75 0 0 1-.718-.759l.293-23.286c.003-.202.087-.396.234-.535s.34-.229.547-.204c31.735 1.342 79.448-18.207 82.686-57.057a36.7 36.7 0 0 0 .107-2.123.75.75 0 0 1 .741-.731c.386-.025.739.311.758.715l-.749.035.75-.008c.01.205.019.411.019.627 0 4.388-.036 8.026-.07 11.457-.03 3.054-.059 5.941-.059 9.047 0 12.825-5.905 25.266-17.078 35.977-18.515 17.752-46.823 26.89-65.264 26.891zm-1.405-1.518c18.065.499 46.917-8.514 65.633-26.456 10.87-10.421 16.616-22.487 16.616-34.894 0-3.11.029-6.003.059-9.062l.013-1.325c-4.67 18.21-18.6 29.783-30.269 36.528-15.291 8.84-35.052 13.963-51.778 13.424z" fill="#177267"/><path d="M150.385 4.619C104.338-.9 76.018 11.189 62.02 22.111v25.196c13.999-10.922 39.029-25.219 85.076-19.7 39.563 4.742 83.151 40.801 80.594 79.123 6.021-7.457 10.06-16.374 10.927-26.778 2.83-33.966-43.313-69.949-88.232-75.333z" fill="#177267"/><path d="m175.55 132.482 12.196-3.127s2.439 2.501 3.111 4.78c-.106 2.767-5.533 22.346-6.172 23.942-10.002 2.767-17.876 3.345-17.876 3.345l1.49-27.926z" fill="#22DA49"/><path d="M166.809 162.172a.746.746 0 0 1-.525-.215.745.745 0 0 1-.224-.575l1.49-27.926a.751.751 0 0 1 .645-.703l7.209-1.009 12.155-3.116a.758.758 0 0 1 .723.203c.105.107 2.577 2.663 3.294 5.092a.753.753 0 0 1 .03.241c-.113 2.926-5.642 22.733-6.225 24.191a.748.748 0 0 1-.496.444c-9.958 2.755-17.942 3.364-18.021 3.37a.493.493 0 0 1-.055.003zm2.206-28.018-1.411 26.442c2.252-.229 8.733-1.02 16.506-3.139.992-2.996 5.758-20.318 5.99-23.23-.517-1.594-1.977-3.337-2.602-4.034l-11.763 3.016a.796.796 0 0 1-.082.017zm6.535-1.672h.01z" fill="#177267"/><path d="m151.806 127.964 22.984 1.472s2.022 6.402 2.022 8.104c-1.17 13.088-5.427 23.882-5.427 23.882l-18.515 1.443z" fill="#22DA49"/><path d="M152.87 163.616a.75.75 0 0 1-.75-.727l-1.064-34.902a.755.755 0 0 1 .228-.562.733.733 0 0 1 .569-.209l22.984 1.473a.75.75 0 0 1 .667.522c.211.666 2.057 6.563 2.057 8.33-1.169 13.111-5.436 24.048-5.479 24.157a.752.752 0 0 1-.639.473l-18.515 1.443a1.124 1.124 0 0 1-.058.002zm-.29-34.852 1.015 33.293 17.256-1.346c.79-2.139 4.197-11.873 5.213-23.237-.003-1.133-1.211-5.294-1.837-7.322z" fill="#177267"/><ellipse cx="41.469" cy="65.868" fill="#22DA49" rx="47.959" ry="20.713" transform="matrix(.3855 -.9227 .9227 .3855 -35.2944 78.7381)"/><path d="M26.701 111.595c-1.414 0-2.755-.259-4.01-.783-10.92-4.562-11.38-28.437-1.026-53.218 4.977-11.912 11.669-22.283 18.843-29.203 7.33-7.069 14.34-9.724 19.739-7.467 10.92 4.562 11.38 28.437 1.026 53.218-4.977 11.912-11.669 22.283-18.843 29.203-5.626 5.426-11.064 8.25-15.729 8.25zm29.515-89.957c-4.254 0-9.328 2.684-14.667 7.833-7.03 6.78-13.6 16.974-18.5 28.701-10.035 24.019-9.937 47.012.219 51.255 4.812 2.009 11.246-.532 18.12-7.162 7.03-6.78 13.6-16.974 18.5-28.701 10.035-24.019 9.937-47.012-.22-51.255a8.872 8.872 0 0 0-3.452-.671zM8.488 78.185a.748.748 0 0 1-.741-.868c.75-4.691 1.953-9.58 3.575-14.529a.75.75 0 1 1 1.425.467c-1.597 4.875-2.781 9.686-3.519 14.299a.75.75 0 0 1-.74.631zm6.593-22.592a.75.75 0 0 1-.692-1.039 110.733 110.733 0 0 1 4.536-9.558.75.75 0 1 1 1.322.709 108.732 108.732 0 0 0-4.474 9.427.75.75 0 0 1-.692.461z" fill="#177267"/><path d="M44.547 13.469c-5.634.402-13.514 5.64-15.585 8.193-4.085 5.037 7.231 7.714 11.274 3.564 4.044-4.15 11.121-9.842 16.654-9.097a8.468 8.468 0 0 1 2.076.522c-2.811-1.323-7.356-3.687-14.419-3.182z" fill="#22DA49"/><path d="M34.407 28.022c-2.301 0-4.55-.654-5.877-1.834-1.53-1.36-1.586-3.229-.151-4.998 2.213-2.729 10.347-8.057 16.114-8.469 6.9-.491 11.562 1.72 14.349 3.041l.443.21a.75.75 0 0 1-.585 1.38 7.74 7.74 0 0 0-1.911-.479c-4.802-.64-11.422 4.162-16.017 8.877-1.523 1.564-3.972 2.272-6.365 2.272zM44.6 14.217c-5.295.378-13.04 5.432-15.056 7.918-.934 1.151-.94 2.11-.017 2.932 1.978 1.758 7.638 2.235 10.172-.364 2.042-2.096 8.49-8.254 14.562-9.252-2.496-.862-5.654-1.52-9.661-1.234zm-.053-.748h.01z" fill="#177267"/><path d="M40.236 29.72c4.044-4.15 11.121-9.842 16.654-9.097 4.039.544 7.112 3.582 8.23 6.963.135.25.389-.71.389-.71.638-4.575-3.086-10.002-8.619-10.747s-12.61 4.947-16.654 9.097c-3.434 3.524-12.113 2.125-12.149-1.462 0 1.456-.005 3.854 0 4.489.029 3.591 8.714 4.993 12.149 1.467z" fill="#22DA49"/><path d="M34.418 32.503c-1.455 0-2.88-.258-4.051-.729-1.914-.769-3.019-2.05-3.031-3.516-.003-.427-.002-1.646-.001-2.842l.001-1.653a.75.75 0 0 1 .746-.75h.004a.75.75 0 0 1 .75.742c.012 1.175 1.47 1.885 2.096 2.136 2.642 1.062 6.795.835 8.766-1.189 2.353-2.414 10.559-10.224 17.291-9.316 2.811.378 5.346 1.888 7.139 4.25 1.689 2.227 2.463 4.903 2.123 7.344-.219.847-.452 1.329-.989 1.393a.87.87 0 0 1-.804-.431.713.713 0 0 1-.052-.12c-.935-2.829-3.654-5.922-7.617-6.456-4.803-.637-11.423 4.162-16.017 8.878-1.531 1.572-3.98 2.259-6.354 2.259zm-5.583-6.07c-.001.81 0 1.512.002 1.814.01 1.174 1.465 1.885 2.09 2.136 2.643 1.063 6.799.84 8.772-1.187 2.353-2.415 10.553-10.231 17.291-9.317 3.249.438 6.125 2.411 7.817 5.235-.152-1.539-.798-3.154-1.873-4.571-1.55-2.042-3.732-3.346-6.144-3.671-4.802-.642-11.422 4.162-16.017 8.877-2.468 2.533-7.319 2.77-10.398 1.535a6.618 6.618 0 0 1-1.54-.851zm11.401 3.287h.01zm24.884-2.134h.01z" fill="#177267"/><ellipse cx="44.662" cy="68.443" fill="#177267" rx="47.503" ry="20.29" transform="matrix(.3855 -.9227 .9227 .3855 -35.7079 83.267)"/><path d="M73.627 28.316c10.51 3.887 10.522 27.446.408 51.653s-26.493 39.809-37.034 36.009c-18.813-6.782-15.664-28.749-5.55-52.956s25.2-40.985 42.176-34.706z" fill="#177267"/><path d="M46.494 103.538c-.509 0-.996-.094-1.458-.286-2.75-1.149-3.791-5.416-3.011-12.341.736-6.533 3.031-14.655 6.463-22.868 6.409-15.339 16.621-29.712 22.623-27.2 2.75 1.148 3.791 5.416 3.011 12.34-.736 6.533-3.031 14.655-6.463 22.869-5.916 14.156-15.072 27.486-21.165 27.486zm23.122-61.485c-4.342 0-12.818 9.989-19.745 26.568-3.379 8.086-5.636 16.062-6.357 22.458-.667 5.928.117 9.961 2.098 10.788 3.963 1.662 13.208-8.556 20.66-26.394 3.379-8.087 5.636-16.062 6.357-22.459.667-5.927-.117-9.96-2.098-10.787a2.364 2.364 0 0 0-.915-.174z" fill="#22DA49"/><ellipse cx="105.934" cy="129.436" fill="#177267" rx="51.241" ry="32.454" transform="matrix(.9842 -.177 .177 .9842 -21.2368 20.7931)"/><ellipse cx="107.915" cy="140.456" fill="#22DA49" rx="51.241" ry="32.454" transform="matrix(.9842 -.177 .177 .9842 -23.1559 21.3178)"/><path d="M99.72 174.41c-22.203 0-40.285-9.797-42.974-24.752-3.24-18.019 17.078-36.807 45.293-41.882 28.216-5.067 53.806 5.459 57.047 23.478 1.581 8.794-2.304 18.002-10.941 25.928-8.544 7.841-20.744 13.507-34.353 15.954a79.827 79.827 0 0 1-14.072 1.274zm16.465-66.416a78.47 78.47 0 0 0-13.881 1.258c-27.401 4.929-47.176 22.935-44.082 40.14 3.094 17.206 27.903 27.198 55.305 22.267 13.333-2.397 25.267-7.932 33.604-15.583 8.244-7.565 11.966-16.287 10.478-24.557-2.559-14.231-19.975-23.525-41.424-23.525z" fill="#177267"/><path d="M162.036 140.993c-3.063-17.033-26.616-27.166-53.307-23.336l-3.706-9.57c-3.596.647-6.584 3.724-4.926 7.607 1.482 3.472 5.141 5.649 8.632 5.2 26.133-3.306 48.95 6.771 51.962 23.518.634 3.523.34 7.074-.753 10.542 2.145-4.528 2.941-9.27 2.098-13.961z" fill="#22DA49"/><path d="M159.936 155.704a.75.75 0 0 1-.715-.976c1.083-3.434 1.328-6.859.73-10.184-2.896-16.104-25.354-26.163-51.129-22.906-3.845.489-7.808-1.882-9.416-5.65-.75-1.757-.707-3.502.126-5.047.984-1.823 2.986-3.167 5.356-3.593a.755.755 0 0 1 .832.468l3.492 9.016c27.002-3.678 50.466 6.816 53.561 24.027.853 4.744.126 9.594-2.159 14.416a.748.748 0 0 1-.678.429zm-41.559-36.174c22.292 0 40.392 9.965 43.051 24.75.07.39.129.779.178 1.171a20.297 20.297 0 0 0-.308-4.325c-2.974-16.538-26.017-26.516-52.463-22.726a.75.75 0 0 1-.806-.472l-3.473-8.969c-1.639.442-3.026 1.441-3.702 2.695-.609 1.128-.632 2.423-.067 3.745 1.35 3.163 4.651 5.166 7.847 4.751 3.31-.418 6.569-.62 9.743-.62z" fill="#177267"/><path d="M105.598 104.75a6.391 6.391 0 0 0-.576.074c-3.596.647-6.584 3.724-4.926 7.608 1.482 3.472 5.122 5.604 8.613 5.156l.019.07c26.691-3.831 50.244 6.303 53.307 23.336l-.059-.328-2.284-12.698c-3.092-17.201-27.08-27.363-54.094-23.218z" fill="#22DA49"/><path d="M162.035 141.743a.75.75 0 0 1-.737-.617l-.007-.038c-3.004-16.516-26.032-26.478-52.456-22.688a.746.746 0 0 1-.353-.034c-3.742.334-7.522-2.002-9.075-5.639-.75-1.758-.707-3.503.126-5.048.984-1.823 2.986-3.167 5.356-3.593.206-.037.412-.062.618-.081 27.636-4.232 51.76 6.231 54.925 23.829l2.337 12.995.005.03a.75.75 0 0 1-.739.884zM119.873 116.1c18.256 0 33.596 6.62 40.018 17.206l-.936-5.206c-3.02-16.796-26.409-26.726-53.243-22.608l-.045.006c-.169.016-.34.034-.51.065-1.897.341-3.546 1.425-4.303 2.829-.609 1.128-.632 2.423-.067 3.745 1.339 3.139 4.629 5.119 7.827 4.706a.758.758 0 0 1 .319.028 79.249 79.249 0 0 1 10.94-.771zm-14.275-11.35h.01z" fill="#177267"/><ellipse cx="110.258" cy="153.482" fill="#22DA49" rx="51.241" ry="32.454" transform="matrix(.9842 -.177 .177 .9842 -25.4245 21.938)"/><path d="M102.062 187.436c-22.203 0-40.285-9.797-42.974-24.752-1.581-8.794 2.304-18.002 10.941-25.928 8.544-7.841 20.744-13.507 34.353-15.954 28.217-5.068 53.807 5.458 57.047 23.478 1.581 8.794-2.304 18.002-10.941 25.928-8.544 7.841-20.744 13.507-34.353 15.954a79.743 79.743 0 0 1-14.073 1.274zm16.466-66.415a78.47 78.47 0 0 0-13.881 1.258c-13.333 2.397-25.267 7.932-33.604 15.583-8.244 7.565-11.966 16.287-10.478 24.557 3.094 17.205 27.903 27.195 55.305 22.267 13.333-2.397 25.267-7.932 33.604-15.583 8.244-7.565 11.966-16.287 10.478-24.557-2.559-14.231-19.975-23.525-41.424-23.525z" fill="#177267"/><ellipse cx="110.858" cy="156.821" fill="#22DA49" rx="51.241" ry="32.454" transform="matrix(.9842 -.177 .177 .9842 -26.006 22.097)"/><path d="M102.663 190.775c-22.203 0-40.285-9.797-42.974-24.752-1.581-8.794 2.304-18.002 10.941-25.927 8.544-7.841 20.744-13.507 34.353-15.954 13.609-2.449 27.018-1.388 37.759 2.985 10.856 4.42 17.707 11.697 19.288 20.491 3.24 18.02-17.078 36.808-45.293 41.882a79.68 79.68 0 0 1-14.074 1.275zm16.527-66.423c-4.55 0-9.232.419-13.943 1.267-13.333 2.397-25.267 7.932-33.604 15.582-8.244 7.566-11.966 16.287-10.478 24.557 3.094 17.205 27.904 27.2 55.305 22.267 27.399-4.927 47.173-22.935 44.083-40.14-1.487-8.27-8.014-15.148-18.377-19.367-6.779-2.761-14.659-4.166-22.986-4.166z" fill="#177267"/><ellipse cx="110.738" cy="156.152" fill="#177267" rx="43.103" ry="28.012" transform="matrix(.9842 -.177 .177 .9842 -25.8894 22.0652)"/><g fill="#22DA49"><path d="m150.223 169.751-40.381-13.369 26.693-28.759.733.68-25.634 27.618 38.904 12.881z"/><path d="m110.608 156.634-40.026-10.763.259-.964 34.368 9.24-28.644-13.237.42-.909 33.963 15.697z"/><path d="m68.185 173.048 42.553-16.896-43.563 13.124z"/><path d="m67.848 173.72-1.281-4.782 44.027-13.265.329.943zm-.065-4.104.74 2.761 31.147-12.368zm163.867-67.983a.501.501 0 0 1-.426-.762c3.952-6.439 6.271-13.491 6.894-20.962 2.676-32.115-40.81-69.162-87.793-74.794a.5.5 0 1 1 .119-.993c22.005 2.637 44.706 12.5 62.281 27.06 18.106 14.998 27.724 32.789 26.389 48.811-.636 7.627-3.004 14.827-7.039 21.401a.495.495 0 0 1-.425.239z"/></g></svg></g><g transform="translate(275.0 294.0) rotate(0.0 135.5 124.5) scale(0.5559772685308659 0.5567530341922385)"><svg width="487.43" height="447.236" viewBox="0 0 487.43 447.236"><path d="M478.656 75.058 253.245 4.215a13.386 13.386 0 0 0-16.176 7.178L174.633 147.18l13.391 55.146L413.63 310.481a4.662 4.662 0 0 0 6.526-5.381l-13.011-49.857L485.492 90.75a11.339 11.339 0 0 0-6.836-15.692z" fill="#22DA49"/><path d="M415.659 311.7a5.441 5.441 0 0 1-2.353-.541L187.7 203a.748.748 0 0 1-.405-.5L173.9 147.357a.751.751 0 0 1 .047-.49l62.44-135.787A14.164 14.164 0 0 1 253.47 3.5l225.411 70.843a12.088 12.088 0 0 1 7.289 16.729l-78.23 164.246 12.942 49.593a5.426 5.426 0 0 1-5.223 6.787zm-226.99-109.9 225.285 108a3.912 3.912 0 0 0 5.476-4.514l-13.01-49.857a.751.751 0 0 1 .048-.513l78.347-164.489a10.586 10.586 0 0 0-6.384-14.653L253.02 4.931a12.662 12.662 0 0 0-15.269 6.776l-62.327 135.55z" fill="#22DA49"/><path d="m199.141 223.472 205.63 98.61a7.3 7.3 0 0 1 .5 12.9L226.077 438.575a26.812 26.812 0 0 1-28.628-1.13L3.993 304.215a7.3 7.3 0 0 1 1.436-12.794l172.184-68.677a26.814 26.814 0 0 1 21.528.728z" fill="#177267"/><path d="M212.671 442.9a27.569 27.569 0 0 1-15.647-4.84L3.568 304.833a8.05 8.05 0 0 1 1.583-14.108l172.184-68.678a27.637 27.637 0 0 1 22.131.749l205.634 98.61a8.051 8.051 0 0 1 .549 14.229l-179.196 103.59a27.536 27.536 0 0 1-13.782 3.675zm-25.129-221.31a26.041 26.041 0 0 0-9.651 1.849L5.707 292.118A6.551 6.551 0 0 0 4.418 303.6l193.456 133.227a26.182 26.182 0 0 0 27.828 1.1l179.191-103.59a6.551 6.551 0 0 0-.446-11.578l-205.63-98.61a26.1 26.1 0 0 0-11.275-2.557z" fill="#177267"/><path d="m199.141 227.783 209.772 101.143v3.768a7.416 7.416 0 0 1-3.641 6.6L226.077 442.886a26.814 26.814 0 0 1-28.628-1.131L3.993 308.526a7.2 7.2 0 0 1-3.161-5.992v-4.516l176.781-70.964a26.81 26.81 0 0 1 21.528.729z" fill="#177267"/><path d="M212.671 447.213a27.585 27.585 0 0 1-15.647-4.84L3.568 309.144a7.929 7.929 0 0 1-3.486-6.61v-4.516a.75.75 0 0 1 .471-.7l176.781-70.964a27.644 27.644 0 0 1 22.132.748L409.238 328.25a.75.75 0 0 1 .425.678v3.766a8.111 8.111 0 0 1-4.016 7.251l-179.194 103.59a27.527 27.527 0 0 1-13.782 3.678zM1.582 298.525v4.008a6.449 6.449 0 0 0 2.836 5.375l193.456 133.23a26.182 26.182 0 0 0 27.828 1.1l179.191-103.59a6.646 6.646 0 0 0 3.267-5.952v-3.3L198.817 228.459a26.137 26.137 0 0 0-20.926-.708z" fill="#177267"/><path d="m184.408 362.526-55.06 28.019-81.983-56.46 53.832-23.8zm96.652 38.233L67.6 270.934l71.767-28.473 216.654 115.455z" fill="#22DA49"/><g fill="#177267"><path d="M281.06 401.509a.75.75 0 0 1-.39-.11L67.211 271.575a.75.75 0 0 1 .113-1.338l71.767-28.474a.75.75 0 0 1 .628.035l216.655 115.456a.75.75 0 0 1 .019 1.313l-74.961 42.843a.748.748 0 0 1-.372.099zM69.277 271.076l211.794 128.812 73.4-41.949-215.15-114.653z"/><path d="M300.2 390.665a.748.748 0 0 1-.38-.1L85.563 264.387a.75.75 0 0 1 .76-1.293l214.252 126.174a.75.75 0 0 1-.38 1.4zm19.636-11.135a.755.755 0 0 1-.371-.1L104.239 256.769a.751.751 0 0 1 .744-1.3l215.225 122.66a.75.75 0 0 1-.372 1.4zm19.652-11.14a.751.751 0 0 1-.362-.093L123.12 249.22a.75.75 0 1 1 .724-1.313l216.007 119.076a.75.75 0 0 1-.363 1.407z"/><path d="M281.06 401.509a.75.75 0 0 1-.372-1.4l74.961-42.842a.75.75 0 1 1 .744 1.3l-74.961 42.843a.746.746 0 0 1-.372.099zm-19.405-11.802a.75.75 0 0 1-.365-1.406l18.983-10.559a.75.75 0 1 1 .729 1.31l-18.983 10.56a.747.747 0 0 1-.364.095zm38.48-21.407a.75.75 0 0 1-.365-1.406l36.191-20.131a.75.75 0 0 1 .729 1.311l-36.19 20.133a.752.752 0 0 1-.365.093zm-57.885 9.6a.75.75 0 0 1-.358-1.409l74.381-40.23a.75.75 0 0 1 .714 1.319l-74.381 40.23a.753.753 0 0 1-.356.09zm-19.406-11.8a.75.75 0 0 1-.349-1.414l74.09-38.924a.75.75 0 1 1 .7 1.328l-74.09 38.924a.737.737 0 0 1-.351.086zm-19.405-11.8a.75.75 0 0 1-.342-1.418l73.8-37.618a.75.75 0 0 1 .682 1.336l-73.8 37.618a.756.756 0 0 1-.34.082zm-.713-21.036a.75.75 0 0 1-.333-1.422l54.817-27.078a.75.75 0 0 1 .664 1.345l-54.817 27.077a.738.738 0 0 1-.331.078zm-19.478-11.471a.75.75 0 0 1-.324-1.426l54.6-26.1a.75.75 0 1 1 .648 1.353l-54.6 26.1a.745.745 0 0 1-.324.073zm-19.184-11.607a.75.75 0 0 1-.315-1.43l54.087-24.992a.75.75 0 1 1 .629 1.361l-54.087 24.992a.727.727 0 0 1-.314.069zm-38.247-3.095a.75.75 0 0 1-.306-1.435l72.638-32.393a.75.75 0 0 1 .611 1.37l-72.638 32.393a.751.751 0 0 1-.305.065zm-19.405-11.802a.75.75 0 0 1-.3-1.439l72.348-31.086a.75.75 0 0 1 .591 1.378l-72.347 31.086a.753.753 0 0 1-.292.061zm-19.406-11.803a.75.75 0 0 1-.287-1.443l72.057-29.78a.75.75 0 1 1 .573 1.387l-72.057 29.78a.762.762 0 0 1-.286.056zM67.6 271.684a.75.75 0 0 1-.276-1.447l71.767-28.474a.75.75 0 0 1 .552 1.395l-71.766 28.473a.749.749 0 0 1-.277.053z"/></g><path d="M212.672 442.9a27.58 27.58 0 0 1-15.648-4.84L3.568 304.833a.75.75 0 1 1 .85-1.235l193.456 133.229a26.182 26.182 0 0 0 27.828 1.1l171.6-99a.75.75 0 0 1 .75 1.3l-171.6 99.005a27.529 27.529 0 0 1-13.78 3.668z" fill="#22DA49"/><path d="m182.021 215.262 223.782 107.315 6.097-12.918-223.783-107.315z" fill="#177267"/><path d="M405.8 323.327a.749.749 0 0 1-.324-.074L181.7 215.938a.749.749 0 0 1-.354-1l6.1-12.918a.751.751 0 0 1 1-.356l223.778 107.319a.749.749 0 0 1 .354 1l-6.1 12.918a.756.756 0 0 1-.679.43zM183.017 214.908l222.43 106.666 5.457-11.561-222.431-106.666z" fill="#177267"/><ellipse cx="408.663" cy="316.036" fill="#22DA49" rx="7.152" ry="5.181" transform="matrix(.45257479 -.89172645 .89172645 .45257479 -58.105 537.422)"/><path d="M407.222 323.586a4.677 4.677 0 0 1-2.134-.5 5.293 5.293 0 0 1-2.721-4.078 9.934 9.934 0 0 1 4.976-9.8 4.995 4.995 0 0 1 7.617 3.865 9.416 9.416 0 0 1-1.008 5.654 9.4 9.4 0 0 1-3.968 4.15 6.068 6.068 0 0 1-2.762.709zm2.882-13.6a4.572 4.572 0 0 0-2.076.547 8.442 8.442 0 0 0-4.179 8.234 3.509 3.509 0 0 0 5.45 2.767 8.443 8.443 0 0 0 4.179-8.235 3.839 3.839 0 0 0-1.917-2.974 3.2 3.2 0 0 0-1.461-.336z" fill="#177267"/><path d="m249.128 5.114 226.125 70.111s2.747 2.814 4.992 5.175c3.009 3.164 3.155 8.365 1.109 12.662L372.221 322.194A12.712 12.712 0 0 1 354.878 328L149.055 220.9a10.827 10.827 0 0 1-3.788-3.267c-2.231-3.084-3.183-4.3-3.183-4.3L233.768 11.93a12.712 12.712 0 0 1 15.36-6.816z" fill="#22DA49"/><path d="M360.727 330.2a13.385 13.385 0 0 1-6.2-1.529l-205.822-107.1a11.5 11.5 0 0 1-4.05-3.492c-2.194-3.033-3.157-4.272-3.166-4.284a.749.749 0 0 1-.091-.772l91.688-201.404A13.487 13.487 0 0 1 249.35 4.4l226.125 70.109a.754.754 0 0 1 .315.192s2.749 2.818 5 5.184c3.058 3.216 3.557 8.642 1.242 13.5L372.9 322.516a13.349 13.349 0 0 1-7.877 6.976 13.5 13.5 0 0 1-4.296.708zM142.954 213.237c.425.56 1.356 1.8 2.92 3.965a10.01 10.01 0 0 0 3.528 3.04l205.822 107.1a11.96 11.96 0 0 0 16.32-5.466L480.676 92.741c2.05-4.3 1.659-9.054-.974-11.823a659.825 659.825 0 0 0-4.853-5.033L248.906 5.83a11.989 11.989 0 0 0-14.454 6.414z" fill="#177267"/><path d="m245.3 1.337 224.668 70.611a12.528 12.528 0 0 1 7.554 17.339l-109.133 229.13a12.71 12.71 0 0 1-17.343 5.81l-205.822-107.1a10.874 10.874 0 0 1-4.861-14.189L229.937 8.153A12.711 12.711 0 0 1 245.3 1.337z" fill="#52FFFE"/><path d="M356.9 326.421a13.392 13.392 0 0 1-6.195-1.528L144.877 217.8a11.614 11.614 0 0 1-5.2-15.168L229.255 7.839A13.489 13.489 0 0 1 245.521.622l224.671 70.61A13.28 13.28 0 0 1 478.2 89.61L369.067 318.739a13.351 13.351 0 0 1-7.878 6.976 13.5 13.5 0 0 1-4.289.706zM241.5 1.5a11.994 11.994 0 0 0-10.884 6.963l-89.571 194.792a10.113 10.113 0 0 0 4.525 13.21l205.822 107.1a11.96 11.96 0 0 0 16.32-5.466L476.845 88.964a11.778 11.778 0 0 0-7.1-16.3L245.071 2.052A11.9 11.9 0 0 0 241.5 1.5z" fill="#177267"/><path d="M241.028 7.6a5.738 5.738 0 0 1 1.713.265l223.836 70.65a5.528 5.528 0 0 1 3.334 7.651L361.437 314.2a5.7 5.7 0 0 1-7.792 2.61L148 210.769a3.87 3.87 0 0 1-1.731-5.055l89.57-194.788a5.73 5.73 0 0 1 5.189-3.326m.457-6.85a12.714 12.714 0 0 0-11.548 7.4l-89.574 194.791a10.876 10.876 0 0 0 4.861 14.19l205.822 107.1a12.7 12.7 0 0 0 17.343-5.81L477.522 89.287a12.528 12.528 0 0 0-7.554-17.339L245.3 1.337a12.7 12.7 0 0 0-3.815-.587zM130.132 390.147l8.962-3.613v-53.053l-8.962-6.095zm23.143-47.821-6.982-4.383v44.68l6.982-3.553zm-51.305 31.481 8.958 6.17V315.91l-8.958-5.625zM67.6 350.415l23.748 16.355v-53.499L67.6 323.769zm98.56 0-5.627-3.532v28.493l5.627-2.863z" fill="#177267"/></svg></g><g transform="translate(47.0 216.0) rotate(0.0 79.5 163.5) scale(0.27577355348966287 0.27742428098752864)"><svg width="576.56" height="1178.7" viewBox="0 0 576.56 1178.7"><g fill="#177267"><path d="m325.07 761.92-68.9-7.32-61.14 9.34 68.91 9.1z"/><path d="M263.94 774.54c-.07 0-.13 0-.2-.01l-68.91-9.09c-.74-.1-1.3-.73-1.3-1.47s.54-1.39 1.27-1.5l61.14-9.35c.13-.02.26-.02.38 0l68.91 7.33c.74.08 1.31.69 1.34 1.44s-.5 1.4-1.23 1.53l-61.14 11.12c-.09.02-.18.02-.27.02zm-58.27-10.7 58.23 7.69 50.65-9.21-58.34-6.2-50.53 7.73zm58.27 43.04c-.07 0-.13 0-.2-.01l-68.91-9.09c-.74-.1-1.3-.73-1.3-1.47s.54-1.39 1.27-1.5l61.14-9.35c.13-.02.26-.02.38 0l68.91 7.33c.74.08 1.31.69 1.34 1.44s-.5 1.4-1.23 1.53l-61.14 11.12c-.09.02-.18.02-.27.02zm-58.27-10.7 58.23 7.69 50.65-9.21-58.34-6.2-50.53 7.73z"/><path d="M241.39 560.95h37.33v337.17h-37.33z"/><path d="M278.72 899.62h-37.33c-.83 0-1.5-.67-1.5-1.5V560.95c0-.83.67-1.5 1.5-1.5h37.33c.83 0 1.5.67 1.5 1.5v337.17c0 .83-.67 1.5-1.5 1.5zm-35.83-3h34.33V562.45h-34.33z"/><path d="M30.98 885.05c-2.97 0-5.72-1.9-6.67-4.89a7 7 0 0 1 4.55-8.79l229.07-72.67c3.68-1.17 7.62.87 8.79 4.56s-.87 7.62-4.55 8.79L33.1 884.72c-.7.22-1.42.33-2.12.33z"/><path d="M135.27 826.96s-112.4 35.46-122.72 38.95c-10.72 3.62.04 35.96 10.37 32.68s122.72-38.95 122.72-38.95l19.91-24.28-30.27-8.4z"/><path d="M21.37 900.34c-5.53 0-10.37-7.15-12.92-14.95-2.89-8.82-2.89-18.7 3.63-20.9 10.22-3.45 121.62-38.6 122.75-38.96.28-.09.57-.09.85-.01l30.27 8.4c.49.14.88.51 1.03.99s.05 1.01-.27 1.4l-19.91 24.28c-.18.22-.43.39-.71.48 0 0-112.39 35.67-122.72 38.95-.68.21-1.35.32-2 .32zm113.93-71.82c-7.58 2.39-112.39 35.47-122.26 38.81-4.3 1.45-4.1 9.91-1.74 17.13 2.34 7.14 7.04 14.02 11.17 12.71 9.96-3.16 114.78-36.43 122.29-38.82l18.16-22.16-27.63-7.67zm177.54 96.91c0 4.77-23.87 8.63-53.31 8.63s-53.31-3.86-53.31-8.63v-27.3h106.61v27.3z"/><path d="M259.53 935.55c-18.96 0-54.81-2.12-54.81-10.13v-27.3c0-.83.67-1.5 1.5-1.5h106.61c.83 0 1.5.67 1.5 1.5v27.3c0 8.01-35.85 10.13-54.8 10.13zm-51.81-35.93v25.8c.49 2.48 18.72 7.13 51.81 7.13s51.29-4.64 51.8-7.14v-25.8H207.72z"/><ellipse cx="259.53" cy="898.12" rx="53.31" ry="8.63"/><path d="M259.53 908.25c-18.96 0-54.81-2.12-54.81-10.13s35.85-10.13 54.81-10.13 54.8 2.12 54.8 10.13-35.85 10.13-54.8 10.13zm0-17.26c-33.08 0-51.31 4.65-51.81 7.14.5 2.47 18.72 7.12 51.81 7.12s51.26-4.64 51.8-7.13c-.54-2.49-18.76-7.13-51.8-7.13zm-128.99 264.98c-1.63 0-3.29-.32-4.88-1-6.35-2.7-9.32-10.04-6.62-16.39l94.37-222.06c2.7-6.35 10.04-9.32 16.39-6.62s9.32 10.04 6.62 16.39l-94.37 222.06c-2.02 4.76-6.65 7.61-11.51 7.61z"/><path d="M229.5 1178.7c-.5 0-1.02-.03-1.53-.09-6.85-.84-11.73-7.07-10.89-13.92l30.05-246.32c.84-6.85 7.07-11.73 13.92-10.89s11.73 7.07 10.89 13.92l-30.05 246.32c-.77 6.34-6.17 10.99-12.39 10.99zm170.11-15.91c-4.73 0-9.26-2.7-11.37-7.28l-107.62-234.2c-2.88-6.27-.13-13.7 6.14-16.58 6.28-2.88 13.7-.13 16.58 6.14l107.62 234.2c2.88 6.27.13 13.7-6.14 16.58-1.69.78-3.47 1.14-5.21 1.14zM260.05 566.96c-.57 0-1.15-.08-1.73-.25-3.17-.95-4.98-4.3-4.02-7.47 5.74-19.14-2.38-28.86-14.68-43.56-14.24-17.03-31.97-38.23-31.09-81.78 1.49-73.34 42.96-95.65 100.36-126.54 3.89-2.09 7.87-4.24 11.94-6.44 2.91-1.58 6.55-.5 8.14 2.41s.5 6.55-2.41 8.14c-4.08 2.22-8.08 4.37-11.98 6.47-57.81 31.11-92.71 49.88-94.05 116.21-.79 39.06 14.66 57.54 28.29 73.84 12.64 15.11 24.57 29.38 16.97 54.71a6.002 6.002 0 0 1-5.75 4.28z"/></g><path d="M516.84 329.74C506.26 140.57 382.49-6.24 240.38 1.82S-8.36 169.76 2.22 358.93s134.36 335.98 276.47 327.92 248.73-167.94 238.15-357.11zM283.69 610.55c-106.25 5.98-199.12-108.59-207.41-255.9-8.3-147.31 71.11-271.59 177.37-277.57 106.25-5.98 199.12 108.59 207.41 255.9 8.3 147.31-71.11 271.59-177.37 277.57z" fill="#fff"/><path d="M267.45 688.67c-65.17 0-127.8-31.95-177.46-90.85-52.43-62.19-84.13-147-89.26-238.81S17.64 179.34 62.8 111.62C108.04 43.77 171.08 4.24 240.29.32c69.23-3.93 136.26 28.23 188.79 90.53 52.43 62.18 84.13 146.99 89.26 238.8s-16.91 179.67-62.07 247.39c-45.25 67.85-108.29 107.38-177.5 111.31-3.78.21-7.56.32-11.33.32zM251.61 3c-3.71 0-7.42.1-11.15.32C172.21 7.19 110 46.25 65.29 113.29 20.49 180.47-1.38 267.68 3.72 358.84c5.1 91.17 36.55 175.35 88.56 237.04 49.07 58.21 110.9 89.79 175.18 89.79 3.71 0 7.42-.1 11.15-.32 68.25-3.87 130.46-42.93 175.17-109.97 44.8-67.18 66.67-154.39 61.57-245.55-5.1-91.17-36.55-175.35-88.56-237.04C377.71 34.58 315.88 3 251.61 3zm24.07 609.28c-49 0-96.16-25.07-133.59-71.24-39.37-48.58-63.27-114.74-67.31-186.3-4.03-71.56 12.29-139.99 45.96-192.68 33.77-52.84 80.94-83.55 132.82-86.48 51.88-2.92 102.2 22.3 141.69 71.02 39.37 48.58 63.28 114.74 67.31 186.3s-12.29 139.99-45.96 192.68c-33.77 52.84-80.94 83.55-132.82 86.48-2.7.15-5.41.23-8.1.23zm7.93-3.22.08 1.5-.08-1.5c105.26-5.93 184.19-129.74 175.95-275.99-4-70.94-27.66-136.49-66.64-184.58-38.86-47.95-88.28-72.78-139.19-69.91C148.47 84.51 69.54 208.32 77.78 354.57s100.54 260.41 205.83 254.49z" fill="#137559"/><path d="m263.94 805.38-68.91-9.1v-32.34l68.91 9.1z" fill="#22DA49"/><path d="M263.94 806.88c-.07 0-.13 0-.2-.01l-68.91-9.09c-.75-.1-1.3-.73-1.3-1.49v-32.34c0-.43.19-.84.51-1.13.33-.28.76-.42 1.19-.36l68.91 9.09c.75.1 1.3.73 1.3 1.49v32.34c0 .43-.19.84-.51 1.13-.28.24-.63.37-.99.37zm-67.41-11.91 65.91 8.7v-29.31l-65.91-8.7z" fill="#177267"/><path d="m263.94 805.38 61.13-11.12v-32.34l-61.13 11.12z" fill="#22DA49"/><path d="M263.94 806.88a1.502 1.502 0 0 1-1.5-1.5v-32.34c0-.72.52-1.35 1.23-1.48l61.14-11.12c.44-.08.89.04 1.23.32s.54.71.54 1.15v32.34c0 .72-.52 1.35-1.23 1.48l-61.14 11.12c-.09.02-.18.02-.27.02zm1.5-32.58v29.29l58.14-10.57v-29.29zm45.67-337.22 15.97-.57-15.23-170.36-17.27 7.14a11.005 11.005 0 0 0-6.76 11.08L299.75 427c.49 5.85 5.49 10.29 11.36 10.08z" fill="#177267"/><path d="M310.71 438.59c-6.48 0-11.9-4.95-12.45-11.46L286.33 284.5c-.46-5.44 2.63-10.5 7.68-12.59l17.27-7.14c.44-.18.94-.14 1.35.1.41.25.67.67.72 1.15l15.23 170.36a1.508 1.508 0 0 1-1.44 1.64l-15.97.57h-.46zm-.18-170.28-15.38 6.36a9.453 9.453 0 0 0-5.83 9.57l11.93 142.63c.42 5.06 4.76 8.89 9.81 8.7l14.39-.52-14.91-166.75z" fill="#177267"/><path d="m563.51 410.16-234.4 26.31c-6.16.69-11.67-3.84-12.19-10.01l-12.46-148.99c-.51-6.13 4.1-11.49 10.25-11.89L550 250.22c7.07-.46 13.21 4.83 13.8 11.89l11.21 134.05c.59 7.01-4.51 13.22-11.5 14z" fill="#52fffe"/><path d="M327.85 438.04c-2.88 0-5.64-.99-7.91-2.84a12.383 12.383 0 0 1-4.52-8.62l-12.46-148.99c-.28-3.37.78-6.64 2.99-9.2s5.28-4.09 8.66-4.31l235.29-15.36c7.86-.51 14.74 5.44 15.39 13.26l11.21 134.05c.66 7.88-4.98 14.74-12.83 15.62l-234.4 26.31c-.48.05-.95.08-1.42.08zm222.99-186.35c-.25 0-.5 0-.75.02L314.8 267.07c-2.56.17-4.9 1.33-6.58 3.28s-2.48 4.43-2.27 6.99l12.46 148.99c.22 2.58 1.44 4.91 3.44 6.55s4.52 2.39 7.09 2.1l234.4-26.31c6.23-.7 10.7-6.14 10.18-12.39l-11.21-134.05c-.5-5.96-5.56-10.54-11.46-10.54z" fill="#177267"/><path d="M559.84 351.6c-1.29 0-2.38-.99-2.49-2.29l-3.34-39.93a2.5 2.5 0 0 1 2.28-2.7c1.35-.12 2.58.91 2.7 2.28l3.34 39.93a2.5 2.5 0 0 1-2.28 2.7h-.21z" fill="#177267"/><path d="m464.93 255.77-58.94 3.92-1.59-17.72 58.95-3.92z" fill="#22DA49"/><path d="M405.99 261.19a1.5 1.5 0 0 1-1.49-1.37l-1.58-17.73c-.04-.4.09-.8.35-1.11s.64-.49 1.04-.52l58.94-3.92c.84-.06 1.52.55 1.59 1.36l1.58 17.73c.04.4-.09.8-.35 1.11s-.64.49-1.04.52l-58.94 3.92h-.1zm.05-17.83 1.32 14.74 55.95-3.72-1.32-14.74z" fill="#177267"/><path d="m480.86 437.34-58.7 6.59-1.59-17.73 58.71-6.59z" fill="#22DA49"/><path d="M422.16 445.43c-.34 0-.68-.12-.95-.34a1.5 1.5 0 0 1-.54-1.03l-1.58-17.73c-.07-.81.52-1.53 1.33-1.62l58.7-6.59c.4-.04.8.07 1.12.33.31.26.51.63.54 1.03l1.58 17.73c.07.81-.52 1.53-1.33 1.62l-58.7 6.59h-.17zm.04-17.9 1.32 14.74 55.72-6.26-1.32-14.74z" fill="#177267"/></svg></g><g transform="translate(476.0 475.0) rotate(0.0 66.5 45.5) scale(0.570035016436724 0.5716331748255262)"><svg width="233.319" height="159.193" viewBox="0 0 233.319 159.193"><path d="m.75 94.456 145.274-77.347a25.668 25.668 0 0 1 25.425-.27l61.114 27.03v10.877c0 2.355-.953 4.751-3.18 6.234L89.467 154.141a25.67 25.67 0 0 1-29.469-.713L3.653 111.844c-2.003-1.478-2.901-3.716-2.901-5.925L.75 94.456z" fill="#177267"/><path d="M75.247 159.177a26.407 26.407 0 0 1-15.694-5.146L3.208 112.448c-2.037-1.504-3.206-3.883-3.206-6.529L0 94.456a.75.75 0 0 1 .398-.662l145.273-77.347c7.996-4.673 18.023-4.779 26.142-.264l61.053 27c.271.12.447.389.447.686v10.877c0 2.871-1.281 5.371-3.514 6.858L89.883 154.765a26.384 26.384 0 0 1-14.636 4.412zM1.5 94.906l.002 11.013c0 2.164.946 4.104 2.596 5.322l56.346 41.583c8.41 6.207 19.907 6.485 28.608.692l139.915-93.161c1.808-1.204 2.846-3.249 2.846-5.609V44.357l-60.667-26.833c-7.72-4.289-17.177-4.189-24.744.232z" fill="#177267"/><path d="M4.291 88.497 145.705 5.868a26.314 26.314 0 0 1 26.066-.277l57.124 31.768c4.676 2.601 4.941 9.229.487 12.194L89.466 142.714a25.67 25.67 0 0 1-29.469-.713L3.653 100.417c-4.131-3.049-3.795-9.33.638-11.92z" fill="#177267"/><path d="M75.247 147.75a26.407 26.407 0 0 1-15.694-5.146L3.208 101.021a7.873 7.873 0 0 1-3.196-6.776 7.874 7.874 0 0 1 3.901-6.396l.378.648-.378-.648L145.327 5.221c8.218-4.802 18.491-4.911 26.809-.285l57.124 31.768a7.838 7.838 0 0 1 4.052 6.586 7.84 7.84 0 0 1-3.514 6.888L89.882 143.339a26.384 26.384 0 0 1-14.636 4.412zM4.67 89.145c-1.863 1.089-3.045 3.026-3.16 5.181s.852 4.207 2.589 5.489l56.346 41.584c8.41 6.207 19.907 6.485 28.608.692l139.914-93.162a6.35 6.35 0 0 0 2.846-5.58 6.352 6.352 0 0 0-3.283-5.335L171.406 6.246c-7.857-4.37-17.561-4.266-25.323.269z" fill="#177267"/><path d="M186.679 14.961s-.016 3.481.006 5.031a4.53 4.53 0 0 1-2.116 3.92l-15.416 9.817a20.798 20.798 0 0 1-21.699.394l-15.366-9.019a4.534 4.534 0 0 1-2.258-4.011c.022-1.507.02-5.215.02-5.215z" fill="#22DA49"/><path d="m169.905 2.867 14.417 7.956c3.039 1.677 3.175 5.996.247 7.861l-15.416 9.817a20.798 20.798 0 0 1-21.699.394l-15.366-9.019c-3.011-1.767-3.011-6.12 0-7.887l15.026-8.82a23.037 23.037 0 0 1 22.791-.302z" fill="#177267"/><g fill="#22DA49"><path d="M75.247 147.75a26.413 26.413 0 0 1-15.694-5.145L3.208 101.021a.75.75 0 0 1 .891-1.207l56.346 41.584c8.41 6.207 19.907 6.485 28.608.692l139.914-93.161a.75.75 0 1 1 .831 1.249L89.882 143.339a26.384 26.384 0 0 1-14.636 4.412zm84.532-134.5c-1.971 0-3.922-.414-5.42-1.251-1.609-.899-2.499-2.155-2.506-3.537-.007-1.429.923-2.748 2.618-3.715 3.139-1.791 8.037-1.869 11.152-.176 1.64.891 2.556 2.149 2.581 3.541.025 1.41-.869 2.723-2.517 3.695-1.626.959-3.778 1.443-5.908 1.443zm.499-8.399c-1.823 0-3.667.402-5.063 1.199-1.187.677-1.866 1.554-1.862 2.405.004.818.621 1.611 1.737 2.234 2.656 1.483 7.16 1.403 9.834-.175 1.163-.686 1.795-1.53 1.78-2.377-.015-.829-.653-1.628-1.797-2.25-1.277-.694-2.943-1.038-4.629-1.038zm5.027 6.31h.01zm-.446 13.653c-2.015 0-4.014-.435-5.556-1.313-1.661-.946-2.584-2.265-2.597-3.715-.013-1.483.92-2.858 2.629-3.872 3.2-1.899 8.228-1.991 11.448-.208 1.693.937 2.643 2.258 2.676 3.718.033 1.464-.863 2.832-2.522 3.851-1.664 1.022-3.88 1.539-6.077 1.539zm.445-8.886c-1.879 0-3.776.428-5.204 1.276-1.212.719-1.902 1.656-1.894 2.569.008.893.661 1.754 1.839 2.425 2.751 1.566 7.379 1.474 10.106-.201 1.186-.729 1.828-1.631 1.808-2.539-.02-.905-.696-1.771-1.903-2.439-1.317-.729-3.026-1.09-4.751-1.09zm-20.758 5.697c-2.018 0-4-.432-5.503-1.304-1.579-.916-2.446-2.192-2.442-3.594.005-1.483 1.024-2.914 2.795-3.925 3.282-1.873 8.306-1.957 11.438-.192 1.61.908 2.505 2.186 2.519 3.598.015 1.486-.94 2.872-2.688 3.903-1.704 1.005-3.932 1.513-6.12 1.513zm.866-8.784c-1.88 0-3.799.424-5.271 1.264-1.292.737-2.035 1.695-2.039 2.627-.003.842.599 1.656 1.694 2.291 2.669 1.548 7.297 1.454 10.108-.203 1.248-.736 1.959-1.683 1.95-2.597-.008-.854-.632-1.673-1.755-2.306-1.277-.72-2.965-1.076-4.686-1.076zm4.873 6.625h.01zm65.218 47.753-5.668 3.774a1 1 0 0 1-1.554-.832v-.168a3 3 0 0 1 1.337-2.497l5.668-3.774a1 1 0 0 1 1.554.832v.168a3 3 0 0 1-1.337 2.497zm-12.11 8.064-6.871 4.575a1 1 0 0 1-1.554-.832v-.168a3 3 0 0 1 1.337-2.497l6.871-4.575a1 1 0 0 1 1.554.832v.168a3 3 0 0 1-1.337 2.497zm-14.435 9.611-4.719 3.142a1 1 0 0 1-1.554-.832v-.168a3 3 0 0 1 1.337-2.497l4.719-3.142a1 1 0 0 1 1.554.832v.168a3 3 0 0 1-1.337 2.497z"/></g></svg></g><g transform="translate(474.0 3.0) rotate(0.0 26.5 38.0) scale(0.2807054711085218 0.2826455624646693)"><svg width="188.81" height="268.888" viewBox="0 0 188.81 268.888"><path d="M80.607 260.486c-2.455 6.117-22.434 3.858-44.624-5.047s-38.189-21.083-35.734-27.2l41.774-104.1 80.358 32.247-41.774 104.1z" fill="#177267"/><path d="M52.129 266.675c-1.339 3.336-10.389 2.844-20.214-1.099s-16.705-9.843-15.366-13.179l22.781-56.769 35.58 14.278-22.781 56.769z" fill="#177267"/><path d="M156.629 148.233c-15.405 13.556-40.728 35.849-66.123 99.133-4.934 12.294-37.612-1.119-49-5.689 0 0-44.279-17.468-39.345-29.762 25.395-63.284 22.506-96.898 20.746-117.343l133.723 53.661z" fill="#22DA49"/><path d="M79.873 253.905c-3.154 0-6.884-.486-11.182-1.459-10.094-2.285-21.127-6.719-27.055-9.101l-.69-.276c-1.409-.557-34.753-13.825-39.939-25.865-.889-2.063-.969-4.03-.239-5.849 25.267-62.965 22.373-96.574 20.643-116.654a1.5 1.5 0 0 1 2.054-1.522l133.723 53.661a1.501 1.501 0 0 1 .432 2.519c-15.13 13.315-40.455 35.6-65.722 98.565-1.598 3.982-5.628 5.98-12.024 5.98zM24.608 96.871c1.729 20.603 3.488 54.44-21.055 115.602-.427 1.064-.358 2.224.21 3.544 4.695 10.902 37.958 24.133 38.293 24.265l.7.281c5.85 2.351 16.738 6.726 26.599 8.958 7.809 1.769 17.574 2.731 19.759-2.713 24.544-61.162 49.205-84.397 64.697-98.089z" fill="#177267"/><g fill="#52fffe"><path d="M88.672 124.257c23.651 9.491 46.613 17.536 67.953 23.984 10.626-8.57 19.28-19.884 24.726-33.454 16.975-42.301-3.556-90.354-45.857-107.329C93.193-9.516 45.141 11.015 28.166 53.316c-5.444 13.567-7.012 27.721-5.26 41.256 19.9 10.107 42.082 20.181 65.766 29.685z"/><path d="M156.626 149.741c-.146 0-.292-.021-.434-.064-22.029-6.656-44.935-14.74-68.078-24.027-23.173-9.299-45.34-19.305-65.887-29.739a1.502 1.502 0 0 1-.809-1.146c-1.835-14.178.017-28.704 5.355-42.008 8.36-20.83 24.33-37.159 44.97-45.978s43.479-9.071 64.31-.712c20.831 8.358 37.159 24.329 45.978 44.969 8.818 20.641 9.072 43.479.712 64.31-5.339 13.307-14.045 25.086-25.176 34.063a1.502 1.502 0 0 1-.942.332zM24.296 93.596c20.269 10.265 42.11 20.11 64.935 29.269 22.795 9.148 45.355 17.123 67.066 23.71a81.073 81.073 0 0 0 23.663-32.346c8.061-20.087 7.817-42.11-.687-62.014s-24.25-35.304-44.336-43.363C114.85.79 92.827 1.034 72.923 9.539 53.02 18.043 37.619 33.788 29.559 53.875a81.071 81.071 0 0 0-5.262 39.722z"/></g></svg></g><g transform="translate(262.0 338.0) rotate(0.0 24.5 25.5) scale(0.27886859029082006 0.2788408966648442)"><svg width="175.71" height="182.9" viewBox="0 0 175.71 182.9"><path d="m152.62 142.3 21.26-95.72c1.67-7.51-3.07-14.95-10.58-16.62L36.7 1.83C29.19.16 21.75 4.9 20.08 12.41L1.83 94.53c-1.67 7.51 3.07 14.95 10.58 16.62l103.94 23.09 27.57 47.15 8.69-39.1z" fill="#fff"/><path d="M143.93 182.9c-.53 0-1.02-.28-1.29-.74l-27.24-46.59-103.31-22.95C3.78 110.77-1.47 102.51.37 94.21l18.24-82.12c.89-4.02 3.3-7.46 6.78-9.67C28.87.2 33-.52 37.02.37l126.6 28.12c8.31 1.85 13.56 10.11 11.72 18.41l-29.95 134.82c-.13.6-.62 1.06-1.23 1.16-.08.01-.16.02-.23.02zM33.65 3c-2.34 0-4.63.66-6.65 1.95-2.8 1.78-4.74 4.55-5.46 7.79L3.3 94.86c-1.49 6.69 2.75 13.35 9.44 14.83l103.94 23.09c.41.09.76.35.97.71l25.64 43.85 7.86-35.37 21.26-95.72c1.49-6.69-2.75-13.35-9.44-14.83L36.37 3.3c-.9-.2-1.82-.3-2.72-.3z" fill="#177267"/><path d="M104.34 47.51c-5.76-1.23-11.46.72-15.29 4.66-1.88-5.16-6.29-9.26-12.06-10.49-8.91-1.9-17.67 3.79-19.57 12.69-4.02 18.89 22.43 40.97 22.43 40.97s33.2-9.59 37.18-28.27c1.9-8.91-3.79-17.67-12.69-19.57z" fill="#52fffe"/></svg></g></svg>