<svg xmlns="http://www.w3.org/2000/svg" viewBox="0 0 318 400" width="318" height="400"><path fill="#FFF" d="M0 0h318v400H0z"/><g transform="translate(0.0 36.0) rotate(0.0 159.0 164.0) scale(0.5129594858790965 0.5118394072649985)"><svg width="619.932" height="640.826" viewBox="0 0 619.932 640.826"><circle cx="309.966" cy="330.86" fill="#177267" r="306.966"/><path d="M309.966 640.826c-82.795 0-160.634-32.242-219.179-90.787S0 413.655 0 330.86s32.242-160.634 90.787-219.179 136.384-90.787 219.179-90.787S470.6 53.136 529.145 111.681s90.787 136.384 90.787 219.179-32.242 160.634-90.787 219.179c-58.545 58.544-136.384 90.787-219.179 90.787zm0-613.932c-81.192 0-157.525 31.618-214.937 89.029S6 249.667 6 330.86s31.618 157.525 89.03 214.937 133.744 89.029 214.937 89.029 157.524-31.618 214.936-89.029 89.03-133.744 89.03-214.937-31.618-157.525-89.03-214.937-133.745-89.029-214.937-89.029z" fill="#0b122d"/><path d="M362.817 459.732s-42.159 123.054-77.28 119.937c-35.121-3.116-54.956-131.67-54.956-131.67l5.992-67.527 132.236 11.733z" fill="#f09c9a"/><path d="M286.831 582.727a17.61 17.61 0 0 1-1.56-.069c-15.925-1.413-30.482-24.683-43.266-69.164-9.294-32.337-14.339-64.714-14.389-65.038a2.966 2.966 0 0 1-.023-.723l5.992-67.527a3 3 0 0 1 3.253-2.723l132.236 11.733a3.001 3.001 0 0 1 2.723 3.253l-5.992 67.527a2.99 2.99 0 0 1-.15.707c-.106.31-10.773 31.293-25.615 61.488-19.752 40.184-37.644 60.534-53.208 60.534zm-53.23-134.826c5.5 35.374 25.409 126.404 52.2 128.781 26.817 2.388 62.417-83.725 74.059-117.578l5.694-64.175-126.259-11.203zm129.216 11.831h.01z" fill="#0b122d"/><path d="M558.115 499.879c-70.904-37.533-152.237-46.718-200.088-43.857 0 0-43.035 99.706-64.884 114.517-26.416-31.559-29.792-80.597-67.71-121.06-50.058 3.25-121.279 15.671-179.887 37.349 53.422 90.373 151.833 150.998 264.42 150.998 105.631 0 198.793-53.36 254.021-134.589a104.914 104.914 0 0 0-5.873-3.358z" fill="#fdf151"/><path d="M309.966 640.826c-54.867 0-108.779-14.529-155.908-42.018-45.731-26.672-84.147-64.867-111.095-110.453a2.998 2.998 0 0 1 1.542-4.34c62.365-23.068 134.253-34.512 180.734-37.529a2.986 2.986 0 0 1 2.383.942c21.506 22.949 32.266 49.027 41.76 72.034 7.131 17.281 13.888 33.656 24.241 46.9 21.511-18.911 61.237-110.573 61.649-111.529a3 3 0 0 1 2.575-1.806c48.981-2.928 131.192 6.896 201.67 44.2a106.007 106.007 0 0 1 6.041 3.454 3 3 0 0 1 .909 4.242c-57.859 85.097-153.748 135.902-256.502 135.902zM49.985 488.4c26.323 43.34 63.287 79.674 107.096 105.226 46.212 26.953 99.079 41.2 152.885 41.2 99.702 0 192.816-48.781 249.734-130.648a100.237 100.237 0 0 0-2.989-1.647c-68.511-36.268-148.266-46.151-196.669-43.616-5.99 13.708-44.239 99.888-65.215 114.108a2.998 2.998 0 0 1-3.983-.558c-11.992-14.326-19.285-32.001-27.007-50.714-9.6-23.265-19.521-47.31-39.63-69.184-45.241 3.072-113.9 14.05-174.222 35.833z" fill="#0b122d"/><path d="M298.256 423.876c11.787 2.317 44.954 5.277 67.822-.897l-2.55 28.738c-24.54-3.518-45.488-12.031-65.272-27.841z" fill="#0b122d"/><path d="M363.528 454.716a3.05 3.05 0 0 1-.426-.03c-25.851-3.706-47.052-12.751-66.719-28.467a2.998 2.998 0 0 1 2.451-5.287c11.478 2.257 44.148 5.176 66.461-.85a3.003 3.003 0 0 1 3.771 3.162l-2.55 28.738a3.002 3.002 0 0 1-2.988 2.734zm-53.913-26.233c15.335 10.246 31.911 16.63 51.208 19.783l1.898-21.392c-17.164 3.69-38.636 3.075-53.105 1.609z" fill="#0b122d"/><path d="M289.34 422.11c11.709 2.618 22.752 3.885 32.03 4.31 67.414 3.091 109.771-28.867 128.065-60.22 15.775-27.036 21.911-51.107 23.995-93.34 4.416-89.486-13.411-170.173-135.786-176.212s-148.06 72.5-152.476 161.986c-2.018 40.893 2.459 75.205 15.234 100.472 8.778 17.361 20.479 29.086 34.63 38.738" fill="#f09c9a"/><path d="M330.455 429.631c-3.043 0-6.116-.071-9.223-.213-10.665-.489-21.919-2.003-32.547-4.379a3 3 0 1 1 1.309-5.855c10.294 2.301 21.191 3.768 31.513 4.241 30.437 1.393 57.654-4.269 80.888-16.835 18.845-10.193 34.63-25.073 44.448-41.9 15.56-26.668 21.513-49.877 23.591-91.976 2.625-53.185-3.707-90.588-19.925-117.711-20.639-34.515-57.605-52.622-113.013-55.356-55.408-2.74-93.978 11.645-117.914 43.96-18.81 25.394-28.793 61.993-31.417 115.177-2.073 41.998 2.945 75.296 14.915 98.97 7.722 15.272 18.412 27.225 33.643 37.613a3 3 0 1 1-3.381 4.957c-16.101-10.982-27.418-23.649-35.616-39.863-12.445-24.614-17.678-58.923-15.554-101.973 2.686-54.423 13.042-92.062 32.589-118.453 25.222-34.051 65.466-49.22 123.032-46.382 57.565 2.841 96.12 21.902 117.867 58.271 16.854 28.187 23.454 66.663 20.768 121.086-2.105 42.653-8.491 67.435-24.401 94.704-10.365 17.764-26.977 33.445-46.776 44.154-21.821 11.803-46.946 17.765-74.793 17.765z" fill="#0b122d"/><path d="M417.111 243.383c-11.297-5.79-22.987-8.305-37.226-10.693-9.129-1.531-9.074-11.882 3.917-16.954 12.21-4.767 35.738 1.403 42.97 12.801 7.545 11.891-.441 19.572-9.661 14.846z" fill="#5c79f7"/><path d="M422.502 247.791c-2.17 0-4.486-.573-6.759-1.738-10.449-5.355-21.242-7.87-36.354-10.405-5.025-.842-8.42-4.014-8.861-8.276-.465-4.495 2.491-10.646 12.183-14.43 12.922-5.046 38.321.948 46.594 13.989 5.121 8.07 3.783 14.412.825 17.655-1.934 2.12-4.642 3.205-7.628 3.205zm-28.57-30.773c-3.266 0-6.361.467-9.039 1.513-6.107 2.384-8.634 5.935-8.397 8.224.221 2.135 2.79 2.793 3.885 2.977 15.693 2.632 26.957 5.272 38.098 10.982 2.924 1.498 5.756 1.431 7.218-.171 1.841-2.019 1.269-6.1-1.458-10.397-4.44-6.998-18.483-13.127-30.307-13.127z" fill="#0b122d"/><path d="M294.139 235.18c-12.64 1.176-23.854 5.325-37.151 10.95-8.525 3.606-14.033-5.158-5.792-16.408 7.745-10.574 30.91-17.992 43.129-12.253 12.747 5.987 10.129 16.752-.187 17.712z" fill="#5c79f7"/><path d="M253.261 249.949c-2.814 0-5.312-1.125-7.022-3.286-2.804-3.544-3.61-10.321 2.538-18.714 8.197-11.189 32.845-19.761 46.825-13.196 8.651 4.063 10.926 10.132 10.169 14.458-.854 4.879-5.31 8.395-11.353 8.957-11.691 1.087-22.148 4.756-36.26 10.726-1.675.708-3.334 1.055-4.896 1.056zm30.815-31.402c-10.613 0-24.55 4.879-30.46 12.947-3.874 5.289-4.101 9.64-2.672 11.445 1.331 1.683 3.853.86 4.876.428 14.654-6.199 25.577-10.015 38.042-11.174 3.271-.304 5.625-1.881 5.999-4.017.471-2.691-2.202-5.829-6.81-7.993-2.365-1.111-5.491-1.636-8.974-1.636zm10.063 16.633h.01z" fill="#0b122d"/><ellipse cx="394.828" cy="264.867" fill="#0b122d" rx="9.835" ry="8.261" transform="matrix(.04928558 -.99878473 .99878473 .04928558 110.823 646.16)"/><ellipse cx="286.112" cy="261.991" fill="#0b122d" rx="9.835" ry="8.261" transform="matrix(.04928558 -.99878473 .99878473 .04928558 10.337 534.842)"/><path d="M326.648 342.449c-11.798 21.177-53.241 15.553-52.603-11.589z" fill="#177267"/><path d="M301.962 358.328c-3.397 0-6.749-.445-9.867-1.294-13.279-3.617-21.345-13.673-21.049-26.245a3.003 3.003 0 0 1 1.147-2.29 2.991 2.991 0 0 1 2.497-.569l52.603 11.589a3 3 0 0 1 1.975 4.39c-5.596 10.045-16.666 14.419-27.306 14.419zm-24.685-23.684c1.229 8.004 7.137 14.079 16.395 16.601 11.958 3.258 22.328-.672 27.895-6.843zm-91.286-87.063c5.737-25.298 17.917-155.516 134.179-151.362 158.17 5.652 142.05 124.798 150.107 167.532 1.699 9.009 24.296 7.338 27.255-8.835 8.288-45.287 11.472-125.893-47.67-170.231-80.833-60.599-195.043-47.581-248.537 1.716-46.973 43.287-52.296 108.661-41.274 157.192 8.472 37.304 25.939 3.987 25.939 3.987z" fill="#0b122d"/><path d="M479.537 272.193c-6.515 0-11.304-3.091-12.208-7.885-1.181-6.263-1.836-13.916-2.596-22.778-2.18-25.448-5.166-60.3-24.129-88.815-22.547-33.905-61.977-51.404-120.541-53.497-44.067-1.571-77.91 16.542-100.608 53.847-18.71 30.75-25.238 66.625-28.746 85.899-.707 3.883-1.265 6.951-1.793 9.28a2.998 2.998 0 0 1-.269.729c-.885 1.688-8.932 16.463-18.365 15.227-5.983-.781-10.287-7.304-13.157-19.942-6.126-26.973-6.525-56.038-1.123-81.842 6.598-31.513 21.162-57.831 43.289-78.221 27.523-25.364 69.777-40.986 115.928-42.86 50.049-2.039 98.506 12.51 136.442 40.95 26.718 20.03 43.633 49.178 50.276 86.636 5.851 32.988 2.438 65.266-1.454 86.535-2.005 10.956-12.027 16.712-20.891 16.736h-.056zM314.765 93.122c1.82 0 3.658.033 5.512.1 32.097 1.147 59.291 7.101 80.827 17.698 18.652 9.178 33.624 22.122 44.497 38.473 19.814 29.794 22.875 65.532 25.111 91.625.745 8.7 1.389 16.213 2.514 22.179.393 2.081 3.457 3.034 6.351 2.997 5.165-.014 13.423-3.172 15.005-11.816 3.804-20.784 7.143-52.299 1.449-84.407-6.369-35.91-22.507-63.796-47.967-82.883-36.835-27.614-83.932-41.736-132.6-39.756-44.751 1.818-85.612 16.863-112.105 41.278-21.189 19.526-35.146 44.773-41.482 75.038-5.229 24.978-4.839 53.134 1.1 79.283 3.013 13.267 6.655 15.134 8.081 15.321 3.721.476 9.311-6.585 12.095-11.723.477-2.164 1.001-5.046 1.655-8.638 3.577-19.656 10.235-56.244 29.522-87.944 22.955-37.727 56.725-56.824 100.436-56.824zM185.991 247.581h.01z" fill="#0b122d"/><path d="M468.131 266.758c10.189-15.768 30.394-22.713 48.537-15.576 20.692 8.14 30.868 31.512 22.729 52.205-8.14 20.692-31.512 30.868-52.205 22.729-7.303-2.873-13.621-7.741-17.962-13.621-1.099 5.673-2.295 11.176-3.655 16.388" fill="#f09c9a"/><path d="M501.879 331.912a43.052 43.052 0 0 1-15.785-3.003c-5.679-2.234-10.892-5.645-15.133-9.849a235.698 235.698 0 0 1-2.483 10.582 3 3 0 0 1-5.806-1.516c1.236-4.734 2.417-10.034 3.613-16.201a3 3 0 0 1 5.359-1.21c4.066 5.509 9.978 9.987 16.646 12.611 19.124 7.519 40.794-1.916 48.315-21.036s-1.916-40.794-21.035-48.315c-16.45-6.472-35.342-.41-44.919 14.412a3 3 0 1 1-5.039-3.257c11.122-17.211 33.057-24.251 52.155-16.739 22.198 8.732 33.154 33.896 24.423 56.095-6.694 17.016-23.043 27.426-40.311 27.426z" fill="#0b122d"/><path d="M493.058 298.339a3 3 0 0 1-1.487-5.607l23.183-13.208a3 3 0 1 1 2.969 5.213l-23.183 13.208a2.985 2.985 0 0 1-1.482.394z" fill="#0b122d"/><path d="M510.929 305.369a2.999 2.999 0 0 1-2.735-1.765l-12.277-27.156a2.999 2.999 0 0 1 1.498-3.969 2.997 2.997 0 0 1 3.969 1.498l12.277 27.156a2.999 2.999 0 0 1-2.732 4.237z" fill="#0b122d"/><path d="M193.4 256.556c-7.55-20.674-31.355-29.133-50.097-23.761-21.375 6.126-33.737 28.42-27.611 49.796 6.126 21.375 28.42 33.737 49.796 27.611 7.544-2.162 15.065-6.112 19.947-11.551.273 4.427.882 9.876 1.71 15.992" fill="#f09c9a"/><path d="M187.142 317.643a3.001 3.001 0 0 1-2.969-2.598 307.903 307.903 0 0 1-1.216-10.068c-4.539 3.475-10.261 6.28-16.642 8.108-11.109 3.185-22.792 1.851-32.898-3.752-10.105-5.604-17.425-14.807-20.608-25.916-6.572-22.931 6.737-46.934 29.668-53.506 19.325-5.538 45.366 2.681 53.742 25.616a3 3 0 1 1-5.636 2.058c-5.6-15.333-24.95-28.068-46.453-21.907-19.751 5.661-31.214 26.334-25.554 46.085 5.662 19.751 26.336 31.214 46.085 25.554 7.669-2.198 14.427-6.087 18.542-10.67a3 3 0 0 1 5.226 1.818c.253 4.089.805 9.249 1.688 15.774a2.999 2.999 0 0 1-2.976 3.403z" fill="#0b122d"/><path d="M164.515 282.043c-.597 0-1.2-.178-1.725-.547l-21.816-15.361a3 3 0 1 1 3.454-4.906l21.816 15.361a3 3 0 0 1-1.73 5.453z" fill="#0b122d"/><path d="M146.053 287.334a3 3 0 0 1-2.6-4.491l14.814-25.859a3 3 0 1 1 5.206 2.982l-14.814 25.859a2.999 2.999 0 0 1-2.606 1.509z" fill="#0b122d"/><path d="M466.035 223.498c11.252-1.781 31.53-8.16 44.954-15.1 3.378-17.755 2.168-39.058-.617-61.577 11.536 17.559 15.838 32.277 18.28 50.856 5.91-4.265 10.85-8.741 14.126-13.152C528.209 130.155 495.611 1.177 334.836 3.02 155.294 5.077 133.58 144.386 134.217 201.812c0 0 36.592 15.507 58.248 13.253 0 0 6.968-37.958 16.332-54.744s237.412-19.123 246.185 6.628c8.774 25.751 11.052 56.549 11.052 56.549z" fill="#5c79f7"/><path d="M466.034 226.498a3.002 3.002 0 0 1-2.992-2.778c-.023-.305-2.357-30.729-10.9-55.803-1.758-5.161-19.953-10.29-47.484-13.385-32.623-3.668-79.006-4.851-121.048-3.087-49.575 2.08-70.336 7.325-72.196 10.342-9.016 16.163-15.93 53.446-15.999 53.82a2.998 2.998 0 0 1-2.64 2.442 47.473 47.473 0 0 1-4.895.239c-22.2.001-53.418-13.114-54.834-13.714a3.002 3.002 0 0 1-1.83-2.729c-.233-21.082 2.537-75.157 33.236-121.841C198.76 27.832 256.074.922 334.802.02c1.141-.013 2.293-.02 3.422-.02C496.53 0 530.559 127.248 545.157 181.811l.519 1.938c.237.885.057 1.83-.49 2.565-3.326 4.479-8.298 9.121-14.779 13.796a3.001 3.001 0 0 1-4.73-2.041c-1.699-12.929-4.373-24.695-10.802-37.513 1.836 20.229 1.515 35.505-.938 48.403a2.999 2.999 0 0 1-1.57 2.104c-14.014 7.245-34.718 13.633-45.863 15.397a2.965 2.965 0 0 1-.469.037zm-143.218-81.85c25.723 0 51.268.986 72.324 2.891 58.193 5.265 61.572 15.183 62.683 18.441 7.209 21.159 10.064 45.267 10.912 53.978 10.728-2.172 27.414-7.504 39.571-13.562 2.594-14.846 2.305-33.208-.911-59.207a3 3 0 0 1 5.485-2.016c11.149 16.971 15.555 31.365 18.017 47.028 3.542-2.852 6.421-5.643 8.6-8.338l-.134-.501c-7.251-27.103-19.387-72.465-49.145-110.17C454.431 27.848 402.185 5.254 334.87 6.02c-76.61.877-132.26 26.879-165.404 77.281-28.872 43.906-32.286 94.708-32.261 116.489 7.265 2.9 34.681 13.282 52.745 12.454 1.68-8.565 7.962-38.569 16.227-53.385 1.408-2.524 5.404-5.804 23.955-8.778 11.969-1.919 28.352-3.429 47.378-4.365 14.55-.716 29.961-1.067 45.306-1.067z" fill="#0b122d"/><path d="M183.407 183.36c12.506 6.499 32.545 10.97 56.543 13.793 2.617-18.432 14.741-35.368 32.675-51.389-1.962 20.024-.556 38.625 7.301 54.502 76.596 3.435 169.977-4.697 199.788-15.874-.62-55.905-51.832-134.253-147.497-133.227-100.694 1.081-146.753 70.44-148.81 132.195z" fill="#5c79f7"/><g fill="#0b122d"><path d="M316.375 204.039c-12.517 0-24.826-.25-36.583-.777a3.003 3.003 0 0 1-2.555-1.667c-6.51-13.154-9.206-29.045-8.185-48.399-15.477 15.108-24.045 29.679-26.132 44.378a2.999 2.999 0 0 1-3.321 2.558c-26.093-3.069-45.464-7.817-57.576-14.11a3.002 3.002 0 0 1-1.615-2.762c2.142-64.304 50.552-134.008 151.776-135.095.629-.006 1.267-.01 1.893-.01 96.019 0 148 78.809 148.637 136.203a2.999 2.999 0 0 1-1.947 2.842c-26.292 9.857-98.218 16.838-164.393 16.838zm-34.519-6.692c77.855 3.305 165.228-5.072 194.811-15.056-1.855-54.69-51.641-128.136-142.595-128.136-.605 0-1.213.003-1.822.01-45.115.484-82.9 15.156-109.269 42.43-21.729 22.475-34.968 53.34-36.497 84.948 11.115 5.324 28.241 9.452 50.983 12.288 3.267-16.828 14.143-33.315 33.159-50.304a3.001 3.001 0 0 1 4.984 2.53c-2.051 20.928-.008 37.731 6.246 51.291z"/><path d="M271.163 313.214c-.292 0-.583-.002-.876-.007-15.521-.228-30.024-6.486-40.838-17.622s-16.644-25.817-16.416-41.338 6.486-30.024 17.622-40.838c11.136-10.813 25.821-16.641 41.337-16.415 15.521.228 30.024 6.486 40.838 17.622s16.644 25.817 16.416 41.337c-.228 15.521-6.486 30.024-17.622 40.838-10.926 10.61-25.265 16.422-40.461 16.422zm-.044-110.226c-13.628 0-26.484 5.211-36.283 14.726-9.986 9.697-15.599 22.703-15.803 36.621-.205 13.918 5.023 27.083 14.721 37.07s22.703 15.599 36.622 15.803c13.924.216 27.083-5.024 37.069-14.721s15.599-22.703 15.803-36.621-5.023-27.083-14.721-37.069c-9.697-9.986-22.703-15.599-36.622-15.803a51.618 51.618 0 0 0-.787-.005zm-55.086 51.303h.01zm187.547 59.67c-.3 0-.599-.002-.899-.007-15.521-.234-30.021-6.498-40.831-17.638s-16.634-25.823-16.4-41.344 6.498-30.021 17.638-40.831c11.141-10.81 25.827-16.658 41.344-16.4 15.521.234 30.021 6.498 40.831 17.638s16.634 25.823 16.4 41.344-6.498 30.021-17.638 40.831c-10.925 10.601-25.257 16.407-40.445 16.407zm-.045-110.227c-13.621 0-26.472 5.207-36.269 14.713-9.99 9.693-15.607 22.697-15.817 36.616-.209 13.918 5.013 27.085 14.707 37.075 9.693 9.99 22.697 15.607 36.615 15.817 13.89.193 27.085-5.014 37.075-14.707s15.607-22.697 15.817-36.616c.209-13.918-5.013-27.085-14.707-37.075-9.693-9.99-22.697-15.607-36.615-15.817a54.142 54.142 0 0 0-.806-.006z"/><path d="M348.433 259.235h-.045l-22.185-.326a3 3 0 0 1-2.956-3.043c.024-1.656 1.399-3.009 3.043-2.956l22.185.326a3 3 0 0 1-.043 5.999zm125.721 3.271c-.179 0-.36-.016-.542-.049l-15.487-2.828a3 3 0 1 1 1.078-5.902l15.487 2.828a3 3 0 0 1-.536 5.951zm-258.12-5.214c-.31 0-.625-.048-.935-.15l-29.969-9.82a3 3 0 1 1 1.868-5.702l29.969 9.82a3 3 0 0 1-.934 5.852z"/></g><path d="M365.243 432.394s47.576 9.999 53.095 19.051c5.52 9.052-22.477 111.465-28.474 113.231-11.551 3.401-53.96-44.649-50.924-42.837l-28.974 28.547c6.325-46.931 39.475-69.565 55.277-117.991z" fill="#fdf151"/><path d="M388.555 567.859c-4.29 0-12.209-3.272-29.437-19.661-8.597-8.179-16.742-17.058-20.612-21.722l-26.436 26.046a2.999 2.999 0 0 1-5.078-2.538c3.605-26.75 15.592-45.609 28.283-65.575 9.939-15.638 20.218-31.809 27.115-52.946a3 3 0 0 1 3.469-2.005c8.156 1.714 49.144 10.756 55.04 20.425.947 1.553 3.828 6.277-6.02 47.476-5.296 22.158-12.424 46.516-17.334 59.233-3.277 8.488-4.931 10.4-6.835 10.961a7.531 7.531 0 0 1-2.155.306zm-46.718-46.799c2.012 2.666 10.843 12.736 21.463 22.835 17.341 16.489 23.585 17.955 25.255 17.955h.008c2.69-3.697 10.084-25.328 17.367-53.401 9.362-36.086 11.003-52.953 9.822-55.485-2.893-4.74-26.466-12.25-48.519-17.074-7.099 20.593-17.156 36.416-26.895 51.738-10.797 16.988-21.07 33.149-25.758 53.999l21.58-21.262a3.02 3.02 0 0 1 .515-.693c.836-.834 2.336-1.285 3.801-.411a3.002 3.002 0 0 1 1.361 1.798z" fill="#0b122d"/><path d="M277.163 544.842c-10.576-11.06-22.581-31.3-30.715-26.899-8.134 4.402-43.132 41.782-49.68 39.644s-32.231-114.078-32.231-114.078l60.514-26.158c18.559 54.079 45.308 84.736 52.111 127.491z" fill="#fdf151"/><path d="M197.354 560.673c-.542 0-1.043-.08-1.516-.234-2.388-.779-5.659-1.848-20.545-59.948-7.166-27.965-13.614-56.03-13.678-56.311a3 3 0 0 1 1.733-3.425l60.514-26.158a2.998 2.998 0 0 1 4.028 1.781c7.993 23.291 17.325 41.818 26.349 59.735 11.786 23.4 21.965 43.609 25.887 68.259a3 3 0 0 1-5.131 2.545c-2.962-3.097-6.033-6.893-9.002-10.564-6.072-7.506-14.384-17.791-18.117-15.769-2.771 1.5-10.184 8.348-17.354 14.971-19.631 18.136-28.105 25.119-33.169 25.12zm1.013-5.567zm-30.345-109.834c14.817 64.321 26.205 103.391 29.936 109.287 4.708-1.439 20.068-15.629 28.494-23.413 9.384-8.669 15.302-14.073 18.569-15.841 8.114-4.392 16.626 6.131 25.638 17.273.417.515.835 1.033 1.255 1.55-4.744-19.005-13.334-36.06-23.034-55.317-8.313-16.505-17.687-35.116-25.598-57.427l-55.261 23.888zm118.242 194.644a3 3 0 0 1-2.995-3.22c2.057-27.903 4.381-50.315 6.909-66.616a2.994 2.994 0 0 1 3.424-2.504 3 3 0 0 1 2.504 3.424c-2.503 16.142-4.809 38.394-6.854 66.137a3 3 0 0 1-2.989 2.779z" fill="#0b122d"/><path d="M309.966 640.826c-82.795 0-160.634-32.242-219.179-90.787S0 413.655 0 330.86a3 3 0 1 1 6 0c0 81.192 31.618 157.525 89.03 214.937s133.744 89.029 214.937 89.029 157.524-31.618 214.936-89.029 89.03-133.744 89.03-214.937a3 3 0 1 1 6 0c0 82.795-32.242 160.634-90.787 219.179-58.545 58.544-136.384 90.787-219.179 90.787z" fill="#0b122d"/></svg></g></svg>