<svg xmlns="http://www.w3.org/2000/svg" viewBox="0 0 318 400" width="318" height="400"><path fill="#FFF" d="M0 0h318v400H0z"/><g transform="translate(0.0 61.0) rotate(0.0 159.0 139.5) scale(0.3101446561490567 0.30942996124916544)"><svg width="1025.328" height="901.658" viewBox="0 0 1025.328 901.658"><clipPath id="a"><circle cx="450.829" cy="450.829" r="450.829"/></clipPath><circle cx="450.829" cy="450.829" fill="#177267" r="450.829"/><path d="M709.814 541.973c-37.726-12.68-130.952-31.339-154.01-34.183 0 0-111.5-18.426-161.423-27.732s-160.9-16.438-203.657-1.814c-26.018 8.9-43.606 165.025-54.807 295.195a450.932 450.932 0 0 0 565.5 52.21c16.436-116.512 35.967-274.41 8.397-283.676z" fill="#f62"/><path d="m399.919 320.467 171.526 17.886-20.847 199.923a86.228 86.228 0 0 1-94.706 76.82 86.228 86.228 0 0 1-76.82-94.706l20.847-199.923z" fill="#e09273"/><g fill="#f62"><path d="M376.919 477.242c14.787 34.47 95.7 73.441 95.7 73.441l8.863 67.955 35.473-74.425 51.606-40.321 22.458 13.034s-20.937 123.6-111.862 116.107-133.5-153.226-133.5-153.226z"/><path d="m384.239 430.159-71.476 37.682c19.773 51.6 48.09 96.577 87.847 132.669 17.485-21.017 35.132-41.432 57.682-43.674l23.189 61.8v-75.81c-41.922-25.052-88.4-72.333-97.242-112.667zm97.242 188.479 25.382-81.421c25.283-15.106 39.519-36.2 54.2-67.339l38.533 44.9C590.314 547.51 572.2 579.889 547.245 612c-6.7-25.775-15.087-47.942-31.408-53.1zm346.776 78.841c-32.957-81.765-73.021-143.344-118.443-155.506-56.359-15.09-130.723 126.612-100.222 251.781 0 0 7.356 29.948 19.737 71.177a452.557 452.557 0 0 0 198.928-167.452zM190.724 478.244C129.057 493.053 82.27 563.233 42.169 641.46a452.749 452.749 0 0 0 167.972 190.631C238.318 771.986 260 717.624 260 717.624c39.331-84.709 24.226-261.836-69.276-239.38z"/></g><path d="M481.483 626.138q-.306 0-.613-.025a7.5 7.5 0 0 1-6.411-4.84l-20.676-55.106a85.9 85.9 0 0 0-11.523 5.553c-9.371 5.376-23.138 15.482-35.512 33.1a7.5 7.5 0 0 1-11.527.906c-3.116-3.221-76.483-79.517-89.761-136.173a7.5 7.5 0 0 1 14.605-3.423c10.23 43.653 62.116 103.241 79.928 122.722 26.061-32.43 55.4-39.065 56.724-39.349a7.5 7.5 0 0 1 8.6 4.7l17.6 46.9 26.422-45.94a7.5 7.5 0 0 1 9.886-2.954c.958.484 20.973 10.963 31.628 43.716 13.177-16.8 36.459-50.25 41.329-82.273a7.5 7.5 0 0 1 14.829 2.256c-7.533 49.533-52.321 99.062-54.224 101.146a7.5 7.5 0 0 1-12.9-3.628c-3.831-19.732-11.4-31.889-17.077-38.613a53.275 53.275 0 0 0-4.661-4.881l-30.162 52.443a7.5 7.5 0 0 1-6.504 3.763z" fill="#c83400"/><g clip-path="url(#a)" fill="#c83400"><path d="M446.649 908.812q-.31 0-.626-.026a7.5 7.5 0 0 1-6.857-8.092c5.787-70.032 28.2-245.623 34.931-283.373a7.5 7.5 0 0 1 14.767 2.634c-6.521 36.559-29.127 213.95-34.749 281.974a7.5 7.5 0 0 1-7.466 6.883zm237.484-61.069h-.239a7.5 7.5 0 0 1-7.262-7.731c.751-23.989 2.74-60.572 6.072-91.3a7.5 7.5 0 1 1 14.912 1.617c-3.286 30.308-5.25 66.444-5.992 90.155a7.5 7.5 0 0 1-7.491 7.259zm-546.01-66.609q-.333 0-.67-.03a7.5 7.5 0 0 1-6.809-8.132c2.264-25.582 4.083-45.942 5.175-55.884a7.5 7.5 0 1 1 14.91 1.637c-1.076 9.8-2.887 30.076-5.144 55.569a7.5 7.5 0 0 1-7.462 6.84z"/></g><path d="M606.586 143.49c22.244 82.536 81.476 204.33 73.954 232.944-12.421 47.248-139.881 82.41-214.6 51.643-86.863-35.767-86.1-113.676-93.385-183.1C357.6 102.376 584.072 59.947 606.586 143.49z" fill="#e09273"/><path d="M416.011 310.234c18.164-14.019 26.606-45.771 22.3-72.084 20.49 5.207 57.073-13.176 59.538-33.44 17.938 3.47 49.6-15.525 44.858-31.808 0 0 50.171 35.762 89.715 4.078 31.583-25.3 15.137-68.935-3.594-82.994-27.438-20.594-54.687-16.752-65.6-9.411-17.847-33.207-64.984-28.986-73.4 4.707-22.544-37.211-98.942-21.818-105.328 28.024-20.534-1.808-32.514 20-20.534 36.7-44.135-8.258-68.783 55.212-36.407 86.045-11.517 10.676-14.794 60.258 15.328 70.181-12.359 36.321 12.629 79.141 49.861 79.051l2.121-20.346z" fill="#773a11"/><path d="M416.011 310.234c-10.458-18.5-68.494-26.223-53.764 25.515 9.6 33.716 41.918 36.45 53.764 30.983s11.847-35.539 0-56.498z" fill="#e09273"/><path d="M599.589 274.412a7.5 7.5 0 0 1-6.876-10.489c3.988-9.189 12.482-16.394 23.3-19.767 11.419-3.56 23.642-2.32 32.7 3.32a7.5 7.5 0 0 1-7.929 12.733c-5.324-3.315-13.105-3.978-20.306-1.733-6.653 2.074-11.759 6.236-14.009 11.42a7.5 7.5 0 0 1-6.88 4.516zm-109.255 42.255a7.507 7.507 0 0 1-7.068-10.012c4.393-12.371 15.882-22.735 29.982-27.046 12.782-3.906 25.459-2.2 34.782 4.686a7.5 7.5 0 1 1-8.911 12.066c-5.463-4.035-13.3-4.912-21.485-2.407-9.5 2.9-17.441 9.86-20.233 17.72a7.5 7.5 0 0 1-7.067 4.993z" fill="#111"/><path d="M604.827 329.889a7.505 7.505 0 0 1-6.884-10.471c3.483-8.08 1.464-13.548-.334-14.554-1.721-.964-6.526 1.076-11.835 8.618a7.5 7.5 0 0 1-12.266-8.635c11.416-16.217 23.72-17.387 31.426-13.073 9.925 5.554 12.777 19.677 6.783 33.582a7.5 7.5 0 0 1-6.89 4.533z" fill="#a85f36"/><path d="M567.17 221.5c-9.408 17.307 19.456 33.473 25.881 16.728 6.541-17.051 20.4-25.585 34.923-25.5 10.247.063 13.117-19.193-8.549-19.2-19.549.002-43.24 11.392-52.255 27.972zm-35.206 12.675c-14.121-3.284-51.49 9.887-61.173 22.212-10.844 13.8 0 28.671 10.69 18.635 12.868-12.082 37.011-13.5 53.3-10.706s17.198-25.486-2.817-30.141z" fill="#4f2000"/><path d="M693.232 327.482c95.716-40.066 255.849-106.982 272.787-113.335 24.328-9.123 12.164-32.612-13.38-31.626l49.872 3.041c20.678-4.027 36.879 29.2 4.257 43.181-19.591 8.4-201.649 78.194-307.041 118.521-43.911 16.802-48.251-2.303-6.495-19.782z" fill="#297700"/><path d="M952.639 182.521c-18.993 0-24.935 22.373-14.6 31.018l54.7 2.419c-12.122-11.064-9.081-25.53 9.773-30.4z" fill="#40b509"/><path d="m621.979 357.33 3.234 18.423 74.514-28.489-6.495-19.782z" fill="#ffd215"/><path d="M405.984 350.2a7.5 7.5 0 0 1-7.069-4.994c-4.985-14.055-14.074-23.49-20.7-21.47a7.5 7.5 0 1 1-4.367-14.35c15.022-4.575 31.145 8.095 39.2 30.805a7.5 7.5 0 0 1-7.068 10.009z" fill="#a85f36"/><path d="M387.086 340.078a7.5 7.5 0 0 1-6.281-11.59l6.626-10.19a7.5 7.5 0 0 1 12.576 8.178l-6.627 10.19a7.493 7.493 0 0 1-6.294 3.412zm235.08 48.497a7.5 7.5 0 0 1-6.081-11.882c1.912-2.656 3.971-6.588 2.925-10.24-.944-3.295-4.424-6.322-9.8-8.524a7.5 7.5 0 1 1 5.686-13.881c12.451 5.1 16.95 12.753 18.532 18.274 1.491 5.2 1.805 13.444-5.171 23.135a7.493 7.493 0 0 1-6.091 3.118zm-92.622 59.497c-23.529 0-40.806-4.353-50.47-7.627a7.5 7.5 0 0 1 4.813-14.207c12.39 4.2 38.737 10.342 75.979 4.341a7.5 7.5 0 1 1 2.387 14.809 205.533 205.533 0 0 1-32.709 2.684z" fill="#a85f36"/><path d="M534.613 118.37c5.087-19.67 20.967-29.287 28.61-33.795 13.674-8.066 39.949-11.625 65.6 9.411s29.535 67.37 3.594 82.994-53.253 14.493-78.947 2.221-22.97-44.928-18.857-60.831z" fill="#773a11"/><path d="M542.688 180.4a7.439 7.439 0 0 1-3.46-.855 55.009 55.009 0 0 1-19.063-18.1 7.5 7.5 0 1 1 12.713-7.962 40.2 40.2 0 0 0 13.336 12.793 7.506 7.506 0 0 1-3.526 14.128z" fill="#4f2000"/></svg></g></svg>