<svg width="40" height="40" viewBox="0 0 40 40" fill="none" xmlns="http://www.w3.org/2000/svg">
<g clip-path="url(#clip0_328_470)">
<path d="M39.4129 38.8258H35.6164V15.6164C35.6164 15.2922 35.3536 15.0293 35.0293 15.0293H28.7671C28.4428 15.0293 28.18 15.2922 28.18 15.6164V38.8258H23.7182V22.5048C23.7182 22.1806 23.4554 21.9177 23.1311 21.9177H16.8689C16.5446 21.9177 16.2818 22.1806 16.2818 22.5048V38.8258H11.82V25.6359C11.82 25.3117 11.5572 25.0488 11.2329 25.0488H4.9707C4.64641 25.0488 4.38359 25.3117 4.38359 25.6359V38.8257H0.587109C0.262812 38.8257 0 39.0886 0 39.4128C0 39.737 0.262812 39.9999 0.587109 39.9999H39.4129C39.7372 39.9999 40 39.737 40 39.4128C39.9999 39.0886 39.7372 38.8258 39.4129 38.8258ZM10.6458 38.8258H5.55773V26.223H10.6458V38.8258ZM22.5441 38.8258H17.456V23.0919H22.5441V38.8258ZM34.4423 38.8258H29.3542V16.2035H34.4423V38.8258Z" fill="white"/>
<path d="M38.1258 0.460458C37.73 0.111161 37.2034 -0.0515737 36.68 0.0142076L31.6702 0.640458C30.6757 0.764754 29.9486 1.69827 30.0731 2.69382C30.1988 3.69983 31.1192 4.41679 32.1265 4.291L32.5353 4.23999C26.3865 11.3694 19.0765 15.0539 13.9111 16.9056C7.47036 19.2146 2.45732 19.4121 2.40849 19.4137C1.39575 19.4454 0.596692 20.2951 0.627317 21.308C0.657629 22.3083 1.46489 23.0919 2.46529 23.0919C2.48388 23.0919 2.50255 23.0916 2.52169 23.091C2.74458 23.0843 8.05872 22.8966 15.0599 20.4019C18.9957 18.9994 22.6991 17.1376 26.0672 14.8683C26.3361 14.6873 26.4072 14.3223 26.2259 14.0534C26.0448 13.7844 25.68 13.7134 25.411 13.8946C22.1244 16.1091 18.5092 17.9264 14.6658 19.2959C7.83661 21.7293 2.7013 21.9108 2.48654 21.9173L2.46529 21.9176C2.10372 21.9176 1.81185 21.6343 1.80091 21.2725C1.78982 20.9061 2.07888 20.5987 2.44544 20.5873C2.49669 20.5856 7.65278 20.3964 14.3073 18.0108C19.8822 16.0123 27.8927 11.9316 34.3953 3.84069C34.719 3.43788 34.3768 2.82624 33.865 2.89038L31.9812 3.12585C31.6547 3.16624 31.3375 2.95225 31.2546 2.63335C31.1549 2.2496 31.423 1.8546 31.816 1.80538L36.8259 1.17913C37.2171 1.12968 37.5736 1.44585 37.5736 1.83936V6.84913C37.5736 7.216 37.2752 7.51452 36.9083 7.51452C36.5413 7.51452 36.2429 7.21608 36.2429 6.84913V5.33038C36.2429 5.09046 36.0877 4.86608 35.8633 4.78132C35.6315 4.69374 35.3576 4.76725 35.2009 4.95913C33.0082 7.64593 30.5115 10.0772 27.78 12.1853C27.5233 12.3834 27.4758 12.7521 27.6739 13.0088C27.872 13.2655 28.2408 13.313 28.4974 13.1149C30.8767 11.2786 33.0822 9.2035 35.0706 6.93202C35.114 7.90804 35.9217 8.68882 36.9083 8.68882C37.9226 8.68882 38.7479 7.86358 38.7479 6.84929V1.83952C38.7478 1.31218 38.5211 0.809442 38.1258 0.460458Z" fill="white"/>
</g>
<defs>
<clipPath id="clip0_328_470">
<rect width="40" height="40" fill="white"/>
</clipPath>
</defs>
</svg>
