<svg width="40" height="40" viewBox="0 0 40 40" fill="none" xmlns="http://www.w3.org/2000/svg">
<path d="M36.6481 22.7901C36.1409 22.4504 35.5443 22.269 34.9338 22.269C34.3234 22.269 33.7267 22.4504 33.2195 22.7901L28.0081 26.2644C28.0081 26.2016 28.0267 26.1416 28.0267 26.0758C28.0267 25.3181 27.7256 24.5914 27.1898 24.0555C26.654 23.5197 25.9273 23.2187 25.1695 23.2187H18.9781L18.3024 22.713C16.8161 21.608 14.983 21.0724 13.1357 21.2035C11.2883 21.3346 9.54916 22.1235 8.23381 23.4273L7.20952 24.4516L6.73523 23.7987C6.68023 23.7223 6.61069 23.6576 6.53059 23.6082C6.45049 23.5588 6.36142 23.5257 6.26849 23.5109C6.17557 23.496 6.08062 23.4996 5.9891 23.5216C5.89759 23.5435 5.81131 23.5833 5.73523 23.6387L2.26952 26.1573C2.19327 26.2124 2.12866 26.282 2.07939 26.3622C2.03013 26.4423 1.99718 26.5314 1.98245 26.6243C1.96771 26.7172 1.97148 26.8122 1.99353 26.9036C2.01558 26.9951 2.05549 27.0813 2.11095 27.1573L9.65952 37.5644C9.71452 37.6408 9.78407 37.7055 9.86417 37.7549C9.94427 37.8043 10.0333 37.8374 10.1263 37.8523C10.2192 37.8671 10.3141 37.8635 10.4057 37.8416C10.4972 37.8196 10.5834 37.7798 10.6595 37.7244L14.1281 35.2087C14.216 35.1443 14.2876 35.0603 14.3372 34.9633C14.3868 34.8663 14.413 34.7591 14.4138 34.6501H26.3681C26.5089 34.65 26.6466 34.6083 26.7638 34.5301L36.6538 27.9373C37.0772 27.6551 37.4244 27.2728 37.6646 26.8242C37.9047 26.3756 38.0304 25.8747 38.0304 25.3658C38.0304 24.857 37.9047 24.3561 37.6646 23.9075C37.4244 23.4589 37.0772 23.0766 36.6538 22.7944L36.6481 22.7901ZM10.3967 36.143L3.68238 26.8916L5.99952 25.2158L12.7138 34.4673L10.3967 36.143ZM35.8567 26.7458L26.1424 33.2187H13.7138C13.6725 33.223 13.6318 33.2316 13.5924 33.2444L8.05809 25.6244L9.24381 24.4387C10.3148 23.376 11.7314 22.7328 13.2364 22.6258C14.7413 22.5189 16.2347 22.9553 17.4452 23.8558L18.3095 24.5044C18.4332 24.5971 18.5835 24.6473 18.7381 24.6473H25.1667C25.5455 24.6473 25.9089 24.7978 26.1768 25.0657C26.4447 25.3336 26.5952 25.697 26.5952 26.0758C26.5952 26.4547 26.4447 26.8181 26.1768 27.086C25.9089 27.3539 25.5455 27.5044 25.1667 27.5044H17.7909C17.6015 27.5044 17.4198 27.5797 17.2859 27.7136C17.1519 27.8476 17.0767 28.0293 17.0767 28.2187C17.0767 28.4081 17.1519 28.5898 17.2859 28.7238C17.4198 28.8577 17.6015 28.933 17.7909 28.933H26.3624C26.5032 28.9329 26.6409 28.8911 26.7581 28.813L34.0109 23.9787C34.2841 23.796 34.6052 23.6985 34.9338 23.6985C35.2624 23.6985 35.5836 23.796 35.8567 23.9787C36.0844 24.1306 36.2712 24.3363 36.4004 24.5776C36.5295 24.819 36.5971 25.0885 36.5971 25.3623C36.5971 25.636 36.5295 25.9055 36.4004 26.1469C36.2712 26.3883 36.0844 26.594 35.8567 26.7458V26.7458Z" fill="#030403"/>
<path d="M15.7652 13.5615L16.9581 13.7601C17.0991 14.2159 17.2818 14.6577 17.5038 15.0801L16.8009 16.0644C16.7027 16.2019 16.6564 16.3698 16.6702 16.5382C16.6841 16.7067 16.7572 16.8648 16.8767 16.9844L18.8981 19.0001C19.0177 19.1195 19.1758 19.1927 19.3442 19.2065C19.5127 19.2204 19.6806 19.1741 19.8181 19.0758L20.8024 18.3744C21.2249 18.5963 21.6667 18.7794 22.1224 18.9215L22.3209 20.1129C22.3487 20.2797 22.4347 20.4313 22.5636 20.5406C22.6926 20.6499 22.8562 20.71 23.0252 20.7101H25.8824C26.0515 20.71 26.215 20.6499 26.344 20.5406C26.4729 20.4313 26.5589 20.2797 26.5867 20.1129L26.7852 18.9215C27.2409 18.7794 27.6827 18.5963 28.1052 18.3744L29.0881 19.0758C29.2257 19.1744 29.3939 19.221 29.5627 19.2071C29.7315 19.1932 29.8898 19.1199 30.0095 19.0001L32.0295 16.9801C32.1492 16.8607 32.2226 16.7027 32.2367 16.5342C32.2508 16.3658 32.2047 16.1978 32.1067 16.0601L31.4024 15.0758C31.6266 14.6543 31.8098 14.2123 31.9495 13.7558L33.1424 13.5572C33.3084 13.5296 33.4594 13.4442 33.5687 13.3162C33.6779 13.1881 33.7384 13.0256 33.7395 12.8572V10.0001C33.7394 9.831 33.6794 9.66743 33.57 9.53847C33.4607 9.40951 33.3092 9.32352 33.1424 9.29579L31.9495 9.09722C31.8098 8.64071 31.6266 8.19868 31.4024 7.77722L32.1067 6.79293C32.2047 6.65525 32.2508 6.48725 32.2367 6.31879C32.2226 6.15034 32.1492 5.99235 32.0295 5.87293L30.0095 3.85722C29.8898 3.73742 29.7315 3.66404 29.5627 3.65017C29.3939 3.63631 29.2257 3.68285 29.0881 3.7815L28.1052 4.48293C27.6827 4.26098 27.2409 4.07785 26.7852 3.93579L26.5867 2.74436C26.5589 2.57757 26.4729 2.42603 26.344 2.31669C26.215 2.20735 26.0515 2.14729 25.8824 2.14722H23.0252C22.8562 2.14729 22.6926 2.20735 22.5636 2.31669C22.4347 2.42603 22.3487 2.57757 22.3209 2.74436L22.1224 3.93579C21.6667 4.07785 21.2249 4.26098 20.8024 4.48293L19.8181 3.7815C19.6806 3.68323 19.5127 3.63691 19.3442 3.65078C19.1758 3.66464 19.0177 3.73779 18.8981 3.85722L16.8767 5.87293C16.7572 5.99253 16.6841 6.15061 16.6702 6.31906C16.6564 6.48751 16.7027 6.65541 16.8009 6.79293L17.5038 7.77722C17.2818 8.19956 17.0991 8.64142 16.9581 9.09722L15.7652 9.29579C15.5984 9.32352 15.4469 9.40951 15.3376 9.53847C15.2282 9.66743 15.1682 9.831 15.1681 10.0001V12.8572C15.1682 13.0263 15.2282 13.1899 15.3376 13.3188C15.4469 13.4478 15.5984 13.5338 15.7652 13.5615V13.5615ZM16.5967 10.6058L17.6409 10.4315C17.7778 10.4077 17.9048 10.3444 18.0063 10.2495C18.1078 10.1546 18.1794 10.0322 18.2124 9.89722C18.3675 9.26489 18.618 8.65986 18.9552 8.10293C19.0279 7.98353 19.0639 7.84545 19.0588 7.70579C19.0537 7.56613 19.0078 7.43103 18.9267 7.31722L18.3109 6.46007L19.4752 5.29436L20.3324 5.91007C20.446 5.9914 20.5811 6.03758 20.7207 6.04292C20.8604 6.04825 20.9986 6.01249 21.1181 5.94007C21.6741 5.60204 22.2788 5.35149 22.9109 5.19722C23.0462 5.1645 23.1689 5.093 23.2641 4.99148C23.3593 4.88997 23.4227 4.76286 23.4467 4.62579L23.6209 3.5815H25.2667L25.4409 4.62579C25.4648 4.76268 25.528 4.88965 25.6229 4.99115C25.7178 5.09265 25.8402 5.16426 25.9752 5.19722C26.6075 5.35108 27.2123 5.60165 27.7681 5.94007C27.8899 6.01556 28.0316 6.05266 28.1748 6.04654C28.318 6.04043 28.456 5.99138 28.5709 5.90579L29.4281 5.29007L30.5909 6.45579L29.9752 7.31293C29.8941 7.42674 29.8482 7.56184 29.8431 7.7015C29.838 7.84116 29.874 7.97925 29.9467 8.09865C30.2848 8.65459 30.5354 9.25929 30.6895 9.8915C30.7222 10.0268 30.7937 10.1495 30.8953 10.2447C30.9968 10.3398 31.1239 10.4033 31.2609 10.4272L32.3052 10.6015V12.2515L31.2609 12.4258C31.1239 12.4497 30.9968 12.5132 30.8953 12.6083C30.7937 12.7035 30.7222 12.8263 30.6895 12.9615C30.5354 13.5937 30.2848 14.1984 29.9467 14.7544C29.874 14.8738 29.838 15.0118 29.8431 15.1515C29.8482 15.2912 29.8941 15.4263 29.9752 15.5401L30.5909 16.3972L29.4281 17.5715L28.5709 16.9558C28.4571 16.8742 28.3218 16.8278 28.1819 16.8225C28.0419 16.8171 27.9035 16.8531 27.7838 16.9258C27.228 17.2642 26.6232 17.5148 25.9909 17.6686C25.856 17.7016 25.7335 17.7732 25.6386 17.8747C25.5437 17.9762 25.4805 18.1032 25.4567 18.2401L25.2824 19.2844H23.6309L23.4567 18.2401C23.4327 18.103 23.3693 17.9759 23.2741 17.8744C23.1789 17.7729 23.0562 17.7014 22.9209 17.6686C22.2888 17.5144 21.6841 17.2638 21.1281 16.9258C21.0086 16.8534 20.8704 16.8176 20.7307 16.8229C20.5911 16.8283 20.456 16.8745 20.3424 16.9558L19.4852 17.5715L18.3209 16.4058L18.9367 15.5486C19.0178 15.4348 19.0637 15.2997 19.0688 15.1601C19.0739 15.0204 19.0379 14.8823 18.9652 14.7629C18.628 14.206 18.3775 13.601 18.2224 12.9686C18.1894 12.8337 18.1178 12.7112 18.0163 12.6163C17.9148 12.5214 17.7878 12.4582 17.6509 12.4344L16.6067 12.2601L16.5967 10.6058Z" fill="#030403"/>
<path d="M24.4534 15.5715C25.2728 15.5715 26.0738 15.3285 26.7551 14.8733C27.4363 14.4181 27.9673 13.771 28.2809 13.014C28.5945 12.257 28.6765 11.424 28.5167 10.6204C28.3568 9.81676 27.9622 9.07857 27.3828 8.49918C26.8035 7.91979 26.0653 7.52523 25.2616 7.36537C24.458 7.20552 23.625 7.28756 22.868 7.60112C22.111 7.91469 21.464 8.44569 21.0087 9.12698C20.5535 9.80827 20.3105 10.6092 20.3105 11.4286C20.3105 12.5274 20.747 13.5811 21.524 14.3581C22.3009 15.135 23.3546 15.5715 24.4534 15.5715V15.5715ZM24.4534 8.71434C24.9902 8.71434 25.515 8.87353 25.9614 9.17178C26.4077 9.47003 26.7556 9.89394 26.9611 10.3899C27.1665 10.8859 27.2203 11.4316 27.1155 11.9582C27.0108 12.4847 26.7523 12.9683 26.3727 13.3479C25.9931 13.7275 25.5095 13.986 24.9829 14.0908C24.4564 14.1955 23.9107 14.1417 23.4147 13.9363C22.9187 13.7309 22.4948 13.383 22.1966 12.9366C21.8983 12.4902 21.7391 11.9655 21.7391 11.4286C21.7391 10.7088 22.0251 10.0184 22.5341 9.50934C23.0431 9.00031 23.7335 8.71434 24.4534 8.71434V8.71434Z" fill="#030403"/>
</svg>
