<svg width="30" height="30" viewBox="0 0 30 30" fill="none" xmlns="http://www.w3.org/2000/svg">
<path d="M15 0C6.71562 0 0 6.71562 0 15C0 23.2844 6.71562 30 15 30C23.2844 30 30 23.2844 30 15C29.9906 6.71951 23.2805 0.00938414 15 0ZM15 28.125C7.75131 28.125 1.875 22.2487 1.875 15C1.875 7.75131 7.75131 1.875 15 1.875C22.2487 1.875 28.125 7.75131 28.125 15C28.117 22.2455 22.2455 28.117 15 28.125Z" fill="white"/>
<path d="M21.7463 11.2683L17.5087 10.4203L15.8386 7.08043C15.6797 6.76274 15.3552 6.56201 15 6.56201C14.6447 6.56201 14.3202 6.76274 14.1613 7.08043L12.4912 10.4203L8.25368 11.2683C7.93805 11.3315 7.67666 11.5521 7.56177 11.8528C7.44687 12.1536 7.49425 12.4923 7.68742 12.7501L10.2482 16.1647L9.39328 20.4412C9.32622 20.7781 9.44867 21.1246 9.7128 21.3446C9.9767 21.5643 10.3397 21.6222 10.6588 21.4954L15 19.7596L19.3391 21.494C19.6584 21.6208 20.0214 21.5629 20.2853 21.3432C20.5492 21.1232 20.6719 20.7767 20.6048 20.4398L19.7497 16.1634L22.3125 12.7501C22.5057 12.4923 22.5531 12.1536 22.4382 11.8528C22.3233 11.5521 22.0619 11.3315 21.7463 11.2683V11.2683ZM17.9999 15.3749C17.8399 15.5884 17.7784 15.8596 17.8308 16.1213L18.4288 19.1118L15.3483 17.8795C15.1247 17.79 14.8752 17.79 14.6516 17.8795L11.5711 19.1118L12.1692 16.1213C12.2216 15.8596 12.16 15.5884 12 15.3749L10.0781 12.8151L13.3069 12.1692C13.591 12.1131 13.8334 11.9286 13.9631 11.6695L15 9.5963L16.0363 11.6718C16.1661 11.9309 16.4085 12.1154 16.6925 12.1714L19.9218 12.8151L17.9999 15.3749Z" fill="white"/>
</svg>
