<svg width="60" height="60" viewBox="0 0 60 60" fill="none" xmlns="http://www.w3.org/2000/svg">
<rect opacity="0.05" width="60" height="60" rx="8" fill="url(#paint0_linear_221_4443)"/>
<path d="M34.3414 24.5405C31.4238 20.2482 27.5271 17.9668 25.4865 19.3646C25.2618 19.5229 25.0665 19.7193 24.9096 19.9449C24.9096 19.9613 20.1854 29.5218 20.1854 29.5218L17.548 31.3086C17.1431 31.5834 16.7964 31.9354 16.5276 32.3442C16.2587 32.7531 16.0731 33.211 15.9812 33.6916C15.8894 34.1723 15.8932 34.6663 15.9923 35.1455C16.0914 35.6247 16.284 36.0797 16.559 36.4844L16.6777 36.6591C17.2336 37.4689 18.0863 38.0269 19.0509 38.212C20.0155 38.3972 21.0142 38.1946 21.8304 37.6482L26.0667 43.8888C26.6898 44.657 27.8865 45.4218 29.3634 44.5218C29.6251 44.3521 29.8482 44.1295 30.0186 43.8683C30.1889 43.6071 30.3027 43.3131 30.3524 43.0053C30.4121 42.6991 30.4105 42.3841 30.3477 42.0786C30.2848 41.773 30.1621 41.4829 29.9865 41.2251L26.2546 35.7196C26.2546 35.7196 35.0766 35.0174 35.1096 35.0042C35.385 34.9466 35.6462 34.8345 35.8777 34.6745C36.926 33.9624 37.3019 32.469 36.9392 30.4679C36.6129 28.6251 35.6865 26.5383 34.3414 24.5405ZM17.637 36.0097L17.5184 35.835C17.3286 35.5556 17.1958 35.2416 17.1276 34.9109C17.0593 34.5802 17.057 34.2392 17.1207 33.9076C17.1844 33.576 17.3129 33.2601 17.4988 32.9782C17.6847 32.6963 17.9243 32.4538 18.2041 32.2646L20.4821 30.7152L23.4887 35.1427L21.2107 36.6921C20.9313 36.8821 20.6171 37.0152 20.2863 37.0837C19.9554 37.1522 19.6143 37.1549 19.2824 37.0915C18.9505 37.0281 18.6344 36.9 18.3521 36.7143C18.0697 36.5287 17.8268 36.2893 17.637 36.0097ZM29.037 41.8745C29.2172 42.1426 29.2837 42.4713 29.2219 42.7883C29.1601 43.1054 28.975 43.385 28.7074 43.5657C28.4387 43.7461 28.1096 43.8127 27.792 43.7509C27.4744 43.6891 27.1943 43.504 27.0129 43.2361L22.7898 37.0152L24.4876 35.8613L24.9359 35.8251L29.037 41.8745ZM24.5799 34.6943L21.303 29.8679L24.4282 23.4954C24.7315 25.2855 25.6184 27.4119 27.0359 29.4987C28.4535 31.5855 30.1019 33.1943 31.6513 34.1372L24.5799 34.6943ZM34.3052 33.9262C32.7293 33.824 30.1645 32.0471 27.992 28.846C25.8195 25.6449 25.114 22.6152 25.5986 21.1086C25.6861 20.8258 25.8607 20.5779 26.0976 20.4003C26.3344 20.2227 26.6213 20.1244 26.9173 20.1196C28.4799 20.1196 31.1403 21.9064 33.3755 25.1998C34.6348 27.0526 35.5513 28.991 35.8019 30.6855C36.2931 33.9262 34.3052 33.9262 34.3052 33.9262Z" fill="url(#paint1_linear_221_4443)"/>
<path d="M30.2209 24.6625C29.8171 24.5832 29.4015 24.5852 28.9985 24.6684C28.5955 24.7516 28.2131 24.9144 27.8737 25.1471C27.8111 25.1904 27.7577 25.2456 27.7165 25.3095C27.6752 25.3735 27.647 25.4449 27.6334 25.5198C27.6198 25.5946 27.621 25.6714 27.6371 25.7458C27.6531 25.8201 27.6837 25.8906 27.727 25.9532C27.7703 26.0157 27.8255 26.0691 27.8894 26.1104C27.9533 26.1516 28.0248 26.1798 28.0996 26.1935C28.1745 26.2071 28.2513 26.2058 28.3256 26.1898C28.4 26.1737 28.4705 26.1432 28.533 26.0999C28.748 25.954 28.9895 25.8518 29.244 25.7993C29.4984 25.7468 29.7607 25.7449 30.0158 25.7937C30.271 25.8425 30.514 25.9411 30.7311 26.0839C30.9481 26.2266 31.1349 26.4107 31.2808 26.6257C31.4267 26.8406 31.5288 27.0822 31.5814 27.3366C31.6339 27.5911 31.6358 27.8533 31.587 28.1085C31.5382 28.3637 31.4396 28.6067 31.2968 28.8237C31.1541 29.0408 30.9699 29.2276 30.755 29.3735C30.6536 29.4435 30.5773 29.5441 30.5373 29.6606C30.4972 29.777 30.4955 29.9033 30.5323 30.0208C30.5692 30.1383 30.6427 30.241 30.742 30.3137C30.8414 30.3865 30.9615 30.4255 31.0847 30.4251C31.2022 30.4274 31.3174 30.3928 31.4143 30.3262C31.9271 29.9789 32.3252 29.4872 32.5583 28.9134C32.7914 28.3395 32.8489 27.7095 32.7235 27.1029C32.5982 26.4964 32.2957 25.9407 31.8543 25.5063C31.4129 25.0718 30.8524 24.7782 30.244 24.6625H30.2209Z" fill="url(#paint2_linear_221_4443)"/>
<path d="M35.0535 20.5287H35.1095C35.2522 20.5287 35.3898 20.4757 35.4958 20.3801C35.6017 20.2845 35.6685 20.1531 35.6831 20.0111L36.1282 15.6859C36.1383 15.6094 36.133 15.5316 36.1126 15.4573C36.0921 15.3829 36.057 15.3133 36.0092 15.2528C35.9614 15.1922 35.9019 15.1418 35.8343 15.1046C35.7667 15.0675 35.6924 15.0442 35.6156 15.0363C35.5389 15.0283 35.4613 15.0359 35.3875 15.0584C35.3138 15.081 35.2453 15.1181 35.1861 15.1676C35.1269 15.2171 35.0783 15.278 35.043 15.3466C35.0078 15.4152 34.9867 15.4902 34.9809 15.5672L34.5392 19.8958C34.5235 20.0479 34.5689 20.2 34.6653 20.3187C34.7617 20.4374 34.9013 20.5129 35.0535 20.5287Z" fill="url(#paint3_linear_221_4443)"/>
<path d="M42.5104 19.6384C42.4257 19.5107 42.294 19.4217 42.1439 19.3908C41.9938 19.3599 41.8376 19.3897 41.7093 19.4735L37.6907 22.1109C37.5863 22.1798 37.5072 22.2808 37.4652 22.3985C37.4232 22.5163 37.4206 22.6446 37.4577 22.7639C37.4949 22.8833 37.5699 22.9874 37.6714 23.0605C37.7729 23.1336 37.8953 23.1717 38.0203 23.1692C38.137 23.1718 38.2517 23.1397 38.35 23.0768L42.3687 20.4395C42.4934 20.3518 42.5782 20.2183 42.6048 20.0682C42.6314 19.9181 42.5974 19.7636 42.5104 19.6384Z" fill="url(#paint4_linear_221_4443)"/>
<path d="M43.7405 26.6808L39.0657 25.8402C38.9149 25.8131 38.7595 25.847 38.6337 25.9345C38.5079 26.0219 38.422 26.1558 38.3949 26.3066C38.3677 26.4575 38.4017 26.6129 38.4892 26.7387C38.5766 26.8645 38.7105 26.9504 38.8613 26.9775L43.5328 27.8182H43.635C43.782 27.8225 43.925 27.7705 44.035 27.6728C44.1449 27.5751 44.2134 27.4392 44.2265 27.2927C44.2395 27.1462 44.1961 27.0003 44.1052 26.8847C44.0142 26.7692 43.8826 26.6927 43.7372 26.6709L43.7405 26.6808Z" fill="url(#paint5_linear_221_4443)"/>
<defs>
<linearGradient id="paint0_linear_221_4443" x1="-72.8873" y1="-117.778" x2="186.59" y2="-69.1639" gradientUnits="userSpaceOnUse">
<stop stop-color="#FF0035"/>
<stop offset="1" stop-color="#FF9120"/>
</linearGradient>
<linearGradient id="paint1_linear_221_4443" x1="-9.78836" y1="-32.0333" x2="82.7713" y2="-17.9072" gradientUnits="userSpaceOnUse">
<stop stop-color="#FF0035"/>
<stop offset="1" stop-color="#FF9120"/>
</linearGradient>
<linearGradient id="paint2_linear_221_4443" x1="21.3506" y1="13.1786" x2="43.8464" y2="16.9179" gradientUnits="userSpaceOnUse">
<stop stop-color="#FF0035"/>
<stop offset="1" stop-color="#FF9120"/>
</linearGradient>
<linearGradient id="paint3_linear_221_4443" x1="32.5961" y1="4.24571" x2="39.724" y2="4.6338" gradientUnits="userSpaceOnUse">
<stop stop-color="#FF0035"/>
<stop offset="1" stop-color="#FF9120"/>
</linearGradient>
<linearGradient id="paint4_linear_221_4443" x1="31.1366" y1="11.9385" x2="52.9053" y2="17.5143" gradientUnits="userSpaceOnUse">
<stop stop-color="#FF0035"/>
<stop offset="1" stop-color="#FF9120"/>
</linearGradient>
<linearGradient id="paint5_linear_221_4443" x1="31.2877" y1="21.9299" x2="51.3549" y2="32.9835" gradientUnits="userSpaceOnUse">
<stop stop-color="#FF0035"/>
<stop offset="1" stop-color="#FF9120"/>
</linearGradient>
</defs>
</svg>
