<svg width="40" height="40" viewBox="0 0 40 40" fill="none" xmlns="http://www.w3.org/2000/svg">
<g clip-path="url(#clip0_380_1354)">
<path d="M34.0664 15.3126C34.0664 23.079 27.7704 29.3751 20.0039 29.3751C12.2374 29.3751 5.94141 23.079 5.94141 15.3126C5.94141 7.54608 12.2374 1.17194 20.0039 1.17194C27.7704 1.17194 34.0664 7.54608 34.0664 15.3126Z" stroke="white" stroke-width="2.57812" stroke-miterlimit="10" stroke-linecap="round" stroke-linejoin="round"/>
<path d="M30.7354 24.4005L35.4203 35.0197L29.379 32.9684L26.8533 38.8272L22.582 29.1388" stroke="white" stroke-width="2.57812" stroke-miterlimit="10" stroke-linecap="round" stroke-linejoin="round"/>
<path d="M17.4242 29.1388L13.153 38.8271L10.6273 32.9683L4.58594 35.0196L9.27086 24.4004" stroke="white" stroke-width="2.57812" stroke-miterlimit="10" stroke-linecap="round" stroke-linejoin="round"/>
<path d="M20.0035 8.28038L22.0699 12.4674L26.6906 13.1388L23.3471 16.398L24.1363 21.0001L20.0035 18.8272L15.8706 21.0001L16.66 16.398L13.3164 13.1388L17.9371 12.4674L20.0035 8.28038Z" stroke="white" stroke-width="2.57812" stroke-miterlimit="10" stroke-linecap="round" stroke-linejoin="round"/>
</g>
<defs>
<clipPath id="clip0_380_1354">
<rect width="40" height="40" fill="white"/>
</clipPath>
</defs>
</svg>
