<svg width="40" height="40" viewBox="0 0 40 40" fill="none" xmlns="http://www.w3.org/2000/svg">
<path fill-rule="evenodd" clip-rule="evenodd" d="M21.0234 2.49994C16.1947 2.49994 12.2734 6.42119 12.2734 11.2499C12.2734 16.0787 16.1947 19.9999 21.0234 19.9999C25.8534 19.9999 29.7734 16.0787 29.7734 11.2499C29.7734 6.42119 25.8534 2.49994 21.0234 2.49994ZM21.0234 4.99994C24.4734 4.99994 27.2734 7.79994 27.2734 11.2499C27.2734 14.6999 24.4734 17.4999 21.0234 17.4999C17.5747 17.4999 14.7734 14.6999 14.7734 11.2499C14.7734 7.79994 17.5747 4.99994 21.0234 4.99994Z" fill="white"/>
<path fill-rule="evenodd" clip-rule="evenodd" d="M6.02344 34.9999H20.0009C20.6909 34.9999 21.2509 35.5599 21.2509 36.2499C21.2509 36.9399 20.6909 37.4999 20.0009 37.4999H4.77344C4.08344 37.4999 3.52344 36.9399 3.52344 36.2499C3.52344 36.2499 3.52344 35.2187 3.52344 33.7499C3.52344 27.5362 8.56094 22.4999 14.7734 22.4999H20.0009C20.6909 22.4999 21.2509 23.0599 21.2509 23.7499C21.2509 24.4399 20.6909 24.9999 20.0009 24.9999H14.7734C9.94094 24.9999 6.02344 28.9174 6.02344 33.7499V34.9999Z" fill="white"/>
<path fill-rule="evenodd" clip-rule="evenodd" d="M31.3097 35.7654L28.3184 37.7917C27.9347 38.0504 27.4397 38.0779 27.0322 37.8604C26.6234 37.6442 26.3672 37.2192 26.3672 36.7567V28.3379C26.3672 27.8192 26.6884 27.3529 27.1734 27.1692C27.6597 26.9854 28.2084 27.1192 28.5522 27.5079C29.2284 28.2692 30.2147 28.7504 31.3109 28.7504C32.4084 28.7504 33.3947 28.2692 34.0697 27.5079C34.4147 27.1192 34.9634 26.9854 35.4484 27.1692C35.9347 27.3529 36.2547 27.8192 36.2547 28.3379V36.7567C36.2547 37.2192 35.9997 37.6442 35.5909 37.8604C35.1822 38.0779 34.6872 38.0504 34.3047 37.7917L31.3097 35.7654ZM28.8672 30.7479V34.4004L30.6097 33.2217C31.0322 32.9354 31.5872 32.9342 32.0109 33.2204L33.7547 34.4017V30.7479C33.0059 31.0717 32.1784 31.2504 31.3109 31.2504C30.4434 31.2504 29.6172 31.0717 28.8672 30.7479Z" fill="white"/>
<path fill-rule="evenodd" clip-rule="evenodd" d="M31.3112 18.8759C27.8975 18.8759 25.125 21.6484 25.125 25.0622C25.125 28.4772 27.8975 31.2497 31.3112 31.2497C34.7262 31.2497 37.4988 28.4772 37.4988 25.0622C37.4988 21.6484 34.7262 18.8759 31.3112 18.8759ZM31.3112 21.3759C33.3462 21.3759 34.9988 23.0272 34.9988 25.0622C34.9988 27.0972 33.3462 28.7497 31.3112 28.7497C29.2762 28.7497 27.625 27.0972 27.625 25.0622C27.625 23.0272 29.2762 21.3759 31.3112 21.3759Z" fill="white"/>
</svg>
