<svg width="40" height="40" viewBox="0 0 40 40" fill="none" xmlns="http://www.w3.org/2000/svg">
<g clip-path="url(#clip0_328_621)">
<g clip-path="url(#clip1_328_621)">
<path d="M17.3287 33.1514C17.5676 32.1694 17.8198 31.0944 18.0984 29.9531C17.7667 29.9531 17.5145 29.9531 17.2491 29.9531C14.1702 29.9531 11.1046 29.9531 8.02578 29.9531C6.11476 29.9531 5 28.8649 5 26.9539C5 21.4464 5 15.939 5 10.4315C5 8.5205 6.10149 7.43228 8.01251 7.41901C13.6792 7.41901 19.3326 7.40574 24.9993 7.43228C25.5036 7.43228 25.8089 7.29957 26.0743 6.86163C26.5653 6.0521 27.1227 5.26911 27.6535 4.48613C28.6091 3.0794 30.1352 2.62819 31.5021 3.31828C32.8956 4.03491 33.4131 5.5478 32.8027 7.18013C32.7894 7.21995 32.7761 7.25976 32.7761 7.31284C32.8027 7.33938 32.8292 7.39247 32.869 7.39247C34.9526 7.63135 35.7754 8.54704 35.7754 10.6571C35.7754 16.0319 35.7754 21.4066 35.7754 26.7814C35.7754 28.8782 34.727 29.9398 32.6434 29.9398C29.5911 29.9398 26.5388 29.9398 23.4865 29.9398C23.2476 29.9398 23.0087 29.9398 22.6769 29.9398C22.9423 31.0679 23.1945 32.1296 23.4599 33.2443C23.8448 33.2443 24.1898 33.2443 24.5481 33.2443C26.4193 33.2443 27.0033 33.7619 27.2156 35.6596C27.8261 35.6596 28.4365 35.6729 29.047 35.6596C29.538 35.6464 29.9096 35.8189 29.8963 36.3497C29.8831 36.8275 29.5247 37 29.0603 37C23.2874 37 17.5145 37 11.7417 37C11.2506 37 10.8658 36.8407 10.879 36.3099C10.8923 35.7791 11.2904 35.6464 11.7682 35.6596C12.3654 35.6729 12.9493 35.6596 13.5863 35.6596C13.573 34.6908 13.8119 33.8017 14.7143 33.4965C15.4973 33.231 16.3865 33.2576 17.3287 33.1514ZM6.3271 24.1404C6.3271 25.1888 6.31383 26.1178 6.3271 27.0468C6.34037 28.0952 6.87121 28.626 7.93288 28.626C16.2272 28.626 24.5216 28.626 32.8159 28.626C32.9752 28.626 33.1345 28.626 33.2804 28.5995C33.8776 28.4668 34.3288 28.1084 34.3687 27.498C34.435 26.4098 34.3819 25.3083 34.3819 24.1537C34.0634 24.1537 33.798 24.1537 33.5459 24.1537C26.9767 24.1537 20.4076 24.1537 13.8385 24.1537C13.3607 24.1537 12.8962 24.1139 12.8962 23.5034C12.8962 22.9062 13.3474 22.8133 13.8252 22.8266C13.9977 22.8266 14.1835 22.8266 14.356 22.8266C20.7659 22.8266 27.1758 22.8266 33.5989 22.8266C33.8511 22.8266 34.1032 22.8266 34.3288 22.8266C34.3687 22.6806 34.3952 22.6408 34.3952 22.601C34.3952 18.4605 34.4085 14.3332 34.3952 10.1926C34.3952 9.56891 34.1165 9.01153 33.4795 8.89209C32.7363 8.74611 31.9003 8.41433 31.2765 9.17078C29.4451 11.387 27.627 13.6033 25.8222 15.8461C25.6762 16.0319 25.5965 16.3636 25.6364 16.6025C26.061 19.0046 24.6145 20.7563 22.1726 20.7298C21.7347 20.7298 21.2835 20.7033 20.8455 20.69C20.0891 20.6767 19.4123 20.8758 18.8151 21.3668C18.2444 21.8313 17.7401 21.672 17.5941 20.9554C17.4084 20.053 17.2226 19.124 17.196 18.2083C17.1297 15.3683 18.5629 13.7493 21.3631 13.3777C21.5356 13.3511 21.748 13.245 21.8409 13.1123C22.7698 11.7453 23.6855 10.3652 24.6012 8.98498C24.6278 8.94517 24.6012 8.86555 24.5879 8.77265C24.4022 8.77265 24.2164 8.77265 24.0438 8.77265C18.7089 8.77265 13.3873 8.77265 8.05232 8.77265C6.76504 8.77265 6.28728 9.2504 6.28728 10.5377C6.28728 14.4128 6.28728 18.2747 6.28728 22.1498C6.28728 22.3621 6.28728 22.5745 6.28728 22.8266C6.95083 22.8266 7.53475 22.8133 8.10541 22.8266C8.54335 22.8399 8.84858 23.0389 8.83531 23.5034C8.82204 23.9679 8.51681 24.1537 8.07887 24.1404C7.53476 24.1404 6.9641 24.1404 6.3271 24.1404ZM24.9595 10.896C25.6364 11.4003 26.2734 11.8648 26.9369 12.3691C28.4631 10.5111 29.976 8.69302 31.4358 6.84836C31.9799 6.15827 31.7808 5.18949 31.0907 4.67192C30.4006 4.15435 29.4451 4.27379 28.9143 5.00369C28.3967 5.69378 27.9455 6.42369 27.4677 7.14032C26.6449 8.37452 25.8089 9.60872 24.9595 10.896ZM18.6691 19.5619C19.9166 19.4956 21.0711 19.4425 22.2257 19.3894C22.4513 19.3762 22.6637 19.3894 22.8893 19.3496C23.6457 19.2302 24.0969 18.7391 24.3093 18.0358C24.5481 17.2263 24.3358 16.576 23.6988 16.1115C23.168 15.7134 22.6371 15.3152 22.093 14.9304C21.9338 14.8242 21.748 14.7313 21.5622 14.718C20.3545 14.6384 19.1734 15.4214 18.762 16.5627C18.4169 17.5846 18.4833 18.633 18.6691 19.5619ZM14.9532 35.6331C18.5895 35.6331 22.1859 35.6331 25.7691 35.6331C25.8089 34.7837 25.6364 34.5847 24.8666 34.5847C21.8674 34.5847 18.8682 34.5847 15.8689 34.5847C15.0992 34.598 14.94 34.7837 14.9532 35.6331ZM18.6956 33.2178C19.8502 33.2178 20.8986 33.2178 22.0532 33.2178C21.7878 32.103 21.5356 31.0413 21.2967 29.9664C20.6597 29.9664 20.1024 29.9664 19.4654 29.9664C19.1999 31.0413 18.9478 32.103 18.6956 33.2178ZM26.0876 13.3909C25.4506 12.9132 24.8401 12.462 24.2164 11.9975C23.7652 12.6743 23.3803 13.2715 22.9689 13.8952C23.5661 14.3332 24.0837 14.718 24.6543 15.1427C25.1321 14.5588 25.5833 14.0014 26.0876 13.3909Z" fill="white"/>
</g>
</g>
<defs>
<clipPath id="clip0_328_621">
<rect width="40" height="40" fill="white"/>
</clipPath>
<clipPath id="clip1_328_621">
<rect width="40" height="40" fill="white"/>
</clipPath>
</defs>
</svg>
