<svg width="40" height="40" viewBox="0 0 40 40" fill="none" xmlns="http://www.w3.org/2000/svg">
<g clip-path="url(#clip0_103_18348)">
<path d="M39.4113 16.1601C39.4113 13.5525 37.2975 11.4387 34.6899 11.4387H30.8426C29.7639 11.4387 28.8894 10.5642 28.8894 9.48556V5.63822C28.8894 3.03064 26.7756 0.916814 24.1681 0.916814H23.4099" stroke="white" stroke-width="1.23047" stroke-miterlimit="10" stroke-linejoin="round"/>
<path d="M9.50781 22.652V2.87C9.50781 1.79109 10.382 0.916874 11.4609 0.916874H12.4352H25.4062C27.6359 0.916874 29.775 1.80281 31.3516 3.37937L36.9484 8.97625C38.525 10.5528 39.4109 12.6919 39.4109 14.9216V35.4481C39.4109 36.527 38.5366 37.4012 37.4578 37.4012H13.8016" stroke="white" stroke-width="1.23047" stroke-miterlimit="10" stroke-linecap="round" stroke-linejoin="round"/>
<path d="M18.5996 17.558H34.3951" stroke="white" stroke-width="1.23047" stroke-miterlimit="10" stroke-linecap="round" stroke-linejoin="round"/>
<path d="M34.3953 21.2178H32.0898" stroke="white" stroke-width="1.23047" stroke-miterlimit="10" stroke-linecap="round" stroke-linejoin="round"/>
<path d="M29.7473 21.2178H14.5215" stroke="white" stroke-width="1.23047" stroke-miterlimit="10" stroke-linecap="round" stroke-linejoin="round"/>
<path d="M14.5215 24.8765H34.3967" stroke="white" stroke-width="1.23047" stroke-miterlimit="10" stroke-linecap="round" stroke-linejoin="round"/>
<path d="M34.3966 28.5358H16.7129" stroke="white" stroke-width="1.23047" stroke-miterlimit="10" stroke-linecap="round" stroke-linejoin="round"/>
<path d="M28.5773 32.1948H16.9336" stroke="white" stroke-width="1.23047" stroke-miterlimit="10" stroke-linecap="round" stroke-linejoin="round"/>
<path d="M3.87737 24.2654C7.10081 21.8427 11.6992 22.099 14.6336 25.0326C17.8476 28.2474 17.8476 33.4591 14.6336 36.6732C11.4187 39.8873 6.20698 39.8873 2.993 36.6732C0.0594044 33.7396 -0.197627 29.1427 2.22503 25.9185" stroke="white" stroke-width="1.23047" stroke-miterlimit="10" stroke-linecap="round" stroke-linejoin="round"/>
<path d="M4.6543 31.741L8.09031 35.1771L12.1373 27.1595" stroke="white" stroke-width="1.23047" stroke-miterlimit="10" stroke-linecap="round" stroke-linejoin="round"/>
<path d="M16.3164 10.5044L18.1863 5.59479C18.2245 5.50135 18.3567 5.50119 18.3951 5.59455L20.248 10.5044" stroke="white" stroke-width="1.23047" stroke-miterlimit="10" stroke-linecap="round" stroke-linejoin="round"/>
<path d="M16.8984 9.28162H19.6731" stroke="white" stroke-width="1.23047" stroke-miterlimit="10" stroke-linecap="round" stroke-linejoin="round"/>
<path d="M22.1504 5.52457L25.6536 10.5043" stroke="white" stroke-width="1.23047" stroke-miterlimit="10" stroke-linecap="round" stroke-linejoin="round"/>
<path d="M25.4066 5.52463L21.8986 10.5044" stroke="white" stroke-width="1.23047" stroke-miterlimit="10" stroke-linecap="round" stroke-linejoin="round"/>
<path d="M12.8516 5.52454H15.6016" stroke="white" stroke-width="1.23047" stroke-miterlimit="10" stroke-linecap="round" stroke-linejoin="round"/>
<path d="M14.2227 5.68361V10.5044" stroke="white" stroke-width="1.23047" stroke-miterlimit="10" stroke-linecap="round" stroke-linejoin="round"/>
</g>
<defs>
<clipPath id="clip0_103_18348">
<rect width="40" height="40" fill="white"/>
</clipPath>
</defs>
</svg>
