<svg width="40" height="40" viewBox="0 0 40 40" fill="none" xmlns="http://www.w3.org/2000/svg">
<g clip-path="url(#clip0_103_18411)">
<path d="M19.7652 6.33398H5.04102" stroke="white" stroke-width="1.17187" stroke-miterlimit="10" stroke-linecap="round" stroke-linejoin="round"/>
<path d="M19.7652 10.3597H5.04102" stroke="white" stroke-width="1.17187" stroke-miterlimit="10" stroke-linecap="round" stroke-linejoin="round"/>
<path d="M12.4031 14.3853H5.04102" stroke="white" stroke-width="1.17187" stroke-miterlimit="10" stroke-linecap="round" stroke-linejoin="round"/>
<path d="M27.7291 18.7274C27.7291 18.7274 26.8314 17.8994 25.4475 18.3163C24.1769 18.699 23.8613 20.4376 24.7248 21.1149C25.2206 21.5038 25.9666 21.8235 26.9721 22.1788C29.2223 22.9743 28.3905 26.1478 26.1015 26.1631C25.2082 26.169 24.7905 26.1123 24.0059 25.599" stroke="white" stroke-width="1.17187" stroke-miterlimit="10" stroke-linecap="round" stroke-linejoin="round"/>
<path d="M26.1016 17.1277V27.3214" stroke="white" stroke-width="1.17187" stroke-miterlimit="10" stroke-linecap="round" stroke-linejoin="round"/>
<path d="M23.8047 0.754883C24.0049 0.846133 24.1901 0.971289 24.3487 1.1298L30.2403 7.02144C30.3989 7.18004 30.524 7.3652 30.6152 7.56543H25.2841C24.467 7.56543 23.8047 6.90309 23.8047 6.08605V0.754883Z" stroke="white" stroke-width="1.17187" stroke-miterlimit="10" stroke-linecap="round" stroke-linejoin="round"/>
<path d="M33.8143 25.8374C34.4324 24.6437 34.7819 23.2885 34.7819 21.8515C34.7819 17.0571 30.8952 13.1705 26.1008 13.1705C21.3063 13.1705 17.4197 17.0571 17.4197 21.8515C17.4197 23.2885 17.7691 24.6437 18.3873 25.8374" stroke="white" stroke-width="1.17187" stroke-miterlimit="10" stroke-linecap="round" stroke-linejoin="round"/>
<path d="M30.7846 11.7318V8.33492C30.7846 7.84227 30.5889 7.36984 30.2406 7.02156L24.3491 1.12993C24.0007 0.781645 23.5283 0.585941 23.0357 0.585941H2.535C1.50922 0.585941 0.677734 1.4175 0.677734 2.44328V37.5568C0.677734 38.5826 1.50922 39.4141 2.535 39.4141H11.0751" stroke="white" stroke-width="1.17187" stroke-miterlimit="10" stroke-linecap="round" stroke-linejoin="round"/>
<path d="M17.4458 21.174H14.8666C13.7687 21.174 12.8787 22.0641 12.8787 23.162V37.4262C12.8787 38.5241 13.7687 39.4141 14.8666 39.4141H37.3349C38.4328 39.4141 39.3228 38.5241 39.3228 37.4262V23.162C39.3228 22.0641 38.4328 21.174 37.3349 21.174H34.7556" stroke="white" stroke-width="1.17187" stroke-miterlimit="10" stroke-linecap="round" stroke-linejoin="round"/>
<path d="M13.1621 22.1396L23.8159 29.6786" stroke="white" stroke-width="1.17187" stroke-miterlimit="10" stroke-linecap="round" stroke-linejoin="round"/>
<path d="M28.3867 29.6785L39.0405 22.1395" stroke="white" stroke-width="1.17187" stroke-miterlimit="10" stroke-linecap="round" stroke-linejoin="round"/>
<path d="M13.5078 38.8767L24.5827 28.9936C25.4475 28.2219 26.7536 28.2219 27.6184 28.9936L38.6933 38.8767" stroke="white" stroke-width="1.17187" stroke-miterlimit="10" stroke-linecap="round" stroke-linejoin="round"/>
</g>
<defs>
<clipPath id="clip0_103_18411">
<rect width="40" height="40" fill="white"/>
</clipPath>
</defs>
</svg>
