<svg width="69" height="20" viewBox="0 0 69 20" fill="none" xmlns="http://www.w3.org/2000/svg">
<path d="M18.9083 10.2659C18.4001 9.83993 17.7048 9.62793 16.7955 9.62793H15.3246H14.6292H13.7734V17.4729H15.3246V15.2129H16.4211C16.956 15.2129 17.4373 15.1329 17.8385 14.9729C18.2397 14.8139 18.5606 14.5739 18.828 14.2819C19.0955 13.9889 19.2827 13.6699 19.4164 13.2979C19.5501 12.9259 19.6036 12.5269 19.6036 12.1279C19.6304 11.3029 19.3897 10.6909 18.9083 10.2659ZM17.892 13.0319C17.785 13.2979 17.5978 13.5109 17.3571 13.6969C17.1164 13.8559 16.7955 13.9359 16.3943 13.9359H15.3246V10.9569H16.7687C17.1432 10.9569 17.4641 11.0369 17.7048 11.2229C17.9455 11.4099 18.0792 11.7019 18.0792 12.1279C18.0792 12.4729 18.0257 12.7659 17.892 13.0319Z" fill="#1F074F"/>
<path d="M25.8342 15.8778C25.8342 15.6378 25.8342 15.4518 25.8342 15.2928V13.9098C25.8342 13.3778 25.754 12.9518 25.6203 12.6328C25.4866 12.2868 25.2726 12.0478 25.0319 11.8618C24.7645 11.6758 24.4703 11.5428 24.1226 11.4888C23.7749 11.4098 23.4005 11.3828 22.9994 11.3828C22.6784 11.3828 22.3308 11.4098 22.0098 11.4628C21.6889 11.5158 21.3947 11.5688 21.1273 11.6758V12.8988H21.2342C21.4215 12.8188 21.6354 12.7388 21.9296 12.6858C22.2238 12.6328 22.518 12.5798 22.8122 12.5798C23.1598 12.5798 23.4273 12.6058 23.668 12.6858C23.8819 12.7388 24.0691 12.8718 24.1761 13.0588C24.2831 13.2448 24.3633 13.5368 24.3633 13.9098V14.0158C24.2563 13.9888 24.1494 13.9628 24.0424 13.9358C23.8017 13.8828 23.5342 13.8558 23.2133 13.8558C22.7052 13.8558 22.2505 13.9358 21.8494 14.0688C21.4749 14.2018 21.154 14.4148 20.9401 14.6808C20.7261 14.9468 20.6191 15.3188 20.6191 15.7448C20.6191 16.4098 20.8598 16.8878 21.3145 17.2068C21.7691 17.4998 22.4645 17.6598 23.3738 17.6598C23.6412 17.6598 23.9354 17.6328 24.2296 17.6058C24.5238 17.5798 24.818 17.5268 25.1122 17.4468C25.4063 17.3668 25.6738 17.2868 25.9145 17.2068L25.9412 17.1278C25.9145 16.9948 25.8877 16.8348 25.8877 16.5958C25.8342 16.3298 25.8342 16.1168 25.8342 15.8778ZM24.0691 16.4888C23.8284 16.5428 23.5877 16.5428 23.347 16.5428C22.9191 16.5428 22.5982 16.4888 22.3842 16.3558C22.1703 16.2228 22.0366 16.0108 22.0366 15.7178C22.0366 15.3988 22.1435 15.1858 22.3842 15.0528C22.6249 14.9198 22.9726 14.8668 23.454 14.8668C23.668 14.8668 23.8819 14.8938 24.1226 14.9198C24.2028 14.9468 24.2831 14.9468 24.3633 14.9728V15.3988C24.3633 15.5848 24.3633 15.7178 24.3633 15.8508C24.3633 15.9568 24.3901 16.0638 24.3901 16.1698C24.3901 16.2498 24.4168 16.3298 24.4435 16.4098C24.2831 16.4358 24.1761 16.4628 24.0691 16.4888Z" fill="#1F074F"/>
<path d="M29.819 15.6906L28.4283 11.5156H26.7969V11.6486L29.0702 17.6056L28.1074 19.8936V19.9996H29.6318L32.8946 11.6486V11.5156H31.3434L29.819 15.6906Z" fill="#1F074F"/>
<path d="M42.2821 11.8878C42.0146 11.7018 41.7472 11.5688 41.4263 11.4888C41.1053 11.4098 40.7577 11.3828 40.41 11.3828C40.0356 11.3828 39.6879 11.4358 39.3135 11.5158C38.9925 11.5958 38.6984 11.6758 38.4309 11.8088C38.217 11.6758 37.9763 11.5688 37.7088 11.5158C37.3879 11.4358 37.067 11.3828 36.7193 11.3828C36.4251 11.3828 36.1042 11.4098 35.7832 11.4628C35.4623 11.5158 35.1414 11.5688 34.8472 11.6488C34.553 11.7288 34.2856 11.8088 34.0716 11.8878L34.0449 11.9678C34.0716 12.1008 34.0984 12.2868 34.0984 12.4998C34.1251 12.7128 34.1251 12.9518 34.1251 13.1648C34.1251 13.3778 34.1251 13.5638 34.1251 13.7228V17.4468H35.6495V13.5108C35.6495 13.2978 35.6495 13.0848 35.6228 12.8988C35.6228 12.8458 35.596 12.7928 35.596 12.7658C35.6763 12.7388 35.7832 12.7128 35.8902 12.6858C36.1042 12.6328 36.3449 12.6058 36.5588 12.6058C36.8263 12.6058 37.0402 12.6598 37.2542 12.7388C37.4681 12.8188 37.6286 12.9788 37.7356 13.1908C37.8425 13.4038 37.9228 13.6968 37.9228 14.0958V17.4728H39.4472V14.0428C39.4472 13.5368 39.367 13.1118 39.2332 12.7928C39.367 12.7388 39.5007 12.7128 39.6344 12.6858C39.8216 12.6328 40.0088 12.6328 40.196 12.6328C40.4902 12.6328 40.7309 12.6858 40.9449 12.7658C41.1588 12.8458 41.3193 13.0048 41.4263 13.2178C41.5332 13.4308 41.5867 13.7228 41.5867 14.1218V17.4998H43.1111V14.0428C43.1111 13.4838 43.0309 13.0318 42.8972 12.7128C42.7367 12.3668 42.5495 12.1008 42.2821 11.8878Z" fill="#1F074F"/>
<path d="M49.2627 11.8088C48.8348 11.5428 48.2999 11.3828 47.6313 11.3828C47.0429 11.3828 46.5081 11.5158 46.0801 11.7548C45.6522 11.9948 45.3046 12.3668 45.0639 12.8188C44.8232 13.2708 44.6895 13.8298 44.6895 14.4678C44.6895 14.9998 44.7697 15.4788 44.9301 15.8508C45.0906 16.2498 45.3313 16.5688 45.6255 16.8088C45.9197 17.0478 46.2941 17.2338 46.722 17.3668C47.1499 17.4998 47.6313 17.5528 48.1929 17.5528C48.5941 17.5528 48.9418 17.5268 49.236 17.4728C49.5301 17.4198 49.7976 17.3398 49.9848 17.2608V16.0368H49.8778C49.7174 16.1168 49.5034 16.1968 49.236 16.2768C48.9685 16.3298 48.6476 16.3828 48.2999 16.3828C47.8988 16.3828 47.5511 16.3298 47.2301 16.2228C46.936 16.1168 46.6953 15.9308 46.5081 15.6908C46.3743 15.5048 46.2941 15.2658 46.2674 14.9728H50.386V14.6008C50.4127 13.9628 50.3325 13.4308 50.1453 12.9518C49.9848 12.4468 49.6906 12.0738 49.2627 11.8088ZM48.8883 13.9628H46.2674C46.2941 13.6968 46.3476 13.4568 46.4278 13.2708C46.5615 13.0048 46.722 12.8188 46.9092 12.7128C47.1232 12.6058 47.3639 12.5268 47.6313 12.5268C48.0592 12.5268 48.3801 12.6328 48.5674 12.8718C48.7813 13.1118 48.8883 13.4308 48.8883 13.8828V13.9628Z" fill="#1F074F"/>
<path d="M56.6183 11.9148C56.3508 11.7288 56.0299 11.5958 55.709 11.5158C55.3613 11.4358 55.0136 11.3828 54.6392 11.3828C54.345 11.3828 54.0241 11.4098 53.7031 11.4628C53.3822 11.5158 53.0613 11.5688 52.7671 11.6488C52.4729 11.7288 52.2055 11.8088 51.9915 11.8878L51.9648 11.9678C51.9915 12.1008 52.0183 12.2868 52.0183 12.4998C52.045 12.7128 52.045 12.9518 52.045 13.1648C52.045 13.3778 52.045 13.5638 52.045 13.7228V17.4468H53.5694V13.5108C53.5694 13.2978 53.5694 13.0848 53.5427 12.8988C53.5427 12.8458 53.5159 12.7928 53.5159 12.7658C53.5962 12.7388 53.7031 12.7128 53.8101 12.6858C54.0241 12.6328 54.2648 12.6058 54.4787 12.6058C54.7729 12.6058 55.0403 12.6598 55.2543 12.7388C55.4683 12.8188 55.6287 12.9788 55.7624 13.1908C55.8694 13.4038 55.9496 13.6968 55.9496 14.0958V17.4728H57.4741V14.0428C57.4741 13.5108 57.3938 13.0588 57.2334 12.7128C57.0997 12.3668 56.9124 12.1008 56.6183 11.9148Z" fill="#1F074F"/>
<path d="M62.5811 16.2766C62.4474 16.3026 62.3137 16.3297 62.18 16.3297C61.8056 16.3297 61.5381 16.2496 61.3776 16.0896C61.2172 15.9306 61.1102 15.6646 61.1102 15.2926V12.7386H62.7416V11.5157H61.1102V9.97266H59.5858V11.5157H58.623V12.7386H59.5858V15.3987C59.5858 15.9037 59.666 16.3026 59.8532 16.6216C60.0404 16.9406 60.308 17.1536 60.6824 17.3136C61.0568 17.4726 61.4846 17.5526 62.0195 17.5526C62.2335 17.5526 62.4474 17.5266 62.6079 17.4996C62.7951 17.4726 62.9288 17.4197 63.0625 17.3667V16.1436H62.9556C62.8487 16.2226 62.7149 16.2496 62.5811 16.2766Z" fill="#1F074F"/>
<path d="M67.9828 14.2549C67.7153 14.1219 67.3944 14.0429 67.0467 13.9889L66.5386 13.9099C66.2176 13.8559 65.9502 13.7769 65.7897 13.6969C65.6293 13.6169 65.549 13.4839 65.549 13.2979C65.549 13.0589 65.656 12.8719 65.8967 12.7929C66.1374 12.6859 66.4583 12.6329 66.8595 12.6329C67.1269 12.6329 67.3944 12.6599 67.6618 12.6859C67.9293 12.7389 68.1967 12.8189 68.4641 12.9259H68.5444V11.6759C68.3037 11.5959 68.0362 11.5429 67.7688 11.5159C67.5014 11.4629 67.2072 11.4629 66.913 11.4629C66.2444 11.4629 65.6828 11.5429 65.2816 11.7289C64.8804 11.8879 64.5595 12.1279 64.3723 12.4199C64.1851 12.7129 64.0781 13.0319 64.0781 13.3779C64.0781 13.8829 64.2386 14.2549 64.5595 14.4949C64.8804 14.7339 65.3351 14.9199 65.8967 15.0269L66.4048 15.1059C66.7525 15.1599 67.02 15.2389 67.1804 15.3189C67.3409 15.3989 67.4211 15.5319 67.4211 15.7449C67.4211 15.9039 67.3676 16.0369 67.2874 16.1169C67.2072 16.2229 67.1002 16.2769 66.9665 16.3029C66.8328 16.3299 66.699 16.3559 66.5653 16.3829C66.4316 16.3829 66.2711 16.3829 66.1641 16.3829C65.8165 16.3829 65.4421 16.3559 65.0944 16.2499C64.7467 16.1699 64.4258 16.0639 64.1851 15.9569H64.1048V17.2609C64.3723 17.3399 64.6932 17.4199 65.0409 17.4729C65.3886 17.5269 65.7362 17.5529 66.0839 17.5529C67.0467 17.5529 67.7421 17.3939 68.2235 17.0739C68.7048 16.7549 68.9455 16.2769 68.9455 15.6379C68.9455 15.2929 68.8653 14.9999 68.7048 14.7609C68.4909 14.5739 68.2769 14.3879 67.9828 14.2549Z" fill="#1F074F"/>
<path d="M21.6626 7.97908C22.2777 8.29808 23.0533 8.45708 23.9893 8.45708C24.3637 8.45708 24.6846 8.43108 24.9788 8.37808C25.273 8.32408 25.5137 8.24508 25.7277 8.13808V6.75508H25.6207C25.4335 6.86208 25.1928 6.94107 24.9253 7.02107C24.6579 7.07407 24.3637 7.10107 24.0695 7.10107C23.4812 7.10107 22.9998 6.99507 22.5986 6.78207C22.1974 6.56907 21.9033 6.27708 21.6893 5.87808C21.4753 5.47908 21.3951 4.97308 21.3951 4.38808C21.3951 3.80308 21.5021 3.32407 21.6893 2.92607C21.9033 2.52707 22.1974 2.20707 22.5986 1.99507C22.9998 1.78207 23.4812 1.67607 24.0695 1.67607C24.3637 1.67607 24.6579 1.70207 24.9253 1.78207C25.1928 1.83507 25.4335 1.91507 25.6207 2.02107H25.7277V0.691071C25.5405 0.585071 25.273 0.532072 24.9788 0.452072C24.6846 0.399072 24.3637 0.37207 23.9893 0.37207C23.08 0.37207 22.3044 0.532082 21.6626 0.878082C21.0474 1.22308 20.566 1.67608 20.2451 2.28708C19.9242 2.89908 19.7637 3.59007 19.7637 4.41507C19.7637 5.23907 19.9242 5.98407 20.2451 6.59607C20.5928 7.20707 21.0474 7.66008 21.6626 7.97908Z" fill="#1F074F"/>
<path d="M27.7878 8.03271C28.2424 8.32471 28.9378 8.48471 29.8471 8.48471C30.1145 8.48471 30.4087 8.45772 30.7029 8.43172C30.9971 8.40472 31.2913 8.35171 31.5854 8.27171C31.8796 8.19171 32.1471 8.11271 32.3878 8.03271L32.4145 7.95271C32.3878 7.81971 32.361 7.66072 32.361 7.42072C32.3343 7.20772 32.3343 6.96872 32.3343 6.75572C32.3343 6.51672 32.3343 6.33072 32.3343 6.17072V4.78772C32.3343 4.25572 32.254 3.83072 32.1203 3.51172C31.9866 3.16572 31.7727 2.92672 31.532 2.73972C31.2645 2.55372 30.9703 2.42072 30.6227 2.36772C30.275 2.28772 29.9006 2.26172 29.4994 2.26172C29.1785 2.26172 28.8308 2.28771 28.5099 2.34071C28.1889 2.39471 27.8947 2.44771 27.6273 2.55371V3.77771H27.7343C27.9215 3.69771 28.1354 3.61771 28.4296 3.56471C28.7238 3.51171 29.018 3.45772 29.3122 3.45772C29.6599 3.45772 29.9273 3.48471 30.168 3.56471C30.382 3.61771 30.5692 3.75072 30.6761 3.93672C30.7831 4.12272 30.8634 4.41572 30.8634 4.78772V4.89471C30.7564 4.86771 30.6494 4.84071 30.5424 4.81471C30.3017 4.76171 30.0343 4.73471 29.7134 4.73471C29.2052 4.73471 28.7506 4.81472 28.3494 4.94772C27.975 5.08072 27.6541 5.29372 27.4401 5.55972C27.2261 5.82472 27.1192 6.19771 27.1192 6.62271C27.0924 7.26171 27.3331 7.73971 27.7878 8.03271ZM28.8575 5.90472C29.0982 5.77172 29.4459 5.71872 29.9273 5.71872C30.1413 5.71872 30.3552 5.74571 30.5959 5.77171C30.6761 5.79871 30.7564 5.79872 30.8366 5.82472V6.25072C30.8366 6.43672 30.8366 6.56971 30.8366 6.70271C30.8366 6.80971 30.8634 6.91571 30.8634 7.02171C30.8634 7.10171 30.8901 7.18172 30.9168 7.26172C30.8099 7.28772 30.7029 7.34072 30.5959 7.36772C30.3552 7.42072 30.1145 7.42072 29.8738 7.42072C29.4459 7.42072 29.125 7.36771 28.911 7.23471C28.6971 7.10171 28.5634 6.88871 28.5634 6.59671C28.5366 6.25071 28.6436 6.03772 28.8575 5.90472Z" fill="#1F074F"/>
<path d="M36.8264 7.15439C36.6927 7.18139 36.559 7.20737 36.4253 7.23438C36.2915 7.23438 36.1311 7.23438 36.0241 7.23438C35.6764 7.23438 35.302 7.18138 34.9543 7.10138C34.6066 7.02138 34.2857 6.91539 34.045 6.80939H33.9648V8.08539C34.2322 8.16539 34.5532 8.24539 34.9008 8.29839C35.2485 8.35139 35.5962 8.37839 35.9439 8.37839C36.9066 8.37839 37.602 8.21838 38.0834 7.89938C38.5648 7.58038 38.8055 7.10138 38.8055 6.46338C38.8055 6.11738 38.7253 5.82439 38.5648 5.58539C38.4043 5.34639 38.1636 5.16037 37.8962 5.02737C37.6287 4.89437 37.3078 4.81438 36.9601 4.76138L36.452 4.68138C36.1311 4.62838 35.8636 4.54838 35.7032 4.46838C35.5427 4.38838 35.4625 4.25538 35.4625 4.06938C35.4625 3.83038 35.5694 3.64438 35.8101 3.56438C36.0508 3.45738 36.3718 3.40439 36.7729 3.40439C37.0404 3.40439 37.3078 3.43138 37.5753 3.45738C37.8427 3.51138 38.1101 3.59039 38.3776 3.69739H38.4578V2.44739C38.2171 2.36739 37.9497 2.31438 37.6822 2.28738C37.4148 2.23438 37.1206 2.23438 36.8264 2.23438C36.1578 2.23438 35.5962 2.31438 35.195 2.50038C34.7939 2.66038 34.4729 2.89938 34.2857 3.19138C34.0985 3.48438 33.9915 3.80338 33.9915 4.14938C33.9915 4.65438 34.152 5.02739 34.4729 5.26639C34.7939 5.50539 35.2485 5.69139 35.8101 5.79839L36.3183 5.87839C36.666 5.93139 36.9334 6.01138 37.0939 6.09038C37.2543 6.17038 37.3346 6.30339 37.3346 6.51639C37.3346 6.67639 37.2811 6.80938 37.2008 6.88838C37.0671 7.04838 36.9601 7.12839 36.8264 7.15439Z" fill="#1F074F"/>
<path d="M45.7326 8.35074V4.91974C45.7326 4.41474 45.6791 3.98874 45.5454 3.66974C45.4116 3.32374 45.2244 3.05873 45.0105 2.84573C44.7965 2.63273 44.5023 2.47274 44.2081 2.39374C43.914 2.28674 43.5663 2.26074 43.2186 2.26074C42.8709 2.26074 42.55 2.28674 42.2826 2.36674C42.1488 2.39374 42.0151 2.44674 41.8814 2.49974V0.0527344H40.2767L40.25 0.132736C40.2767 0.265736 40.3035 0.425734 40.3035 0.664734C40.3302 0.877734 40.3302 1.11674 40.3302 1.32974C40.3302 1.54274 40.3302 1.72874 40.3302 1.88774V8.32375H41.8547V3.66974H41.8814C42.0151 3.64374 42.1756 3.58974 42.336 3.56374C42.4965 3.53674 42.657 3.51074 42.8174 3.51074C43.0849 3.51074 43.3256 3.56374 43.5395 3.64374C43.7535 3.72274 43.914 3.88273 44.0209 4.09573C44.1279 4.30873 44.2081 4.60074 44.2081 4.99974V8.35074H45.7326Z" fill="#1F074F"/>
<path d="M50.4124 0C49.8775 0 49.4227 0.0800065 49.0483 0.266006C48.6739 0.452006 48.3798 0.717995 48.1926 1.064C48.0054 1.41 47.8984 1.862 47.8984 2.394H46.9355V3.617H47.8984V8.351H49.4228V3.617H50.9473V2.394H49.4228C49.4228 1.968 49.5031 1.676 49.6635 1.489C49.824 1.277 50.1181 1.19701 50.4925 1.19701C50.653 1.19701 50.7868 1.223 50.8938 1.25C51.0008 1.277 51.1077 1.303 51.188 1.33H51.2949V0.132996C51.188 0.0799956 51.0542 0.0529928 50.8938 0.0269928C50.7868 -7.20285e-06 50.5996 0 50.4124 0Z" fill="#1F074F"/>
<path d="M52.0979 3.98946C52.0979 4.20246 52.0979 4.38846 52.0979 4.54846V8.35146H53.6223V4.38846C53.6223 4.06946 53.5955 3.83045 53.5688 3.64445C53.649 3.61745 53.7293 3.61745 53.8362 3.59045C54.0502 3.56445 54.2909 3.53746 54.5316 3.53746C54.6653 3.53746 54.799 3.53745 54.9328 3.56445C55.0665 3.56445 55.2002 3.59046 55.3072 3.61746H55.4141V2.36746C55.2537 2.34046 55.12 2.34045 54.9595 2.31445C54.799 2.31445 54.6653 2.31445 54.5316 2.31445C54.2374 2.31445 53.9165 2.34046 53.6223 2.36746C53.3281 2.39446 53.0339 2.44746 52.7665 2.50046C52.499 2.55346 52.2583 2.63346 52.0444 2.68646L52.0176 2.76646C52.0444 2.89946 52.0711 3.08546 52.0711 3.29846C52.0711 3.53746 52.0979 3.75046 52.0979 3.98946Z" fill="#1F074F"/>
<path d="M60.8427 8.37811C61.1369 8.32411 61.4044 8.2451 61.5916 8.1651V6.9411H61.4846C61.3241 7.0211 61.1102 7.10111 60.8427 7.18111C60.5753 7.23411 60.2544 7.28711 59.9067 7.28711C59.5055 7.28711 59.1578 7.23411 58.8369 7.12811C58.5427 7.02111 58.302 6.8351 58.1148 6.5961C57.9811 6.4101 57.9009 6.17011 57.8741 5.87811H61.9927V5.50511C62.0195 4.86711 61.9392 4.33511 61.752 3.85611C61.5648 3.37811 61.2706 2.9791 60.8427 2.7131C60.4148 2.4471 59.8799 2.28711 59.2113 2.28711C58.623 2.28711 58.0881 2.42011 57.6602 2.66011C57.2323 2.89911 56.8846 3.27111 56.6439 3.72311C56.4032 4.17611 56.2695 4.7341 56.2695 5.3721C56.2695 5.9041 56.3497 6.38311 56.5102 6.75511C56.6706 7.15411 56.9113 7.4731 57.2055 7.7131C57.4997 7.9521 57.8741 8.1381 58.302 8.2711C58.7299 8.4041 59.2113 8.45711 59.773 8.45711C60.2009 8.45711 60.5485 8.43111 60.8427 8.37811ZM58.5427 3.5641C58.7567 3.4571 58.9974 3.37811 59.2648 3.37811C59.6927 3.37811 60.0137 3.48411 60.2009 3.72311C60.4148 3.96311 60.5218 4.2821 60.5218 4.7341V4.78711H57.9009C57.9276 4.52111 57.9811 4.2821 58.0613 4.0961C58.1683 3.8561 58.3288 3.6701 58.5427 3.5641Z" fill="#1F074F"/>
<path d="M68.7599 3.80338C68.5727 3.32438 68.2785 2.92639 67.8506 2.66039C67.4227 2.39439 66.8878 2.23438 66.2192 2.23438C65.6308 2.23438 65.0959 2.36738 64.668 2.60638C64.2401 2.84638 63.8924 3.21838 63.6517 3.67038C63.411 4.12238 63.2773 4.68138 63.2773 5.31938C63.2773 5.85138 63.3575 6.33038 63.518 6.70238C63.6785 7.10138 63.9192 7.42039 64.2134 7.66039C64.5075 7.89939 64.882 8.08538 65.3099 8.21838C65.7378 8.35138 66.2192 8.40439 66.7808 8.40439C67.182 8.40439 67.5296 8.37839 67.8238 8.32439C68.118 8.27139 68.3855 8.19138 68.5727 8.11238V6.88838H68.4657C68.3052 6.96838 68.0913 7.04839 67.8238 7.12839C67.5564 7.18139 67.2355 7.23438 66.8878 7.23438C66.4866 7.23438 66.1389 7.18139 65.818 7.07439C65.5238 6.96839 65.2831 6.78238 65.0959 6.54338C64.9622 6.35638 64.882 6.11739 64.8552 5.82439H68.9738V5.45238C69.0273 4.84038 68.9471 4.28238 68.7599 3.80338ZM67.5029 4.81438H64.882C64.9087 4.54838 64.9622 4.30938 65.0424 4.12238C65.1761 3.85638 65.3366 3.67038 65.5238 3.56438C65.7378 3.45738 65.9785 3.37839 66.2459 3.37839C66.6738 3.37839 66.9948 3.48439 67.182 3.72339C67.3959 3.96339 67.5029 4.28238 67.5029 4.73438V4.81438Z" fill="#1F074F"/>
<path d="M6.76731 0.106079C5.18941 0.106079 3.87891 1.38307 3.87891 2.95207H14.5499C16.1278 2.95207 17.4382 1.67608 17.4382 0.0800781L6.76731 0.106079Z" fill="#04AB61"/>
<path d="M3.87891 2.95207C3.87891 1.38307 5.16271 0.0800781 6.76731 0.0800781V10.6911C6.76731 12.2611 5.48361 13.5641 3.87891 13.5641V2.95207Z" fill="#04AB61"/>
<path fill-rule="evenodd" clip-rule="evenodd" d="M7.67578 3.91016V6.78215H11.0189C12.5968 6.78215 13.9072 5.50516 13.9072 3.91016H7.67578Z" fill="#FBB016"/>
<path d="M0 6.78215C0 5.21315 1.2837 3.91016 2.8884 3.91016V14.5211C2.8884 16.0901 1.6047 17.3941 0 17.3941V6.78215Z" fill="#FBB016"/>
</svg>
