<svg xmlns="http://www.w3.org/2000/svg"  viewBox="0 0 50 50" width="200px" height="200px"><path d="M 14 2.4804688 L 13.5 2.7695312 L 8.5 5.6582031 L 8 5.9472656 L 8 6.5253906 L 8 12.294922 L 8 12.5625 L 8.1347656 12.794922 L 10.636719 17.128906 L 8.5 18.361328 L 8 18.650391 L 8 19.228516 L 8 35.386719 L 8 35.964844 L 8.5 36.253906 L 24.5 45.494141 L 25 45.783203 L 25.5 45.494141 L 29.117188 43.40625 L 30.056641 46.113281 L 30.453125 47.259766 L 31.501953 46.652344 L 41.501953 40.873047 L 42.001953 40.583984 L 42.001953 40.007812 L 42.001953 28.466797 L 42.001953 27.257812 L 40.814453 27.484375 L 36 28.408203 L 36 22.6875 L 36 22.109375 L 35.5 21.820312 L 34 20.955078 L 34 18.068359 L 34 17.800781 L 33.865234 17.568359 L 30.865234 12.373047 L 30.732422 12.140625 L 30.5 12.005859 L 25.5 9.1191406 L 25 8.8300781 L 24.5 9.1191406 L 22.367188 10.353516 L 19.867188 6.0214844 L 19.732422 5.7890625 L 19.5 5.65625 L 14.5 2.7695312 L 14 2.4804688 z M 14 3.9238281 L 18.498047 6.5214844 L 17 7.3867188 L 12.5 4.7910156 L 14 3.9238281 z M 12.001953 5.078125 L 16.816406 7.859375 L 19.783203 12.996094 A 0.250025 0.250025 0 0 0 20.125 13.087891 L 22.103516 11.949219 A 0.250025 0.250025 0 0 0 22.125 11.9375 A 0.25025175 0.25025175 0 0 0 22.146484 11.923828 L 23.001953 11.429688 L 27.816406 14.210938 L 30.75 19.289062 L 30.75 24.851562 L 28 26.439453 L 23.183594 23.658203 L 20.216797 18.521484 A 0.250025 0.250025 0 0 0 19.875 18.429688 L 17 20.089844 L 12.148438 17.289062 A 0.250025 0.250025 0 0 0 12.146484 17.287109 L 12.126953 17.275391 L 12.179688 17.300781 L 9.25 12.228516 L 9.25 6.6699219 L 12.001953 5.078125 z M 18.908203 6.8632812 L 21.660156 11.628906 L 20.091797 12.53125 L 17.341797 7.7675781 L 18.908203 6.8632812 z M 12.980469 7.4257812 A 0.250025 0.250025 0 0 0 12.875 7.4589844 L 10.875 8.6152344 A 0.250025 0.250025 0 0 0 10.75 8.8300781 L 10.75 12.294922 A 0.250025 0.250025 0 0 0 10.783203 12.419922 L 12.783203 15.884766 A 0.250025 0.250025 0 0 0 12.875 15.974609 L 15.875 17.707031 A 0.250025 0.250025 0 0 0 16.125 17.707031 L 18.125 16.552734 A 0.250025 0.250025 0 0 0 18.25 16.337891 L 18.25 12.871094 A 0.250025 0.250025 0 0 0 18.216797 12.746094 L 16.216797 9.2871094 A 0.250025 0.250025 0 0 0 16.125 9.1953125 L 13.125 7.4589844 A 0.250025 0.250025 0 0 0 12.980469 7.4257812 z M 13 7.9648438 L 15.816406 9.5957031 L 17.75 12.941406 L 17.75 16.193359 L 16 17.203125 L 13.183594 15.576172 L 11.25 12.228516 L 11.25 8.9746094 L 13 7.9648438 z M 25 10.275391 L 29.5 12.873047 L 28 13.738281 L 23.501953 11.140625 L 25 10.275391 z M 29.908203 13.212891 L 32.658203 17.976562 L 31.091797 18.880859 L 28.341797 14.119141 L 29.908203 13.212891 z M 23.980469 13.777344 A 0.250025 0.250025 0 0 0 23.875 13.810547 L 21.875 14.964844 A 0.250025 0.250025 0 0 0 21.75 15.181641 L 21.75 18.646484 A 0.250025 0.250025 0 0 0 21.783203 18.771484 L 23.783203 22.234375 A 0.250025 0.250025 0 0 0 23.875 22.326172 L 26.875 24.058594 A 0.250025 0.250025 0 0 0 27.125 24.058594 L 29.125 22.904297 A 0.250025 0.250025 0 0 0 29.25 22.6875 L 29.25 19.222656 A 0.250025 0.250025 0 0 0 29.216797 19.097656 L 27.216797 15.636719 A 0.250025 0.250025 0 0 0 27.125 15.544922 L 24.125 13.810547 A 0.250025 0.250025 0 0 0 23.980469 13.777344 z M 24 14.316406 L 26.816406 15.945312 L 28.75 19.291016 L 28.75 22.542969 L 27 23.552734 L 24.183594 21.927734 L 22.25 18.578125 L 22.25 15.326172 L 24 14.316406 z M 12.003906 17.78125 L 16.875 20.59375 A 0.250025 0.250025 0 0 0 17.125 20.59375 L 19.908203 18.988281 L 22.783203 23.966797 A 0.250025 0.250025 0 0 0 22.875 24.058594 L 27.5 26.728516 L 25 28.171875 L 9.5 19.228516 L 12.003906 17.78125 z M 32.75 18.501953 L 32.75 21.515625 A 0.250025 0.250025 0 0 0 32.75 21.533203 L 32.75 23.697266 L 31.25 24.564453 L 31.25 19.367188 L 32.75 18.501953 z M 9.25 19.662109 L 24.75 28.605469 L 24.75 44.195312 L 9.25 35.244141 L 9.25 19.662109 z M 33.25 21.966797 L 34.5 22.6875 L 33.25 23.408203 L 33.25 21.966797 z M 34.75 23.121094 L 34.75 29.412109 L 31.953125 29.947266 A 0.250025 0.250025 0 0 0 31.875 29.976562 L 27.886719 32.277344 A 0.25074094 0.25074094 0 0 0 27.884766 32.279297 L 27.875 32.285156 A 0.25074094 0.25074094 0 0 0 27.863281 32.291016 A 0.250025 0.250025 0 0 0 27.853516 32.298828 A 0.25074094 0.25074094 0 0 0 27.841797 32.306641 A 0.250025 0.250025 0 0 0 27.833984 32.314453 A 0.25074094 0.25074094 0 0 0 27.824219 32.322266 A 0.250025 0.250025 0 0 0 27.816406 32.332031 A 0.25074094 0.25074094 0 0 0 27.806641 32.341797 A 0.250025 0.250025 0 0 0 27.800781 32.349609 A 0.25074094 0.25074094 0 0 0 27.787109 32.367188 A 0.250025 0.250025 0 0 0 27.785156 32.371094 A 0.25074094 0.25074094 0 0 0 27.779297 32.382812 A 0.250025 0.250025 0 0 0 27.771484 32.396484 A 0.25074094 0.25074094 0 0 0 27.767578 32.404297 A 0.250025 0.250025 0 0 0 27.763672 32.416016 A 0.25074094 0.25074094 0 0 0 27.759766 32.427734 A 0.250025 0.250025 0 0 0 27.755859 32.439453 A 0.25074094 0.25074094 0 0 0 27.753906 32.453125 A 0.250025 0.250025 0 0 0 27.751953 32.464844 A 0.25074094 0.25074094 0 0 0 27.75 32.478516 A 0.250025 0.250025 0 0 0 27.748047 32.501953 L 27.75 37.121094 A 0.250025 0.250025 0 0 0 27.763672 37.203125 L 29.363281 41.822266 L 25.25 44.195312 L 25.25 28.605469 L 31.101562 25.228516 A 0.250025 0.250025 0 0 0 31.148438 25.201172 L 33.091797 24.078125 A 0.250025 0.250025 0 0 0 33.150391 24.044922 L 34.75 23.121094 z M 40.751953 28.898438 L 40.751953 39.863281 L 31.251953 45.351562 L 31.25 34.382812 L 40.751953 28.898438 z M 39.591797 28.992188 L 31 33.949219 L 28.5 32.501953 L 32.087891 30.429688 L 35.03125 29.867188 A 0.250025 0.250025 0 0 0 35.046875 29.865234 L 39.591797 28.992188 z M 38.992188 31.677734 A 0.250025 0.250025 0 0 0 38.875 31.710938 L 32.910156 35.15625 L 32.908203 35.15625 A 0.250025 0.250025 0 0 0 32.75 35.425781 L 32.75 42.320312 A 0.250025 0.250025 0 0 0 33.125 42.537109 L 39.089844 39.091797 L 39.091797 39.091797 A 0.250025 0.250025 0 0 0 39.25 38.822266 L 39.25 31.927734 A 0.250025 0.250025 0 0 0 38.992188 31.677734 z M 38.75 32.361328 L 38.75 38.421875 L 33.5 35.392578 L 38.75 32.361328 z M 28.25 32.9375 L 30.75 34.382812 L 30.751953 44.306641 L 29.917969 41.900391 A 0.250025 0.250025 0 0 0 29.916016 41.894531 A 0.250025 0.250025 0 0 0 29.902344 41.853516 L 28.25 37.078125 L 28.25 32.9375 z M 33.25 35.826172 L 38.5 38.855469 L 33.25 41.888672 L 33.25 35.826172 z"/></svg>