<svg xmlns="http://www.w3.org/2000/svg"  viewBox="0 0 48 48" width="192px" height="192px"><defs><linearGradient id="0ycmiNFzWbVaO_VmRCb1Ua" x1="24" x2="24" y1="5" y2="43" gradientUnits="userSpaceOnUse"><stop offset=".278" stop-color="#4adb2e"/><stop offset=".554" stop-color="#43ce21"/><stop offset="1" stop-color="#33b004"/></linearGradient></defs><path fill="url(#0ycmiNFzWbVaO_VmRCb1Ua)" d="M24,43a2.648,2.648,0,0,1-2.478-1.694c-.922-2.461-.6-5.081-.185-8.4.13-1.04.27-2.167.388-3.405-.8.952-1.5,1.85-2.14,2.678-2.054,2.637-3.677,4.72-6.069,5.807a2.538,2.538,0,0,1-1.066.231,2.685,2.685,0,0,1-1.885-.784,2.649,2.649,0,0,1-.554-2.951c1.088-2.392,3.171-4.014,5.809-6.069.827-.644,1.725-1.344,2.686-2.137-1.246.115-2.373.255-3.412.384a39.559,39.559,0,0,1-4.74.412,10.169,10.169,0,0,1-3.659-.6,2.661,2.661,0,0,1,0-4.958,10.178,10.178,0,0,1,3.66-.6,39.559,39.559,0,0,1,4.74.412c1.039.129,2.166.269,3.4.388-.952-.8-1.85-1.5-2.677-2.141-2.638-2.055-4.721-3.677-5.809-6.069a2.651,2.651,0,0,1,.553-2.951,2.689,2.689,0,0,1,1.886-.784,2.549,2.549,0,0,1,1.067.231c2.391,1.087,4.014,3.17,6.068,5.807.644.828,1.344,1.726,2.137,2.687-.115-1.247-.255-2.374-.385-3.414-.412-3.317-.737-5.937.184-8.4a2.66,2.66,0,0,1,4.957,0c.922,2.461.6,5.081.185,8.4-.13,1.04-.27,2.167-.388,3.4.8-.952,1.5-1.85,2.14-2.678,2.054-2.637,3.677-4.72,6.069-5.807a2.541,2.541,0,0,1,1.066-.231,2.688,2.688,0,0,1,1.884.782,2.652,2.652,0,0,1,.555,2.953c-1.088,2.392-3.171,4.014-5.809,6.069-.827.644-1.725,1.344-2.686,2.137,1.246-.115,2.373-.255,3.412-.384a39.559,39.559,0,0,1,4.74-.412,10.169,10.169,0,0,1,3.659.6,2.661,2.661,0,0,1,0,4.958,10.178,10.178,0,0,1-3.66.6h0a39.559,39.559,0,0,1-4.74-.412c-1.039-.129-2.166-.269-3.4-.388.952.8,1.85,1.5,2.677,2.141,2.638,2.055,4.721,3.677,5.809,6.069a2.649,2.649,0,0,1-.554,2.951,2.685,2.685,0,0,1-1.885.784,2.545,2.545,0,0,1-1.067-.231c-2.391-1.087-4.014-3.17-6.068-5.807-.644-.828-1.344-1.726-2.137-2.687.115,1.247.255,2.374.385,3.414.412,3.317.737,5.937-.184,8.4A2.65,2.65,0,0,1,24,43Z" data-name="asterisk-star-sparkle"/></svg>