<svg xmlns="http://www.w3.org/2000/svg"  viewBox="0 0 50 50" width="200px" height="200px" baseProfile="basic"><path fill="none" stroke="#060000" stroke-linecap="round" stroke-linejoin="round" stroke-miterlimit="10" stroke-width=".5" d="M23.383,21.5l-8.661,5"/><line x1="17.242" x2="19.068" y1="27.955" y2="29.009" fill="none" stroke="#060000" stroke-linecap="round" stroke-linejoin="round" stroke-miterlimit="10" stroke-width=".5"/><line x1="30.369" x2="35.507" y1="31.466" y2="28.5" fill="none" stroke="#060000" stroke-linecap="round" stroke-linejoin="round" stroke-miterlimit="10" stroke-width=".5"/><polyline fill="none" stroke="#060000" stroke-linecap="round" stroke-linejoin="round" stroke-miterlimit="10" stroke-width=".5" points="26.357,36.912 24.242,43.004 24.242,41.004"/><polygon fill="none" stroke="#060000" stroke-linecap="round" stroke-linejoin="round" stroke-miterlimit="10" stroke-width=".5" points="6.928,31 6.866,29.036 17.321,28 17.321,30"/><polygon fill="none" stroke="#060000" stroke-linecap="round" stroke-linejoin="round" stroke-miterlimit="10" stroke-width=".5" points="24.202,40.884 21.604,39.384 21.644,41.504 24.242,43.004"/><polygon fill="none" stroke="#060000" stroke-linecap="round" stroke-linejoin="round" stroke-miterlimit="10" stroke-width=".5" points="6.866,29.036 4.33,27.5 4.33,29.5 6.928,31"/><line x1="21.651" x2="22.552" y1="39.5" y2="36.898" fill="none" stroke="#060000" stroke-linecap="round" stroke-linejoin="round" stroke-miterlimit="10" stroke-width=".5"/><polygon fill="none" stroke="#060000" stroke-linecap="round" stroke-linejoin="round" stroke-miterlimit="10" stroke-width=".5" points="7,28.042 7.866,28.542 7.866,27.001 7.006,26.99"/><polygon fill="none" stroke="#060000" stroke-linecap="round" stroke-linejoin="round" stroke-miterlimit="10" stroke-width=".5" points="7.866,28.542 8.729,28.043 8.729,27.017 7.888,27.013"/><polyline fill="none" stroke="#060000" stroke-linecap="round" stroke-linejoin="round" stroke-miterlimit="10" stroke-width=".5" points="35.507,28.5 45.033,27 45.033,29 35.507,30.5"/><path fill="none" stroke="#060000" stroke-linecap="round" stroke-linejoin="round" stroke-miterlimit="10" stroke-width=".5" d="M32.909,27l7.766-1.223 M42.435,25.5l2.598,1.5l-9.526,1.5"/><path fill="none" stroke="#060000" stroke-linecap="round" stroke-linejoin="round" stroke-miterlimit="10" stroke-width=".5" d="M23.383,21.5l2.104-4.454 M25.793,22.345 M28.579,17.5"/><polyline fill="none" stroke="#060000" stroke-linecap="round" stroke-linejoin="round" stroke-miterlimit="10" stroke-width=".5" points="25.815,16.765 25.984,17.998 26.85,18.498 26.85,16.976"/><polyline fill="none" stroke="#060000" stroke-linecap="round" stroke-linejoin="round" stroke-miterlimit="10" stroke-width=".5" points="26.832,16.975 26.85,18.498 27.713,18 27.641,16.75"/><polygon fill="none" stroke="#060000" stroke-linecap="round" stroke-linejoin="round" stroke-miterlimit="10" stroke-width=".5" points="40.703,26.5 41.569,27 41.569,24.5 40.709,24.505"/><polyline fill="none" stroke="#060000" stroke-linecap="round" stroke-linejoin="round" stroke-miterlimit="10" stroke-width=".5" points="22.584,36.911 22.581,39.037 23.447,39.537"/><polygon fill="none" stroke="#060000" stroke-linecap="round" stroke-linejoin="round" stroke-miterlimit="10" stroke-width=".5" points="41.569,27 42.432,26.502 42.432,24.502 41.582,24.51"/><polyline fill="none" stroke="#060000" stroke-linecap="round" stroke-linejoin="round" stroke-miterlimit="10" stroke-width=".5" points="23.504,37.062 23.447,39.537 24.31,39.039 24.383,37.036"/><polyline fill="none" stroke="#060000" stroke-linecap="round" stroke-linejoin="round" stroke-miterlimit="10" stroke-width=".5" points="42.512,24.504 44.175,24.504 48.505,22.004 48.505,18.004 44.175,15.504 38.979,15.504 34.649,18.004 34.649,22.004 38.979,24.504 40.408,24.504"/><polygon fill="none" stroke="#060000" stroke-linecap="round" stroke-linejoin="round" stroke-miterlimit="10" stroke-width=".5" points="16.526,34.542 20.856,37.042 26.053,37.042 30.383,34.542 30.383,30.542 26.053,28.042 20.856,28.042 16.526,30.542"/><polygon fill="none" stroke="#060000" stroke-linecap="round" stroke-linejoin="round" stroke-miterlimit="10" stroke-width=".5" points="20,14.453 24.33,16.953 29.526,16.953 33.856,14.453 33.856,10.453 29.526,7.953 24.33,7.953 20,10.453"/><polygon fill="none" stroke="#060000" stroke-linecap="round" stroke-linejoin="round" stroke-miterlimit="10" stroke-width=".5" points="0.866,24.5 5.196,27 10.392,27 14.722,24.5 14.722,20.5 10.392,18 5.196,18 0.866,20.5"/><polygon fill="none" stroke="#060000" stroke-linecap="round" stroke-linejoin="round" stroke-miterlimit="10" stroke-width=".5" points="6.928,23.009 7.794,23.509 7.794,22.511 6.934,22.014"/><polygon fill="none" stroke="#060000" stroke-linecap="round" stroke-linejoin="round" stroke-miterlimit="10" stroke-width=".5" points="7.794,23.509 8.657,23.011 8.657,22.011 7.816,22.497"/><polygon fill="none" stroke="#060000" stroke-linecap="round" stroke-linejoin="round" stroke-miterlimit="10" stroke-width=".5" points="8.66,22.009 7.794,21.509 6.928,22.009 7.794,22.511"/><polygon fill="none" stroke="#060000" stroke-linecap="round" stroke-linejoin="round" stroke-miterlimit="10" stroke-width=".5" points="40.933,19.641 41.799,20.141 41.799,19.142 40.939,18.646"/><polygon fill="none" stroke="#060000" stroke-linecap="round" stroke-linejoin="round" stroke-miterlimit="10" stroke-width=".5" points="22.81,32.178 23.676,32.678 23.676,31.679 22.816,31.183"/><polygon fill="none" stroke="#060000" stroke-linecap="round" stroke-linejoin="round" stroke-miterlimit="10" stroke-width=".5" points="25.977,12.002 26.843,12.502 26.843,11.504 25.983,11.007"/><polygon fill="none" stroke="#060000" stroke-linecap="round" stroke-linejoin="round" stroke-miterlimit="10" stroke-width=".5" points="41.799,20.141 42.662,19.642 42.662,18.643 41.82,19.129"/><polygon fill="none" stroke="#060000" stroke-linecap="round" stroke-linejoin="round" stroke-miterlimit="10" stroke-width=".5" points="23.676,32.678 24.539,32.179 24.539,31.18 23.698,31.666"/><polygon fill="none" stroke="#060000" stroke-linecap="round" stroke-linejoin="round" stroke-miterlimit="10" stroke-width=".5" points="26.843,12.502 27.706,12.004 27.706,11.004 26.865,11.49"/><polygon fill="none" stroke="#060000" stroke-linecap="round" stroke-linejoin="round" stroke-miterlimit="10" stroke-width=".5" points="42.665,18.641 41.799,18.141 40.933,18.641 41.799,19.142"/><polygon fill="none" stroke="#060000" stroke-linecap="round" stroke-linejoin="round" stroke-miterlimit="10" stroke-width=".5" points="24.542,31.178 23.676,30.678 22.81,31.178 23.676,31.679"/><polygon fill="none" stroke="#060000" stroke-linecap="round" stroke-linejoin="round" stroke-miterlimit="10" stroke-width=".5" points="27.709,11.002 26.843,10.502 25.977,11.002 26.843,11.504"/><polygon fill="none" stroke="#060000" stroke-linecap="round" stroke-linejoin="round" stroke-miterlimit="10" stroke-width=".5" points="32.043,32.5 32.909,32 32.909,33 32.043,33.5"/><polygon fill="none" stroke="#060000" stroke-linecap="round" stroke-linejoin="round" stroke-miterlimit="10" points="22.54,37.015 21.661,39.432 21.605,41.489 24.62,43.319 26.663,37.006 28.651,37.488 33.961,34.491 34.649,31.076 35.504,30.433 44.995,28.971 45.124,26.969 42.709,25.443 42.674,24.546 44.102,24.467 48.567,21.894 48.581,18.023 44.19,15.528 39.037,15.425 34.751,17.948 34.663,22.027 38.858,24.398 40.444,24.501 40.439,25.775 32.937,26.969 27,23.412 29,19.743 28.613,17.576 27.799,16.933 29.512,16.931 33.85,14.434 33.855,10.491 29.588,7.958 24.411,7.935 20.065,10.389 19.923,14.461 24.24,16.966 25.568,16.966 23.361,21.545 14.828,26.516 10.721,26.848 14.689,24.545 14.808,20.334 10.55,17.956 5.311,17.937 0.892,20.446 0.862,24.375 5.174,26.951 4.327,27.401 4.292,29.536 7.015,31.193 14.422,30.545 14.738,30.623 16.573,31.513 16.542,34.472 20.855,37.012"/></svg>