<svg width="30" height="30" viewBox="0 0 30 30" fill="none" xmlns="http://www.w3.org/2000/svg">
<path d="M28.6171 28.8281H27.3319V10.1681C27.3319 9.2996 26.6253 8.59302 25.7568 8.59302H22.8843C22.0158 8.59302 21.3092 9.29966 21.3092 10.1681V28.8281H18.046V18.6226C18.046 17.754 17.3394 17.0474 16.4709 17.0474H13.5984C12.7298 17.0474 12.0233 17.7541 12.0233 18.6226V28.8281H8.76006V23.5427C8.76006 22.6742 8.05342 21.9676 7.18494 21.9676H4.31238C3.44385 21.9676 2.73727 22.6743 2.73727 23.5427V28.8281H1.38281C1.0592 28.8281 0.796875 29.0905 0.796875 29.4141C0.796875 29.7377 1.0592 30 1.38281 30H28.6171C28.9407 30 29.203 29.7377 29.203 29.4141C29.203 29.0905 28.9407 28.8281 28.6171 28.8281ZM7.58807 28.8281H3.90908V23.5427C3.90908 23.3204 4.08996 23.1395 4.31232 23.1395H7.18482C7.40719 23.1395 7.58807 23.3204 7.58807 23.5427V28.8281ZM16.8741 28.8281H13.1951V18.6226C13.1951 18.4002 13.376 18.2193 13.5983 18.2193H16.4708C16.6931 18.2193 16.8741 18.4002 16.8741 18.6226V28.8281ZM26.1601 28.8281H22.4811V10.1681C22.4811 9.94577 22.662 9.76489 22.8843 9.76489H25.7568C25.9792 9.76489 26.1601 9.94577 26.1601 10.1681V28.8281Z" fill="white"/>
<path d="M27.3308 0.616172C27.339 0.45627 27.2828 0.293672 27.1606 0.171562C27.0385 0.0494531 26.8759 -0.00685547 26.716 0.00140625C26.7066 0.000996094 26.6973 0 26.6877 0H23.1428C22.8191 0 22.5568 0.262324 22.5568 0.585938C22.5568 0.909551 22.8191 1.17188 23.1428 1.17188H25.3316L19.5392 6.96434L17.3549 4.77996C17.245 4.6701 17.0959 4.60834 16.9406 4.60834C16.7852 4.60834 16.6361 4.6701 16.5262 4.77996L5.9929 15.3134C5.76409 15.5422 5.76409 15.9132 5.9929 16.1421C6.10733 16.2564 6.25727 16.3136 6.40721 16.3136C6.55715 16.3136 6.70715 16.2564 6.82153 16.1419L16.9406 6.02285L19.1249 8.20723C19.3537 8.43604 19.7248 8.43604 19.9536 8.20723L26.1603 2.00057V3.98162C26.1603 4.30523 26.4227 4.56756 26.7463 4.56756C27.0699 4.56756 27.3322 4.30523 27.3322 3.98162V0.644531C27.3322 0.63498 27.3312 0.625664 27.3308 0.616172Z" fill="white"/>
<path d="M4.43213 18.358C4.75573 18.358 5.01807 18.0957 5.01807 17.7721C5.01807 17.4485 4.75573 17.1862 4.43213 17.1862C4.10852 17.1862 3.84619 17.4485 3.84619 17.7721C3.84619 18.0957 4.10852 18.358 4.43213 18.358Z" fill="white"/>
</svg>
