<svg width="40" height="40" viewBox="0 0 40 40" fill="none" xmlns="http://www.w3.org/2000/svg">
<path d="M18.5602 30.7198C18.5602 32.3601 18.578 33.9826 18.5602 35.6229C18.5245 38.1546 16.7785 39.9554 14.2486 39.9732C10.9526 40.0089 7.65657 40.0089 4.36055 39.9732C1.795 39.9554 0.0133622 38.119 0.0133622 35.5516C-0.00445408 32.3066 -0.00445408 29.0795 0.0133622 25.8346C0.0311786 23.285 1.83063 21.4308 4.37836 21.413C7.63875 21.3773 10.8991 21.3773 14.1773 21.413C16.7429 21.4308 18.5245 23.2672 18.5602 25.8168C18.578 27.4571 18.5602 29.0974 18.5602 30.7198ZM15.7095 30.7555C15.7095 29.1865 15.7095 27.6175 15.7095 26.0307C15.7095 24.7649 15.2463 24.2835 14.017 24.2835C10.8813 24.2656 7.72783 24.2656 4.59216 24.2835C3.39846 24.2835 2.89961 24.7827 2.89961 25.9594C2.88179 29.133 2.88179 32.3066 2.89961 35.4803C2.89961 36.6213 3.38065 37.1205 4.52089 37.1205C7.72783 37.1384 10.9348 37.1384 14.1239 37.1205C15.2641 37.1205 15.7095 36.6213 15.7274 35.4624C15.7095 33.9113 15.7095 32.3245 15.7095 30.7555Z" fill="white"/>
<path d="M39.9735 9.30688C39.9735 10.8759 39.9913 12.4627 39.9735 14.0316C39.9557 16.7952 38.2097 18.5424 35.466 18.5603C32.2946 18.5781 29.1233 18.5781 25.9342 18.5603C23.2083 18.5424 21.4267 16.7595 21.4089 14.0316C21.3911 10.8759 21.3911 7.7379 21.4089 4.58212C21.4267 1.81858 23.2261 0 25.9877 0C29.1412 0 32.2768 0 35.4303 0C38.174 0 39.9378 1.7651 39.9735 4.49297C39.9913 6.09761 39.9735 7.70224 39.9735 9.30688ZM37.1229 9.36037C37.1229 7.75573 37.1407 6.1511 37.1229 4.54646C37.105 3.3519 36.6418 2.85268 35.466 2.85268C32.3303 2.83485 29.1768 2.85268 26.0411 2.85268C24.8118 2.85268 24.2951 3.3519 24.2951 4.58212C24.2773 7.72007 24.2773 10.8759 24.2951 14.0138C24.2951 15.2084 24.794 15.6898 25.9877 15.6898C29.159 15.6898 32.3303 15.6898 35.5016 15.6898C36.6418 15.6898 37.1229 15.2084 37.1229 14.0673C37.1229 12.5161 37.1229 10.9293 37.1229 9.36037Z" fill="white"/>
<path d="M18.5602 9.27107C18.5602 10.9292 18.578 12.6051 18.5602 14.2633C18.5245 16.7237 16.7429 18.5423 14.2842 18.5601C10.9526 18.5958 7.63875 18.5958 4.3071 18.5601C1.86626 18.5423 0.0311786 16.7059 0.0133622 14.2633C-0.00445408 10.9648 -0.00445408 7.66643 0.0133622 4.36802C0.0311786 1.87192 1.86626 0.035508 4.34273 0.0176787C7.63875 -0.000150524 10.9348 -0.000150524 14.2308 0.0176787C16.6894 0.035508 18.5067 1.85409 18.5423 4.2967C18.578 5.937 18.5602 7.61295 18.5602 9.27107ZM9.31349 15.7074C10.917 15.7074 12.5204 15.7253 14.1239 15.7074C15.2107 15.6896 15.6917 15.2082 15.7095 14.1206C15.7274 10.9114 15.7274 7.70209 15.7095 4.51065C15.7095 3.36958 15.2107 2.87036 14.0883 2.87036C10.917 2.85253 7.74565 2.85253 4.57434 2.87036C3.39846 2.87036 2.89961 3.36958 2.89961 4.54631C2.88179 7.71992 2.88179 10.8935 2.89961 14.0671C2.89961 15.1904 3.39846 15.6896 4.53871 15.6896C6.10655 15.7074 7.71002 15.7074 9.31349 15.7074Z" fill="white"/>
<path d="M30.7446 39.9911C29.1055 39.9911 27.4842 40.0089 25.8451 39.9911C23.2261 39.9554 21.4267 38.1725 21.4089 35.5516C21.3911 32.3423 21.3911 29.1331 21.4089 25.9238C21.4267 23.2851 23.244 21.4487 25.8986 21.4308C29.1055 21.413 32.3125 21.413 35.5194 21.4308C38.1384 21.4487 39.9378 23.2316 39.9735 25.8525C40.0091 29.0974 40.0091 32.3245 39.9735 35.5694C39.9557 38.226 38.1918 39.9733 35.555 39.9911C33.9516 40.0089 32.3481 39.9911 30.7446 39.9911ZM37.1229 30.7555C37.1229 29.1866 37.1229 27.6176 37.1229 26.0308C37.1229 24.7292 36.6596 24.2835 35.3412 24.2835C32.259 24.2835 29.1768 24.2835 26.0946 24.2835C24.794 24.2835 24.2951 24.7649 24.2951 26.0486C24.2773 29.1687 24.2773 32.2888 24.2951 35.3911C24.2951 36.6392 24.7762 37.1206 26.0233 37.1206C29.159 37.1384 32.3125 37.1384 35.4481 37.1206C36.6953 37.1206 37.1229 36.657 37.1407 35.3733C37.1229 33.84 37.1229 32.2888 37.1229 30.7555Z" fill="white"/>
</svg>
