<svg width="40" height="40" viewBox="0 0 40 40" fill="none" xmlns="http://www.w3.org/2000/svg">
<g clip-path="url(#clip0_328_486)">
<path d="M37.3396 20.518C37.1786 20.1887 37.1786 19.811 37.3396 19.4818L38.8314 16.4299C39.662 14.7306 39.0039 12.7052 37.3331 11.8187L34.3324 10.2266C34.0086 10.0548 33.7867 9.74922 33.7233 9.38836L33.1365 6.04237C32.8097 4.17941 31.0864 2.92754 29.214 3.19246L25.8505 3.66824C25.4874 3.71949 25.1285 3.60277 24.8651 3.34801L22.4236 0.986146C21.0642 -0.329002 18.9345 -0.32908 17.5751 0.986146L15.1336 3.34824C14.8702 3.60308 14.5112 3.71957 14.1482 3.66847L10.7847 3.1927C8.91167 2.92762 7.18903 4.17964 6.86223 6.0426L6.27536 9.38844C6.212 9.74938 5.99005 10.0549 5.66638 10.2267L2.66561 11.8189C0.994843 12.7053 0.336722 14.7308 1.16734 16.4301L2.65913 19.482C2.82007 19.8113 2.82007 20.1889 2.65913 20.5181L1.16726 23.57C0.336644 25.2693 0.994765 27.2947 2.66554 28.1811L5.6663 29.7733C5.99005 29.945 6.212 30.2507 6.27536 30.6115L6.86223 33.9575C7.15973 35.6534 8.61394 36.8428 10.2853 36.8427C10.4499 36.8427 10.6169 36.8311 10.7848 36.8073L14.1483 36.3316C14.511 36.2801 14.8702 36.397 15.1337 36.6518L17.5751 39.0137C18.255 39.6713 19.127 40.0001 19.9993 40C20.8714 39.9999 21.744 39.6712 22.4235 39.0137L24.8651 36.6518C25.1285 36.397 25.4876 36.2806 25.8505 36.3316L29.214 36.8073C31.0872 37.0723 32.8097 35.8204 33.1365 33.9574L33.7234 30.6116C33.7868 30.2507 34.0087 29.9451 34.3324 29.7733L37.3331 28.1811C39.0039 27.2947 39.662 25.2692 38.8314 23.5699L37.3396 20.518ZM36.2518 26.1431L33.2511 27.7353C32.2943 28.243 31.6382 29.146 31.4511 30.2128L30.8642 33.5588C30.7537 34.1891 30.1709 34.6124 29.5371 34.523L26.1736 34.0472C25.101 33.8952 24.0396 34.2405 23.261 34.9935L20.8195 37.3553C20.3597 37.8001 19.6391 37.8001 19.1791 37.3553L16.7376 34.9934C16.0797 34.357 15.2195 34.012 14.3216 34.012C14.157 34.012 13.9912 34.0236 13.8251 34.0471L10.4616 34.5229C9.82831 34.6124 9.24511 34.189 9.13448 33.5587L8.54753 30.2127C8.36035 29.1458 7.70426 28.2428 6.74747 27.7352L3.7467 26.143C3.18139 25.8431 2.95874 25.1579 3.23975 24.583L4.73162 21.531C5.20724 20.5579 5.20724 19.4418 4.73162 18.4687L3.23975 15.4168C2.95874 14.8418 3.18139 14.1566 3.7467 13.8567L6.74747 12.2645C7.70418 11.7568 8.36035 10.8538 8.54746 9.78695L9.13433 6.44104C9.24495 5.81073 9.8276 5.38729 10.4614 5.47682L13.8249 5.9526C14.8972 6.1044 15.959 5.75932 16.7375 5.00628L19.179 2.64442C19.6389 2.19958 20.3594 2.19958 20.8194 2.64442L23.2609 5.00628C24.0394 5.7594 25.101 6.1044 26.1734 5.9526L29.5369 5.47682C30.1703 5.38721 30.7535 5.81073 30.864 6.44104L31.4509 9.78703C31.6381 10.8539 32.2942 11.7569 33.251 12.2645L36.2517 13.8567C36.8171 14.1566 37.0397 14.8418 36.7587 15.4168L35.2668 18.4686C34.7912 19.4417 34.7912 20.5579 35.2668 21.5309L36.7587 24.5828C37.0398 25.1579 36.8171 25.8432 36.2518 26.1431Z" fill="white"/>
<path d="M28.4292 11.5715C27.9788 11.121 27.2483 11.121 26.7979 11.5715L11.5722 26.7972C11.1218 27.2477 11.1218 27.978 11.5722 28.4285C11.7975 28.6537 12.0927 28.7664 12.3878 28.7664C12.683 28.7664 12.9783 28.6538 13.2035 28.4285L28.4291 13.2029C28.8797 12.7523 28.8797 12.022 28.4292 11.5715Z" fill="white"/>
<path d="M15.3858 9.61841C13.0537 9.61841 11.1562 11.5158 11.1562 13.848C11.1562 16.1802 13.0537 18.0776 15.3858 18.0776C17.718 18.0776 19.6154 16.1802 19.6154 13.848C19.6154 11.5158 17.718 9.61841 15.3858 9.61841ZM15.3858 15.7705C14.3258 15.7705 13.4633 14.9081 13.4633 13.8479C13.4633 12.7878 14.3258 11.9254 15.3858 11.9254C16.4459 11.9254 17.3084 12.7878 17.3084 13.8479C17.3083 14.9081 16.4459 15.7705 15.3858 15.7705Z" fill="white"/>
<path d="M24.6124 21.9226C22.2802 21.9226 20.3828 23.82 20.3828 26.1522C20.3828 28.4844 22.2802 30.3818 24.6124 30.3818C26.9446 30.3818 28.842 28.4844 28.842 26.1522C28.842 23.82 26.9446 21.9226 24.6124 21.9226ZM24.6124 28.0747C23.5523 28.0747 22.6898 27.2123 22.6898 26.1522C22.6898 25.0921 23.5522 24.2297 24.6124 24.2297C25.6725 24.2297 26.5349 25.0921 26.5349 26.1522C26.5349 27.2123 25.6725 28.0747 24.6124 28.0747Z" fill="white"/>
</g>
<defs>
<clipPath id="clip0_328_486">
<rect width="40" height="40" fill="white"/>
</clipPath>
</defs>
</svg>
