<svg width="40" height="40" viewBox="0 0 40 40" fill="none" xmlns="http://www.w3.org/2000/svg">
<g clip-path="url(#clip0_112_1412)">
<path d="M39.9531 2.98621C39.8665 1.3973 38.6028 0.133784 37.0139 0.0470656C33.8078 -0.128091 27.5341 0.0423001 21.535 3.14519C18.4768 4.72707 15.2424 7.40902 12.6613 10.5034C12.6295 10.5415 12.5985 10.5799 12.567 10.6181L6.70916 11.0706C5.74494 11.1451 4.88611 11.6505 4.35283 12.4571L0.356426 18.5018C-0.0480274 19.1135 -0.112324 19.879 0.184316 20.5496C0.481035 21.2202 1.09072 21.6875 1.81533 21.7998L6.75057 22.5642C6.73314 22.6601 6.71564 22.756 6.69963 22.8519C6.53533 23.8347 6.86096 24.8452 7.5708 25.555L14.4452 32.4294C15.0337 33.0179 15.8289 33.3424 16.6438 33.3424C16.8116 33.3424 16.9803 33.3285 17.1483 33.3005C17.2442 33.2845 17.3401 33.267 17.436 33.2496L18.2004 38.1849C18.3127 38.9095 18.78 39.5192 19.4505 39.8159C19.7295 39.9393 20.0247 40.0003 20.3186 40.0003C20.7313 40.0002 21.1412 39.88 21.4984 39.6439L27.5431 35.6474C28.3497 35.114 28.855 34.2552 28.9294 33.291L29.3819 27.4333C29.4201 27.4017 29.4585 27.3708 29.4967 27.339C32.5911 24.7578 35.2731 21.5235 36.8549 18.4652C39.958 12.4659 40.1281 6.19207 39.9531 2.98621V2.98621ZM26.2505 33.6922L20.4684 37.5151L19.7234 32.7053C22.1671 31.9868 24.5845 30.836 26.8876 29.2944L26.5928 33.1104C26.5745 33.3485 26.4496 33.5606 26.2505 33.6922V33.6922ZM16.1024 30.7721L9.22799 23.8977C9.0526 23.7222 8.9715 23.4757 9.01127 23.2383C9.21564 22.0162 9.53322 20.8528 9.92635 19.7569L20.241 30.0716C18.9248 30.5431 17.7458 30.8243 16.7618 30.9889C16.524 31.0284 16.2778 30.9475 16.1024 30.7721V30.7721ZM6.88971 13.4074L10.7056 13.1126C9.16392 15.4157 8.01314 17.8331 7.29463 20.2768L2.48494 19.5319L6.30791 13.7497C6.43963 13.5505 6.65174 13.4257 6.88971 13.4074V13.4074ZM27.9956 25.5391C26.1024 27.1182 24.2646 28.2604 22.5707 29.0869L10.9128 17.429C11.9955 15.2178 13.3168 13.3764 14.461 12.0047C16.8497 9.14105 19.8206 6.67066 22.6119 5.22691C28.1177 2.37902 33.9185 2.22566 36.8863 2.38722C37.2792 2.40863 37.5916 2.72105 37.613 3.11394C37.7748 6.08175 37.6211 11.8825 34.7732 17.3884C33.3295 20.1796 30.8592 23.1504 27.9956 25.5391Z" fill="#030403"/>
<path d="M27.4001 18.4565C28.9003 18.4563 30.4011 17.8853 31.5432 16.7431C32.6499 15.6365 33.2593 14.1651 33.2593 12.6001C33.2593 11.0351 32.6498 9.56369 31.5432 8.45705C29.2586 6.17244 25.5414 6.1726 23.2571 8.45705C22.1503 9.56369 21.5409 11.0351 21.5409 12.6001C21.5409 14.1651 22.1504 15.6365 23.2571 16.7431C24.3994 17.8855 25.8994 18.4567 27.4001 18.4565ZM24.9142 10.1142C25.5995 9.42885 26.4997 9.08619 27.4 9.08619C28.3003 9.08619 29.2005 9.42885 29.8858 10.1142C30.5498 10.7782 30.9154 11.661 30.9154 12.6C30.9154 13.539 30.5498 14.4219 29.8858 15.0859C28.5152 16.4566 26.2848 16.4565 24.9141 15.0859C24.2501 14.4219 23.8844 13.5391 23.8844 12.6001C23.8844 11.6611 24.2502 10.7782 24.9142 10.1142Z" fill="#030403"/>
<path d="M1.1954 32.9639C1.49532 32.9639 1.79524 32.8495 2.02399 32.6206L5.85 28.7946C6.30766 28.3369 6.30766 27.595 5.85 27.1373C5.39243 26.6797 4.6504 26.6797 4.19274 27.1373L0.366802 30.9633C-0.0908545 31.421 -0.0908545 32.1629 0.366802 32.6206C0.595552 32.8494 0.895474 32.9639 1.1954 32.9639V32.9639Z" fill="#030403"/>
<path d="M9.35629 30.6437C8.89871 30.186 8.15668 30.186 7.69902 30.6437L0.343242 37.9995C-0.114414 38.4572 -0.114414 39.1991 0.343242 39.6568C0.57207 39.8856 0.871914 40 1.17184 40C1.47176 40 1.77168 39.8856 2.00043 39.6567L9.35621 32.3009C9.81395 31.8433 9.81395 31.1013 9.35629 30.6437V30.6437Z" fill="#030403"/>
<path d="M11.2054 34.15L7.37937 37.976C6.92172 38.4337 6.92172 39.1756 7.37937 39.6333C7.6082 39.8621 7.90812 39.9766 8.20797 39.9766C8.50781 39.9766 8.80781 39.8622 9.03656 39.6333L12.8626 35.8073C13.3202 35.3496 13.3202 34.6077 12.8626 34.15C12.405 33.6923 11.663 33.6923 11.2054 34.15Z" fill="#030403"/>
</g>
<defs>
<clipPath id="clip0_112_1412">
<rect width="40" height="40" fill="white"/>
</clipPath>
</defs>
</svg>
