<svg fill="none" height="679" viewBox="0 0 608 679" width="608" xmlns="http://www.w3.org/2000/svg" xmlns:xlink="http://www.w3.org/1999/xlink"><clipPath id="a"><path d="m0 0h607.596v678.251h-607.596z"/></clipPath><g clip-path="url(#a)"><path d="m237.4 92.5996s-4.18 29.0704-8.9 59.7704c-15.37 10.76-38.14 11.64-50.95 8.57-2.045-.448-4.031-1.129-5.92-2.03-9.55-4.78-11.99-10.72-5.08-17.26 1.61-1.52 4.5-4.25 8.09-7.63.61-.58 1.25-1.18 1.91-1.8 11.87-11.18 29.5-27.75 35.05-32.9004z" fill="#fff"/><path d="m177.546 160.942c-2.045-.447-4.031-1.128-5.92-2.03-9.55-4.78-11.99-10.72-5.08-17.26 1.61-1.52 4.5-4.25 8.09-7.63-3.12 3.69-.34 6.34 2.14 6.79 2.87.52 11.93 2.98 11.93 8.28 0 7.06-16.26 5.28-11.16 11.85z" fill="#fece2f"/><path d="m191.808 163.5c-8.508 0-16.032-1.4-20.626-3.693-5.774-2.887-8.973-6.177-9.508-9.778-.444-2.99.963-6.052 4.181-9.1 6.682-6.33 37.372-35.195 45.06-42.3342.122-.1124.269-.1932.429-.235l25.8-6.722c.16-.0416.327-.0431.487-.0043.161.0387.309.1165.432.2263.123.1099.217.2485.273.4034s.074.3214.05.4846c-.041.291-4.233 29.4232-8.9 59.7772-.021.133-.068.261-.139.376-.072.115-.165.214-.276.292-10.544 7.375-24.936 10.307-37.263 10.307zm20.284-63.269c-7.979 7.414-38.233 35.871-44.861 42.149-2.717 2.574-3.921 5.049-3.578 7.356.426 2.876 3.34 5.74 8.424 8.282 9.17 4.585 36.95 6.489 55.491-6.223 4.041-26.282 7.71-51.551 8.62-57.8432z" fill="#1a1a1a"/><path d="m494.986 115.193h-85.22v65.87h85.22z" fill="#fece2f"/><path d="m494.986 115.193h-85.22v5.6h85.22z" fill="#fff"/><path d="m494.983 182.067h-85.213c-.265 0-.52-.105-.707-.293-.188-.187-.293-.442-.293-.707v-65.867c0-.265.105-.519.293-.707.187-.187.442-.293.707-.293h85.213c.265 0 .52.106.707.293.188.188.293.442.293.707v65.869c0 .265-.106.519-.294.706-.187.187-.441.292-.706.292zm-84.213-2h83.213v-63.867h-83.213z" fill="#1a1a1a"/><path d="m384.864 67.3994v43.5526h27.116v-16.4346c.001-3.5611-.7-7.0874-2.063-10.3776s-3.36-6.2797-5.878-8.7979-5.507-4.5157-8.797-5.8785-6.817-2.0641-10.378-2.064z" fill="#fece2f"/><path d="m411.979 111.955h-27.114c-.265 0-.519-.105-.707-.292-.187-.188-.293-.442-.293-.708v-43.5556c0-.2652.106-.5196.293-.7071.188-.1875.442-.2929.707-.2929 7.454.0085 14.6 2.9733 19.871 8.2441 5.27 5.2708 8.235 12.417 8.243 19.8709v16.4376c.001.132-.025.262-.075.384s-.124.232-.217.325c-.092.094-.203.168-.324.218-.122.05-.252.076-.384.076zm-26.114-2h25.114v-15.4376c-.007-6.7512-2.625-13.238-7.306-18.1028s-11.062-7.7305-17.808-7.9972z" fill="#1a1a1a"/><path d="m578.816 184.293c-6.92 8.18-12.39 13.62-12.39 24.33-.016 9.649-.785 19.281-2.3 28.81-7.28 46.35-32.26 95.74-79.72 121.34-1.84 1-3.71 1.95-5.62 2.87-6.784 3.274-13.82 5.999-21.04 8.15h-.02c-15.574 4.561-31.732 6.818-47.96 6.7-10.416-10.641-19.882-22.171-28.29-34.46-39.94-57.34-66.17-131.79-66.57-132.95 28.48 11.42 78.83 48.71 126.56 48.71 3.647.004 7.29-.213 10.91-.65 16.41-1.98 30.41-8.4 40.93-17.54 16.1-13.98 24.08-34.35 20.16-55.04 14.87-.27 65.35-.27 65.35-.27z" fill="#fece2f"/><path d="m478.786 361.643c-6.784 3.274-13.82 5.999-21.04 8.15h-.02c-15.574 4.561-31.732 6.818-47.96 6.7-10.416-10.641-19.882-22.171-28.29-34.46-39.94-57.34-66.17-131.79-66.57-132.95 28.48 11.42 78.83 48.71 126.56 48.71-20.74 47.09 10.91 94.83 37.32 103.85z" fill="#fff"/><path d="m564.126 237.432c-7.28 46.35-32.26 95.74-79.72 121.34 12.85-9.01 18.59-35.35 21.2-45.27s5.74-33.39 16.69-24.26 19.44-19.04 19.31-34.17c-.26-29.69 15.65-37.83 22.52-17.64z" fill="#fff"/><path d="m454.109 347.514c-4.629-.663-9.292-1.064-13.967-1.2-4.68-.112-9.364.064-14.023.525-4.667.44-9.3 1.188-13.869 2.239-2.3.474-4.553 1.125-6.819 1.732-1.127.326-2.237.709-3.356 1.061l-1.675.541-1.653.61c-2.419.853-4.776 1.814-7.092 2.822 2.346 3 4.73 5.918 7.152 8.756 1.2-.477 2.408-.937 3.621-1.356 4.004-1.434 8.089-2.629 12.234-3.578 2.064-.518 4.165-.869 6.256-1.268 1.049-.182 2.107-.308 3.159-.472l1.579-.24 1.589-.173c4.237-.49 8.498-.732 12.762-.724 8.555-.017 17.083.95 25.416 2.881 3.665.86 7.284 1.903 10.844 3.127.84-.386 1.692-.756 2.519-1.156-6.541-2.234-13.4-6.845-19.71-13.231-1.65-.325-3.304-.631-4.967-.896z" fill="#fece2f"/><path d="m333.524 219.719.027 3.3-.1 3.3c-.035 2.2-.233 4.385-.37 6.573-.194 2.184-.431 4.362-.711 6.536-.427 3.082-.962 6.145-1.605 9.188 1.328 3.038 2.731 6.189 4.21 9.452.343-1.483.687-2.965.93-4.468l.615-3.378.483-3.4c.357-2.258.521-4.542.758-6.811.548-6.528.59-13.089.123-19.623-1.483-.8-2.946-1.577-4.376-2.333.016.551.023 1.107.016 1.664z" fill="#fece2f"/><path d="m318.864 219.717c.031-3.104-.212-6.204-.726-9.265-1.1-.486-2.187-.95-3.232-1.369.094.258 1.454 4.137 3.958 10.634z" fill="#fece2f"/><path d="m412.346 255.608c.427-.525.873-1.038 1.32-1.551-2.951-.744-5.892-1.578-8.822-2.5-2.267 2.723-4.235 5.681-5.87 8.825-1.942 3.782-3.266 7.852-3.92 12.054-.629 4.256-.513 8.589.344 12.806.851 4.144 2.324 8.135 4.37 11.838 4.052 7.286 9.964 13.368 17.132 17.626 6.984 4.037 14.754 6.528 22.783 7.305.652.069 1.3.115 1.955.165-.884-2.067-1.693-4.184-2.427-6.351-6.412-1.59-12.501-4.276-18-7.938-5.654-3.869-10.292-9.045-13.521-15.087-3.23-5.807-4.543-12.485-3.751-19.082.849-6.495 4.008-12.699 8.407-18.11z" fill="#fece2f"/><path d="m478.786 362.643c-.11 0-.219-.018-.324-.054-14.425-4.927-29.114-20.349-37.424-39.292-9.5-21.65-9.671-45.056-.487-65.907.11-.238.309-.423.554-.515.245-.093.517-.085.757.02.239.106.428.301.525.545.097.243.095.514-.006.756-8.955 20.332-8.782 43.167.489 64.3 8.094 18.453 22.319 33.448 36.239 38.2.224.077.414.23.535.434.121.203.166.442.128.676-.039.233-.159.445-.34.598-.18.154-.409.238-.646.238z" fill="#1a1a1a"/><path d="m409.765 377.493c-.265 0-.52-.105-.707-.293-10.456-10.683-19.959-22.258-28.4-34.595-40-57.43-66.439-132.454-66.695-133.2-.063-.181-.072-.377-.026-.563.045-.186.143-.355.282-.487.139-.133.313-.222.501-.258s.383-.017.561.054c8.072 3.237 17.685 8.428 28.815 14.438 28.217 15.237 63.335 34.2 97.373 34.2 3.606.003 7.209-.211 10.789-.643 15.559-1.877 29.528-7.86 40.395-17.3 16.176-14.046 23.59-34.27 19.833-54.1-.027-.143-.023-.29.013-.431.036-.142.102-.273.194-.386s.207-.205.338-.268c.131-.064.274-.098.42-.101 14.709-.267 64.863-.27 65.368-.27.191 0 .377.055.538.157.161.103.289.249.369.422s.109.366.084.555c-.026.189-.105.366-.228.512-.569.673-1.128 1.33-1.677 1.969-6.082 7.114-10.476 12.254-10.476 21.715-.047 33.459-8.919 66.314-25.72 95.249-19.583 33.223-48.517 56.349-83.673 66.879-.035.011-.07.019-.105.026-15.645 4.562-31.87 6.825-48.166 6.719zm-93.153-166.62c4.595 12.6 29.6 78.789 65.684 130.588 8.299 12.124 17.628 23.51 27.884 34.031 15.991.071 31.909-2.171 47.258-6.657.035-.01.069-.018.1-.025 74.526-22.369 107.884-96.561 107.884-160.187 0-10.2 4.835-15.855 10.956-23.015.09-.1.179-.209.269-.314-9.543 0-47.95.032-61.994.249 3.389 20.16-4.293 40.572-20.7 54.815-11.17 9.7-25.508 15.852-41.466 17.778-3.66.441-7.343.66-11.029.657-34.544 0-69.908-19.1-98.323-34.44-10.122-5.47-18.989-10.253-26.523-13.48z" fill="#1a1a1a"/><path d="m457.726 369.793c-15.574 4.561-31.732 6.818-47.96 6.7-10.416-10.641-19.882-22.172-28.29-34.46 3.49-16.26 12.955-36.051 25.76-27.25 12.365 8.5 6.78 25.611 14.953 28.064 7.606 2.282 10.778 8.617 12.065 15.926 1.907 10.827 12.131 12.052 23.472 11.02z" fill="#1a1a1a"/><path d="m409.765 377.493c-.265 0-.52-.105-.707-.293-10.456-10.683-19.959-22.258-28.4-34.595-.079-.113-.133-.24-.16-.375-.027-.134-.026-.273.003-.407 2.587-12.053 8.353-26.126 16.776-29.477 3.439-1.367 6.982-.825 10.528 1.613 7.021 4.825 8.528 12.291 9.74 18.29.981 4.853 1.755 8.686 4.934 9.639 6.976 2.094 11.151 7.561 12.763 16.712 1.486 8.44 8.185 11.491 22.4 10.2.247-.023.494.047.692.196.199.149.335.366.382.61s.002.496-.127.708c-.128.212-.331.369-.569.44-15.672 4.579-31.928 6.849-48.255 6.739zm-27.22-35.674c8.234 11.993 17.479 23.258 27.635 33.673 13.162.03 26.283-1.468 39.1-4.464-7.582-.441-14.431-3.134-16.007-12.081-1.468-8.334-5.186-13.288-11.368-15.143-4.327-1.3-5.25-5.868-6.319-11.159-1.2-5.939-2.56-12.671-8.913-17.038-3-2.065-5.836-2.524-8.655-1.4-7.607 3.022-13.059 16.661-15.473 27.612z" fill="#1a1a1a"/><path d="m449.265 351.491c-.133.001-.265-.026-.388-.077-.123-.052-.234-.127-.328-.223-15.371-15.726-22.364-39.82-22.474-56.722-.002-.265.102-.52.289-.709.186-.188.439-.295.705-.297.265-.002.52.102.709.288.188.187.295.44.297.705.108 16.5 6.923 40.01 21.905 55.337.138.141.231.319.268.513.037.193.016.394-.06.575-.077.182-.205.337-.369.446s-.357.167-.554.166z" fill="#1a1a1a"/><path d="m470.189 287.021c1.722 20.6-19.334 17.426-23.328 3.978-3.15-10.606.305-25.5 5.515-33.856 16.41-1.98 30.41-8.4 40.93-17.54-14.52 13.635-25.157 23.026-23.117 47.418z" fill="#1a1a1a"/><path d="m460.538 302.77c-5.745 0-12.467-4.184-14.636-11.487-3.228-10.87.325-26.164 5.625-34.669.079-.127.186-.235.312-.315s.269-.131.417-.149c15.558-1.877 29.527-7.86 40.394-17.3.198-.171.455-.257.716-.241.26.017.504.134.679.328s.268.449.257.71c-.01.261-.122.507-.312.687l-.946.888c-13.825 12.97-23.813 22.34-21.859 45.717.724 8.647-2.5 14.5-8.626 15.65-.666.123-1.343.183-2.021.181zm-7.561-44.694c-4.929 8.2-8.175 22.477-5.158 32.638 2.122 7.146 9.144 10.894 14.37 9.907 5.089-.958 7.642-5.884 7-13.517-1.591-19.031 4.349-29.08 13.819-38.942-9.247 5.278-19.459 8.649-30.031 9.914z" fill="#1a1a1a"/><path d="m336.987 674.715c-9.94 10.87-56.04-13.99-114.86-59.36-24.25-18.7-50.65-40.88-77.57-65.48-41.52-37.96-77.2198-75.2-102.6098-106.07-31.03-37.71-46.72-65.94-39-74.38s37.25 4.67 77.62 32.2c33.0198 22.52 73.2998 54.71 114.8098 92.64 32.9 30.06 62.14 59.69 85.49 86.05 42.133 47.56 65.15 84.52 56.12 94.4z" fill="#1a1a1a"/><path d="m329.665 678.229c-17.53 0-56.264-22.062-108.149-62.082-25.155-19.4-51.275-41.447-77.633-65.534-39.992-36.563-76.4679-74.269-102.7079-106.173-19.137-23.256-49.646-64.014-38.966-75.69s54.027 15.072 78.922 32.05c34.1749 23.308 74.9889 56.239 114.9209 92.728 31.822 29.075 61.409 58.857 85.564 86.125 21.252 23.991 69.263 81.346 56.109 95.738-1.741 1.903-4.452 2.838-8.06 2.838zm-319.4449-310.355c-2.967 0-5.168.732-6.535 2.226-6.952 7.6 7.64 34.916 39.034 73.07 26.181 31.83 62.5889 69.466 102.5129 105.967 26.317 24.049 52.394 46.062 77.506 65.426 59.81 46.137 104.362 69.474 113.511 59.477 8.241-9.016-13.268-44.675-56.13-93.062-24.109-27.216-53.645-56.946-85.419-85.978-39.865-36.427-80.6-69.3-114.6999-92.552-32.8-22.368-57.666-34.574-69.78-34.574z" fill="#1a1a1a"/><path d="m222.126 615.353c-24.25-18.7-50.65-40.88-77.57-65.48-41.52-37.96-77.2197-75.2-102.6097-106.07 12.2456-10.421 23.3208-22.143 33.03-34.96 17.8-23.4 26.0697-38.92 31.7897-63.66-16.9297-32.2-18.1697-111.25 45.81-142.85 16.88-8.34 38.3-13.37 65.16-13.37 5.86 0 11.89.22 18.03.67 66.31 4.86 145.53 37.12 170.48 120.59 29.13 97.44-2.82 223.53-184.12 305.13z" fill="#fff"/><path d="m590.816 111.973v72.32h-96.35c-.919 0-1.809-.319-2.518-.903-.71-.584-1.195-1.396-1.372-2.297-4.248-20.799-4.431-42.222-.54-63.09.17-.94.35-1.89.54-2.83.177-.902.662-1.714 1.372-2.298.709-.584 1.599-.903 2.518-.902z" fill="#fece2f"/><path d="m413.748 89.9922h-30.651c-5.523 0-10 4.4771-10 10v96.2808c0 5.523 4.477 10 10 10h30.651c5.523 0 10-4.477 10-10v-96.2808c0-5.5229-4.477-10-10-10z" fill="#1a1a1a"/><path d="m413.747 207.273h-30.647c-2.916-.003-5.712-1.163-7.775-3.225-2.062-2.062-3.222-4.858-3.225-7.775v-96.2818c.003-2.9164 1.163-5.7124 3.225-7.7747 2.063-2.0622 4.859-3.2221 7.775-3.2253h30.65c2.916.0032 5.713 1.1631 7.775 3.2253 2.062 2.0623 3.222 4.8583 3.225 7.7747v96.2818c-.003 2.917-1.163 5.714-3.226 7.776s-4.86 3.222-7.777 3.224zm-30.647-116.2818c-2.386.0027-4.674.9517-6.361 2.639-1.687 1.6872-2.636 3.9749-2.639 6.361v96.2818c.003 2.386.952 4.674 2.639 6.361 1.687 1.688 3.975 2.637 6.361 2.639h30.65c2.386-.002 4.674-.951 6.361-2.639 1.687-1.687 2.636-3.975 2.639-6.361v-96.2818c-.003-2.3861-.952-4.6738-2.639-6.361-1.687-1.6873-3.975-2.6363-6.361-2.639z" fill="#1a1a1a"/><path d="m388.422 107.665h-21.631c-5.523 0-10 4.477-10 10v78.609c0 5.523 4.477 10 10 10h21.631c5.523 0 10-4.477 10-10v-78.609c0-5.523-4.477-10-10-10z" fill="#1a1a1a"/><path d="m388.422 207.273h-21.631c-2.916-.003-5.712-1.163-7.775-3.225-2.062-2.062-3.222-4.859-3.225-7.775v-78.609c.003-2.916 1.163-5.712 3.225-7.775 2.063-2.062 4.859-3.222 7.775-3.225h21.631c2.916.003 5.712 1.163 7.775 3.225 2.062 2.063 3.222 4.859 3.225 7.775v78.609c-.003 2.916-1.163 5.713-3.225 7.775-2.063 2.062-4.859 3.222-7.775 3.225zm-21.631-98.609c-2.386.003-4.674.952-6.361 2.639s-2.636 3.975-2.639 6.361v78.609c.003 2.386.952 4.674 2.639 6.361s3.975 2.636 6.361 2.639h21.631c2.386-.003 4.674-.952 6.361-2.639s2.636-3.975 2.639-6.361v-78.609c-.003-2.386-.952-4.674-2.639-6.361s-3.975-2.636-6.361-2.639z" fill="#1a1a1a"/><path d="m577.706 111.973v6.027h-87.67c.17-.94.35-1.89.54-2.83.177-.902.662-1.714 1.371-2.298.71-.584 1.6-.903 2.519-.902z" fill="#fff"/><path d="m590.813 185.3h-96.349c-1.149-.006-2.261-.409-3.148-1.139-.887-.731-1.495-1.745-1.722-2.871-4.439-21.88-4.439-44.429 0-66.308.228-1.127.837-2.14 1.724-2.87s1.998-1.132 3.147-1.139h96.349c.266 0 .52.105.707.293.188.187.293.441.293.707v72.327c0 .131-.026.261-.076.383-.05.121-.124.231-.217.324s-.203.167-.325.217c-.121.05-.251.076-.383.076zm-96.349-72.327c-.687.005-1.352.246-1.882.685-.531.438-.893 1.045-1.028 1.72-4.387 21.618-4.387 43.898 0 65.517.135.674.498 1.281 1.028 1.719.53.439 1.195.681 1.882.686h95.349v-70.331z" fill="#1a1a1a"/><g fill="#fece2f"><path d="m398.422 198.681c-.265 0-.519-.105-.707-.293-.188-.187-.293-.442-.293-.707v-80.017c-.003-2.386-.952-4.674-2.639-6.361s-3.975-2.636-6.361-2.639h-15.322c-.265 0-.519-.105-.707-.293-.188-.187-.293-.442-.293-.707s.105-.52.293-.707c.188-.188.442-.293.707-.293h15.325c2.916.003 5.713 1.163 7.775 3.225 2.062 2.063 3.222 4.859 3.225 7.775v80.017c0 .132-.026.262-.076.383-.051.122-.125.232-.218.325s-.204.167-.325.217c-.122.05-.252.075-.384.075z"/><path d="m343.338 535.565c-6.072-3.853-11.369-8.809-15.617-14.612-4.393-5.785-8.085-12.212-12.034-18.6-1.979-3.2-4-6.414-6.2-9.561-2.212-3.187-4.639-6.221-7.262-9.079-2.687-2.912-5.675-5.53-8.916-7.81-3.29-2.253-6.835-4.11-10.56-5.532-7.461-2.858-15.474-3.981-23.433-3.283-7.99.72-15.682 3.385-22.406 7.76-6.714 4.323-12.356 10.117-16.5 16.943-2.057 3.412-3.681 7.067-4.836 10.881-1.149 3.737-1.968 7.567-2.449 11.447-1.024 7.656-1.117 15.2-1.572 22.571-.251 3.676-.551 7.329-1.149 10.891-.576 3.533-1.467 7.008-2.664 10.382-1.243 3.313-2.91 6.451-4.957 9.338l-.755 1.1c-.253.365-.562.688-.841 1.035l-1.712 2.052c-.606.653-1.256 1.267-1.882 1.9l-.946.95c-.323.31-.68.582-1.018.874-3.844 3.425-8.226 6.194-12.97 8.194 1 .847 2 1.69 3 2.529l.2-.087c.885-.391 1.781-.763 2.659-1.173l2.561-1.378c.425-.235.862-.45 1.276-.7l1.221-.794c.812-.534 1.638-1.05 2.437-1.6l2.306-1.8c.379-.307.775-.593 1.138-.918l1.069-1c.707-.674 1.438-1.326 2.125-2.021l1.956-2.193c.319-.372.668-.72.961-1.113l.877-1.184c2.387-3.149 4.357-6.592 5.861-10.245 1.414-3.642 2.483-7.408 3.194-11.249.728-3.8 1.127-7.61 1.473-11.388.663-7.547.869-14.993 1.93-22.163 1.043-7.173 3.038-14.009 6.76-19.954 3.683-6.003 8.682-11.089 14.62-14.875 5.904-3.784 12.628-6.096 19.61-6.745 7.007-.643 14.069.314 20.651 2.8 3.279 1.234 6.4 2.85 9.3 4.816 2.89 2.018 5.57 4.32 8 6.872 2.471 2.623 4.76 5.412 6.852 8.346 2.124 2.963 4.135 6.055 6.127 9.19 3.897 6.495 8.137 12.777 12.703 18.821 4.54 5.926 10.123 10.976 16.474 14.9 1.193-1.138 2.37-2.279 3.53-3.422-.062-.037-.13-.073-.192-.113z"/><path d="m305.824 554.88c-1.6-1.637-3.244-3.276-4.923-4.9-1.692-1.6-3.5-3.194-5.364-4.692-1.882-1.508-3.843-2.914-5.875-4.213-1-.677-2.085-1.257-3.131-1.881-1.094-.558-2.154-1.169-3.3-1.66-4.584-2.19-9.568-3.42-14.645-3.615-2.613-.047-5.222.23-7.768.823-2.529.65-4.965 1.618-7.251 2.879-2.236 1.238-4.313 2.743-6.185 4.482-1.845 1.675-3.532 3.517-5.04 5.5-2.941 3.871-5.374 8.103-7.24 12.592-1.722 4.343-3.216 8.772-4.478 13.269-1.3 4.4-2.489 8.748-3.884 12.974-.705 2.108-1.467 4.183-2.317 6.211-.862 2-1.827 3.953-2.891 5.853-2.119 3.782-4.824 7.204-8.015 10.138.933.734 1.863 1.463 2.788 2.189 3.528-2.81 6.595-6.153 9.09-9.91 1.334-1.973 2.536-4.032 3.6-6.164 1.043-2.118 1.985-4.27 2.86-6.435 1.752-4.327 3.2-8.707 4.647-12.991 1.385-4.222 2.987-8.371 4.8-12.428 1.743-3.889 3.971-7.542 6.632-10.872 2.531-3.203 5.663-5.88 9.22-7.882 1.715-.925 3.539-1.634 5.429-2.109 1.902-.416 3.846-.603 5.792-.555 4.052.23 8.02 1.249 11.681 3 3.864 1.787 7.5 4.03 10.83 6.683 3.365 2.659 6.607 5.712 9.891 8.829 2.194 2.084 4.4 4.225 6.676 6.328 1.881-1.387 3.733-2.781 5.556-4.183-2.398-2.347-4.766-4.795-7.185-7.26z"/><path d="m152.328 555.76 1.682-.873 1.6-1.008 3.2-2.034 3.023-2.3 1.512-1.152 1.413-1.271 2.823-2.556 2.6-2.786 1.3-1.4 1.18-1.5 2.35-3.021 2.079-3.224 1.036-1.617.884-1.708 1.752-3.43 1.418-3.591.705-1.8.527-1.862 1.043-3.734c1.049-5.001 1.622-10.091 1.709-15.2.069-5.028-.173-10.055-.722-15.053-1-9.924-2.693-19.568-3.513-29.128-.418-4.715-.544-9.451-.377-14.182.029-1.17.179-2.319.26-3.479l.144-1.736c.053-.578.174-1.14.257-1.711l.545-3.412c.234-1.125.495-2.249.782-3.373 2.317-9.023 6.56-17.916 9.155-27.961 1.374-5.122 2.014-10.413 1.9-15.715-.132-5.605-1.613-11.097-4.319-16.008-2.84-4.833-6.786-8.923-11.513-11.936-4.555-2.888-9.559-4.999-14.807-6.245-5.145-1.249-10.433-1.81-15.726-1.668-5.113.181-10.204.754-15.23 1.713-9.911 1.791-19.341 4.419-28.705 5.868-.1.015-.2.027-.3.041-.914 3.08-1.9 6.039-2.968 8.91 1.518-.158 3.034-.337 4.544-.56 10.029-1.5 19.546-4.087 28.94-5.705 4.613-.835 9.278-1.343 13.962-1.52 4.517-.143 9.033.314 13.43 1.358 4.314.997 8.433 2.703 12.188 5.048 3.588 2.248 6.594 5.311 8.773 8.94 2.047 3.712 3.167 7.863 3.267 12.1.119 4.511-.384 9.016-1.493 13.39-2.152 9-6.288 18.01-8.762 28.022-.302 1.253-.578 2.519-.826 3.8l-.568 3.854c-.084.643-.207 1.284-.259 1.927l-.138 1.928c-.075 1.285-.216 2.574-.233 3.853-.077 5.07.167 10.139.729 15.178 1.084 9.955 3.009 19.606 4.176 29.166.63 4.734.994 9.5 1.092 14.274.066 4.698-.312 9.391-1.128 14.018l-.837 3.372-.415 1.69-.59 1.64-1.176 3.287-1.5 3.162-.747 1.585-.892 1.512-1.783 3.03-2.056 2.863-1.031 1.433-1.154 1.336-2.309 2.682-2.535 2.478-1.269 1.24-1.37 1.128-2.742 2.264-2.925 2.025-1.46 1.022-1.541.893-1.909 1.107c1.012.917 2.023 1.831 3.033 2.74z"/><path d="m149.9 477.483c-1.661 5.539-3.876 10.897-6.612 15.992-6.566 11.902-15.875 22.069-27.155 29.656 1.073 1.04 2.151 2.081 3.234 3.122 1.382-.826 2.743-1.689 4.084-2.589 5.075-3.583 9.792-7.647 14.086-12.136 4.204-4.615 7.953-9.623 11.195-14.957 3.121-5.448 5.661-11.207 7.581-17.184.9-3.039 1.638-6.124 2.213-9.241.511-3.179.728-6.398.646-9.616-.064-3.267-.472-6.519-1.219-9.7-.789-3.292-2.081-6.441-3.832-9.338-1.819-3.01-4.262-5.597-7.163-7.586-2.901-1.988-6.194-3.334-9.658-3.945-3.336-.571-6.741-.617-10.092-.138-3.194.453-6.34 1.196-9.4 2.219-6.026 1.942-11.578 4.687-17.006 7.182l-16.3999 7.61-16.356 7.707c-4.04 1.894-8.067 3.819-12.094 5.742 1.2107 1.382 2.437 2.773 3.679 4.174 3.6-1.548 7.206-3.089 10.8-4.659l16.5791-7.212 16.5358-7.308c5.336-2.506 10.804-4.722 16.379-6.639 5.427-1.737 11.034-2.718 16.094-1.758 2.489.45 4.853 1.431 6.93 2.874 2.063 1.459 3.809 3.32 5.134 5.471 1.383 2.263 2.41 4.725 3.044 7.3.645 2.684 1.007 5.429 1.079 8.189.089 2.809-.076 5.62-.493 8.4-.463 2.818-1.068 5.611-1.813 8.368z"/><path d="m393.007 400.1c-6.159.847-12.255 2.107-18.246 3.77-6.106 1.675-12.004 4.031-17.583 7.025-5.692 3.057-10.828 7.05-15.195 11.812-8.682 9.821-13.528 22.446-13.645 35.554-.114 6.484.893 12.938 2.974 19.08 2.117 6.165 5.42 11.856 9.725 16.751 4.305 4.836 9.5 8.801 15.3 11.678 3.347 1.691 6.857 3.038 10.475 4.021 1.148-1.453 2.272-2.91 3.372-4.37-3.901-1.12-7.667-2.669-11.227-4.619-5.019-2.765-9.497-6.416-13.216-10.776-3.645-4.364-6.416-9.389-8.163-14.8-1.79-5.427-2.631-11.121-2.486-16.833.129-5.712 1.197-11.365 3.161-16.73 1.955-5.335 4.896-10.254 8.671-14.5 3.875-4.23 8.402-7.811 13.41-10.608 5.118-2.844 10.539-5.102 16.162-6.734 11.351-3.363 23.323-5.04 35.372-6.49.6-.073 1.2-.151 1.8-.225.254-1.8.483-3.597.689-5.392-1.02.096-2.041.191-3.063.286-6.077.585-12.18 1.213-18.287 2.1z"/><path d="m397.54 430.251c-3.717.715-7.326 1.914-10.733 3.565-3.525 1.699-6.724 4.005-9.452 6.812-2.775 2.893-4.909 6.339-6.265 10.113-1.403 3.803-1.897 7.881-1.443 11.91.467 4.153 2.164 8.072 4.874 11.254 2.634 3.014 5.964 5.34 9.7 6.776.668.256 1.341.475 2.016.677.934-1.6 1.844-3.206 2.731-4.816-.818-.336-1.615-.701-2.385-1.101-2.68-1.371-5.016-3.33-6.832-5.731-1.689-2.289-2.706-5.003-2.937-7.838-.205-2.961.202-5.932 1.196-8.728.995-2.796 2.555-5.357 4.583-7.522 4.145-4.431 10.1-7.118 16.412-8.582 2.416-.544 4.863-.941 7.326-1.191.714-2.303 1.387-4.607 2.019-6.911-3.629.193-7.24.632-10.81 1.313z"/><path d="m333.4 239.533c-1.068 8.76-3.021 17.389-5.829 25.754-2.78 8.351-6.609 16.359-10.455 24.43s-7.763 16.237-10.622 24.93c-1.482 4.368-2.578 8.857-3.276 13.416-.67 4.605-.845 9.267-.522 13.908.316 4.686 1.244 9.31 2.759 13.755 1.543 4.526 3.86 8.749 6.847 12.481 3.065 3.76 6.873 6.847 11.186 9.067 4.315 2.119 8.984 3.425 13.772 3.852 9.476.921 18.844-1.014 27.475-4.173s16.637-7.392 24.659-11.131c7.878-3.816 16.155-6.745 24.68-8.734.313-.078.628-.146.943-.218-.148-1.866-.321-3.728-.52-5.586-.555.116-1.109.241-1.66.374-8.921 2.05-17.574 5.128-25.785 9.174-8.163 3.856-16.013 8.031-24.18 11.063-4.028 1.527-8.191 2.671-12.434 3.415-4.181.744-8.442.937-12.673.572-4.146-.346-8.194-1.452-11.94-3.263-3.671-1.874-6.916-4.484-9.535-7.667-2.628-3.259-4.669-6.95-6.035-10.909-1.378-4.031-2.244-8.219-2.577-12.467-.356-4.283-.253-8.591.308-12.853.6-4.295 1.574-8.529 2.913-12.655 2.618-8.356 6.342-16.423 10.075-24.543s7.536-16.345 10.3-25.022c.71-2.157 1.3-4.351 1.92-6.534.5-2.213 1.121-4.4 1.514-6.635l.656-3.337.524-3.36c.386-2.234.579-4.5.846-6.743.609-6.324.76-12.684.45-19.031-.988-.611-1.981-1.211-2.98-1.8.274 6.834.005 13.679-.804 20.47z"/><path d="m105.57 304.064 2.554 1.83 1.28.911 1.338.826 2.677 1.65 2.784 1.469c7.502 3.886 15.717 6.2 24.144 6.8 8.427.489 16.868-.686 24.841-3.459 7.844-2.736 15.387-6.268 22.512-10.539 14.258-8.24 27.455-17.953 42.1-24.642 7.265-3.373 14.977-5.682 22.9-6.857 7.959-1.234 16.194-1.769 24.361-3.676 4.115-.954 8.109-2.368 11.907-4.215 3.793-1.871 7.342-4.201 10.566-6.938 6.461-5.468 11.523-12.4 14.766-20.218 3.167-7.829 4.324-16.326 3.366-24.717-.074-.694-.182-1.383-.284-2.074-.914-.425-1.83-.844-2.749-1.256 1.509 9.075.413 18.392-3.16 26.869-3.137 7.301-7.971 13.749-14.1 18.808-3.043 2.518-6.384 4.652-9.948 6.355-3.577 1.682-7.332 2.957-11.195 3.8-7.78 1.756-15.916 2.287-24.1 3.5-4.133.592-8.218 1.484-12.222 2.668-3.995 1.201-7.905 2.667-11.705 4.389-15.184 6.86-28.512 16.607-42.478 24.782-6.881 4.162-14.17 7.609-21.752 10.289-7.496 2.642-15.439 3.781-23.375 3.351-7.923-.544-15.652-2.696-22.716-6.325l-2.65-1.361-2.553-1.54-1.278-.768-1.223-.855-2.446-1.712c-3.183-2.402-6.16-5.065-8.8997-7.961-.6-.617-1.179-1.251-1.751-1.891-.09 1.632-.1484 3.254-.1751 4.867 2.6884 2.826 5.5848 5.446 8.6638 7.84z"/><path d="m108.478 246.508c1.098 3.544 2.654 6.93 4.627 10.071 3.956 6.401 9.627 11.565 16.368 14.906 3.478 1.661 7.243 2.633 11.089 2.865l2.916-.026c.968-.059 1.929-.238 2.894-.36 1.902-.32 3.766-.828 5.567-1.517 3.463-1.402 6.743-3.219 9.768-5.411 2.975-2.1 5.738-4.337 8.488-6.463 2.649-2.117 5.444-4.045 8.363-5.769 2.878-1.627 5.935-2.911 9.111-3.828 6.417-1.854 13.265-2.524 20.211-2.906s14.055-.515 21.236-1.417c7.145-.907 14.5-2.7 21.007-6.521.4-.241.815-.463 1.209-.72l1.159-.809c.766-.549 1.556-1.067 2.3-1.644 1.458-1.188 2.834-2.472 4.12-3.845 2.568-2.719 4.759-5.771 6.512-9.075l1.239-2.493c.424-.826.707-1.71 1.065-2.562.679-1.715 1.266-3.465 1.757-5.244.949-3.547 1.548-7.179 1.789-10.843.206-2.693.211-5.398.013-8.092-1.509-.333-3.017-.65-4.523-.95.468 6.262-.164 12.557-1.866 18.6-.473 1.604-1.033 3.181-1.676 4.724-.339.761-.6 1.559-1 2.29l-1.149 2.21c-2.383 4.336-5.595 8.16-9.453 11.257-.65.493-1.342.929-2.009 1.4l-1.007.7c-.344.22-.71.41-1.064.616-5.7 3.287-12.327 4.841-19.09 5.674-6.788.833-13.78.936-20.865 1.309s-14.345 1-21.468 3.068c-3.583 1.053-7.031 2.521-10.274 4.374-3.132 1.864-6.129 3.946-8.969 6.231-2.8 2.188-5.5 4.39-8.267 6.357-2.649 1.978-5.526 3.63-8.57 4.92-1.477.587-3.009 1.026-4.573 1.31-.778.1-1.55.267-2.332.325l-2.359.053c-3.192-.163-6.324-.931-9.23-2.264-5.944-2.606-10.955-7.365-14.675-12.851-2.648-3.996-4.542-8.443-5.588-13.122-1.004 1.767-1.949 3.555-2.835 5.365.013.028.021.068.034.107z"/><path d="m212.186 322.411c.994-1.654 2.134-3.216 3.406-4.667.326-.36.633-.738.972-1.089l1.045-1.028c.667-.719 1.463-1.305 2.183-1.975 1.533-1.24 3.166-2.351 4.882-3.323.841-.524 1.746-.9 2.614-1.361l1.346-.571.678-.284.727-.234 2.911-.956c.986-.26 1.991-.45 2.987-.687.996-.247 2.008-.422 3.029-.524 1.015-.173 2.04-.284 3.069-.331l3.1-.132 3.117.134c8.56.678 16.843 3.348 24.187 7.795 7.621 4.373 14.269 10.555 20.222 17.507l.026.03c.158.199.385.329.636.367.25.037.505-.022.714-.166.208-.144.355-.361.409-.609.055-.247.013-.506-.116-.724-2.184-4.203-4.798-8.17-7.8-11.836-1.502-1.871-3.106-3.658-4.805-5.354-.863-.839-1.772-1.633-2.666-2.45l-1.356-1.211-1.44-1.113c-7.788-6.231-17.059-10.337-26.907-11.92l-3.773-.486-3.816-.124c-1.276-.031-2.554.01-3.826.125-1.281.043-2.557.169-3.822.378-1.264.215-2.539.4-3.8.655l-3.729.984-.932.252-.941.325-1.879.677c-1.21.531-2.454 1.014-3.608 1.655-2.352 1.205-4.599 2.604-6.718 4.182-2.12 1.601-4.09 3.391-5.885 5.349-3.709 3.962-6.584 8.63-8.453 13.725s-2.693 10.515-2.425 15.935c.286 5.286 1.474 10.485 3.511 15.37 1.92 4.654 4.361 9.076 7.275 13.18 1.39 2.017 2.875 3.971 4.376 5.8 1.481 1.867 3.023 3.69 4.6 5.479 6.305 7.15 13.367 13.594 21.061 19.22 7.626 5.607 15.994 10.128 24.863 13.434.23.083.481.08.709-.009.227-.089.414-.256.527-.473.113-.216.144-.466.087-.703s-.198-.445-.397-.587c-7.433-5.238-14.436-11.061-20.944-17.413-6.379-6.287-12.277-13.045-17.643-20.217-2.649-3.571-5.276-7.262-7.542-10.9-1.145-1.83-2.187-3.685-3.127-5.565-.95-1.836-1.787-3.728-2.508-5.666-1.416-3.686-2.245-7.572-2.455-11.516-.172-3.801.389-7.601 1.653-11.191.644-1.787 1.444-3.515 2.391-5.163z"/><path d="m397.5 298.306c2.282 4.025 5.124 7.706 8.44 10.933-3.409-11.25-8.057-22.087-13.858-32.311-.067 2.962.19 5.922.766 8.829.899 4.396 2.468 8.629 4.652 12.549z"/></g><path d="m222.126 616.353c-.221 0-.436-.073-.611-.208-25.158-19.4-51.277-41.449-77.634-65.534-39.992-36.563-76.468-74.269-102.708-106.173-.1672-.203-.2475-.464-.2235-.726.0239-.263.1502-.505.3515-.674 12.1954-10.367 23.2206-22.036 32.879-34.8 18.374-24.155 26.071-39.5 31.528-62.92-9.374-18.124-14.573-52.343-3.927-85.126 8.574-26.4 25.985-46.72 50.352-58.754 18.094-8.941 40.166-13.474 65.6-13.474 5.925 0 12.016.226 18.1.673 26.234 1.922 65.086 8.855 101.2 30.96 35.055 21.458 58.663 51.854 70.166 90.341 11.35 37.964 18.271 96.407-13.212 159.239-30.017 59.905-87.7 109.393-171.455 147.089-.128.057-.266.087-.406.087zm-178.781-172.424c26.134 31.67 62.278 68.994 101.885 105.206 26.15 23.9 52.064 45.782 77.032 65.06 223.867-101.027 196.7-257.962 183.025-303.685-30.468-101.935-137.513-117.528-169.595-119.879-6.038-.443-12.079-.668-17.956-.668-25.127 0-46.9 4.464-64.718 13.267-23.872 11.79-40.931 31.7-49.335 57.578-10.532 32.434-5.326 66.232 3.968 83.91.111.212.143.457.089.69-5.536 23.942-13.3 39.5-31.968 64.041-9.5505 12.615-20.4212 24.174-32.427 34.48z" fill="#1a1a1a"/><path d="m235.766 189.633c-.498 8.369-1.52 16.699-3.06 24.94-21.13 1.29-37.17 16.74-45.2 9.5-5.78-5.22 11.94-12.91 9.39-17.8-2.58-4.97-14.66-1.16-27.39 3.33-17.21 6.06-25.24-1.6-16.93-7.27 16.88-8.34 38.3-13.37 65.16-13.37 5.864 0 11.89.22 18.03.67z" fill="#1a1a1a"/><path d="m192.849 227.005c-2.212.073-4.366-.711-6.013-2.189-.456-.374-.826-.841-1.085-1.371-.258-.529-.4-1.108-.415-1.697-.02-2.8 3.006-5.612 5.932-8.33 2.6-2.411 5.539-5.144 4.737-6.682-2.379-4.582-17.272.672-26.171 3.81-11.311 3.983-19.177 2.221-21.1-1.578-1.231-2.433-.007-5.222 3.275-7.461.039-.026.079-.05.121-.07 18.094-8.941 40.166-13.474 65.6-13.474 5.925 0 12.016.226 18.1.673.263.019.508.141.681.34s.261.458.244.721c-.504 8.411-1.532 16.783-3.077 25.067-.042.217-.156.415-.322.561-.167.146-.378.232-.599.246-9.47.578-17.792 4.006-25.135 7.031-5.722 2.361-10.678 4.403-14.773 4.403zm-1.4-24.077c3.057 0 5.275.835 6.339 2.884 1.506 2.89-1.727 5.892-5.151 9.072-2.487 2.31-5.307 4.928-5.293 6.85.014.311.096.616.24.893.145.276.348.518.596.707 3.9 3.517 10.428.827 18.693-2.578 6.928-2.854 15.506-6.387 25-7.124 1.386-7.63 2.33-15.333 2.827-23.072-5.708-.4-11.411-.6-16.967-.6-25.1 0-46.849 4.454-64.654 13.236-2.333 1.609-3.29 3.425-2.561 4.865 1.278 2.525 7.909 4.379 18.653.595 8.881-3.128 16.883-5.728 22.274-5.728z" fill="#1a1a1a"/><path d="m161.957 405.673c-55.192-32.305-76.3544-7.457-86.9804 3.17 17.8-23.4 26.0704-38.92 31.7904-63.66 9.134 17.48 29.22 42.517 55.19 60.49z" fill="#1a1a1a"/><path d="m74.9753 409.843c-.1861 0-.3685-.052-.5266-.151-.1581-.098-.2856-.238-.3682-.405-.0827-.167-.1171-.354-.0994-.539.0176-.185.0866-.362.1992-.51 18.468-24.278 26.1487-39.655 31.6107-63.28.046-.199.152-.38.304-.517.151-.137.341-.224.544-.25s.409.011.59.105c.181.095.329.243.423.424 8.362 16.009 27.75 41.363 54.872 60.131.212.148.358.371.408.624s.001.516-.137.733c-.139.217-.356.373-.607.434-.25.061-.515.023-.738-.106-52.459-30.7-73.3197-9.584-84.5267 1.764-.4293.434-.8426.851-1.24 1.25-.0929.093-.2033.167-.3248.217s-.2517.076-.3832.076zm32.1567-61.877c-4.757 19.469-11.2827 33.554-24.5917 52.3 11.613-9.689 31.6557-19.344 68.3227-1.659-20.745-16.797-35.939-36.648-43.731-50.641z" fill="#1a1a1a"/><path d="m271.176 435.4c-5.038.639-10.111.959-15.19.96-89.61 0-140.87-73.96-149.22-91.18l82.96-81.39c25.75-9.58 48.9 11.84 78.34 22.42v.02c-35.24 23.253-60.19 103.903 3.11 149.17z" fill="#fff"/><path d="m194.242 383.962c-.131-5.546-1.598-10.979-4.275-15.839-2.815-4.782-6.724-8.829-11.406-11.809-4.521-2.864-9.487-4.956-14.694-6.193-5.113-1.24-10.367-1.795-15.626-1.652-5.096.179-10.17.748-15.179 1.7-7.123 1.284-14.009 3-20.814 4.405 1.4 2.14 3.009 4.477 4.841 6.977 5.878-1.239 11.635-2.582 17.354-3.57 4.631-.841 9.315-1.352 14.018-1.529 4.551-.143 9.1.318 13.529 1.372 4.354 1.009 8.51 2.732 12.3 5.1 3.636 2.282 6.683 5.389 8.891 9.07 2.075 3.764 3.21 7.974 3.311 12.27.118 4.545-.391 9.085-1.513 13.49-1.469 6.116-3.832 12.219-5.975 18.607 2.153 1.185 4.351 2.333 6.594 3.445 2.234-6.49 4.918-13.077 6.759-20.23 1.363-5.089 1.997-10.346 1.885-15.614z" fill="#fece2f"/><path d="m140.339 317.677c8.443.492 16.9-.683 24.889-3.459 7.855-2.739 15.408-6.273 22.543-10.549 14.269-8.24 27.461-17.953 42.084-24.639 3.985-1.829 8.1-3.356 12.313-4.569-1.791-.901-3.566-1.787-5.326-2.658-2.962 1-5.865 2.155-8.7 3.43-7.488 3.496-14.743 7.47-21.72 11.9-6.979 4.311-13.781 8.806-20.772 12.886-6.873 4.158-14.152 7.603-21.725 10.281-7.48 2.638-15.407 3.777-23.327 3.351-.516-.036-1.03-.1-1.545-.146l-3.662 3.593c1.641.253 3.29.458 4.948.579z" fill="#fece2f"/><path d="m245.478 297.579-3.648-.055c-1.218-.009-2.435.051-3.646.182-1.218.061-2.432.201-3.632.421-1.2.225-2.409.414-3.6.678l-3.528.994c-.597.153-1.184.344-1.757.57l-1.748.658c-1.124.522-2.286.979-3.363 1.59-2.197 1.15-4.294 2.479-6.27 3.976-3.955 3.051-7.334 6.783-9.977 11.021-1.303 2.149-2.395 4.42-3.26 6.779-1.738 4.732-2.505 9.766-2.257 14.8.283 4.955 1.381 9.828 3.248 14.425 1.803 4.481 4.102 8.747 6.854 12.716 1.335 1.97 2.732 3.9 4.174 5.738 1.417 1.869 2.9 3.692 4.406 5.488 6.056 7.173 12.802 13.734 20.14 19.587.906.712 1.821 1.412 2.745 2.1-1.307-2.798-2.46-5.665-3.454-8.59-2.14-2.051-4.216-4.168-6.241-6.327-3.1-3.31-6.065-6.743-8.856-10.314-2.772-3.573-5.537-7.214-7.934-10.959-1.209-1.874-2.32-3.788-3.334-5.743-1.028-1.926-1.937-3.914-2.724-5.952-1.584-3.976-2.502-8.187-2.716-12.463-.305-6.332 1.268-12.613 4.521-18.055 1.107-1.801 2.374-3.499 3.785-5.074 1.42-1.583 2.965-3.051 4.618-4.39 1.676-1.322 3.459-2.503 5.33-3.53.916-.552 1.9-.951 2.858-1.426l1.478-.588c.494-.21 1.002-.385 1.52-.525l3.112-.948c1.052-.254 2.122-.437 3.184-.663 1.06-.235 2.136-.396 3.218-.481 1.077-.157 2.162-.248 3.249-.274l3.27-.063 3.268.238c.769.041 1.534.134 2.289.281 1.124-1.564 2.282-3.066 3.473-4.508-1.708-.398-3.435-.711-5.174-.936z" fill="#fece2f"/><path d="m467.986 202.773c-2.129 14.186-16.412 24.008-28.743 29.951-2.965 1.426-5.539 3.551-7.501 6.193-1.962 2.641-3.252 5.72-3.76 8.971-2.647 15.66-6.567 31.077-11.721 46.1-.36 1.05-.708 2.122-1.12 3.17-21 53.33-70.615 124.311-136.055 136.981-2.61.5-5.247.92-7.91 1.26-63.3-45.27-38.35-125.92-3.11-149.17v-.02c9.317 3.522 19.18 5.381 29.14 5.49 44.61 0 83.71-38.93 89.67-57.11 7.73-45.63 22.521-73.855 32.911-87.545 7.75-10.231 10.75-6.26 10.75 0s-3.54 16.836-2.25 28.516c11.31 3.49 24.979.539 39.879-5.351s12.69 1.85 2.21 14.35c9.56-6.066 8.09 6.074-2.39 18.214z" fill="#fece2f"/><path d="m415.114 296.53c-23.121 57.664-70.588 124.943-136.028 137.613l-.01-.01c11.5-2.45 14.34-12.5 16.59-18.5 2.41-6.41 9.02-20.15 25.46-23.96 13.91-3.23 21.74-6.79 29.13-16.71 8.02-10.77 5.48-24.67 18-36.61 11.88-11.32 37.629-24.659 46.858-41.823z" fill="#fff"/><path d="m255.984 437.358c-37.9 0-74.458-13.609-105.719-39.356-25.026-20.613-39.987-43.275-44.4-52.378-.116-.239-.132-.514-.045-.764.087-.251.27-.457.508-.573.239-.115.514-.132.765-.045.25.087.456.27.572.509 4.348 8.967 19.113 31.314 43.873 51.707 30.9 25.449 67.015 38.9 104.447 38.9 41.067 0 82.465-23.618 116.568-66.5 28.49-35.825 49.4-82.013 54.57-120.54.455-3.538 1.783-6.907 3.863-9.804 2.079-2.898 4.847-5.233 8.053-6.796 11.6-5.636 25.876-15.261 27.957-29.1.029-.185.109-.358.232-.5 7.192-8.324 9.627-16.132 8.144-17.85-.578-.671-2.288-.231-4.461 1.148-.202.126-.441.176-.676.141s-.45-.152-.607-.331c-.156-.178-.244-.407-.247-.645-.003-.237.078-.468.23-.651 7.233-8.634 8.822-13.051 7.986-14.21-.284-.393-1.774-1.449-9.061 1.432-17.339 6.858-30.222 8.565-40.54 5.371-.186-.057-.352-.168-.476-.318-.125-.15-.202-.333-.224-.527-.839-7.6.328-14.738 1.266-20.474.525-2.69.852-5.414.978-8.152 0-2.811-.668-4.853-1.7-5.2-.534-.179-2.638-.29-7.259 5.8-6.952 9.166-24.056 36-32.714 87.1-.009.049-.021.097-.036.144-4.993 15.265-34.776 47.972-73.908 56.058-5.496 1.152-11.096 1.739-16.712 1.75-3.598-.003-7.191-.259-10.753-.764h-.048c-16.388-2.329-30.429-9.4-44.009-16.232-18.656-9.391-34.769-17.5-52.321-10.971-.123.046-.254.067-.385.063-.132-.005-.261-.036-.381-.09-.119-.055-.227-.132-.316-.228-.09-.097-.16-.209-.206-.333-.046-.123-.067-.254-.062-.385.004-.131.035-.26.09-.38.054-.12.132-.227.228-.317.096-.089.209-.159.332-.205 18.372-6.831 35.639 1.859 53.919 11.059 13.424 6.758 27.306 13.744 43.352 16.033h.048c3.481.496 6.993.747 10.51.75 5.478-.01 10.94-.581 16.301-1.704 37.771-7.8 67.585-40.146 72.391-54.652 8.736-51.488 26.042-78.624 33.079-87.9 3.937-5.192 7.041-7.317 9.491-6.492 1.977.665 3.066 3.186 3.066 7.1-.121 2.846-.456 5.679-1 8.475-.891 5.448-1.993 12.187-1.32 19.274 9.761 2.79 22.049 1.031 38.583-5.509 6.345-2.509 9.974-2.745 11.418-.743.614.852 2.374 3.289-5.508 13.485.564-.154 1.159-.148 1.721.015.561.164 1.066.479 1.459.912 2.649 3.069-.845 11.93-7.958 20.246-2.359 14.542-17.058 24.5-29.017 30.314-2.908 1.419-5.419 3.538-7.305 6.168-1.886 2.629-3.089 5.686-3.501 8.896-5.216 38.864-26.286 85.428-54.987 121.519-16.189 20.357-33.953 36.475-52.8 47.9-21.174 12.838-43.157 19.35-65.338 19.35z" fill="#1a1a1a"/><path d="m447.385 201.381c-.23.001-.454-.078-.633-.223s-.302-.348-.349-.573c-.047-.226-.015-.46.091-.665.106-.204.28-.366.491-.457 8.335-3.995 15.994-9.267 22.7-15.626.194-.178.45-.272.712-.263.263.009.511.122.692.313.18.191.278.445.273.708-.006.263-.115.513-.304.696-6.856 6.542-14.714 11.947-23.277 16.009-.125.054-.26.081-.396.081z" fill="#1a1a1a"/><path d="m455.846 213.7c-.219-.001-.433-.074-.606-.208-.174-.134-.299-.321-.356-.533s-.043-.437.041-.64c.083-.203.231-.373.421-.483 4.384-2.701 8.386-5.977 11.9-9.74.179-.196.428-.314.693-.326.265-.013.524.08.72.259.196.178.314.427.326.692.013.265-.08.525-.259.721-3.643 3.923-7.807 7.328-12.374 10.122-.153.089-.328.136-.506.136z" fill="#1a1a1a"/><path d="m245.291 426.8c-.24 0-.473-.087-.655-.245-36.655-31.777-29.121-91.432-14.8-114.5.14-.226.364-.386.622-.447.259-.06.53-.015.756.124.225.14.386.364.446.622.061.259.016.53-.124.756-14 22.562-21.4 80.89 14.413 111.934.155.133.264.311.315.508.05.198.039.406-.032.597-.072.191-.2.356-.367.472-.168.117-.367.179-.571.179z" fill="#1a1a1a"/><path d="m235.345 306.273c-.176 0-.35-.047-.502-.136-.153-.089-.279-.217-.366-.371-.087-.153-.132-.327-.13-.504.002-.176.051-.349.141-.501 5.514-9.237 10.975-13.666 11.205-13.851.207-.166.472-.243.735-.214.264.03.505.162.671.369s.243.472.214.735c-.029.264-.162.505-.369.671-.054.043-5.425 4.414-10.74 13.315-.089.149-.214.272-.365.357s-.321.13-.494.13z" fill="#1a1a1a"/><path d="m272.426 241.1c-26.35 0-50.09-17.74-50.09-39.13 0-16.7 3.03-65.14 3.03-65.14l29.71 9.47 31.43 10.01s7.21 20.34 12.52 35.48c1.83 5.23 3.43 9.84 4.44 12.78 3.91 11.483 1.234 36.53-31.04 36.53z" fill="#fece2f"/><path d="m272.426 242.1c-12.805.028-25.274-4.095-35.537-11.752-10.03-7.725-15.553-17.8-15.553-28.378 0-16.54 3-64.717 3.032-65.2.01-.152.054-.299.129-.431s.179-.245.304-.331.268-.142.419-.164c.15-.022.303-.01.448.036l61.14 19.48c.147.046.281.127.392.234s.195.238.247.384c0 0 7.211 20.342 12.522 35.483 1.831 5.233 3.431 9.845 4.441 12.786 2.4 7.039 2.2 17.793-3.64 25.954-3.885 5.43-11.958 11.899-28.344 11.899zm-46.141-103.924c-.478 7.787-2.949 48.835-2.949 63.8 0 20.312 22.939 38.13 49.09 38.13 12.473 0 21.463-3.723 26.718-11.065 5.429-7.584 5.607-17.59 3.375-24.143-1.009-2.936-2.608-7.544-4.437-12.772-4.836-13.786-11.247-31.885-12.353-35.007z" fill="#1a1a1a"/><path d="m216.251 105.728c-5.593 4.287-15.205 15.172-10.175 22.763 4.065 6.135 11.825 2.809 11.825 2.809-11 8.264-3.755 21.5 7.071 15.7 19.348-10.374 12.268-29.3 12.268-29.3z" fill="#1a1a1a"/><path d="m219.827 149.427c-1.392.022-2.767-.311-3.994-.968-1.228-.657-2.268-1.616-3.022-2.786-2.082-3.261-1.957-8.229 1.66-12.521-1.768.25-3.572-.003-5.204-.729-1.631-.727-3.026-1.898-4.024-3.379-5.166-7.8 3.637-18.926 10.4-24.109.156-.119.343-.19.539-.203.196-.014.391.031.561.128l20.99 11.972c.203.115.359.299.441.518.073.2 7.155 19.867-12.733 30.53-1.714.972-3.643 1.504-5.614 1.547zm-1.927-19.127c.21 0 .415.066.585.188.17.123.298.296.364.495s.068.414.006.615c-.063.2-.187.376-.355.502-5.564 4.183-5.977 9.41-4.006 12.5 1.511 2.366 5.038 4.183 10 1.521 17.171-9.206 12.768-25.152 11.919-27.733l-20.073-11.458c-5.292 4.272-13.861 14.323-9.43 21.009 3.564 5.377 10.528 2.472 10.6 2.442.123-.053.256-.081.39-.081z" fill="#1a1a1a"/><path d="m334.8 96.5678c-2.918-1-6.519-2.613-9.637-4.069-.236-13.352-.628-24.157-1.155-36.76-2-47.75597-79.182-46.35997-88.787-8.433-5.13 20.256-11.011 46.619-14.993 70.5142-3.982 23.895 20.835 46.952 50.133 48.025 25.535.934 55.108-21.29 55.053-45.682-.006-2.629-.016-5.145-.029-7.567 3.369.11 6.734-.333 9.96-1.313 11.934-3.6 9.299-11.3522-.545-14.7152z" fill="#fece2f"/><path d="m271.918 166.873c-.536 0-1.068-.01-1.6-.029-6.091-.226-12.112-1.377-17.856-3.416-.25-.088-.455-.273-.569-.512-.114-.24-.129-.515-.04-.765.088-.25.273-.455.512-.569.24-.114.515-.128.765-.04 5.553 1.971 11.373 3.083 17.261 3.3 13.808.5 29.341-5.9 40.529-16.705 8.719-8.424 13.51-18.359 13.488-27.975-.006-2.628-.016-5.143-.029-7.563-.001-.134.025-.268.076-.392.052-.124.128-.237.224-.331.097-.093.211-.166.337-.215.125-.048.259-.071.394-.067 3.26.105 6.516-.324 9.637-1.272 4.553-1.373 7.188-3.5 7.23-5.823.047-2.609-3.018-5.3518-7.809-6.9878-3.09-1.055-6.827-2.75-9.737-4.108-.17-.0792-.314-.2045-.416-.3617s-.158-.3399-.161-.5273c-.232-13.176-.614-23.825-1.154-36.735-.969-23.178-19.77-33.347-37.042-35.134-20.294-2.1-44.639 6.615-49.777 26.9-6.017 23.76-11.476 49.432-14.976 70.4338-1.492 8.951 1.213 18.383 7.616 26.559.085.103.148.222.186.35s.05.262.036.394c-.015.133-.056.261-.121.378-.064.116-.152.218-.257.301-.105.082-.225.142-.354.177-.128.035-.263.044-.395.027-.132-.018-.259-.062-.374-.13-.115-.067-.215-.157-.295-.264-6.754-8.622-9.6-18.61-8.014-28.121 3.508-21.0538 8.979-46.7848 15.009-70.5998 5.414-21.377 30.786-30.588 51.922-28.4 18.107 1.882 37.816 12.596 38.836 37.05.532 12.721.91 23.249 1.145 36.159 2.607 1.21 6.148 2.8 8.971 3.765 5.716 1.952 9.227 5.3678 9.163 8.9158-.035 1.913-1.2 5.456-8.653 7.7-2.989.907-6.095 1.37-9.219 1.374h-.024c.01 2.107.019 4.285.024 6.546.023 10.165-4.984 20.612-14.1 29.419-11.133 10.76-26.467 17.294-40.389 17.294z" fill="#1a1a1a"/><path d="m285.976 94.4812c7.899 0 14.302-3.1314 14.302-6.994 0-3.8627-6.403-6.994-14.302-6.994-7.898 0-14.302 3.1313-14.302 6.994 0 3.8626 6.404 6.994 14.302 6.994z" fill="#fff"/><path d="m285.976 95.4812c-8.58 0-15.3-3.511-15.3-7.994s6.722-7.994 15.3-7.994 15.3 3.511 15.3 7.994-6.719 7.994-15.3 7.994zm0-13.988c-7.957 0-13.3 3.1-13.3 5.994s5.345 5.994 13.3 5.994 13.3-3.1 13.3-5.994-5.343-5.994-13.3-5.994z" fill="#1a1a1a"/><path d="m292.743 91.1718c4.162 0 7.536-1.6499 7.536-3.685 0-2.0352-3.374-3.685-7.536-3.685s-7.536 1.6498-7.536 3.685c0 2.0351 3.374 3.685 7.536 3.685z" fill="#1a1a1a"/><path d="m292.743 92.1718c-4.866 0-8.536-2.014-8.536-4.685s3.67-4.685 8.536-4.685 8.536 2.014 8.536 4.685-3.67 4.685-8.536 4.685zm0-7.37c-4.049 0-6.536 1.564-6.536 2.685s2.487 2.685 6.536 2.685 6.536-1.564 6.536-2.685-2.487-2.687-6.536-2.687z" fill="#1a1a1a"/><path d="m324.891 88.9637c-3.336.0028-6.57-1.1507-9.152-3.264-.196-.171-.318-.4118-.34-.6713-.021-.2594.059-.517.225-.7181.165-.2011.402-.3297.661-.3586s.519.0443.724.204c4.045 3.328 10.968 4.2 15.556-.1.194-.1814.451-.2786.716-.27.266.0085.516.122.698.3155.181.1934.278.4511.27.7161-.009.2651-.122.516-.316.6974-2.466 2.2565-5.699 3.4897-9.042 3.449z" fill="#1a1a1a"/><path d="m270.03 63.0718c2.26-1.303 4.681-2.3058 7.2-2.983 2.562-.7054 5.209-1.0504 7.866-1.025 2.764.022 5.5.5511 8.073 1.561 2.664 1.0699 5.075 2.684 7.079 4.739l.013.013c.27.2659.484.583.63.9325.146.3496.22.7247.22 1.1035-.001.3788-.078.7536-.225 1.1026s-.362.6651-.633.9299c-.271.2649-.592.4731-.944.6125-.352.1395-.729.2073-1.107.1996-.379-.0077-.752-.0907-1.099-.2443-.346-.1536-.658-.3747-.918-.6503-.08-.0836-.157-.1714-.228-.263-1.294-1.7032-2.928-3.1177-4.8-4.153-1.969-1.0653-4.118-1.7595-6.338-2.048-4.716-.5843-9.502.0895-13.874 1.953l-.021.008c-.235.1035-.501.1124-.743.025-.241-.0874-.44-.2644-.555-.4943-.114-.23-.136-.4952-.06-.7408.076-.2455.243-.4524.467-.5779z" fill="#1a1a1a"/><path d="m316.975 68.3053c.648-1.377 1.596-2.5912 2.775-3.553 1.086-.9045 2.326-1.6054 3.661-2.069 1.316-.4622 2.713-.6517 4.105-.557 1.356.1008 2.676.4887 3.871 1.138.231.1126.409.3096.499.5502.089.2406.082.5064-.019.7423s-.289.4239-.525.5251c-.236.1011-.501.1077-.742.0184l-.032-.01c-.961-.3102-1.978-.4127-2.982-.3006-1.004.112-1.973.436-2.842.9506-.841.488-1.586 1.1246-2.2 1.879-.561.6631-.964 1.4446-1.179 2.286-.07.323-.207.6277-.402.8942-.196.2666-.445.4891-.732.6532-.287.164-.605.2659-.934.299s-.661-.0032-.975-.1068c-.314-.1035-.602-.2718-.847-.4941s-.44-.4935-.573-.796c-.133-.3026-.201-.6297-.199-.9602.001-.3305.072-.657.208-.9583z" fill="#1a1a1a"/><path d="m288.15 126.455c-6.942 0-11.94-3.683-13.46-10.219-.03-.128-.034-.261-.012-.39.021-.13.068-.254.137-.366.07-.111.161-.208.267-.284.107-.077.228-.131.356-.161s.261-.034.39-.013c.13.022.254.069.365.138.112.069.209.16.285.267.077.107.131.228.161.356 1.56 6.712 7.548 9.872 15.63 8.237.26-.053.53 0 .751.147s.375.376.427.636-.001.53-.147.751c-.147.221-.376.374-.636.427-1.485.307-2.997.466-4.514.474z" fill="#1a1a1a"/><path d="m323.386 50.113c-61.07-14.67-88.32 12.58-97.52 37.82 0 0-6.06 5.46-12.24 0 0-3.96.16-7.76.47-11.38 4.23-50.17 36.57-68.17995 64.02-68.17995 26.52 0 44.51 22.52695 45.27 41.73995z" fill="#fff"/><path d="m278.116 8.37305c-10.7 1.83995-7.63 13.67995-19.62 18.69995-7.58 3.17-15.33 1.61-21.1 7.42-5.66 5.69-4.92 12.17-9.1 21.93-3.33 7.75-12.77 7.75-14.2 20.13 4.23-50.17 36.57-68.17995 64.02-68.17995z" fill="#fece2f"/><path d="m219.5 91.3511c-2.437-.0362-4.772-.99-6.537-2.671-.106-.0938-.191-.2091-.249-.3382-.059-.1291-.089-.2692-.089-.4108 0-59.46 35.279-80.55903 65.491-80.55903 26.268 0 45.467 22.50503 46.269 42.70003.006.1543-.024.3079-.087.4489-.063.1409-.158.2652-.277.3633-.12.098-.26.1671-.411.2017-.15.0347-.307.034-.457-.0019-68.716-16.508-90.271 20.509-96.353 37.189-.056.1533-.149.2907-.27.4-1.984 1.6427-4.456 2.5841-7.03 2.678zm-4.875-3.882c4.808 3.915 9.419.649 10.392-.132 5.244-14.7205 15.846-26.922 29.691-34.169 17.646-9.2 40.385-10.658 67.6-4.336-1.526-18.936-19.628-39.46003-44.191-39.46003-29.211 0-63.309 20.46903-63.492 78.09703z" fill="#1a1a1a"/><path d="m321.789 40.9285c-14.139-4.2804-29.034-5.4706-43.674-3.49-.504-3.3793-1.611-6.6405-3.269-9.628 5.086-9.9 18.815-28.375006 32.7-26.70001 8.7 1.047 4.723 10.71801 4.723 10.71801 14.9-7.44801 38.15-4.269 17.168 15.805 13.351-1.549 11.993 9.254-7.648 13.295z" fill="#1a1a1a"/><path d="m321.789 41.9289c-.1 0-.199-.0152-.295-.045-14.003-4.2228-28.747-5.4008-43.243-3.455-.258.0353-.519-.0312-.728-.1855-.21-.1542-.351-.3839-.394-.6405-.49-3.2477-1.549-6.3835-3.129-9.263-.091-.1468-.143-.3148-.151-.4876-.007-.1728.031-.3446.11-.4984 4.212-8.2 18.462-29.07702 33.708-27.240016 2.634.316 4.506 1.392996 5.565 3.199996 1.26 2.148 1.031 4.83101.625 6.68702 8.865-3.70602 20.309-4.17402 23.883.9 1.818 2.582 2.17 7.339-5.732 15.576 4.77.031 6.846 1.934 7.165 3.921.6 3.718-4.526 8.905-17.179 11.509-.067.0144-.136.0218-.205.022zm-29.989-6.416c10.173-.0079 20.292 1.47 30.037 4.387 11.105-2.337 15.732-6.847 15.358-9.181-.233-1.455-2.686-2.664-7.645-2.094-.208.0255-.419-.0158-.602-.1179-.184-.102-.33-.2597-.418-.4501-.089-.1897-.116-.4025-.078-.6085.039-.206.141-.3947.292-.5395 6.864-6.567 9.477-11.841 7.357-14.852-2.9-4.11702-14.482-3.78802-23.385.665-.182.0912-.388.1247-.589.0959-.202-.0287-.39-.1184-.539-.2569s-.253-.3193-.297-.5182c-.043-.1989-.025-.4064.052-.5948.018-.044 1.764-4.40002.158-7.12402-.455-.66682-1.062-1.21613-1.77-1.60277-.709-.38663-1.499-.59954-2.306-.62123-13.814-1.656996-27.119 17.53202-31.44 25.68902 1.401 2.6824 2.394 5.5592 2.945 8.535 4.269-.5415 8.567-.8124 12.87-.811z" fill="#1a1a1a"/><path d="m277.421 47.912c-.997.0577-1.995-.1085-2.919-.4864-.925-.3779-1.753-.9579-2.424-1.6976-.56-.6745-.927-1.4882-1.061-2.3545-.135-.8664-.032-1.753.298-2.5655.912-2.325 3.343-3.914 6.668-4.36.131-.0201.265-.0138.394.0185s.25.09.357.1697c.106.0797.196.1798.263.2945.067.1146.111.2415.128.3733.018.1317.009.2657-.026.394-.034.1283-.094.2484-.176.3532-.082.1049-.183.1924-.299.2574-.116.0651-.244.1063-.376.1214-2.584.347-4.432 1.48-5.071 3.109-.201.4801-.265 1.006-.187 1.5203s.297.9972.631 1.3957c1.052 1.276 3.08 1.744 5.564 1.287.261-.0481.53.0094.749.1598.218.1504.368.3814.416.6422.048.2609-.009.5302-.16.7486-.15.2185-.381.3683-.642.4164-.702.1316-1.413.1996-2.127.203z" fill="#1a1a1a"/><path d="m285.834 42.7626c.736 0 1.332-.5963 1.332-1.332 0-.7356-.596-1.332-1.332-1.332s-1.332.5964-1.332 1.332c0 .7357.596 1.332 1.332 1.332z" fill="#1a1a1a"/><path d="m295.892 42.8515c.736 0 1.332-.5964 1.332-1.332s-.596-1.332-1.332-1.332-1.332.5964-1.332 1.332.596 1.332 1.332 1.332z" fill="#1a1a1a"/><path d="m305.86 43.7255c.736 0 1.332-.5963 1.332-1.332 0-.7356-.596-1.332-1.332-1.332-.735 0-1.332.5964-1.332 1.332 0 .7357.597 1.332 1.332 1.332z" fill="#1a1a1a"/><path d="m315.923 45.3896c.736 0 1.332-.5964 1.332-1.332 0-.7357-.596-1.332-1.332-1.332-.735 0-1.332.5963-1.332 1.332 0 .7356.597 1.332 1.332 1.332z" fill="#1a1a1a"/><path d="m224.825 119.141c-11.019 0-25.382-12.511-21.37-25.0674 4.012-12.556 21.008-12.518 24.845-2.374z" fill="#fece2f"/><path d="m224.825 120.141c-6.7 0-14.579-4.388-19.166-10.67-3.667-5.021-4.788-10.6003-3.157-15.7003.897-2.9845 2.725-5.6043 5.216-7.4774s5.515-2.9016 8.631-2.9356c5.951-.15 10.99 2.981 12.881 7.988.094.2481.085.5233-.024.765-.054.1197-.131.2276-.227.3175s-.208.1601-.331.2065c-.248.0938-.523.0851-.765-.024-.242-.1092-.43-.3099-.524-.558-1.586-4.2-5.907-6.846-10.957-6.7-2.7.0297-5.32.9211-7.477 2.5442-2.158 1.6231-3.74 3.893-4.517 6.4788-1.432 4.48-.414 9.4213 2.866 13.9123 4.235 5.8 11.452 9.85 17.551 9.85.265 0 .519.105.707.293.188.187.293.441.293.707 0 .265-.105.519-.293.707-.188.187-.442.293-.707.293z" fill="#1a1a1a"/><path d="m225.864 87.9311c5.029 6.337 4.238 12.3619 3.16 19.0849-1.418 8.847 9.315 11.742 11.377-4.127 2.409-18.5369-9.381-24.5949 1.429-39.3949-9.366 8.131-15.966 24.437-15.966 24.437z" fill="#1a1a1a"/><path d="m233.2 115.228c-1.073-.002-2.113-.373-2.945-1.05-1.881-1.5-2.709-4.235-2.215-7.32 1-6.239 1.945-12.1306-2.955-18.3046-.111-.1389-.182-.3048-.208-.4805-.025-.1758-.003-.3551.064-.5195.273-.675 6.8-16.623 16.237-24.817.185-.1621.424-.2501.67-.2471.247.0031.483.0969.665.2636.181.1666.295.3943.318.6395.024.2451-.043.4905-.189.689-6.08 8.322-4.7 13.7-2.948 20.517 1.275 4.964 2.72 10.59 1.7 18.4166-.809 6.224-3.107 10.536-6.307 11.831-.598.248-1.239.378-1.887.382zm-6.184-27.4466c5.034 6.7 4 13.1476 3 19.3926-.373 2.328.2 4.412 1.486 5.44.392.319.865.524 1.366.591s1.011-.005 1.473-.21c2.474-1 4.371-4.827 5.074-10.235.967-7.4446-.427-12.8726-1.657-17.6606-1.29-5.026-2.456-9.563-.595-15.056-4.045 5.5091-7.45 11.4599-10.151 17.738z" fill="#1a1a1a"/><path d="m513.476 184.564c-2.217-12.921-3-18.4-2.609-27.595s4.7-14.87 9.2-3.913 9.935 23.7 15.022 31.328c9.391 2.617 16 10.982 10.087 22.672z" fill="#fece2f"/><path d="m545.171 208.056c-.171 0-.339-.044-.488-.128-.149-.083-.274-.203-.363-.349-.09-.145-.14-.311-.148-.482-.007-.17.03-.34.107-.492 2.389-4.728 2.775-9.215 1.115-12.976-1.705-3.865-5.561-6.884-10.577-8.282-.231-.064-.431-.209-.564-.408-4.983-7.476-10.21-19.559-15.115-31.5-1.726-4.2-3.3-5.526-4.166-5.376-1.35.237-2.88 3.65-3.1 8.952-.384 9.019.362 14.375 2.595 27.383.024.13.023.264-.005.394-.028.129-.081.252-.157.361s-.172.201-.284.273c-.112.071-.237.119-.368.141-.131.023-.264.019-.394-.011-.129-.03-.251-.085-.358-.162-.108-.078-.199-.176-.269-.289-.069-.113-.116-.238-.136-.369-2.26-13.163-3.015-18.592-2.622-27.806.2-4.649 1.562-10.276 4.757-10.836 2.263-.4 4.4 1.818 6.362 6.585 4.8 11.686 9.9 23.5 14.728 30.849 5.42 1.6 9.6 4.977 11.508 9.3s1.508 9.406-1.16 14.686c-.085.164-.214.302-.372.398-.159.096-.341.145-.526.144z" fill="#1a1a1a"/><path d="m271.175 436.4c-.208 0-.411-.065-.581-.186-25.951-18.56-39.926-45.635-39.35-76.238.568-30.2 15.483-60.866 36.271-74.58.221-.135.487-.179.74-.123s.475.209.617.426c.143.216.196.48.148.735s-.193.481-.405.631c-20.271 13.373-34.817 43.371-35.373 72.948-.4 21.17 5.96 51.292 38.513 74.574.172.123.301.298.367.499.067.201.068.418.003.62-.065.201-.192.377-.363.502s-.377.192-.589.192z" fill="#1a1a1a"/><path d="m268.066 287.233c-.198.001-.392-.057-.558-.166s-.295-.265-.372-.448c-.078-.183-.099-.384-.062-.579s.131-.374.27-.516c.138-.142.316-.239.51-.28s.396-.023.58.05c.184.074.343.201.455.364.113.163.174.356.177.555v.02c0 .265-.105.519-.293.707-.187.187-.442.293-.707.293z" fill="#1a1a1a"/><path d="m592.15 184.296c7.978 0 14.446-16.191 14.446-36.164s-6.468-36.164-14.446-36.164-14.446 16.191-14.446 36.164 6.468 36.164 14.446 36.164z" fill="#fff"/><path d="m592.15 185.3c-8.661 0-15.446-16.324-15.446-37.163s6.785-37.164 15.446-37.164 15.45 16.32 15.45 37.16-6.789 37.167-15.45 37.167zm0-72.327c-7.288 0-13.446 16.1-13.446 35.164s6.158 35.163 13.446 35.163 13.446-16.1 13.446-35.163-6.157-35.168-13.446-35.168z" fill="#1a1a1a"/><path d="m594.074 107.665h-32.739c-1.657 0-3 1.343-3 3v74.936c0 1.657 1.343 3 3 3h32.739c1.657 0 3-1.343 3-3v-74.936c0-1.657-1.343-3-3-3z" fill="#fece2f"/><path d="m577.706 107.665-4.604 80.935h10.174v-80.935z" fill="#fff"/><path d="m594.074 189.6h-32.739c-1.061 0-2.078-.421-2.828-1.172-.751-.75-1.172-1.767-1.172-2.828v-74.936c0-1.061.421-2.078 1.172-2.828.75-.751 1.767-1.172 2.828-1.172h32.739c1.061 0 2.078.421 2.828 1.172.75.75 1.172 1.767 1.172 2.828v74.936c0 .525-.104 1.045-.305 1.531-.201.485-.495.926-.867 1.297-.371.372-.812.667-1.297.868-.486.201-1.006.304-1.531.304zm-32.739-80.936c-.53 0-1.039.211-1.414.586s-.586.884-.586 1.414v74.936c0 .531.211 1.039.586 1.414s.884.586 1.414.586h32.739c.53 0 1.039-.211 1.414-.586s.586-.883.586-1.414v-74.936c0-.53-.211-1.039-.586-1.414s-.884-.586-1.414-.586z" fill="#1a1a1a"/><path d="m597.074 120.534h-38.739c-.265 0-.52-.105-.707-.293-.188-.187-.293-.442-.293-.707s.105-.519.293-.707c.187-.187.442-.293.707-.293h38.739c.265 0 .52.106.707.293.188.188.293.442.293.707s-.105.52-.293.707c-.187.188-.442.293-.707.293z" fill="#1a1a1a"/><path d="m597.074 131.973h-38.739c-.265 0-.52-.106-.707-.293-.188-.188-.293-.442-.293-.707 0-.266.105-.52.293-.707.187-.188.442-.293.707-.293h38.739c.265 0 .52.105.707.293.188.187.293.441.293.707 0 .265-.105.519-.293.707-.187.187-.442.293-.707.293z" fill="#1a1a1a"/><path d="m597.074 143.413h-38.739c-.265 0-.52-.105-.707-.293-.188-.187-.293-.442-.293-.707s.105-.519.293-.707c.187-.188.442-.293.707-.293h38.739c.265 0 .52.105.707.293.188.188.293.442.293.707s-.105.52-.293.707c-.187.188-.442.293-.707.293z" fill="#1a1a1a"/><path d="m597.074 154.852h-38.739c-.265 0-.52-.106-.707-.293-.188-.188-.293-.442-.293-.707 0-.266.105-.52.293-.708.187-.187.442-.292.707-.292h38.739c.265 0 .52.105.707.292.188.188.293.442.293.708 0 .265-.105.519-.293.707-.187.187-.442.293-.707.293z" fill="#1a1a1a"/><path d="m597.074 166.292h-38.739c-.265 0-.52-.105-.707-.293-.188-.187-.293-.442-.293-.707s.105-.52.293-.707c.187-.188.442-.293.707-.293h38.739c.265 0 .52.105.707.293.188.187.293.442.293.707s-.105.52-.293.707c-.187.188-.442.293-.707.293z" fill="#1a1a1a"/><path d="m597.074 177.73h-38.739c-.265 0-.52-.105-.707-.292-.188-.188-.293-.442-.293-.708 0-.265.105-.519.293-.707.187-.187.442-.293.707-.293h38.739c.265 0 .52.106.707.293.188.188.293.442.293.707 0 .266-.105.52-.293.708-.187.187-.442.292-.707.292z" fill="#1a1a1a"/><path d="m490.574 115.177c-4.537 6.983-10.6 40.244-6.1 65.891 2.935 0 6.1.022 6.1.022-3.843-16.473-6.14-40.621 0-65.913z" fill="#1a1a1a"/><path d="m490.574 182.089h-.007s-3.165-.022-6.1-.022c-.235 0-.463-.083-.643-.234s-.301-.361-.342-.593c-4.47-25.474 1.538-59.36 6.248-66.609.129-.197.323-.343.549-.412.226-.068.469-.054.685.04.217.093.394.26.499.471s.133.453.077.682c-6.773 27.9-2.906 52.982 0 65.45.034.147.035.299.002.446s-.099.285-.192.403c-.094.118-.213.213-.348.278-.136.066-.284.1-.435.1zm-5.258-2.022c1.51 0 3 .009 4 .014-3.592-16.262-4.445-33.01-2.525-49.554-2.651 13.512-4.191 33.153-1.475 49.54z" fill="#1a1a1a"/><path d="m558.335 111.969-5.777 72.324h5.777z" fill="#1a1a1a"/><path d="m558.335 185.293h-5.777c-.138 0-.275-.028-.402-.083-.126-.056-.24-.136-.334-.238-.094-.101-.166-.221-.212-.351-.045-.131-.063-.27-.052-.407l5.777-72.325c.006-.132.037-.261.092-.38s.133-.227.23-.316c.096-.089.209-.158.333-.204.123-.045.254-.066.385-.06.132.005.261.036.38.091s.227.133.316.23c.089.096.158.209.203.333.046.123.067.254.061.386v72.324c0 .265-.105.519-.293.707-.187.187-.441.293-.707.293zm-4.694-2h3.694v-46.242z" fill="#1a1a1a"/><path d="m514.392 252.932c.548-3.47 1.894-7.457 5.256-8.475 2.442-.739 5.168.51 6.761 2.5 1.491 2.09 2.361 4.559 2.51 7.122.565 5.285-.268 10.625-2.417 15.486-.776 1.996-2.04 3.766-3.677 5.148-.826.678-1.818 1.126-2.874 1.296-1.055.17-2.137.057-3.135-.328-5.616-2.574-3.156-18.115-2.424-22.749z" fill="#fff"/><path d="m224.319 103.455c-.265 0-.519-.105-.707-.293-.187-.187-.293-.441-.293-.707 0-5.7087-3.74-9.0457-7.434-9.3917-2.142-.2-4.635.634-5.192 3.578-.053.2569-.205.4827-.422.6287-.218.146-.485.2006-.743.1519-.257-.0486-.486-.1966-.635-.412-.15-.2154-.209-.481-.165-.7396.653-3.46 3.6-5.545 7.343-5.2 4.6.43 9.248 4.478 9.248 11.3827.001.132-.025.262-.075.384-.05.121-.124.232-.217.325s-.203.167-.325.217c-.121.05-.251.076-.383.076z" fill="#1a1a1a"/><path d="m215.53 108.665c-.215 0-.424-.07-.596-.199-.173-.128-.299-.309-.361-.515-.412-1.36-.526-2.793-.334-4.201s.686-2.758 1.448-3.9571c.763-1.1856 1.776-2.19 2.968-2.9429 1.192-.7528 2.534-1.2358 3.932-1.4151.263-.0376.53.0306.742.1896s.353.3959.39.6584c.038.2626-.03.5294-.189.7417s-.396.3527-.659.3903c-1.113.14-2.182.5218-3.132 1.1186-.95.5969-1.758 1.3943-2.368 2.3365-.607.957-1 2.034-1.152 3.158-.152 1.123-.061 2.266.269 3.35.076.254.048.528-.078.761s-.34.407-.594.483c-.092.028-.189.043-.286.043z" fill="#1a1a1a"/><path d="m313.714 289.978c-13.873 11.195-23.362 21.76-26.132 42.695-2.9 21.889-24.324 17.61-23.154 0s11.156-33.656 22.116-41.726h.01c3.528.503 7.087.757 10.65.76 5.548-.009 11.08-.589 16.51-1.729z" fill="#1a1a1a"/><path d="m275.365 348.527c-.34 0-.678-.017-1.015-.05-5.911-.587-11.561-6.227-10.92-15.871 1.249-18.8 12.211-34.873 22.521-42.464.216-.154.482-.22.744-.185 3.481.496 6.993.747 10.509.75 5.48-.011 10.943-.583 16.306-1.707.22-.046.449-.017.65.083.202.1.363.265.459.468.097.203.121.432.071.651s-.173.415-.348.556c-14.327 11.561-23.136 22.148-25.769 42.048-1.454 10.994-7.514 15.721-13.208 15.721zm11.449-56.534c-9.842 7.413-20.195 22.784-21.388 40.746-.556 8.376 4.168 13.256 9.122 13.748 5 .5 10.676-3.621 12.043-13.946 2.532-19.136 10.549-29.9 23.514-40.881-7.704 1.268-15.554 1.38-23.291.333z" fill="#1a1a1a"/><path d="m288.823 162.856c-8.351 3.316-22.7 4.1-36.026-.372 24.74 15.427 45.824 28.155 45.824 28.155z" fill="#1a1a1a"/><path d="m298.621 191.639c-.182 0-.361-.049-.517-.144-.211-.127-21.373-12.908-45.836-28.162-.212-.127-.369-.329-.441-.566s-.054-.493.052-.717.291-.401.519-.496c.229-.096.485-.103.718-.021 13.592 4.565 27.542 3.485 35.337.391.126-.049.26-.073.394-.069.135.003.268.034.39.09.123.056.233.136.323.236.091.099.161.216.205.343l9.8 27.783c.053.151.069.313.047.471s-.082.309-.174.439c-.092.131-.215.237-.356.311-.142.073-.3.111-.46.111zm-39.5-26.4c17.254 10.715 32.035 19.7 37.629 23.1l-8.529-24.186c-6.931 2.46-17.811 3.479-29.102 1.087z" fill="#1a1a1a"/><path d="m361.667 192.282c-.265 0-.52-.105-.707-.293-.188-.187-.293-.442-.293-.707v-54.449c0-.265.105-.52.293-.707.187-.188.442-.293.707-.293s.52.105.707.293c.188.187.293.442.293.707v54.449c0 .265-.105.52-.293.707-.187.188-.442.293-.707.293z" fill="#fff"/><path d="m361.667 130.033c-.265 0-.52-.106-.707-.293-.188-.188-.293-.442-.293-.707v-4.273c0-.265.105-.52.293-.707.187-.188.442-.293.707-.293s.52.105.707.293c.188.187.293.442.293.707v4.273c0 .265-.105.519-.293.707-.187.187-.442.293-.707.293z" fill="#fff"/><path d="m288.1 15.8002c-.182-.0002-.361-.0501-.517-.1444-.156-.0942-.283-.2293-.368-.3906-.084-.1613-.123-.3427-.113-.5246.011-.1819.072-.3573.175-.5074 4.207-6.10602 12.1-11.07402 17.6-11.07402.265 0 .519.10536.707.29289.187.18754.293.44189.293.70711s-.106.51957-.293.70711c-.188.18753-.442.29289-.707.29289-4.836 0-12.142 4.675-15.953 10.20802-.092.1336-.215.2428-.359.3182-.143.0754-.303.1148-.465.1148z" fill="#fff"/><path d="m323.9 12.3656c-.131.0052-.262-.0156-.386-.061-.123-.0455-.236-.1148-.333-.204-.096-.0892-.174-.1965-.229-.3158-.055-.1194-.086-.2484-.091-.3797-.006-.1313.015-.2624.061-.3857.045-.1233.114-.2365.204-.333.089-.0965.196-.1745.315-.2296.12-.055.249-.086.38-.0912l4.7-.37802c.265-.02122.527.06352.729.23542.202.172.327.4172.348.6816s-.063.5264-.235.7284-.417.3274-.682.3486l-4.7.378c-.025.004-.052.006-.081.006z" fill="#fff"/></g></svg>