<svg width="68" height="68" viewBox="0 0 68 68" fill="none" xmlns="http://www.w3.org/2000/svg">
<g clip-path="url(#clip0_103_15546)" filter="url(#filter0_d_103_15546)">
<path d="M38.3573 16.3974C38.3297 16.8872 38.3178 17.3791 38.27 17.8693C38.2219 18.3752 38.1546 18.8836 38.0683 19.3889C37.8392 20.7092 37.648 22.0353 37.3405 23.345C36.8956 25.2447 36.3824 27.1364 35.8558 29.0248C35.4209 30.5877 34.8898 32.1339 34.4628 33.6952C34.0418 35.2349 33.688 36.786 33.3218 38.3358C32.9718 39.8064 32.6465 41.2797 32.3088 42.7517C31.6972 45.4215 30.8318 48.041 29.8221 50.6303C29.6388 51.1011 29.3963 51.5591 29.1896 52.0242C29.0393 52.36 28.7869 52.5204 28.4375 52.4165C28.0993 52.3172 27.7155 52.2525 27.718 51.7812C27.7334 49.3425 27.9296 46.9042 28.4288 44.4665C28.7145 43.0718 28.9094 41.6654 29.2231 40.2741C29.4899 39.0904 29.8722 37.921 30.1895 36.7445C30.7075 34.8345 31.2189 32.9229 31.7246 31.0117C32.1213 29.5084 32.4699 27.9967 32.8956 26.4987C33.4914 24.4064 34.0916 22.3118 34.7791 20.2386C35.1382 19.1572 35.6418 18.1009 36.1684 17.0661C36.3669 16.6786 36.7626 16.3114 37.1536 16.0668C37.5991 15.7879 37.9963 15.9707 38.3617 16.4003L38.3573 16.3974Z" fill="#3B50E0"/>
<path d="M11.3347 39.7423C11.0143 38.1662 10.6958 36.6101 10.3806 35.0548C10.3664 34.9788 10.3735 34.8993 10.3571 34.8245C10.1187 33.7583 9.83634 32.7024 9.64758 31.6254C9.41419 30.3059 9.23949 28.9709 9.07485 27.6383C8.97908 26.8565 8.8846 26.0661 8.90697 25.271C8.93044 24.3631 9.0473 23.4446 9.20438 22.536C9.23988 22.3292 9.5931 22.0081 9.81143 21.9806C10.0489 21.9509 10.4179 22.1409 10.5194 22.3427C10.7819 22.8687 10.9423 23.4491 11.1231 24.0134C11.3156 24.6158 11.5025 25.2187 11.6599 25.8319C11.8238 26.4627 11.9515 27.1022 12.0905 27.7409C12.107 27.8157 12.0976 27.8964 12.1141 27.9712C12.4019 29.2617 12.674 30.5554 12.9867 31.8379C13.5071 33.9759 14.1099 36.0935 14.5535 38.2513C14.6928 38.9343 14.5344 39.7365 14.334 40.4541C14.096 41.3091 13.4049 41.515 12.7358 40.9964C12.2559 40.6253 11.8322 40.1902 11.337 39.7411L11.3347 39.7423Z" fill="#3B50E0"/>
<path d="M52.8263 42.5939L39.1044 57.3075L40.4999 51.9963L41.142 50.7408C41.2052 50.6681 44.1738 47.0599 44.2468 47.0002C46.0828 44.9789 47.1736 43.7458 49.1597 41.6838C50.7369 40.0463 52.4623 39.01 54.1919 37.779C55.5241 36.8299 56.969 36.0271 58.3908 35.2026C58.5929 35.0846 59.0885 35.1185 59.1968 35.2619C59.407 35.5364 59.4647 35.913 59.1015 36.2811C57.7051 37.7004 56.343 39.1458 54.9465 40.565C54.2741 41.2492 53.5575 41.8942 52.8241 42.5951L52.8263 42.5939Z" fill="#3B50E0"/>
</g>
<defs>
<filter id="filter0_d_103_15546" x="-4" y="0" width="75.6277" height="75.6279" filterUnits="userSpaceOnUse" color-interpolation-filters="sRGB">
<feFlood flood-opacity="0" result="BackgroundImageFix"/>
<feColorMatrix in="SourceAlpha" type="matrix" values="0 0 0 0 0 0 0 0 0 0 0 0 0 0 0 0 0 0 127 0" result="hardAlpha"/>
<feOffset dy="4"/>
<feGaussianBlur stdDeviation="2"/>
<feComposite in2="hardAlpha" operator="out"/>
<feColorMatrix type="matrix" values="0 0 0 0 0 0 0 0 0 0 0 0 0 0 0 0 0 0 0.25 0"/>
<feBlend mode="normal" in2="BackgroundImageFix" result="effect1_dropShadow_103_15546"/>
<feBlend mode="normal" in="SourceGraphic" in2="effect1_dropShadow_103_15546" result="shape"/>
</filter>
<clipPath id="clip0_103_15546">
<rect width="50" height="50" fill="white" transform="translate(0 23.4883) rotate(-28.0189)"/>
</clipPath>
</defs>
</svg>
