<svg width="60" height="60" viewBox="0 0 60 60" fill="none" xmlns="http://www.w3.org/2000/svg">
<path d="M14.0581 22.0261C14.4184 21.9237 14.8059 22.0235 15.0721 22.2871L19.9991 27.2101C19.2694 28.4866 18.6283 29.8117 18.0801 31.1761C17.6523 31.0005 17.1944 30.9101 16.7321 30.9101C15.7675 30.9083 14.8432 31.2972 14.1701 31.9881C13.3411 32.8367 12.9718 34.0328 13.1781 35.2011C10.4011 35.3844 7.7888 36.5832 5.83907 38.5691C1.63907 42.8541 1.92407 47.1761 3.75307 52.7621C4.62107 55.4111 0.653072 57.1531 0.611072 57.1691C0.21581 57.3369 -0.0281593 57.7384 0.00491469 58.1665C0.0379886 58.5947 0.340721 58.9539 0.757072 59.0591C3.16535 59.6764 5.64094 59.9925 8.12707 60.0001C13.8011 60.0001 18.8911 58.2601 22.0731 55.0301C24.0304 53.0221 25.2015 50.3779 25.3731 47.5791C25.571 47.616 25.7717 47.6361 25.9731 47.6391C26.9382 47.6407 27.863 47.2519 28.5371 46.5611C29.5604 45.5094 29.8667 43.953 29.3181 42.5921C30.7073 42.0153 32.0528 41.3385 33.3441 40.5671L37.7031 44.9271C37.972 45.1955 38.0722 45.5898 37.9641 45.9541C36.9465 49.8328 38.0608 53.9604 40.8921 56.8001C42.9297 58.8577 45.7062 60.0141 48.6021 60.0111C50.052 60.0072 51.4881 59.7297 52.8351 59.1931C53.1488 59.0695 53.3791 58.7961 53.4476 58.4659C53.5161 58.1358 53.4137 57.7933 53.1751 57.5551L47.3841 51.7741C47.149 51.5367 47.033 51.2063 47.0681 50.8741L47.4391 48.3401C47.5055 47.8714 47.875 47.5038 48.3441 47.4401L50.8551 47.0731C51.1867 47.0325 51.5192 47.1426 51.7611 47.3731L57.5511 53.1731C57.7893 53.4117 58.1318 53.5141 58.4619 53.4456C58.7921 53.3771 59.0655 53.1468 59.1891 52.8331C60.8786 48.7358 59.9356 44.0243 56.7991 40.8931C53.9542 38.0643 49.8235 36.9547 45.9441 37.9771C45.5829 38.0801 45.1943 37.979 44.9291 37.7131L40.8691 33.6541C47.8131 25.5411 63.8071 5.74606 59.0811 0.940058C58.4016 0.290349 57.4839 -0.0498094 56.5451 5.80773e-05C50.0301 5.80773e-05 34.0151 13.0421 26.7271 19.5141L22.2781 15.0651C22.0189 14.7988 21.9224 14.4141 22.0251 14.0571C23.0555 10.1765 21.9436 6.04072 19.1061 3.20006C15.9786 0.0611358 11.2671 -0.882425 7.17207 0.810058C6.85859 0.933577 6.62839 1.20665 6.55968 1.53651C6.49097 1.86636 6.59299 2.20864 6.83107 2.44706L12.6311 8.25506C12.862 8.48318 12.9695 8.80824 12.9201 9.12906L12.5611 11.6671C12.4918 12.1281 12.1301 12.4902 11.6691 12.5601L9.11307 12.9221C8.79281 12.9657 8.4709 12.8543 8.24607 12.6221L2.44607 6.83206C2.20791 6.5948 1.86647 6.49309 1.5373 6.56134C1.20813 6.62959 0.935274 6.85867 0.811072 7.17106C-0.881635 11.2657 0.0610917 15.977 3.19907 19.1051C6.03931 21.9447 10.1765 23.0576 14.0581 22.0261ZM24.1581 24.7311L35.6641 36.4311C33.4082 38.3411 30.8498 39.8619 28.0941 40.9311L19.7371 32.4311C20.7814 29.6413 22.2736 27.0405 24.1551 24.7311H24.1581ZM20.6501 53.6311C17.0361 57.3001 10.5411 58.7811 3.65007 57.6311C5.16207 56.3761 6.42307 54.4811 5.65707 52.1451C3.72507 46.2451 4.13207 43.1741 7.27107 39.9771C9.09302 38.1239 11.6043 37.113 14.2021 37.1871L15.1761 38.1781C12.245 38.9575 9.73365 40.8496 8.17607 43.4521C7.96538 43.7492 7.93293 44.1374 8.09136 44.4654C8.24979 44.7934 8.57405 45.0093 8.93777 45.029C9.3015 45.0487 9.64716 44.869 9.84007 44.5601C12.4401 40.6601 15.4141 40.0131 16.9211 39.9511L17.7771 40.8221L12.3011 46.2991C12.0411 46.5501 11.9369 46.9219 12.0284 47.2716C12.1199 47.6212 12.3929 47.8942 12.7426 47.9858C13.0922 48.0773 13.464 47.973 13.7151 47.7131L19.1801 42.2481L20.1901 43.2761C20.1011 45.6761 19.0521 49.6671 13.6021 52.0921C13.1791 52.287 12.9466 52.748 13.0415 53.204C13.1364 53.66 13.5335 53.9901 13.9991 54.0001C14.1386 54.0004 14.2767 53.971 14.4041 53.9141C19.6641 51.5731 21.4461 47.9371 21.9801 45.1001L23.3991 46.5391C23.4837 49.1779 22.49 51.7375 20.6471 53.6281L20.6501 53.6311ZM27.1231 45.1631C26.8239 45.4699 26.4136 45.643 25.9851 45.6431C25.5571 45.643 25.1474 45.4699 24.8491 45.1631L15.5961 35.7541C14.9552 35.0975 14.9552 34.0496 15.5961 33.3931C15.8944 33.0863 16.3041 32.9131 16.7321 32.9131C17.1607 32.9127 17.5712 33.0859 17.8701 33.3931L27.1201 42.8001C27.7582 43.4573 27.7582 44.5028 27.1201 45.1601L27.1231 45.1631ZM43.5151 39.1301C44.2869 39.9025 45.4144 40.2004 46.4671 39.9101C49.655 39.0714 53.0487 39.9847 55.3851 42.3101C57.5581 44.4716 58.4676 47.5982 57.7931 50.5881L53.1711 45.9581C52.4861 45.2925 51.5356 44.9745 50.5881 45.0941L48.0611 45.4631C46.7086 45.647 45.645 46.7106 45.4611 48.0631L45.0871 50.6001C44.9735 51.5465 45.2957 52.4934 45.9631 53.1741L50.5841 57.7871C47.5942 58.4614 44.4677 57.5519 42.3061 55.3791C39.9846 53.0453 39.0716 49.6573 39.9061 46.4731C40.1982 45.4172 39.9016 44.2858 39.1291 43.5091L35.0671 39.4471C36.0447 38.7624 36.9599 37.9928 37.8021 37.1471C37.8451 37.1041 38.5021 36.3761 39.5591 35.1651L43.5151 39.1301ZM57.6551 2.34306C60.9261 5.67006 44.1191 27.5431 37.0771 35.0171L25.5471 23.2931C30.9161 18.1411 50.1411 2.00006 56.5451 2.00006C56.9461 1.96065 57.3462 2.08426 57.6551 2.34306ZM2.20807 9.42106L6.82407 14.0301C7.49648 14.7176 8.45777 15.0412 9.40907 14.9001L11.9511 14.5401C13.2897 14.3411 14.3406 13.2898 14.5391 11.9511L14.8991 9.42606C15.0482 8.47373 14.7283 7.508 14.0401 6.83306L9.42007 2.20906C12.4088 1.53292 15.535 2.44362 17.6931 4.61906C20.0246 6.95399 20.9387 10.3526 20.0931 13.5421C19.8045 14.5924 20.1019 15.7168 20.8721 16.4871L25.2391 20.8541C24.4251 21.5991 23.7951 22.1971 23.4191 22.5801C22.5551 23.4712 21.7732 24.4384 21.0831 25.4701L16.4931 20.8791C15.7216 20.1067 14.5953 19.8071 13.5421 20.0941C10.3516 20.9396 6.95226 20.0256 4.61607 17.6941C2.44305 15.5346 1.53339 12.4094 2.20807 9.42106Z" fill="#FE762A"/>
</svg>
