<svg width="60" height="60" viewBox="0 0 60 60" fill="none" xmlns="http://www.w3.org/2000/svg">
<path d="M22.5 38.6034V29.5312C22.5 27.7219 21.0281 26.25 19.2188 26.25C18.7134 26.25 18.24 26.3747 17.8125 26.5791V21.0938C17.8125 19.2844 16.3406 17.8125 14.5312 17.8125C14.0259 17.8125 13.5525 17.9372 13.125 18.1416V15.4688C13.125 13.6594 11.6531 12.1875 9.84375 12.1875C8.32031 12.1875 7.04625 13.2375 6.67969 14.6475C6.10031 14.2819 5.42063 14.0625 4.6875 14.0625C2.61937 14.0625 0.9375 15.7444 0.9375 17.8125V33.75C0.9375 33.9066 0.976875 34.0613 1.05187 34.1991L6.67688 44.5116C6.72 44.5894 6.77438 44.6625 6.83719 44.7253L14.1769 52.065C14.7 52.5881 15 53.3128 15 54.0534V58.125C15 58.6425 15.42 59.0625 15.9375 59.0625H27.1875C27.705 59.0625 28.125 58.6425 28.125 58.125V46.4784C28.125 45.2869 27.6769 44.1506 26.8641 43.2797L22.5 38.6034ZM19.2188 28.125C19.9941 28.125 20.625 28.7559 20.625 29.5312V36.5944L17.8125 33.5812V29.5312C17.8125 28.7559 18.4434 28.125 19.2188 28.125ZM14.5312 19.6875C15.3066 19.6875 15.9375 20.3184 15.9375 21.0938V29.5312V31.5722L15.3037 30.8934C14.7741 30.3263 14.025 30 13.2478 30H13.125V21.0938C13.125 20.3184 13.7559 19.6875 14.5312 19.6875ZM8.4375 15.4688C8.4375 14.6934 9.06844 14.0625 9.84375 14.0625C10.6191 14.0625 11.25 14.6934 11.25 15.4688V21.0938V30.7294C10.8337 31.1044 10.5234 31.5966 10.3894 32.16L8.4375 29.6756V17.8125V15.4688ZM26.25 57.1875H16.875V54.0534C16.875 52.8019 16.3875 51.6244 15.5025 50.7394L8.25844 43.4953L2.8125 33.5109V17.8125C2.8125 16.7784 3.65344 15.9375 4.6875 15.9375C5.72156 15.9375 6.5625 16.7784 6.5625 17.8125V30C6.5625 30.21 6.63281 30.4134 6.76313 30.5794L17.0756 43.7044L18.5494 42.5466L12.1875 34.4484V32.8125C12.1875 32.2959 12.6084 31.875 13.125 31.875H13.2478C13.5066 31.875 13.7559 31.9838 13.9331 32.1722L25.4944 44.5584C25.9809 45.0816 26.25 45.7631 26.25 46.4784V57.1875Z" fill="#14BA85"/>
<path d="M55.3125 14.0625C54.5794 14.0625 53.8997 14.2819 53.3203 14.6475C52.9538 13.2375 51.6797 12.1875 50.1562 12.1875C48.3469 12.1875 46.875 13.6594 46.875 15.4688V18.1416C46.4475 17.9372 45.9741 17.8125 45.4688 17.8125C43.6594 17.8125 42.1875 19.2844 42.1875 21.0938V26.5791C41.76 26.3747 41.2866 26.25 40.7812 26.25C38.9719 26.25 37.5 27.7219 37.5 29.5312V38.6034L33.1359 43.2797C32.3231 44.1506 31.875 45.2869 31.875 46.4784V58.125C31.875 58.6425 32.295 59.0625 32.8125 59.0625H44.0625C44.58 59.0625 45 58.6425 45 58.125V54.0534C45 53.3128 45.3 52.5891 45.8231 52.065L53.1628 44.7253C53.2256 44.6625 53.28 44.5894 53.3231 44.5116L58.9481 34.1991C59.0231 34.0613 59.0625 33.9066 59.0625 33.75V17.8125C59.0625 15.7444 57.3806 14.0625 55.3125 14.0625ZM48.75 15.4688C48.75 14.6934 49.3809 14.0625 50.1562 14.0625C50.9316 14.0625 51.5625 14.6934 51.5625 15.4688V17.8125V29.6756L49.6106 32.1591C49.4766 31.5956 49.1663 31.1044 48.75 30.7284V21.0938V15.4688ZM44.0625 21.0938C44.0625 20.3184 44.6934 19.6875 45.4688 19.6875C46.2441 19.6875 46.875 20.3184 46.875 21.0938V30H46.7522C45.975 30 45.2259 30.3263 44.6962 30.8934L44.0625 31.5731V29.5312V21.0938ZM39.375 29.5312C39.375 28.7559 40.0059 28.125 40.7812 28.125C41.5566 28.125 42.1875 28.7559 42.1875 29.5312V33.5812L39.375 36.5944V29.5312ZM57.1875 33.5109L51.7416 43.4944L44.4975 50.7384C43.6125 51.6244 43.125 52.8009 43.125 54.0534V57.1875H33.75V46.4784C33.75 45.7631 34.0191 45.0816 34.5066 44.5594L46.0678 32.1731C46.2441 31.9838 46.4934 31.875 46.7522 31.875H46.875C47.3916 31.875 47.8125 32.2959 47.8125 32.8125V34.4484L41.4506 42.5456L42.9244 43.7034L53.2369 30.5784C53.3672 30.4134 53.4375 30.21 53.4375 30V17.8125C53.4375 16.7784 54.2784 15.9375 55.3125 15.9375C56.3466 15.9375 57.1875 16.7784 57.1875 17.8125V33.5109Z" fill="#14BA85"/>
<path d="M44.0456 8.66062C43.8881 6.13125 42.6197 3.85218 40.5675 2.4075C37.5722 0.299996 33.5259 0.483746 30.7275 2.85375L30 3.47062L29.2715 2.85375C26.4731 0.483746 22.4278 0.299996 19.4315 2.4075C17.3793 3.85218 16.1109 6.13125 15.9534 8.66062C15.795 11.1975 16.7737 13.6247 18.6393 15.3206L29.369 25.0791C29.5481 25.2412 29.774 25.3228 30 25.3228C30.2259 25.3228 30.4518 25.2412 30.6309 25.0791L41.3606 15.3206C43.2253 13.6247 44.204 11.1975 44.0456 8.66062ZM30 23.1197L19.9012 13.935C18.4593 12.6234 17.7028 10.7437 17.8256 8.77875C17.9475 6.82031 18.9272 5.05687 20.5115 3.94218C21.5793 3.19031 22.8206 2.81906 24.06 2.81906C25.4868 2.81906 26.9109 3.31125 28.0593 4.28531L29.3934 5.41593C29.7431 5.71125 30.2559 5.71125 30.6056 5.41593L31.9406 4.28437C34.0865 2.46656 37.1915 2.32406 39.4884 3.94125C41.0728 5.05593 42.0525 6.81937 42.1743 8.77781C42.2972 10.7437 41.5406 12.6234 40.0987 13.9341L30 23.1197Z" fill="#14BA85"/>
</svg>
