<svg width="40" height="40" viewBox="0 0 40 40" fill="none" xmlns="http://www.w3.org/2000/svg">
<g clip-path="url(#clip0_112_1491)">
<path d="M38.4286 34.1182V32.9951C38.4286 32.4498 38.0624 31.9659 37.538 31.8181C37.4916 31.8051 37.4407 31.791 37.3877 31.7766V30.2968C37.3877 29.7505 37.02 29.2661 36.4935 29.1188C33.0089 28.1444 28.7093 27.8341 25.072 28.7958V25.845C25.072 25.5214 24.8096 25.2591 24.486 25.2591C24.1624 25.2591 23.9001 25.5214 23.9001 25.845V29.1567C22.4572 29.6675 21.1623 30.3845 20.0228 31.3048C18.9256 30.4187 17.6845 29.7207 16.3058 29.2141V19.9636H23.9002V23.1145C23.9002 23.4381 24.1625 23.7005 24.4861 23.7005C24.8097 23.7005 25.072 23.4381 25.072 23.1145V19.926C25.6989 19.7807 26.168 19.2189 26.168 18.5485V16.8812C26.168 16.2108 25.6989 15.649 25.072 15.5037V15.0243C25.072 14.0698 26.031 12.9616 26.4557 10.6254H37.2822C38.7809 10.6254 40.0002 9.40617 40.0002 7.9075C40.0002 6.40882 38.7809 5.18953 37.2822 5.18953C36.034 5.18953 27.678 5.18953 26.5891 5.18953C26.4155 4.4489 25.7512 3.89515 24.9584 3.89515H24.2613C24.005 3.89515 23.762 3.95296 23.5445 4.05624C23.2575 3.54367 22.709 3.1964 22.0809 3.1964H21.3838C21.1007 3.1964 20.8339 3.26687 20.5998 3.39125C20.2992 2.93945 19.7854 2.64101 19.2033 2.64101H18.5062C18.186 2.64101 17.8866 2.73117 17.632 2.88749C17.3245 2.50546 16.8532 2.26062 16.3257 2.26062H15.6286C14.7043 2.26062 13.9524 3.01257 13.9524 3.93671L13.9522 5.18953H5.71148C5.04383 5.18953 4.39586 5.32679 3.7857 5.59757L0.575938 7.02179C0.226094 7.17703 0 7.52468 0 7.90742C0 8.29015 0.226094 8.63781 0.575938 8.79304L3.78578 10.2173C4.39602 10.488 5.04391 10.6253 5.71156 10.6253H11.6884C11.843 11.8587 12.4737 13.0251 13.413 13.7648C14.0914 14.3796 14.8529 14.643 15.081 15.6027C14.6017 15.8296 14.2687 16.3166 14.2687 16.8811V18.5484C14.2687 19.1337 14.6259 19.6373 15.1338 19.8523V28.8384C11.4896 27.8333 7.1275 28.1188 3.55188 29.1187C3.02539 29.2659 2.65766 29.7503 2.65766 30.2967V31.7765C2.60461 31.7909 2.55367 31.805 2.50727 31.818C1.98297 31.9658 1.61672 32.4498 1.61672 32.995V34.1181C0.749688 34.2578 0.0851563 35.0111 0.0851563 35.9169C0.0851563 36.9218 0.902656 37.7393 1.9075 37.7393H38.1378C39.1426 37.7393 39.9601 36.9218 39.9601 35.9169C39.9602 35.0112 39.2956 34.2579 38.4286 34.1182ZM36.4069 6.3614H37.2821C38.1346 6.3614 38.8282 7.05492 38.8282 7.9075C38.8282 8.75999 38.1347 9.45351 37.2821 9.45351H36.4069V6.3614ZM33.9193 6.3614H35.235V9.45351H33.9193V6.3614ZM26.6345 6.3614H32.7474V7.32156H26.6345V6.3614ZM26.6345 8.6414V8.49335H32.7474V9.45343H26.6043C26.6241 9.18382 26.6345 8.91304 26.6345 8.6414ZM4.61133 9.28039C4.30055 9.1796 4.36188 9.18414 1.4693 7.9075C4.3618 6.63085 4.30031 6.63546 4.61133 6.5346V9.28039ZM37.2203 32.946C37.2421 32.9522 37.2567 32.9719 37.2567 32.995V34.0947H22.1228C26.4301 31.4857 32.4674 31.608 37.2203 32.946V32.946ZM20.6087 32.3389C24.7626 28.8666 31.0841 28.823 36.1779 30.2474C36.2006 30.2538 36.2159 30.2736 36.2159 30.2968V31.4891C30.9827 30.3368 24.987 30.5287 20.6087 33.694V32.3389ZM24.9959 18.5484C24.9959 18.6826 24.8869 18.7917 24.7527 18.7917H15.6837C15.5496 18.7917 15.4405 18.6826 15.4405 18.5484V16.8811C15.4405 16.7469 15.5496 16.6379 15.6837 16.6379H24.7527C24.8868 16.6379 24.9959 16.7469 24.9959 16.8811V18.5484H24.9959ZM12.2364 9.45343H5.7832V8.49335H8.24891C8.5725 8.49335 8.83484 8.23101 8.83484 7.90742C8.83484 7.58382 8.5725 7.32148 8.24891 7.32148H5.7832V6.36132H13.9516L13.9515 7.32148H10.9794C10.6558 7.32148 10.3934 7.58382 10.3934 7.90742C10.3934 8.23101 10.6558 8.49335 10.9794 8.49335H13.9046C13.7545 9.04562 13.25 9.45343 12.6509 9.45343H12.2364ZM14.138 12.8441C13.4704 12.3184 13.0108 11.4977 12.8688 10.6159C14.1302 10.5052 15.123 9.44312 15.1232 8.15359C15.1234 7.2714 15.1238 4.81624 15.124 3.93687C15.124 3.65874 15.3502 3.43257 15.6283 3.43257H16.3254C16.6035 3.43257 16.8297 3.65882 16.8297 3.93695V4.31734C16.8297 4.64093 17.092 4.90328 17.4156 4.90328C17.7392 4.90328 18.0016 4.64093 18.0016 4.31734C18.0016 4.03921 18.2278 3.81304 18.5059 3.81304H19.203C19.4811 3.81304 19.7073 4.03929 19.7073 4.31734V4.87265C19.7073 5.19624 19.9696 5.45859 20.2932 5.45859C20.6168 5.45859 20.8791 5.19624 20.8791 4.87265C20.8791 4.59453 21.1054 4.36835 21.3834 4.36835H22.0805C22.3586 4.36835 22.5848 4.5946 22.5848 4.87265V5.5714C22.5848 5.895 22.8472 6.15734 23.1708 6.15734C23.4944 6.15734 23.7567 5.895 23.7567 5.5714C23.7567 5.29328 23.983 5.0671 24.261 5.0671H24.9581C25.2362 5.0671 25.4624 5.29335 25.4624 5.57148V8.64156C25.4624 11.9779 23.8998 13.4519 23.8998 15.0244V15.4662H16.2496C15.951 13.8959 14.7065 13.3907 14.138 12.8441V12.8441ZM3.82961 30.2967C3.82961 30.2735 3.84484 30.2537 3.86758 30.2473C8.96742 28.8212 15.3171 28.8952 19.4368 32.3388V33.6939C15.0478 30.5209 9.04906 30.3416 3.82969 31.4894V30.2967H3.82961ZM2.78867 32.9951C2.78867 32.9719 2.80336 32.9522 2.825 32.9461C7.59195 31.604 13.6235 31.4906 17.9226 34.0948H2.78867V32.9951ZM38.1379 36.5674H1.90758C1.54891 36.5674 1.25711 36.2756 1.25711 35.9169C1.25711 35.5584 1.54891 35.2666 1.90758 35.2666H38.1379C38.4965 35.2666 38.7883 35.5584 38.7883 35.9169C38.7883 36.2757 38.4965 36.5674 38.1379 36.5674Z" fill="#030403"/>
</g>
<defs>
<clipPath id="clip0_112_1491">
<rect width="40" height="40" fill="white"/>
</clipPath>
</defs>
</svg>
