<svg width="40" height="40" viewBox="0 0 40 40" fill="none" xmlns="http://www.w3.org/2000/svg">
<path d="M37.1917 17.4393C37.0386 13.0762 35.2717 8.99621 32.1692 5.89371C28.9173 2.64121 24.5955 0.850586 20.0005 0.850586C10.7198 0.850586 3.13672 8.23746 2.80984 17.4393C1.39359 18.0687 0.402344 19.4862 0.402344 21.1337V25.6725C0.402344 27.9012 2.21547 29.715 4.44484 29.715C5.88734 29.715 7.06047 28.5418 7.06047 27.0993V19.7062C7.06047 18.3518 6.02172 17.2475 4.70109 17.1162C5.18859 9.09934 11.8623 2.72559 20.0005 2.72559C24.0955 2.72559 27.9461 4.32184 30.8442 7.21996C33.5055 9.88121 35.063 13.35 35.2973 17.1168C33.978 17.2493 32.9411 18.3531 32.9411 19.7062V27.0987C32.9411 28.4643 33.9961 29.5756 35.3323 29.6912V31.5593C35.3323 33.6631 33.6205 35.3743 31.5167 35.3743H28.6911C28.5523 34.9781 28.3348 34.6118 28.0298 34.3081C27.4955 33.7712 26.783 33.4756 26.0242 33.4756H23.1117C22.6936 33.4756 22.2923 33.5643 21.9248 33.7356C20.9223 34.1962 20.2748 35.2075 20.2748 36.3118C20.2748 37.0706 20.5705 37.7831 21.1061 38.3162C21.6417 38.8531 22.3542 39.1487 23.1117 39.1487H26.0242C27.2317 39.1487 28.2961 38.3681 28.693 37.2493H31.5167C34.6548 37.2493 37.2073 34.6968 37.2073 31.5593V29.3575C38.6148 28.7243 39.5986 27.3118 39.5986 25.6712V21.1325C39.5986 19.4862 38.6073 18.0687 37.1917 17.4393V17.4393ZM5.18484 19.7062V27.0987C5.18484 27.5068 4.85297 27.8393 4.44422 27.8393C3.24922 27.8393 2.27672 26.8668 2.27672 25.6718V21.1331C2.27672 19.9375 3.24922 18.9656 4.44422 18.9656C4.85297 18.9656 5.18484 19.2981 5.18484 19.7062V19.7062ZM26.9648 36.5131C26.8717 36.9543 26.4755 37.275 26.0236 37.275H23.1111C22.8548 37.275 22.6142 37.175 22.4305 36.9912C22.2492 36.8106 22.1492 36.5693 22.1492 36.3131C22.1492 35.9387 22.3686 35.5968 22.7123 35.4387C22.8348 35.3812 22.9692 35.3518 23.1111 35.3518H26.0236C26.2798 35.3518 26.5205 35.4512 26.7036 35.635C26.8848 35.8156 26.9848 36.0568 26.9848 36.3131C26.9855 36.3818 26.978 36.4506 26.9648 36.5131V36.5131ZM37.7236 25.6718C37.7236 26.8668 36.7511 27.8393 35.5561 27.8393C35.148 27.8393 34.8155 27.5075 34.8155 27.0987V19.7062C34.8155 19.2981 35.1473 18.9656 35.5561 18.9656C36.7511 18.9656 37.7236 19.9381 37.7236 21.1331V25.6718Z" fill="#030403"/>
<path d="M26.0708 25.9949C28.2614 25.9949 30.0433 24.2124 30.0433 22.0224V13.9281C30.0433 12.8693 29.6295 11.8718 28.8783 11.1206C28.127 10.3693 27.1302 9.95557 26.0708 9.95557H13.9295C11.7389 9.95557 9.95703 11.7374 9.95703 13.9281V22.0224C9.95703 24.2131 11.7389 25.9949 13.9295 25.9949H14.0039V28.0924C14.0039 28.8924 14.4808 29.6024 15.2183 29.9018C15.4564 29.9974 15.7039 30.0449 15.9489 30.0449C16.4595 30.0449 16.957 29.8424 17.3214 29.4656L20.8108 25.9949H26.0708ZM19.7639 24.3924L15.9877 28.1481C15.9708 28.1656 15.9583 28.1787 15.9227 28.1631C15.8795 28.1456 15.8795 28.1174 15.8795 28.0924V25.0574C15.8795 24.5399 15.4602 24.1199 14.942 24.1199H13.9302C12.7733 24.1199 11.8327 23.1787 11.8327 22.0224V13.9281C11.8327 12.7712 12.7733 11.8306 13.9302 11.8306H26.0714C26.6302 11.8306 27.1558 12.0493 27.5533 12.4462C27.9508 12.8437 28.1689 13.3699 28.1689 13.9281V22.0224C28.1689 23.1793 27.2277 24.1199 26.0714 24.1199H20.4252C20.177 24.1199 19.9395 24.2181 19.7639 24.3924V24.3924Z" fill="#030403"/>
<path d="M15.4456 16.7418C14.6831 16.7418 14.0625 17.3631 14.0625 18.1249C14.0625 18.8868 14.6837 19.5081 15.4456 19.5081C16.2087 19.5081 16.83 18.8868 16.83 18.1249C16.83 17.3631 16.2094 16.7418 15.4456 16.7418Z" fill="#030403"/>
<path d="M20.0003 16.7418C19.2378 16.7418 18.6172 17.3631 18.6172 18.1249C18.6172 18.8868 19.2384 19.5081 20.0003 19.5081C20.7641 19.5081 21.3847 18.8868 21.3847 18.1249C21.3847 17.3631 20.7641 16.7418 20.0003 16.7418Z" fill="#030403"/>
<path d="M24.554 16.7418C23.7915 16.7418 23.1709 17.3631 23.1709 18.1249C23.1709 18.8868 23.7921 19.5081 24.554 19.5081C25.3171 19.5081 25.9384 18.8868 25.9384 18.1249C25.9384 17.3631 25.3171 16.7418 24.554 16.7418Z" fill="#030403"/>
</svg>
