<svg width="30" height="30" viewBox="0 0 30 30" fill="none" xmlns="http://www.w3.org/2000/svg">
<path d="M15 4.16016C15.4854 4.16016 15.8789 3.76664 15.8789 3.28125V0.878906C15.8789 0.393516 15.4854 0 15 0C14.5146 0 14.1211 0.393516 14.1211 0.878906V3.28125C14.1211 3.76664 14.5146 4.16016 15 4.16016Z" fill="white"/>
<path d="M24.9965 3.1286C24.6533 2.78542 24.0968 2.78542 23.7535 3.1286L21.8785 5.0036C21.5353 5.34679 21.5353 5.90331 21.8785 6.24655C22.2218 6.58979 22.7782 6.58979 23.1215 6.24655L24.9965 4.37155C25.3397 4.02831 25.3397 3.47179 24.9965 3.1286Z" fill="white"/>
<path d="M8.12147 6.24643C8.46472 5.90325 8.46472 5.34672 8.12147 5.00348L6.24647 3.12848C5.90329 2.7853 5.34677 2.7853 5.00353 3.12848C4.66028 3.47167 4.66028 4.02819 5.00353 4.37143L6.87853 6.24643C7.22183 6.58973 7.77829 6.58967 8.12147 6.24643Z" fill="white"/>
<path d="M15 6.15234C10.1214 6.15234 6.15234 10.1214 6.15234 15C6.15234 19.523 10.3711 21.737 10.3711 24.375V27.2461C10.3711 28.7646 11.6065 30 13.125 30H16.875C18.3935 30 19.6289 28.7646 19.6289 27.2461V24.375C19.6289 21.7361 23.8477 19.5248 23.8477 15C23.8477 10.1214 19.8786 6.15234 15 6.15234ZM16.875 28.2422H13.125C12.5757 28.2422 12.1289 27.7954 12.1289 27.2461V25.2539H17.8711V27.2461C17.8711 27.7954 17.4243 28.2422 16.875 28.2422ZM17.9619 23.4961H15.8789V19.953C16.9676 19.5853 17.7539 18.5549 17.7539 17.3438C17.7539 16.8584 17.3604 16.4648 16.875 16.4648C16.3896 16.4648 15.9961 16.8584 15.9961 17.3438C15.9961 17.893 15.5493 18.3398 15 18.3398C14.4507 18.3398 14.0039 17.893 14.0039 17.3438C14.0039 16.8584 13.6104 16.4648 13.125 16.4648C12.6396 16.4648 12.2461 16.8584 12.2461 17.3438C12.2461 18.5549 13.0324 19.5853 14.1211 19.953V23.4961H12.0381C11.4185 20.4738 7.91016 18.5335 7.91016 15C7.91016 11.0906 11.0906 7.91016 15 7.91016C18.9094 7.91016 22.0898 11.0906 22.0898 15C22.0898 18.5305 18.5807 20.4773 17.9619 23.4961Z" fill="white"/>
</svg>
