<svg width="14" height="14" viewBox="0 0 14 14" fill="none" xmlns="http://www.w3.org/2000/svg">
<path d="M8.96875 3.9375H5.03125C4.78975 3.9375 4.59375 4.1335 4.59375 4.375C4.59375 4.6165 4.78975 4.8125 5.03125 4.8125H8.96875C9.21025 4.8125 9.40625 4.6165 9.40625 4.375C9.40625 4.1335 9.21025 3.9375 8.96875 3.9375Z" fill="#5459E8"/>
<path d="M8.96875 5.6875H5.03125C4.78975 5.6875 4.59375 5.8835 4.59375 6.125C4.59375 6.3665 4.78975 6.5625 5.03125 6.5625H8.96875C9.21025 6.5625 9.40625 6.3665 9.40625 6.125C9.40625 5.8835 9.21025 5.6875 8.96875 5.6875Z" fill="#5459E8"/>
<path d="M8.96875 7.4375H5.03125C4.78975 7.4375 4.59375 7.63306 4.59375 7.875C4.59375 8.11694 4.78975 8.3125 5.03125 8.3125H8.96875C9.21025 8.3125 9.40625 8.11694 9.40625 7.875C9.40625 7.63306 9.21025 7.4375 8.96875 7.4375Z" fill="#5459E8"/>
<path d="M8.96875 9.1875H5.03125C4.78975 9.1875 4.59375 9.38306 4.59375 9.625C4.59375 9.86694 4.78975 10.0625 5.03125 10.0625H8.96875C9.21025 10.0625 9.40625 9.86694 9.40625 9.625C9.40625 9.38306 9.21025 9.1875 8.96875 9.1875Z" fill="#5459E8"/>
<path d="M2.84375 2.625V11.375C2.84375 12.0986 3.43262 12.6875 4.15625 12.6875H9.84375C10.5674 12.6875 11.1562 12.0986 11.1562 11.375V2.625C11.1562 1.90137 10.5674 1.3125 9.84375 1.3125H4.15625C3.43262 1.3125 2.84375 1.90137 2.84375 2.625ZM9.84375 11.8125H4.15625C3.91519 11.8125 3.71875 11.6165 3.71875 11.375V2.625C3.71875 2.38394 3.91519 2.1875 4.15625 2.1875H9.84375C10.0848 2.1875 10.2812 2.38394 10.2812 2.625V11.375C10.2812 11.6165 10.0848 11.8125 9.84375 11.8125Z" fill="#5459E8"/>
</svg>
