<svg width="40" height="40" viewBox="0 0 40 40" fill="none" xmlns="http://www.w3.org/2000/svg">
<path d="M0.877184 15.4364C0.858421 15.4755 0.844346 15.5146 0.830274 15.5488C0.830274 15.6367 0.900637 15.7393 0.80213 15.8077C0.68486 15.8858 0.591041 15.8419 0.520679 15.7295C0.609804 15.6904 0.684861 15.6318 0.708315 15.5243C0.708315 15.5146 0.708313 15.4999 0.713004 15.4902C0.69424 15.495 0.680165 15.5048 0.666093 15.5048C0.609803 15.5488 0.548824 15.5683 0.46908 15.5634C0.464389 15.5634 0.459699 15.5634 0.455008 15.5634C0.445627 15.6074 0.426863 15.6465 0.403409 15.6856C0.300211 15.7246 0.16418 15.7002 0.10789 15.8419C0.103199 15.9396 0.103201 16.0422 0.0985099 16.1399C0.103201 16.1936 0.10789 16.2424 0.10789 16.2962C0.0703636 16.3255 0.0328356 16.345 0 16.3646C0.0281448 16.4232 0.060982 16.4769 0.10789 16.5258C0.304904 16.6528 0.515989 16.7505 0.689548 16.9068C0.713002 16.8579 0.750526 16.8188 0.811506 16.7798C1.31811 17.3025 1.72152 17.8544 1.60425 18.6849C1.55265 19.0464 1.21492 19.2906 1.29467 19.6814C1.16332 19.6619 1.09295 19.613 1.04605 19.5544C0.989757 19.5983 0.91471 19.6081 0.839657 19.6228C0.839657 19.6423 0.844345 19.6619 0.844345 19.6863C0.661404 19.8035 0.713 20.0038 0.680165 20.1748C0.647329 20.1699 0.614495 20.165 0.58635 20.165C0.7646 20.6144 1.16332 20.8098 1.52921 21.0394C1.54328 21.0443 1.55265 21.0492 1.56673 21.0589C1.61832 21.0394 1.66054 21.0101 1.684 20.9417C1.86225 20.9564 1.97952 21.0443 2.02643 21.225C2.11555 21.3178 2.20937 21.4058 2.32194 21.4742C2.35009 21.5035 2.37355 21.5328 2.40169 21.5621C2.40169 21.5572 2.40638 21.5523 2.41107 21.5474C2.43452 21.5425 2.46267 21.5377 2.48613 21.5279C2.57525 21.5865 2.65968 21.6402 2.74881 21.694C2.96459 21.8601 3.16629 22.0261 2.73943 22.1873C2.64092 22.2264 2.64092 22.3437 2.62685 22.4414C2.64561 22.456 2.68314 22.4756 2.67845 22.4853C2.66907 22.5391 2.64092 22.5293 2.60808 22.4609C2.44391 22.4755 2.27973 22.4853 2.16715 22.3241C2.13901 22.2899 2.10617 22.2753 2.06864 22.2704C1.9889 22.2362 1.89508 22.2215 1.82472 22.1678C1.63709 22.0213 1.60426 22.1434 1.5808 22.3046C1.89509 22.4951 1.64178 22.8175 1.74029 23.0569C1.70276 23.0617 1.67462 23.0764 1.64648 23.0959C1.65586 23.1155 1.66523 23.1301 1.67931 23.1497C2.04988 23.3988 2.61747 23.433 2.59871 24.0925C2.59871 24.1071 2.59401 24.1169 2.59401 24.1315C2.64561 24.1266 2.71128 24.1413 2.76288 24.1413C2.71128 24.2439 2.65968 24.3513 2.60808 24.4539C2.69721 24.449 2.7535 24.493 2.76758 24.5858C3.15222 24.6786 3.38207 25.2209 3.87929 24.9962C3.89806 24.9864 4.00125 25.1476 4.03878 25.2355C4.15136 25.4895 4.26394 25.7484 4.35306 26.0122C5.00977 27.9564 6.08397 29.6661 7.1394 31.3856C7.42085 31.8399 7.65539 32.3186 7.82895 32.8218C7.89462 33.0172 8.18545 33.2907 7.70699 33.3835C7.6507 33.3933 7.65538 33.574 7.73044 33.6522C7.88992 33.8183 8.09163 34.0088 8.30271 33.9306C8.62169 33.8134 8.81402 33.9697 9.03448 34.1309C9.13299 34.2042 9.22681 34.2872 9.36284 34.2726C10.1274 34.17 10.7654 34.5364 11.4033 34.893C11.7505 35.0883 12.0788 35.3179 12.44 35.4743C13.4063 35.8797 14.2835 36.4268 15.0199 37.1986C15.1935 37.3842 15.414 37.5259 15.6532 37.5796C16.0707 37.6773 16.4037 37.9314 16.7602 38.1414C16.9009 38.1023 17.0135 38.1365 17.0839 38.2782C17.2293 38.244 17.3184 38.3075 17.3607 38.4492C17.4545 38.4394 17.5061 38.4833 17.5295 38.5762L17.5342 38.581C17.7078 38.5517 17.8719 38.5371 17.9658 38.7374H17.9705C18.4818 38.4882 18.8805 38.796 19.2979 39.0305C19.6169 39.3724 20.025 39.5629 20.466 39.6362C21.3572 39.7876 22.2297 40.0465 23.1538 39.9928C24.6361 39.9049 26.1371 39.9732 27.4975 39.1868C27.6663 39.0891 27.8446 39.0109 28.0369 38.9523C28.8953 38.6836 29.8241 38.5371 30.3448 37.6187C30.4011 37.521 30.5465 37.4771 30.6403 37.3989C31.1985 36.9495 31.8224 36.5782 32.3618 36.1288C33.5861 35.1079 34.6885 33.9306 35.6032 32.5922C36.9354 30.6431 38.0189 28.567 38.6147 26.2369C38.6897 25.9438 38.8023 25.6556 38.929 25.3821C39.7264 23.6626 39.8859 21.9089 39.2198 20.1015C39.1588 19.9354 39.0978 19.7547 39.0978 19.5837C39.1072 18.3967 39.1119 17.2048 39.2385 16.0177C39.5247 15.8565 39.6326 15.495 39.9469 15.3631L39.9844 15.3827C39.9891 15.2899 39.9891 15.1971 39.9938 15.1042C40.036 14.6646 39.8624 14.4936 39.52 14.6402C39.0415 14.8405 39.0415 14.8405 38.943 14.2689C38.7835 14.0149 38.6991 13.7267 38.6334 13.4336C38.5443 13.0379 38.4411 12.6276 38.1597 12.3492C37.9204 12.1098 37.8876 11.8021 37.7609 11.5236C37.5029 11.5285 37.3059 11.382 37.1136 11.2403C37.0433 11.1866 36.9494 11.0351 36.9635 11.0107C37.3294 10.5173 36.8087 10.6737 36.6633 10.5564C36.6258 10.5271 36.607 10.4783 36.5789 10.4441C36.5835 10.3513 36.5882 10.2536 36.5929 10.1607C36.5648 10.0386 36.5319 9.92626 36.3912 9.88719C36.1192 9.80903 35.9456 9.6234 35.8471 9.35473C35.9409 9.41824 36.0488 9.4622 36.152 9.49639C36.0723 9.43289 36.0019 9.35473 35.9597 9.25215C35.7673 8.98836 35.6125 8.70015 35.4578 8.41195C35.1529 7.84041 34.9699 7.17118 34.3601 6.82436C34.3179 6.73154 34.2663 6.6485 34.2147 6.56057C34.2053 6.68758 34.2194 6.82436 34.1725 6.9416C33.9895 6.60454 33.9473 6.20886 33.619 5.92554C33.4689 5.79365 33.619 5.54451 33.9004 5.68617C34.013 5.55917 34.0787 5.37354 33.9051 5.31981C33.6283 5.22699 33.5345 5.00718 33.3563 4.81666C33.0373 4.46984 32.7652 4.02531 32.3055 3.82503C32.2117 3.85434 32.1085 3.86411 32.0288 3.90807C31.8834 3.99112 31.7755 4.14255 31.5832 3.97646C31.358 3.78107 31.4096 3.59056 31.5362 3.38051C31.5362 3.38051 31.5362 3.38051 31.5362 3.37562C31.5128 3.36585 31.48 3.3512 31.48 3.34631C31.4893 3.29747 31.5128 3.30723 31.5362 3.37562H31.5409C31.6488 3.33166 31.7567 3.28769 31.8646 3.24861C31.8036 3.03368 31.7989 2.81874 31.8458 2.59892C31.4893 3.18023 30.8655 3.01414 30.3589 3.17046C30.2463 3.20465 30.1337 3.08253 30.1431 2.9311C30.1572 2.75524 30.0211 2.60381 30.0915 2.42307C29.9132 2.40842 29.8147 2.30095 29.7725 2.12509C29.7397 1.95412 29.6271 1.88573 29.477 1.86131C29.3175 1.832 29.1486 1.82223 29.022 1.69034C28.9704 1.61218 28.8953 1.57798 28.8109 1.56821C28.7874 1.57798 28.764 1.58775 28.7452 1.60241C28.6936 1.60241 28.6373 1.61218 28.5857 1.62683C28.4732 1.72453 28.4403 1.89062 28.3043 1.96877C28.1495 2.02739 28.0322 1.95412 27.915 1.86619C27.8915 1.91015 27.8634 1.95412 27.8258 2.00297C27.3567 1.49006 26.761 1.70499 26.2028 1.7001C26.1559 1.65126 26.109 1.59752 26.0668 1.54867C26.0293 1.53402 25.9917 1.52425 25.9542 1.51448C25.6681 1.31908 25.2881 1.49005 25.016 1.2507C24.88 1.12857 24.9035 1.01622 25.0301 0.903868C25.2412 0.674278 24.9644 0.605889 24.8941 0.464227C24.7064 0.425148 24.5329 0.361645 24.4391 0.171134C24.3406 0.0294724 24.1295 -0.0535729 24.0638 0.0392401C23.5619 0.74755 22.9896 0.415379 22.4126 0.205328C22.1828 0.122285 21.9295 0.190671 21.6903 0.244405C21.4979 0.288369 21.3103 0.317678 21.118 0.244405C20.5176 0.0148147 19.9031 0.0587802 19.2839 0.146708C19.1948 0.263946 19.0728 0.268832 18.9508 0.239522C18.4114 0.1174 17.9705 0.371415 17.5248 0.625429C17.1918 0.84525 16.7884 0.928291 16.5961 1.38259C16.4882 1.64637 16.1364 1.54867 15.883 1.51936C15.2826 1.33374 14.7244 1.7001 14.1381 1.68545C14.1381 1.68545 14.1334 1.77338 14.1287 1.81734C14.3632 2.14463 14.3398 2.51588 14.0396 2.56473C13.8003 2.60381 13.7347 2.76013 13.6127 2.90179C13.3829 3.16557 13.1296 3.39516 12.7355 3.27793C12.5244 3.21442 12.365 3.26327 12.2946 3.52217C12.2383 3.73711 12.0694 3.75664 11.8865 3.66383C11.5628 3.68337 11.2532 3.70779 11.1735 4.13766C11.1266 4.39656 10.8357 4.29398 10.7091 4.44053C10.7044 4.53823 10.6997 4.63104 10.695 4.72874C10.62 4.90459 10.5918 5.21723 10.3667 5.14884C9.72403 4.95833 9.96326 5.40285 9.96326 5.69106C9.96326 5.73991 9.95857 5.79365 9.95388 5.8425V5.83761C10.1884 6.04277 10.2213 6.23817 9.93512 6.42868C9.89759 6.43357 9.86006 6.44334 9.82254 6.46287C9.70527 6.62408 9.56923 6.56057 9.44258 6.4873C8.94067 6.20398 8.4622 6.1942 7.99782 6.58011C7.71637 6.69735 7.38332 6.63873 7.15347 6.95625C6.65155 7.66456 6.11212 8.33867 5.33344 8.74901C5.12236 8.86136 4.83621 8.96883 4.80807 9.23749C4.77992 9.53547 4.55477 9.64782 4.44219 9.85299C4.32023 10.0777 4.02002 10.2633 4.09976 10.5466C4.32023 11.338 3.94027 11.9681 3.5697 12.5543C3.11469 13.2724 2.61747 13.9416 2.5518 14.8502C2.53772 15.0701 2.48143 15.2996 2.42514 15.5243C2.38762 15.666 2.31725 15.8174 2.12493 15.6953C1.69807 15.6856 1.51513 15.0603 1.0226 15.2068C1.00853 15.2068 0.999143 15.2166 0.985071 15.2215C0.994452 15.2508 0.999145 15.2801 1.00853 15.3045C0.989763 15.3631 0.933474 15.4022 0.877184 15.4364ZM39.8155 15.0701C39.7686 15.1678 39.7264 15.1629 39.6842 15.0701C39.7311 14.9333 39.778 14.9528 39.8155 15.0701ZM37.5827 19.1294C37.6015 19.2027 37.5639 19.2906 37.4889 19.2955C37.2872 19.3101 37.2403 19.1196 37.123 18.9633C37.3716 18.9096 37.5311 18.9047 37.5827 19.1294ZM32.9107 6.99044C33.1968 7.10768 33.3422 7.31773 33.4735 7.53755C33.6002 7.65479 33.7081 7.78668 33.7315 7.97719C33.4079 7.92834 33.4079 7.92834 33.3234 7.54244C33.1452 7.42031 32.8591 7.39589 32.9107 6.99044ZM32.2258 6.25282C32.2446 6.2284 32.3149 6.21374 32.3384 6.2284C32.3665 6.24794 32.3712 6.30167 32.39 6.34564C32.3524 6.36518 32.3149 6.40914 32.2821 6.40425C32.2117 6.38472 32.1836 6.32121 32.2258 6.25282ZM31.7239 5.62267C31.4753 5.52009 31.2173 5.42728 31.0109 5.11464C31.4518 5.07556 31.5925 5.33935 31.7239 5.62267ZM30.6919 36.3584C30.8186 36.3242 30.9264 36.3486 30.9968 36.4708C31.0343 36.588 30.9452 36.6027 30.8795 36.6124C30.7623 36.632 30.6309 36.6613 30.5746 36.5147C30.5418 36.4317 30.6215 36.378 30.6919 36.3584ZM28.6233 1.7343C28.6373 1.90527 28.6514 2.08113 28.4497 2.1544C28.4778 2.00297 28.4262 1.81246 28.6233 1.7343ZM20.7662 38.4882C20.8318 38.5078 20.8365 38.542 20.7849 38.5762C20.7709 38.5859 20.738 38.5762 20.724 38.5664C20.7146 38.5566 20.7146 38.5322 20.7099 38.5127C20.7286 38.5029 20.7474 38.4833 20.7662 38.4882ZM17.8391 37.521C17.8766 37.3989 17.9751 37.3794 18.069 37.4184C18.2472 37.4868 18.4208 37.5796 18.599 37.6578C18.7351 37.7164 18.8664 37.7799 19.0024 37.8385C19.3026 37.9265 19.631 37.9314 19.9031 38.1219C20.011 38.1658 20.1517 38.2538 20.086 38.3563C19.9781 38.5371 19.8655 38.3319 19.753 38.2928C19.5278 38.0974 19.2182 38.4492 19.0071 38.1658C18.8945 38.117 18.7773 38.0632 18.6647 38.0144C18.5193 37.9851 18.3739 37.9655 18.266 37.8434C18.1534 37.7946 18.0408 37.7555 17.9329 37.7018C17.8579 37.6725 17.811 37.6089 17.8391 37.521ZM2.32194 21.352C2.23751 21.3618 2.16715 21.3374 2.139 21.2446C2.22344 21.2348 2.28442 21.269 2.32194 21.352ZM1.06013 16.008C1.09765 16.008 1.13049 16.1008 1.16801 16.1496C1.27121 16.1936 1.33219 16.3304 1.26183 16.3694C1.07419 16.472 1.05543 16.262 0.994454 16.1496C0.975691 16.0812 0.994454 16.0031 1.06013 16.008Z" fill="white"/>
<g clip-path="url(#clip0_1_1240)">
<path d="M28 22L26.6 20.6L21 26.2L21 10L19 10L19 26.2L13.4 20.6L12 22L20 30L28 22Z" fill="#5459E8"/>
</g>
<defs>
<clipPath id="clip0_1_1240">
<rect width="20" height="20" fill="white" transform="translate(30 10) rotate(90)"/>
</clipPath>
</defs>
</svg>
