<svg width="30" height="30" viewBox="0 0 30 30" fill="none" xmlns="http://www.w3.org/2000/svg">
<path d="M23.8917 28.3333H6.10838C5.40114 28.3333 4.72286 28.0524 4.22277 27.5523C3.72267 27.0522 3.44172 26.3739 3.44172 25.6667V7.73333C3.43919 7.38043 3.50718 7.03057 3.6417 6.7043C3.77621 6.37803 3.97454 6.08191 4.22505 5.83333L7.62505 2.45C7.87237 2.20012 8.16708 2.00212 8.49191 1.86761C8.81674 1.7331 9.16515 1.66478 9.51672 1.66666H23.8917C24.5981 1.66969 25.2749 1.95116 25.7751 2.45C26.0236 2.69661 26.2207 2.99002 26.3552 3.31328C26.4896 3.63653 26.5587 3.98323 26.5584 4.33333V25.6667C26.5587 26.0168 26.4896 26.3635 26.3552 26.6867C26.2207 27.01 26.0236 27.3034 25.7751 27.55C25.2749 28.0488 24.5981 28.3303 23.8917 28.3333ZM9.51672 3.44166C9.40068 3.44156 9.28576 3.46432 9.17852 3.50865C9.07128 3.55297 8.97382 3.618 8.89172 3.7L5.48338 7.10833C5.3193 7.27516 5.22664 7.49934 5.22505 7.73333V25.6667C5.22505 25.9031 5.31899 26.1299 5.48621 26.2972C5.65343 26.4644 5.88023 26.5583 6.11672 26.5583H23.8917C24.1282 26.5583 24.355 26.4644 24.5222 26.2972C24.6894 26.1299 24.7834 25.9031 24.7834 25.6667V4.33333C24.7835 4.21729 24.7607 4.10237 24.7164 3.99513C24.6721 3.88789 24.6071 3.79043 24.5251 3.70833C24.3587 3.54349 24.1342 3.4507 23.9001 3.45L9.51672 3.44166Z" fill="white"/>
<path d="M10.4583 12.7C10.3423 12.7001 10.2273 12.6773 10.1201 12.633C10.0129 12.5887 9.9154 12.5237 9.83329 12.4417L8.16663 10.775L9.42496 9.51665L10.475 10.5667L12.3666 8.67499L13.625 9.93332L11.125 12.4333C11.0387 12.522 10.9348 12.5915 10.8199 12.6374C10.7051 12.6834 10.5819 12.7047 10.4583 12.7V12.7Z" fill="white"/>
<path d="M15 9.66669H21.225V11.4417H15V9.66669Z" fill="white"/>
<path d="M15 15H21.225V16.775H15V15Z" fill="white"/>
<path d="M9.66663 15H11.4416V16.775H9.66663V15Z" fill="white"/>
<path d="M15 20.3333H21.225V22.1083H15V20.3333Z" fill="white"/>
<path d="M9.66663 20.3333H11.4416V22.1083H9.66663V20.3333Z" fill="white"/>
</svg>
