<svg width="40" height="40" viewBox="0 0 40 40" fill="none" xmlns="http://www.w3.org/2000/svg">
<g opacity="0.1" clip-path="url(#clip0_44_1613)">
<path d="M39.9915 12.2436C39.9915 6.9847 35.7286 2.72177 30.4697 2.72177C25.2108 2.72177 20.9479 6.9847 20.9479 12.2436C20.9479 17.5025 25.2108 21.7654 30.4697 21.7654C31.5505 21.7654 32.5851 21.577 33.5536 21.245C31.4107 33.5345 21.8272 41.4599 30.7111 34.9372C40.562 27.7042 40.002 12.5346 39.991 12.2566C39.991 12.2523 39.9915 12.2484 39.9915 12.2436Z" fill="#333333"/>
<path d="M19.0437 12.2436C19.0437 6.9847 14.7808 2.72177 9.52187 2.72177C4.26296 2.72177 1.59998e-05 6.9847 1.554e-05 12.2436C1.50803e-05 17.5025 4.26303 21.7654 9.52195 21.7654C10.6028 21.7654 11.6373 21.577 12.6058 21.245C10.463 33.5345 0.879465 41.4599 9.76334 34.9372C19.6142 27.7042 19.0544 12.5346 19.0433 12.2566C19.0433 12.2523 19.0437 12.2484 19.0437 12.2436Z" fill="#333333"/>
</g>
<defs>
<clipPath id="clip0_44_1613">
<rect width="40" height="40" fill="white" transform="translate(40 40) rotate(-180)"/>
</clipPath>
</defs>
</svg>
