<svg width="60" height="60" viewBox="0 0 60 60" fill="none" xmlns="http://www.w3.org/2000/svg">
<rect opacity="0.05" width="60" height="60" rx="8" fill="url(#paint0_linear_222_4444)"/>
<path d="M40.6055 30.7122H37.6689C37.2692 30.7122 36.8822 30.7668 36.514 30.8673C35.7875 29.4392 34.3044 28.458 32.5954 28.458H27.4046C25.6956 28.458 24.2125 29.4392 23.486 30.8673C23.1178 30.7668 22.7308 30.7122 22.3311 30.7122H19.3945C16.9714 30.7122 15 32.6836 15 35.1068V39.8012C15 41.2551 16.1828 42.4379 17.6367 42.4379H42.3633C43.8172 42.4379 45 41.2551 45 39.8012V35.1068C45 32.6836 43.0286 30.7122 40.6055 30.7122ZM23.0101 32.8527V40.6801H17.6367C17.1521 40.6801 16.7578 40.2859 16.7578 39.8012V35.1068C16.7578 33.6529 17.9406 32.4701 19.3945 32.4701H22.3311C22.5697 32.4701 22.8008 32.5025 23.0207 32.5622C23.0144 32.6584 23.0101 32.755 23.0101 32.8527ZM35.2321 40.6801H24.7679V32.8526C24.7679 31.3987 25.9507 30.2159 27.4046 30.2159H32.5954C34.0493 30.2159 35.2321 31.3987 35.2321 32.8526V40.6801ZM43.2422 39.8012C43.2422 40.2859 42.8479 40.6801 42.3633 40.6801H36.9899V32.8526C36.9899 32.7549 36.9856 32.6582 36.9793 32.5621C37.1992 32.5025 37.4303 32.47 37.6689 32.47H40.6055C42.0594 32.47 43.2422 33.6529 43.2422 35.1068V39.8012Z" fill="url(#paint1_linear_222_4444)"/>
<path d="M20.863 22.4121C18.7098 22.4121 16.958 24.1639 16.958 26.3171C16.9579 28.4704 18.7098 30.2222 20.863 30.2222C23.0162 30.2222 24.7681 28.4704 24.7681 26.3171C24.7681 24.1639 23.0163 22.4121 20.863 22.4121ZM20.863 28.4644C19.679 28.4644 18.7158 27.5012 18.7158 26.3171C18.7158 25.1331 19.679 24.1699 20.863 24.1699C22.047 24.1699 23.0102 25.1331 23.0102 26.3171C23.0102 27.5012 22.047 28.4644 20.863 28.4644Z" fill="url(#paint2_linear_222_4444)"/>
<path d="M30.0003 17.5625C27.1236 17.5625 24.7832 19.9029 24.7832 22.7796C24.7832 25.6563 27.1236 27.9966 30.0003 27.9966C32.877 27.9966 35.2173 25.6563 35.2173 22.7796C35.2173 19.9029 32.877 17.5625 30.0003 17.5625ZM30.0003 26.2388C28.0928 26.2388 26.541 24.687 26.541 22.7796C26.541 20.8722 28.0928 19.3203 30.0003 19.3203C31.9077 19.3203 33.4595 20.8721 33.4595 22.7796C33.4595 24.687 31.9077 26.2388 30.0003 26.2388Z" fill="url(#paint3_linear_222_4444)"/>
<path d="M39.1375 22.4121C36.9843 22.4121 35.2324 24.1639 35.2324 26.3171C35.2325 28.4704 36.9843 30.2222 39.1375 30.2222C41.2907 30.2222 43.0425 28.4704 43.0425 26.3171C43.0425 24.1639 41.2907 22.4121 39.1375 22.4121ZM39.1375 28.4644C37.9535 28.4644 36.9902 27.5012 36.9902 26.3171C36.9903 25.1331 37.9535 24.1699 39.1375 24.1699C40.3215 24.1699 41.2847 25.1331 41.2847 26.3171C41.2847 27.5012 40.3215 28.4644 39.1375 28.4644Z" fill="url(#paint4_linear_222_4444)"/>
<defs>
<linearGradient id="paint0_linear_222_4444" x1="-72.8873" y1="-117.778" x2="186.59" y2="-69.1639" gradientUnits="userSpaceOnUse">
<stop stop-color="#FF0035"/>
<stop offset="1" stop-color="#FF9120"/>
</linearGradient>
<linearGradient id="paint1_linear_222_4444" x1="-21.4437" y1="1.01602" x2="94.1623" y2="47.4952" gradientUnits="userSpaceOnUse">
<stop stop-color="#FF0035"/>
<stop offset="1" stop-color="#FF9120"/>
</linearGradient>
<linearGradient id="paint2_linear_222_4444" x1="7.47041" y1="7.08122" x2="41.2461" y2="13.4092" gradientUnits="userSpaceOnUse">
<stop stop-color="#FF0035"/>
<stop offset="1" stop-color="#FF9120"/>
</linearGradient>
<linearGradient id="paint3_linear_222_4444" x1="12.1079" y1="-2.91933" x2="57.2317" y2="5.53474" gradientUnits="userSpaceOnUse">
<stop stop-color="#FF0035"/>
<stop offset="1" stop-color="#FF9120"/>
</linearGradient>
<linearGradient id="paint4_linear_222_4444" x1="25.7448" y1="7.08122" x2="59.5205" y2="13.4092" gradientUnits="userSpaceOnUse">
<stop stop-color="#FF0035"/>
<stop offset="1" stop-color="#FF9120"/>
</linearGradient>
</defs>
</svg>
