<svg width="61" height="16" viewBox="0 0 61 16" fill="none" xmlns="http://www.w3.org/2000/svg">
<path d="M58.9611 6.66028C58.6268 6.87028 58.2472 7.04428 57.8406 7.19028C57.4701 7.34628 57.0183 7.46528 56.5213 7.52928C56.3316 7.56528 56.1328 7.58427 55.934 7.61127C54.0816 7.77627 52.5003 7.36428 51.5966 6.50428C51.5876 6.49528 51.5786 6.48627 51.5695 6.48627C51.5695 6.52327 51.5695 6.55028 51.5605 6.58728C51.5605 6.98028 51.7141 7.33728 51.9581 7.63028C52.69 8.48028 54.0997 8.94728 55.7442 8.97428C56.8376 8.98328 57.8316 8.77327 58.5997 8.39827C58.9792 8.20627 59.3045 7.97728 59.5575 7.69428C59.8015 7.41028 59.9732 7.05328 59.9732 6.66028C59.9732 6.41328 59.9099 6.18427 59.8105 5.96527C59.5756 6.22127 59.2954 6.44928 58.9611 6.66028ZM55.7352 5.48928C54.0093 5.62628 52.5183 5.29728 51.5876 4.54728C51.6057 4.90328 51.7593 5.23328 51.9852 5.48928C52.7171 6.34028 54.1268 6.80628 55.7713 6.83428C56.8647 6.84328 57.8587 6.63228 58.6268 6.25728C59.0063 6.06528 59.3316 5.83627 59.5846 5.55327C59.8286 5.26927 60.0003 4.91328 60.0003 4.51928C60.0093 4.21728 59.9099 3.92527 59.7472 3.67827C59.4942 3.99827 58.4732 5.27828 55.7352 5.48928ZM55.7804 4.69327C56.8738 4.70227 57.8677 4.49228 58.6358 4.11728C59.0153 3.92528 59.3406 3.69628 59.5936 3.41228C59.8376 3.12928 60.0093 2.77228 60.0093 2.37928C60.0093 1.98528 59.8557 1.62828 59.6117 1.33628C58.8707 0.494277 57.4611 0.0272779 55.8256 0.000277945C54.7322 -0.00872206 53.7382 0.201279 52.9701 0.567279C52.5906 0.759279 52.2653 0.988281 52.0123 1.27228C51.7683 1.55528 51.6057 1.91227 51.5966 2.30527C51.5966 2.69927 51.7503 3.05529 51.9942 3.34829C52.7262 4.20829 54.1448 4.66627 55.7804 4.69327ZM52.5906 1.47329C52.9882 0.979285 54.2262 0.503274 55.681 0.521274C56.6479 0.531274 57.5153 0.741277 58.1027 1.04328C58.4009 1.18928 58.6177 1.36328 58.7533 1.52828C58.8888 1.69228 58.934 1.82028 58.934 1.94928C58.934 2.07728 58.8888 2.20528 58.7533 2.36028C58.3557 2.85428 57.1177 3.33027 55.6629 3.31227C54.696 3.30227 53.8286 3.09227 53.2412 2.79027C52.943 2.64427 52.7262 2.47027 52.5906 2.30527C52.4551 2.14127 52.4189 2.01327 52.4189 1.88527C52.4099 1.76627 52.4551 1.63829 52.5906 1.47329Z" fill="url(#paint0_linear_294_2357)"/>
<path d="M15.0553 5.80026C14.6668 5.35226 14.1155 5.12326 13.4107 5.12326H10.1668L9.92283 6.36726H13.1668C13.5101 6.36726 13.7812 6.48626 13.9619 6.72426C14.1517 6.96226 14.2149 7.25425 14.1517 7.61125L14.1065 7.82227L14.0884 7.96826H11.0794C10.3655 7.96826 9.72403 8.20626 9.14573 8.67226C8.56743 9.13926 8.21493 9.73425 8.07043 10.4563L8.03423 10.5843C7.88063 11.3073 7.99813 11.9023 8.37763 12.3683C8.75713 12.8353 9.30833 13.0733 10.0222 13.0733H14.2692L15.4168 7.53825C15.5613 6.83425 15.4348 6.24826 15.0553 5.80026ZM13.2933 11.8283H10.2842C9.94083 11.8283 9.66983 11.7103 9.47103 11.4723C9.27223 11.2343 9.20893 10.9413 9.28123 10.5843L9.31743 10.4563C9.38063 10.1093 9.56133 9.81626 9.85953 9.56926C10.1577 9.33126 10.474 9.21227 10.8174 9.21227H13.8083L13.2933 11.8283ZM22.3565 5.11426L20.983 11.8103H17.8836C17.5402 11.8103 17.2692 11.6913 17.0704 11.4533C16.8716 11.2163 16.8083 10.9233 16.8806 10.5663L17.9921 5.11426H16.7451L15.6336 10.5663C15.48 11.2893 15.5975 11.8833 15.986 12.3503C16.3746 12.8163 16.9258 13.0543 17.6306 13.0543H20.7481L20.6487 13.5123C20.5764 13.8503 20.3866 14.1433 20.0884 14.3903C19.7902 14.6373 19.474 14.7563 19.1396 14.7563H14.8927L14.6306 16.0003H18.8776C19.5643 16.0003 20.2059 15.7623 20.7842 15.2773C21.3625 14.7923 21.733 14.2073 21.8866 13.5123L23.6035 5.11426H22.3565Z" fill="url(#paint1_linear_294_2357)"/>
<path d="M35.4137 13.073H31.1668C30.4529 13.073 29.9107 12.835 29.5222 12.368C29.1427 11.902 29.0252 11.307 29.1788 10.584L29.2149 10.456C29.3505 9.73404 29.7119 9.13904 30.2902 8.67204C30.8686 8.20604 31.5101 7.96805 32.224 7.96805H35.233L35.2511 7.82205L35.2963 7.61104C35.3595 7.26404 35.2963 6.97104 35.1065 6.72404C34.9168 6.48604 34.6547 6.36705 34.3023 6.36705H30.8053L31.0493 5.12305H34.5463C35.2601 5.12305 35.8023 5.35205 36.1909 5.80005C36.5794 6.24805 36.7059 6.83404 36.5613 7.53804L35.4137 13.073ZM34.4288 11.828L34.9439 9.21205H31.9529C31.6095 9.21205 31.2842 9.33105 30.9951 9.56905C30.6969 9.80705 30.5161 10.099 30.4529 10.456L30.4168 10.584C30.3445 10.932 30.3987 11.225 30.6065 11.472C30.8053 11.71 31.0764 11.828 31.4198 11.828H34.4288Z" fill="black"/>
<path d="M43.5632 10.941C43.4186 11.627 43.0662 12.167 42.4788 12.56C41.9547 12.917 41.3403 13.1001 40.6354 13.1001H36.4336L36.6957 11.856H40.8975C41.7288 11.856 42.1987 11.554 42.3162 10.941L42.3794 10.648C42.5059 10.035 42.1626 9.73404 41.3312 9.73404H39.4427C38.7379 9.73404 38.2047 9.55105 37.8252 9.19405C37.3915 8.80005 37.2469 8.26104 37.3915 7.57504L37.4547 7.28204C37.5903 6.59604 37.9517 6.05604 38.5391 5.66304C39.0632 5.30604 39.6776 5.12305 40.3824 5.12305H44.6023L44.3583 6.36705H40.1385C39.3071 6.36705 38.8282 6.66904 38.7017 7.28204L38.6385 7.57504C38.521 8.18804 38.8734 8.48904 39.7047 8.48904H41.5933C42.2891 8.48904 42.8312 8.67205 43.2107 9.02905C43.6264 9.42305 43.771 9.96204 43.6264 10.648L43.5632 10.941Z" fill="black"/>
<path d="M49.2372 13.054H47.2673C46.5534 13.054 46.0022 12.816 45.6227 12.35C45.2342 11.883 45.1168 11.289 45.2704 10.566L46.1468 6.29398H45.3608L45.6317 5.01297H46.4088L46.9872 2.16797H48.2522L47.6739 5.01297H50.2944L50.0233 6.29398H47.4029L46.5263 10.566C46.454 10.914 46.5084 11.206 46.7071 11.453C46.8969 11.691 47.1679 11.81 47.5113 11.81H49.4812L49.2372 13.054Z" fill="black"/>
<path d="M9.4066 5.84589C9.2711 6.53189 8.9096 7.11689 8.3313 7.58389C7.753 8.05889 7.1205 8.29689 6.4428 8.29689H2.1958L1.2199 13.0729H0L2.2139 2.2959H7.6807C8.3584 2.2959 8.8916 2.53389 9.262 3.00989C9.6416 3.48489 9.759 4.06189 9.6235 4.74789L9.4066 5.84589ZM8.1777 5.84589L8.4036 4.74789C8.4759 4.39989 8.4217 4.11689 8.2319 3.87889C8.0422 3.64089 7.7711 3.5219 7.4367 3.5219H3.1898L2.4578 7.07089H6.6958C7.0392 7.07089 7.3464 6.95289 7.6355 6.71489C7.9247 6.47689 8.1054 6.18389 8.1777 5.84589Z" fill="url(#paint2_linear_294_2357)"/>
<path d="M33.2529 3.42097H28.1023C27.7589 3.42097 27.4336 3.53997 27.1354 3.77797C26.8372 4.01597 26.6475 4.31797 26.5752 4.66597L26.0963 7.04398H29.3131L29.0511 8.30597H25.8523L24.8583 13.082H23.6113L25.3282 4.66597C25.4818 3.94297 25.8433 3.34796 26.4216 2.87196C26.9999 2.40596 27.6414 2.16797 28.3553 2.16797H33.5059L33.2529 3.42097Z" fill="black"/>
<defs>
<linearGradient id="paint0_linear_294_2357" x1="54.907" y1="12.9693" x2="53.4125" y2="27.0753" gradientUnits="userSpaceOnUse">
<stop offset="0.0164835" stop-color="#ED1C24"/>
<stop offset="1" stop-color="#BE1E2D"/>
</linearGradient>
<linearGradient id="paint1_linear_294_2357" x1="15.7932" y1="5.92026" x2="15.7932" y2="12.7793" gradientUnits="userSpaceOnUse">
<stop offset="0.0164835" stop-color="#ED1C24"/>
<stop offset="1" stop-color="#BE1E2D"/>
</linearGradient>
<linearGradient id="paint2_linear_294_2357" x1="4.8405" y1="4.6969" x2="4.8405" y2="13.6949" gradientUnits="userSpaceOnUse">
<stop offset="0.0164835" stop-color="#ED1C24"/>
<stop offset="1" stop-color="#BE1E2D"/>
</linearGradient>
</defs>
</svg>
