<svg width="40" height="40" viewBox="0 0 40 40" fill="none" xmlns="http://www.w3.org/2000/svg">
<g opacity="0.1" clip-path="url(#clip0_44_1608)">
<path d="M0.00850454 27.7564C0.00850454 33.0153 4.27144 37.2782 9.53028 37.2782C14.7892 37.2782 19.0521 33.0153 19.0521 27.7564C19.0521 22.4975 14.7892 18.2346 9.53028 18.2346C8.4495 18.2346 7.41495 18.423 6.44645 18.755C8.58926 6.46547 18.1728 -1.45991 9.28888 5.06284C-0.561997 12.2958 -0.00204573 27.4654 0.00897694 27.7434C0.00897694 27.7477 0.00850454 27.7516 0.00850454 27.7564Z" fill="#333333"/>
<path d="M20.9563 27.7564C20.9563 33.0153 25.2192 37.2782 30.4781 37.2782C35.737 37.2782 40 33.0153 40 27.7564C40 22.4975 35.737 18.2346 30.4781 18.2346C29.3972 18.2346 28.3627 18.423 27.3942 18.755C29.537 6.46547 39.1205 -1.45991 30.2367 5.06284C20.3858 12.2958 20.9456 27.4654 20.9568 27.7434C20.9568 27.7477 20.9563 27.7516 20.9563 27.7564Z" fill="#333333"/>
</g>
<defs>
<clipPath id="clip0_44_1608">
<rect width="40" height="40" fill="white"/>
</clipPath>
</defs>
</svg>
