<svg width="60" height="60" viewBox="0 0 60 60" fill="none" xmlns="http://www.w3.org/2000/svg">
<rect opacity="0.05" width="60" height="60" rx="8" fill="url(#paint0_linear_222_4447)"/>
<path fill-rule="evenodd" clip-rule="evenodd" d="M30.7666 16.875C27.145 16.875 24.2041 19.8159 24.2041 23.4375C24.2041 27.0591 27.145 30 30.7666 30C34.3891 30 37.3291 27.0591 37.3291 23.4375C37.3291 19.8159 34.3891 16.875 30.7666 16.875ZM30.7666 18.75C33.3541 18.75 35.4541 20.85 35.4541 23.4375C35.4541 26.025 33.3541 28.125 30.7666 28.125C28.18 28.125 26.0791 26.025 26.0791 23.4375C26.0791 20.85 28.18 18.75 30.7666 18.75Z" fill="url(#paint1_linear_222_4447)"/>
<path fill-rule="evenodd" clip-rule="evenodd" d="M19.5166 41.25H29.9997C30.5172 41.25 30.9372 41.67 30.9372 42.1875C30.9372 42.705 30.5172 43.125 29.9997 43.125H18.5791C18.0616 43.125 17.6416 42.705 17.6416 42.1875C17.6416 42.1875 17.6416 41.4141 17.6416 40.3125C17.6416 35.6522 21.4197 31.875 26.0791 31.875H29.9997C30.5172 31.875 30.9372 32.295 30.9372 32.8125C30.9372 33.33 30.5172 33.75 29.9997 33.75H26.0791C22.4547 33.75 19.5166 36.6881 19.5166 40.3125V41.25Z" fill="url(#paint2_linear_222_4447)"/>
<path fill-rule="evenodd" clip-rule="evenodd" d="M38.4832 41.8236L36.2398 43.3433C35.952 43.5374 35.5807 43.558 35.2751 43.3949C34.9686 43.2327 34.7764 42.9139 34.7764 42.5671V36.253C34.7764 35.8639 35.0173 35.5142 35.3811 35.3764C35.7457 35.2386 36.1573 35.3389 36.4151 35.6305C36.9223 36.2014 37.662 36.5624 38.4842 36.5624C39.3073 36.5624 40.047 36.2014 40.5532 35.6305C40.812 35.3389 41.2236 35.2386 41.5873 35.3764C41.952 35.5142 42.192 35.8639 42.192 36.253V42.5671C42.192 42.9139 42.0007 43.2327 41.6942 43.3949C41.3876 43.558 41.0164 43.5374 40.7295 43.3433L38.4832 41.8236ZM36.6514 38.0605V40.7999L37.9582 39.9158C38.2751 39.7011 38.6914 39.7002 39.0092 39.9149L40.317 40.8008V38.0605C39.7554 38.3033 39.1348 38.4374 38.4842 38.4374C37.8336 38.4374 37.2139 38.3033 36.6514 38.0605Z" fill="url(#paint3_linear_222_4447)"/>
<path fill-rule="evenodd" clip-rule="evenodd" d="M38.4844 29.1572C35.9241 29.1572 33.8447 31.2366 33.8447 33.7969C33.8447 36.3582 35.9241 38.4375 38.4844 38.4375C41.0457 38.4375 43.125 36.3582 43.125 33.7969C43.125 31.2366 41.0457 29.1572 38.4844 29.1572ZM38.4844 31.0322C40.0107 31.0322 41.25 32.2707 41.25 33.7969C41.25 35.3232 40.0107 36.5625 38.4844 36.5625C36.9582 36.5625 35.7197 35.3232 35.7197 33.7969C35.7197 32.2707 36.9582 31.0322 38.4844 31.0322Z" fill="url(#paint4_linear_222_4447)"/>
<defs>
<linearGradient id="paint0_linear_222_4447" x1="-72.8873" y1="-117.778" x2="186.59" y2="-69.1639" gradientUnits="userSpaceOnUse">
<stop stop-color="#FF0035"/>
<stop offset="1" stop-color="#FF9120"/>
</linearGradient>
<linearGradient id="paint1_linear_222_4447" x1="8.26" y1="-8.88889" x2="65.0207" y2="1.7454" gradientUnits="userSpaceOnUse">
<stop stop-color="#FF0035"/>
<stop offset="1" stop-color="#FF9120"/>
</linearGradient>
<linearGradient id="paint2_linear_222_4447" x1="1.49023" y1="9.79167" x2="58.2256" y2="22.354" gradientUnits="userSpaceOnUse">
<stop stop-color="#FF0035"/>
<stop offset="1" stop-color="#FF9120"/>
</linearGradient>
<linearGradient id="paint3_linear_222_4447" x1="25.768" y1="19.2408" x2="58.0347" y2="24.7151" gradientUnits="userSpaceOnUse">
<stop stop-color="#FF0035"/>
<stop offset="1" stop-color="#FF9120"/>
</linearGradient>
<linearGradient id="paint4_linear_222_4447" x1="22.5711" y1="10.9403" x2="62.705" y2="18.4595" gradientUnits="userSpaceOnUse">
<stop stop-color="#FF0035"/>
<stop offset="1" stop-color="#FF9120"/>
</linearGradient>
</defs>
</svg>
