<svg width="48" height="48" viewBox="0 0 48 48" fill="none" xmlns="http://www.w3.org/2000/svg">
<g clip-path="url(#clip0_44_4011)">
<path d="M4.00006 44L6.82718 33.7338C5.07933 30.7205 4.16243 27.308 4.17198 23.8194C4.17198 12.8878 13.1118 4 24.086 4C29.4155 4 34.4203 6.06274 38.1739 9.80799C41.937 13.5532 44.0096 18.5342 44 23.8289C44 34.7605 35.0602 43.6483 24.0765 43.6483H24.0669C20.7336 43.6483 17.4575 42.8118 14.5445 41.2338L4.00006 44ZM15.0507 37.6502L15.6524 38.0114C18.193 39.5133 21.1061 40.3023 24.0765 40.3118H24.086C33.2073 40.3118 40.638 32.9259 40.638 23.8384C40.638 19.4373 38.9188 15.3023 35.7956 12.1844C32.6724 9.06654 28.5082 7.35551 24.086 7.35551C14.9647 7.34601 7.53396 14.7319 7.53396 23.8194C7.53396 26.9278 8.40311 29.9601 10.065 32.5837L10.4566 33.211L8.78516 39.2852L15.0507 37.6502Z" fill="white"/>
<path d="M4.69724 43.306L7.42885 33.3916C5.7383 30.4923 4.85005 27.1939 4.85005 23.8288C4.8596 13.2775 13.4842 4.69385 24.0859 4.69385C29.234 4.69385 34.0573 6.69005 37.6867 10.3022C41.3161 13.9144 43.3123 18.7243 43.3123 23.8383C43.3123 34.3897 34.6781 42.9733 24.0859 42.9733H24.0764C20.8577 42.9733 17.6963 42.1653 14.8882 40.6444L4.69724 43.306Z" fill="url(#paint0_linear_44_4011)"/>
<path d="M4.00006 44L6.82718 33.7338C5.07933 30.7205 4.16243 27.308 4.17198 23.8194C4.17198 12.8878 13.1118 4 24.086 4C29.4155 4 34.4203 6.06274 38.1739 9.80799C41.937 13.5532 44.0096 18.5342 44 23.8289C44 34.7605 35.0602 43.6483 24.0765 43.6483H24.0669C20.7336 43.6483 17.4575 42.8118 14.5445 41.2338L4.00006 44ZM15.0507 37.6502L15.6524 38.0114C18.193 39.5133 21.1061 40.3023 24.0765 40.3118H24.086C33.2073 40.3118 40.638 32.9259 40.638 23.8384C40.638 19.4373 38.9188 15.3023 35.7956 12.1844C32.6724 9.06654 28.5082 7.35551 24.086 7.35551C14.9647 7.34601 7.53396 14.7319 7.53396 23.8194C7.53396 26.9278 8.40311 29.9601 10.065 32.5837L10.4566 33.211L8.78516 39.2852L15.0507 37.6502Z" fill="url(#paint1_linear_44_4011)"/>
<path fill-rule="evenodd" clip-rule="evenodd" d="M19.1098 15.5305C18.7373 14.7036 18.3457 14.6845 17.9923 14.675C17.7058 14.6655 17.3715 14.6655 17.0372 14.6655C16.7029 14.6655 16.168 14.7891 15.7096 15.2834C15.2511 15.7777 13.9713 16.9754 13.9713 19.4184C13.9713 21.8518 15.7573 24.2093 16.0057 24.542C16.254 24.8747 19.4536 30.0363 24.5061 32.0229C28.7086 33.6769 29.5682 33.3442 30.4756 33.2587C31.3829 33.1731 33.4173 32.061 33.8376 30.9013C34.2482 29.7416 34.2482 28.753 34.1241 28.5439C33.9999 28.3347 33.6656 28.2112 33.169 27.964C32.6723 27.7169 30.2272 26.5191 29.7688 26.348C29.3103 26.1864 28.976 26.1009 28.6513 26.5952C28.317 27.0895 27.3619 28.2017 27.0754 28.5344C26.7888 28.8671 26.4928 28.9051 25.9961 28.6579C25.4994 28.4108 23.8949 27.888 21.9942 26.1959C20.5138 24.8842 19.5109 23.2587 19.2244 22.7644C18.9378 22.2701 19.1957 22.0039 19.4441 21.7568C19.6637 21.5382 19.9407 21.1769 20.189 20.8918C20.4374 20.6066 20.5233 20.3975 20.6857 20.0648C20.8481 19.7321 20.7717 19.4469 20.6475 19.1997C20.5233 18.9621 19.5491 16.5096 19.1098 15.5305Z" fill="white"/>
</g>
<defs>
<linearGradient id="paint0_linear_44_4011" x1="24.0038" y1="43.3041" x2="24.0038" y2="4.6925" gradientUnits="userSpaceOnUse">
<stop stop-color="#20B038"/>
<stop offset="1" stop-color="#60D66A"/>
</linearGradient>
<linearGradient id="paint1_linear_44_4011" x1="24.004" y1="43.9962" x2="24.004" y2="4" gradientUnits="userSpaceOnUse">
<stop stop-color="#F9F9F9"/>
<stop offset="1" stop-color="white"/>
</linearGradient>
<clipPath id="clip0_44_4011">
<rect width="40" height="40" fill="white" transform="translate(4 4)"/>
</clipPath>
</defs>
</svg>
