<svg width="61" height="18" viewBox="0 0 61 18" fill="none" xmlns="http://www.w3.org/2000/svg">
<path d="M44.0928 1.8851C44.0928 0.841201 44.9367 0 45.9838 0C47.031 0 47.8748 0.841201 47.8748 1.8851C47.8748 2.9291 47.031 3.7804 45.9838 3.7804C44.9367 3.7804 44.0928 2.9291 44.0928 1.8851ZM16.8462 7.6014C17.7307 8.5946 18.2288 9.8716 18.2288 11.1993V17.7568H15.3212V11.1182C15.311 9.8108 14.2333 8.7466 12.9218 8.7466C12.8507 8.7466 12.7693 8.7568 12.6778 8.7568C11.5087 8.8784 10.5225 9.9831 10.5225 11.1791V17.7466H7.625V11.1284C7.6148 9.8209 6.5473 8.7466 5.2358 8.7466C5.1647 8.7466 5.0833 8.7568 4.9918 8.7568C3.8227 8.8784 2.8365 9.9831 2.8365 11.1892V17.7466H0V11.1081C0 8.2095 2.3688 5.8581 5.2663 5.8581C6.7202 5.8581 8.1028 6.4662 9.0992 7.5101C10.0955 6.4561 11.4883 5.8581 12.9422 5.8581C13.1048 5.8581 13.2472 5.8682 13.4098 5.8784C14.7315 6 15.9515 6.6081 16.8462 7.6014ZM36.3357 17.7669H33.4382V0.283798H36.3357V17.7669ZM41.8867 17.7669H38.9892V0.283798H41.8867V17.7669ZM47.4377 17.7568H44.5402V6.1622H47.4377V17.7568ZM61 12.9932H52.1753C52.5718 14.3919 53.8427 15.375 55.3168 15.375C56.4758 15.375 57.5128 14.7872 58.1127 13.8041L58.2347 13.6115L60.634 14.7872L60.4917 15.0203C59.4038 16.8547 57.401 17.9899 55.266 17.9899H55.2558C53.6292 17.9899 52.1042 17.3514 50.9452 16.1858C49.7862 15.0203 49.166 13.4797 49.1863 11.8581C49.2067 10.2669 49.837 8.7669 50.9553 7.6419C52.0737 6.5169 53.5783 5.8885 55.1745 5.8682H55.2457C56.7808 5.8682 58.2143 6.4764 59.3123 7.5811C60.4002 8.6858 61 10.1351 61 11.6655V12.9932ZM52.216 10.6014H58.0618C57.645 9.3649 56.4555 8.4932 55.1338 8.4932C53.8122 8.4932 52.6328 9.3649 52.216 10.6014ZM31.8725 11.9392C31.8725 15.2737 29.1478 18 25.803 18C22.4582 18 19.7335 15.2737 19.7335 11.9392C19.7335 8.6047 22.448 5.8784 25.803 5.8784C29.1478 5.8784 31.8725 8.5946 31.8725 11.9392ZM28.9953 11.9392C28.9953 10.1858 27.5618 8.7466 25.803 8.7466C24.0442 8.7466 22.6107 10.1757 22.6107 11.9392C22.6107 13.6926 24.0442 15.1318 25.803 15.1318C27.5618 15.1318 28.9953 13.7027 28.9953 11.9392Z" fill="black"/>
</svg>
