<svg width="80" height="17" viewBox="0 0 80 17" fill="none" xmlns="http://www.w3.org/2000/svg">
<path d="M5.14351 4.4531L4.47852 6.9065L8.28452 4.4392L5.79552 13.7491L8.32352 13.7512L12.0015 0" fill="#3395FF"/>
<path d="M1.047 9.83726L0 13.7512H5.18201L7.302 5.78916L1.047 9.83726ZM19.047 6.39146C18.921 6.86336 18.677 7.20996 18.313 7.43126C17.949 7.65216 17.44 7.76306 16.782 7.76306H14.692L15.426 5.02066H17.516C18.173 5.02066 18.624 5.13066 18.869 5.35496C19.114 5.57926 19.173 5.92206 19.047 6.39606V6.39146ZM21.211 6.33686C21.477 5.34646 21.367 4.58476 20.881 4.05146C20.395 3.52246 19.543 3.25586 18.327 3.25586H13.663L10.855 13.7559H13.121L14.253 9.52366H15.739C16.073 9.52366 16.335 9.57866 16.527 9.68446C16.719 9.79456 16.832 9.98496 16.866 10.2601L17.271 13.7559H19.699L19.305 10.4971C19.225 9.76916 18.893 9.34166 18.309 9.21466C19.053 8.99886 19.677 8.63916 20.179 8.13976C20.678 7.64396 21.035 7.02266 21.211 6.34106V6.33686ZM26.719 9.99766C26.529 10.7087 26.238 11.2462 25.844 11.6228C25.45 11.9995 24.979 12.1857 24.429 12.1857C23.869 12.1857 23.489 12.0037 23.289 11.6355C23.088 11.2673 23.081 10.7341 23.268 10.0358C23.454 9.33746 23.752 8.79146 24.162 8.39786C24.571 8.00426 25.05 7.80746 25.6 7.80746C26.149 7.80746 26.524 7.99796 26.714 8.37586C26.909 8.75556 26.913 9.29846 26.723 10.0053L26.719 9.99766ZM27.713 6.28186L27.429 7.34406C27.306 6.96316 27.069 6.65846 26.717 6.42996C26.365 6.20566 25.929 6.09136 25.41 6.09136C24.772 6.09136 24.16 6.25646 23.573 6.58656C22.986 6.91666 22.471 7.38216 22.032 7.98316C21.593 8.58416 21.272 9.26546 21.065 10.0316C20.862 10.8018 20.82 11.4747 20.943 12.0588C21.069 12.647 21.335 13.0956 21.745 13.4088C22.159 13.7262 22.686 13.8828 23.332 13.8828C23.846 13.8854 24.353 13.7741 24.819 13.557C25.279 13.3489 25.688 13.0427 26.018 12.6597L25.722 13.7669H27.913L29.914 6.28566H27.719L27.713 6.28186ZM37.789 6.28186H31.416L30.971 7.94926H34.679L29.777 12.1942L29.358 13.7601H35.936L36.382 12.0926H32.408L37.386 7.78426L37.789 6.28186ZM43.398 9.98496C43.201 10.7214 42.908 11.275 42.522 11.6355C42.136 11.9995 41.668 12.1815 41.118 12.1815C39.97 12.1815 39.593 11.4493 39.984 9.98496C40.179 9.25706 40.472 8.70976 40.865 8.34116C41.258 7.97126 41.734 7.78676 42.293 7.78676C42.842 7.78676 43.213 7.97006 43.404 8.33906C43.594 8.70726 43.593 9.25616 43.398 9.98416V9.98496ZM44.681 6.56326C44.176 6.24836 43.532 6.09096 42.747 6.09096C41.952 6.09096 41.216 6.24756 40.539 6.56076C39.864 6.87196 39.272 7.33656 38.808 7.91756C38.331 8.50586 37.987 9.19566 37.777 9.98286C37.57 10.7671 37.544 11.4557 37.705 12.0452C37.865 12.6335 38.203 13.0863 38.71 13.3995C39.221 13.7152 39.871 13.8722 40.669 13.8722C41.454 13.8722 42.185 13.714 42.856 13.3991C43.527 13.0825 44.101 12.6331 44.579 12.0406C45.056 11.4506 45.398 10.7624 45.609 9.97526C45.82 9.18806 45.845 8.50076 45.685 7.90996C45.524 7.32166 45.191 6.86886 44.688 6.55356L44.681 6.56326ZM52.504 8.28026L53.065 6.24456C52.875 6.14726 52.626 6.09646 52.314 6.09646C51.811 6.09646 51.33 6.22086 50.865 6.47306C50.466 6.68726 50.127 6.98946 49.839 7.36776L50.131 6.27166L49.494 6.27416H47.932L45.918 13.7525H48.14L49.185 9.84316C49.337 9.27476 49.611 8.82746 50.006 8.51006C50.398 8.19136 50.888 8.03186 51.479 8.03186C51.842 8.03186 52.18 8.11516 52.501 8.28156L52.504 8.28026ZM58.687 10.021C58.497 10.7193 58.21 11.2525 57.817 11.6207C57.424 11.9906 56.951 12.1751 56.402 12.1751C55.854 12.1751 55.478 11.9889 55.279 11.6165C55.077 11.242 55.072 10.7024 55.262 9.99296C55.452 9.28416 55.744 8.74026 56.145 8.36366C56.546 7.98396 57.019 7.79436 57.568 7.79436C58.108 7.79436 58.471 7.98906 58.666 8.38266C58.86 8.77626 58.864 9.32216 58.677 10.0206L58.687 10.021ZM60.231 6.57556C59.819 6.24546 59.294 6.08036 58.656 6.08036C58.098 6.08036 57.565 6.20736 57.06 6.46376C56.556 6.71986 56.146 7.06896 55.832 7.51086L55.839 7.46006L56.212 6.27076H54.042L53.489 8.34036L53.472 8.41226L51.192 16.9376H53.417L54.565 12.6462C54.679 13.0279 54.912 13.3276 55.266 13.5443C55.621 13.7601 56.059 13.8672 56.579 13.8672C57.225 13.8672 57.842 13.7106 58.427 13.3974C59.013 13.0834 59.52 12.6314 59.951 12.0473C60.381 11.4633 60.701 10.7862 60.905 10.0201C61.112 9.25276 61.154 8.56846 61.036 7.96956C60.916 7.36986 60.649 6.90566 60.238 6.57726L60.231 6.57556ZM67.612 9.99046C67.422 10.6973 67.131 11.239 66.738 11.6114C66.345 11.9864 65.872 12.173 65.324 12.173C64.762 12.173 64.382 11.991 64.184 11.6228C63.981 11.2547 63.977 10.7214 64.162 10.0231C64.348 9.32476 64.645 8.77876 65.054 8.38516C65.464 7.99156 65.943 7.79526 66.493 7.79526C67.042 7.79526 67.413 7.98566 67.607 8.36236C67.802 8.74026 67.803 9.28326 67.614 9.99176L67.612 9.99046ZM68.604 6.27246L68.32 7.33476C68.198 6.95176 67.961 6.64706 67.611 6.42066C67.256 6.19466 66.821 6.08206 66.302 6.08206C65.664 6.08206 65.049 6.24706 64.461 6.57726C63.874 6.90736 63.359 7.37036 62.92 7.96956C62.481 8.56886 62.16 9.25196 61.953 10.018C61.748 10.787 61.708 11.4612 61.831 12.0478C61.954 12.6318 62.221 13.0829 62.633 13.3978C63.044 13.711 63.574 13.8693 64.22 13.8693C64.74 13.8693 65.236 13.7609 65.707 13.5434C66.166 13.3344 66.574 13.0278 66.903 12.6449L66.607 13.7529H68.798L70.799 6.27466H68.608L68.604 6.27246ZM79.999 6.27506L80 6.27296H78.653C78.61 6.27296 78.572 6.27506 78.533 6.27586H77.834L77.475 6.77526L77.386 6.89376L77.348 6.95306L74.509 10.9178L73.922 6.27506H71.597L72.774 13.3301L70.174 16.9401H72.492L73.121 16.0459C73.138 16.0197 73.154 15.9976 73.176 15.9697L73.91 14.9244L73.931 14.8947L77.222 10.2182L79.996 6.28226L80 6.27966H79.999V6.27506Z" fill="#072654"/>
</svg>
