<svg width="100" height="100" viewBox="0 0 100 100" fill="none" xmlns="http://www.w3.org/2000/svg">
<g clip-path="url(#clip0_2_4568)">
<path d="M81.1543 87.0967L77.4204 75.8934C76.1156 71.9821 72.7865 69.095 68.7285 68.3563L57.9494 66.395V65.5596C59.8252 64.4708 61.4575 63.0144 62.7575 61.2902H66.014C68.6817 61.2902 70.8527 59.1192 70.8527 56.4515V37.0967C70.8527 25.5354 61.4462 16.1289 49.8849 16.1289C38.3236 16.1289 28.9172 25.5354 28.9172 37.0967V48.387C28.9172 51.4967 31.1285 54.0983 34.0607 54.7047C34.9656 59.3402 37.8623 63.2628 41.8204 65.5596V66.395L31.0398 68.3563C26.9833 69.095 23.6527 71.9821 22.3494 75.8934L21.7043 77.8305L16.2107 72.337C15.5817 71.7079 15.5817 70.6838 16.2107 70.0547L22.5817 63.6854L10.6236 51.7273L3.42364 58.9273C1.29138 61.0596 0.117188 63.895 0.117188 66.9112C0.117188 69.9273 1.29138 72.7612 3.42364 74.8934L25.222 96.6918C27.3543 98.8241 30.1898 99.9999 33.2059 99.9999C36.222 99.9999 39.0559 98.8241 41.1381 96.7402L48.9946 89.5418L46.5446 87.0967H81.1543ZM67.6269 56.4515C67.6269 57.3418 66.9027 58.0644 66.014 58.0644H64.6575C65.1253 56.9983 65.4801 55.8741 65.7091 54.7047C66.3994 54.5612 67.0349 54.287 67.6269 53.9418V56.4515ZM66.014 51.1644V45.6096C66.9736 46.1692 67.6269 47.1983 67.6269 48.387C67.6269 49.5757 66.9736 50.6047 66.014 51.1644ZM33.7559 51.1644C32.7962 50.6047 32.143 49.5757 32.143 48.387C32.143 47.1983 32.7962 46.1692 33.7559 45.6096V51.1644ZM33.7559 40.3225V42.1644C33.1817 42.3144 32.643 42.5402 32.143 42.8321V37.0967C32.143 27.3144 40.1027 19.3547 49.8849 19.3547C59.6672 19.3547 67.6269 27.3144 67.6269 37.0967V42.8321C67.1269 42.5402 66.5882 42.3128 66.014 42.1644V40.3225H64.4011C59.6317 40.3225 55.1478 38.4644 51.7736 35.0918L49.8849 33.2031L47.9962 35.0918C44.622 38.4644 40.1381 40.3225 35.3688 40.3225H33.7559ZM36.9817 51.6128V43.487C41.8252 43.1225 46.3414 41.1241 49.8849 37.7547C53.4285 41.1241 57.9446 43.1241 62.7882 43.487V51.6128C62.7882 53.9644 62.1462 56.1644 61.043 58.0644H49.8849V61.2902H58.3914C56.1172 63.2918 53.1446 64.516 49.8849 64.516C42.7704 64.516 36.9817 58.7273 36.9817 51.6128ZM54.7236 66.9983V67.0741L49.8849 71.9128L45.0462 67.0741V66.9983C46.5752 67.4789 48.1994 67.7418 49.8849 67.7418C51.5704 67.7418 53.1946 67.4789 54.7236 66.9983ZM25.4075 76.9128C26.3382 74.1192 28.7172 72.0563 31.6156 71.5273L42.8898 69.4789L49.8849 76.4741L56.8785 69.4805L68.1511 71.5289C71.0494 72.0579 73.4285 74.1192 74.3591 76.9144L76.6801 83.8708H43.3188L37.0365 77.5886L30.0559 83.9031C29.4478 84.5144 28.3849 84.5144 27.7752 83.9031L24.2527 80.3805L25.4075 76.9128ZM10.622 56.2886L18.0188 63.6854L16.2672 65.437L8.87041 58.0402L10.622 56.2886ZM38.9043 94.4144C37.3817 95.9338 35.3559 96.7741 33.2027 96.7741C31.0494 96.7741 29.0236 95.9338 27.4994 94.4112L5.70106 72.6144C4.17848 71.0918 3.33977 69.066 3.33977 66.9128C3.33977 64.7579 4.17848 62.7321 5.70106 61.2096L6.58815 60.3225L13.9849 67.7192L13.9269 67.7773C12.0414 69.6644 12.0414 72.7338 13.9269 74.6208L25.493 86.187C26.4075 87.0999 27.622 87.6047 28.9156 87.6047C30.2091 87.6047 31.4236 87.1015 32.2785 86.2434L32.3994 86.1354L39.8301 93.566L38.9043 94.4144ZM42.2107 91.3821L34.7962 83.9676L36.9269 82.0418L44.3285 89.4434L42.2107 91.3821Z" fill="white"/>
<path d="M95.0463 0H72.4657C69.7979 0 67.627 2.17097 67.627 4.83871V17.7419C67.627 20.4097 69.7979 22.5806 72.4657 22.5806H76.7737L75.106 32.3081L90.6705 22.5806H95.0463C97.7141 22.5806 99.885 20.4097 99.885 17.7419V4.83871C99.885 2.17097 97.7141 0 95.0463 0ZM96.6592 17.7419C96.6592 18.6306 95.935 19.3548 95.0463 19.3548H89.7447L79.5011 25.7564L80.5995 19.3548H72.4657C71.577 19.3548 70.8528 18.6306 70.8528 17.7419V4.83871C70.8528 3.95 71.577 3.22581 72.4657 3.22581H95.0463C95.935 3.22581 96.6592 3.95 96.6592 4.83871V17.7419Z" fill="white"/>
<path d="M93.433 6.45117H74.0781V9.67698H93.433V6.45117Z" fill="white"/>
<path d="M86.9813 12.9028H74.0781V16.1286H86.9813V12.9028Z" fill="white"/>
<path d="M93.4309 12.9028H90.2051V16.1286H93.4309V12.9028Z" fill="white"/>
<path d="M49.8865 4.83887C28.8123 4.83887 10.6591 19.4163 5.93977 39.7502L2.88332 34.655L0.117188 36.3147L5.78654 45.7614L15.2333 40.0921L13.5736 37.326L9.20267 39.9485C13.7736 21.3469 30.5011 8.06467 49.8865 8.06467C54.1236 8.06467 58.3043 8.69371 62.3123 9.93564L63.2672 6.855C58.9494 5.51629 54.4478 4.83887 49.8865 4.83887Z" fill="white"/>
<path d="M99.0987 35.7133L89.6519 30.0439L83.9842 39.4923L86.7503 41.152L89.5729 36.4472C91.0584 40.7939 91.8181 45.3407 91.8181 50.0004C91.8181 59.5923 88.4955 68.9698 82.4648 76.4036L84.9697 78.4359C91.4665 70.4294 95.0439 60.3294 95.0439 50.0004C95.0439 45.0665 94.2487 40.2488 92.6987 35.6359L97.439 38.4794L99.0987 35.7133Z" fill="white"/>
</g>
<defs>
<clipPath id="clip0_2_4568">
<rect width="100" height="100" fill="white"/>
</clipPath>
</defs>
</svg>
