<svg width="195" height="74" viewBox="0 0 195 74" fill="none" xmlns="http://www.w3.org/2000/svg">
<rect x="1.50146" y="1.5" width="191" height="71" rx="35.5" stroke="white" stroke-width="3"/>
<circle cx="157.001" cy="37" r="34.5" stroke="white" stroke-width="5"/>
<path d="M93.5445 39.9572L78.5344 54.775C77.707 55.5917 76.6229 56 75.5386 56C74.4544 56 73.3702 55.5917 72.5429 54.775C70.8885 53.1417 70.8885 50.4937 72.5429 48.8605L80.321 41.1822H31.238C28.8982 41.1822 27.0015 39.3097 27.0015 37C27.0015 34.6902 28.8982 32.8178 31.238 32.8178H80.321L72.5429 25.1395C70.8885 23.5062 70.8885 20.8582 72.5429 19.225C74.1975 17.5917 76.8797 17.5917 78.5344 19.225L93.5445 34.0428C95.1988 35.6759 95.1988 38.324 93.5445 39.9572Z" fill="white"/>
</svg>
