<svg height="2000" viewBox="0 0 2500 2000" width="2500" xmlns="http://www.w3.org/2000/svg" xmlns:xlink="http://www.w3.org/1999/xlink"><linearGradient id="a" gradientUnits="userSpaceOnUse" x1="2108.561" x2="1618.627" y1="460.27" y2="1119.294"><stop offset=".03" stop-color="#fff9e9"/><stop offset=".184" stop-color="#f7f4e9"/><stop offset=".416" stop-color="#e2e8ea"/><stop offset=".699" stop-color="#c0d5eb"/><stop offset="1" stop-color="#94bded"/></linearGradient><linearGradient id="b" gradientUnits="userSpaceOnUse" x1="1717.132" x2="2004.784" y1="638.614" y2="910.722"><stop offset=".064" stop-color="#94bded"/><stop offset=".183" stop-color="#91bbea"/><stop offset=".269" stop-color="#87b6e3"/><stop offset=".346" stop-color="#77aed6"/><stop offset=".416" stop-color="#61a2c4"/><stop offset=".483" stop-color="#4493ad"/><stop offset=".546" stop-color="#218092"/><stop offset=".554" stop-color="#1c7e8e"/></linearGradient><linearGradient id="c" gradientUnits="userSpaceOnUse" x1="1775.326" x2="1749.527" y1="458.293" y2="718.825"><stop offset=".223" stop-color="#1c7e8e"/><stop offset=".234" stop-color="#368ca3"/><stop offset=".249" stop-color="#539bba"/><stop offset=".265" stop-color="#6ba7cc"/><stop offset=".284" stop-color="#7db1db"/><stop offset=".306" stop-color="#8ab7e5"/><stop offset=".336" stop-color="#91bbeb"/><stop offset=".399" stop-color="#94bded"/><stop offset=".433" stop-color="#91bbea"/><stop offset=".459" stop-color="#87b6e3"/><stop offset=".481" stop-color="#77aed6"/><stop offset=".502" stop-color="#60a2c4"/><stop offset=".522" stop-color="#4392ad"/><stop offset=".54" stop-color="#208091"/><stop offset=".543" stop-color="#1c7e8e"/></linearGradient><linearGradient id="d" gradientUnits="userSpaceOnUse" x1="725.661" x2="1279.973" y1="543.678" y2="890.434"><stop offset=".659" stop-color="#1c7e8e"/><stop offset=".723" stop-color="#1f7285"/><stop offset=".837" stop-color="#275370"/><stop offset=".941" stop-color="#313259"/></linearGradient><linearGradient id="e" gradientUnits="userSpaceOnUse" x1="1094.109" x2="481.38" y1="357.806" y2="834.91"><stop offset=".331" stop-color="#94bded"/><stop offset=".383" stop-color="#90bae9"/><stop offset=".433" stop-color="#84b4e0"/><stop offset=".483" stop-color="#70aad1"/><stop offset=".532" stop-color="#559cbb"/><stop offset=".581" stop-color="#3289a0"/><stop offset=".607" stop-color="#1c7e8e"/></linearGradient><linearGradient id="f" gradientUnits="userSpaceOnUse" x1="1244.559" x2="570.6" y1="770.979" y2="890.192"><stop offset=".254" stop-color="#fff9e9"/><stop offset=".357" stop-color="#fff6e6"/><stop offset=".429" stop-color="#fed"/><stop offset=".491" stop-color="#ffdfcd"/><stop offset=".548" stop-color="#ffcbb7"/><stop offset=".601" stop-color="#ffb19b"/><stop offset=".651" stop-color="#ff9178"/><stop offset=".698" stop-color="#ff6c50"/><stop offset=".72" stop-color="#ff593b"/></linearGradient><linearGradient id="g" gradientUnits="userSpaceOnUse" x1="973.588" x2="1287.932" y1="299.345" y2="861.054"><stop offset=".527" stop-color="#fff9e9"/><stop offset=".569" stop-color="#fff6e6"/><stop offset=".599" stop-color="#fed"/><stop offset=".625" stop-color="#ffdfcd"/><stop offset=".649" stop-color="#ffcbb7"/><stop offset=".671" stop-color="#ffb19b"/><stop offset=".692" stop-color="#ff9178"/><stop offset=".711" stop-color="#ff6c50"/><stop offset=".72" stop-color="#ff593b"/></linearGradient><linearGradient id="h" gradientUnits="userSpaceOnUse" x1="1324.812" x2="1634.267" y1="260.439" y2="600.389"><stop offset="0" stop-color="#fff9e9"/><stop offset=".162" stop-color="#d7e2ea"/><stop offset=".338" stop-color="#b2ceeb"/><stop offset=".48" stop-color="#9cc1ec"/><stop offset=".571" stop-color="#94bded"/></linearGradient><linearGradient id="i" gradientUnits="userSpaceOnUse" x1="1028.784" x2="574.089" y1="1060.122" y2="1424.737"><stop offset=".438" stop-color="#fff9e9"/><stop offset=".477" stop-color="#fff0df"/><stop offset=".541" stop-color="#ffd9c7"/><stop offset=".623" stop-color="#ffb49e"/><stop offset=".718" stop-color="#ff8167"/><stop offset=".786" stop-color="#ff593b"/></linearGradient><linearGradient id="j" gradientUnits="userSpaceOnUse" x1="507.619" x2="661.301" y1="536.244" y2="1157.032"><stop offset=".127" stop-color="#fff9e9"/><stop offset=".367" stop-color="#fcf7e9"/><stop offset=".514" stop-color="#f3f2e9"/><stop offset=".636" stop-color="#e5eae9"/><stop offset=".745" stop-color="#d1dfea"/><stop offset=".843" stop-color="#b6d0eb"/><stop offset=".935" stop-color="#96beec"/><stop offset=".942" stop-color="#94bded"/></linearGradient><linearGradient id="k" gradientUnits="userSpaceOnUse" x1="1703.262" x2="1263.885" y1="821.427" y2="1336.251"><stop offset=".069" stop-color="#c7e2cd"/><stop offset=".209" stop-color="#c4dfcb"/><stop offset=".311" stop-color="#bcd5c4"/><stop offset=".401" stop-color="#aec5ba"/><stop offset=".484" stop-color="#9bafab"/><stop offset=".562" stop-color="#839298"/><stop offset=".637" stop-color="#646e80"/><stop offset=".708" stop-color="#414565"/><stop offset=".737" stop-color="#313259"/></linearGradient><linearGradient id="l" gradientUnits="userSpaceOnUse" x1="605.006" x2="1180.877" y1="1211.756" y2="964.03"><stop offset=".355" stop-color="#c7e2cd"/><stop offset=".391" stop-color="#c3deca"/><stop offset=".427" stop-color="#b9d2c2"/><stop offset=".463" stop-color="#a8beb5"/><stop offset=".499" stop-color="#90a2a2"/><stop offset=".535" stop-color="#717e8b"/><stop offset=".57" stop-color="#4c526e"/><stop offset=".593" stop-color="#313259"/></linearGradient><linearGradient id="m" gradientUnits="userSpaceOnUse" x1="983.62" x2="1421.567" y1="1034.554" y2="616.868"><stop offset=".282" stop-color="#71dba3"/><stop offset=".327" stop-color="#73cdb3"/><stop offset=".414" stop-color="#78b7cd"/><stop offset=".492" stop-color="#7baadd"/><stop offset=".553" stop-color="#7ca6e3"/><stop offset=".661" stop-color="#77bbc8"/><stop offset=".777" stop-color="#73cdb3"/><stop offset=".891" stop-color="#71d7a7"/><stop offset="1" stop-color="#71dba3"/></linearGradient><clipPath id="n"><path d="m1284.403 688.092s46.245 11.052 69.18-19.375c22.936-30.427 27.133-63.352 3.032-70.805-25.897-8.008-41.541 16.23-60.996 16.23-31.57 0-62.908-6.838-89.532 11.236-32.171 21.84-46.713 63.021-38.345 89.353 14.228 44.771 20.009 63.219-12.693 80.21-32.702 16.992-87.818 12.58-91.642 54.119-3.824 41.54 29.67 94.537 80.405 89.502s67.334-40.542 111.793-22.424 105.423-19.499 93.919-65.321-52.636-82.036-55.247-104.968-14.299-30.223-14.299-30.223l4.423-27.536z"/></clipPath><linearGradient id="o" gradientUnits="userSpaceOnUse" x1="1252.11" x2="1295.091" y1="585.29" y2="747.085"><stop offset=".502" stop-color="#ff593b"/><stop offset=".551" stop-color="#fb583b"/><stop offset=".598" stop-color="#ef563d"/><stop offset=".643" stop-color="#dc5240"/><stop offset=".689" stop-color="#c14d43"/><stop offset=".733" stop-color="#9e4649"/><stop offset=".778" stop-color="#743e4f"/><stop offset=".821" stop-color="#423556"/><stop offset=".835" stop-color="#313259"/></linearGradient><linearGradient id="p" gradientTransform="matrix(-1 -0 -0 1 8587.502 0)" gradientUnits="userSpaceOnUse" x1="7339.242" x2="7272.338" y1="730.346" y2="685.069"><stop offset=".355" stop-color="#ffb4a5"/><stop offset=".413" stop-color="#fcb2a4"/><stop offset=".441" stop-color="#f5ada1"/><stop offset=".463" stop-color="#e8a59c"/><stop offset=".481" stop-color="#d59995"/><stop offset=".497" stop-color="#bd8a8c"/><stop offset=".512" stop-color="#a07881"/><stop offset=".526" stop-color="#7c6174"/><stop offset=".538" stop-color="#554866"/><stop offset=".547" stop-color="#313259"/></linearGradient><linearGradient id="q" gradientUnits="userSpaceOnUse" x1="2047.436" x2="1506.926" y1="1303.559" y2="1738.307"><stop offset=".297" stop-color="#fff9e9"/><stop offset=".439" stop-color="#fbf6e9"/><stop offset=".574" stop-color="#eff0e9"/><stop offset=".706" stop-color="#dce5ea"/><stop offset=".835" stop-color="#c1d6eb"/><stop offset=".962" stop-color="#9fc3ec"/><stop offset="1" stop-color="#94bded"/></linearGradient><rect fill="url(#a)" height="420.14" rx="20" width="634.728" x="1631.352" y="465.211"/><rect fill="none" height="55.906" rx="10" stroke="#fff9e9" stroke-linecap="round" stroke-linejoin="round" stroke-width="10" width="314.767" x="1676.858" y="628.46"/><rect fill="url(#b)" height="55.906" rx="10" width="314.767" x="1678.223" y="722.733"/><path d="m2185.622 550.748h19.179c4.915 0 8.9 3.985 8.9 8.9v19.179" fill="none" stroke="#ff593b" stroke-linecap="round" stroke-linejoin="round" stroke-width="10"/><path d="m2160.894 550.748h-19.179c-4.915 0-8.9 3.985-8.9 8.9v19.179" fill="none" stroke="#ff593b" stroke-linecap="round" stroke-linejoin="round" stroke-width="10"/><path d="m2213.702 603.556v19.179c0 4.915-3.985 8.9-8.9 8.9h-19.179" fill="none" stroke="#ff593b" stroke-linecap="round" stroke-linejoin="round" stroke-width="10"/><path d="m2160.894 631.635h-19.179c-4.915 0-8.9-3.985-8.9-8.9v-19.179" fill="none" stroke="#ff593b" stroke-linecap="round" stroke-linejoin="round" stroke-width="10"/><rect fill="#fff9e9" height="55.906" rx="10" width="314.767" x="1678.223" y="531.458"/><rect fill="url(#c)" height="55.906" rx="27.953" width="99.428" x="1715.598" y="531.458"/><path d="m983.14 651.199 323.78 44.2c-.77 5.46-1.67 10.89-2.71 16.28-24.22 125.63-121.53 231.65-253.7 259.48-175.53 36.95-350.37-77.08-387.33-252.6-36.95-175.53 77.08-350.37 252.6-387.32z" fill="url(#d)"/><path d="m983.144 651.195-67.362-319.961c-175.525 36.954-289.552 211.798-252.598 387.323 8.65 41.087 24.858 78.804 46.859 112.004l273.102-179.366z" fill="url(#e)"/><path d="m1050.506 971.155c49.305-10.38 93.756-31.643 131.373-60.742l-198.735-259.218-273.102 179.366c71.989 108.631 206.026 168.898 340.464 140.594z" fill="url(#f)"/><path d="m1303.104 583.832c-10.749-51.057-33.565-98.807-66.534-139.247l-253.426 206.61 322.076 54.928c6.909-39.526 6.601-80.888-2.115-122.29z" fill="url(#g)"/><rect fill="url(#h)" height="48.282" rx="10" width="234.658" x="1310.118" y="349.047"/><path d="m1280.38 373.188h-139.65l-65.301 65.301" fill="none" stroke="#94bded" stroke-linecap="round" stroke-linejoin="round" stroke-width="10"/><rect fill="url(#i)" height="145.694" rx="10" width="145.694" x="682.213" y="1206.772"/><rect fill="#fff9e9" height="145.694" rx="10" width="145.694" x="617.836" y="1265.104"/><rect fill="none" height="145.694" rx="10" stroke="#94bded" stroke-linecap="round" stroke-linejoin="round" stroke-width="10" width="145.694" x="553.46" y="1323.436"/><rect fill="url(#j)" height="431.957" rx="20" width="639.528" x="236.92" y="518.458"/><circle cx="276.449" cy="550.082" fill="#ff593b" r="11.671"/><circle cx="313.484" cy="550.082" fill="#f4d240" r="11.671"/><circle cx="350.518" cy="550.082" fill="#1c7e8e" r="11.671"/><circle cx="336.308" cy="854.686" fill="none" r="17.506" stroke="#94bded" stroke-linecap="round" stroke-linejoin="round" stroke-width="10"/><path d="m379.225 843.449h216.552v22.475h-216.552z" fill="none" stroke="#94bded" stroke-linecap="round" stroke-linejoin="round" stroke-width="10"/><circle cx="336.308" cy="904.614" fill="none" r="17.506" stroke="#94bded" stroke-linecap="round" stroke-linejoin="round" stroke-width="10"/><path d="m379.225 893.376h216.552v22.475h-216.552z" fill="none" stroke="#94bded" stroke-linecap="round" stroke-linejoin="round" stroke-width="10"/><rect fill="#94bded" height="62.118" rx="20" width="506.54" x="307.508" y="752.246"/><path d="m307.508 729.375s18.165-3.013 31.34-64.659c14.966-70.023 63.531-80.753 83.295 7.341 17.679 78.796 53.782 35.295 65.359-2.827 11.1-36.554 47.018-60.144 66.218 10.733 17.027 62.855 66.709 41.223 79.623-24.282 12.841-65.134 67.2-70.588 85.553 5.082 16.44 67.785 96.282 60.988 95.153-2.541" fill="none" stroke="#1c7e8e" stroke-linecap="round" stroke-linejoin="round" stroke-width="6"/><circle cx="674.641" cy="610.872" fill="#ff593b" r="16.042"/><g fill="#ffaba0"><path d="m2166.102 712.162c6.68-3.135 22.679.388 21.925 20.853s-41.446 35.227-65.872 40.537c-24.426 5.309-35.535-24.086 43.947-61.389z"/><path d="m2164.076 670.427c6.354-3.752 22.614-1.756 23.797 18.688 1.182 20.445-37.933 38.985-61.748 46.578s-37.651-20.622 37.951-65.266z"/><path d="m2154.869 628.701c6.842-4.173 24.394-1.879 25.747 20.993s-40.781 43.461-66.448 51.863-40.702-23.207 40.701-72.856z"/><rect height="42" rx="21" transform="matrix(.79041168 -.61257602 .61257602 .79041168 63.021 1432.422)" width="145.64" x="2051.995" y="603.115"/><path d="m2117.951 625.47c-.61-14.63-13.985-34.368-54.715-20.82-32.853 10.928-64.288 41.482-72.864 60.305s129.978 18.013 127.579-39.485z"/><path d="m2067.4 628.635c-47.819 0-84.978 43.693-112.366 71.093-17.914 17.922-38.148 38.174-38.148 65.018 0 34.689 28.121 62.811 62.811 62.811 7.36 0 14.42-1.278 20.983-3.604 0 0 117.408-42.512 144.259-59.204 26.851-16.693-8.134-136.114-77.538-136.114z"/></g><path d="m2110.716 608.473-44.529 33.576" fill="none" stroke="#313259" stroke-linecap="round" stroke-linejoin="round" stroke-width="5"/><path d="m2154.869 628.701-36.887 29.051" fill="none" stroke="#313259" stroke-linecap="round" stroke-linejoin="round" stroke-width="5"/><path d="m2172.175 668.888-33.46 26.888" fill="none" stroke="#313259" stroke-linecap="round" stroke-linejoin="round" stroke-width="5"/><path d="m2174.331 711.494-31.721 20.799" fill="none" stroke="#313259" stroke-linecap="round" stroke-linejoin="round" stroke-width="5"/><path d="m2074.025 636.138h-17.627" fill="none" stroke="#313259" stroke-linecap="round" stroke-linejoin="round" stroke-width="5"/><path d="m1983.726 891.829-73.14-178.331s-428.964 86.539-480.909 97.161c-58.047 11.869-104.728 41.087-124.73 86.064-2.672 6.007-11.917 26.185-10.548 51.513 3.666 67.828 79.516 112.908 107.18 129.35 105.189 62.518 333.136-17.504 582.146-185.756z" fill="url(#k)"/><rect fill="#fff9e9" height="66.446" rx="10" transform="matrix(-.36820569 -.92974436 .92974436 -.36820569 1955.134 2913.032)" width="222.595" x="1856.03" y="758.997"/><path d="m1954.56 851.739 63.769-22.774" fill="none" stroke="#313259" stroke-linecap="round" stroke-linejoin="round" stroke-width="5"/><rect fill="#ffaba0" height="42" rx="21" transform="matrix(.70710678 .70710678 -.70710678 .70710678 762.177 -160.152)" width="145.64" x="501.589" y="818.953"/><rect fill="#ffaba0" height="42" rx="21" transform="matrix(.74037066 .67219884 -.67219884 .74037066 717.615 -138.855)" width="145.64" x="465.739" y="838.548"/><rect fill="#ffaba0" height="41" rx="19.5" transform="matrix(.83690764 .54734414 -.54734414 .83690764 575.735 -136.03)" width="131" x="450.626" y="877.572"/><rect fill="#ffaba0" height="39" rx="19" transform="matrix(.8660254 .5 -.5 .8660254 535.015 -126.784)" width="115" x="446.589" y="915.459"/><path d="m616.026 807.615.907-.421c9.516-4.423 19.38-1.226 25.238 9.222 6.594 11.76 21.292 29.212 32.312 48.185 4.683 8.063 12.773 38.853-9.08 46.88l-.907.421c-9.516 4.423-20.815.294-25.238-9.222l-32.454-69.827c-4.423-9.516-.294-20.815 9.222-25.238z" fill="#ffaba0"/><path d="m527.101 971.247c29.252 33.51 53.836 56.974 94.148 65.352s69.386-50.703 74.791-78.86c1.976-10.298.968-61.795-24.783-97.783-22.707-31.733-91.807 8.566-121.3 41.218-29.494 32.652-37.491 53.306-22.855 70.073z" fill="#ffaba0"/><path d="m615.961 852.554 8.064 11.786" fill="none" stroke="#313259" stroke-linecap="round" stroke-linejoin="round" stroke-width="5"/><path d="m519.749 814.105 60.224 56.042" fill="none" stroke="#313259" stroke-linecap="round" stroke-linejoin="round" stroke-width="5"/><path d="m483.17 900.416 45.774 27.177" fill="none" stroke="#313259" stroke-linecap="round" stroke-linejoin="round" stroke-width="5"/><path d="m907.789 1047.022c-38.184-27.267-156.194-108.556-156.194-108.556l-131.167 149.279c133.01 155.068 239.48 189.613 281.501 192.168 60.423 3.673 90.383-25.498 90.383-88.326s-43.299-115.126-84.523-144.564z" fill="url(#l)"/><path d="m1122.506 829.683c-24.968-17.626-100.611 1.816-149.879 59.605-56.396 66.151-90.532 108.986-120.486 169.971-52.542 106.975-62.067 181.525-7.323 205.49s162.856 38.844 234.924-86.885c25.86-45.115 115.183-297.059 42.764-348.182z" fill="#c7e2cd"/><rect fill="#fff9e9" height="66.446" rx="10" transform="matrix(.67219884 -.74037066 .74037066 .67219884 -518.443 823.4)" width="222.595" x="559.347" y="963.956"/><path d="m611.593 1011.957 48.554 47.198" fill="none" stroke="#313259" stroke-linecap="round" stroke-linejoin="round" stroke-width="5"/><path d="m1444.214 1171.667c47.769 64.795 48.076 115.045 88.194 290.992 20.243 88.778 39.401 160.352 52.163 206.107h-262.471s-46.519-274.471-46.519-274.471l-29.043-.662-7.969 275.132h-246.258c3.217-70.574 8.099-132.943 12.487-178.01 11.626-119.406 23.535-175.731 29.658-202.537 14.285-62.531 21.428-93.796 37.417-119.876 4.346-7.09 72.517-114.569 184.08-114.545 101.38.022 166.832 88.803 188.26 117.869z" fill="#313259"/><path d="m1299.318 1394.88-74.613-1.75" fill="none" stroke="#fff9e9" stroke-linecap="round" stroke-linejoin="round" stroke-width="5"/><path d="m1464.116 1182.463c23.176-35.451 26.77-75.013 22.634-153.17-4.998-94.45-25.793-170.631-43.326-221.417-44.295 3.542-88.976 3.53-132.943 10.034-45.216 6.689-195.425-22.73-262.122 16.304-13.728 69.244-47.917 310.243 6.782 368.152 28.945 30.644 358.917 56.668 408.976-19.902z" fill="#ff593b"/><path d="m1331.072 637.121s38.398 1.044 40.862 52.476.559 89.102-36.991 91.403-89.191-41.853-87.317-94.414 83.445-49.465 83.445-49.465z" fill="#ffb4a5"/><path d="m1351.504 752.396s-11.269-1.376-20.216-10.323" fill="none" stroke="#313259" stroke-linecap="round" stroke-linejoin="round" stroke-width="5"/><path d="m1284.403 688.092s46.245 11.052 69.18-19.375c22.936-30.427 27.133-63.352 3.032-70.805-25.897-8.008-41.541 16.23-60.996 16.23-31.57 0-62.908-6.838-89.532 11.236-32.171 21.84-46.713 63.021-38.345 89.353 14.228 44.771 20.009 63.219-12.693 80.21-32.702 16.992-87.818 12.58-91.642 54.119-3.824 41.54 29.67 94.537 80.405 89.502s67.334-40.542 111.793-22.424 105.423-19.499 93.919-65.321-52.636-82.036-55.247-104.968-14.299-30.223-14.299-30.223l4.423-27.536z" fill="url(#m)"/><g style="clip-path:url(#n);stroke-linecap:round;stroke-linejoin:round;fill:none;stroke-width:5;stroke:#1c7e8e"><path d="m1324.61 601.717s12.262 64.774-40.289 54.545"/><path d="m1351.728 595.984s12.652 33.216-10.382 56.25-58.419 16.271-58.419 16.271"/><path d="m1252.245 632.244s-30.218 1.624-44.473 26.033c-23.114 39.578 3.869 60.542 9.666 84.024 8.203 33.226-3.453 59.966-70.837 54.476"/><path d="m1255.954 650.182s-34.999 10.141-16.674 67.208 13.241 104.466-24.841 119.613-94.843 3.887-115.342 36.065c-20.499 32.179 2.198 59.883 2.198 59.883"/><path d="m1272.289 728.199s24.849 68.59-13.546 101.461-74.614 36.902-81.934 66.592c-7.266 29.471 33.285 25.029 33.285 25.029"/><path d="m1288.076 728.199s42.16 96.958 14.46 133.976c-38.311 51.2-71.214 53.082-71.214 53.082"/></g><rect fill="#ffb4a5" height="24.104" rx="12.052" width="47.812" x="1338.69" y="708.058"/><path d="m1282.826 703.729c4.47-15.044 10.851-48.757-4.152-90.084-.48-1.323-1.751-2.199-3.159-2.199h-31.776c-2.388 0-4.015 2.421-3.113 4.632l35.866 87.948c1.198 2.937 5.43 2.743 6.333-.297z" fill="url(#o)"/><circle cx="1276.39" cy="711.362" fill="#ffb4a5" r="26.146"/><path d="m1269.149 699.896 21.479 18.089-18.339 10.214z" fill="url(#p)"/><rect fill="#7ca6e3" height="49.134" rx="13.78" width="651.317" x="1294.399" y="1619.633"/><path d="m1562.371 1668.766h39.158c8.172 0 15.443-5.188 18.101-12.916l114.454-332.731c4.275-12.428-4.959-25.369-18.101-25.369h-39.158c-8.172 0-15.443 5.188-18.101 12.916l-114.454 332.731c-4.275 12.428 4.959 25.369 18.101 25.369z" fill="#7ca6e3"/><path d="m1574.701 1668.766h357.357c8.172 0 15.443-5.188 18.101-12.916l114.454-332.731c4.275-12.428-4.959-25.369-18.101-25.369h-330.529c-8.172 0-15.443 5.188-18.101 12.916l-123.18 358.1z" fill="url(#q)"/><path d="m2263.08 1668.766h-2026.16" fill="none" stroke="#313259" stroke-linecap="round" stroke-linejoin="round" stroke-width="10"/></svg>