<svg width="80" height="80" viewBox="0 0 80 80" fill="none" xmlns="http://www.w3.org/2000/svg">
<rect width="80" height="80" rx="8" fill="#FFEBE8"/>
<path d="M53.9688 49.2438C53.4462 48.7194 52.8253 48.3034 52.1415 48.0194C51.4578 47.7355 50.7248 47.5894 49.9844 47.5894C49.2441 47.5894 48.5111 47.7355 47.8273 48.0194C47.1436 48.3034 46.5226 48.7194 46.0001 49.2438L43.2813 51.9626C40.2202 50.0198 37.3841 47.7434 34.8251 45.1751C32.2622 42.6112 29.9863 39.7757 28.0376 36.7188L30.7563 34.0001C31.2807 33.4775 31.6968 32.8565 31.9807 32.1728C32.2646 31.4891 32.4107 30.756 32.4107 30.0157C32.4107 29.2754 32.2646 28.5423 31.9807 27.8586C31.6968 27.1749 31.2807 26.5539 30.7563 26.0313L25.4501 20.7438C24.9349 20.2177 24.3191 19.8005 23.6395 19.5171C22.9599 19.2336 22.2302 19.0897 21.4938 19.0938C20.7522 19.092 20.0176 19.2369 19.3322 19.52C18.6468 19.8032 18.0241 20.2191 17.5001 20.7438L14.9501 23.2751C13.7346 24.5819 12.8275 26.1445 12.2954 27.848C11.7632 29.5515 11.6196 31.3525 11.8751 33.1188C12.4751 40.1501 17.0876 48.6063 24.1938 55.7313C31.3001 62.8563 39.8501 67.4501 46.8813 68.1251C47.4059 68.1531 47.9317 68.1531 48.4563 68.1251C49.9699 68.1886 51.4809 67.9494 52.9007 67.4213C54.3206 66.8933 55.6208 66.0871 56.7251 65.0501L59.2563 62.5001C59.781 61.976 60.1969 61.3534 60.4801 60.668C60.7633 59.9826 60.9081 59.2479 60.9063 58.5063C60.9105 57.77 60.7665 57.0403 60.4831 56.3606C60.1996 55.681 59.7825 55.0653 59.2563 54.5501L53.9688 49.2438ZM56.6126 59.8563L54.0626 62.3876C53.1197 63.1734 52.0191 63.7474 50.8351 64.0709C49.6511 64.3944 48.4115 64.4598 47.2001 64.2626C41.1063 63.7376 33.3438 59.4251 26.9313 53.0126C20.5188 46.6001 16.2063 38.8938 15.6251 32.8001C15.4229 31.5887 15.4858 30.3478 15.8095 29.1631C16.1332 27.9783 16.71 26.8779 17.5001 25.9376L20.1438 23.3876C20.319 23.2138 20.5268 23.0763 20.7552 22.983C20.9837 22.8897 21.2283 22.8424 21.4751 22.8438C21.7218 22.8424 21.9664 22.8897 22.1949 22.983C22.4233 23.0763 22.6311 23.2138 22.8063 23.3876L28.1126 28.7501C28.4618 29.1014 28.6578 29.5766 28.6578 30.072C28.6578 30.5673 28.4618 31.0425 28.1126 31.3938L24.3626 35.1438C24.0691 35.4358 23.8806 35.8167 23.8263 36.2271C23.772 36.6375 23.8551 37.0544 24.0626 37.4126C26.3077 41.2347 29.0364 44.7512 32.1813 47.8751C35.3052 51.02 38.8217 53.7487 42.6438 55.9938C43.002 56.2013 43.4189 56.2844 43.8293 56.2301C44.2397 56.1758 44.6206 55.9873 44.9126 55.6938L48.6626 51.9438C49.0139 51.5946 49.4891 51.3986 49.9844 51.3986C50.4798 51.3986 50.955 51.5946 51.3063 51.9438L56.6126 57.2501C56.7863 57.4253 56.9238 57.6331 57.0171 57.8615C57.1104 58.09 57.1577 58.3346 57.1563 58.5813C57.1446 59.0602 56.95 59.5164 56.6126 59.8563Z" fill="#EA6249"/>
<path d="M59.875 20.1063C57.2692 17.4906 54.1715 15.4166 50.7603 14.0039C47.3492 12.5912 43.6921 11.8676 40 11.8751C39.5027 11.8751 39.0258 12.0726 38.6742 12.4242C38.3225 12.7759 38.125 13.2528 38.125 13.7501C38.125 14.2473 38.3225 14.7243 38.6742 15.0759C39.0258 15.4275 39.5027 15.6251 40 15.6251C43.2184 15.6249 46.405 16.2622 49.3758 17.5C52.3466 18.7379 55.0429 20.5518 57.3091 22.8371C59.5752 25.1224 61.3663 27.8339 62.5791 30.8151C63.7919 33.7962 64.4022 36.988 64.375 40.2063C64.375 40.7036 64.5725 41.1805 64.9242 41.5321C65.2758 41.8838 65.7527 42.0813 66.25 42.0813C66.7473 42.0813 67.2242 41.8838 67.5758 41.5321C67.9275 41.1805 68.125 40.7036 68.125 40.2063C68.1609 36.4749 67.4495 32.7741 66.0326 29.3221C64.6157 25.87 62.522 22.7365 59.875 20.1063Z" fill="#EA6249"/>
<path d="M49.2063 30.8313C50.2704 31.889 51.1121 33.1488 51.6821 34.5367C52.252 35.9245 52.5386 37.4123 52.525 38.9126C52.525 39.4099 52.7225 39.8868 53.0742 40.2384C53.4258 40.5901 53.9027 40.7876 54.4 40.7876C54.8973 40.7876 55.3742 40.5901 55.7258 40.2384C56.0775 39.8868 56.275 39.4099 56.275 38.9126C56.2998 36.9271 55.9302 34.9563 55.1875 33.1148C54.4448 31.2732 53.3438 29.5974 51.9485 28.1846C50.5531 26.7718 48.8911 25.6501 47.0589 24.8846C45.2267 24.1191 43.2607 23.7249 41.275 23.7251C40.7777 23.7251 40.3008 23.9226 39.9492 24.2743C39.5976 24.6259 39.4 25.1028 39.4 25.6001C39.4 26.0974 39.5976 26.5743 39.9492 26.9259C40.3008 27.2776 40.7777 27.4751 41.275 27.4751C42.7527 27.4862 44.2137 27.7884 45.5745 28.3642C46.9354 28.9401 48.1695 29.7784 49.2063 30.8313Z" fill="#EA6249"/>
</svg>
