<svg width="80" height="80" viewBox="0 0 80 80" fill="none" xmlns="http://www.w3.org/2000/svg">
<rect width="80" height="80" rx="8" fill="#FFEBE8"/>
<path d="M46.6778 46.4285C50.9343 39.7494 50.3992 40.5827 50.5219 40.4085C52.0716 38.2227 52.8906 35.6502 52.8906 32.9688C52.8906 25.8578 47.1202 20 40 20C32.903 20 27.1094 25.8463 27.1094 32.9688C27.1094 35.6484 27.9456 38.2884 29.5461 40.5036L33.322 46.4286C29.2849 47.049 22.4219 48.8978 22.4219 52.9688C22.4219 54.4527 23.3905 56.5676 28.0048 58.2155C31.2269 59.3662 35.4868 60 40 60C48.4395 60 57.5781 57.6194 57.5781 52.9688C57.5781 48.8971 50.7231 47.0502 46.6778 46.4285ZM31.5038 39.2145C31.4909 39.1943 31.4775 39.1746 31.4634 39.1552C30.1316 37.323 29.4531 35.1516 29.4531 32.9688C29.4531 27.108 34.1723 22.3438 40 22.3438C45.8155 22.3438 50.5469 27.1101 50.5469 32.9688C50.5469 35.1552 49.8812 37.2529 48.6214 39.0368C48.5085 39.1857 49.0975 38.2707 40 52.546L31.5038 39.2145ZM40 57.6562C30.7817 57.6562 24.7656 54.9466 24.7656 52.9688C24.7656 51.6394 27.8569 49.4535 34.7069 48.6015L39.0117 55.3564C39.2269 55.6941 39.5995 55.8984 39.9999 55.8984C40.4003 55.8984 40.773 55.694 40.9881 55.3564L45.2929 48.6015C52.143 49.4535 55.2344 51.6394 55.2344 52.9688C55.2344 54.9298 49.2724 57.6562 40 57.6562Z" fill="#EA6249"/>
<path d="M40 27.1094C36.7691 27.1094 34.1406 29.7379 34.1406 32.9688C34.1406 36.1996 36.7691 38.8281 40 38.8281C43.2309 38.8281 45.8594 36.1996 45.8594 32.9688C45.8594 29.7379 43.2309 27.1094 40 27.1094ZM40 36.4844C38.0615 36.4844 36.4844 34.9073 36.4844 32.9688C36.4844 31.0302 38.0615 29.4531 40 29.4531C41.9385 29.4531 43.5156 31.0302 43.5156 32.9688C43.5156 34.9073 41.9385 36.4844 40 36.4844Z" fill="#EA6249"/>
</svg>
