<svg width="80" height="80" viewBox="0 0 80 80" fill="none" xmlns="http://www.w3.org/2000/svg">
<rect width="80" height="80" rx="8" fill="#FFEBE8"/>
<path d="M40 15.75C37.4041 15.75 34.8665 16.5198 32.7081 17.962C30.5498 19.4042 28.8675 21.454 27.8741 23.8523C26.8807 26.2506 26.6208 28.8896 27.1272 31.4356C27.6336 33.9816 28.8837 36.3202 30.7192 38.1558C32.5548 39.9913 34.8934 41.2414 37.4394 41.7478C39.9854 42.2542 42.6244 41.9943 45.0227 41.0009C47.421 40.0075 49.4709 38.3253 50.913 36.1669C52.3552 34.0085 53.125 31.4709 53.125 28.875C53.125 25.394 51.7422 22.0556 49.2808 19.5942C46.8194 17.1328 43.481 15.75 40 15.75V15.75ZM40 38.25C38.1458 38.25 36.3332 37.7002 34.7915 36.67C33.2498 35.6399 32.0482 34.1757 31.3386 32.4627C30.6291 30.7496 30.4434 28.8646 30.8051 27.046C31.1669 25.2275 32.0598 23.557 33.3709 22.2459C34.682 20.9348 36.3525 20.0419 38.171 19.6801C39.9896 19.3184 41.8746 19.5041 43.5877 20.2136C45.3007 20.9232 46.7649 22.1248 47.795 23.6665C48.8252 25.2082 49.375 27.0208 49.375 28.875C49.375 30.1061 49.1325 31.3252 48.6614 32.4627C48.1902 33.6001 47.4997 34.6336 46.6291 35.5041C45.7586 36.3747 44.7251 37.0652 43.5877 37.5364C42.4502 38.0075 41.2311 38.25 40 38.25V38.25Z" fill="#EA6249"/>
<path d="M49.6938 45.75H30.3062C25.9168 45.755 21.7085 47.5009 18.6047 50.6047C15.5009 53.7085 13.755 57.9168 13.75 62.3062C13.75 63.8826 14.3762 65.3944 15.4909 66.5091C16.6056 67.6238 18.1174 68.25 19.6938 68.25H60.3062C61.8826 68.25 63.3944 67.6238 64.5091 66.5091C65.6238 65.3944 66.25 63.8826 66.25 62.3062C66.245 57.9168 64.4991 53.7085 61.3953 50.6047C58.2915 47.5009 54.0832 45.755 49.6938 45.75V45.75ZM60.3062 64.5H19.6938C19.1119 64.5 18.5539 64.2689 18.1425 63.8575C17.7311 63.4461 17.5 62.8881 17.5 62.3062C17.5 58.9098 18.8492 55.6525 21.2509 53.2509C23.6525 50.8492 26.9098 49.5 30.3062 49.5H49.6938C53.0902 49.5 56.3475 50.8492 58.7491 53.2509C61.1508 55.6525 62.5 58.9098 62.5 62.3062C62.5 62.8881 62.2689 63.4461 61.8575 63.8575C61.4461 64.2689 60.8881 64.5 60.3062 64.5V64.5Z" fill="#EA6249"/>
<path d="M40 13.75C37.4041 13.75 34.8665 14.5198 32.7081 15.962C30.5498 17.4042 28.8675 19.454 27.8741 21.8523C26.8807 24.2506 26.6208 26.8896 27.1272 29.4356C27.6336 31.9816 28.8837 34.3202 30.7192 36.1558C32.5548 37.9913 34.8934 39.2414 37.4394 39.7478C39.9854 40.2542 42.6244 39.9943 45.0227 39.0009C47.421 38.0075 49.4709 36.3253 50.913 34.1669C52.3552 32.0085 53.125 29.4709 53.125 26.875C53.125 23.394 51.7422 20.0556 49.2808 17.5942C46.8194 15.1328 43.481 13.75 40 13.75V13.75ZM40 36.25C38.1458 36.25 36.3332 35.7002 34.7915 34.67C33.2498 33.6399 32.0482 32.1757 31.3386 30.4627C30.6291 28.7496 30.4434 26.8646 30.8051 25.046C31.1669 23.2275 32.0598 21.557 33.3709 20.2459C34.682 18.9348 36.3525 18.0419 38.171 17.6801C39.9896 17.3184 41.8746 17.5041 43.5877 18.2136C45.3007 18.9232 46.7649 20.1248 47.795 21.6665C48.8252 23.2082 49.375 25.0208 49.375 26.875C49.375 28.1061 49.1325 29.3252 48.6614 30.4627C48.1902 31.6001 47.4997 32.6336 46.6291 33.5041C45.7586 34.3747 44.7251 35.0652 43.5877 35.5364C42.4502 36.0075 41.2311 36.25 40 36.25V36.25Z" fill="#EA6249"/>
<path d="M49.6938 43.75H30.3062C25.9168 43.755 21.7085 45.5009 18.6047 48.6047C15.5009 51.7085 13.755 55.9168 13.75 60.3062C13.75 61.8826 14.3762 63.3944 15.4909 64.5091C16.6056 65.6238 18.1174 66.25 19.6938 66.25H60.3062C61.8826 66.25 63.3944 65.6238 64.5091 64.5091C65.6238 63.3944 66.25 61.8826 66.25 60.3062C66.245 55.9168 64.4991 51.7085 61.3953 48.6047C58.2915 45.5009 54.0832 43.755 49.6938 43.75V43.75ZM60.3062 62.5H19.6938C19.1119 62.5 18.5539 62.2689 18.1425 61.8575C17.7311 61.4461 17.5 60.8881 17.5 60.3062C17.5 56.9098 18.8492 53.6525 21.2509 51.2509C23.6525 48.8492 26.9098 47.5 30.3062 47.5H49.6938C53.0902 47.5 56.3475 48.8492 58.7491 51.2509C61.1508 53.6525 62.5 56.9098 62.5 60.3062C62.5 60.8881 62.2689 61.4461 61.8575 61.8575C61.4461 62.2689 60.8881 62.5 60.3062 62.5V62.5Z" fill="#EA6249"/>
</svg>
