<svg width="80" height="80" viewBox="0 0 80 80" fill="none" xmlns="http://www.w3.org/2000/svg">
<rect width="80" height="80" rx="8" fill="#FFEBE8"/>
<path d="M70 45.625C70 44.1225 69.4025 42.7225 68.3725 41.6899C69.54 40.4125 70.135 38.6999 69.9725 36.9175C69.68 33.7399 66.8174 31.2499 63.4525 31.2499H48.01C48.775 28.9274 50 24.67 50 21.25C50 15.8275 45.3925 11.25 42.5 11.25C39.905 11.25 38.0474 12.7125 37.97 12.7725C37.6724 13.01 37.4999 13.37 37.4999 13.75V22.2274L30.2975 37.825L29.9999 37.9774V37.4999C29.9999 36.8099 29.4399 36.2498 28.7499 36.2498H16.25C12.8025 36.25 10 39.0525 10 42.4999V62.5C10 65.9475 12.8025 68.7499 16.25 68.7499H23.75C26.4524 68.7499 28.7624 67.0249 29.6324 64.6174C31.7125 65.6875 34.5125 66.25 36.25 66.25H59.1975C61.92 66.25 64.3026 64.4149 64.8625 61.885C65.15 60.58 64.9825 59.2675 64.4125 58.1275C66.2575 57.1999 67.5 55.2925 67.5 53.125C67.5 52.24 67.2975 51.3925 66.915 50.6275C68.76 49.6975 70 47.7925 70 45.625ZM64.7275 48.7099C64.245 48.7675 63.8375 49.0949 63.6825 49.5574C63.5301 50.02 63.6576 50.5274 64.0125 50.8624C64.6476 51.46 65.0001 52.2649 65.0001 53.125C65.0001 54.7024 63.8076 56.0275 62.2301 56.2099C61.7477 56.2675 61.3401 56.5949 61.1852 57.0574C61.0327 57.52 61.1602 58.0274 61.5152 58.3624C62.3377 59.1374 62.6677 60.2249 62.4202 61.345C62.1127 62.74 60.7577 63.75 59.1977 63.75H36.25C34.22 63.75 30.815 62.7975 29.635 61.615C29.2775 61.26 28.7375 61.155 28.2725 61.345C27.805 61.5375 27.5 61.995 27.5 62.5C27.5 64.5675 25.8175 66.25 23.75 66.25H16.25C14.1824 66.25 12.5 64.5675 12.5 62.5V42.4999C12.5 40.4324 14.1824 38.7499 16.25 38.7499H27.5V40C27.5 40.4325 27.725 40.8349 28.0949 41.065C28.46 41.2849 28.9199 41.3074 29.3099 41.1175L31.8099 39.8674C32.0624 39.7424 32.2649 39.5324 32.3849 39.2749L39.8849 23.0249C39.9599 22.8599 39.9999 22.6799 39.9999 22.4999V14.4274C40.52 14.14 41.4225 13.75 42.5 13.75C43.87 13.75 47.5 17.155 47.5 21.25C47.5 25.65 45.105 31.9924 45.0825 32.055C44.9376 32.4375 44.9875 32.87 45.22 33.21C45.455 33.5475 45.84 33.75 46.25 33.75H63.4525C65.5375 33.75 67.3075 35.2425 67.4825 37.1475C67.615 38.5725 66.9299 39.9275 65.7025 40.685C65.32 40.92 65.0925 41.345 65.11 41.7975C65.1275 42.25 65.3875 42.655 65.7875 42.8625C66.845 43.4 67.4999 44.46 67.4999 45.625C67.5 47.2024 66.3075 48.5275 64.7275 48.7099Z" fill="#EA6249"/>
<path d="M28.75 38.75C28.06 38.75 27.5 39.31 27.5 40V62.5C27.5 63.19 28.06 63.7501 28.75 63.7501C29.44 63.7501 30.0001 63.19 30.0001 62.5V40C30.0001 39.31 29.44 38.75 28.75 38.75Z" fill="#EA6249"/>
</svg>
