<svg width="80" height="80" viewBox="0 0 80 80" fill="none" xmlns="http://www.w3.org/2000/svg">
<rect width="80" height="80" rx="8" fill="#FFEBE8"/>
<path d="M66.1 33.8228L55.8455 22.5537C53.8164 20.5247 50.511 20.522 48.4628 22.5701C47.8138 23.2192 47.372 23.9964 47.1429 24.8256C45.1029 23.2629 42.1601 23.4183 40.281 25.2975C39.6346 25.9465 39.1928 26.7238 38.9582 27.5502C36.9183 25.9929 33.9755 26.1456 32.0992 28.0247C31.4637 28.6602 31.0273 29.4183 30.7901 30.2256L25.9573 25.3928C23.9282 23.3637 20.6228 23.3611 18.5746 25.4092C16.5428 27.4383 16.5428 30.7437 18.5746 32.7755L37.1419 51.3428L26.1291 53.0718C23.1536 53.4973 20.9091 56.0827 20.9091 59.091C20.9091 61.3465 22.7445 63.1819 25 63.1819H50.7155C54.7219 63.1819 58.4882 61.6218 61.3218 58.7882L65.6118 54.4983C68.4427 51.67 69.9999 47.9064 69.9999 43.9055C69.9999 40.1691 68.6145 36.5883 66.1 33.8228ZM63.6836 52.57L59.3936 56.86C57.0755 59.1781 53.9936 60.4545 50.7154 60.4545H24.9999C24.2472 60.4545 23.6362 59.8436 23.6362 59.0908C23.6362 57.4326 24.8744 56.0063 26.5353 55.769L40.2126 53.6199C40.7199 53.5407 41.1371 53.1835 41.2981 52.6953C41.4562 52.2099 41.3281 51.6726 40.9653 51.3099L20.5027 30.8473C19.5346 29.8792 19.5346 28.3028 20.5164 27.3182C21.0018 26.8355 21.6373 26.5928 22.2728 26.5928C22.9083 26.5928 23.5437 26.8355 24.0292 27.3209L37.6738 40.9655C38.2056 41.4973 39.0702 41.4973 39.602 40.9655C39.8665 40.6982 40.0003 40.3492 40.0003 40.0001C40.0003 39.6509 39.8667 39.3019 39.5993 39.0346L34.0275 33.4628C33.0594 32.4947 33.0594 30.9209 34.0439 29.9364C35.0093 28.971 36.5884 28.971 37.5539 29.9364L43.1284 35.5109C43.6602 36.0428 44.5248 36.0428 45.0566 35.5109C45.3211 35.2436 45.4548 34.8946 45.4548 34.5455C45.4548 34.1964 45.3213 33.8473 45.0539 33.58L42.2093 30.7354C41.2412 29.7673 41.2412 28.1936 42.2257 27.2091C43.1912 26.2436 44.7703 26.2436 45.7357 27.2091L48.5939 30.0672C48.5994 30.0699 48.5965 30.0699 48.5965 30.0699L48.5992 30.0726C48.6019 30.0753 48.6019 30.0753 48.6019 30.0753C48.6046 30.078 48.6046 30.078 48.6046 30.078H48.6073C48.61 30.078 48.61 30.0806 48.61 30.0806C49.1445 30.5879 49.99 30.577 50.5108 30.0534C51.0426 29.5216 51.0426 28.657 50.5108 28.1252L50.3936 28.008C49.9245 27.5389 49.6654 26.9143 49.6654 26.2515C49.6654 25.5888 49.9217 24.967 50.4073 24.4816C51.3782 23.5161 52.9491 23.5188 53.8737 24.4352L64.0846 35.658C66.1381 37.9191 67.2727 40.8482 67.2727 43.9055C67.2727 47.1782 65.999 50.2546 63.6836 52.57Z" fill="#EA6249"/>
<path d="M33.4436 24.0537C31.4582 19.66 27.0728 16.8181 22.2727 16.8181C15.5064 16.8181 10 22.3245 10 29.0908C10 33.8909 12.8418 38.2764 17.2354 40.2645C17.4181 40.3464 17.6091 40.3846 17.7973 40.3846C18.3154 40.3846 18.8118 40.0845 19.0409 39.5828C19.3491 38.8955 19.0436 38.0882 18.3591 37.7773C14.9391 36.2309 12.7274 32.8218 12.7274 29.0908C12.7274 23.8273 17.0091 19.5453 22.2729 19.5453C26.0038 19.5453 29.4129 21.7571 30.9593 25.1771C31.2675 25.8644 32.0775 26.1726 32.762 25.8589C33.4491 25.5481 33.7545 24.7409 33.4436 24.0537Z" fill="#EA6249"/>
</svg>
