<svg xmlns="http://www.w3.org/2000/svg" xmlns:xlink="http://www.w3.org/1999/xlink" viewBox="0,0,256,256" width="128px" height="128px"><g fill="none" fill-rule="nonzero" stroke="none" stroke-width="1" stroke-linecap="butt" stroke-linejoin="miter" stroke-miterlimit="10" stroke-dasharray="" stroke-dashoffset="0" font-family="none" font-weight="none" font-size="none" text-anchor="none" style="mix-blend-mode: normal"><g transform="scale(2,2)"><path d="M109.8,109.8h-91.6c-5.1,0 -9.2,-4.1 -9.2,-9.2v-73.3c0,-5.1 4.1,-9.2 9.2,-9.2h91.7c5.1,0 9.2,4.1 9.2,9.2v73.3c-0.1,5.1 -4.2,9.2 -9.3,9.2z" fill="#ffffff"></path><path d="M39.7,110.5c-1.7,0 -3,-1.3 -3,-3v-53.7c0,-1.7 1.3,-3 3,-3c1.7,0 3,1.3 3,3v53.8c0,1.6 -1.3,2.9 -3,2.9z" fill="#dedfe6"></path><path d="M119,36.5h-110v-9.2c0,-5.1 4.1,-9.2 9.2,-9.2h91.7c5.1,0 9.2,4.1 9.2,9.2l-0.1,9.2z" fill="#177267"></path><path d="M57.8,50.3h44.4c1.7,0 3,1.3 3,3v12.3c0,1.7 -1.3,3 -3,3h-44.4c-1.7,0 -3,-1.3 -3,-3v-12.3c0,-1.7 1.3,-3 3,-3z" fill="#dedfe6"></path><path d="M57.8,77.8h12.3c1.7,0 3,1.3 3,3v12.3c0,1.7 -1.3,3 -3,3h-12.3c-1.7,0 -3,-1.3 -3,-3v-12.3c0,-1.7 1.3,-3 3,-3z" fill="#d3b3d5"></path><path d="M109.9,15.1h-91.7c-6.7,0 -12.2,5.5 -12.2,12.2v73.3c0,6.7 5.5,12.2 12.2,12.2h91.6c6.7,0 12.2,-5.4 12.3,-12.2v-73.3c0,-6.7 -5.5,-12.2 -12.2,-12.2zM12,27.4c0,-3.4 2.8,-6.2 6.2,-6.2v-0.1h91.6c3.4,0 6.2,2.8 6.2,6.2v6.2h-104zM109.9,106.9h-91.7c-3.4,0 -6.2,-2.8 -6.2,-6.2v-61.2h104.1v61.2c0,3.4 -2.8,6.2 -6.2,6.2z" fill="#464c55"></path><path d="M20.5,30.8c-1.9,0 -3.5,-1.6 -3.5,-3.5c0,-1.9 1.6,-3.5 3.5,-3.5c1.9,0 3.5,1.6 3.5,3.5c-0.1,1.9 -1.6,3.5 -3.5,3.5zM29.6,30.8c-1.9,0 -3.5,-1.6 -3.5,-3.5c0,-1.9 1.6,-3.5 3.5,-3.5c1.9,0 3.5,1.6 3.5,3.5c0,1.9 -1.6,3.5 -3.5,3.5z" fill="#ffffff"></path><g fill="#ffffff"><path d="M38.8,30.8c-1.9,0 -3.5,-1.6 -3.5,-3.5c0,-1.9 1.6,-3.5 3.5,-3.5c1.9,0 3.5,1.6 3.5,3.5c-0.1,1.9 -1.6,3.5 -3.5,3.5z"></path></g><g fill="#dedfe6"><path d="M101.2,83.5h-18.3c-1.7,0 -3,-1.3 -3,-3c0,-1.7 1.3,-3 3,-3h18.3c1.7,0 3,1.3 3,3c0,1.7 -1.3,3 -3,3zM101.2,96.3h-18.3c-1.7,0 -3,-1.3 -3,-3c0,-1.7 1.3,-3 3,-3h18.3c1.7,0 3,1.3 3,3c0,1.7 -1.3,3 -3,3z"></path></g></g></g></svg>