<svg xmlns="http://www.w3.org/2000/svg"  viewBox="0 0 128 128" width="128px" height="128px"><path fill="#71c2ff" d="M82,124V94c0-1.7-1.3-3-3-3H49c-1.7,0-3,1.3-3,3v30c0,1.7,1.3,3,3,3h30C80.7,127,82,125.7,82,124z M76,121H52	V97h24V121z"/><path fill="#444b54" d="M4,127h30c1.7,0,3-1.3,3-3V94c0-1.7-1.3-3-3-3H4c-1.7,0-3,1.3-3,3v30C1,125.7,2.3,127,4,127z M7,97h24v24H7V97z"/><path fill="#444b54" d="M124,91H94c-1.7,0-3,1.3-3,3v30c0,1.7,1.3,3,3,3h30c1.7,0,3-1.3,3-3V94C127,92.3,125.7,91,124,91z M121,121H97	V97h24V121z"/><path fill="#444b54" d="M124,41c-1.7,0-3,1.3-3,3v12.2C96,30.9,57.1,24.9,25.4,42.3c-1.5,0.8-2,2.6-1.2,4.1c0.8,1.5,2.6,2,4.1,1.2	c29.6-16.2,66-10.4,89.1,13.5H104c-1.7,0-3,1.3-3,3s1.3,3,3,3h20c1.7,0,3-1.3,3-3V44C127,42.3,125.7,41,124,41z"/><path fill="#444b54" d="M8.7,54.5c-2.5,2.4-4.8,4.9-7,7.6c-1,1.3-0.8,3.2,0.4,4.2C2.7,66.8,3.3,67,4,67c0.9,0,1.7-0.4,2.3-1.1	c2-2.5,4.2-4.9,6.5-7c1.2-1.1,1.2-3,0.1-4.2C11.8,53.4,9.9,53.4,8.7,54.5z"/></svg>