<svg xmlns="http://www.w3.org/2000/svg"  viewBox="0 0 128 128" width="128px" height="128px"><path fill="#fff" d="M100,4v62h16.5c4.1,0,7.5,3.4,7.5,7.5v0c0,2.2-1,4.3-2.7,5.8l-50.9,42.4c-3.7,3.1-9.1,3.1-12.8,0L6.7,79.2 C5,77.8,4,75.7,4,73.5v0c0-4.1,3.4-7.5,7.5-7.5H28V4H100z"/><path fill="#cdf9e6" d="M116.5,66H100V24h-9c-2.8,0-5,2.2-5,5v42c0,5.5-4.5,10-10,10H45c-2.8,0-5,2.2-5,5v21l17.6,14.7 c3.7,3.1,9.1,3.1,12.8,0l50.7-42.2c1.7-1.4,2.8-3.4,2.9-5.6C124.2,69.5,120.8,66,116.5,66z"/><path fill="#444b54" d="M64,127c-3,0-5.9-1-8.3-3L4.8,81.6c-2.4-2-3.8-4.9-3.8-8.1C1,67.7,5.7,63,11.5,63H25V34c0-1.7,1.3-3,3-3 s3,1.3,3,3v32c0,1.7-1.3,3-3,3H11.5C9,69,7,71,7,73.5c0,1.3,0.6,2.6,1.6,3.5l50.9,42.4c2.6,2.2,6.4,2.2,9,0l50.9-42.4 c1-0.9,1.6-2.1,1.6-3.5c0-2.5-2-4.5-4.5-4.5H100c-1.7,0-3-1.3-3-3V4c0-1.7,1.3-3,3-3s3,1.3,3,3v59h13.5c5.8,0,10.5,4.7,10.5,10.5 c0,3.1-1.4,6.1-3.8,8.1L72.3,124C69.9,126,67,127,64,127z"/><path fill="#444b54" d="M28,17c-1.7,0-3-1.3-3-3V4c0-1.7,1.3-3,3-3s3,1.3,3,3v10C31,15.7,29.7,17,28,17z"/><path fill="#444b54" d="M49,36c-5.5,0-10-4.5-10-10s4.5-10,10-10s10,4.5,10,10S54.5,36,49,36z M49,22c-2.2,0-4,1.8-4,4s1.8,4,4,4 s4-1.8,4-4S51.2,22,49,22z"/><path fill="#444b54" d="M79,62c-5.5,0-10-4.5-10-10s4.5-10,10-10s10,4.5,10,10S84.5,62,79,62z M79,48c-2.2,0-4,1.8-4,4s1.8,4,4,4 s4-1.8,4-4S81.2,48,79,48z"/><path fill="#444b54" d="M46.5,61.2c-0.7,0-1.4-0.3-2-0.8c-1.2-1.1-1.3-3-0.2-4.2l35-38.3c1.1-1.2,3-1.3,4.2-0.2c1.2,1.1,1.3,3,0.2,4.2 l-35,38.3C48.1,60.8,47.3,61.2,46.5,61.2z"/></svg>