<svg xmlns="http://www.w3.org/2000/svg" xmlns:xlink="http://www.w3.org/1999/xlink" viewBox="0,0,256,256" width="128px" height="128px"><g fill="none" fill-rule="nonzero" stroke="none" stroke-width="1" stroke-linecap="butt" stroke-linejoin="miter" stroke-miterlimit="10" stroke-dasharray="" stroke-dashoffset="0" font-family="none" font-weight="none" font-size="none" text-anchor="none" style="mix-blend-mode: normal"><g transform="scale(2,2)"><path d="M98.2,116.8l-22.2,-9c-1.5,5.3 -7.7,8.3 -12.2,8.9v0.1c-0.7,0 -1.9,-0.1 -2,-0.1c-4.3,-0.8 -8.3,-3.7 -9.7,-8.8l-22.2,9v0c22.1,7 46.1,7 68.3,-0.1z" fill="#ffffff"></path><path d="M76,102v6.5v0c-3.5,12 -20.5,12 -23.9,0v0v-6.5" fill="#f7ebde"></path><path d="M96.3,59.8c0,-26.4 -13.1,-39.9 -32.3,-39.9c-19.2,0 -32.3,13.6 -32.3,39.9c-6.2,0.5 -4.8,14.6 2.2,13.8c2,5.7 4.2,10.4 6.5,14.4c7.9,13.5 16.9,17.5 23.5,17.5c8.5,0 21.1,-6.6 30,-31.8c7.2,0.7 8.6,-13.4 2.4,-13.9z" fill="#f7ebde"></path><path d="M96.7,59.9c-0.1,0 -0.2,0 -0.4,0c0,-26.4 -13.1,-39.9 -32.3,-39.9c-14,0 -24.8,7.2 -29.6,21.4c-1.7,4.9 -2.6,10.6 -2.7,17.1c13.1,-31.2 33.2,10.6 65,1.4z" fill="#177267"></path><path d="M87.1,64.3c-10.9,0 -20.3,-4.9 -28.2,-9c-6.8,-3.6 -12.7,-6.6 -16.9,-5.1c-2.8,1 -5.3,4.1 -7.5,9.4c-0.6,1.5 -2.4,2.2 -3.9,1.6c-1.5,-0.6 -2.2,-2.4 -1.6,-3.9c2.9,-7 6.5,-11.1 11,-12.8c6.7,-2.4 13.7,1.2 21.7,5.4c9.8,5.1 20.9,10.9 34.1,7.1c1.6,-0.5 3.3,0.4 3.7,2c0.5,1.6 -0.4,3.3 -2,3.7c-3.6,1.1 -7.1,1.5 -10.4,1.6zM30,120.5c-1.2,0 -2.3,-0.7 -2.8,-1.9c-0.6,-1.5 0.1,-3.3 1.6,-3.9l22.1,-9c1.5,-0.6 3.3,0.1 3.9,1.6c0.6,1.5 -0.1,3.3 -1.6,3.9l-22.1,9c-0.4,0.2 -0.8,0.3 -1.1,0.3zM98.1,120.5c-0.4,0 -0.8,-0.1 -1.1,-0.2l-22.1,-9c-1.5,-0.6 -2.3,-2.4 -1.6,-3.9c0.6,-1.5 2.4,-2.3 3.9,-1.6l22.1,9c1.5,0.6 2.3,2.4 1.6,3.9c-0.5,1.1 -1.7,1.8 -2.8,1.8z" fill="#454b54"></path><path d="M64,120.5v0c-7.1,0 -12.9,-4.4 -14.8,-11.2c-0.5,-1.6 0.5,-3.3 2.1,-3.7c1.6,-0.5 3.3,0.5 3.7,2.1c1.5,5.1 5.6,6.9 9.1,6.9c3.4,0 7.6,-1.8 9.1,-6.9l5.8,1.7c-2.1,6.7 -7.9,11.1 -15,11.1z" fill="#454b54"></path><path d="M33.4,75.1c-2,0 -3.9,-1 -5.2,-2.8c-2.1,-2.9 -2.6,-7.6 -1.1,-10.7c0.9,-2 2.5,-3.1 4.5,-3.3c0.8,-0.1 1.5,0.6 1.6,1.4c0.1,0.8 -0.6,1.5 -1.4,1.6c-0.3,0 -1.3,0.1 -2,1.6c-1,2.1 -0.6,5.6 0.8,7.7c0.8,1.2 1.9,1.7 3.1,1.5c0.8,-0.1 1.6,0.5 1.7,1.3c0.1,0.8 -0.5,1.6 -1.3,1.7c-0.2,0 -0.5,0 -0.7,0zM94.6,75.1c-0.2,0 -0.5,0 -0.7,0c-0.8,-0.1 -1.4,-0.8 -1.3,-1.7c0.1,-0.9 0.8,-1.4 1.7,-1.3c1.2,0.2 2.3,-0.4 3.1,-1.5c1.5,-2 1.8,-5.5 0.8,-7.7c-0.7,-1.5 -1.7,-1.5 -2,-1.6c-0.8,-0.1 -1.4,-0.8 -1.4,-1.6c0.1,-0.8 0.8,-1.4 1.6,-1.4c2,0.1 3.6,1.3 4.5,3.3c1.5,3.1 1,7.8 -1.1,10.7c-1.3,1.8 -3.1,2.8 -5.2,2.8z" fill="#62345b"></path><path d="M96.3,62.8c-1.7,0 -3,-1.3 -3,-3c0,-23.4 -10.7,-36.9 -29.3,-36.9c-12.8,0 -21.9,6.3 -26.3,18.2c-0.6,1.6 -2.3,2.3 -3.9,1.8c-1.6,-0.6 -2.3,-2.3 -1.8,-3.9c5.4,-14.2 16.7,-22.1 32,-22.1c22.1,0 35.3,16 35.3,42.9c0,1.7 -1.4,3 -3,3zM64,108.4c-5.4,0 -16,-2.3 -25.5,-18c-0.9,-1.4 -0.4,-3.3 1,-4.1c1.4,-0.9 3.3,-0.4 4.1,1c8,13.2 16.2,15.1 20.4,15.1c5,0 17.6,-2.9 27.2,-29.8c0.6,-1.6 2.3,-2.4 3.8,-1.8c1.6,0.6 2.4,2.3 1.8,3.8c-10.8,30.5 -26.5,33.8 -32.8,33.8z" fill="#454b54"></path><g fill="#62345b"><path d="M34,76.1c-0.8,0 -1.5,-0.7 -1.5,-1.5v-18.3c0,-0.8 0.7,-1.5 1.5,-1.5c0.8,0 1.5,0.7 1.5,1.5v18.3c0,0.9 -0.7,1.5 -1.5,1.5zM94,76.1c-0.8,0 -1.5,-0.7 -1.5,-1.5v-18.3c0,-0.8 0.7,-1.5 1.5,-1.5c0.8,0 1.5,0.7 1.5,1.5v18.3c0,0.9 -0.7,1.5 -1.5,1.5z"></path></g><g><path d="M98.9,81.3l-8.1,-1.4l5.5,-31.9l8.1,1.4c3.5,0.6 5.8,4 5.2,7.5l-3.3,19.1c-0.6,3.5 -3.9,5.9 -7.4,5.3zM29.1,81.3l8.1,-1.4l-5.5,-31.9l-8.1,1.4c-3.5,0.6 -5.8,4 -5.2,7.5l3.3,19.1c0.6,3.5 3.9,5.9 7.4,5.3z" fill="#ffffff"></path><path d="M100,84.4c-0.5,0 -1.1,0 -1.6,-0.1l-7.6,-1.3c-1.6,-0.3 -2.7,-1.8 -2.5,-3.4l5,-32c0.1,-0.8 0.6,-1.5 1.2,-2c0.7,-0.5 1.5,-0.7 2.3,-0.5l8.1,1.4c5.1,0.9 8.6,5.8 7.7,11l-3.4,19.1c-0.7,4.5 -4.6,7.8 -9.2,7.8zM94.8,77.5l4.6,0.8c0.2,0 0.4,0.1 0.6,0.1c1.7,0 3.1,-1.2 3.4,-2.9l3.4,-19.1c0.3,-1.9 -0.9,-3.7 -2.8,-4l-5.1,-0.9zM28,84.4v0c-4.6,0 -8.5,-3.3 -9.3,-7.8l-3.4,-19.1c-0.9,-5.1 2.5,-10 7.6,-11l8.1,-1.4c0.8,-0.1 1.6,0 2.2,0.5c0.7,0.5 1.1,1.2 1.2,1.9l5.6,31.8c0.3,1.6 -0.8,3.2 -2.4,3.5l-8.1,1.4c-0.4,0.1 -0.9,0.2 -1.5,0.2zM29.2,51.5l-5.2,0.9c-1.9,0.3 -3.1,2.1 -2.8,4l3.4,19.1c0.3,1.7 1.7,2.9 3.4,2.9v0c0.2,0 0.4,0 0.6,-0.1l5.2,-0.9z" fill="#454b54"></path><path d="M25.4,50.8h-0.1c-1.7,-0.1 -2.9,-1.5 -2.9,-3.1c0.9,-22.6 19.1,-40.2 41.6,-40.2c22.1,0 40.3,17.3 41.5,39.4c0.1,1.7 -1.2,3.1 -2.8,3.2c-1.6,0.1 -3.1,-1.2 -3.2,-2.8c-1,-18.9 -16.6,-33.7 -35.5,-33.7c-19.2,0 -34.8,15.1 -35.6,34.4c0,1.5 -1.4,2.8 -3,2.8z" fill="#454b54"></path></g></g></g></svg>