<svg xmlns="http://www.w3.org/2000/svg" viewBox="0 0 336 545" width="336" height="545"><g transform="translate(17.0 0.0) rotate(0.0 151.0 270.0) scale(0.18265027975128112 0.18205098641292802)"><svg width="1653.433" height="2966.202" viewBox="0 0 1653.433 2966.202"><linearGradient id="a" gradientTransform="matrix(.9601 -.2795 .2795 .9601 -696.6163 2236.7554)" gradientUnits="userSpaceOnUse" x1="2385.304" x2="2635.203" y1="-677.458" y2="-677.458"><stop offset=".178" stop-color="#e6f4fb"/><stop offset=".692" stop-color="#baddf0"/><stop offset=".823" stop-color="#aed7ed"/></linearGradient><circle cx="1227.309" cy="439.172" fill="#fff" r="140.482"/><path d="M1600.409 745.465c-26.115-83.964-118.893-248.967-269.502-398.527-114.864-114.064-279.668-9.186-241.778 139.298 46.217 181.117 271.193 443.729 355.784 455.568 98.164 13.737 191.952-54.623 155.496-196.339z" fill="#fff"/><path d="M1594.264 715.947a3.002 3.002 0 0 1-2.72-1.731c-17.179-36.772-48.061-95.675-97.626-167.469-49.112-71.135-104.668-137.645-165.126-197.681a3 3 0 0 1 4.227-4.258c60.719 60.296 116.514 127.091 165.835 198.529 49.802 72.135 80.849 131.358 98.125 168.338a3 3 0 0 1-2.715 4.272zm-447.542-411.782c-28.816-25.961-77.901-44.853-77.901-44.853l52.479 87.128 45.157-8.554c.001.001-11.991-26.745-19.735-33.721zm189.927 2393.753c-99.489-154.527-280.709-336.63-355.737-387.719l.081.178c-58.602-41.278-88.483-26.742-122.547 2.522-23.985 6.139-65.825 43.958-88.792 85.104 30.162 54.197 70.857 114.248 119.809 175.234 3.041 3.789 9.811 11.992 21.516 4.26 10.844-7.162 23.749-20.137 35.689-6.077 18.704 22.026-10.583 56.367 3.414 72.977 149.055 176.874 315.047 273.293 365.986 229.533a37.884 37.884 0 0 0 6-6.548l.013.008c59.73-79.426 63.086-94.115 14.568-169.472z" fill="#177267"/><path d="M1348.141 2782.963c-51.3 43.88-182.06-30.75-324.64-193.97-5.62-6.44-11.26-13-16.91-19.71-16.57-19.67-39.37-45.79-65.53-79.56a.673.673 0 0 1-.07-.11c-28.21-36.4-60.32-81.7-92.76-137.37-5.24-9-4.56-20.24 1.63-28.62 29.03-39.3 97.31-84.18 135.3-99.71h.01c5.46-2.25 10.3-3.87 14.31-4.78 53.08 106.97 109.03 146.53 176.24 146.77 89.04 103.65 148.37 204.81 175.06 282.77.89 2.6 1.75 5.18 2.56 7.73 19.51 60.82 18.27 106.48-5.2 126.56z" fill="#699D98"/><path d="M1219.819 2423.113c-.393 0-.792-.077-1.175-.241-27.193-11.597-75.055-16.146-104.963-3.275a3.001 3.001 0 0 1-2.372-5.512c31.786-13.68 80.732-9.082 109.689 3.267a3 3 0 0 1-1.179 5.761zm34.529 47.251c-.393 0-.792-.077-1.175-.241-27.193-11.596-75.056-16.146-104.963-3.275a3.001 3.001 0 0 1-2.372-5.512c31.786-13.68 80.732-9.082 109.688 3.267a3 3 0 0 1-1.178 5.761z" fill="#fff"/><path d="M1348.141 2782.963c-51.3 43.88-182.06-30.75-324.64-193.97 50.42-5.55 87.5 3.58 138.59 30.24 46.84 24.45 62.36 51.3 114.55 74.29 51.65 22.76 89.57 8.36 76.7-37.12 19.51 60.82 18.27 106.48-5.2 126.56zm-407.153-293.348c-28.21-36.406-60.317-81.698-92.757-137.37-5.242-8.999-4.556-20.241 1.629-28.62 29.035-39.302 97.313-84.184 135.297-99.713-58.298 32.237-86.957 206.928-44.169 265.703zm201.167 11.211c-30.206-18.125-57.887-26.507-66.788-12.003-7.489 12.203 9.19 25.092 30.161 20.145 18.995-4.335 36.622-8.168 36.627-8.142zm-36.113-52.89c-30.206-18.125-57.887-26.507-66.788-12.003-7.489 12.203 9.19 25.092 30.161 20.145 18.996-4.336 36.623-8.168 36.627-8.142zm-28.558-49.87c-30.206-18.125-57.887-26.507-66.788-12.003-7.488 12.203 9.19 25.092 30.161 20.145 18.996-4.335 36.623-8.167 36.627-8.142z" fill="#699D98"/><path d="M1554.354 2892.306c-.019-99.378-6.168-113.134-90.243-144.184-172.403-63.671-426.696-100.242-517.365-95.96l.223.092c-71.689 2.233-86.834 31.817-96.464 75.692-15.475 19.325-26.173 74.7-19.79 121.388 56.686 25.176 125.307 48.697 201.089 68.001 4.708 1.199 15.049 3.685 19.755-9.531 4.359-12.243 6.871-30.37 24.865-26.312 28.188 6.356 25.43 51.406 46.602 56.263 225.445 51.729 416.058 28.985 430.455-36.608.635-2.895.913-5.844.858-8.839z" fill="#177267"/><path d="M1137.361 2649.265c-70.642 26.009-187.262 9.009-225.46-15.9 0 0 5.88-121.9 12.02-272.2l218.71 18.68s-6.27 169.24-5.27 269.42z" fill="#1BC2AD"/><path d="M1524.421 2809.185c-14.61 65.89-163.96 84.88-376.02 40.15-8.36-1.76-16.82-3.62-25.37-5.58-25.11-5.76-59.09-12.94-100.39-24.23-44.41-12.13-97.28-29.02-156.64-54-9.6-4.04-15.81-13.43-15.9-23.85-.43-48.83 27.12-125.68 48.13-160.96l.119-.199c4.147-6.948 13.495-9.741 20.805-6.271 93.356 44.308 156.514 44.176 206.653 12.283 5.882-3.741 16.203-5.635 22.996-4.073 132.117 30.385 238.407 76.232 303.947 122.65.01 0 .02.01.03.02 51.96 36.79 78.31 73.96 71.64 104.06z" fill="#177267"/><path d="M1116.003 2661.274a3 3 0 0 1-2.601-4.49c17.176-30.042 59.053-55.793 89.617-63.333a3 3 0 0 1 1.437 5.825c-28.702 7.081-69.684 32.22-85.845 60.486a3.002 3.002 0 0 1-2.608 1.512zm56 17a3 3 0 0 1-2.601-4.49c17.176-30.042 59.053-55.793 89.617-63.333a3 3 0 0 1 1.437 5.825c-28.702 7.081-69.684 32.22-85.845 60.486a3.002 3.002 0 0 1-2.608 1.512zm57 20a3 3 0 0 1-2.601-4.49c17.176-30.042 59.053-55.793 89.617-63.333a3 3 0 1 1 1.437 5.825c-28.702 7.081-69.684 32.22-85.845 60.486a3.002 3.002 0 0 1-2.608 1.512z" fill="#fff"/><path d="M1524.421 2809.185c-14.61 65.89-163.96 84.88-376.02 40.15 36.95-34.74 72.07-49.73 128.92-59.14 52.12-8.63 80.67 3.49 136.2-9.51 54.81-12.84 76.49-46.99 39.26-75.56 51.96 36.79 78.31 73.96 71.64 104.06zm-501.78 10.34c-44.41-12.13-97.28-29.02-156.64-54-9.6-4.04-15.81-13.43-15.9-23.85-.43-48.83 27.12-125.68 48.13-160.96-27.1 60.85 54.92 217.5 124.41 238.81zm167.558-111.97c-35.034 3.676-62.194 13.619-60.587 30.561 1.352 14.253 22.429 14.526 36.213-2.035 12.573-14.884 24.355-28.544 24.374-28.526zM1129.544 2687c-35.034 3.676-62.194 13.62-60.587 30.561 1.352 14.253 22.429 14.526 36.213-2.035 12.573-14.883 24.355-28.544 24.374-28.526zm-52.802-22.682c-35.034 3.676-62.194 13.62-60.587 30.561 1.352 14.253 22.429 14.526 36.213-2.035 12.573-14.883 24.355-28.543 24.374-28.526zm319.737-1718.273c-96.731-170.798-415.076-66.698-406.484 113.133 10.704 224.039 158.144 419.379 211.631 589.945s441.725 83.426 402.185-77.724c-36.671-149.461-114.342-461.16-207.332-625.354z" fill="#699D98"/><path d="M1603.812 1571.4c63.481 254.679-75.057 512.069-201.136 713.651-72.131 115.328-156.464 172.845-200.988 161.556-98.327-24.93-216.486-157.095-236.746-233.773 129.055-179.825 286.639-324.302 235.952-567.522-38.025-182.456 353.659-271.535 402.918-73.912z" fill="#699D98"/><path d="M1256.943 950.36c-26.513-194.489-400.139-157.507-433.653 19.382-41.753 220.374 56.153 444.674 68.458 623.006s389.956 170.736 409.229 18.053c19.272-152.682-19.56-480.909-44.034-660.441z" fill="#699D98"/><path d="M1309.182 1501.987c19.574 379.303-27.745 1017.452-47.662 1067.786-8.735 22.075-30.832 34.586-88.683 44.957-90.266 16.181-214.288-.712-269.928-28.07-12.404-6.099-20.04-18.936-19.574-32.751 12.031-356.536 31.472-745.273 8.412-961.161-17.973-168.261 130.075-193.157 206.056-197.494 69.242-3.952 206.619 14.497 211.379 106.733z" fill="#699D98"/><path d="M1286.27 466.939c59.748 100.943 130.012 480.68 130.012 480.68-88.628-64.721-387.752-90.622-570.934-14.382-87.713 36.506-59.849-81.259-75.375-165.566-65.14-353.71 25.805-465.562 221.54-434.836 66.616 45.826 129.735 36.541 132.995 10.505 79.647-3.209 117.3 48.482 161.762 123.599z" fill="#fff"/><path d="M1094.406 2624.054c-22.59 0-46.156-1.346-69.859-4.051-50.176-5.727-94.994-16.898-122.963-30.65-13.414-6.595-21.755-20.548-21.248-35.544 1.859-55.088 3.929-111.491 5.931-166.037 11.355-309.385 22.081-601.611 2.495-794.72-6.738-66.431-21.101-132.319-36.306-202.076-31.607-144.998-64.29-294.932-25.242-453.352a3 3 0 1 1 5.826 1.436c-38.715 157.067-6.183 306.309 25.279 450.638 15.243 69.928 29.641 135.979 36.413 202.749 19.628 193.521 8.895 485.948-2.468 795.546-2.002 54.542-4.072 110.94-5.931 166.02-.427 12.642 6.599 24.402 17.899 29.958 39.274 19.311 116.192 34.087 190.452 34.09 26.86.001 53.358-1.931 77.623-6.281 54.426-9.756 77.849-21.44 86.423-43.107 9.953-25.154 25.26-197.371 36.397-409.493 13.21-251.626 17.24-491.122 11.057-657.078-4.249-114.048-12.196-227.721-22.98-328.732a3 3 0 0 1 5.967-.637c10.799 101.145 18.756 214.962 23.01 329.145 6.19 166.128 2.159 405.819-11.061 657.617-11.166 212.69-26.647 385.703-36.809 411.386-9.47 23.934-34.118 36.619-90.943 46.805-23.647 4.236-50.53 6.368-78.962 6.368z" fill="#177267"/><path d="m1283.529 1176.497-.326-3.138c-.135-1.298-13.677-131.019-30.884-237.353a3 3 0 0 1 5.923-.959c15.67 96.833 28.301 212.993 30.568 234.27 4.22-1.263 12.109-4.376 19.441-11.37 14.076-13.427 19.825-35.2 16.625-62.966-7.176-62.255-13.443-108.608-20.321-150.296a3 3 0 1 1 5.919-.976c6.895 41.788 13.175 88.23 20.362 150.586 2.401 20.836 1.106 49.588-18.703 68.24-11.975 11.275-24.94 13.394-25.486 13.479z" fill="#177267"/><path d="M1416.279 987.619a2.986 2.986 0 0 1-1.767-.578c-45.996-33.589-144.61-54.327-263.792-55.474-57.791-.556-117.496 3.678-172.653 12.244-59.497 9.24-111.924 23.002-155.825 40.905a3 3 0 0 1-2.266-5.556c44.333-18.079 97.213-31.967 157.17-41.279 55.476-8.615 115.52-12.874 173.632-12.314 120.387 1.159 220.302 22.328 267.272 56.628a3 3 0 0 1-1.771 5.424z" fill="#177267"/><path d="M1280.554 2424.525a3 3 0 0 1-1.704-5.471c41.307-28.436 84.379-76.591 121.282-135.594 60.276-96.372 127.772-211.693 171.365-336.314 22.541-64.438 36.81-126.826 42.412-185.429 6.3-65.903 1.923-129.691-13.008-189.592-16.465-67.106-47.107-191.995-85.814-317.822-44.501-144.662-88.175-252.811-129.807-321.443a3 3 0 1 1 5.13-3.112c41.888 69.055 85.765 177.657 130.412 322.791 38.758 125.992 69.428 250.991 85.904 318.145 15.093 60.552 19.521 125.021 13.156 191.603-5.647 59.083-20.021 121.945-42.721 186.839-43.788 125.178-111.49 240.861-171.941 337.515-37.329 59.683-80.999 108.463-122.967 137.354a2.98 2.98 0 0 1-1.699.53z" fill="#177267"/><path d="m1420.604 954.49-6.091-4.448c-43.269-31.597-138.442-54.388-248.379-59.478-120.354-5.573-236.856 10.991-319.633 45.442-20.864 8.684-36.568 9.361-48.008 2.069-21.792-13.89-23.426-53.221-25.318-98.762-.994-23.927-2.021-48.668-6.152-71.099-37.261-202.328-25.003-331.867 37.475-396.018 20.672-21.226 47.352-35.451 79.297-42.283 30.464-6.514 66.863-6.529 108.183-.042l.674.106.562.386c47.581 32.732 93.162 36.91 115.375 26.941 5.388-2.418 12.008-6.869 12.943-14.338l.316-2.522 2.54-.102c38.125-1.535 68.683 9.005 96.176 33.172 24.118 21.2 44.01 50.88 68.288 91.897 24.935 42.127 54.459 136.01 87.752 279.042 24.763 106.388 42.453 201.67 42.628 202.62zm-300.183-70.986c15.233 0 30.573.352 45.99 1.066 106.217 4.918 199.048 26.381 245.575 56.464-10.027-52.682-74.003-380.838-128.298-472.567-43.072-72.77-79.64-124.255-156.695-122.209-1.813 6.876-7.383 12.677-15.947 16.521-7.378 3.311-17.121 5.197-28.528 5.198-25.092.001-58.252-9.121-92.14-32.283-82.954-12.901-142.354.411-181.582 40.688-29.602 30.394-47.807 77.392-54.109 139.687-6.587 65.114-.452 149.582 18.236 251.058 4.207 22.846 5.244 47.802 6.246 71.936 1.746 42.038 3.395 81.744 22.548 93.952 9.663 6.159 23.558 5.326 42.478-2.549 72.937-30.355 171.697-46.962 276.226-46.962z" fill="#177267"/><path d="m1138.28 169.44-8.724 178.46-138.042-.586 25.08-191.614z" fill="#1BC2AD"/><path d="M1186.953 60.298c3.499 56.798 3.899 118.657.852 166.625l-125.807-1.753-3.868-175.621z" fill="#1BC2AD"/><path d="M1189.192 183.742s12.757 94.984 10.012 115.76c-3.091 23.395-62.449 28.506-96.904 11.94-65.78-31.628-55.693-112.796-55.693-112.796 11.3 1.265 31.856.584 36.368 2.07 38.779 12.776 77.397-9.679 106.217-16.974z" fill="#177267"/><path d="M1108.972 62.573c-3.592 29.599-17.612 52.844-45.401 67.703 0 0 .527 15.297 3.749 32.168 8.028 36.318 15.655 38.272 15.655 38.272s-13.533-.826-36.368-2.07c-2.73-21.659-3.646-43.594-3.054-65.758l-44.232-16.168c-5.499-17.55-5.507-37.119-2.62-57.753z" fill="#699D98"/><path d="M1031.718 9.939c.038-.011-.553.394-1.392 1.182-2.962 2.781-3.943 4.618-4.855 6.919 3.288-2.027 24.429-14.367 53.39-15.424 18.702-.682 24.386 4.56 44.892.374 13.505-2.757 20.832-4.053 28.794-1.939 2.11.56 5.174 1.254 8.591 3.293 14.274 8.52 17.854 27.558 17.854 27.558s1.39-7.287 1.125-10.61c-.572-7.184-3.068-12.636-4.78-15.729 0 0 19.369 15.891 21.738 34.109 2.753 21.174-9.219 36.733-9.219 36.733l-1.961-10.089c-9.21 6.309-20.753 6.675-34.335 1.847l3.947 5.365-33.022-8.943 7.683 7.773s-8.71-3.204-30.343-.517c-27.98 3.475-47.803-7.892-47.803-7.892 2.937 4.326 7.258 8.279 14.482 11.45 0 0-67.042-2.662-69.698-14.952-4.966-22.977 17.152-45.383 34.912-50.508zm136.968 182.094s-12.423 17.768-38.311 21.145c-30.028 3.917-47.401-12.462-47.401-12.462s11.77 3.468 20.985-.593c15.269-6.731 24.404-31.964 49.847-29.316 9.167.954 15.179 8.726 15.179 8.726s6.592-6.849 13.18-6.129c15.167 1.658 21.566 26.343 15.528 33.8-3.175 3.921-9.602 5.658-15.014 1.959-9.056-6.19-13.993-17.13-13.993-17.13z" fill="#177267"/><path d="M1043.342 129.932c-2.169-17.97-11.171-27.381-25.984-26.974-20.461.563-28.114 26.66-22.104 48.517 5.156 18.75 22.198 37.374 38.44 35.002 7.043-1.028 10.276-3.908 10.94-4.937 1.606-2.492-.815-47.661-1.292-51.608z" fill="#1BC2AD"/><path d="M1031.307 187.432c-7.701 0-15.423-2.401-20.566-6.885a3 3 0 1 1 3.943-4.523c6.414 5.592 19.035 7.065 27.56 3.218a3.001 3.001 0 0 1 2.469 5.469c-4.074 1.838-8.736 2.721-13.406 2.721zm92.924 160.468c29.787 21.945 67.441 61.879 75.15 59.309-8.008-31.962-22.959-61.108-35.948-75.837-9.036-10.247-26.641.304-39.202 16.528z" fill="#177267"/><path d="M1199.381 407.205c-11.26-36.67-29.316-67.346-35.947-75.833-1.934-2.475-8.933-10.337-8.933-10.337 2.93-.11 5.81-.32 8.61-.65 22.93 30.93 39.97 87.12 36.27 86.82zm-72.197-36.26s9.96 69.394-1.3 71.597c-64.816 12.68-164.253-105.038-164.253-105.038z" fill="#177267"/><path d="M1126.641 427.935c-39.36 15.64-137.38-60.09-183.61-98.64-.07-.06-.1-.09-.1-.09 12.4-25.08 46.9-65.17 59.43-64.87h.01c40.837 15.555 96.076 51.305 116.07 75.53 12.729 15.423 15.04 85.36 8.2 88.07z" fill="#fff"/><path d="M1114.626 432.988c-44.754 0-126.071-61.826-173.517-101.389-.22-.189-.3-.273-.3-.273-.862-.912-1.124-2.326-.568-3.451 12.209-24.693 47.544-66.887 62.191-66.54.341.008.688.074 1.006.196 41.404 15.771 97.321 52.197 117.316 76.424 11.82 14.321 15.112 70.524 10.926 86.796-.588 2.288-1.567 5.033-3.931 5.972-3.888 1.544-8.296 2.265-13.123 2.265zM946.69 328.437c23.687 19.677 58.401 46.959 92.302 67.948 32.672 20.229 58.421 30.623 75.562 30.624 4.02 0 7.562-.571 10.614-1.721 1.676-2.648 3.157-17.447 1.566-38.578-1.639-21.777-5.703-38.996-10.606-44.937-19.377-23.478-73.695-58.835-114.264-74.422-10.46.926-41.98 35.956-55.174 61.086zm178.846 96.709-.003.001.003-.001zm-182.605-95.941h.01z" fill="#177267"/><path d="M551.992 614.953c-353.002 0-612.514 329.878-532.288 671.162 2.847 12.113 13.602 20.712 26.045 20.712h231.566c26.27 0 39.911-20.01 29.879-44.289-12.863-31.133-19.961-65.258-19.961-101.04 0-146.235 118.572-264.758 264.758-264.758 146.228 0 264.758 118.541 264.758 264.758 0 83.859-38.985 158.616-99.821 207.13-8.691 6.931-24.175 18.149-44.783 31.611-51.976 33.953-207.505 142.451-264.243 288.614-30.799 79.293-42.273 164.477-34.585 248.221 1.265 13.782 12.785 24.351 26.625 24.351h236.732c14.186 0 23.648-11.409 21.001-25.345-22.3-117.401 44.108-228.723 151.067-291.975 117.529-69.502 205.364-162.348 252.924-284.855 138.38-356.321-124.518-744.297-509.674-744.297z" fill="#fff"/><circle cx="551.993" cy="2252.885" fill="#fff" r="161.801"/><path d="M634.613 1964.425H397.881c-15.465 0-28.195-11.64-29.612-27.077-7.775-84.69 4.25-170.994 34.775-249.581 24.467-63.028 69.767-126.106 134.642-187.479 38.308-36.241 83.523-71.705 130.757-102.561 25.561-16.698 39.672-27.553 44.553-31.445 62.72-50.016 98.692-124.658 98.692-204.785 0-69.917-27.227-135.65-76.665-185.089-49.439-49.44-115.173-76.668-185.093-76.668-69.906 0-135.634 27.226-185.077 76.662-49.448 49.442-76.68 115.176-76.68 185.096 0 34.592 6.639 68.202 19.734 99.895 5.215 12.621 4.673 24.676-1.526 33.944-6.25 9.344-17.304 14.49-31.126 14.49H43.688c-13.867 0-25.779-9.468-28.966-23.025-38.538-163.94-.446-333.949 104.507-466.435 104.925-132.45 261.909-208.414 430.701-208.414 47.228 0 93.895 5.857 138.704 17.409a540.039 540.039 0 0 1 123.964 48.953c75.481 41.229 141.364 100.989 190.524 172.818 49.244 71.951 81.164 155.187 92.31 240.71a540.806 540.806 0 0 1 .803 133.267c-5.424 45.885-16.808 91.381-33.835 135.225-23.291 59.994-57.202 114.912-100.793 163.228-41.591 46.099-93.202 87.524-153.401 123.123-53.542 31.663-96.038 74.722-122.892 124.523-28.043 52.004-37.294 108.821-26.755 164.31 1.449 7.629-.262 14.861-4.818 20.364-4.558 5.509-11.352 8.542-19.128 8.542zM549.93 893.74c71.522 0 138.763 27.852 189.335 78.426 50.571 50.573 78.422 117.812 78.422 189.331 0 81.964-36.795 158.314-100.951 209.476-4.947 3.945-19.237 14.939-45.012 31.777-46.938 30.663-91.862 65.898-129.915 101.896-64.224 60.757-109.03 123.099-133.172 185.292-30.191 77.728-42.084 163.09-34.394 246.861 1.132 12.328 11.294 21.625 23.637 21.625h236.732c5.956 0 11.109-2.261 14.509-6.368 3.396-4.101 4.655-9.577 3.545-15.418-10.8-56.857-1.336-115.047 27.368-168.277 27.373-50.761 70.638-94.622 125.119-126.84 59.676-35.29 110.816-76.33 152-121.978 43.1-47.772 76.628-102.068 99.654-161.38 16.844-43.373 28.105-88.375 33.469-133.758a534.807 534.807 0 0 0-.795-131.788c-11.024-84.59-42.599-166.923-91.312-238.097-48.629-71.053-113.794-130.163-188.449-170.941a534.084 534.084 0 0 0-122.585-48.409c-44.32-11.426-90.483-17.219-137.207-17.219-166.947 0-322.218 75.135-425.998 206.14C20.124 955.133-17.553 1123.284 20.563 1285.429c2.546 10.833 12.056 18.398 23.125 18.398h231.566c11.755 0 21.038-4.2 26.139-11.826 5.05-7.55 5.393-17.607.968-28.318-13.396-32.423-20.188-66.804-20.188-102.186 0-71.522 27.856-138.764 78.438-189.339 50.575-50.569 117.81-78.418 189.319-78.418zm.002 1523.946c-90.872 0-164.801-73.929-164.801-164.801s73.93-164.802 164.801-164.802 164.801 73.93 164.801 164.802-73.93 164.801-164.801 164.801zm0-323.603c-87.563 0-158.801 71.238-158.801 158.802 0 87.563 71.238 158.801 158.801 158.801s158.801-71.238 158.801-158.801c0-87.564-71.238-158.802-158.801-158.802z" fill="#177267"/><g fill="#1BC2AD"><path d="M1077.427 963.891c-5.037 38.213 48.961 57.035 69.125 18.199 20.825-40.11 27.413-111.932 12.076-160.92-14.164-43.124-61.682-32.779-67.304 4.018z"/><circle cx="1112.949" cy="968.021" r="35.754"/><path d="M1059.252 1015.775c7.95-27.365 14.528-57.096 25.675-69.977 24.809-30.56 75.423-5.294 61.578 34.643-7.713 21.586-39.521 71.435-60.351 80.964-20.829 9.531-36.18-13.694-26.902-45.63z"/><circle cx="1057.072" cy="845.008" transform="matrix(.9323 -.3617 .3617 .9323 -234.0487 439.4868)" r="39.44"/><path d="M1084.687 969.61c20.236-55.884 15.641-114.425 10.043-136.578-14.091-42.039-73.486-32.863-77.131 8.678l.511 116.267c3.522 40.943 53.043 44.149 66.577 11.633z"/><path d="M1051.997 924.256c-18.669.149-33.819 13.886-33.864 32.556-.046 18.67 15.03 35.008 33.7 35.054 18.67.045 34.875-15.793 34.73-32.256-.164-18.67-14.536-35.513-34.566-35.354z"/><path d="M978.969 949.756c-30.569 13.777-40.072 46.523-8.827 49.091 17.689 1.454 62.959-.259 91.06-8.274 48.283-17.951 19.386-76.285-18.262-65.065 0 0-40.936 13.867-63.971 24.248z"/><circle cx="985.753" cy="839.727" transform="matrix(.9313 -.3643 .3643 .9313 -238.184 416.8456)" r="38.552"/><path d="M1010.444 955.297c18.968-52.856 18.148-103.65 12.8-124.566-16.394-51.27-81.141-29.519-76.1 13.21l-3.01 100.819c3.438 38.673 52.906 43.174 66.31 10.537z"/><circle cx="978.405" cy="942.947" r="34.314"/><path d="M914.303 916.087c-30.499 8.572-41.551 31.187-15.153 44.625 20.904 10.641 47.729 23.434 83.387 16.285 49.848-10.699 32.25-77.638-13.292-67.127 0 0-31.96-.242-54.942 6.217z"/><circle cx="886.389" cy="911.196" r="24.509"/><path d="M848.031 844.876c-2.01 22.426 4.637 57.597 17.475 79.084 13.229 22.141 50.603 11.556 44.751-18.342 0 0-5.257-22.485-18.773-60.212-13.516-37.726-41.873-18.167-43.453-.53z"/><circle cx="913.986" cy="913.24" r="33.591"/><path d="M876.324 888.85c-5.91 2.801-10.822 5.999-12.625 11.955-2.489 8.221-2.346 21.498 9.193 31.828 15.013 13.44 38.406 14.725 40.816 14.196 47.638-3.761 42.18-66.185.556-67.18-7.46-.02-28.066 4.521-37.94 9.201z"/><circle cx="930.578" cy="830.123" transform="matrix(.9344 -.3562 .3562 .9344 -234.6511 385.9147)" r="37.791"/><path d="M945.762 924.157c18.772-50.908 26.844-87.727 20.926-105.402-17.087-44.824-73.776-27.806-73.908 11.783l-12.12 78.493c-2.984 41.067 50.84 51.86 65.102 15.126zm-94.929-313.594c-39.536 21.607-52.212 70.086-30.932 111.493 19.402 37.753 69.641 53.286 109.177 31.679s54.071-71.172 32.464-110.709c-21.607-39.535-71.173-54.07-110.709-32.463z"/><path d="M836.574 743.867c-6.085-6.783-56.922-8.42-73.253-22.233-24.3-20.553 34.601-156.507 76.288-145.758 19.193 4.949 54.837 22.56 73.442 27.836s36.446 18.892 47.412 37.552c12.497 21.267 15.846 51.92 1.619 79.019-1.045 1.99-21.759 39.921-65.182 43.468-28.333 2.315-53.152-11.887-60.326-19.884z"/><path d="M1159.206 828.476c-2.729-75.801-193.227-187.044-211.427-204.306-63.795-60.503-158.043 2.212-134.322 86.31 4.439 15.738-40.691 70.45 68.747 129.246 112.239 43.318 279.42 55.897 277.002-11.25z"/></g><path d="M1066.967 991.336a3 3 0 0 1-1.267-5.721c24.248-11.276 29.171-79.965 29.032-135.602a3.001 3.001 0 0 1 2.992-3.008c1.645.009 3.003 1.336 3.008 2.992.131 52.293-4.119 90.833-12.633 114.55-7.44 20.727-16.47 24.927-19.869 26.507-.409.191-.84.282-1.263.282zm-116.095-9.884a3 3 0 0 1-.094-5.999c21.383-.679 37.417-2.349 49.042-17.737 12.765-16.899 19.777-49.393 22.734-105.359a3.007 3.007 0 0 1 3.154-2.838 3 3 0 0 1 2.838 3.154c-6.375 120.648-32.301 127.338-77.577 128.777-.033.002-.065.002-.097.002zm-41.346-33.483c-2.756 0-5.318-.225-7.592-.505-5.008-.617-15.022-3.199-18.125-4.257a3 3 0 0 1 1.935-5.679c2.87.978 12.516 3.438 16.924 3.981 8.158 1.005 18.77 1.099 28.485-7.17 14.883-12.669 23.255-40.925 24.885-83.984a3 3 0 1 1 5.995.227c-1.695 44.807-10.777 74.524-26.991 88.326-8.567 7.291-17.795 9.061-25.516 9.061zm-27.32-62.461a3.003 3.003 0 0 1-2.723-1.736c-6.149-13.233-8.822-34.552-8.702-48.761a3 3 0 1 1 6 .05c-.118 13.988 2.642 34.342 8.144 46.182a3 3 0 0 1-2.719 4.265z" fill="#177267"/><path d="M882.201 842.727c-.479 0-.965-.115-1.417-.358-89.023-47.827-77.954-93.661-72.008-118.284.346-1.434.675-2.795.964-4.081a3 3 0 0 1 5.853 1.317 284.905 284.905 0 0 1-.986 4.172c-2.872 11.893-6.806 28.181.351 47.204 8.603 22.867 31.705 44.529 68.665 64.386a3.001 3.001 0 0 1-1.422 5.644z" fill="#177267"/><circle cx="876.857" cy="455.221" fill="#fff" r="140.482"/><path d="M499.044 754.868c87.651-7.02 269.012-61.259 448.02-175.31 136.523-86.982 70.435-270.809-82.745-266.484-186.846 5.275-496.488 178.023-526.631 257.943-34.98 92.744 15.093 188.266 161.356 183.851z" fill="#fff"/><circle cx="454.768" cy="626.737" fill="#fff" r="124.949"/><path d="M953.134 602.308c21.575 50.005-118.476 212.888-140.852 214.908-119.64 10.798-323.504-21.629-429.188-83.395-69.823-40.808-85.248-143.272-9.905-206.263 115.062-96.2 568.348 47.872 579.945 74.75z" fill="#fff"/><path d="M762.471 822.285c-51.396 0-111.062-5.72-170.557-16.605-86.186-15.768-160.884-40.369-210.334-69.27-22.148-12.944-39.425-32.361-49.962-56.151-10.311-23.279-13.493-49.063-9.203-74.567 2.613-15.533 10.579-32.761 15.095-41.648 20.647-40.634 103.298-102.001 210.563-156.338 54.046-27.378 110.16-50.696 162.273-67.433 58.563-18.808 110.338-28.968 153.888-30.198 38.414-1.084 73.665 9.489 101.947 30.578 26.021 19.402 44.942 47.136 53.278 78.093a3 3 0 1 1-5.794 1.56c-7.988-29.663-26.125-56.243-51.071-74.843-27.189-20.273-61.143-30.436-98.191-29.39-42.984 1.214-94.199 11.277-152.223 29.913-51.818 16.642-107.628 39.835-161.397 67.073-51.134 25.903-97.816 54.058-135.001 81.421-37.822 27.833-63.039 52.827-72.924 72.282-4.361 8.582-12.046 25.18-14.527 39.926-4.095 24.34-1.062 48.941 8.771 71.141 10.024 22.631 26.451 41.097 47.504 53.401 106.187 62.061 310.475 93.551 427.405 82.997 5.051-.456 22.246-14.148 48.062-43.132 25.487-28.614 49.747-61.231 66.56-89.489 21.784-36.613 29.995-63.623 23.744-78.11-2.945-6.826-53.674-29.697-141.26-54.883-94.981-27.312-192.277-45.427-266.94-49.701a3 3 0 0 1 .343-5.991c102.805 5.884 212.198 33.805 268.256 49.925 37.999 10.927 73.622 22.804 100.306 33.443 41.175 16.417 43.907 22.748 44.805 24.829 7.145 16.56-.962 44.672-24.097 83.555-17 28.572-41.507 61.526-67.236 90.412-9.185 10.312-40.08 44.041-52.003 45.117-15.465 1.397-32.278 2.083-50.08 2.083z" fill="#177267"/><path d="M1168.864 271.421c-34.505-12.538-26.678-66.441 15.002-66.412 43.047.031 106.635 26.03 141.291 60.521 30.217 30.922.59 66.53-32.976 55.109z" fill="#1BC2AD"/><circle cx="1180.986" cy="239.589" fill="#1BC2AD" r="34.056"/><path d="M1119.866 270.66c27.042 2.344 55.713 6.72 70.987 1.245 35.674-11.534 30.628-65.18-9.608-66.609-21.826-.568-77.042 10.553-92.667 25.781s-.27 36.847 31.288 39.583z" fill="#1BC2AD"/><circle cx="1260.378" cy="340.872" fill="#1BC2AD" transform="matrix(.7071 -.7071 .7071 .7071 128.123 991.0613)" r="37.567"/><path d="M1167.221 262.773c56.118 7.461 103.568 37.073 119.828 51.54 29.332 30.384-4.527 76.542-41.233 61.365l-98.026-51.532c-33.049-20.97-13.993-64.227 19.431-61.373z" fill="#1BC2AD"/><path d="M1191.18 310.331c-8.331 15.711-26.598 22.475-42.394 14.308-15.797-8.167-22.978-28.087-14.811-43.884s28.673-22.53 42.522-15.172c15.704 8.344 23.622 27.892 14.683 44.748z" fill="#1BC2AD"/><path d="M1137.536 360.835c-25.077 19.777-56.925 13.416-45.364-14.116 6.546-15.587 27.89-53.089 47.013-73.313 36.39-32.911 72.984 17.146 46.956 44.028.001 0-29.709 28.498-48.605 43.401z" fill="#1BC2AD"/><circle cx="1233.496" cy="403.461" fill="#1BC2AD" transform="matrix(.7071 -.7071 .7071 .7071 75.9928 990.3845)" r="36.721"/><path d="M1146.687 331.803c53.002 7.201 95.565 30.219 110.889 43.931 36.12 36.387-10.717 81.541-44.609 58.502l-86.519-41.767c-31.17-19.903-13.232-63.684 20.239-60.666z" fill="#1BC2AD"/><circle cx="1143.042" cy="364.304" fill="#1BC2AD" r="32.684"/><path d="M1137.566 430.278c-20.648 22.005-44.616 21.405-44.37-6.808.195-22.341 1.174-50.633 22.887-77.623 30.949-37.421 79.781 6.87 50.883 40.734.001.001-13.841 27.115-29.4 43.697z" fill="#1BC2AD"/><circle cx="1129.431" cy="456.016" fill="#1BC2AD" r="23.345"/><path d="M1168.615 517.579c-19.834-8.158-46.634-29.233-59.148-49.525-12.896-20.91 12.475-47.84 35.167-29.755 0 0 16.251 15.17 42.191 43.172s-2.611 42.524-18.21 36.108z" fill="#1BC2AD"/><circle cx="1139.833" cy="431.797" fill="#1BC2AD" r="31.996"/><path d="M1143.891 474.343c-4.965 3.763-9.825 6.508-15.651 5.414-8.041-1.51-19.198-7.466-22.856-21.757-4.76-18.593 4.437-38.926 5.943-40.731 24.115-38.603 74.468-6.555 57.014 29.056-3.262 6.314-16.156 21.731-24.45 28.018z" fill="#1BC2AD"/><circle cx="1217.362" cy="454.307" fill="#1BC2AD" transform="matrix(.7071 -.7071 .7071 .7071 35.3134 993.8685)" r="35.996"/><path d="M1144.573 400.147c51.27 6.512 85.931 15.872 98.266 28.642 30.368 34.139-8.928 74.565-42.44 57.277l-71.657-24.256c-36.014-15.529-21.479-65.756 15.831-61.663z" fill="#1BC2AD"/><path d="M1380.691 539.721c-8.826 41.997-49.548 66.894-93.162 58.881-39.765-7.306-67.751-48.846-58.924-90.843s50.027-68.888 92.024-60.062 68.888 50.027 60.062 92.024z" fill="#1BC2AD"/><path d="M1246.052 574.398c7.859 3.683 23.338 49.591 40.427 60.683 25.427 16.505 133.201-74.609 111.93-109.667-9.793-16.141-35.659-43.799-45.588-59.314s-27.255-28.038-47.288-32.904c-22.831-5.546-51.706-.167-72.503 20.263-1.527 1.5-30.418 30.825-21.706 71.399 5.683 26.473 25.462 45.198 34.728 49.54z" fill="#1BC2AD"/><path d="M1319.238 261.831c62.856 35.622 53.136 215.491 59.723 238.458 23.089 80.5-71.33 132.581-131.971 75.574-11.348-10.668-51.828-3.131-59.003-84.898-10.227-116.534 75.571-260.689 131.251-229.134z" fill="#1BC2AD"/><path d="M1266.285 288.365c-.704 0-1.41-.246-1.98-.747-8.715-7.665-25.038-14.118-45.961-18.17-17.585-3.405-37.08-4.817-50.877-3.684-12.404 1.019-19.872 3.626-24.972 8.718a3 3 0 0 1-4.24-4.246c7.783-7.772 18.886-9.645 28.72-10.453 24.542-2.015 79.38 4.057 101.292 23.328a3 3 0 0 1-1.982 5.254zm-165.173 86.153a3 3 0 0 1-2.792-4.096c3.699-9.427 8.889-18.328 15.427-26.454 11.389-13.771 25.052-15.63 35.686-15.715 15.196-.121 64.462 5.695 90.497 20.153a3 3 0 1 1-2.913 5.245c-25.064-13.919-72.78-19.518-87.536-19.399-9.913.079-21.357 1.746-31.085 13.507-6.217 7.728-10.965 15.868-14.49 24.853a3.004 3.004 0 0 1-2.794 1.906zm2.982 72.527-.145-.003a3 3 0 0 1-2.854-3.139c.65-13.667 5.888-25.729 7.75-28.325 10.309-16.413 24.92-18.421 36.526-18.332 14.19.109 51.746 4.934 78.367 16.072a3 3 0 0 1-2.316 5.535c-23.555-9.855-59.947-15.484-76.097-15.607-10.683-.081-22.769 1.709-31.455 15.613a3.032 3.032 0 0 1-.241.333c-.977 1.365-5.942 12.416-6.54 24.996a3 3 0 0 1-2.995 2.857zm83.943 47.444a3 3 0 0 1-.577-.056c-10.822-2.11-32.589-9.081-45.523-21.823a3 3 0 0 1 4.211-4.274c10.373 10.218 29.281 17.638 42.461 20.208a3 3 0 0 1-.572 5.945z" fill="#177267"/><path d="M1191.27 517.3a3.002 3.002 0 0 1-2.922-2.332c-2.729-11.93-4.094-25.657-4.057-40.797a3 3 0 0 1 3-2.993h.008a3 3 0 0 1 2.993 3.007c-.036 14.686 1.278 27.957 3.906 39.445a3 3 0 0 1-2.928 3.67z" fill="#177267"/><circle cx="1524.178" cy="884.574" fill="url(#a)" r="124.949"/><path d="M1396.157 462.293c-54.328-3.794-173.913 165.42-168.407 187.201 29.44 116.463 124.729 253.866 218.015 333.124 61.631 52.365 163.421 32.979 197.901-58.975 52.655-140.431-218.308-459.311-247.509-461.35z" fill="#fff"/><path d="M1523.995 1014.227c-29.125.001-57.644-10.18-80.173-29.322-46.734-39.707-94.147-94.127-133.504-153.234-41.772-62.734-71.329-125.476-85.477-181.441-3.592-14.21 33.454-71.407 68.95-113.853 24.858-29.725 71.245-79.264 102.575-77.077 11.939.834 46.24 38.182 60.434 54.202a3 3 0 1 1-4.491 3.979c-31.316-35.344-51.167-51.832-56.36-52.195-20.946-1.464-56.504 25.852-97.554 74.94-18.381 21.98-36.476 46.915-49.645 68.411-14.752 24.079-18.965 36.663-18.091 40.122 13.982 55.312 43.255 117.412 84.654 179.586 39.056 58.655 86.075 112.632 132.395 151.987 29.15 24.767 68.856 33.766 106.216 24.072 39.605-10.277 71.292-40.097 86.934-81.814 21.008-56.028-12.696-139.552-44.67-199.754-5.009-9.432-10.101-19.261-15.491-29.668-15.297-29.536-31.116-60.077-47.344-85.941a3 3 0 1 1 5.082-3.189c16.36 26.073 32.236 56.726 47.59 86.37 5.382 10.392 10.467 20.208 15.461 29.613 21.674 40.809 36.775 78.032 44.884 110.635 9.358 37.628 9.394 69.268.105 94.04-16.338 43.571-49.522 74.74-91.045 85.515a125.124 125.124 0 0 1-31.435 4.016z" fill="#177267"/></svg></g></svg>