<svg width="60" height="60" viewBox="0 0 60 60" fill="none" xmlns="http://www.w3.org/2000/svg">
<path d="M39.375 39.375C39.375 38.3805 38.9799 37.4266 38.2766 36.7234C37.5734 36.0201 36.6196 35.625 35.625 35.625H23.5594L24.375 29.175C24.3796 29.1377 24.3796 29.0999 24.375 29.0625C24.375 23.8688 20.7 22.5 18.75 22.5C18.5396 22.4923 18.3327 22.5555 18.1626 22.6797C17.9925 22.8038 17.8692 22.9816 17.8125 23.1844L14.0625 36.2063C13.4326 37.4484 12.4555 38.4808 11.25 39.1782V38.4375C11.25 38.1889 11.1512 37.9504 10.9754 37.7746C10.7996 37.5988 10.5611 37.5 10.3125 37.5H0.9375C0.68886 37.5 0.450403 37.5988 0.274587 37.7746C0.0987721 37.9504 0 38.1889 0 38.4375L0 59.0625C0 59.3112 0.0987721 59.5496 0.274587 59.7254C0.450403 59.9013 0.68886 60 0.9375 60H10.3125C10.5611 60 10.7996 59.9013 10.9754 59.7254C11.1512 59.5496 11.25 59.3112 11.25 59.0625V58.4344L16.6219 60C16.7056 60.0144 16.7912 60.0144 16.875 60H32.8125C33.5227 59.99 34.2155 59.7785 34.8102 59.3901C35.4049 59.0017 35.8771 58.4524 36.1717 57.8061C36.4664 57.1598 36.5714 56.4431 36.4747 55.7394C36.3779 55.0357 36.0832 54.374 35.625 53.8313C36.0894 53.5518 36.4877 53.1749 36.7924 52.7267C37.0971 52.2785 37.3011 51.7695 37.3902 51.2348C37.4793 50.7002 37.4514 50.1526 37.3085 49.6298C37.1657 49.1069 36.9111 48.6213 36.5625 48.2063C37.0269 47.9268 37.4252 47.5499 37.7299 47.1017C38.0346 46.6535 38.2386 46.1445 38.3277 45.6098C38.4168 45.0752 38.3889 44.5276 38.246 44.0048C38.1032 43.4819 37.8486 42.9963 37.5 42.5813C38.064 42.2557 38.5336 41.7888 38.8623 41.2266C39.1911 40.6644 39.3678 40.0263 39.375 39.375ZM9.375 58.125H1.875V39.375H9.375V58.125ZM32.8125 58.125H17.0062L11.25 56.4844V41.1375C14.0625 40.4907 15.7594 37.1438 15.8344 36.9844C15.8603 36.9298 15.8822 36.8734 15.9 36.8157L19.4344 24.4594C20.5312 24.7032 22.4813 25.6125 22.5 29.0063L21.5625 36.45C21.5465 36.5809 21.5582 36.7136 21.597 36.8397C21.6358 36.9657 21.7007 37.0821 21.7875 37.1813C21.8764 37.2825 21.986 37.3633 22.109 37.4183C22.232 37.4733 22.3653 37.5012 22.5 37.5H35.625C36.1223 37.5 36.5992 37.6976 36.9508 38.0492C37.3025 38.4008 37.5 38.8777 37.5 39.375C37.5 39.8723 37.3025 40.3492 36.9508 40.7009C36.5992 41.0525 36.1223 41.25 35.625 41.25H30.9375C30.6889 41.25 30.4504 41.3488 30.2746 41.5246C30.0988 41.7004 30 41.9389 30 42.1875C30 42.4362 30.0988 42.6746 30.2746 42.8504C30.4504 43.0263 30.6889 43.125 30.9375 43.125H34.6875C35.1848 43.125 35.6617 43.3226 36.0133 43.6742C36.365 44.0258 36.5625 44.5027 36.5625 45C36.5625 45.4973 36.365 45.9742 36.0133 46.3259C35.6617 46.6775 35.1848 46.875 34.6875 46.875H30C29.7514 46.875 29.5129 46.9738 29.3371 47.1496C29.1613 47.3254 29.0625 47.5639 29.0625 47.8125C29.0625 48.0612 29.1613 48.2996 29.3371 48.4754C29.5129 48.6513 29.7514 48.75 30 48.75H33.75C34.2473 48.75 34.7242 48.9476 35.0758 49.2992C35.4275 49.6508 35.625 50.1277 35.625 50.625C35.625 51.1223 35.4275 51.5992 35.0758 51.9509C34.7242 52.3025 34.2473 52.5 33.75 52.5H29.0625C28.8139 52.5 28.5754 52.5988 28.3996 52.7746C28.2238 52.9504 28.125 53.1889 28.125 53.4375C28.125 53.6862 28.2238 53.9246 28.3996 54.1004C28.5754 54.2763 28.8139 54.375 29.0625 54.375H32.8125C33.3098 54.375 33.7867 54.5726 34.1383 54.9242C34.49 55.2758 34.6875 55.7528 34.6875 56.25C34.6875 56.7473 34.49 57.2242 34.1383 57.5759C33.7867 57.9275 33.3098 58.125 32.8125 58.125Z" fill="#FE762A"/>
<path d="M12.1875 14.0625H13.125V15C13.125 15.2486 13.2238 15.4871 13.3996 15.6629C13.5754 15.8387 13.8139 15.9375 14.0625 15.9375C14.3111 15.9375 14.5496 15.8387 14.7254 15.6629C14.9012 15.4871 15 15.2486 15 15V14.0625H15.9375C16.1861 14.0625 16.4246 13.9637 16.6004 13.7879C16.7762 13.6121 16.875 13.3736 16.875 13.125C16.875 12.8764 16.7762 12.6379 16.6004 12.4621C16.4246 12.2863 16.1861 12.1875 15.9375 12.1875H15V11.25C15 11.0014 14.9012 10.7629 14.7254 10.5871C14.5496 10.4113 14.3111 10.3125 14.0625 10.3125C13.8139 10.3125 13.5754 10.4113 13.3996 10.5871C13.2238 10.7629 13.125 11.0014 13.125 11.25V12.1875H12.1875C11.9389 12.1875 11.7004 12.2863 11.5246 12.4621C11.3488 12.6379 11.25 12.8764 11.25 13.125C11.25 13.3736 11.3488 13.6121 11.5246 13.7879C11.7004 13.9637 11.9389 14.0625 12.1875 14.0625Z" fill="#FE762A"/>
<path d="M50.625 46.875H49.6875V45.9375C49.6875 45.6889 49.5887 45.4504 49.4129 45.2746C49.2371 45.0988 48.9986 45 48.75 45C48.5014 45 48.2629 45.0988 48.0871 45.2746C47.9113 45.4504 47.8125 45.6889 47.8125 45.9375V46.875H46.875C46.6264 46.875 46.3879 46.9738 46.2121 47.1496C46.0363 47.3254 45.9375 47.5639 45.9375 47.8125C45.9375 48.0611 46.0363 48.2996 46.2121 48.4754C46.3879 48.6512 46.6264 48.75 46.875 48.75H47.8125V49.6875C47.8125 49.9361 47.9113 50.1746 48.0871 50.3504C48.2629 50.5262 48.5014 50.625 48.75 50.625C48.9986 50.625 49.2371 50.5262 49.4129 50.3504C49.5887 50.1746 49.6875 49.9361 49.6875 49.6875V48.75H50.625C50.8736 48.75 51.1121 48.6512 51.2879 48.4754C51.4637 48.2996 51.5625 48.0611 51.5625 47.8125C51.5625 47.5639 51.4637 47.3254 51.2879 47.1496C51.1121 46.9738 50.8736 46.875 50.625 46.875Z" fill="#FE762A"/>
<path d="M39.375 6.04993e-05C33.9049 6.04993e-05 28.6589 2.17305 24.7909 6.04098C20.923 9.90892 18.75 15.155 18.75 20.6251C18.75 20.8737 18.8488 21.1122 19.0246 21.288C19.2004 21.4638 19.4389 21.5626 19.6875 21.5626C19.9361 21.5626 20.1746 21.4638 20.3504 21.288C20.5262 21.1122 20.625 20.8737 20.625 20.6251C20.6261 17.0698 21.638 13.5882 23.5426 10.5861C25.4472 7.5841 28.1661 5.18544 31.3821 3.66989C34.5982 2.15434 38.1788 1.58437 41.7065 2.02645C45.2341 2.46852 48.5634 3.90443 51.306 6.16671C54.0486 8.42898 56.0915 11.4244 57.1965 14.8036C58.3014 18.1827 58.4228 21.8064 57.5466 25.252C56.6704 28.6976 54.8326 31.823 52.2477 34.2639C49.6627 36.7047 46.437 38.3603 42.9469 39.0376C42.6982 39.0612 42.4692 39.1826 42.31 39.3751C42.1509 39.5676 42.0748 39.8155 42.0984 40.0641C42.1221 40.3128 42.2435 40.5418 42.436 40.701C42.6285 40.8601 42.8764 40.9362 43.125 40.9126H43.3031C48.3854 39.9833 52.9338 37.1805 56.0487 33.0585C59.1635 28.9365 60.6179 23.7956 60.1241 18.6527C59.6303 13.5098 57.2244 8.73955 53.3821 5.28553C49.5399 1.83151 44.5412 -0.0546846 39.375 6.04993e-05Z" fill="#FE762A"/>
<path d="M47.8125 24.375C47.8125 22.3859 47.0223 20.4782 45.6158 19.0717C44.2093 17.6652 42.3016 16.875 40.3125 16.875H38.4375C37.9402 16.875 37.4633 16.6775 37.1117 16.3258C36.76 15.9742 36.5625 15.4973 36.5625 15C36.5625 14.5027 36.76 14.0258 37.1117 13.6742C37.4633 13.3225 37.9402 13.125 38.4375 13.125H45C45.7459 13.125 46.4613 12.8287 46.9887 12.3012C47.5162 11.7738 47.8125 11.0584 47.8125 10.3125C47.8125 9.56658 47.5162 8.85121 46.9887 8.32376C46.4613 7.79632 45.7459 7.5 45 7.5H42.1875V4.6875C42.1875 4.43886 42.0887 4.2004 41.9129 4.02459C41.7371 3.84877 41.4986 3.75 41.25 3.75H37.5C37.2514 3.75 37.0129 3.84877 36.8371 4.02459C36.6613 4.2004 36.5625 4.43886 36.5625 4.6875V7.74375C34.8 8.20438 33.2654 9.29075 32.2452 10.8C31.2251 12.3093 30.7891 14.1382 31.0187 15.9454C31.2484 17.7526 32.1279 19.4144 33.4931 20.6206C34.8583 21.8267 36.6158 22.4948 38.4375 22.5H40.3125C40.8098 22.5 41.2867 22.6975 41.6383 23.0492C41.99 23.4008 42.1875 23.8777 42.1875 24.375C42.1875 24.8723 41.99 25.3492 41.6383 25.7008C41.2867 26.0525 40.8098 26.25 40.3125 26.25H33.75C33.0041 26.25 32.2887 26.5463 31.7613 27.0738C31.2338 27.6012 30.9375 28.3166 30.9375 29.0625C30.9375 29.8084 31.2338 30.5238 31.7613 31.0512C32.2887 31.5787 33.0041 31.875 33.75 31.875H36.5625V34.6875C36.5625 34.9361 36.6613 35.1746 36.8371 35.3504C37.0129 35.5262 37.2514 35.625 37.5 35.625H41.25C41.4986 35.625 41.7371 35.5262 41.9129 35.3504C42.0887 35.1746 42.1875 34.9361 42.1875 34.6875V31.6313C43.7965 31.2158 45.222 30.2778 46.2401 28.9644C47.2582 27.6511 47.8113 26.0368 47.8125 24.375ZM41.1188 29.9344C40.8935 29.9662 40.6875 30.0789 40.5392 30.2514C40.3908 30.4238 40.3103 30.6444 40.3125 30.8719V33.75H38.4375V30.9375C38.4375 30.6889 38.3387 30.4504 38.1629 30.2746C37.9871 30.0988 37.7486 30 37.5 30H33.75C33.5014 30 33.2629 29.9012 33.0871 29.7254C32.9113 29.5496 32.8125 29.3111 32.8125 29.0625C32.8125 28.8139 32.9113 28.5754 33.0871 28.3996C33.2629 28.2238 33.5014 28.125 33.75 28.125H40.3125C41.3071 28.125 42.2609 27.7299 42.9641 27.0266C43.6674 26.3234 44.0625 25.3696 44.0625 24.375C44.0625 23.3804 43.6674 22.4266 42.9641 21.7234C42.2609 21.0201 41.3071 20.625 40.3125 20.625H38.4375C37.0242 20.6127 35.6673 20.0687 34.6368 19.1014C33.6063 18.1341 32.9778 16.8144 32.8761 15.4047C32.7745 13.995 33.2073 12.5987 34.0884 11.4936C34.9695 10.3885 36.2343 9.65554 37.6312 9.44062C37.8565 9.40879 38.0625 9.29612 38.2108 9.12364C38.3592 8.95115 38.4397 8.73061 38.4375 8.50312V5.625H40.3125V8.4375C40.3125 8.68614 40.4113 8.9246 40.5871 9.10041C40.7629 9.27623 41.0014 9.375 41.25 9.375H45C45.2486 9.375 45.4871 9.47377 45.6629 9.64959C45.8387 9.8254 45.9375 10.0639 45.9375 10.3125C45.9375 10.5611 45.8387 10.7996 45.6629 10.9754C45.4871 11.1512 45.2486 11.25 45 11.25H38.4375C37.4429 11.25 36.4891 11.6451 35.7859 12.3483C35.0826 13.0516 34.6875 14.0054 34.6875 15C34.6875 15.9946 35.0826 16.9484 35.7859 17.6516C36.4891 18.3549 37.4429 18.75 38.4375 18.75H40.3125C41.7258 18.7623 43.0827 19.3063 44.1132 20.2736C45.1437 21.2409 45.7722 22.5606 45.8739 23.9703C45.9755 25.38 45.5427 26.7763 44.6616 27.8814C43.7805 28.9865 42.5157 29.7195 41.1188 29.9344Z" fill="#FE762A"/>
</svg>
