<svg width="273" height="273" viewBox="0 0 273 273" fill="none" xmlns="http://www.w3.org/2000/svg">
<g opacity="0.1" clip-path="url(#clip0_380_1609)">
<path d="M239.874 152.002C239.391 146.415 236.718 141.199 231.971 137.391L208.089 118.24L208.32 117.952C211.204 114.356 212.534 109.749 211.935 105.486C211.45 101.079 209.295 96.9871 205.698 94.1028L162.539 59.4921C158.798 56.4925 154.336 55.2776 149.929 55.7621C145.522 56.2465 141.429 58.4017 138.545 61.9984L138.315 62.2861L114.577 43.2502C109.829 39.443 104.157 37.9675 98.598 38.7098C93.1541 39.3083 87.6789 42.0091 83.9871 46.6127L26.5332 118.258C22.726 123.005 21.2506 128.677 21.9929 134.236C22.5913 139.68 25.2921 145.156 29.8958 148.847L147.29 242.989C152.037 246.796 157.709 248.271 163.269 247.529C168.713 246.931 174.188 244.23 177.88 239.626L235.333 167.981C239.141 163.234 240.616 157.562 239.874 152.002ZM170.399 233.627L170.255 233.511C168.178 236.101 165.325 237.595 162.214 237.937C159.103 238.279 155.994 237.44 153.404 235.364L36.0103 141.223C33.4208 139.146 31.9265 136.293 31.5845 133.182C31.2426 130.071 32.0814 126.962 34.1581 124.372L91.6119 52.7273C93.6886 50.1377 96.5415 48.6435 99.6523 48.3015C102.763 47.9596 105.873 48.7984 108.462 50.8751L136.228 73.1413C138.386 74.8718 141.497 74.5299 143.228 72.3719L146.573 68.1998C147.842 66.6173 149.571 65.6401 151.386 65.4406C153.201 65.2412 155.101 65.8194 156.683 67.0885L199.699 101.584C201.282 102.853 202.259 104.582 202.458 106.397C202.658 108.211 202.08 110.111 200.81 111.694L197.465 115.866C195.734 118.024 196.076 121.135 198.234 122.865L226 145.132C228.59 147.208 230.084 150.061 230.426 153.172C230.768 156.283 229.929 159.392 227.852 161.982L170.399 233.627Z" fill="#292F2D"/>
<path d="M159.313 107.727C149.53 99.8824 137.38 96.7577 125.974 98.0116C114.308 99.2939 103.386 104.955 95.5411 114.738C87.696 124.52 84.5713 136.67 85.8251 148.077C87.1075 159.742 92.7683 170.664 102.551 178.509C112.334 186.354 124.484 189.479 135.89 188.225C147.556 186.943 158.478 181.282 166.323 171.499C174.168 161.716 177.293 149.566 176.039 138.16C174.785 126.754 169.096 115.573 159.313 107.727ZM134.692 178.518C125.734 179.372 116.291 176.999 108.666 170.884C101.041 164.77 96.6734 156.067 95.5607 147.138C94.5633 138.065 97.0799 128.736 103.194 121.111C109.309 113.486 118.012 109.119 126.941 108.006C136.014 107.009 145.343 109.526 152.967 115.64C160.592 121.755 164.96 130.457 166.072 139.387C167.07 148.46 164.553 157.788 158.439 165.413C152.468 173.153 143.765 177.521 134.692 178.518Z" fill="#292F2D"/>
<path d="M199.341 162.755C203.234 165.877 208.921 165.252 212.043 161.359C215.165 157.465 214.54 151.778 210.647 148.656C206.754 145.534 201.067 146.159 197.945 150.052C194.822 153.946 195.448 159.633 199.341 162.755Z" fill="#292F2D"/>
</g>
<defs>
<clipPath id="clip0_380_1609">
<rect width="194" height="194" fill="white" transform="translate(121.367) rotate(38.727)"/>
</clipPath>
</defs>
</svg>
