<svg width="64" height="64" viewBox="0 0 64 64" fill="none" xmlns="http://www.w3.org/2000/svg">
<rect width="64" height="64" rx="8" fill="#FFEBE8"/>
<path d="M50.77 20.522L52.904 18.3883C53.2585 18.0335 53.3753 17.5051 53.2031 17.0341C53.0309 16.5628 52.6008 16.2345 52.1006 16.1922L48.1418 15.8582L47.8078 11.8994C47.7658 11.3995 47.4372 10.9695 46.9662 10.7973C46.4952 10.6247 45.9669 10.7415 45.612 11.0964L43.478 13.23C40.0271 11.1142 36.0814 10 32 10C26.1237 10 20.5988 12.2884 16.4436 16.4436C12.2884 20.5988 10 26.1237 10 32C10 37.8763 12.2884 43.4012 16.4436 47.5564C20.5988 51.7116 26.1237 54 32 54C37.8763 54 43.4012 51.7116 47.5564 47.5564C51.7116 43.4012 54 37.8763 54 32C54 27.9186 52.8858 23.9732 50.77 20.522ZM45.6641 17.1597C45.7171 17.7861 46.2139 18.2829 46.8403 18.3359L49.118 18.528L46.035 21.611L42.6727 21.3273L42.389 17.965L45.472 14.882L45.6641 17.1597ZM36.3828 32C36.3828 34.4167 34.4167 36.3828 32 36.3828C29.5833 36.3828 27.6172 34.4167 27.6172 32C27.6172 29.5833 29.5833 27.6172 32 27.6172C32.7402 27.6172 33.4374 27.8022 34.0494 28.1274L31.0886 31.0886C30.5851 31.5918 30.5851 32.4079 31.0886 32.9114C31.34 33.1632 31.67 33.2891 32 33.2891C32.33 33.2891 32.66 33.1632 32.9114 32.9114L35.8726 29.9506C36.1978 30.5626 36.3828 31.2598 36.3828 32V32ZM35.9232 26.2536C34.8054 25.4882 33.4542 25.0391 32 25.0391C28.1617 25.0391 25.0391 28.1617 25.0391 32C25.0391 35.8383 28.1617 38.9609 32 38.9609C35.8383 38.9609 38.9609 35.8383 38.9609 32C38.9609 30.5458 38.5118 29.1946 37.7464 28.0768L41.4269 24.3962C43.1084 26.4768 44.1172 29.1228 44.1172 32C44.1172 38.6813 38.6813 44.1172 32 44.1172C25.3187 44.1172 19.8828 38.6813 19.8828 32C19.8828 25.3187 25.3187 19.8828 32 19.8828C34.8772 19.8828 37.5232 20.8916 39.6038 22.5731L35.9232 26.2536ZM45.7332 45.7332C42.0651 49.4017 37.1878 51.4219 32 51.4219C26.8122 51.4219 21.9349 49.4017 18.2668 45.7332C14.5983 42.0651 12.5781 37.1878 12.5781 32C12.5781 26.8122 14.5983 21.9349 18.2668 18.2668C21.9349 14.5983 26.8122 12.5781 32 12.5781C35.3939 12.5781 38.6813 13.4499 41.5968 15.1113L40.1429 16.5652C39.9079 16.8001 39.774 17.115 39.7656 17.4437C39.7646 17.4907 39.7659 17.5377 39.7696 17.585L39.9432 19.6418C37.6514 18.1634 34.9242 17.3047 32 17.3047C23.897 17.3047 17.3047 23.897 17.3047 32C17.3047 40.103 23.897 46.6953 32 46.6953C40.103 46.6953 46.6953 40.103 46.6953 32C46.6953 29.0758 45.8366 26.3486 44.3582 24.0568L46.415 24.2304C46.4513 24.2331 46.4875 24.2347 46.5234 24.2347C46.5295 24.2347 46.5359 24.2341 46.5419 24.2337C46.559 24.2337 46.5758 24.2324 46.5929 24.2314C46.6208 24.2297 46.649 24.228 46.6765 24.2247C46.6936 24.2223 46.7108 24.2196 46.7279 24.2169C46.7551 24.2126 46.7819 24.2076 46.8088 24.2015C46.8259 24.1975 46.8427 24.1931 46.8595 24.1888C46.8857 24.1817 46.9115 24.1736 46.9373 24.1649C46.9541 24.1592 46.9706 24.1535 46.987 24.1471C47.0122 24.1374 47.037 24.1266 47.0619 24.1149C47.0777 24.1078 47.0934 24.1008 47.1092 24.0927C47.1341 24.08 47.1582 24.0659 47.1821 24.0518C47.1965 24.0431 47.2109 24.035 47.225 24.0263C47.2505 24.0095 47.2751 23.9914 47.2996 23.9729C47.311 23.9642 47.3227 23.9565 47.3338 23.9474C47.3687 23.9192 47.4026 23.8893 47.4348 23.8571L48.8887 22.4032C50.5501 25.3187 51.4219 28.6061 51.4219 32C51.4219 37.1878 49.4017 42.0651 45.7332 45.7332V45.7332Z" fill="#EA6249"/>
</svg>
