<svg width="64" height="64" viewBox="0 0 64 64" fill="none" xmlns="http://www.w3.org/2000/svg">
<rect y="0.00012207" width="64" height="64" rx="8" fill="#FFEBE8"/>
<g clip-path="url(#clip0_101_331)">
<path d="M31.9967 17.8236C24.1798 17.8236 17.8203 24.1831 17.8203 32C17.8203 39.8168 24.1798 46.1763 31.9967 46.1763C39.8135 46.1763 46.173 39.8168 46.173 32C46.173 24.1831 39.8136 17.8236 31.9967 17.8236ZM31.9967 43.5988C25.6011 43.5988 20.3978 38.3956 20.3978 32C20.3978 25.6044 25.6011 20.4011 31.9967 20.4011C38.3923 20.4011 43.5955 25.6044 43.5955 32C43.5955 38.3956 38.3924 43.5988 31.9967 43.5988Z" fill="#EA6249"/>
<path d="M37.5308 27.2226L30.7095 34.0438L26.4657 29.8001C25.9624 29.2968 25.1464 29.2968 24.6431 29.8001C24.1398 30.3034 24.1398 31.1194 24.6431 31.6227L29.7981 36.7777C30.0498 37.0293 30.3796 37.1552 30.7094 37.1552C31.0391 37.1552 31.3691 37.0294 31.6206 36.7777L39.3532 29.0451C39.8565 28.5418 39.8565 27.7259 39.3532 27.2226C38.8501 26.7193 38.034 26.7193 37.5308 27.2226Z" fill="#EA6249"/>
<path d="M52.1546 22.9642C52.1503 22.9616 47.6534 20.2698 47.6534 20.2698L46.6439 16.0892C46.196 14.2342 44.4903 12.9943 42.5873 13.1419L37.4629 13.5385C37.4629 13.5385 34.511 10.9333 34.5052 10.9284C33.0525 9.69102 30.9436 9.69102 29.4909 10.9284C29.4852 10.9333 26.5332 13.5385 26.5332 13.5385L21.4088 13.1419C19.5211 12.9953 17.8284 14.2135 17.3636 16.043L15.9584 20.5206C15.9584 20.5206 11.8509 22.9609 11.8455 22.9642C10.2197 23.9634 9.56799 25.969 10.2961 27.7331L12.0495 31.9821L10.2961 36.2311C9.56799 37.9951 10.2197 40.0007 11.8456 40.9999C11.8506 41.003 16.3387 43.6773 16.3387 43.6773L17.3524 47.8749C17.7761 49.6301 19.3259 50.8343 21.1032 50.8341C21.375 50.8341 21.0697 50.8444 26.4801 50.4298C26.4801 50.4298 29.4862 53.0678 29.491 53.0718C30.2174 53.6905 31.1077 53.9999 31.9982 53.9999C32.8885 53.9999 33.779 53.6905 34.5053 53.0718C34.5101 53.0677 37.5163 50.4298 37.5163 50.4298L42.5874 50.8222C44.4898 50.9692 46.1962 49.73 46.644 47.8749L47.6534 43.6943C53.1562 40.4004 51.9894 41.1018 52.1547 40.9998C53.7804 40.0006 54.4321 37.995 53.704 36.231L51.9506 31.9819L53.704 27.7329C54.432 25.969 53.7804 23.9635 52.1546 22.9642ZM49.365 32.4737L51.3213 37.2144C51.5633 37.8005 51.3482 38.4667 50.8101 38.8009L45.8657 41.7606C45.5689 41.9382 45.356 42.2277 45.2748 42.5639L44.1384 47.2702C43.9892 47.8884 43.4214 48.3014 42.7862 48.2525L37.1738 47.8181C36.8281 47.7914 36.4852 47.9053 36.2243 48.1344L32.8278 51.115C32.3457 51.5207 31.6505 51.5207 31.1684 51.1148L27.7721 48.1344C27.5111 47.9053 27.1681 47.7912 26.8226 47.8181L21.2101 48.2525C20.5755 48.3015 20.0072 47.8884 19.858 47.2701L18.7171 42.5452C18.6357 42.2082 18.4219 41.9181 18.124 41.7406L13.189 38.8001C12.6517 38.4657 12.437 37.8001 12.6788 37.2143L14.6351 32.4736C14.7651 32.1588 14.7651 31.8053 14.6351 31.4904L12.6785 26.7497C12.4369 26.1643 12.6513 25.499 13.188 25.1645L17.6987 22.4848C17.9716 22.3227 18.175 22.0656 18.27 21.7628C19.9324 16.4628 19.8386 16.7739 19.8578 16.6941C20.007 16.0758 20.5738 15.6622 21.21 15.7117L26.8779 16.1504C27.2257 16.1772 27.5689 16.0622 27.8302 15.8317L31.1696 12.8844C31.651 12.4801 32.3449 12.4801 32.8263 12.8842L36.1659 15.8317C36.4272 16.0624 36.7712 16.1772 37.1182 16.1504L42.7861 15.7117C43.4201 15.6627 43.9891 16.0757 44.1383 16.6941L45.2747 21.4004C45.3559 21.7365 45.5688 22.026 45.8656 22.2037L50.81 25.1634C51.3481 25.4975 51.5633 26.1636 51.3213 26.7497L49.3649 31.4904C49.235 31.8054 49.235 32.1588 49.365 32.4737Z" fill="#EA6249"/>
</g>
<defs>
<clipPath id="clip0_101_331">
<rect width="44" height="44" fill="white" transform="translate(10 10.0001)"/>
</clipPath>
</defs>
</svg>
