<svg width="64" height="64" viewBox="0 0 64 64" fill="none" xmlns="http://www.w3.org/2000/svg">
<rect width="64" height="64" rx="8" fill="#FFEBE8"/>
<path d="M12.5781 32C12.5781 21.2907 21.2907 12.5781 32 12.5781C36.0276 12.5781 39.8687 13.7994 43.1028 16.0661H40.6042C39.8923 16.0661 39.3152 16.6432 39.3152 17.3551C39.3152 18.067 39.8923 18.6442 40.6042 18.6442H46.645C47.3569 18.6442 47.934 18.067 47.934 17.3551V11.3144C47.934 10.6025 47.3569 10.0254 46.645 10.0254C45.933 10.0254 45.3559 10.6025 45.3559 11.3144V14.5232C41.5379 11.5898 36.8907 10 32 10C26.1236 10 20.5989 12.2884 16.4436 16.4436C12.2884 20.5989 10 26.1236 10 32C10 35.8604 11.0202 39.6641 12.9502 42.9998C13.1891 43.4128 13.6221 43.6435 14.0672 43.6435C14.2863 43.6435 14.5084 43.5876 14.7116 43.47C15.3278 43.1134 15.5382 42.3249 15.1818 41.7086C13.4785 38.7648 12.5781 35.4076 12.5781 32Z" fill="#EA6249"/>
<path d="M51.0496 21.0001C50.693 20.3838 49.9042 20.1735 49.2882 20.53C48.6721 20.8866 48.4616 21.6751 48.8181 22.2914C50.5214 25.235 51.4217 28.5921 51.4217 31.9999C51.4217 42.7092 42.7091 51.4218 31.9998 51.4218C27.9726 51.4218 24.1322 50.2002 20.8984 47.9338H23.3956C24.1075 47.9338 24.6847 47.3567 24.6847 46.6448C24.6847 45.9329 24.1075 45.3557 23.3956 45.3557H17.355C16.6431 45.3557 16.0659 45.9329 16.0659 46.6448V52.6855C16.0659 53.3974 16.6431 53.9746 17.355 53.9746C18.0669 53.9746 18.644 53.3974 18.644 52.6855V49.4735C22.4619 52.4079 27.1085 53.9999 31.9998 53.9999C37.8762 53.9999 43.4009 51.7115 47.5562 47.5563C51.7114 43.401 53.9998 37.8763 53.9998 31.9999C53.9998 28.1393 52.9797 24.3357 51.0496 21.0001Z" fill="#EA6249"/>
<path d="M43.465 29.4101C43.5534 29.0798 43.5071 28.728 43.3361 28.432L40.758 23.9665C40.5871 23.6704 40.3055 23.4544 39.9753 23.3659C39.645 23.2774 39.2932 23.3237 38.9972 23.4947L37.5297 24.3419C37.0078 23.9633 36.4522 23.6414 35.867 23.3787V21.6875C35.867 20.9756 35.2898 20.3984 34.5779 20.3984H29.4217C28.7098 20.3984 28.1326 20.9756 28.1326 21.6875V23.3786C27.5474 23.6414 26.9919 23.9632 26.4699 24.3419L25.0024 23.4946C24.7064 23.3236 24.3542 23.2773 24.0243 23.3658C23.694 23.4542 23.4125 23.6703 23.2416 23.9664L20.6634 28.4319C20.4925 28.7279 20.4462 29.0798 20.5346 29.41C20.6231 29.7403 20.8392 30.0218 21.1352 30.1927L22.5956 31.0358C22.563 31.3559 22.5467 31.678 22.5467 32C22.5467 32.322 22.563 32.6441 22.5956 32.964L21.1352 33.8071C20.8392 33.978 20.6231 34.2596 20.5346 34.5898C20.4462 34.9201 20.4925 35.2719 20.6634 35.568L23.2416 40.0334C23.4125 40.3295 23.6941 40.5455 24.0243 40.6341C24.3546 40.7227 24.7064 40.6763 25.0024 40.5052L26.4699 39.658C26.9918 40.0367 27.5474 40.3585 28.1326 40.6213V42.3125C28.1326 43.0244 28.7098 43.6016 29.4217 43.6016H34.5779C35.2898 43.6016 35.867 43.0244 35.867 42.3125V40.6214C36.4522 40.3587 37.0077 40.0368 37.5297 39.6581L38.9972 40.5054C39.2931 40.6763 39.6452 40.7227 39.9753 40.6342C40.3056 40.5458 40.5871 40.3298 40.758 40.0336L43.3361 35.5681C43.5071 35.2721 43.5534 34.9202 43.465 34.59C43.3764 34.2597 43.1604 33.9782 42.8643 33.8073L41.404 32.9642C41.4366 32.6441 41.4529 32.322 41.4529 32C41.4529 31.678 41.4366 31.3559 41.404 31.036L42.8643 30.1929C43.1604 30.0219 43.3764 29.7404 43.465 29.4101ZM38.7357 30.6168C38.8279 31.069 38.8748 31.5345 38.8748 32C38.8748 32.4655 38.8279 32.931 38.7357 33.3833C38.6246 33.9267 38.8738 34.4802 39.3541 34.7576L40.4589 35.3954L39.1698 37.628L38.0558 36.9849C37.5752 36.7074 36.9708 36.7687 36.5555 37.1372C35.8525 37.7612 35.0501 38.226 34.1707 38.5189C33.644 38.6942 33.2888 39.1869 33.2888 39.7419V41.0234H30.7106V39.7419C30.7106 39.187 30.3554 38.6942 29.8287 38.5189C28.9493 38.226 28.1469 37.7612 27.4439 37.1372C27.0287 36.7686 26.4243 36.7074 25.9436 36.9849L24.8296 37.628L23.5405 35.3954L24.6453 34.7576C25.1256 34.4802 25.3748 33.9267 25.2638 33.3833C25.1716 32.931 25.1248 32.4655 25.1248 32C25.1248 31.5345 25.1716 31.069 25.2639 30.6168C25.375 30.0733 25.1258 29.5198 24.6455 29.2424L23.5407 28.6046L24.8298 26.372L25.9438 27.0151C26.4244 27.2927 27.0288 27.2314 27.4441 26.8628C28.147 26.2388 28.9494 25.774 29.829 25.4811C30.3555 25.3057 30.7108 24.813 30.7108 24.2581V22.9766H33.2889V24.2581C33.2889 24.813 33.6442 25.3057 34.1707 25.4811C35.0503 25.774 35.8527 26.2388 36.5557 26.8628C36.9708 27.2314 37.5753 27.2926 38.056 27.0151L39.17 26.372L40.459 28.6046L39.3542 29.2424C38.8738 29.5198 38.6246 30.0733 38.7357 30.6168Z" fill="#EA6249"/>
<path d="M32 27.2734C29.3938 27.2734 27.2734 29.3938 27.2734 32C27.2734 34.6062 29.3938 36.7266 32 36.7266C34.6062 36.7266 36.7266 34.6062 36.7266 32C36.7266 29.3938 34.6062 27.2734 32 27.2734ZM32 34.1484C30.8154 34.1484 29.8516 33.1846 29.8516 32C29.8516 30.8154 30.8154 29.8516 32 29.8516C33.1846 29.8516 34.1484 30.8154 34.1484 32C34.1484 33.1846 33.1846 34.1484 32 34.1484Z" fill="#EA6249"/>
</svg>
