<svg width="150" height="145" viewBox="0 0 150 145" fill="none" xmlns="http://www.w3.org/2000/svg">
<path opacity="0.7" fill-rule="evenodd" clip-rule="evenodd" d="M55.0902 123.677C54.4934 116.332 53.1986 108.426 50.0354 101.753C46.2781 93.8278 39.9009 89.3154 32.9183 85.5675C23.9468 80.7536 13.9827 77.1333 5.12571 71.8339C1.83582 69.8687 1.01695 67.5527 0.645812 66.5538C-0.291407 64.0285 -0.115652 61.7752 0.580991 59.7961C1.40181 57.4501 3.20181 54.4055 7.82773 53.3185C8.48951 53.164 9.47922 52.9977 10.7596 53.0492C11.698 53.0884 14.5009 53.6973 15.6987 53.7928C18.6505 54.0197 21.5794 54.332 24.5166 54.6753C34.2924 55.817 42.4948 57.1593 52.2984 55.1614C65.6069 52.4516 74.3644 48.5186 79.6835 41.4417C84.8275 34.5988 86.7219 25.2859 87.4706 12.9421C87.4993 11.7562 87.5636 10.5923 87.668 9.45119C88.1524 4.04996 92.8974 0.0251594 98.3512 0.389061C103.801 0.751996 107.96 5.3723 107.716 10.7882C107.665 11.9186 107.607 13.0305 107.531 14.1256C107.207 30.9887 116.343 53.0401 125.799 66.9572C128.715 71.2475 138.046 78.8748 143.504 85.575C147.529 90.5193 149.729 95.4572 149.973 99.1772C150.14 101.671 149.5 103.566 148.674 105.052C147.475 107.211 145.695 108.794 143.29 109.732C141.975 110.242 140.302 110.594 138.327 110.449C137.377 110.378 135.073 109.786 134.033 109.505C130.304 109.583 126.596 109.906 122.864 109.868C113.962 109.777 107.564 112.54 99.2626 115.636C91.4934 118.53 86.0548 122.412 80.8178 128.829C80.3285 129.715 76.376 136.862 74.5633 139.275C71.91 142.799 68.7419 143.972 67.1249 144.273C64.3813 144.786 62.2253 144.341 60.5169 143.639C57.996 142.601 56.0736 140.843 54.8258 138.297C54.049 136.72 53.4737 134.518 53.6327 131.818C53.7511 129.731 54.9264 124.422 55.0902 123.677ZM53.6311 75.195C54.5231 75.0523 55.4248 74.8876 56.3407 74.7014C75.8327 70.7325 88.0058 63.735 95.7951 53.3668L96.0519 53.0176C99.7643 62.3268 104.359 71.0817 109.133 78.1087C111.098 81.002 115.632 85.3459 120.237 89.9608C110.044 90.3321 102.12 93.2635 92.1946 96.9593C84.6183 99.7856 78.5569 103.245 73.0885 108.023C71.9732 102.891 70.4016 97.8596 68.2219 93.2613C64.5916 85.6056 59.5476 79.841 53.6311 75.195Z" fill="#FF7C68"/>
</svg>
