<svg width="26" height="23" viewBox="0 0 26 23" fill="none" xmlns="http://www.w3.org/2000/svg">
<path fill-rule="evenodd" clip-rule="evenodd" d="M21.8011 14.8749C21.8618 12.1522 22.5615 9.70214 23.1807 7.09001C23.3017 6.57989 23.8087 6.2648 24.3134 6.38381C24.8183 6.50289 25.1294 7.01451 25.0087 7.52471C24.4215 10.0016 23.7382 12.3253 23.68 14.9114C23.6683 15.4345 23.2373 15.8517 22.7191 15.8401C22.2004 15.8318 21.7891 15.3979 21.8011 14.8749Z" fill="#22211F"/>
<path fill-rule="evenodd" clip-rule="evenodd" d="M15.1732 18.4063C11.9875 13.3749 9.34502 7.29293 7.91514 1.48386C7.79065 0.97655 8.09822 0.460891 8.60151 0.334395C9.10477 0.207891 9.61522 0.514762 9.73971 1.02207C11.1226 6.63878 13.6782 12.521 16.7592 17.3838C17.0374 17.8245 16.908 18.4108 16.4706 18.6922C16.0331 18.9736 15.4514 18.847 15.1732 18.4063Z" fill="#22211F"/>
<path fill-rule="evenodd" clip-rule="evenodd" d="M12.9642 22.3761C8.92409 21.9822 5.23122 19.8152 2.12975 17.3198C1.7256 16.9925 1.66078 16.3966 1.98458 15.9899C2.30951 15.5803 2.9015 15.5135 3.30647 15.8378C6.13074 18.1118 9.47249 20.1323 13.152 20.4916C13.6683 20.5418 14.045 21.0056 13.9933 21.5245C13.9419 22.0434 13.4802 22.4262 12.9642 22.3761Z" fill="#22211F"/>
</svg>
