<svg width="42" height="41" viewBox="0 0 42 41" fill="none" xmlns="http://www.w3.org/2000/svg">
<path fill-rule="evenodd" clip-rule="evenodd" d="M15.2348 34.3449C15.0698 32.3046 14.7117 30.1084 13.8369 28.2548C12.7979 26.0534 11.0343 24.8 9.10334 23.7589C6.62232 22.4217 3.86682 21.416 1.41748 19.944C0.507684 19.3981 0.28123 18.7547 0.178595 18.4773C-0.0805866 17.7758 -0.0319827 17.1499 0.160669 16.6001C0.387662 15.9485 0.885438 15.1027 2.1647 14.8008C2.34771 14.7579 2.62141 14.7117 2.9755 14.726C3.23501 14.7369 4.01013 14.906 4.34136 14.9325C5.15765 14.9956 5.96764 15.0823 6.77988 15.1777C9.48332 15.4948 11.7516 15.8677 14.4628 15.3127C18.1431 14.56 20.5649 13.4675 22.0359 11.5017C23.4585 9.60087 23.9823 7.01395 24.1894 3.5851C24.1973 3.25569 24.2151 2.93238 24.244 2.61541C24.3779 1.11506 25.6901 -0.00293985 27.1983 0.098144C28.7053 0.19896 29.8555 1.48238 29.7882 2.98681C29.774 3.3008 29.7578 3.60966 29.7371 3.91385C29.6472 8.59807 32.1738 14.7235 34.7888 18.5893C35.5952 19.7811 38.1757 21.8998 39.6849 23.761C40.7982 25.1344 41.4065 26.506 41.4741 27.5393C41.5203 28.232 41.3433 28.7584 41.1148 29.1712C40.7832 29.7709 40.2909 30.2108 39.6259 30.4713C39.2621 30.6128 38.7996 30.7108 38.2534 30.6704C37.9906 30.6507 37.3534 30.4862 37.0659 30.4082C36.0346 30.43 35.0092 30.5197 33.9773 30.5091C31.5154 30.4838 29.7462 31.2513 27.4504 32.1111C25.3019 32.9151 23.7978 33.9933 22.3496 35.776C22.2143 36.022 21.1213 38.0073 20.62 38.6777C19.8862 39.6564 19.0101 39.9824 18.5629 40.066C17.8042 40.2086 17.208 40.0849 16.7355 39.8898C16.0384 39.6016 15.5068 39.1131 15.1617 38.406C14.9469 37.9678 14.7878 37.3562 14.8317 36.6062C14.8645 36.0265 15.1895 34.5519 15.2348 34.3449ZM14.8313 20.8776C15.078 20.838 15.3274 20.7922 15.5806 20.7405C20.971 19.638 24.3374 17.6943 26.4915 14.8142L26.5625 14.7172C27.5891 17.3031 28.8598 19.735 30.18 21.687C30.7235 22.4907 31.9771 23.6973 33.2507 24.9792C30.432 25.0824 28.2405 25.8966 25.4958 26.9233C23.4006 27.7083 21.7244 28.6694 20.2121 29.9966C19.9037 28.5709 19.4691 27.1733 18.8663 25.896C17.8624 23.7694 16.4675 22.1682 14.8313 20.8776Z" fill="#EA6249"/>
</svg>
