<svg width="40" height="38" viewBox="0 0 40 38" fill="none" xmlns="http://www.w3.org/2000/svg">
<path d="M0.783447 11.1349H13.0409H36.3709" stroke="#222222" stroke-width="1.22159" stroke-miterlimit="10" stroke-linecap="round" stroke-linejoin="round"/>
<path d="M7.30689 7.81042C8.33002 7.81042 9.16486 6.97824 9.16486 5.95566C9.16486 4.93308 8.33002 4.10089 7.30689 4.10089C6.28603 4.10089 5.45111 4.93308 5.45111 5.95566C5.45111 6.97824 6.28603 7.81042 7.30689 7.81042Z" stroke="#222222" stroke-width="1.22159" stroke-miterlimit="10" stroke-linecap="round" stroke-linejoin="round"/>
<path d="M23.435 4.10089H30.4241C31.4449 4.10089 32.2798 4.93535 32.2798 5.95566C32.2798 6.97605 31.4449 7.81042 30.4241 7.81042H23.435C22.4141 7.81042 21.5792 6.97605 21.5792 5.95566C21.5792 4.93535 22.4141 4.10089 23.435 4.10089Z" stroke="#222222" stroke-width="1.22159" stroke-miterlimit="10" stroke-linecap="round" stroke-linejoin="round"/>
<path d="M14.1577 7.81042C15.1808 7.81042 16.0156 6.97824 16.0156 5.95566C16.0156 4.93308 15.1808 4.10089 14.1577 4.10089C13.1368 4.10089 12.3019 4.93308 12.3019 5.95566C12.3019 6.97824 13.1368 7.81042 14.1577 7.81042Z" stroke="#222222" stroke-width="1.22159" stroke-miterlimit="10" stroke-linecap="round" stroke-linejoin="round"/>
<path d="M12.6906 17.1442L11.1271 23.6869" stroke="#222222" stroke-width="1.22159" stroke-miterlimit="10" stroke-linecap="round" stroke-linejoin="round"/>
<path d="M16.2913 23.0959L18.5036 20.6125C18.601 20.5041 18.601 20.327 18.5036 20.2186L16.2913 17.7352" stroke="#222222" stroke-width="1.22159" stroke-miterlimit="10" stroke-linecap="round" stroke-linejoin="round"/>
<path d="M7.52575 23.0959L5.31348 20.6125C5.21598 20.5041 5.21598 20.327 5.31348 20.2186L7.52575 17.7352" stroke="#222222" stroke-width="1.22159" stroke-miterlimit="10" stroke-linecap="round" stroke-linejoin="round"/>
<path d="M31.6043 20.597C32.459 20.7874 33.2585 21.1238 33.9782 21.5753L34.6182 20.9379C34.9969 20.5572 35.6192 20.5572 36.0001 20.9379L37.0077 21.945C37.3886 22.3257 37.3886 22.9476 37.0077 23.3261L36.3699 23.9657C36.8195 24.6785 37.1516 25.4709 37.3443 26.3164H38.2411C38.7793 26.3164 39.22 26.7568 39.22 27.2925V28.7201C39.22 29.2557 38.7793 29.6961 38.2411 29.6961H37.3399C37.1472 30.5372 36.815 31.3252 36.3699 32.0335L37.0077 32.6709C37.3886 33.0516 37.3886 33.6736 37.0077 34.0521L36.0001 35.0614C35.6192 35.4421 34.9969 35.4421 34.6182 35.0614L33.9782 34.4239C33.2674 34.871 32.4768 35.203 31.6308 35.3956V36.303C31.6308 36.8409 31.1901 37.2814 30.6543 37.2814H29.2259C28.6899 37.2814 28.2493 36.8409 28.2493 36.303V35.3934C27.4077 35.203 26.6172 34.8688 25.9062 34.4239L25.2685 35.0614C24.8875 35.4421 24.2654 35.4421 23.8866 35.0614L22.8768 34.0521C22.4981 33.6736 22.4981 33.0516 22.8768 32.6709L23.5168 32.0335C23.0695 31.3252 22.7373 30.5372 22.5447 29.6961H21.6389C21.1008 29.6961 20.6622 29.2557 20.6622 28.7201V27.2925C20.6622 26.7568 21.1008 26.3164 21.6389 26.3164H22.5425C22.7329 25.4797 23.0607 24.6962 23.5013 23.9901L22.8591 23.3461C22.4782 22.9675 22.4782 22.3456 22.8591 21.9649L23.8667 20.9578C24.2476 20.5771 24.8699 20.5771 25.2486 20.9578L25.8841 21.5908C26.5929 21.1415 27.3811 20.8072 28.2227 20.6103V19.7095C28.2227 19.1716 28.6611 18.7311 29.1993 18.7311H30.6254C31.1636 18.7311 31.6043 19.1716 31.6043 19.7095V20.597Z" stroke="#222222" stroke-width="1.22159" stroke-miterlimit="10" stroke-linecap="round" stroke-linejoin="round"/>
<path d="M29.9415 23.9813C32.1649 23.9813 33.9676 25.783 33.9676 28.0073C33.9676 30.2296 32.1649 32.0312 29.9415 32.0312C27.716 32.0312 25.9133 30.2296 25.9133 28.0073C25.9133 25.783 27.716 23.9813 29.9415 23.9813Z" stroke="#222222" stroke-width="1.22159" stroke-miterlimit="10" stroke-linecap="round" stroke-linejoin="round"/>
<path d="M8.31715 29.6961H3.69317C2.09442 29.6961 0.783325 28.1313 0.783325 26.2212V4.19376C0.783325 2.2815 2.09208 0.718841 3.69317 0.718841H7.06372H33.4609C35.062 0.718841 36.3707 2.28368 36.3707 4.19376V21.3075M21.6397 29.6961H15.2996" stroke="#222222" stroke-width="1.22159" stroke-miterlimit="10" stroke-linecap="round" stroke-linejoin="round"/>
<path d="M11.8157 29.6961H11.8317" stroke="#222222" stroke-width="1.22159" stroke-miterlimit="10" stroke-linecap="round" stroke-linejoin="round"/>
</svg>
