<svg width="52" height="52" viewBox="0 0 52 52" fill="none" xmlns="http://www.w3.org/2000/svg">
<g clip-path="url(#clip0_81_2448)">
<path d="M10.9473 32.8421C10.9473 35.8648 8.49631 38.3158 5.47361 38.3158C2.45101 38.3158 0 35.8648 0 32.8421C0 29.8194 2.45101 27.3683 5.47371 27.3683H10.9474V32.8421H10.9473Z" fill="#FF185B"/>
<path d="M13.6836 32.8421C13.6836 29.8194 16.1346 27.3683 19.1573 27.3683C22.18 27.3683 24.631 29.8194 24.631 32.8421V46.5263C24.631 49.549 22.18 52 19.1573 52C16.1346 52 13.6836 49.549 13.6836 46.5263V32.8421Z" fill="#FF185B"/>
<path d="M19.1573 10.9473C16.1346 10.9473 13.6836 8.49631 13.6836 5.47361C13.6836 2.45101 16.1346 0 19.1573 0C22.18 0 24.631 2.45101 24.631 5.47371V10.9474H19.1573V10.9473Z" fill="#00C5F1"/>
<path d="M19.1579 13.6842C22.1806 13.6842 24.6316 16.1352 24.6316 19.1579C24.6316 22.1806 22.1806 24.6317 19.1579 24.6317H5.47371C2.45101 24.6316 0 22.1805 0 19.1579C0 16.1353 2.45101 13.6842 5.47371 13.6842H19.1579Z" fill="#00C5F1"/>
<path d="M41.0508 19.1579C41.0508 16.1352 43.5018 13.6842 46.5245 13.6842C49.5472 13.6842 51.9982 16.1352 51.9982 19.1579C51.9982 22.1806 49.5472 24.6316 46.5245 24.6316H41.0508V19.1579Z" fill="#00B67B"/>
<path d="M38.3146 19.1579C38.3146 22.1806 35.8636 24.6316 32.8409 24.6316C29.8182 24.6316 27.3672 22.1806 27.3672 19.1579V5.47371C27.3673 2.45101 29.8183 0 32.8409 0C35.8635 0 38.3146 2.45101 38.3146 5.47371V19.1579Z" fill="#00B67B"/>
<path d="M32.8409 41.0527C35.8636 41.0527 38.3146 43.5037 38.3146 46.5264C38.3146 49.5491 35.8636 52.0001 32.8409 52.0001C29.8182 52.0001 27.3672 49.5491 27.3672 46.5264V41.0527H32.8409Z" fill="#FFB20F"/>
<path d="M32.8409 38.3158C29.8182 38.3158 27.3672 35.8648 27.3672 32.8421C27.3672 29.8194 29.8182 27.3683 32.8409 27.3683H46.5251C49.5478 27.3683 51.9988 29.8194 51.9988 32.8421C51.9988 35.8648 49.5478 38.3158 46.5251 38.3158H32.8409Z" fill="#FFB20F"/>
</g>
<defs>
<clipPath id="clip0_81_2448">
<rect width="52" height="52" fill="white"/>
</clipPath>
</defs>
</svg>
