<svg width="30" height="30" viewBox="0 0 30 30" fill="none" xmlns="http://www.w3.org/2000/svg">
<g clip-path="url(#clip0_301_3853)">
<path d="M27.7531 26.1844L26.6781 25.5701C27.0387 25.4644 27.3761 25.3418 27.6871 25.2025C28.0295 25.0491 28.2489 24.7135 28.2461 24.3475C28.2258 21.7219 27.9188 19.7596 27.3076 18.3487C26.498 16.4799 25.1385 15.5324 23.2671 15.5324C21.3956 15.5324 20.0361 16.4799 19.2264 18.3487C18.9865 18.9025 18.7937 19.5417 18.6464 20.2721L15.7201 18.2602V14.4677H20.2608C21.0724 14.4677 21.7326 13.8074 21.7326 12.9959V12.0333C21.7326 11.2155 21.2181 10.4733 20.4524 10.1861L18.0697 9.29256C17.9144 9.23432 17.7976 9.10676 17.7489 8.9533L17.9864 8.77518C18.4469 8.42982 18.7329 7.90242 18.7712 7.32814L19.0838 2.63848C19.1292 1.95785 18.8879 1.28186 18.4219 0.783809C17.9559 0.285703 17.2975 0 16.6153 0H13.8852C13.2031 0 12.5446 0.285703 12.0787 0.78375C11.6127 1.28186 11.3715 1.95791 11.4168 2.63842L11.7295 7.32809C11.7677 7.90236 12.0538 8.42982 12.5142 8.77512L12.7517 8.95324C12.7032 9.1067 12.5862 9.23426 12.431 9.2925L10.0482 10.1861C9.28248 10.4732 8.76803 11.2155 8.76803 12.0333V12.9959C8.76803 13.8074 9.42826 14.4677 10.2398 14.4677H14.7806V18.2602L11.4076 20.5791L11.5682 18.1709C11.6136 17.4902 11.3723 16.8142 10.9063 16.3162C10.4403 15.8181 9.78188 15.5324 9.09973 15.5324H6.36961C5.68752 15.5324 5.02904 15.8181 4.56311 16.3162C4.09711 16.8143 3.85588 17.4904 3.90123 18.1709L4.21389 22.8605C4.25215 23.4348 4.53826 23.9623 4.99863 24.3076L5.23611 24.4857C5.1876 24.6391 5.07064 24.7667 4.91537 24.8249L2.5326 25.7185C1.76689 26.0057 1.25244 26.748 1.25244 27.5658V28.5283C1.25244 29.3399 1.91268 30.0001 2.72426 30.0001H12.7451C13.5567 30.0001 14.2169 29.3399 14.2169 28.5283V27.5658C14.2169 26.748 13.7024 26.0057 12.9367 25.7186L10.554 24.825C10.3987 24.7668 10.2819 24.6392 10.2332 24.4857L10.4707 24.3076C10.9312 23.9623 11.2172 23.4349 11.2554 22.8606L11.3279 21.774L15.2503 19.0774L18.4777 21.2962C18.3595 22.1947 18.2967 23.2086 18.2879 24.3476C18.2851 24.7137 18.5044 25.0493 18.8469 25.2026C19.1578 25.3419 19.4951 25.4646 19.8558 25.5704L18.7809 26.1846C18.1678 26.5349 17.7869 27.1913 17.7869 27.8975V28.5284C17.7869 29.3399 18.4471 30.0002 19.2587 30.0002H27.2754C28.087 30.0002 28.7472 29.3399 28.7472 28.5284V27.8975C28.7471 27.1911 28.3662 26.5348 27.7531 26.1844ZM10.8996 25.9579L12.6069 26.598C13.0079 26.7485 13.2775 27.1373 13.2775 27.5657V28.5282C13.2775 28.8217 13.0386 29.0606 12.7451 29.0606H2.7242C2.43064 29.0606 2.19182 28.8217 2.19182 28.5282V27.5657C2.19182 27.1373 2.46129 26.7485 2.86236 26.5981L4.56967 25.9579C5.12895 27.1881 6.36498 27.9959 7.73461 27.9959C9.10418 27.9958 10.3403 27.1881 10.8996 25.9579ZM5.44465 25.6117C5.67885 25.4806 5.87033 25.2882 6.00205 25.0602L6.04986 25.096C6.38912 25.3505 6.80953 25.4906 7.23357 25.4906H8.23565C8.65969 25.4906 9.0801 25.3505 9.41936 25.096L9.46705 25.0602C9.59877 25.2883 9.79031 25.4805 10.0245 25.6117C9.60744 26.4855 8.71822 27.0564 7.73455 27.0564C6.75082 27.0564 5.86166 26.4855 5.44465 25.6117ZM10.3181 22.7979C10.298 23.0988 10.1482 23.3752 9.90703 23.556L8.85574 24.3445C8.67809 24.4778 8.45777 24.5511 8.2357 24.5511H7.23363C7.01156 24.5511 6.79125 24.4777 6.61359 24.3445L5.56225 23.556C5.32107 23.3751 5.17125 23.0988 5.15121 22.7979L4.99535 20.4597C5.83277 20.385 8.68758 20.0798 10.554 19.2608L10.3181 22.7979ZM10.6307 18.1083L10.6261 18.1776C9.02953 19.0869 5.82914 19.4385 4.93272 19.5214L4.8385 18.1083C4.80996 17.68 4.95568 17.2714 5.24895 16.958C5.54227 16.6445 5.94018 16.4718 6.36949 16.4718H9.09961C9.52887 16.4718 9.92684 16.6445 10.2202 16.958C10.5135 17.2715 10.6593 17.68 10.6307 18.1083ZM12.3542 2.57602C12.3257 2.1477 12.4714 1.73912 12.7647 1.42564C13.058 1.11217 13.4559 0.939492 13.8853 0.939492H16.6154C17.0446 0.939492 17.4426 1.11217 17.7359 1.42564C18.0292 1.73918 18.175 2.1477 18.1465 2.57602L18.1419 2.64527C16.5453 3.55459 13.3449 3.90621 12.4485 3.98912L12.3542 2.57602ZM12.6669 7.26557L12.5109 4.92738C13.3484 4.85268 16.2032 4.54746 18.0696 3.7285L17.946 5.58187C17.946 5.58199 17.9459 5.58211 17.9459 5.58223C17.8942 6.35859 17.193 7.01461 16.4149 7.01461H15.2503C14.9909 7.01461 14.7805 7.2249 14.7805 7.48436C14.7805 7.74381 14.9908 7.9541 15.2503 7.9541H16.4149C16.9127 7.9541 17.3843 7.79602 17.7801 7.52824C17.7139 7.72371 17.5913 7.89727 17.4227 8.02371L16.3713 8.81215C16.1937 8.94545 15.9734 9.01881 15.7513 9.01881H14.7492C14.5271 9.01881 14.3068 8.94539 14.1292 8.81215L13.0779 8.02359C12.8367 7.84272 12.6869 7.56645 12.6669 7.26557ZM17.405 9.9927L15.2503 11.4292L13.0955 9.99264C13.2685 9.869 13.4125 9.7101 13.5177 9.52781L13.5655 9.56367C13.9048 9.81814 14.3252 9.95824 14.7492 9.95824H15.7513C16.1753 9.95824 16.5957 9.81814 16.935 9.56367L16.9828 9.52787C17.088 9.71016 17.2321 9.86906 17.405 9.9927ZM10.2399 13.5282C9.94629 13.5282 9.70746 13.2894 9.70746 12.9958V12.0333C9.70746 11.605 9.97693 11.2161 10.378 11.0657L12.0634 10.4337L14.9897 12.3846C15.0687 12.4372 15.1595 12.4635 15.2503 12.4635C15.3411 12.4635 15.432 12.4372 15.5109 12.3846L18.4372 10.4337L20.1226 11.0657C20.5237 11.2161 20.7932 11.605 20.7932 12.0333V12.9958C20.7932 13.2894 20.5544 13.5282 20.2608 13.5282H10.2399V13.5282ZM19.2309 24.3451C19.2295 24.3445 19.2284 24.3439 19.2274 24.3434C19.2474 21.852 19.5291 20.0132 20.0884 18.7222C20.7445 17.2079 21.7842 16.4719 23.2669 16.4719C24.7497 16.4719 25.7895 17.208 26.4455 18.7222C27.0048 20.0132 27.2865 21.8521 27.3065 24.3434C27.3055 24.3439 27.3044 24.3445 27.303 24.3452C26.7901 24.575 26.1647 24.7608 25.4867 24.8875C25.3342 24.7902 25.2398 24.6213 25.2398 24.4394C25.2398 24.4216 25.2386 24.4041 25.2367 24.3868L25.284 24.3584C25.8748 24.0039 26.2419 23.3557 26.2419 22.6667V20.0105C26.2419 19.8859 26.1924 19.7665 26.1043 19.6784L25.1022 18.6763C24.9188 18.4928 24.6213 18.4928 24.4379 18.6763C24.1068 19.0075 23.3598 19.2711 22.3348 19.4187C21.4997 19.5388 20.7689 19.5408 20.7618 19.5408C20.5024 19.5408 20.292 19.7511 20.292 20.0105V22.6668C20.292 23.3558 20.659 24.004 21.2498 24.3585L21.2972 24.3869C21.2953 24.4041 21.2941 24.4216 21.2941 24.4394C21.2941 24.6213 21.1997 24.7902 21.0472 24.8875C20.3694 24.7608 19.7438 24.5748 19.2309 24.3451ZM22.1579 24.9032L22.5098 25.1144C22.7433 25.2545 23.0052 25.3246 23.2671 25.3246C23.5289 25.3246 23.7908 25.2545 24.0243 25.1144L24.3762 24.9032C24.4892 25.2422 24.7235 25.5352 25.042 25.7173L25.3056 25.8679C25.0712 26.1824 24.3081 27.1198 23.2672 27.5277C22.2319 27.1214 21.4645 26.1823 21.2289 25.8677L21.492 25.7173C21.8106 25.5352 22.0448 25.2422 22.1579 24.9032ZM21.2315 22.6666V20.466C21.543 20.4506 21.9807 20.4181 22.4566 20.3502C23.4513 20.2081 24.2138 19.968 24.7322 19.6347L25.3025 20.205V22.6667C25.3025 23.0276 25.1102 23.3671 24.8007 23.5528L23.5409 24.3088C23.3719 24.4101 23.162 24.4101 22.9931 24.3088L21.7332 23.5528C21.4238 23.3672 21.2315 23.0276 21.2315 22.6666ZM27.8078 28.5282H27.8077C27.8077 28.8217 27.5689 29.0606 27.2753 29.0606H19.2587C18.9651 29.0606 18.7263 28.8217 18.7263 28.5282V27.8974C18.7263 27.5275 18.9258 27.1836 19.247 27.0001L20.4078 26.3368C20.6123 26.6262 21.6287 27.9761 23.1185 28.4728C23.1667 28.4889 23.2169 28.4969 23.2671 28.4969C23.3172 28.4969 23.3674 28.4889 23.4156 28.4728C24.9055 27.9762 25.9218 26.6262 26.1263 26.3368L27.2871 27.0001C27.6083 27.1836 27.8078 27.5274 27.8078 27.8973V28.5282V28.5282Z" fill="white"/>
</g>
<defs>
<clipPath id="clip0_301_3853">
<rect width="30" height="30" fill="white"/>
</clipPath>
</defs>
</svg>
