<svg width="140" height="38" viewBox="0 0 140 38" fill="none" xmlns="http://www.w3.org/2000/svg">
    <g clip-path="url(#clip0_0_422)">
        <path d="M193.04 12.4449C193.04 6.13694 187.901 1.02777 181.543 0.989717V0.95166C167.453 0.95166 167.453 14.1004 153.354 14.1004C139.264 14.1004 139.264 0.95166 125.175 0.95166C111.085 0.95166 111.085 14.1004 96.9952 14.1004C82.8959 14.1004 82.8959 0.95166 68.8062 0.95166C54.7164 0.95166 54.7164 14.1004 40.6267 14.1004C26.537 14.1004 26.537 0.95166 12.4473 0.95166V23.9001C26.537 23.9001 26.537 37.0488 40.6267 37.0488C54.7164 37.0488 54.7164 23.9001 68.8062 23.9001C82.8959 23.9001 82.8959 37.0488 96.9856 37.0488C111.075 37.0488 111.075 23.9001 125.165 23.9001C139.255 23.9001 139.255 37.0488 153.344 37.0488C167.434 37.0488 167.434 23.9001 181.533 23.9001V23.8906C187.892 23.8525 193.04 18.7433 193.04 12.4449Z" fill="#FCF5F2" stroke="#F9D371" stroke-miterlimit="10"/>
        <path d="M12.5242 23.8903C18.9107 23.8903 24.0879 18.7617 24.0879 12.4352C24.0879 6.10864 18.9107 0.97998 12.5242 0.97998C6.13771 0.97998 0.960449 6.10864 0.960449 12.4352C0.960449 18.7617 6.13771 23.8903 12.5242 23.8903Z" fill="#F9D371" stroke="#F9D371" stroke-width="2" stroke-miterlimit="10"/>
    </g>
    <defs>
        <clipPath id="clip0_0_422">
            <rect width="194" height="38" fill="white"/>
        </clipPath>
    </defs>
</svg>
