<svg width="53" height="45" viewBox="0 0 53 45" fill="none" xmlns="http://www.w3.org/2000/svg">
<path d="M2.43488 0.15625C12.7194 0.16764 22.5784 4.2635 29.8434 11.543C37.1084 18.8226 41.1846 28.6897 41.1755 38.9742L49.3482 30.8016C49.6756 30.5059 50.1043 30.3475 50.5453 30.3591C50.9864 30.3707 51.4061 30.5515 51.7175 30.8641C52.0289 31.1766 52.2082 31.5969 52.2183 32.038C52.2284 32.4791 52.0684 32.9072 51.7716 33.2336L40.6685 44.3367C40.5088 44.4965 40.3193 44.6233 40.1106 44.7098C39.902 44.7963 39.6783 44.8408 39.4525 44.8408C39.2266 44.8408 39.0029 44.7963 38.7943 44.7098C38.5856 44.6233 38.3961 44.4965 38.2364 44.3367L27.1333 33.2336C26.9736 33.0739 26.847 32.8843 26.7605 32.6757C26.6741 32.467 26.6296 32.2434 26.6296 32.0176C26.6296 31.7917 26.6741 31.5681 26.7605 31.3595C26.847 31.1508 26.9736 30.9613 27.1333 30.8016C27.293 30.6419 27.4826 30.5152 27.6912 30.4288C27.8999 30.3424 28.1235 30.2979 28.3493 30.2979C28.5752 30.2979 28.7988 30.3424 29.0074 30.4288C29.2161 30.5152 29.4057 30.6419 29.5653 30.8016L37.738 38.9742C37.7471 29.6013 34.0331 20.6086 27.4127 13.9737C20.7923 7.33884 11.8078 3.60514 2.43488 3.59375C1.97904 3.59375 1.54187 3.41267 1.21954 3.09034C0.897213 2.76801 0.716129 2.33084 0.716129 1.875C0.716129 1.41916 0.897213 0.981988 1.21954 0.65966C1.54187 0.337332 1.97904 0.15625 2.43488 0.15625Z" fill="#FF7A03"/>
</svg>
