<svg width="40" height="40" viewBox="0 0 40 40" fill="none" xmlns="http://www.w3.org/2000/svg">
<g clip-path="url(#clip0_103_18439)">
<path d="M25.518 10.3955C26.5949 10.3955 27.4711 9.51929 27.4711 8.44234C27.4711 7.36539 26.5949 6.48914 25.518 6.48914C24.441 6.48914 23.5648 7.36539 23.5648 8.44234C23.5648 8.88218 23.7111 9.28843 23.9574 9.61531L20.7484 14.0998C20.5569 14.0369 20.3526 14.0023 20.1402 14.0023C19.627 14.0023 19.1597 14.2016 18.8108 14.5265L16.6718 13.3127C16.7003 13.1802 16.7156 13.0429 16.7156 12.902C16.7156 11.8251 15.8395 10.9489 14.7625 10.9489C13.6855 10.9489 12.8094 11.8251 12.8094 12.902C12.8094 13.0429 12.8247 13.1802 12.8532 13.3127L10.7142 14.5265C10.3653 14.2016 9.89797 14.0024 9.38477 14.0024C8.30781 14.0024 7.43164 14.8787 7.43164 15.9556C7.43164 17.0326 8.30781 17.9088 9.38477 17.9088C10.4617 17.9088 11.3379 17.0326 11.3379 15.9556C11.3379 15.8148 11.3226 15.6774 11.2941 15.5449L13.433 14.3312C13.782 14.656 14.2493 14.8553 14.7625 14.8553C15.2757 14.8553 15.743 14.656 16.092 14.3312L18.2309 15.545C18.2024 15.6775 18.1871 15.8148 18.1871 15.9557C18.1871 17.0327 19.0633 17.9089 20.1402 17.9089C21.2173 17.9089 22.0934 17.0327 22.0934 15.9557C22.0934 15.5158 21.9471 15.1094 21.7008 14.7826L24.9098 10.2981C25.1012 10.3609 25.3056 10.3955 25.518 10.3955ZM25.518 7.66101C25.9487 7.66101 26.2992 8.01148 26.2992 8.44234C26.2992 8.87312 25.9487 9.22359 25.518 9.22359C25.0872 9.22359 24.7367 8.87312 24.7367 8.44234C24.7366 8.01148 25.0871 7.66101 25.518 7.66101ZM9.38453 16.7368C8.95375 16.7368 8.60328 16.3863 8.60328 15.9555C8.60328 15.5246 8.95375 15.1741 9.38453 15.1741C9.81531 15.1741 10.1658 15.5246 10.1658 15.9555C10.1658 16.3863 9.81531 16.7368 9.38453 16.7368ZM14.7623 13.6833C14.3316 13.6833 13.9811 13.3328 13.9811 12.9019C13.9811 12.4712 14.3316 12.1207 14.7623 12.1207C15.1931 12.1207 15.5436 12.4712 15.5436 12.9019C15.5437 13.3328 15.1931 13.6833 14.7623 13.6833ZM20.1402 16.7368C19.7094 16.7368 19.3589 16.3863 19.3589 15.9555C19.3589 15.5246 19.7094 15.1741 20.1402 15.1741C20.571 15.1741 20.9215 15.5246 20.9215 15.9555C20.9215 16.3863 20.5709 16.7368 20.1402 16.7368Z" fill="white"/>
<path d="M32.7184 29.4504H28.618H6.28344H1.65742C1.38969 29.4504 1.17188 29.2325 1.17188 28.9648V4.79146C1.17188 4.52372 1.38969 4.30591 1.65742 4.30591H4.41961C4.7432 4.30591 5.00555 4.04364 5.00555 3.71997C5.00555 3.3963 4.7432 3.13403 4.41961 3.13403H1.65742C0.743516 3.13403 0 3.87755 0 4.79146V28.9648C0 29.8787 0.743516 30.6222 1.65742 30.6222H5.6975V31.9118C5.6975 32.6464 6.29516 33.244 7.02977 33.244H12.8949L10.134 38.6345C9.98648 38.9226 10.1003 39.2756 10.3884 39.4232C10.4738 39.467 10.5651 39.4877 10.655 39.4877C10.8679 39.4877 11.0733 39.3713 11.177 39.1687L14.2116 33.244H20.6898L23.7245 39.1687C23.8282 39.3713 24.0335 39.4877 24.2464 39.4877C24.3363 39.4877 24.4276 39.4668 24.513 39.4232C24.8011 39.2756 24.915 38.9226 24.7674 38.6345L22.0065 33.244H27.8716C28.6062 33.244 29.2039 32.6465 29.2039 31.9118V30.6222H32.7184C33.042 30.6222 33.3044 30.36 33.3044 30.0363C33.3044 29.7126 33.042 29.4504 32.7184 29.4504ZM28.032 31.9118C28.032 32.0002 27.9601 32.0722 27.8716 32.0722H7.02977C6.94133 32.0722 6.86938 32.0002 6.86938 31.9118V30.6222H28.032V31.9118Z" fill="white"/>
<path d="M6.76367 4.30592H14.7849H20.117H33.2442C33.512 4.30592 33.7298 4.52374 33.7298 4.79147V10.3626C33.7298 10.6863 33.9921 10.9486 34.3157 10.9486C34.6393 10.9486 34.9016 10.6863 34.9016 10.3626V4.79147C34.9016 3.87756 34.1581 3.13405 33.2442 3.13405H20.703V1.98233C20.703 1.17178 20.0436 0.512329 19.233 0.512329H15.6691C14.8585 0.512329 14.199 1.17178 14.199 1.98233V3.13405H6.76367C6.44008 3.13405 6.17773 3.39631 6.17773 3.71999C6.17773 4.04366 6.44008 4.30592 6.76367 4.30592ZM15.3709 1.98233C15.3709 1.81795 15.5046 1.6842 15.6691 1.6842H19.233C19.3973 1.6842 19.5312 1.81795 19.5312 1.98233V3.13405H15.3709V1.98233H15.3709Z" fill="white"/>
<path d="M8.19543 20.9043C7.87184 20.9043 7.6095 21.1666 7.6095 21.4902V26.6677C7.6095 26.9914 7.87184 27.2537 8.19543 27.2537H10.5725C10.8961 27.2537 11.1585 26.9914 11.1585 26.6677V21.4902C11.1585 21.1666 10.8961 20.9043 10.5725 20.9043H8.19543ZM9.98661 26.0819H8.78137V22.0763H9.98661V26.0819Z" fill="white"/>
<path d="M13.5723 17.9099C13.2487 17.9099 12.9863 18.1722 12.9863 18.4958V26.6678C12.9863 26.9915 13.2487 27.2537 13.5723 27.2537H15.9494C16.273 27.2537 16.5353 26.9915 16.5353 26.6678V18.4958C16.5353 18.1722 16.273 17.9099 15.9494 17.9099H13.5723ZM15.3635 26.0819H14.1583V19.0818H15.3635V26.0819Z" fill="white"/>
<path d="M18.951 20.9043C18.6275 20.9043 18.3651 21.1666 18.3651 21.4902V26.6677C18.3651 26.9914 18.6275 27.2537 18.951 27.2537H21.3282C21.6518 27.2537 21.9141 26.9914 21.9141 26.6677V21.4902C21.9141 21.1666 21.6518 20.9043 21.3282 20.9043H18.951ZM20.7422 26.0819H19.537V22.0763H20.7422V26.0819Z" fill="white"/>
<path d="M24.3281 24.3618C24.0045 24.3618 23.7422 24.6241 23.7422 24.9478V26.6678C23.7422 26.9915 24.0045 27.2538 24.3281 27.2538H26.7052C27.0288 27.2538 27.2912 26.9915 27.2912 26.6678C27.2912 26.3442 27.0288 26.0819 26.7052 26.0819H24.9141V24.9478C24.9141 24.6241 24.6517 24.3618 24.3281 24.3618Z" fill="white"/>
<path d="M39.7006 30.0015L36.3391 24.1792C37.1907 23.2715 37.8109 22.1623 38.1421 20.9261C38.6716 18.9502 38.3998 16.8864 37.377 15.1148C35.2656 11.4576 30.5726 10.2003 26.9156 12.3116C23.2584 14.423 22.001 19.116 24.1124 22.7731C25.1352 24.5447 26.7867 25.8119 28.7626 26.3414C29.4224 26.5182 30.0919 26.6056 30.7571 26.6056C31.3385 26.6056 31.9166 26.5387 32.4819 26.4064L35.8427 32.2289C36.2546 32.9427 37.0048 33.3422 37.7752 33.3421C38.1528 33.3421 38.5353 33.2461 38.8852 33.0442C39.5724 32.6476 39.9994 31.908 39.9994 31.114C39.9994 30.7251 39.8961 30.3405 39.7006 30.0015ZM29.0659 25.2094C27.3923 24.761 25.9935 23.6876 25.1272 22.1872C23.3389 19.0897 24.404 15.1148 27.5014 13.3265C28.5204 12.7382 29.6339 12.4588 30.7338 12.4588C32.9771 12.4588 35.1621 13.6223 36.3621 15.7008C37.2284 17.2012 37.4585 18.9492 37.0101 20.6228C36.5616 22.2964 35.4883 23.6951 33.9878 24.5614C32.4874 25.4277 30.7395 25.6577 29.0659 25.2094ZM38.2995 32.0292C37.7954 32.3203 37.1485 32.147 36.8577 31.6431L33.6242 26.0412C33.9483 25.909 34.2656 25.7543 34.5739 25.5763C34.8824 25.3982 35.1746 25.1999 35.4513 24.9852L38.6856 30.5873C38.7784 30.7483 38.8275 30.9305 38.8275 31.1141C38.8275 31.4905 38.6252 31.8412 38.2995 32.0292Z" fill="white"/>
<path d="M36.058 20.5947C36.4716 19.2622 36.3731 17.8356 35.7805 16.5778C35.6426 16.285 35.2935 16.1595 35.0008 16.2974C34.708 16.4354 34.5825 16.7844 34.7205 17.0772C35.1879 18.0693 35.2655 19.195 34.9388 20.2471C34.6104 21.3049 33.9009 22.1926 32.9409 22.7468C31.9252 23.3334 30.7416 23.489 29.6087 23.1855C28.4758 22.8819 27.5287 22.1553 26.9423 21.1395C25.7316 19.0425 26.4527 16.3516 28.5497 15.1409C30.0829 14.2558 31.9856 14.3741 33.3974 15.4422C33.6555 15.6375 34.023 15.5867 34.2182 15.3286C34.4134 15.0705 34.3626 14.703 34.1045 14.5078C32.3161 13.1546 29.9056 13.0048 27.9637 14.126C26.6768 14.869 25.7562 16.0686 25.3716 17.504C24.987 18.9393 25.1845 20.4385 25.9274 21.7254C26.6704 23.0123 27.8701 23.9328 29.3054 24.3175C29.7847 24.4459 30.2711 24.5094 30.7543 24.5094C31.7182 24.5094 32.6697 24.2566 33.5268 23.7617C34.743 23.0597 35.6419 21.935 36.058 20.5947Z" fill="white"/>
</g>
<defs>
<clipPath id="clip0_103_18439">
<rect width="40" height="40" fill="white"/>
</clipPath>
</defs>
</svg>
