<svg width="40" height="40" viewBox="0 0 40 40" fill="none" xmlns="http://www.w3.org/2000/svg">
<g clip-path="url(#clip0_103_18406)">
<path d="M11.4313 32.1875C11.2518 32.054 11.1316 31.8556 11.0964 31.6347C11.0612 31.4138 11.1137 31.1878 11.2427 31.0051C11.3717 30.8223 11.567 30.6972 11.787 30.6565C12.0069 30.6157 12.2341 30.6625 12.42 30.7869C21.0406 36.8563 33.1806 30.7288 33.1806 20C33.1802 17.929 32.6918 15.8873 31.7549 14.0403C30.8181 12.1933 29.4592 10.5931 27.7884 9.36938C26.1176 8.14564 24.182 7.33282 22.1385 6.99682C20.0949 6.66082 18.0009 6.81109 16.0263 7.43545C14.0517 8.05981 12.252 9.14069 10.7731 10.5905C9.29416 12.0402 8.17769 13.8181 7.51418 15.7799C6.85066 17.7417 6.65877 19.8323 6.95405 21.8821C7.24934 23.932 8.0235 25.8834 9.21376 27.5781C9.33393 27.7642 9.3774 27.9896 9.33503 28.207C9.29267 28.4244 9.16777 28.6169 8.98654 28.7442C8.8053 28.8715 8.58181 28.9237 8.36293 28.8899C8.14404 28.856 7.94678 28.7387 7.81251 28.5625C6.46648 26.6473 5.5908 24.4418 5.25646 22.1249C4.92213 19.808 5.13857 17.4449 5.88823 15.2273C6.63788 13.0097 7.89965 10.9999 9.5712 9.36112C11.2427 7.72229 13.277 6.50049 15.509 5.79481C17.741 5.08913 20.1079 4.91944 22.4178 5.2995C24.7276 5.67956 26.9154 6.59867 28.8036 7.98228C30.6918 9.3659 32.2274 11.1751 33.2857 13.2631C34.3441 15.3511 34.8954 17.6591 34.895 20C34.895 32.0944 21.2063 39.0713 11.4313 32.1875Z" fill="white"/>
<path d="M20 40C16.0444 40 12.1776 38.827 8.8886 36.6294C5.59962 34.4318 3.03617 31.3082 1.52242 27.6537C0.00866562 23.9992 -0.387401 19.9778 0.384303 16.0982C1.15601 12.2186 3.06082 8.65492 5.85787 5.85787C8.65492 3.06082 12.2186 1.15601 16.0982 0.384303C19.9778 -0.387401 23.9992 0.00866562 27.6537 1.52242C31.3082 3.03617 34.4318 5.59962 36.6294 8.8886C38.827 12.1776 40 16.0444 40 20C39.9941 25.3025 37.885 30.3861 34.1356 34.1356C30.3861 37.885 25.3025 39.9941 20 40ZM20 1.71438C16.3835 1.71438 12.8481 2.78682 9.84106 4.79607C6.834 6.80532 4.49029 9.66114 3.10629 13.0024C1.7223 16.3437 1.36018 20.0203 2.06574 23.5674C2.77129 27.1144 4.51283 30.3726 7.07012 32.9299C9.62741 35.4872 12.8856 37.2287 16.4327 37.9343C19.9797 38.6398 23.6564 38.2777 26.9976 36.8937C30.3389 35.5097 33.1947 33.166 35.2039 30.159C37.2132 27.1519 38.2856 23.6166 38.2856 20C38.28 15.1521 36.3517 10.5043 32.9237 7.07633C29.4957 3.64833 24.8479 1.72001 20 1.71438Z" fill="white"/>
<path d="M21.9144 29.7906C21.687 29.7903 21.4691 29.6998 21.3084 29.5391C21.1476 29.3784 21.0572 29.1604 21.0569 28.9331V27.6569C21.0569 27.5458 21.0127 27.4393 20.9342 27.3608C20.8557 27.2822 20.7492 27.2381 20.6381 27.2381H18.0856C17.9745 27.2381 17.868 27.2822 17.7895 27.3608C17.711 27.4393 17.6669 27.5458 17.6669 27.6569V28.9331C17.6699 29.0476 17.6501 29.1616 17.6084 29.2683C17.5667 29.375 17.504 29.4723 17.4241 29.5544C17.3442 29.6365 17.2487 29.7017 17.1432 29.7463C17.0376 29.7908 16.9242 29.8138 16.8097 29.8138C16.6951 29.8138 16.5817 29.7908 16.4762 29.7463C16.3706 29.7017 16.2751 29.6365 16.1952 29.5544C16.1153 29.4723 16.0526 29.375 16.011 29.2683C15.9693 29.1616 15.9494 29.0476 15.9525 28.9331V27.6569C15.9523 27.5458 15.9081 27.4392 15.8294 27.3607C15.7508 27.2822 15.6442 27.2381 15.5331 27.2381H14.2575C14.143 27.2412 14.029 27.2213 13.9223 27.1796C13.8156 27.138 13.7183 27.0753 13.6362 26.9954C13.5541 26.9155 13.4889 26.82 13.4443 26.7144C13.3998 26.6089 13.3768 26.4955 13.3768 26.3809C13.3768 26.2664 13.3998 26.153 13.4443 26.0474C13.4889 25.9419 13.5541 25.8464 13.6362 25.7665C13.7183 25.6866 13.8156 25.6239 13.9223 25.5822C14.029 25.5405 14.143 25.5207 14.2575 25.5237H15.5331C15.6442 25.5237 15.7508 25.4796 15.8294 25.4011C15.9081 25.3226 15.9523 25.2161 15.9525 25.105V14.895C15.9523 14.7839 15.9081 14.6774 15.8294 14.5989C15.7508 14.5203 15.6442 14.4762 15.5331 14.4762H14.2575C14.143 14.4793 14.029 14.4595 13.9223 14.4178C13.8156 14.3761 13.7183 14.3134 13.6362 14.2335C13.5541 14.1536 13.4889 14.0581 13.4443 13.9525C13.3998 13.847 13.3768 13.7336 13.3768 13.6191C13.3768 13.5045 13.3998 13.3911 13.4443 13.2856C13.4889 13.18 13.5541 13.0845 13.6362 13.0046C13.7183 12.9247 13.8156 12.862 13.9223 12.8203C14.029 12.7787 14.143 12.7588 14.2575 12.7619H15.5331C15.6442 12.7619 15.7508 12.7178 15.8294 12.6393C15.9081 12.5607 15.9523 12.4542 15.9525 12.3431V11.0669C15.9494 10.9524 15.9693 10.8384 16.011 10.7317C16.0526 10.625 16.1153 10.5277 16.1952 10.4456C16.2751 10.3635 16.3706 10.2983 16.4762 10.2537C16.5817 10.2092 16.6951 10.1862 16.8097 10.1862C16.9242 10.1862 17.0376 10.2092 17.1432 10.2537C17.2487 10.2983 17.3442 10.3635 17.4241 10.4456C17.504 10.5277 17.5667 10.625 17.6084 10.7317C17.6501 10.8384 17.6699 10.9524 17.6669 11.0669V12.3431C17.6669 12.4542 17.711 12.5607 17.7895 12.6392C17.868 12.7177 17.9745 12.7619 18.0856 12.7619H20.6381C20.7492 12.7619 20.8557 12.7177 20.9342 12.6392C21.0127 12.5607 21.0569 12.4542 21.0569 12.3431V11.0669C21.0569 10.8394 21.1472 10.6213 21.308 10.4605C21.4688 10.2997 21.6869 10.2094 21.9144 10.2094C22.1418 10.2094 22.3599 10.2997 22.5207 10.4605C22.6815 10.6213 22.7719 10.8394 22.7719 11.0669V12.7906C22.7719 12.8696 22.7942 12.947 22.8362 13.0139C22.8782 13.0807 22.9382 13.1344 23.0094 13.1687C23.5454 13.4188 24.0195 13.7843 24.3977 14.2392C24.7758 14.6941 25.0486 15.227 25.1964 15.7997C25.3443 16.3725 25.3636 16.9708 25.2529 17.5519C25.1422 18.133 24.9043 18.6823 24.5562 19.1606C24.5227 19.2071 24.499 19.2601 24.4868 19.3161C24.4746 19.3722 24.474 19.4302 24.4851 19.4864C24.4963 19.5427 24.5189 19.5961 24.5515 19.6433C24.5842 19.6904 24.6262 19.7304 24.675 19.7606C25.3801 20.195 25.9343 20.8362 26.2619 21.5969C26.5894 22.3576 26.6746 23.2008 26.5057 24.0116C26.3368 24.8224 25.9221 25.5615 25.318 26.1281C24.714 26.6947 23.9499 27.0614 23.13 27.1781C23.0304 27.1926 22.9394 27.2424 22.8736 27.3185C22.8078 27.3946 22.7717 27.4919 22.7719 27.5925V28.9331C22.7715 29.1604 22.6811 29.3784 22.5203 29.5391C22.3596 29.6998 22.1417 29.7903 21.9144 29.7906ZM18.0856 20.8575C17.9745 20.8575 17.868 20.9016 17.7895 20.9801C17.711 21.0587 17.6669 21.1652 17.6669 21.2762V25.105C17.6669 25.2161 17.711 25.3226 17.7895 25.4011C17.868 25.4796 17.9745 25.5237 18.0856 25.5237H22.5525C23.1713 25.5237 23.7647 25.2779 24.2022 24.8404C24.6398 24.4028 24.8856 23.8094 24.8856 23.1906C24.8856 22.5718 24.6398 21.9784 24.2022 21.5408C23.7647 21.1033 23.1713 20.8575 22.5525 20.8575H18.0856ZM18.0856 14.4762C17.9745 14.4762 17.868 14.5204 17.7895 14.5989C17.711 14.6774 17.6669 14.7839 17.6669 14.895V18.7237C17.6669 18.8348 17.711 18.9413 17.7895 19.0198C17.868 19.0984 17.9745 19.1425 18.0856 19.1425H21.2762C21.895 19.1425 22.4885 18.8967 22.926 18.4591C23.3635 18.0216 23.6094 17.4282 23.6094 16.8094C23.6094 16.1906 23.3635 15.5971 22.926 15.1596C22.4885 14.7221 21.895 14.4762 21.2762 14.4762H18.0856Z" fill="white"/>
</g>
<defs>
<clipPath id="clip0_103_18406">
<rect width="40" height="40" fill="white"/>
</clipPath>
</defs>
</svg>
