<svg width="30" height="30" viewBox="0 0 30 30" fill="none" xmlns="http://www.w3.org/2000/svg">
<g clip-path="url(#clip0_301_3949)">
<path fill-rule="evenodd" clip-rule="evenodd" d="M21.9819 27.7873H8.01808C7.90383 27.7873 7.79544 27.7398 7.71751 27.656C7.64016 27.5723 7.60031 27.4603 7.60911 27.3467C7.7058 26.0318 8.30169 24.4317 9.16416 23.1696C10.1936 21.6632 11.451 20.8341 12.7043 20.8341H13.0893C13.1625 20.8341 13.2346 20.8534 13.2979 20.8909C13.8117 21.1939 14.4006 21.3544 15 21.3544C15.5994 21.3544 16.1882 21.1945 16.7021 20.8909C16.7654 20.8534 16.8374 20.8341 16.9107 20.8341H17.2956C18.5489 20.8341 19.8063 21.6638 20.8358 23.1696C21.6983 24.4311 22.2942 26.0319 22.3909 27.3467C22.3991 27.4603 22.3598 27.5723 22.2825 27.656C22.2051 27.7398 22.0961 27.7873 21.9819 27.7873ZM8.47863 26.967H21.5213C21.1651 24.7194 19.3564 21.655 17.2956 21.655H17.0191C16.4033 21.9954 15.7078 22.1753 15 22.1753C14.2922 22.1753 13.5967 21.996 12.9809 21.655H12.7043C10.6436 21.655 8.83488 24.7194 8.47863 26.967Z" fill="white"/>
<path fill-rule="evenodd" clip-rule="evenodd" d="M15.0002 20.9911C12.6975 20.9911 10.8237 19.1173 10.8237 16.8147C10.8237 14.512 12.6975 12.6382 15.0002 12.6382C17.3029 12.6382 19.1767 14.512 19.1767 16.8147C19.1767 19.1174 17.3029 20.9911 15.0002 20.9911ZM15.0002 13.4585C13.1499 13.4585 11.644 14.9643 11.644 16.8147C11.644 18.665 13.1499 20.1709 15.0002 20.1709C16.8506 20.1709 18.3564 18.665 18.3564 16.8147C18.3564 14.9643 16.8506 13.4585 15.0002 13.4585Z" fill="white"/>
<path fill-rule="evenodd" clip-rule="evenodd" d="M17.3379 16.575C17.1691 16.575 17.0115 16.4701 16.9518 16.3026C16.6904 15.5702 16.0869 15.0118 15.3375 14.8085C15.119 14.7493 14.9895 14.5237 15.0492 14.3052C15.1084 14.0866 15.3334 13.9571 15.5526 14.0169C16.5609 14.2905 17.373 15.0417 17.7246 16.0272C17.8007 16.2405 17.6894 16.4754 17.4761 16.5516C17.4299 16.5674 17.3836 16.575 17.3379 16.575V16.575Z" fill="white"/>
<path fill-rule="evenodd" clip-rule="evenodd" d="M29.5892 26.5961H21.7724C21.5457 26.5961 21.3622 26.4127 21.3622 26.1859C21.3622 25.9592 21.5456 25.7758 21.7724 25.7758L29.1234 25.7758C28.9717 24.925 28.568 23.946 28.0377 23.1702C27.6334 22.579 26.8002 21.587 25.7608 21.587H25.5546C25.0448 21.8653 24.47 22.0118 23.8858 22.0118C23.3017 22.0118 22.7269 21.8653 22.2171 21.587H22.0109C21.19 21.587 20.4974 22.2116 20.0615 22.7355C19.9168 22.9095 19.6578 22.9329 19.4838 22.7882C19.3098 22.6434 19.2857 22.3845 19.4311 22.2105C20.2174 21.2659 21.1092 20.7667 22.0109 20.7667L22.3255 20.7667C22.3988 20.7667 22.4708 20.7861 22.5341 20.8236C22.9419 21.0644 23.4101 21.1915 23.8864 21.1915C24.3628 21.1915 24.8304 21.0644 25.2387 20.8236C25.302 20.7861 25.3741 20.7667 25.4473 20.7667H25.762C28.0705 20.7667 29.8412 24.0104 29.9988 26.1561C30.007 26.2698 29.9678 26.3817 29.8904 26.4655C29.8119 26.5487 29.7035 26.5961 29.5892 26.5961V26.5961Z" fill="white"/>
<path fill-rule="evenodd" clip-rule="evenodd" d="M23.8858 21.045C21.9634 21.045 20.3989 19.4806 20.3989 17.5581C20.3989 15.6357 21.9634 14.0713 23.8858 14.0713C25.8082 14.0713 27.3726 15.6351 27.3726 17.5581C27.3726 19.4811 25.8088 21.045 23.8858 21.045V21.045ZM23.8858 14.8916C22.4157 14.8916 21.2192 16.0875 21.2192 17.5581C21.2192 19.0288 22.4157 20.2247 23.8858 20.2247C25.3559 20.2247 26.5523 19.0282 26.5523 17.5581C26.5523 16.0881 25.3564 14.8916 23.8858 14.8916V14.8916Z" fill="white"/>
<path fill-rule="evenodd" clip-rule="evenodd" d="M25.7952 17.4375C25.6264 17.4375 25.4688 17.3326 25.4091 17.165C25.204 16.5902 24.73 16.1514 24.1417 15.992C23.9232 15.9328 23.7937 15.7072 23.8534 15.4887C23.9126 15.2701 24.1382 15.1412 24.3568 15.2004C25.204 15.4301 25.8866 16.0617 26.1819 16.8896C26.2581 17.1029 26.1468 17.3379 25.9335 17.414C25.8878 17.4299 25.8409 17.4375 25.7952 17.4375V17.4375Z" fill="white"/>
<path fill-rule="evenodd" clip-rule="evenodd" d="M8.22701 26.5961H0.410169C0.295914 26.5961 0.187522 26.5486 0.109591 26.4648C0.032242 26.381 -0.00758702 26.2691 0.00119929 26.1555C0.159403 24.0098 1.92949 20.7661 4.23804 20.7661L4.55267 20.7661C4.6259 20.7661 4.69799 20.7855 4.76127 20.823C5.16906 21.0638 5.63664 21.1909 6.11358 21.1909C6.59051 21.1909 7.0575 21.0638 7.46589 20.823C7.52915 20.7855 7.60124 20.7661 7.67447 20.7661H7.98913C8.89027 20.7661 9.78263 21.2653 10.569 22.2099C10.7137 22.3839 10.6902 22.6429 10.5162 22.7876C10.3422 22.9323 10.0838 22.9089 9.93851 22.7349C9.5026 22.211 8.81061 21.5864 7.98915 21.5864L7.78289 21.5864C7.27314 21.8647 6.69834 22.0112 6.11418 22.0112C5.53001 22.0112 4.95521 21.8647 4.44546 21.5864H4.2392C3.19978 21.5864 2.36659 22.5784 1.96229 23.1696C1.43204 23.9459 1.02833 24.9244 0.876574 25.7752H8.22759C8.45434 25.7752 8.63774 25.9586 8.63774 26.1854C8.63774 26.4121 8.45318 26.5961 8.22701 26.5961V26.5961Z" fill="white"/>
<path fill-rule="evenodd" clip-rule="evenodd" d="M6.1138 21.045C4.19138 21.045 2.62695 19.4806 2.62695 17.5581C2.62695 15.6357 4.1908 14.0713 6.1138 14.0713C8.03679 14.0713 9.60064 15.6351 9.60064 17.5581C9.60064 19.4811 8.03624 21.045 6.1138 21.045V21.045ZM6.1138 14.8916C4.64372 14.8916 3.44725 16.0875 3.44725 17.5581C3.44725 19.0288 4.64312 20.2247 6.1138 20.2247C7.58389 20.2247 8.78036 19.0282 8.78036 17.5581C8.78036 16.0881 7.58389 14.8916 6.1138 14.8916V14.8916Z" fill="white"/>
<path fill-rule="evenodd" clip-rule="evenodd" d="M8.02323 17.4375C7.85448 17.4375 7.69686 17.3326 7.6371 17.165C7.43204 16.5902 6.95801 16.1514 6.36975 15.992C6.1512 15.9328 6.0217 15.7072 6.08147 15.4887C6.14125 15.2701 6.36622 15.1412 6.58479 15.2004C7.43204 15.4301 8.11465 16.0617 8.40995 16.8896C8.48612 17.1029 8.3748 17.3379 8.16152 17.414C8.11523 17.4299 8.06892 17.4375 8.02323 17.4375V17.4375Z" fill="white"/>
<path fill-rule="evenodd" clip-rule="evenodd" d="M20.2934 11.6333H8.59715C7.70711 11.6333 6.98291 10.9091 6.98291 10.019V3.82699C6.98291 2.93697 7.70711 2.21277 8.59715 2.21277H20.294C21.184 2.21277 21.9082 2.93697 21.9082 3.82699V10.0197C21.9076 10.9097 21.184 11.6333 20.2934 11.6333V11.6333ZM8.59715 3.03305C8.15946 3.03305 7.80321 3.3893 7.80321 3.82699V10.0197C7.80321 10.4573 8.15944 10.8136 8.59715 10.8136L20.294 10.8136C20.7317 10.8136 21.0879 10.4573 21.0879 10.0196V3.82699C21.0879 3.38932 20.7317 3.03305 20.294 3.03305H8.59715Z" fill="white"/>
<path fill-rule="evenodd" clip-rule="evenodd" d="M12.8738 10.097C12.7648 10.097 12.6605 10.0537 12.5838 9.97692L10.1991 7.5922C10.0391 7.43225 10.0391 7.1721 10.1991 7.01213C10.359 6.85217 10.6192 6.85217 10.7791 7.01213L12.8738 9.10681L18.1114 3.86923C18.2714 3.70928 18.5315 3.70928 18.6915 3.86923C18.8515 4.02918 18.8515 4.28933 18.6915 4.44931L13.1639 9.97692C13.0865 10.0543 12.9822 10.097 12.8738 10.097Z" fill="white"/>
</g>
<defs>
<clipPath id="clip0_301_3949">
<rect width="30" height="30" fill="white"/>
</clipPath>
</defs>
</svg>
