<svg width="30" height="30" viewBox="0 0 30 30" fill="none" xmlns="http://www.w3.org/2000/svg">
<path d="M19.3419 9.54071C16.4243 5.24841 12.5276 2.96709 10.487 4.36489C10.2623 4.52313 10.067 4.7195 9.91005 4.94511C9.91005 4.96159 5.18587 14.522 5.18587 14.522L2.54851 16.3088C2.14364 16.5837 1.79688 16.9356 1.52805 17.3445C1.25921 17.7534 1.07357 18.2112 0.98173 18.6919C0.889886 19.1725 0.893639 19.6665 0.992774 20.1457C1.09191 20.6249 1.28449 21.0799 1.5595 21.4847L1.67818 21.6594C2.23407 22.4692 3.0868 23.0271 4.05141 23.2123C5.01602 23.3974 6.01473 23.1948 6.83093 22.6484L11.0672 28.8891C11.6903 29.6572 12.887 30.422 14.3639 29.522C14.6255 29.3524 14.8487 29.1298 15.0191 28.8686C15.1894 28.6074 15.3031 28.3134 15.3529 28.0055C15.4126 27.6994 15.411 27.3844 15.3481 27.0788C15.2853 26.7732 15.1626 26.4832 14.987 26.2253L11.2551 20.7198C11.2551 20.7198 20.0771 20.0176 20.11 20.0044C20.3855 19.9468 20.6466 19.8347 20.8782 19.6748C21.9265 18.9627 22.3024 17.4693 21.9397 15.4682C21.6133 13.6253 20.687 11.5385 19.3419 9.54071V9.54071ZM2.63752 21.0099L2.51884 20.8352C2.32909 20.5559 2.1963 20.2419 2.12807 19.9111C2.05984 19.5804 2.0575 19.2395 2.12119 18.9078C2.18489 18.5762 2.31336 18.2604 2.49925 17.9785C2.68515 17.6966 2.92483 17.4541 3.20455 17.2649L5.48258 15.7154L8.48917 20.1429L6.21115 21.6924C5.93174 21.8824 5.61763 22.0154 5.28677 22.0839C4.95592 22.1525 4.61479 22.1551 4.28291 22.0918C3.95103 22.0284 3.63489 21.9002 3.35256 21.7146C3.07023 21.529 2.82726 21.2895 2.63752 21.0099ZM14.0375 26.8748C14.2177 27.1429 14.2842 27.4715 14.2224 27.7886C14.1606 28.1056 13.9755 28.3852 13.7079 28.566C13.4392 28.7463 13.1101 28.8129 12.7925 28.7511C12.4749 28.6893 12.1948 28.5042 12.0133 28.2363L7.79027 22.0154L9.48807 20.8616L9.93642 20.8253L14.0375 26.8748ZM9.58038 19.6946L6.30346 14.8682L9.42873 8.49566C9.73203 10.2858 10.6188 12.4121 12.0364 14.499C13.454 16.5858 15.1024 18.1946 16.6518 19.1374L9.58038 19.6946ZM19.3057 18.9264C17.7298 18.8242 15.165 17.0473 12.9925 13.8462C10.8199 10.6451 10.1144 7.61544 10.5991 6.10885C10.6866 5.82605 10.8612 5.57814 11.098 5.40053C11.3349 5.22291 11.6218 5.12467 11.9177 5.11983C13.4804 5.11983 16.1408 6.90665 18.376 10.2001C19.6353 12.0528 20.5518 13.9913 20.8024 15.6858C21.2936 18.9264 19.3057 18.9264 19.3057 18.9264V18.9264Z" fill="white"/>
<path d="M15.2209 9.66263C14.8171 9.58333 14.4015 9.58534 13.9985 9.66855C13.5955 9.75176 13.2131 9.9145 12.8737 10.1472C12.8111 10.1905 12.7577 10.2457 12.7165 10.3097C12.6752 10.3736 12.647 10.445 12.6334 10.5199C12.6198 10.5947 12.621 10.6715 12.6371 10.7459C12.6531 10.8203 12.6837 10.8907 12.727 10.9533C12.7703 11.0158 12.8255 11.0693 12.8894 11.1105C12.9533 11.1517 13.0248 11.18 13.0996 11.1936C13.1745 11.2072 13.2513 11.2059 13.3256 11.1899C13.4 11.1738 13.4705 11.1433 13.533 11.1C13.748 10.9541 13.9895 10.852 14.244 10.7994C14.4984 10.7469 14.7607 10.745 15.0158 10.7938C15.271 10.8426 15.514 10.9413 15.7311 11.084C15.9481 11.2268 16.1349 11.4109 16.2808 11.6258C16.4267 11.8408 16.5288 12.0823 16.5814 12.3368C16.6339 12.5912 16.6358 12.8535 16.587 13.1086C16.5382 13.3638 16.4396 13.6068 16.2968 13.8239C16.1541 14.0409 15.9699 14.2277 15.755 14.3736C15.6536 14.4436 15.5773 14.5442 15.5373 14.6607C15.4972 14.7771 15.4955 14.9034 15.5323 15.0209C15.5692 15.1385 15.6427 15.2411 15.742 15.3139C15.8414 15.3866 15.9615 15.4257 16.0847 15.4253C16.2022 15.4275 16.3174 15.3929 16.4143 15.3264C16.9271 14.979 17.3252 14.4873 17.5583 13.9135C17.7914 13.3397 17.8489 12.7096 17.7235 12.1031C17.5982 11.4965 17.2957 10.9408 16.8543 10.5064C16.4129 10.072 15.8524 9.7783 15.244 9.66263H15.2209Z" fill="white"/>
<path d="M20.0539 5.5286H20.11C20.2527 5.52854 20.3903 5.4756 20.4962 5.38001C20.6022 5.28442 20.6689 5.15295 20.6836 5.01102L21.1287 0.685741C21.1388 0.609259 21.1335 0.531522 21.113 0.45713C21.0926 0.382737 21.0574 0.313201 21.0097 0.252635C20.9619 0.192069 20.9024 0.141703 20.8348 0.104518C20.7672 0.0673321 20.6928 0.0440822 20.6161 0.0361435C20.5394 0.0282049 20.4618 0.0357387 20.388 0.0582992C20.3143 0.0808598 20.2458 0.117989 20.1866 0.16749C20.1274 0.21699 20.0788 0.277857 20.0435 0.346489C20.0083 0.415121 19.9872 0.490124 19.9814 0.56706L19.5397 4.89563C19.524 5.04775 19.5694 5.19988 19.6658 5.31857C19.7622 5.43725 19.9018 5.5128 20.0539 5.5286V5.5286Z" fill="white"/>
<path d="M27.5109 4.6385C27.4262 4.51082 27.2945 4.42182 27.1444 4.39094C26.9943 4.36005 26.8381 4.3898 26.7098 4.47367L22.6912 7.11103C22.5868 7.17993 22.5077 7.28088 22.4657 7.39866C22.4237 7.51644 22.421 7.64468 22.4582 7.76406C22.4954 7.88345 22.5704 7.98752 22.6719 8.06061C22.7733 8.13369 22.8958 8.17183 23.0208 8.16927C23.1375 8.17196 23.2522 8.13982 23.3505 8.07697L27.3692 5.4396C27.4938 5.35189 27.5787 5.2184 27.6053 5.06829C27.6319 4.91819 27.5979 4.76368 27.5109 4.6385V4.6385Z" fill="white"/>
<path d="M28.7409 11.6802L24.0662 10.8396C23.9154 10.8125 23.76 10.8464 23.6342 10.9339C23.5084 11.0213 23.4224 11.1552 23.3953 11.306C23.3682 11.4569 23.4022 11.6123 23.4896 11.7381C23.5771 11.8639 23.711 11.9498 23.8618 11.9769L28.5333 12.8176H28.6355C28.7824 12.8219 28.9255 12.7699 29.0355 12.6722C29.1454 12.5745 29.2139 12.4386 29.227 12.2921C29.24 12.1456 29.1966 11.9997 29.1057 11.8841C29.0147 11.7686 28.8831 11.6921 28.7377 11.6703L28.7409 11.6802Z" fill="white"/>
</svg>
