<svg width="30" height="30" viewBox="0 0 30 30" fill="none" xmlns="http://www.w3.org/2000/svg">
<path d="M29.9998 2.979C30.0016 2.57158 29.8394 2.18054 29.5497 1.89401L28.1058 0.450019C27.8206 0.161705 27.4318 -0.000344971 27.0263 5.51409e-07H27.0213C26.6182 0.000247353 26.2322 0.162396 25.9498 0.450019L19.3999 6.99994H6.49997V1.50001C6.49997 0.671548 5.82837 5.51409e-07 4.99996 5.51409e-07H3.99997C1.79188 0.00246857 0.00246802 1.79188 0 3.99997V26.1253C0.125129 28.3166 1.95028 30.0226 4.14499 29.9998H28.4998C29.3282 29.9998 29.9998 29.3282 29.9998 28.4998V8.49996C29.9998 7.67154 29.3282 6.99994 28.4998 6.99994H26.5998L29.5498 4.04997C29.8368 3.76743 29.9989 3.38178 29.9998 2.979ZM17.8899 12.4999C17.784 12.5143 17.6777 12.4771 17.6039 12.3999C17.5294 12.326 17.4927 12.2222 17.5039 12.1179L17.6934 10.418C17.7013 10.3824 17.7113 10.3473 17.7234 10.313L19.6929 12.2824C19.6604 12.2894 19.6309 12.3054 19.5969 12.3094L17.8899 12.4999ZM20.5093 11.6834L18.3213 9.49491L23.7713 4.04498L25.9583 6.23145L20.5093 11.6834ZM24.4763 3.33745L25.2178 2.59645L27.4038 4.78292L26.6628 5.52441L24.4763 3.33745ZM0.999992 3.99997C1.00167 2.34383 2.34383 1.00162 3.99997 0.999992H4.99996C5.27608 0.999992 5.49998 1.22384 5.49998 1.49996V21.4998C5.49998 21.7759 5.27613 21.9998 4.99996 21.9998H3.99997C2.8513 21.9994 1.75817 22.4939 0.999992 23.3567V3.99997ZM28.4998 7.99994C28.7759 7.99994 28.9998 8.22378 28.9998 8.49996V28.4998C28.9998 28.7759 28.776 28.9998 28.4998 28.9998H4.14499C2.49438 29.0276 1.1116 27.7569 0.999992 26.1098V25.9998C1.00167 24.3436 2.34383 23.0015 3.99997 22.9998H4.99996C5.82837 22.9998 6.49992 22.3283 6.49992 21.4998V7.99994H18.3998L17.2643 9.13542C16.9473 9.44777 16.7479 9.85998 16.6998 10.3024L16.5104 12.0059C16.4948 12.172 16.5105 12.3396 16.5569 12.4999H7.99993C7.72381 12.4999 7.49991 12.7237 7.49991 12.9999C7.49991 13.276 7.72376 13.4999 7.99993 13.4999H9.49995V26.9998C9.49995 27.2759 9.7238 27.4998 9.99997 27.4998C10.2761 27.4998 10.5 27.2759 10.5 26.9998V19.9998H15.9999V23.9998H12.4999C12.2238 23.9998 12 24.2237 12 24.4998C12 24.7759 12.2238 24.9998 12.4999 24.9998H22.4998C23.0521 24.9998 23.4998 24.5521 23.4998 23.9998V16.4999C23.4998 16.2238 23.276 15.9999 22.9999 15.9999C22.7237 15.9999 22.4998 16.2237 22.4998 16.4999V18.9998H10.4999V13.4999H17.8539C17.9027 13.5 17.9514 13.4973 17.9999 13.4919L19.7084 13.2974C20.142 13.2482 20.5467 13.0555 20.8584 12.7499L25.6023 7.99998H28.4998V7.99994ZM22.4998 19.9998V23.9998H16.9999V19.9998H22.4998ZM28.8448 3.34096L28.1108 4.07544L25.9248 1.88947L26.6593 1.15498C26.7554 1.05636 26.8871 1.00049 27.0248 0.999992C27.165 1.00034 27.2991 1.0569 27.3973 1.15701L28.8433 2.60001C28.9438 2.69903 29.0003 2.83437 28.9998 2.97549C28.9994 3.11321 28.9435 3.24495 28.8448 3.34096Z" fill="white"/>
</svg>
