<svg width="30" height="30" viewBox="0 0 30 30" fill="none" xmlns="http://www.w3.org/2000/svg">
<path d="M26.6881 23.3674C25.1658 23.3674 23.8809 24.4015 23.4952 25.8048H18.1979C17.8892 24.6816 17.0044 23.7957 15.8827 23.4865V20.1383H24.5975C27.5225 20.1383 29.9021 17.7555 29.9021 14.8266C29.9021 12.0329 27.7369 9.736 24.9986 9.52998C24.772 7.13672 22.7537 5.25844 20.3053 5.25844C19.8255 5.25844 19.3563 5.32969 18.9087 5.4685C18.8197 2.43791 16.33 0 13.2823 0C10.1785 0 7.6534 2.52844 7.6534 5.63637V6.03053H7.15236C3.26795 6.03053 0.107813 9.19488 0.107813 13.0845C0.107813 16.974 3.26795 20.1383 7.1523 20.1383H14.1272V23.4865C13.0055 23.7956 12.1207 24.6816 11.812 25.8048H6.5049C6.11918 24.4015 4.83428 23.3674 3.31195 23.3674C1.48576 23.3674 0 24.8551 0 26.6837C0 28.5122 1.48576 30 3.31195 30C4.83428 30 6.11918 28.9659 6.5049 27.5626H11.812C12.1977 28.9659 13.4826 30 15.0049 30C16.5272 30 17.8121 28.9659 18.1979 27.5626H23.4951C23.8809 28.9659 25.1657 30 26.6881 30C28.5143 30 30 28.5123 30 26.6837C30 24.855 28.5143 23.3674 26.6881 23.3674V23.3674ZM1.86334 13.0845C1.86334 10.1642 4.23598 7.78834 7.15242 7.78834H9.40893V5.63637C9.40893 3.4977 11.1465 1.75781 13.2823 1.75781C15.4181 1.75781 17.1557 3.49775 17.1557 5.63637V8.62195L18.5538 7.59147C19.0644 7.21518 19.67 7.01625 20.3053 7.01625C21.9369 7.01625 23.2643 8.34545 23.2643 9.97916C23.2643 10.0831 23.2584 10.1912 23.2467 10.3003L23.1428 11.2727H24.5975C26.5545 11.2727 28.1466 12.867 28.1466 14.8266C28.1466 16.7862 26.5545 18.3804 24.5975 18.3804H7.15236C4.23592 18.3805 1.86334 16.0047 1.86334 13.0845V13.0845ZM3.31195 28.2422C2.45373 28.2422 1.75547 27.543 1.75547 26.6837C1.75547 25.8243 2.45373 25.1251 3.31195 25.1251C4.17023 25.1251 4.86838 25.8243 4.86838 26.6837C4.86838 27.543 4.17023 28.2422 3.31195 28.2422ZM15.0049 28.2422C14.1466 28.2422 13.4485 27.543 13.4485 26.6837C13.4485 25.8243 14.1467 25.1251 15.0049 25.1251C15.8631 25.1251 16.5613 25.8243 16.5613 26.6837C16.5613 27.543 15.8632 28.2422 15.0049 28.2422ZM26.6881 28.2422C25.8298 28.2422 25.1317 27.543 25.1317 26.6837C25.1317 25.8243 25.8299 25.1251 26.6881 25.1251C27.5463 25.1251 28.2445 25.8243 28.2445 26.6837C28.2445 27.543 27.5463 28.2422 26.6881 28.2422Z" fill="white"/>
</svg>
