<svg width="78" height="14" viewBox="0 0 78 14" fill="none" xmlns="http://www.w3.org/2000/svg">
<path d="M11.1018 0H0.65C0.299 0 0 0.300999 0 0.667999V1.85901C0 2.22601 0.299 2.52701 0.65 2.52701H11.1018C11.4658 2.52701 11.7518 2.22601 11.7648 1.85901V0.681C11.7648 0.301 11.4658 0 11.1018 0ZM11.1018 6.61301H0.65C0.481 6.61301 0.312 6.679 0.195 6.81C0.0649997 6.941 0 7.09801 0 7.28101V8.47301C0 8.84001 0.299 9.14101 0.65 9.14101H11.1018C11.4658 9.14101 11.7518 8.85301 11.7648 8.47301V7.28101C11.7518 6.90201 11.4658 6.61301 11.1018 6.61301ZM6.5389 9.914H0.65C0.481 9.914 0.312 9.979 0.195 10.11C0.0779997 10.241 0 10.398 0 10.582V11.773C0 12.14 0.299 12.441 0.65 12.441H6.5259C6.8899 12.441 7.1759 12.14 7.1759 11.786V10.595C7.1889 10.202 6.9029 9.914 6.5389 9.914ZM11.7648 3.3H0.65C0.481 3.3 0.312 3.365 0.195 3.496C0.0779997 3.627 0 3.785 0 3.968V5.16C0 5.526 0.299 5.828 0.65 5.828H11.7518C12.1157 5.828 12.4017 5.526 12.4017 5.16V3.968C12.4147 3.614 12.1157 3.313 11.7648 3.3Z" fill="#2DBDEF"/>
<path d="M23.9199 3.994C23.5949 3.654 23.2179 3.392 22.789 3.209C22.36 3.025 21.905 2.93401 21.437 2.93401C20.982 2.92001 20.54 3.025 20.124 3.222C19.851 3.353 19.604 3.536 19.396 3.759V3.549C19.396 3.444 19.357 3.34 19.292 3.261C19.227 3.182 19.123 3.13 19.006 3.13H17.5631C17.4591 3.13 17.3551 3.169 17.2901 3.261C17.2121 3.34 17.1731 3.444 17.1861 3.549V13.345C17.1861 13.45 17.2251 13.555 17.2901 13.633C17.3681 13.712 17.4591 13.751 17.5631 13.751H19.045C19.149 13.751 19.24 13.712 19.318 13.633C19.396 13.568 19.448 13.463 19.435 13.345V9.993C19.643 10.228 19.916 10.399 20.215 10.503C20.605 10.647 21.008 10.726 21.424 10.726C21.892 10.726 22.36 10.634 22.789 10.451C23.2179 10.268 23.6079 10.006 23.9329 9.66499C24.2709 9.31199 24.5309 8.89201 24.7129 8.43401C24.9209 7.92301 25.0119 7.373 24.9989 6.823C25.0119 6.273 24.9079 5.72301 24.7129 5.19901C24.5179 4.76701 24.2579 4.348 23.9199 3.994ZM22.594 7.543C22.516 7.753 22.399 7.93599 22.243 8.10699C21.944 8.43399 21.515 8.617 21.073 8.617C20.852 8.617 20.631 8.57801 20.423 8.47301C20.228 8.38201 20.046 8.26399 19.89 8.10699C19.734 7.94899 19.617 7.753 19.539 7.543C19.37 7.098 19.37 6.614 19.539 6.168C19.617 5.959 19.747 5.775 19.89 5.618C20.046 5.461 20.228 5.33 20.423 5.239C20.631 5.147 20.852 5.09399 21.073 5.09399C21.307 5.09399 21.515 5.134 21.736 5.239C21.931 5.33 22.113 5.448 22.256 5.605C22.412 5.762 22.516 5.946 22.607 6.155C22.763 6.614 22.75 7.098 22.594 7.543ZM32.9417 3.14301H31.4728C31.3688 3.14301 31.2648 3.182 31.1998 3.261C31.1218 3.34 31.0828 3.444 31.0828 3.562V3.746C30.9008 3.523 30.6668 3.353 30.4198 3.235C30.0168 3.038 29.5748 2.94701 29.1328 2.94701C28.1838 2.94701 27.2869 3.326 26.6109 3.994C26.2599 4.348 25.9869 4.76701 25.8049 5.22501C25.5969 5.73601 25.4929 6.286 25.5059 6.849C25.4929 7.399 25.5969 7.94901 25.8049 8.47301C25.9999 8.93201 26.2599 9.35099 26.6109 9.70399C27.2739 10.385 28.1838 10.765 29.1198 10.765C29.5618 10.778 30.0038 10.674 30.4068 10.477C30.6538 10.346 30.9008 10.176 31.0828 9.966V10.163C31.0828 10.268 31.1218 10.372 31.1998 10.451C31.2778 10.516 31.3688 10.569 31.4728 10.569H32.9417C33.0457 10.569 33.1497 10.529 33.2147 10.451C33.2927 10.372 33.3317 10.268 33.3317 10.163V3.575C33.3317 3.471 33.2927 3.366 33.2277 3.287C33.1497 3.196 33.0457 3.14301 32.9417 3.14301ZM30.9528 7.543C30.8748 7.753 30.7578 7.93599 30.6018 8.10699C30.4458 8.26399 30.2768 8.39499 30.0818 8.48599C29.6658 8.68299 29.1848 8.68299 28.7688 8.48599C28.5738 8.39499 28.3918 8.26399 28.2358 8.10699C28.0798 7.94899 27.9628 7.753 27.8848 7.543C27.7288 7.098 27.7288 6.614 27.8848 6.168C27.9628 5.959 28.0798 5.789 28.2358 5.618C28.3918 5.461 28.5608 5.33 28.7688 5.239C29.1848 5.042 29.6658 5.042 30.0688 5.239C30.2638 5.33 30.4458 5.448 30.5888 5.605C30.7318 5.762 30.8488 5.946 30.9398 6.155C31.1218 6.614 31.1218 7.098 30.9528 7.543ZM47.5794 6.653C47.3714 6.47 47.1244 6.31199 46.8645 6.20799C46.5915 6.08999 46.2925 6.011 46.0065 5.946L44.8885 5.72301C44.6025 5.67101 44.3945 5.592 44.2905 5.5C44.1995 5.435 44.1345 5.33001 44.1345 5.21201C44.1345 5.09401 44.1995 4.98999 44.3425 4.89799C44.5375 4.79299 44.7455 4.741 44.9665 4.754C45.2525 4.754 45.5385 4.819 45.7985 4.924C46.0585 5.042 46.3055 5.16 46.5395 5.317C46.8645 5.527 47.1504 5.487 47.3454 5.252L47.8784 4.636C47.9824 4.531 48.0344 4.4 48.0474 4.256C48.0344 4.099 47.9564 3.96801 47.8394 3.86301C47.6184 3.66701 47.2544 3.457 46.7735 3.248C46.2925 3.038 45.6815 2.93401 44.9665 2.93401C44.5245 2.92001 44.0955 2.986 43.6795 3.117C43.3285 3.235 42.9905 3.40501 42.6915 3.62801C42.4185 3.83701 42.2105 4.09899 42.0546 4.41299C41.9116 4.71499 41.8336 5.042 41.8336 5.37C41.8336 5.985 42.0156 6.483 42.3795 6.849C42.7435 7.216 43.2245 7.46499 43.8225 7.58299L44.9925 7.845C45.2395 7.884 45.4995 7.963 45.7335 8.08C45.8635 8.133 45.9415 8.264 45.9415 8.408C45.9415 8.539 45.8765 8.657 45.7335 8.761C45.5905 8.866 45.3565 8.93201 45.0445 8.93201C44.7325 8.93201 44.4075 8.866 44.1215 8.722C43.8485 8.591 43.6015 8.42101 43.3675 8.22501C43.2635 8.14601 43.1595 8.08 43.0295 8.028C42.8995 7.989 42.7305 8.028 42.5615 8.172L41.9246 8.657C41.7426 8.788 41.6516 9.01 41.7036 9.22C41.7426 9.442 41.9116 9.652 42.2365 9.901C43.0425 10.451 44.0045 10.739 44.9795 10.713C45.4345 10.713 45.8895 10.66 46.3185 10.529C46.6955 10.412 47.0464 10.241 47.3584 10.006C47.6444 9.796 47.8784 9.521 48.0344 9.194C48.1904 8.879 48.2684 8.539 48.2684 8.185C48.2814 7.871 48.2164 7.55701 48.0864 7.26801C47.9564 7.05901 47.7874 6.836 47.5794 6.653ZM54.0013 8.44701C53.9363 8.32901 53.8193 8.25101 53.6763 8.22501C53.5463 8.22501 53.4033 8.264 53.2993 8.342C53.1173 8.46 52.9093 8.526 52.7013 8.539C52.6363 8.539 52.5583 8.526 52.4933 8.513C52.4153 8.5 52.3503 8.46 52.2983 8.408C52.2333 8.342 52.1813 8.264 52.1423 8.185C52.0903 8.054 52.0643 7.92301 52.0773 7.79201V5.108H53.9753C54.0923 5.108 54.1963 5.05501 54.2743 4.97701C54.3523 4.89801 54.4043 4.806 54.4043 4.688V3.549C54.4043 3.431 54.3653 3.326 54.2743 3.261C54.1963 3.182 54.0923 3.14301 53.9883 3.14301H52.0773V1.31C52.0773 1.205 52.0383 1.087 51.9603 1.022C51.8823 0.956003 51.7913 0.917007 51.6874 0.904007H50.2054C50.1014 0.904007 49.9974 0.943003 49.9194 1.022C49.8414 1.1 49.7894 1.205 49.7894 1.31V3.14301H48.9444C48.8404 3.14301 48.7364 3.182 48.6584 3.274C48.5934 3.353 48.5544 3.457 48.5544 3.562V4.702C48.5544 4.806 48.5934 4.91101 48.6584 4.99001C48.7234 5.08101 48.8274 5.121 48.9444 5.121H49.7894V8.31599C49.7764 8.69599 49.8544 9.076 50.0104 9.416C50.1534 9.704 50.3354 9.95299 50.5824 10.163C50.8164 10.359 51.0894 10.503 51.3884 10.582C51.6874 10.674 51.9993 10.726 52.3113 10.726C52.7143 10.726 53.1303 10.66 53.5203 10.529C53.8843 10.412 54.2093 10.202 54.4693 9.927C54.6383 9.757 54.6513 9.482 54.5213 9.285L54.0013 8.44701ZM62.0351 3.14301H60.5662C60.4622 3.14301 60.3712 3.182 60.2932 3.261C60.2152 3.34 60.1762 3.444 60.1762 3.562V3.746C59.9942 3.523 59.7732 3.353 59.5132 3.235C59.1102 3.038 58.6682 2.94701 58.2262 2.94701C57.2772 2.94701 56.3803 3.326 55.7043 3.994C55.3533 4.348 55.0803 4.76701 54.8983 5.22501C54.6903 5.73601 54.5863 6.286 54.5993 6.836C54.5863 7.386 54.6903 7.93601 54.8983 8.46001C55.0803 8.91901 55.3663 9.33799 55.7043 9.69099C56.3673 10.372 57.2642 10.752 58.2132 10.752C58.6552 10.765 59.0972 10.66 59.5002 10.477C59.7602 10.346 59.9942 10.176 60.1762 9.966V10.163C60.1762 10.268 60.2152 10.372 60.2932 10.438C60.3712 10.516 60.4622 10.556 60.5662 10.556H62.0351C62.2561 10.556 62.4251 10.385 62.4251 10.163V3.575C62.4251 3.471 62.3861 3.366 62.3211 3.287C62.2561 3.196 62.1521 3.14301 62.0351 3.14301ZM60.0592 7.55701C59.9812 7.76601 59.8642 7.949 59.7082 8.12C59.5522 8.277 59.3832 8.408 59.1882 8.5C58.9802 8.591 58.7592 8.644 58.5252 8.644C58.2912 8.644 58.0832 8.591 57.8752 8.5C57.6802 8.408 57.4982 8.277 57.3422 8.12C57.1862 7.963 57.0692 7.76601 57.0042 7.55701C56.8482 7.11101 56.8482 6.627 57.0042 6.181C57.0822 5.972 57.1992 5.789 57.3422 5.631C57.4982 5.474 57.6802 5.343 57.8752 5.252C58.0832 5.16 58.3042 5.108 58.5252 5.108C58.7462 5.108 58.9672 5.147 59.1882 5.252C59.3832 5.343 59.5522 5.461 59.7082 5.618C59.8642 5.775 59.9812 5.959 60.0592 6.168C60.2282 6.601 60.2282 7.11101 60.0592 7.55701ZM70.095 8.355L69.25 7.701C69.094 7.57 68.938 7.52999 68.808 7.58299C68.691 7.63499 68.587 7.71399 68.496 7.80499C68.314 8.02799 68.093 8.225 67.859 8.395C67.599 8.539 67.326 8.617 67.04 8.591C66.702 8.591 66.39 8.49999 66.1171 8.30299C65.8441 8.10699 65.6361 7.845 65.5321 7.517C65.4541 7.295 65.4151 7.072 65.4151 6.849C65.4151 6.614 65.4541 6.391 65.5321 6.155C65.6101 5.946 65.7141 5.762 65.8701 5.605C66.0261 5.448 66.195 5.317 66.39 5.239C66.598 5.147 66.819 5.09399 67.053 5.09399C67.339 5.08099 67.625 5.16 67.872 5.304C68.119 5.461 68.327 5.65801 68.509 5.89301C68.587 5.98501 68.691 6.064 68.808 6.116C68.938 6.168 69.094 6.129 69.25 5.998L70.095 5.356C70.199 5.291 70.277 5.18599 70.316 5.06799C70.368 4.93699 70.355 4.793 70.277 4.675C69.952 4.165 69.51 3.746 68.977 3.444C68.418 3.13 67.755 2.96001 67.014 2.96001C66.494 2.96001 65.9741 3.065 65.4801 3.261C65.0121 3.457 64.5961 3.732 64.2451 4.086C63.8941 4.44 63.6081 4.859 63.4131 5.33C63.0101 6.312 63.0101 7.413 63.4131 8.395C63.6081 8.853 63.8811 9.28501 64.2451 9.62601C64.9861 10.359 65.9741 10.752 67.014 10.752C67.755 10.752 68.418 10.582 68.977 10.268C69.51 9.96601 69.965 9.54699 70.29 9.02299C70.355 8.90599 70.368 8.761 70.329 8.644C70.277 8.539 70.199 8.434 70.095 8.355ZM77.9208 9.888L75.5939 6.457L77.5828 3.811C77.6738 3.693 77.7128 3.523 77.6608 3.379C77.6218 3.274 77.5308 3.16901 77.2838 3.16901H75.7109C75.6199 3.16901 75.5289 3.196 75.4509 3.235C75.3469 3.287 75.2689 3.366 75.2169 3.457L73.6309 5.69701H73.2539V0.406006C73.2539 0.301006 73.2149 0.195996 73.1369 0.117996C73.0589 0.0389962 72.9679 0 72.8639 0H71.3949C71.2909 0 71.187 0.0389962 71.109 0.117996C71.031 0.195996 70.992 0.288006 70.992 0.406006V10.163C70.992 10.281 71.031 10.372 71.109 10.451C71.187 10.529 71.2909 10.569 71.3949 10.569H72.8639C72.9679 10.569 73.0719 10.529 73.1369 10.451C73.2149 10.372 73.2539 10.268 73.2539 10.163V7.58299H73.6699L75.3989 10.254C75.5029 10.451 75.6978 10.569 75.9058 10.569H77.5568C77.8038 10.569 77.9078 10.451 77.9598 10.346C78.0248 10.176 78.0118 10.006 77.9208 9.888ZM41.2876 3.15601H39.6366C39.5066 3.15601 39.3896 3.196 39.2986 3.287C39.2206 3.366 39.1686 3.457 39.1426 3.562L37.9206 8.12H37.6216L36.3217 3.562C36.2957 3.471 36.2567 3.379 36.1917 3.287C36.1137 3.196 36.0097 3.14301 35.8927 3.14301H34.2157C33.9947 3.14301 33.8647 3.209 33.7997 3.366C33.7607 3.497 33.7607 3.641 33.7997 3.772L35.8797 10.189C35.9187 10.281 35.9577 10.385 36.0357 10.451C36.1137 10.529 36.2307 10.569 36.3477 10.569H37.2316L37.1537 10.778L36.9587 11.368C36.8937 11.551 36.7897 11.708 36.6337 11.826C36.4907 11.931 36.3217 11.996 36.1397 11.983C35.9837 11.983 35.8407 11.944 35.6977 11.891C35.5547 11.826 35.4247 11.747 35.3077 11.656C35.2037 11.577 35.0737 11.538 34.9307 11.538H34.9177C34.7617 11.551 34.6187 11.63 34.5407 11.774L34.0207 12.546C33.8127 12.887 33.9297 13.096 34.0597 13.214C34.3457 13.476 34.6707 13.673 35.0347 13.79C35.4377 13.935 35.8537 14 36.2697 14C37.0237 14 37.6476 13.79 38.1286 13.384C38.6226 12.939 38.9996 12.363 39.1816 11.708L41.5996 3.772C41.6516 3.628 41.6646 3.484 41.6126 3.353C41.5996 3.261 41.5086 3.14301 41.2876 3.15601Z" fill="#131E32"/>
</svg>
