<svg width="90" height="18" viewBox="0 0 90 18" fill="none" xmlns="http://www.w3.org/2000/svg">
<path d="M29.776 4H29.806C29.986 4 30.091 4.137 30.091 4.319V12.512C30.091 12.649 29.986 12.801 29.806 12.801C29.671 12.801 29.521 12.694 29.521 12.512V4.289C29.521 4.137 29.626 4 29.776 4ZM22.08 4.42599H27.376C27.556 4.42599 27.661 4.608 27.661 4.745C27.661 4.882 27.556 5.034 27.376 5.034H22.365V8.45399H26.896C27.031 8.45399 27.181 8.55999 27.181 8.74199C27.181 8.87899 27.076 9.03099 26.896 9.03099H22.41V12.557C22.38 12.74 22.23 12.877 22.065 12.877C21.885 12.877 21.75 12.74 21.75 12.557V4.75999H21.78C21.765 4.59299 21.885 4.44099 22.05 4.42599C22.065 4.42599 22.08 4.42599 22.08 4.42599ZM37.458 6.96399C37.458 6.78199 37.323 6.67499 37.173 6.67499C36.992 6.67499 36.887 6.81199 36.887 6.96399V10.384C36.887 11.554 35.942 12.466 34.787 12.436C33.557 12.436 32.852 11.63 32.852 10.354V6.96399C32.852 6.78199 32.717 6.67499 32.567 6.67499C32.432 6.67499 32.282 6.81199 32.282 6.96399V10.46C32.282 11.904 33.197 12.968 34.697 12.968C35.612 12.998 36.482 12.512 36.902 11.691V12.573C36.902 12.755 37.038 12.861 37.188 12.861C37.368 12.861 37.473 12.725 37.473 12.573H37.443V6.96399H37.458ZM42.783 7.00999C42.783 7.14699 42.648 7.25299 42.498 7.25299H40.563V11.174C40.563 12.056 41.058 12.375 41.793 12.375C42.033 12.375 42.288 12.345 42.498 12.269C42.633 12.269 42.738 12.375 42.738 12.512C42.738 12.618 42.663 12.725 42.558 12.755C42.273 12.861 41.958 12.892 41.688 12.892C40.773 12.892 40.008 12.36 40.008 11.235V7.25299H39.348C39.213 7.25299 39.063 7.11599 39.063 6.96399C39.063 6.82699 39.198 6.72099 39.348 6.72099H40.008V5.034C40.008 4.897 40.113 4.745 40.248 4.745H40.278C40.413 4.745 40.563 4.882 40.563 5.034V6.72099H42.498C42.648 6.72099 42.783 6.85799 42.783 7.00999ZM47.284 7.25299C47.419 7.25299 47.569 7.14699 47.569 7.00999C47.569 6.87299 47.434 6.72099 47.284 6.72099H45.349V5.034C45.349 4.897 45.214 4.745 45.064 4.745H45.034C44.899 4.745 44.794 4.882 44.794 5.034V6.72099H44.134C43.999 6.72099 43.849 6.82699 43.849 6.96399C43.849 7.10099 43.984 7.25299 44.134 7.25299H44.794V11.235C44.794 12.36 45.559 12.892 46.474 12.892C46.759 12.892 47.074 12.861 47.344 12.755C47.449 12.725 47.524 12.618 47.524 12.512C47.524 12.375 47.419 12.269 47.284 12.269C47.074 12.345 46.834 12.375 46.579 12.375C45.844 12.375 45.349 12.056 45.349 11.174V7.25299H47.284ZM48.619 9.761C48.619 7.967 49.85 6.554 51.5 6.554C53.225 6.554 54.305 7.967 54.305 9.761C54.305 9.898 54.17 10.05 54.02 10.05H49.25C49.355 11.57 50.45 12.451 51.635 12.451C52.37 12.451 53.105 12.132 53.6 11.6C53.63 11.57 53.705 11.524 53.78 11.524C53.915 11.524 54.065 11.661 54.065 11.813C54.065 11.889 54.035 11.949 53.96 12.025C53.36 12.694 52.49 13.044 51.605 13.013C49.985 13.013 48.619 11.737 48.619 9.806V9.761ZM56.586 8.48399C56.976 7.46599 57.921 6.72099 59.001 6.64499C59.181 6.64499 59.316 6.782 59.316 6.995C59.316 7.131 59.211 7.314 59.031 7.314H59.001C57.696 7.45 56.586 8.40799 56.586 10.384V12.649C56.556 12.831 56.451 12.937 56.271 12.937C56.136 12.937 55.986 12.801 55.986 12.649V6.995C56.016 6.812 56.121 6.70599 56.301 6.70599C56.436 6.70599 56.586 6.843 56.586 6.995V8.48399ZM68.573 6.32599C68.153 6.32599 67.808 6.61499 67.703 7.02499L66.682 10.308L65.662 7.02499C65.557 6.59899 65.167 6.28 64.717 6.28H64.612C64.162 6.28 63.772 6.56899 63.667 7.02499L62.647 10.278L61.672 6.995C61.567 6.599 61.221 6.295 60.801 6.295H60.771C60.321 6.295 59.961 6.69099 59.961 7.14699C59.961 7.28299 59.991 7.43499 60.036 7.57199L61.612 12.132C61.717 12.588 62.107 12.907 62.587 12.937H62.662C63.112 12.937 63.502 12.618 63.637 12.162L64.657 8.90999L65.677 12.162C65.782 12.618 66.202 12.937 66.652 12.937H66.727C67.222 12.937 67.643 12.618 67.748 12.132L69.323 7.54199C69.353 7.43499 69.398 7.299 69.398 7.192V7.16199C69.398 6.69099 69.053 6.32599 68.573 6.32599ZM71.033 6.64499C71.693 6.43199 72.368 6.29499 73.073 6.32599C74.049 6.32599 74.754 6.615 75.279 7.071C75.774 7.633 76.014 8.37799 75.984 9.12199V12.01C75.984 12.512 75.594 12.892 75.114 12.892C74.664 12.892 74.274 12.573 74.244 12.117C73.749 12.649 73.043 12.968 72.308 12.922C71.153 12.922 70.133 12.223 70.133 10.946C70.133 9.533 71.183 8.864 72.698 8.864C73.223 8.864 73.749 8.93999 74.244 9.10699V9.00099C74.244 8.22599 73.794 7.83 72.878 7.83C72.458 7.83 72.038 7.861 71.618 8.013C71.543 8.043 71.438 8.043 71.378 8.043C70.958 8.074 70.613 7.75399 70.613 7.34399C70.598 7.03999 70.763 6.75099 71.033 6.64499ZM81.385 6.93399C81.49 6.53899 81.835 6.295 82.225 6.295C82.72 6.295 83.095 6.69099 83.095 7.14699V7.177C83.095 7.314 83.065 7.46599 82.99 7.60199L81.1 12.162C80.92 12.618 80.5 12.907 80.05 12.937H79.945C79.449 12.907 79.074 12.588 78.924 12.132L76.959 7.57199C76.884 7.43499 76.854 7.28299 76.854 7.14699C76.884 6.64499 77.274 6.295 77.724 6.295C78.144 6.295 78.489 6.58399 78.594 6.96399L79.96 10.673L81.385 6.93399ZM83.815 9.89799C83.89 11.661 85.39 13.044 87.146 12.937C87.956 12.937 88.721 12.694 89.351 12.162C89.531 12.025 89.591 11.843 89.591 11.63V11.6C89.591 11.205 89.276 10.901 88.886 10.901C88.751 10.901 88.571 10.931 88.466 11.038C88.076 11.326 87.626 11.494 87.161 11.463C86.396 11.494 85.72 10.962 85.615 10.186H89.231C89.681 10.156 90.041 9.76099 89.996 9.30499V9.168C89.996 7.572 88.631 6.235 86.951 6.28C85.09 6.28 83.785 7.79999 83.785 9.63899V9.89799H83.815Z" fill="#15152A"/>
<path d="M12.6883 0.141055C20.5803 -1.05994 15.5243 5.74904 13.0793 7.66504C14.7593 8.97204 16.4843 10.8111 17.2193 12.8931C18.5843 16.7081 15.2243 17.2701 12.6883 16.3131C9.91333 15.3251 7.46833 13.212 5.84733 10.735C5.39733 10.735 4.90233 10.6591 4.43733 10.5221C5.35233 13.1361 5.74233 15.811 5.48733 18C5.48733 13.592 3.41733 9.21505 0.431331 5.56705C-0.618669 4.29005 0.461329 3.34804 1.40733 4.57904C2.05233 5.47604 2.63733 6.40304 3.16233 7.36104C4.19733 3.77404 9.23833 0.643055 12.6883 0.141055ZM11.5633 6.63105C13.1093 5.67305 17.8043 0.567044 13.4243 1.02304C10.9033 1.31104 7.84333 3.66705 6.58233 5.18705C8.33833 4.97405 10.1233 5.74905 11.5633 6.63105ZM7.21333 10.5981C8.62333 12.1941 10.5433 13.7441 12.6133 14.3071C13.8143 14.6261 15.1343 14.489 14.6543 12.756C14.1593 11.16 12.8983 9.76205 11.6683 8.69805C11.3233 8.94105 10.9333 9.20005 10.5433 9.36705C9.49333 9.96005 8.36833 10.3851 7.21333 10.5981Z" fill="#EBA12A"/>
</svg>
