<svg xmlns="http://www.w3.org/2000/svg" xmlns:xlink="http://www.w3.org/1999/xlink" width="1000" zoomAndPan="magnify" viewBox="0 0 750 374.999991" height="500" preserveAspectRatio="xMidYMid meet" version="1.0"><defs><g/></defs><g fill="#ffffff" fill-opacity="1"><g transform="translate(16.606015, 239.009888)"><g><path d="M 147.8125 0 C 143.570312 1.414062 138.625 2.125 132.96875 2.125 C 125.050781 2.125 117.203125 0.320312 109.421875 -3.28125 C 101.648438 -6.882812 93.097656 -13.566406 83.765625 -23.328125 L 45.375 -63.40625 L 45.375 0 L 21.203125 0 L 21.203125 -113.234375 C 21.203125 -120.453125 20.210938 -125.789062 18.234375 -129.25 C 16.253906 -132.71875 12.296875 -134.453125 6.359375 -134.453125 L 3.1875 -134.453125 L 3.1875 -139.96875 L 26.078125 -139.96875 C 31.171875 -139.96875 35.09375 -139.1875 37.84375 -137.625 C 40.601562 -136.070312 42.546875 -133.421875 43.671875 -129.671875 C 44.804688 -125.929688 45.375 -120.453125 45.375 -113.234375 L 45.375 -72.53125 L 85.25 -117.6875 C 91.332031 -124.90625 97.128906 -130.421875 102.640625 -134.234375 C 108.148438 -138.054688 114.648438 -139.96875 122.140625 -139.96875 L 135.296875 -139.96875 L 135.296875 -133.390625 C 127.660156 -133.390625 121.050781 -132.289062 115.46875 -130.09375 C 109.882812 -127.90625 104.617188 -124.054688 99.671875 -118.546875 L 64.25 -78.46875 L 113.03125 -27.5625 C 118.6875 -21.488281 124.726562 -16.296875 131.15625 -11.984375 C 137.59375 -7.671875 143.144531 -5.234375 147.8125 -4.671875 Z M 132.96875 2.125 Z M 132.96875 2.125 "/></g></g></g><g fill="#ffffff" fill-opacity="1"><g transform="translate(162.075496, 239.009888)"><g><path d="M 132.75 0.84375 C 124.6875 0.84375 117.191406 -1.023438 110.265625 -4.765625 C 103.335938 -8.515625 97.6875 -15.832031 93.3125 -26.71875 L 88.21875 -39.234375 L 30.53125 -39.234375 L 13.359375 0 L 2.96875 0 L 64.25 -139.96875 L 72.3125 -139.96875 L 119.609375 -26.71875 C 122.578125 -19.644531 125.789062 -14.410156 129.25 -11.015625 C 132.71875 -7.628906 136.992188 -5.65625 142.078125 -5.09375 L 142.078125 -0.21875 C 139.535156 0.488281 136.425781 0.84375 132.75 0.84375 Z M 83.984375 -48.34375 L 59.796875 -106.25 L 34.5625 -48.34375 Z M 83.984375 -48.34375 "/></g></g></g><g fill="#ffffff" fill-opacity="1"><g transform="translate(298.214587, 239.009888)"><g><path d="M 179.1875 9.546875 C 164.0625 9.546875 153.351562 6.015625 147.0625 -1.046875 C 140.769531 -8.117188 137.625 -19.785156 137.625 -36.046875 L 137.625 -113.875 L 88.4375 0 L 82.703125 0 L 26.515625 -117.265625 L 26.515625 0 L 16.75 0 L 16.75 -139.96875 L 40.296875 -139.96875 L 91.40625 -33.296875 L 137.421875 -139.96875 L 161.796875 -139.96875 L 161.796875 -36.046875 C 161.796875 -22.898438 163.140625 -12.96875 165.828125 -6.25 C 168.515625 0.457031 172.96875 4.097656 179.1875 4.671875 Z M 179.1875 9.546875 "/></g></g></g><g fill="#ffffff" fill-opacity="1"><g transform="translate(481.005677, 239.009888)"><g><path d="M 21.203125 -113.234375 C 21.203125 -120.453125 20.210938 -125.789062 18.234375 -129.25 C 16.253906 -132.71875 12.296875 -134.453125 6.359375 -134.453125 L 3.1875 -134.453125 L 3.1875 -139.96875 L 95.421875 -139.96875 C 107.441406 -139.96875 113.453125 -134.3125 113.453125 -123 L 113.453125 -105.8125 L 107.9375 -105.8125 C 107.9375 -122.5 99.101562 -130.84375 81.4375 -130.84375 L 45.171875 -130.84375 L 45.171875 -76.984375 L 101.15625 -76.984375 L 101.15625 -67.859375 L 45.171875 -67.859375 L 45.171875 -9.125 L 81.859375 -9.125 C 90.617188 -9.125 97.6875 -10.890625 103.0625 -14.421875 C 108.4375 -17.953125 112.890625 -24.101562 116.421875 -32.875 L 121.515625 -31.171875 L 114.71875 -13.140625 C 113.164062 -8.765625 111.117188 -5.476562 108.578125 -3.28125 C 106.035156 -1.09375 102.289062 0 97.34375 0 L 21.203125 0 Z M 21.203125 -113.234375 "/></g></g></g><g fill="#ffffff" fill-opacity="1"><g transform="translate(607.390239, 239.009888)"><g><path d="M 21.203125 -113.234375 C 21.203125 -120.453125 20.210938 -125.789062 18.234375 -129.25 C 16.253906 -132.71875 12.296875 -134.453125 6.359375 -134.453125 L 3.1875 -134.453125 L 3.1875 -139.96875 L 26.078125 -139.96875 C 31.171875 -139.96875 35.0625 -139.1875 37.75 -137.625 C 40.4375 -136.070312 42.34375 -133.421875 43.46875 -129.671875 C 44.601562 -125.929688 45.171875 -120.453125 45.171875 -113.234375 L 45.171875 -9.125 L 119.171875 -9.125 L 119.171875 0 L 21.203125 0 Z M 21.203125 -113.234375 "/></g></g></g></svg>