<svg width="40" height="40" viewBox="0 0 40 40" fill="none" xmlns="http://www.w3.org/2000/svg">
<g clip-path="url(#clip0_380_1371)">
<path d="M29.375 21.5624C29.375 26.7401 25.1777 30.9374 20 30.9374C14.8223 30.9374 10.625 26.7401 10.625 21.5624C10.625 16.3848 14.8223 12.1874 20 12.1874C25.1777 12.1874 29.375 16.3848 29.375 21.5624Z" stroke="white" stroke-width="2.40234" stroke-miterlimit="10" stroke-linecap="round" stroke-linejoin="round"/>
<path d="M24.6875 21.5624C24.6875 24.1513 22.5888 26.2499 20 26.2499C17.4112 26.2499 15.3125 24.1513 15.3125 21.5624C15.3125 18.9736 17.4112 16.8749 20 16.8749C22.5888 16.8749 24.6875 18.9736 24.6875 21.5624Z" stroke="white" stroke-width="2.40234" stroke-miterlimit="10" stroke-linecap="round" stroke-linejoin="round"/>
<path d="M27.0312 9.06244L26.003 5.97752C25.6839 5.02049 24.7883 4.37494 23.7795 4.37494H16.2205C15.2117 4.37494 14.3161 5.02049 13.997 5.97752L12.9687 9.06244H4.29687C2.57094 9.06244 1.17188 10.4616 1.17188 12.1874V32.4999C1.17188 34.2258 2.57094 35.6249 4.29687 35.6249H35.7031C37.4291 35.6249 38.8281 34.2258 38.8281 32.4999V12.1874C38.8281 10.4616 37.4291 9.06244 35.7031 9.06244H27.0312Z" stroke="white" stroke-width="2.40234" stroke-miterlimit="10" stroke-linecap="round" stroke-linejoin="round"/>
<path d="M7.50391 4.37494H5.94141C5.07844 4.37494 4.37891 5.07447 4.37891 5.93744V9.06244H9.06641V5.93744C9.06641 5.07447 8.36687 4.37494 7.50391 4.37494Z" stroke="white" stroke-width="2.40234" stroke-miterlimit="10" stroke-linecap="round" stroke-linejoin="round"/>
<path d="M35.2344 13.7499C35.2344 14.3971 34.7097 14.9218 34.0625 14.9218C33.4153 14.9218 32.8906 14.3971 32.8906 13.7499C32.8906 13.1028 33.4153 12.5781 34.0625 12.5781C34.7097 12.5781 35.2344 13.1028 35.2344 13.7499Z" fill="white"/>
<path d="M5.9375 13.7499H8.28125" stroke="white" stroke-width="2.40234" stroke-miterlimit="10" stroke-linecap="round" stroke-linejoin="round"/>
</g>
<defs>
<clipPath id="clip0_380_1371">
<rect width="40" height="40" fill="white"/>
</clipPath>
</defs>
</svg>
