<svg width="40" height="40" viewBox="0 0 40 40" fill="none" xmlns="http://www.w3.org/2000/svg">
<path d="M39.2 10.9678C38.8568 10.9678 38.5807 10.6916 38.5807 10.3484V5.78066C38.5807 5.26711 38.1652 4.85162 37.6516 4.85162H2.34841C1.83486 4.85162 1.41937 5.26711 1.41937 5.78066V10.3484C1.41937 10.6916 1.14324 10.9678 0.800019 10.9678C0.456793 10.9678 0.180664 10.6916 0.180664 10.3484V5.78066C0.180664 4.58582 1.15357 3.61292 2.34841 3.61292H37.6516C38.8465 3.61292 39.8194 4.58582 39.8194 5.78066V10.3484C39.8194 10.6916 39.5432 10.9678 39.2 10.9678Z" fill="#030403"/>
<path d="M37.6516 36.3871H2.34841C1.15357 36.3871 0.180664 35.4142 0.180664 34.2193V10.3484C0.180664 10.0051 0.456793 9.729 0.800019 9.729H39.2C39.5432 9.729 39.8194 10.0051 39.8194 10.3484V34.2193C39.8194 35.4142 38.8465 36.3871 37.6516 36.3871ZM1.41937 10.9677V34.2193C1.41937 34.7329 1.83486 35.1484 2.34841 35.1484H37.6516C38.1652 35.1484 38.5807 34.7329 38.5807 34.2193V10.9677H1.41937Z" fill="#030403"/>
<path d="M5.62588 8.19354C5.12782 8.19354 4.72266 7.78838 4.72266 7.29031C4.72266 6.79225 5.12782 6.38708 5.62588 6.38708C6.12395 6.38708 6.52911 6.79225 6.52911 7.29031C6.52911 7.78838 6.12395 8.19354 5.62588 8.19354Z" fill="#030403"/>
<path d="M9.18716 8.19354C8.6891 8.19354 8.28394 7.78838 8.28394 7.29031C8.28394 6.79225 8.6891 6.38708 9.18716 6.38708C9.68523 6.38708 10.0904 6.79225 10.0904 7.29031C10.0904 7.78838 9.68523 8.19354 9.18716 8.19354Z" fill="#030403"/>
<path d="M12.7489 8.19354C12.2509 8.19354 11.8457 7.78838 11.8457 7.29031C11.8457 6.79225 12.2509 6.38708 12.7489 6.38708C13.247 6.38708 13.6522 6.79225 13.6522 7.29031C13.6522 7.78838 13.247 8.19354 12.7489 8.19354Z" fill="#030403"/>
<path d="M22.6172 25.8915H20.0005C19.6572 25.8915 19.3811 25.6154 19.3811 25.2722C19.3811 24.929 19.6572 24.6528 20.0005 24.6528H22.6172C22.9605 24.6528 23.2366 24.929 23.2366 25.2722C23.2366 25.6154 22.9605 25.8915 22.6172 25.8915Z" fill="#030403"/>
<path d="M20.0005 32.9341C17.954 32.9341 16.0288 32.1367 14.5811 30.689C13.1334 29.2412 12.3359 27.3187 12.3359 25.2696C12.3359 23.2206 13.1334 21.298 14.5811 19.8503C16.0288 18.4025 17.9514 17.6051 20.0005 17.6051C22.0469 17.6051 23.9721 18.4025 25.4198 19.8503C26.8676 21.298 27.665 23.2206 27.665 25.2696C27.665 27.3187 26.8676 29.2412 25.4198 30.689C23.9721 32.1367 22.0469 32.9341 20.0005 32.9341ZM20.0005 18.849C16.4572 18.849 13.5772 21.7316 13.5772 25.2722C13.5772 28.8128 16.4598 31.6954 20.0005 31.6954C23.5411 31.6954 26.4237 28.8128 26.4237 25.2722C26.4237 21.7316 23.5437 18.849 20.0005 18.849Z" fill="#030403"/>
<path d="M20.0005 25.8916C19.6572 25.8916 19.3811 25.6154 19.3811 25.2722V21.7806C19.3811 21.4374 19.6572 21.1613 20.0005 21.1613C20.3437 21.1613 20.6198 21.4374 20.6198 21.7806V25.2722C20.6198 25.6129 20.3437 25.8916 20.0005 25.8916Z" fill="#030403"/>
<path d="M20.9885 18.8696C20.6453 18.8696 20.3691 18.5935 20.3691 18.2503V15.9664C20.3691 15.6232 20.6453 15.347 20.9885 15.347C21.3317 15.347 21.6079 15.6232 21.6079 15.9664V18.2503C21.6079 18.5935 21.3291 18.8696 20.9885 18.8696Z" fill="#030403"/>
<path d="M19.0121 18.8696C18.6688 18.8696 18.3927 18.5935 18.3927 18.2503V15.9664C18.3927 15.6232 18.6688 15.347 19.0121 15.347C19.3553 15.347 19.6314 15.6232 19.6314 15.9664V18.2503C19.6314 18.5935 19.3553 18.8696 19.0121 18.8696Z" fill="#030403"/>
<path d="M22.24 16.5883H17.76C17.4168 16.5883 17.1406 16.3122 17.1406 15.969V13.8012C17.1406 13.458 17.4168 13.1819 17.76 13.1819H22.24C22.5832 13.1819 22.8593 13.458 22.8593 13.8012V15.969C22.8593 16.3096 22.5832 16.5883 22.24 16.5883ZM18.3793 15.3496H21.6206V14.4206H18.3793V15.3496Z" fill="#030403"/>
<path d="M20.0005 20.1677C19.6572 20.1677 19.3811 19.8915 19.3811 19.5483V18.227C19.3811 17.8838 19.6572 17.6077 20.0005 17.6077C20.3437 17.6077 20.6198 17.8838 20.6198 18.227V19.5483C20.6198 19.8915 20.3437 20.1677 20.0005 20.1677Z" fill="#030403"/>
<path d="M14.2795 25.8915H12.9582C12.615 25.8915 12.3389 25.6154 12.3389 25.2722C12.3389 24.929 12.615 24.6528 12.9582 24.6528H14.2795C14.6227 24.6528 14.8989 24.929 14.8989 25.2722C14.8989 25.6154 14.6202 25.8915 14.2795 25.8915Z" fill="#030403"/>
<path d="M20.0005 32.9341C19.6572 32.9341 19.3811 32.658 19.3811 32.3148V30.9935C19.3811 30.6503 19.6572 30.3741 20.0005 30.3741C20.3437 30.3741 20.6198 30.6503 20.6198 30.9935V32.3148C20.6198 32.658 20.3437 32.9341 20.0005 32.9341Z" fill="#030403"/>
<path d="M27.0431 25.8915H25.7218C25.3785 25.8915 25.1024 25.6154 25.1024 25.2722C25.1024 24.929 25.3785 24.6528 25.7218 24.6528H27.0431C27.3863 24.6528 27.6624 24.929 27.6624 25.2722C27.6624 25.6154 27.3863 25.8915 27.0431 25.8915Z" fill="#030403"/>
</svg>
