<svg width="80" height="80" viewBox="0 0 80 80" fill="none" xmlns="http://www.w3.org/2000/svg">
<path d="M40.0112 23.7548C41.0268 23.7548 42.985 22.5566 45.8319 20.1929C47.7981 18.5607 50.2557 16.2739 51.2564 14.7521C52.015 13.5988 52.8697 11.9765 52.7454 9.65229C52.5388 5.78844 49.4212 2.76172 45.6482 2.76172C42.9583 2.76172 41.0721 4.74678 40.0274 5.88494C39.0363 4.76478 37.1336 2.76172 34.3531 2.76172C30.5803 2.76172 27.4627 5.78844 27.2558 9.65251C27.13 12.0071 28.0457 13.6912 28.7455 14.753C30.2917 17.1 37.7619 23.7548 40.0112 23.7548Z" fill="#FE5F50"/>
<path d="M54.6394 26.5176C49.1909 26.5176 44.1383 28.2452 40.0001 31.1806C35.8619 28.245 30.8094 26.5176 25.3608 26.5176C11.3769 26.5176 0 37.8944 0 51.8781C0 65.8619 11.3769 77.2387 25.3606 77.2387C30.8091 77.2387 35.8617 75.5113 39.9999 72.5757C44.1381 75.5113 49.1906 77.2387 54.6392 77.2387C68.6231 77.2387 79.9998 65.8621 79.9998 51.8781C79.9998 37.8942 68.6231 26.5176 54.6394 26.5176ZM40.0001 63.7451C37.3664 60.5022 35.7851 56.3716 35.7851 51.8781C35.7851 47.3847 37.3662 43.2539 40.0001 40.0109C42.6338 43.2539 44.2151 47.3845 44.2151 51.8781C44.2151 56.3718 42.6338 60.5024 40.0001 63.7451ZM6.50627 51.8781C6.50627 41.4818 14.9644 33.0236 25.3606 33.0236C28.9195 33.0236 32.2509 34.0152 35.0939 35.7359C31.4632 40.1244 29.2789 45.7508 29.2789 51.8779C29.2789 58.0051 31.4632 63.6315 35.0939 68.02C32.2509 69.7407 28.9195 70.7322 25.3606 70.7322C14.9644 70.7324 6.50627 62.2745 6.50627 51.8781ZM54.6394 70.7324C51.0807 70.7324 47.7491 69.7409 44.9061 68.0202C48.5368 63.6317 50.7211 58.0053 50.7211 51.8781C50.7211 45.751 48.5368 40.1244 44.9061 35.7361C47.7491 34.0154 51.0805 33.0238 54.6394 33.0238C65.0358 33.0238 73.4937 41.482 73.4937 51.8784C73.4937 62.2747 65.0356 70.7324 54.6394 70.7324Z" fill="#FE5F50"/>
</svg>
