<svg width="40" height="40" viewBox="0 0 40 40" fill="none" xmlns="http://www.w3.org/2000/svg">
<g clip-path="url(#clip0_210_43)">
<path d="M39.3333 25.5187V2C39.3333 1.46957 39.1226 0.960859 38.7475 0.585786C38.3725 0.210714 37.8638 0 37.3333 0L2.66667 0C2.13623 0 1.62753 0.210714 1.25245 0.585786C0.87738 0.960859 0.666667 1.46957 0.666667 2V25.5187C0.464639 25.6348 0.296695 25.8019 0.179682 26.0034C0.0626688 26.2049 0.00070263 26.4337 0 26.6667L0 28C0 28.3536 0.140476 28.6928 0.390524 28.9428C0.640573 29.1929 0.979711 29.3333 1.33333 29.3333H12.0973L8.21133 37.1053C7.97405 37.5799 7.93501 38.1293 8.10279 38.6326C8.27057 39.136 8.63144 39.5521 9.106 39.7893C9.58056 40.0266 10.1299 40.0657 10.6333 39.8979C11.1366 39.7301 11.5527 39.3692 11.79 38.8947L13.57 35.3333H26.43L28.21 38.8947C28.3275 39.1296 28.4901 39.3392 28.6886 39.5113C28.887 39.6834 29.1175 39.8148 29.3667 39.8979C29.6159 39.981 29.8791 40.0141 30.1411 39.9955C30.4032 39.9769 30.659 39.9068 30.894 39.7893C31.129 39.6718 31.3385 39.5092 31.5106 39.3108C31.6828 39.1123 31.8141 38.8819 31.8972 38.6326C31.9803 38.3834 32.0135 38.1202 31.9948 37.8582C31.9762 37.5961 31.9062 37.3403 31.7887 37.1053L27.9027 29.3333H38.6667C39.0203 29.3333 39.3594 29.1929 39.6095 28.9428C39.8595 28.6928 40 28.3536 40 28V26.6667C39.9993 26.4337 39.9373 26.2049 39.8203 26.0034C39.7033 25.8019 39.5354 25.6348 39.3333 25.5187V25.5187ZM2 2C2 1.82319 2.07024 1.65362 2.19526 1.5286C2.32029 1.40357 2.48986 1.33333 2.66667 1.33333H37.3333C37.5101 1.33333 37.6797 1.40357 37.8047 1.5286C37.9298 1.65362 38 1.82319 38 2V25.3333H2V2ZM10.6 38.298C10.5188 38.4542 10.3801 38.5727 10.2131 38.6284C10.0462 38.6841 9.86406 38.6728 9.70533 38.5967C9.62695 38.5576 9.55705 38.5034 9.49961 38.4373C9.44218 38.3711 9.39834 38.2943 9.3706 38.2112C9.34286 38.1281 9.33177 38.0404 9.33796 37.953C9.34415 37.8656 9.3675 37.7804 9.40667 37.702L13.5887 29.3333H15.0793L10.6 38.298ZM23.43 29.3333L24.43 31.3333H15.57L16.57 29.3333H23.43ZM14.2367 34L14.9033 32.6667H25.0967L25.7633 34H14.2367ZM30.596 37.702C30.6352 37.7804 30.6585 37.8656 30.6647 37.953C30.6709 38.0404 30.6598 38.1281 30.6321 38.2112C30.6043 38.2943 30.5605 38.3711 30.5031 38.4373C30.4456 38.5034 30.3757 38.5576 30.2973 38.5967C30.1386 38.6726 29.9566 38.6839 29.7896 38.6282C29.6227 38.5724 29.484 38.4541 29.4027 38.298L24.9207 29.3333H26.4113L30.596 37.702ZM1.33333 28V26.6667H38.6667V28H1.33333Z" fill="white"/>
<path d="M20 3.33337C18.0222 3.33337 16.0888 3.91986 14.4443 5.01868C12.7998 6.11749 11.5181 7.67928 10.7612 9.50654C10.0043 11.3338 9.8063 13.3445 10.1922 15.2843C10.578 17.2241 11.5304 19.0059 12.9289 20.4044C14.3275 21.803 16.1093 22.7554 18.0491 23.1412C19.9889 23.5271 21.9996 23.329 23.8268 22.5722C25.6541 21.8153 27.2159 20.5336 28.3147 18.8891C29.4135 17.2446 30 15.3112 30 13.3334C29.997 10.6821 28.9425 8.14033 27.0678 6.26562C25.193 4.39091 22.6513 3.33637 20 3.33337V3.33337ZM20 22C18.2859 22 16.6103 21.4918 15.1851 20.5394C13.7598 19.5871 12.649 18.2336 11.993 16.65C11.3371 15.0663 11.1655 13.3238 11.4999 11.6426C11.8343 9.96142 12.6597 8.41717 13.8717 7.20512C15.0838 5.99306 16.6281 5.16764 18.3092 4.83323C19.9904 4.49883 21.733 4.67046 23.3166 5.32642C24.9002 5.98238 26.2538 7.09321 27.2061 8.51843C28.1584 9.94366 28.6667 11.6193 28.6667 13.3334C28.664 15.6311 27.7501 17.834 26.1253 19.4587C24.5006 21.0835 22.2977 21.9974 20 22V22Z" fill="white"/>
<path d="M20 10C20.3537 10 20.6928 10.1405 20.9428 10.3906C21.1929 10.6406 21.3334 10.9798 21.3334 11.3334C21.3334 11.5102 21.4036 11.6798 21.5286 11.8048C21.6537 11.9298 21.8232 12 22 12C22.1769 12 22.3464 11.9298 22.4714 11.8048C22.5965 11.6798 22.6667 11.5102 22.6667 11.3334C22.6645 10.7439 22.467 10.1718 22.1052 9.70642C21.7433 9.24107 21.2375 8.90874 20.6667 8.76137V8.00004C20.6667 7.82323 20.5965 7.65366 20.4714 7.52864C20.3464 7.40361 20.1769 7.33337 20 7.33337C19.8232 7.33337 19.6537 7.40361 19.5286 7.52864C19.4036 7.65366 19.3334 7.82323 19.3334 8.00004V8.76137C18.7056 8.92295 18.1584 9.30807 17.7945 9.84447C17.4305 10.3809 17.2749 11.0317 17.3567 11.6747C17.4385 12.3177 17.7522 12.9088 18.2389 13.3369C18.7256 13.765 19.3518 14.0008 20 14C20.2637 14 20.5215 14.0782 20.7408 14.2247C20.9601 14.3713 21.131 14.5795 21.2319 14.8231C21.3328 15.0668 21.3592 15.3349 21.3078 15.5935C21.2563 15.8521 21.1293 16.0897 20.9428 16.2762C20.7564 16.4627 20.5188 16.5896 20.2602 16.6411C20.0015 16.6925 19.7334 16.6661 19.4898 16.5652C19.2462 16.4643 19.0379 16.2934 18.8914 16.0741C18.7449 15.8549 18.6667 15.5971 18.6667 15.3334C18.6667 15.1566 18.5965 14.987 18.4714 14.862C18.3464 14.7369 18.1769 14.6667 18 14.6667C17.8232 14.6667 17.6537 14.7369 17.5286 14.862C17.4036 14.987 17.3334 15.1566 17.3334 15.3334C17.3356 15.9229 17.5331 16.495 17.8949 16.9603C18.2568 17.4257 18.7626 17.758 19.3334 17.9054V18.6667C19.3334 18.8435 19.4036 19.0131 19.5286 19.1381C19.6537 19.2631 19.8232 19.3334 20 19.3334C20.1769 19.3334 20.3464 19.2631 20.4714 19.1381C20.5965 19.0131 20.6667 18.8435 20.6667 18.6667V17.9054C21.2945 17.7438 21.8417 17.3587 22.2056 16.8223C22.5696 16.2859 22.7252 15.6351 22.6434 14.9921C22.5616 14.349 22.2479 13.758 21.7612 13.3298C21.2745 12.9017 20.6483 12.6659 20 12.6667C19.6464 12.6667 19.3073 12.5262 19.0572 12.2762C18.8072 12.0261 18.6667 11.687 18.6667 11.3334C18.6667 10.9798 18.8072 10.6406 19.0572 10.3906C19.3073 10.1405 19.6464 10 20 10V10Z" fill="white"/>
</g>
<defs>
<clipPath id="clip0_210_43">
<rect width="40" height="40" fill="white"/>
</clipPath>
</defs>
</svg>
