<svg width="58" height="58" viewBox="0 0 58 58" fill="none" xmlns="http://www.w3.org/2000/svg">
<path d="M15.875 22.4375H14V24.3125H15.875V22.4375Z" fill="#FE762A"/>
<path d="M25.25 22.4375H23.375V24.3125H25.25V22.4375Z" fill="#FE762A"/>
<path d="M56.3207 32.7593L52.6579 32.2362C52.4837 31.724 52.278 31.223 52.0419 30.7362L54.2582 27.7812C54.3935 27.6007 54.4592 27.3774 54.4432 27.1523C54.4272 26.9272 54.3306 26.7155 54.171 26.5559L50.1932 22.5781C50.0404 22.4264 49.8395 22.3326 49.6251 22.3128V13.2884C50.5022 12.5861 51.2103 11.6957 51.6972 10.683C52.184 9.67027 52.437 8.56111 52.4376 7.43746C52.4461 6.01665 52.0467 4.62324 51.2868 3.42273C50.5268 2.22222 49.4382 1.26507 48.1504 0.66496C48.0075 0.597494 47.8499 0.567231 47.6922 0.576983C47.5345 0.586734 47.3818 0.636183 47.2483 0.720736C47.1149 0.805289 47.0049 0.922204 46.9288 1.06062C46.8526 1.19903 46.8126 1.35446 46.8126 1.51246V6.76246L44.9376 7.38777L43.0626 6.76246V1.51246C43.0619 1.35478 43.0215 1.19981 42.945 1.0619C42.8685 0.923994 42.7585 0.807596 42.6252 0.723479C42.4918 0.639362 42.3394 0.590244 42.182 0.580671C42.0246 0.571098 41.8673 0.601378 41.7247 0.66871C40.4374 1.26855 39.3493 2.22512 38.5894 3.4249C37.8294 4.62468 37.4297 6.01729 37.4376 7.43746C37.4381 8.56111 37.6912 9.67027 38.178 10.683C38.6648 11.6957 39.3729 12.5861 40.2501 13.2884V19.625H37.4376C37.212 19.6249 36.9939 19.7062 36.8234 19.854C36.653 20.0018 36.5415 20.206 36.5094 20.4293L35.9029 24.6753L37.7591 24.9406L38.2504 21.5H42.2497L42.741 24.9406C42.7666 25.1188 42.8429 25.2859 42.961 25.4219C43.079 25.5579 43.2337 25.6571 43.4066 25.7075C44.188 25.9332 44.9425 26.2435 45.6566 26.6328C45.8146 26.7194 45.9942 26.7587 46.174 26.7459C46.3537 26.7331 46.5259 26.6687 46.6701 26.5606L49.446 24.4793L52.2735 27.3068L50.1876 30.0828C50.0794 30.2269 50.0151 30.3991 50.0023 30.5789C49.9895 30.7586 50.0287 30.9382 50.1154 31.0962C50.5046 31.8104 50.8149 32.5648 51.0407 33.3462C51.0911 33.5191 51.1902 33.6738 51.3262 33.7918C51.4622 33.9099 51.6293 33.9863 51.8076 34.0118L55.2482 34.5031V38.5025L51.8076 38.9937C51.6293 39.0193 51.4622 39.0957 51.3262 39.2137C51.1902 39.3317 51.0911 39.4865 51.0407 39.6593C50.8149 40.4407 50.5046 41.1952 50.1154 41.9093C50.0287 42.0673 49.9895 42.2469 50.0023 42.4267C50.0151 42.6064 50.0794 42.7787 50.1876 42.9228L52.2688 45.6987L49.4413 48.5262L46.6672 46.4375C46.5231 46.3293 46.3509 46.265 46.1711 46.2522C45.9914 46.2394 45.8118 46.2786 45.6538 46.3653C44.9397 46.7545 44.1852 47.0648 43.4038 47.2906C43.2309 47.341 43.0762 47.4401 42.9582 47.5761C42.8401 47.7121 42.7638 47.8792 42.7382 48.0575L42.2497 51.5H38.3751V47.5353C38.3744 46.5449 38.2323 45.5596 37.9532 44.6093C39.7389 45.1321 41.6464 45.0574 43.3858 44.3967C45.1251 43.7359 46.6011 42.5252 47.5893 40.9487C48.5775 39.3721 49.0238 37.516 48.8604 35.6626C48.697 33.8091 47.9327 32.0597 46.6839 30.6805C45.4351 29.3012 43.77 28.3674 41.9419 28.0212C40.1137 27.6751 38.2225 27.9353 36.5559 28.7625C34.8892 29.5897 33.5383 30.9385 32.7085 32.6039C31.8787 34.2692 31.6155 36.16 31.9588 37.9887C31.9363 37.9793 31.9147 37.9681 31.8922 37.9596L24.3126 34.9278V33.4868C25.5653 32.8459 26.6749 31.9574 27.5741 30.875H29.9376C30.6835 30.875 31.3988 30.5786 31.9263 30.0512C32.4537 29.5237 32.7501 28.8084 32.7501 28.0625V26.015C33.2965 25.8218 33.77 25.4644 34.1056 24.9919C34.4412 24.5193 34.6227 23.9546 34.6251 23.375V20.5625C34.6227 19.9828 34.4412 19.4181 34.1056 18.9456C33.77 18.473 33.2965 18.1157 32.7501 17.9225V16.8125C32.7501 13.3315 31.3672 9.9931 28.9058 7.53168C26.4444 5.07027 23.106 3.68746 19.6251 3.68746C16.1441 3.68746 12.8057 5.07027 10.3443 7.53168C7.88286 9.9931 6.50005 13.3315 6.50005 16.8125V17.9225C5.95358 18.1157 5.48014 18.473 5.14451 18.9456C4.80888 19.4181 4.62746 19.9828 4.62505 20.5625V23.375C4.62505 24.1209 4.92137 24.8363 5.44882 25.3637C5.97626 25.8911 6.69163 26.1875 7.43755 26.1875H9.31255C9.37255 26.1875 9.43068 26.1781 9.48974 26.1743C9.77799 27.7287 10.419 29.1962 11.3635 30.464C12.3079 31.7317 13.5307 32.7659 14.9376 33.4868V34.9278L7.35787 37.9596C5.44028 38.7196 3.79613 40.0397 2.63975 41.7477C1.48338 43.4558 0.868421 45.4726 0.875053 47.5353V56.1875C0.875053 56.4361 0.973825 56.6746 1.14964 56.8504C1.32546 57.0262 1.56391 57.125 1.81255 57.125H37.4376C37.6862 57.125 37.9247 57.0262 38.1005 56.8504C38.2763 56.6746 38.3751 56.4361 38.3751 56.1875V53.375H43.0626C43.2882 53.375 43.5062 53.2937 43.6767 53.1459C43.8472 52.9982 43.9586 52.7939 43.9907 52.5706L44.5138 48.9078C45.026 48.7336 45.527 48.5279 46.0138 48.2918L48.9688 50.5081C49.1493 50.6434 49.3727 50.7091 49.5977 50.6931C49.8228 50.6771 50.0346 50.5805 50.1941 50.4209L54.1719 46.4431C54.3315 46.2835 54.4282 46.0718 54.4442 45.8467C54.4602 45.6216 54.3945 45.3983 54.2591 45.2178L52.0429 42.2628C52.2789 41.7759 52.4846 41.275 52.6588 40.7628L56.3216 40.2396C56.5446 40.2074 56.7485 40.096 56.8961 39.9257C57.0436 39.7555 57.1249 39.5378 57.1251 39.3125V33.6875C57.1251 33.4619 57.0438 33.2438 56.896 33.0733C56.7483 32.9029 56.544 32.7914 56.3207 32.7593ZM46.0082 24.7081C45.9641 24.6865 45.9144 24.6725 45.8704 24.6518V13.0625H44.0001V20.4968L43.9907 20.4293C43.9586 20.206 43.8472 20.0018 43.6767 19.854C43.5062 19.7062 43.2882 19.6249 43.0626 19.625H42.1251V12.8187C42.1251 12.6675 42.0885 12.5185 42.0185 12.3845C41.9484 12.2505 41.847 12.1354 41.7229 12.049C41.026 11.5638 40.448 10.9272 40.0322 10.1867C39.6164 9.44633 39.3737 8.62139 39.3222 7.77379C39.2707 6.92619 39.4117 6.07793 39.7348 5.29262C40.0579 4.50731 40.5545 3.80533 41.1876 3.23933V7.43746C41.1875 7.6343 41.2494 7.82616 41.3645 7.98585C41.4796 8.14554 41.642 8.26495 41.8288 8.32715L44.6413 9.26465C44.8336 9.3287 45.0415 9.3287 45.2338 9.26465L48.0463 8.32715C48.2331 8.26495 48.3955 8.14554 48.5106 7.98585C48.6257 7.82616 48.6876 7.6343 48.6876 7.43746V3.23933C49.3211 3.80532 49.8182 4.50746 50.1416 5.29305C50.465 6.07864 50.6062 6.92728 50.5547 7.77526C50.5032 8.62325 50.2603 9.44855 49.8442 10.1892C49.4281 10.9299 48.8496 11.5667 48.1522 12.0518C48.0285 12.1379 47.9273 12.2526 47.8573 12.3861C47.7873 12.5196 47.7505 12.668 47.7501 12.8187V23.4059L46.0082 24.7081ZM33.6876 36.5C33.6772 35.0341 34.1545 33.6064 35.0444 32.4414C35.9342 31.2765 37.1861 30.4404 38.603 30.0648C40.02 29.6891 41.5217 29.7952 42.8717 30.3663C44.2218 30.9374 45.3437 31.9411 46.061 33.2196C46.7782 34.4981 47.0501 35.9787 46.8338 37.4286C46.6175 38.8784 45.9254 40.2153 44.8662 41.2288C43.8071 42.2422 42.4411 42.8748 40.9831 43.0271C39.5251 43.1793 38.0579 42.8425 36.8122 42.0696C36.1642 41.0314 35.3351 40.1179 34.3644 39.3725C33.9184 38.4807 33.6866 37.4971 33.6876 36.5ZM29.9376 29H28.7994C29.2563 28.1102 29.5801 27.1582 29.7604 26.1743C29.8194 26.1743 29.8776 26.1875 29.9376 26.1875H30.8751V28.0625C30.8751 28.3111 30.7763 28.5496 30.6005 28.7254C30.4247 28.9012 30.1862 29 29.9376 29ZM28.0626 18.6875C27.6261 18.6864 27.1959 18.5842 26.8055 18.3891C26.4151 18.1939 26.0753 17.911 25.8126 17.5625L24.1251 15.3125C24.0497 15.212 23.955 15.1277 23.8464 15.0646C23.7379 15.0015 23.6177 14.9608 23.4932 14.945C23.3686 14.9297 23.2422 14.9393 23.1213 14.9732C23.0004 15.0072 22.8875 15.0648 22.7891 15.1428L19.6429 17.6562C18.8127 18.3205 17.782 18.684 16.7188 18.6875H11.1876V17.75C11.1876 15.5122 12.0765 13.3661 13.6588 11.7837C15.2412 10.2014 17.3873 9.31246 19.6251 9.31246C21.8628 9.31246 24.0089 10.2014 25.5913 11.7837C27.1736 13.3661 28.0626 15.5122 28.0626 17.75V18.6875ZM32.7501 23.375C32.7501 23.6236 32.6513 23.8621 32.4755 24.0379C32.2997 24.2137 32.0612 24.3125 31.8126 24.3125H29.9376V19.625H31.8126C32.0612 19.625 32.2997 19.7237 32.4755 19.8995C32.6513 20.0754 32.7501 20.3138 32.7501 20.5625V23.375ZM19.6251 5.56246C22.6077 5.56569 25.4674 6.75199 27.5764 8.86107C29.6855 10.9702 30.8718 13.8298 30.8751 16.8125V17.75H29.9376C29.9376 15.0149 28.8511 12.3919 26.9171 10.4579C24.9831 8.52395 22.3601 7.43746 19.6251 7.43746C16.89 7.43746 14.267 8.52395 12.333 10.4579C10.399 12.3919 9.31255 15.0149 9.31255 17.75H8.37505V16.8125C8.37828 13.8298 9.56458 10.9702 11.6737 8.86107C13.7828 6.75199 16.6424 5.56569 19.6251 5.56246ZM7.43755 24.3125C7.18891 24.3125 6.95046 24.2137 6.77464 24.0379C6.59883 23.8621 6.50005 23.6236 6.50005 23.375V20.5625C6.50005 20.3138 6.59883 20.0754 6.77464 19.8995C6.95046 19.7237 7.18891 19.625 7.43755 19.625H9.31255V24.3125H7.43755ZM11.1876 24.3125V20.5625H16.7188C18.2084 20.5605 19.6533 20.0535 20.8176 19.1243L23.2091 17.2109L24.3126 18.6875C24.7504 19.2683 25.3169 19.7398 25.9675 20.0651C26.6181 20.3904 27.3352 20.5606 28.0626 20.5625V24.3125C28.0641 25.9821 27.5673 27.6143 26.6357 29H19.6251V30.875H24.9163C23.6782 31.876 22.1819 32.5059 20.6007 32.6918C19.0194 32.8777 17.4179 32.6119 15.9814 31.9253C14.5449 31.2386 13.3323 30.1592 12.4839 28.8119C11.6355 27.4646 11.1861 25.9046 11.1876 24.3125ZM19.6251 34.625C20.5765 34.6226 21.5231 34.4882 22.4376 34.2256V35.5625C22.4376 36.3084 22.1412 37.0238 21.6138 37.5512C21.0863 38.0786 20.371 38.375 19.6251 38.375C18.8791 38.375 18.1638 38.0786 17.6363 37.5512C17.1089 37.0238 16.8126 36.3084 16.8126 35.5625V34.2256C17.7271 34.4882 18.6736 34.6226 19.6251 34.625ZM36.5001 55.25H30.8751V44.9375H29.0001V55.25H10.2501V44.9375H8.37505V55.25H2.75005V47.5353C2.74459 45.8476 3.24776 44.1974 4.19394 42.7999C5.14012 41.4023 6.48541 40.3223 8.05443 39.7006L15.1447 36.8646C15.4216 37.8395 16.0088 38.6974 16.8174 39.3083C17.6259 39.9192 18.6117 40.2497 19.6251 40.2497C20.6384 40.2497 21.6242 39.9192 22.4327 39.3083C23.2413 38.6974 23.8285 37.8395 24.1054 36.8646L31.1957 39.7006C32.7647 40.3223 34.11 41.4023 35.0562 42.7999C36.0023 44.1974 36.5055 45.8476 36.5001 47.5353V55.25Z" fill="#FE762A"/>
<path d="M41.1875 23.375H39.3125V25.25H41.1875V23.375Z" fill="#FE762A"/>
<path d="M41.1875 47.75H39.3125V49.625H41.1875V47.75Z" fill="#FE762A"/>
<path d="M48.8671 43.7922L47.5413 45.118L48.8671 46.4439L50.1929 45.118L48.8671 43.7922Z" fill="#FE762A"/>
<path d="M53.375 35.5625H51.5V37.4375H53.375V35.5625Z" fill="#FE762A"/>
<path d="M48.8688 26.5567L47.543 27.8826L48.8688 29.2084L50.1946 27.8826L48.8688 26.5567Z" fill="#FE762A"/>
</svg>
