<svg width="60" height="60" viewBox="0 0 60 60" fill="none" xmlns="http://www.w3.org/2000/svg">
<g clip-path="url(#clip0_44_3855)">
<path d="M4.45258 55.0101H34.8233C38.7752 60.4256 46.3862 61.5965 51.8018 57.7178C57.2173 53.766 58.3882 46.1549 54.5096 40.7395C51.8018 37.0073 47.1913 35.1044 42.5808 35.9094C39.9462 31.8112 35.9212 28.8108 31.2375 27.3471C38.3361 23.6879 41.1171 14.9061 37.3849 7.80727C33.6526 0.708452 24.9438 -2.07237 17.845 1.65989C10.7462 5.39215 8.03859 14.1009 11.6976 21.1996C13.0881 23.8341 15.2105 25.9565 17.845 27.3469C9.13628 30.0547 3.2085 38.1048 3.2085 47.1794V53.6926C3.2085 54.4245 3.79394 55.0101 4.45258 55.0101ZM42.288 38.6171C47.4107 37.2998 52.6068 40.4466 53.9241 45.5695C55.2414 50.6924 52.0946 55.8882 46.9717 57.2056C40.9707 58.6693 35.1161 54.0588 35.1161 47.8382C35.1161 43.4472 38.0433 39.6417 42.288 38.6171ZM12.6491 14.6131C12.6491 8.02672 17.9182 2.68438 24.5047 2.68438C31.0911 2.68438 36.4334 7.95352 36.4334 14.5399C36.4334 21.1264 31.1643 26.4687 24.5047 26.4687C17.9914 26.4687 12.6491 21.1265 12.6491 14.6131ZM5.76987 47.1794C5.76987 37.1534 13.8932 29.0301 23.9924 28.9569H25.2365C31.0911 28.9569 36.653 31.811 40.0926 36.641C35.7017 38.4705 32.628 42.8616 32.628 47.8379C32.628 49.3016 32.9208 50.9115 33.5062 52.4484H5.76987V47.1794Z" fill="#14BA85"/>
<path d="M39.7265 49.1553H43.3857V52.8145C43.3857 53.5464 43.9711 54.1318 44.703 54.1318C45.4348 54.1318 46.0202 53.5464 46.0202 52.8145V49.1553H49.6795C50.4113 49.1553 50.9967 48.5699 50.9967 47.8381C50.9967 47.1062 50.4113 46.5208 49.6795 46.5208H46.0202V42.9348C46.0202 42.2029 45.4348 41.6175 44.703 41.6175C43.9711 41.6175 43.3857 42.2029 43.3857 42.9348V46.5208H39.7265C38.9946 46.5208 38.4092 47.1062 38.4092 47.8381C38.4092 48.5699 38.9946 49.1553 39.7265 49.1553Z" fill="#14BA85"/>
</g>
<defs>
<clipPath id="clip0_44_3855">
<rect width="60" height="60" fill="white"/>
</clipPath>
</defs>
</svg>
